M48
;DRILL file {KiCad 4.0.6} date 10/22/17 14:55:42
;FORMAT={-:-/ absolute / metric / decimal}
FMAT,2
METRIC,TZ
T1C0.300
T2C0.400
T3C1.016
T4C1.270
T5C1.778
T6C2.500
T7C3.300
%
G90
G05
M71
T1
X98.65Y-102.66
X100.48Y-106.79
X103.34Y-80.39
X104.82Y-99.24
X105.79Y-107.41
X106.95Y-114.11
X108.633Y-96.695
X108.633Y-98.195
X108.633Y-99.695
X108.633Y-101.195
X108.633Y-102.695
X109.32Y-91.06
X110.133Y-96.695
X110.133Y-98.195
X110.133Y-99.695
X110.133Y-101.195
X110.133Y-102.695
X111.633Y-96.695
X111.633Y-98.195
X111.633Y-99.695
X111.633Y-101.195
X111.633Y-102.695
X113.133Y-96.695
X113.133Y-98.195
X113.133Y-99.695
X113.87Y-121.07
X114.633Y-96.695
X114.633Y-98.195
X114.633Y-99.695
X115.48Y-124.36
X116.92Y-85.62
X117.99Y-79.46
X120.29Y-115.57
X121.22Y-99.43
X121.39Y-100.65
X121.81Y-107.67
X122.23Y-90.38
X123.93Y-118.02
X125.66Y-91.76
X125.94Y-89.72
X126.12Y-115.27
X128.23Y-89.9
X130.67Y-86.47
X130.91Y-89.98
X132.93Y-112.05
X133.12Y-97.56
X133.12Y-99.06
X133.12Y-100.56
X133.45Y-108.27
X133.55Y-86.28
X134.62Y-97.56
X134.62Y-99.06
X134.62Y-100.56
X135.88Y-83.58
X136.12Y-97.56
X136.12Y-99.06
X136.32Y-81.92
X136.4Y-108.8
X139.59Y-108.45
X140.462Y-92.202
X140.92Y-112.89
X142.55Y-105.81
X143.25Y-102.57
X143.28Y-101.34
X143.33Y-85.46
X143.49Y-92.18
X144.43Y-111.94
X147.27Y-91.17
X147.75Y-95.84
X147.86Y-98.79
X147.92Y-92.66
X147.94Y-88.47
X148.Y-91.79
X149.15Y-106.5
X150.46Y-79.77
X152.09Y-101.81
X152.27Y-103.8
X154.Y-108.91
T2
X104.75Y-96.24
X116.96Y-94.22
X116.97Y-105.09
X119.08Y-110.65
X124.96Y-100.3
X125.17Y-108.59
X125.47Y-112.46
X125.77Y-94.39
X126.95Y-95.82
X127.14Y-104.81
X129.85Y-112.88
X130.25Y-106.95
X130.58Y-108.55
X136.21Y-112.81
X138.21Y-86.34
X139.36Y-90.55
X141.05Y-108.98
X141.86Y-94.31
X142.33Y-85.57
X142.748Y-89.408
X143.56Y-99.84
X143.62Y-95.32
X143.78Y-107.81
X148.71Y-108.43
X152.34Y-105.31
T3
X98.37Y-73.23
X98.37Y-75.77
X100.91Y-73.23
X100.91Y-75.77
X103.45Y-73.23
X103.45Y-75.77
X105.99Y-73.23
X105.99Y-75.77
X108.53Y-73.23
X108.53Y-75.77
X111.07Y-73.23
X111.07Y-75.77
X113.61Y-73.23
X113.61Y-75.77
X116.15Y-73.23
X116.15Y-75.77
X118.69Y-73.23
X118.69Y-75.77
X120.57Y-122.73
X120.57Y-125.27
X121.23Y-73.23
X121.23Y-75.77
X123.11Y-122.73
X123.11Y-125.27
X123.77Y-73.23
X123.77Y-75.77
X125.65Y-122.73
X125.65Y-125.27
X126.31Y-73.23
X126.31Y-75.77
X128.19Y-122.73
X128.19Y-125.27
X128.85Y-73.23
X128.85Y-75.77
X130.73Y-122.73
X130.73Y-125.27
X131.39Y-73.23
X131.39Y-75.77
X133.27Y-122.73
X133.27Y-125.27
X133.93Y-73.23
X133.93Y-75.77
X135.81Y-122.73
X135.81Y-125.27
X136.47Y-73.23
X136.47Y-75.77
X138.35Y-122.73
X138.35Y-125.27
X139.01Y-73.23
X139.01Y-75.77
X140.89Y-122.73
X140.89Y-125.27
X141.55Y-73.23
X141.55Y-75.77
X143.43Y-122.73
X143.43Y-125.27
X144.09Y-73.23
X144.09Y-75.77
X146.63Y-73.23
X146.63Y-75.77
T4
X94.4Y-115.7
X94.5Y-83.5
T5
X91.85Y-113.15
X91.85Y-118.25
X91.95Y-80.95
X91.95Y-86.05
X96.95Y-113.15
X96.95Y-118.25
X97.05Y-80.95
X97.05Y-86.05
T6
X113.633Y-101.695
X136.72Y-101.16
T7
X93.5Y-74.5
X93.5Y-123.5
X151.5Y-74.5
X151.5Y-123.5
T0
M30
