%TF.GenerationSoftware,KiCad,Pcbnew,(5.1.8)-1*%
%TF.CreationDate,2021-04-21T20:08:09+02:00*%
%TF.ProjectId,Radioberry,52616469-6f62-4657-9272-792e6b696361,rev?*%
%TF.SameCoordinates,Original*%
%TF.FileFunction,Paste,Top*%
%TF.FilePolarity,Positive*%
%FSLAX46Y46*%
G04 Gerber Fmt 4.6, Leading zero omitted, Abs format (unit mm)*
G04 Created by KiCad (PCBNEW (5.1.8)-1) date 2021-04-21 20:08:09*
%MOMM*%
%LPD*%
G01*
G04 APERTURE LIST*
%ADD10R,0.800100X1.257300*%
%ADD11R,1.485900X0.800100*%
%ADD12R,0.571500X0.800100*%
%ADD13R,1.371600X0.800100*%
%ADD14R,0.571500X1.028700*%
%ADD15R,0.720000X1.350000*%
%ADD16O,1.080000X0.252000*%
%ADD17O,0.252000X1.080000*%
%ADD18R,2.250000X2.250000*%
%ADD19R,0.720000X0.225000*%
%ADD20R,0.225000X0.720000*%
%ADD21R,1.800000X1.350000*%
%ADD22R,1.800000X3.420000*%
%ADD23R,1.350000X1.800000*%
%ADD24R,3.420000X1.800000*%
G04 APERTURE END LIST*
D10*
%TO.C,R201*%
X151052500Y-86400000D03*
X149147500Y-86400000D03*
%TD*%
D11*
%TO.C,T401*%
X93751400Y-104394000D03*
X93751400Y-106934000D03*
X97409000Y-106934000D03*
X97409000Y-105664000D03*
X97409000Y-104394000D03*
%TD*%
D12*
%TO.C,X400*%
X107619800Y-112191800D03*
X108710600Y-112191800D03*
X109804200Y-112191800D03*
X109804200Y-110693200D03*
X108710600Y-110693200D03*
X107619800Y-110693200D03*
%TD*%
D11*
%TO.C,T402*%
X94005400Y-96520000D03*
X94005400Y-99060000D03*
X97663000Y-99060000D03*
X97663000Y-97790000D03*
X97663000Y-96520000D03*
%TD*%
%TO.C,C419*%
G36*
G01*
X113785250Y-111292250D02*
X113785250Y-111719750D01*
G75*
G02*
X113571500Y-111933500I-213750J0D01*
G01*
X113031500Y-111933500D01*
G75*
G02*
X112817750Y-111719750I0J213750D01*
G01*
X112817750Y-111292250D01*
G75*
G02*
X113031500Y-111078500I213750J0D01*
G01*
X113571500Y-111078500D01*
G75*
G02*
X113785250Y-111292250I0J-213750D01*
G01*
G37*
G36*
G01*
X112060250Y-111292250D02*
X112060250Y-111719750D01*
G75*
G02*
X111846500Y-111933500I-213750J0D01*
G01*
X111306500Y-111933500D01*
G75*
G02*
X111092750Y-111719750I0J213750D01*
G01*
X111092750Y-111292250D01*
G75*
G02*
X111306500Y-111078500I213750J0D01*
G01*
X111846500Y-111078500D01*
G75*
G02*
X112060250Y-111292250I0J-213750D01*
G01*
G37*
%TD*%
%TO.C,L402*%
G36*
G01*
X93506544Y-94094300D02*
X94402656Y-94094300D01*
G75*
G02*
X94640400Y-94332044I0J-237744D01*
G01*
X94640400Y-94999556D01*
G75*
G02*
X94402656Y-95237300I-237744J0D01*
G01*
X93506544Y-95237300D01*
G75*
G02*
X93268800Y-94999556I0J237744D01*
G01*
X93268800Y-94332044D01*
G75*
G02*
X93506544Y-94094300I237744J0D01*
G01*
G37*
G36*
G01*
X93506544Y-91960700D02*
X94402656Y-91960700D01*
G75*
G02*
X94640400Y-92198444I0J-237744D01*
G01*
X94640400Y-92865956D01*
G75*
G02*
X94402656Y-93103700I-237744J0D01*
G01*
X93506544Y-93103700D01*
G75*
G02*
X93268800Y-92865956I0J237744D01*
G01*
X93268800Y-92198444D01*
G75*
G02*
X93506544Y-91960700I237744J0D01*
G01*
G37*
%TD*%
%TO.C,L401*%
G36*
G01*
X93551944Y-90295300D02*
X94448056Y-90295300D01*
G75*
G02*
X94685800Y-90533044I0J-237744D01*
G01*
X94685800Y-91200556D01*
G75*
G02*
X94448056Y-91438300I-237744J0D01*
G01*
X93551944Y-91438300D01*
G75*
G02*
X93314200Y-91200556I0J237744D01*
G01*
X93314200Y-90533044D01*
G75*
G02*
X93551944Y-90295300I237744J0D01*
G01*
G37*
G36*
G01*
X93551944Y-88161700D02*
X94448056Y-88161700D01*
G75*
G02*
X94685800Y-88399444I0J-237744D01*
G01*
X94685800Y-89066956D01*
G75*
G02*
X94448056Y-89304700I-237744J0D01*
G01*
X93551944Y-89304700D01*
G75*
G02*
X93314200Y-89066956I0J237744D01*
G01*
X93314200Y-88399444D01*
G75*
G02*
X93551944Y-88161700I237744J0D01*
G01*
G37*
%TD*%
%TO.C,FB406*%
G36*
G01*
X107699600Y-115450200D02*
X108149600Y-115450200D01*
G75*
G02*
X108374600Y-115675200I0J-225000D01*
G01*
X108374600Y-116125200D01*
G75*
G02*
X108149600Y-116350200I-225000J0D01*
G01*
X107699600Y-116350200D01*
G75*
G02*
X107474600Y-116125200I0J225000D01*
G01*
X107474600Y-115675200D01*
G75*
G02*
X107699600Y-115450200I225000J0D01*
G01*
G37*
G36*
G01*
X107699600Y-113625200D02*
X108149600Y-113625200D01*
G75*
G02*
X108374600Y-113850200I0J-225000D01*
G01*
X108374600Y-114300200D01*
G75*
G02*
X108149600Y-114525200I-225000J0D01*
G01*
X107699600Y-114525200D01*
G75*
G02*
X107474600Y-114300200I0J225000D01*
G01*
X107474600Y-113850200D01*
G75*
G02*
X107699600Y-113625200I225000J0D01*
G01*
G37*
%TD*%
%TO.C,FB405*%
G36*
G01*
X102746600Y-116818000D02*
X103196600Y-116818000D01*
G75*
G02*
X103421600Y-117043000I0J-225000D01*
G01*
X103421600Y-117493000D01*
G75*
G02*
X103196600Y-117718000I-225000J0D01*
G01*
X102746600Y-117718000D01*
G75*
G02*
X102521600Y-117493000I0J225000D01*
G01*
X102521600Y-117043000D01*
G75*
G02*
X102746600Y-116818000I225000J0D01*
G01*
G37*
G36*
G01*
X102746600Y-114993000D02*
X103196600Y-114993000D01*
G75*
G02*
X103421600Y-115218000I0J-225000D01*
G01*
X103421600Y-115668000D01*
G75*
G02*
X103196600Y-115893000I-225000J0D01*
G01*
X102746600Y-115893000D01*
G75*
G02*
X102521600Y-115668000I0J225000D01*
G01*
X102521600Y-115218000D01*
G75*
G02*
X102746600Y-114993000I225000J0D01*
G01*
G37*
%TD*%
%TO.C,FB404*%
G36*
G01*
X112037500Y-114375000D02*
X112037500Y-114825000D01*
G75*
G02*
X111812500Y-115050000I-225000J0D01*
G01*
X111362500Y-115050000D01*
G75*
G02*
X111137500Y-114825000I0J225000D01*
G01*
X111137500Y-114375000D01*
G75*
G02*
X111362500Y-114150000I225000J0D01*
G01*
X111812500Y-114150000D01*
G75*
G02*
X112037500Y-114375000I0J-225000D01*
G01*
G37*
G36*
G01*
X113862500Y-114375000D02*
X113862500Y-114825000D01*
G75*
G02*
X113637500Y-115050000I-225000J0D01*
G01*
X113187500Y-115050000D01*
G75*
G02*
X112962500Y-114825000I0J225000D01*
G01*
X112962500Y-114375000D01*
G75*
G02*
X113187500Y-114150000I225000J0D01*
G01*
X113637500Y-114150000D01*
G75*
G02*
X113862500Y-114375000I0J-225000D01*
G01*
G37*
%TD*%
%TO.C,FB402*%
G36*
G01*
X116962500Y-115125000D02*
X116962500Y-114675000D01*
G75*
G02*
X117187500Y-114450000I225000J0D01*
G01*
X117637500Y-114450000D01*
G75*
G02*
X117862500Y-114675000I0J-225000D01*
G01*
X117862500Y-115125000D01*
G75*
G02*
X117637500Y-115350000I-225000J0D01*
G01*
X117187500Y-115350000D01*
G75*
G02*
X116962500Y-115125000I0J225000D01*
G01*
G37*
G36*
G01*
X115137500Y-115125000D02*
X115137500Y-114675000D01*
G75*
G02*
X115362500Y-114450000I225000J0D01*
G01*
X115812500Y-114450000D01*
G75*
G02*
X116037500Y-114675000I0J-225000D01*
G01*
X116037500Y-115125000D01*
G75*
G02*
X115812500Y-115350000I-225000J0D01*
G01*
X115362500Y-115350000D01*
G75*
G02*
X115137500Y-115125000I0J225000D01*
G01*
G37*
%TD*%
%TO.C,FB401*%
G36*
G01*
X95257200Y-101342400D02*
X95257200Y-100892400D01*
G75*
G02*
X95482200Y-100667400I225000J0D01*
G01*
X95932200Y-100667400D01*
G75*
G02*
X96157200Y-100892400I0J-225000D01*
G01*
X96157200Y-101342400D01*
G75*
G02*
X95932200Y-101567400I-225000J0D01*
G01*
X95482200Y-101567400D01*
G75*
G02*
X95257200Y-101342400I0J225000D01*
G01*
G37*
G36*
G01*
X93432200Y-101342400D02*
X93432200Y-100892400D01*
G75*
G02*
X93657200Y-100667400I225000J0D01*
G01*
X94107200Y-100667400D01*
G75*
G02*
X94332200Y-100892400I0J-225000D01*
G01*
X94332200Y-101342400D01*
G75*
G02*
X94107200Y-101567400I-225000J0D01*
G01*
X93657200Y-101567400D01*
G75*
G02*
X93432200Y-101342400I0J225000D01*
G01*
G37*
%TD*%
D13*
%TO.C,F402*%
X94970600Y-109728000D03*
D14*
X93446662Y-108762800D03*
X93446662Y-110693200D03*
D13*
X91922600Y-109728000D03*
%TD*%
%TO.C,F401*%
X99568000Y-109728000D03*
D14*
X98044062Y-108762800D03*
X98044062Y-110693200D03*
D13*
X96520000Y-109728000D03*
%TD*%
D15*
%TO.C,D401*%
X91892120Y-97012760D03*
X91892120Y-99374960D03*
%TD*%
%TO.C,C408*%
G36*
G01*
X105249646Y-91056072D02*
X104422328Y-90228754D01*
G75*
G02*
X104422328Y-89910558I159098J159098D01*
G01*
X104947358Y-89385528D01*
G75*
G02*
X105265554Y-89385528I159098J-159098D01*
G01*
X106092872Y-90212846D01*
G75*
G02*
X106092872Y-90531042I-159098J-159098D01*
G01*
X105567842Y-91056072D01*
G75*
G02*
X105249646Y-91056072I-159098J159098D01*
G01*
G37*
G36*
G01*
X103039938Y-93265780D02*
X102212620Y-92438462D01*
G75*
G02*
X102212620Y-92120266I159098J159098D01*
G01*
X102737650Y-91595236D01*
G75*
G02*
X103055846Y-91595236I159098J-159098D01*
G01*
X103883164Y-92422554D01*
G75*
G02*
X103883164Y-92740750I-159098J-159098D01*
G01*
X103358134Y-93265780D01*
G75*
G02*
X103039938Y-93265780I-159098J159098D01*
G01*
G37*
%TD*%
%TO.C,C407*%
G36*
G01*
X95842750Y-94407500D02*
X95842750Y-93552500D01*
G75*
G02*
X96067750Y-93327500I225000J0D01*
G01*
X96675250Y-93327500D01*
G75*
G02*
X96900250Y-93552500I0J-225000D01*
G01*
X96900250Y-94407500D01*
G75*
G02*
X96675250Y-94632500I-225000J0D01*
G01*
X96067750Y-94632500D01*
G75*
G02*
X95842750Y-94407500I0J225000D01*
G01*
G37*
G36*
G01*
X97917750Y-94407500D02*
X97917750Y-93552500D01*
G75*
G02*
X98142750Y-93327500I225000J0D01*
G01*
X98750250Y-93327500D01*
G75*
G02*
X98975250Y-93552500I0J-225000D01*
G01*
X98975250Y-94407500D01*
G75*
G02*
X98750250Y-94632500I-225000J0D01*
G01*
X98142750Y-94632500D01*
G75*
G02*
X97917750Y-94407500I0J225000D01*
G01*
G37*
%TD*%
%TO.C,C406*%
G36*
G01*
X92248500Y-95194550D02*
X91393500Y-95194550D01*
G75*
G02*
X91168500Y-94969550I0J225000D01*
G01*
X91168500Y-94362050D01*
G75*
G02*
X91393500Y-94137050I225000J0D01*
G01*
X92248500Y-94137050D01*
G75*
G02*
X92473500Y-94362050I0J-225000D01*
G01*
X92473500Y-94969550D01*
G75*
G02*
X92248500Y-95194550I-225000J0D01*
G01*
G37*
G36*
G01*
X92248500Y-93119550D02*
X91393500Y-93119550D01*
G75*
G02*
X91168500Y-92894550I0J225000D01*
G01*
X91168500Y-92287050D01*
G75*
G02*
X91393500Y-92062050I225000J0D01*
G01*
X92248500Y-92062050D01*
G75*
G02*
X92473500Y-92287050I0J-225000D01*
G01*
X92473500Y-92894550D01*
G75*
G02*
X92248500Y-93119550I-225000J0D01*
G01*
G37*
%TD*%
%TO.C,C405*%
G36*
G01*
X95842750Y-92121500D02*
X95842750Y-91266500D01*
G75*
G02*
X96067750Y-91041500I225000J0D01*
G01*
X96675250Y-91041500D01*
G75*
G02*
X96900250Y-91266500I0J-225000D01*
G01*
X96900250Y-92121500D01*
G75*
G02*
X96675250Y-92346500I-225000J0D01*
G01*
X96067750Y-92346500D01*
G75*
G02*
X95842750Y-92121500I0J225000D01*
G01*
G37*
G36*
G01*
X97917750Y-92121500D02*
X97917750Y-91266500D01*
G75*
G02*
X98142750Y-91041500I225000J0D01*
G01*
X98750250Y-91041500D01*
G75*
G02*
X98975250Y-91266500I0J-225000D01*
G01*
X98975250Y-92121500D01*
G75*
G02*
X98750250Y-92346500I-225000J0D01*
G01*
X98142750Y-92346500D01*
G75*
G02*
X97917750Y-92121500I0J225000D01*
G01*
G37*
%TD*%
%TO.C,C404*%
G36*
G01*
X92248500Y-91355250D02*
X91393500Y-91355250D01*
G75*
G02*
X91168500Y-91130250I0J225000D01*
G01*
X91168500Y-90522750D01*
G75*
G02*
X91393500Y-90297750I225000J0D01*
G01*
X92248500Y-90297750D01*
G75*
G02*
X92473500Y-90522750I0J-225000D01*
G01*
X92473500Y-91130250D01*
G75*
G02*
X92248500Y-91355250I-225000J0D01*
G01*
G37*
G36*
G01*
X92248500Y-89280250D02*
X91393500Y-89280250D01*
G75*
G02*
X91168500Y-89055250I0J225000D01*
G01*
X91168500Y-88447750D01*
G75*
G02*
X91393500Y-88222750I225000J0D01*
G01*
X92248500Y-88222750D01*
G75*
G02*
X92473500Y-88447750I0J-225000D01*
G01*
X92473500Y-89055250D01*
G75*
G02*
X92248500Y-89280250I-225000J0D01*
G01*
G37*
%TD*%
%TO.C,C403*%
G36*
G01*
X95842750Y-89581500D02*
X95842750Y-88726500D01*
G75*
G02*
X96067750Y-88501500I225000J0D01*
G01*
X96675250Y-88501500D01*
G75*
G02*
X96900250Y-88726500I0J-225000D01*
G01*
X96900250Y-89581500D01*
G75*
G02*
X96675250Y-89806500I-225000J0D01*
G01*
X96067750Y-89806500D01*
G75*
G02*
X95842750Y-89581500I0J225000D01*
G01*
G37*
G36*
G01*
X97917750Y-89581500D02*
X97917750Y-88726500D01*
G75*
G02*
X98142750Y-88501500I225000J0D01*
G01*
X98750250Y-88501500D01*
G75*
G02*
X98975250Y-88726500I0J-225000D01*
G01*
X98975250Y-89581500D01*
G75*
G02*
X98750250Y-89806500I-225000J0D01*
G01*
X98142750Y-89806500D01*
G75*
G02*
X97917750Y-89581500I0J225000D01*
G01*
G37*
%TD*%
%TO.C,C220*%
G36*
G01*
X151702150Y-90017002D02*
X151702150Y-88036998D01*
G75*
G02*
X151927148Y-87812000I224998J0D01*
G01*
X152669652Y-87812000D01*
G75*
G02*
X152894650Y-88036998I0J-224998D01*
G01*
X152894650Y-90017002D01*
G75*
G02*
X152669652Y-90242000I-224998J0D01*
G01*
X151927148Y-90242000D01*
G75*
G02*
X151702150Y-90017002I0J224998D01*
G01*
G37*
G36*
G01*
X148577150Y-90017002D02*
X148577150Y-88036998D01*
G75*
G02*
X148802148Y-87812000I224998J0D01*
G01*
X149544652Y-87812000D01*
G75*
G02*
X149769650Y-88036998I0J-224998D01*
G01*
X149769650Y-90017002D01*
G75*
G02*
X149544652Y-90242000I-224998J0D01*
G01*
X148802148Y-90242000D01*
G75*
G02*
X148577150Y-90017002I0J224998D01*
G01*
G37*
%TD*%
%TO.C,C215*%
G36*
G01*
X105490002Y-84033750D02*
X103509998Y-84033750D01*
G75*
G02*
X103285000Y-83808752I0J224998D01*
G01*
X103285000Y-83066248D01*
G75*
G02*
X103509998Y-82841250I224998J0D01*
G01*
X105490002Y-82841250D01*
G75*
G02*
X105715000Y-83066248I0J-224998D01*
G01*
X105715000Y-83808752D01*
G75*
G02*
X105490002Y-84033750I-224998J0D01*
G01*
G37*
G36*
G01*
X105490002Y-87158750D02*
X103509998Y-87158750D01*
G75*
G02*
X103285000Y-86933752I0J224998D01*
G01*
X103285000Y-86191248D01*
G75*
G02*
X103509998Y-85966250I224998J0D01*
G01*
X105490002Y-85966250D01*
G75*
G02*
X105715000Y-86191248I0J-224998D01*
G01*
X105715000Y-86933752D01*
G75*
G02*
X105490002Y-87158750I-224998J0D01*
G01*
G37*
%TD*%
%TO.C,C214*%
G36*
G01*
X115409998Y-119766250D02*
X117390002Y-119766250D01*
G75*
G02*
X117615000Y-119991248I0J-224998D01*
G01*
X117615000Y-120733752D01*
G75*
G02*
X117390002Y-120958750I-224998J0D01*
G01*
X115409998Y-120958750D01*
G75*
G02*
X115185000Y-120733752I0J224998D01*
G01*
X115185000Y-119991248D01*
G75*
G02*
X115409998Y-119766250I224998J0D01*
G01*
G37*
G36*
G01*
X115409998Y-116641250D02*
X117390002Y-116641250D01*
G75*
G02*
X117615000Y-116866248I0J-224998D01*
G01*
X117615000Y-117608752D01*
G75*
G02*
X117390002Y-117833750I-224998J0D01*
G01*
X115409998Y-117833750D01*
G75*
G02*
X115185000Y-117608752I0J224998D01*
G01*
X115185000Y-116866248D01*
G75*
G02*
X115409998Y-116641250I224998J0D01*
G01*
G37*
%TD*%
%TO.C,C213*%
G36*
G01*
X150597650Y-119404802D02*
X150597650Y-117424798D01*
G75*
G02*
X150822648Y-117199800I224998J0D01*
G01*
X151565152Y-117199800D01*
G75*
G02*
X151790150Y-117424798I0J-224998D01*
G01*
X151790150Y-119404802D01*
G75*
G02*
X151565152Y-119629800I-224998J0D01*
G01*
X150822648Y-119629800D01*
G75*
G02*
X150597650Y-119404802I0J224998D01*
G01*
G37*
G36*
G01*
X147472650Y-119404802D02*
X147472650Y-117424798D01*
G75*
G02*
X147697648Y-117199800I224998J0D01*
G01*
X148440152Y-117199800D01*
G75*
G02*
X148665150Y-117424798I0J-224998D01*
G01*
X148665150Y-119404802D01*
G75*
G02*
X148440152Y-119629800I-224998J0D01*
G01*
X147697648Y-119629800D01*
G75*
G02*
X147472650Y-119404802I0J224998D01*
G01*
G37*
%TD*%
%TO.C,C217*%
G36*
G01*
X145593950Y-79872450D02*
X145593950Y-80299950D01*
G75*
G02*
X145380200Y-80513700I-213750J0D01*
G01*
X144840200Y-80513700D01*
G75*
G02*
X144626450Y-80299950I0J213750D01*
G01*
X144626450Y-79872450D01*
G75*
G02*
X144840200Y-79658700I213750J0D01*
G01*
X145380200Y-79658700D01*
G75*
G02*
X145593950Y-79872450I0J-213750D01*
G01*
G37*
G36*
G01*
X143868950Y-79872450D02*
X143868950Y-80299950D01*
G75*
G02*
X143655200Y-80513700I-213750J0D01*
G01*
X143115200Y-80513700D01*
G75*
G02*
X142901450Y-80299950I0J213750D01*
G01*
X142901450Y-79872450D01*
G75*
G02*
X143115200Y-79658700I213750J0D01*
G01*
X143655200Y-79658700D01*
G75*
G02*
X143868950Y-79872450I0J-213750D01*
G01*
G37*
%TD*%
%TO.C,C211*%
G36*
G01*
X104138850Y-122413150D02*
X104138850Y-121985650D01*
G75*
G02*
X104352600Y-121771900I213750J0D01*
G01*
X104892600Y-121771900D01*
G75*
G02*
X105106350Y-121985650I0J-213750D01*
G01*
X105106350Y-122413150D01*
G75*
G02*
X104892600Y-122626900I-213750J0D01*
G01*
X104352600Y-122626900D01*
G75*
G02*
X104138850Y-122413150I0J213750D01*
G01*
G37*
G36*
G01*
X105863850Y-122413150D02*
X105863850Y-121985650D01*
G75*
G02*
X106077600Y-121771900I213750J0D01*
G01*
X106617600Y-121771900D01*
G75*
G02*
X106831350Y-121985650I0J-213750D01*
G01*
X106831350Y-122413150D01*
G75*
G02*
X106617600Y-122626900I-213750J0D01*
G01*
X106077600Y-122626900D01*
G75*
G02*
X105863850Y-122413150I0J213750D01*
G01*
G37*
%TD*%
%TO.C,R403*%
G36*
G01*
X104070750Y-100268650D02*
X104070750Y-100696150D01*
G75*
G02*
X103857000Y-100909900I-213750J0D01*
G01*
X103407000Y-100909900D01*
G75*
G02*
X103193250Y-100696150I0J213750D01*
G01*
X103193250Y-100268650D01*
G75*
G02*
X103407000Y-100054900I213750J0D01*
G01*
X103857000Y-100054900D01*
G75*
G02*
X104070750Y-100268650I0J-213750D01*
G01*
G37*
G36*
G01*
X102245750Y-100268650D02*
X102245750Y-100696150D01*
G75*
G02*
X102032000Y-100909900I-213750J0D01*
G01*
X101582000Y-100909900D01*
G75*
G02*
X101368250Y-100696150I0J213750D01*
G01*
X101368250Y-100268650D01*
G75*
G02*
X101582000Y-100054900I213750J0D01*
G01*
X102032000Y-100054900D01*
G75*
G02*
X102245750Y-100268650I0J-213750D01*
G01*
G37*
%TD*%
%TO.C,C438*%
G36*
G01*
X109686250Y-106653750D02*
X110113750Y-106653750D01*
G75*
G02*
X110327500Y-106867500I0J-213750D01*
G01*
X110327500Y-107407500D01*
G75*
G02*
X110113750Y-107621250I-213750J0D01*
G01*
X109686250Y-107621250D01*
G75*
G02*
X109472500Y-107407500I0J213750D01*
G01*
X109472500Y-106867500D01*
G75*
G02*
X109686250Y-106653750I213750J0D01*
G01*
G37*
G36*
G01*
X109686250Y-108378750D02*
X110113750Y-108378750D01*
G75*
G02*
X110327500Y-108592500I0J-213750D01*
G01*
X110327500Y-109132500D01*
G75*
G02*
X110113750Y-109346250I-213750J0D01*
G01*
X109686250Y-109346250D01*
G75*
G02*
X109472500Y-109132500I0J213750D01*
G01*
X109472500Y-108592500D01*
G75*
G02*
X109686250Y-108378750I213750J0D01*
G01*
G37*
%TD*%
%TO.C,C437*%
G36*
G01*
X105780450Y-108737350D02*
X106207950Y-108737350D01*
G75*
G02*
X106421700Y-108951100I0J-213750D01*
G01*
X106421700Y-109491100D01*
G75*
G02*
X106207950Y-109704850I-213750J0D01*
G01*
X105780450Y-109704850D01*
G75*
G02*
X105566700Y-109491100I0J213750D01*
G01*
X105566700Y-108951100D01*
G75*
G02*
X105780450Y-108737350I213750J0D01*
G01*
G37*
G36*
G01*
X105780450Y-110462350D02*
X106207950Y-110462350D01*
G75*
G02*
X106421700Y-110676100I0J-213750D01*
G01*
X106421700Y-111216100D01*
G75*
G02*
X106207950Y-111429850I-213750J0D01*
G01*
X105780450Y-111429850D01*
G75*
G02*
X105566700Y-111216100I0J213750D01*
G01*
X105566700Y-110676100D01*
G75*
G02*
X105780450Y-110462350I213750J0D01*
G01*
G37*
%TD*%
%TO.C,C436*%
G36*
G01*
X103834150Y-113654450D02*
X103834150Y-114081950D01*
G75*
G02*
X103620400Y-114295700I-213750J0D01*
G01*
X103080400Y-114295700D01*
G75*
G02*
X102866650Y-114081950I0J213750D01*
G01*
X102866650Y-113654450D01*
G75*
G02*
X103080400Y-113440700I213750J0D01*
G01*
X103620400Y-113440700D01*
G75*
G02*
X103834150Y-113654450I0J-213750D01*
G01*
G37*
G36*
G01*
X102109150Y-113654450D02*
X102109150Y-114081950D01*
G75*
G02*
X101895400Y-114295700I-213750J0D01*
G01*
X101355400Y-114295700D01*
G75*
G02*
X101141650Y-114081950I0J213750D01*
G01*
X101141650Y-113654450D01*
G75*
G02*
X101355400Y-113440700I213750J0D01*
G01*
X101895400Y-113440700D01*
G75*
G02*
X102109150Y-113654450I0J-213750D01*
G01*
G37*
%TD*%
%TO.C,C435*%
G36*
G01*
X113785250Y-112816250D02*
X113785250Y-113243750D01*
G75*
G02*
X113571500Y-113457500I-213750J0D01*
G01*
X113031500Y-113457500D01*
G75*
G02*
X112817750Y-113243750I0J213750D01*
G01*
X112817750Y-112816250D01*
G75*
G02*
X113031500Y-112602500I213750J0D01*
G01*
X113571500Y-112602500D01*
G75*
G02*
X113785250Y-112816250I0J-213750D01*
G01*
G37*
G36*
G01*
X112060250Y-112816250D02*
X112060250Y-113243750D01*
G75*
G02*
X111846500Y-113457500I-213750J0D01*
G01*
X111306500Y-113457500D01*
G75*
G02*
X111092750Y-113243750I0J213750D01*
G01*
X111092750Y-112816250D01*
G75*
G02*
X111306500Y-112602500I213750J0D01*
G01*
X111846500Y-112602500D01*
G75*
G02*
X112060250Y-112816250I0J-213750D01*
G01*
G37*
%TD*%
%TO.C,C433*%
G36*
G01*
X115112750Y-113370750D02*
X115112750Y-112943250D01*
G75*
G02*
X115326500Y-112729500I213750J0D01*
G01*
X115866500Y-112729500D01*
G75*
G02*
X116080250Y-112943250I0J-213750D01*
G01*
X116080250Y-113370750D01*
G75*
G02*
X115866500Y-113584500I-213750J0D01*
G01*
X115326500Y-113584500D01*
G75*
G02*
X115112750Y-113370750I0J213750D01*
G01*
G37*
G36*
G01*
X116837750Y-113370750D02*
X116837750Y-112943250D01*
G75*
G02*
X117051500Y-112729500I213750J0D01*
G01*
X117591500Y-112729500D01*
G75*
G02*
X117805250Y-112943250I0J-213750D01*
G01*
X117805250Y-113370750D01*
G75*
G02*
X117591500Y-113584500I-213750J0D01*
G01*
X117051500Y-113584500D01*
G75*
G02*
X116837750Y-113370750I0J213750D01*
G01*
G37*
%TD*%
%TO.C,C432*%
G36*
G01*
X103796250Y-111952650D02*
X103796250Y-112380150D01*
G75*
G02*
X103582500Y-112593900I-213750J0D01*
G01*
X103042500Y-112593900D01*
G75*
G02*
X102828750Y-112380150I0J213750D01*
G01*
X102828750Y-111952650D01*
G75*
G02*
X103042500Y-111738900I213750J0D01*
G01*
X103582500Y-111738900D01*
G75*
G02*
X103796250Y-111952650I0J-213750D01*
G01*
G37*
G36*
G01*
X102071250Y-111952650D02*
X102071250Y-112380150D01*
G75*
G02*
X101857500Y-112593900I-213750J0D01*
G01*
X101317500Y-112593900D01*
G75*
G02*
X101103750Y-112380150I0J213750D01*
G01*
X101103750Y-111952650D01*
G75*
G02*
X101317500Y-111738900I213750J0D01*
G01*
X101857500Y-111738900D01*
G75*
G02*
X102071250Y-111952650I0J-213750D01*
G01*
G37*
%TD*%
%TO.C,C431*%
G36*
G01*
X113785250Y-106466250D02*
X113785250Y-106893750D01*
G75*
G02*
X113571500Y-107107500I-213750J0D01*
G01*
X113031500Y-107107500D01*
G75*
G02*
X112817750Y-106893750I0J213750D01*
G01*
X112817750Y-106466250D01*
G75*
G02*
X113031500Y-106252500I213750J0D01*
G01*
X113571500Y-106252500D01*
G75*
G02*
X113785250Y-106466250I0J-213750D01*
G01*
G37*
G36*
G01*
X112060250Y-106466250D02*
X112060250Y-106893750D01*
G75*
G02*
X111846500Y-107107500I-213750J0D01*
G01*
X111306500Y-107107500D01*
G75*
G02*
X111092750Y-106893750I0J213750D01*
G01*
X111092750Y-106466250D01*
G75*
G02*
X111306500Y-106252500I213750J0D01*
G01*
X111846500Y-106252500D01*
G75*
G02*
X112060250Y-106466250I0J-213750D01*
G01*
G37*
%TD*%
%TO.C,C429*%
G36*
G01*
X115112750Y-111719750D02*
X115112750Y-111292250D01*
G75*
G02*
X115326500Y-111078500I213750J0D01*
G01*
X115866500Y-111078500D01*
G75*
G02*
X116080250Y-111292250I0J-213750D01*
G01*
X116080250Y-111719750D01*
G75*
G02*
X115866500Y-111933500I-213750J0D01*
G01*
X115326500Y-111933500D01*
G75*
G02*
X115112750Y-111719750I0J213750D01*
G01*
G37*
G36*
G01*
X116837750Y-111719750D02*
X116837750Y-111292250D01*
G75*
G02*
X117051500Y-111078500I213750J0D01*
G01*
X117591500Y-111078500D01*
G75*
G02*
X117805250Y-111292250I0J-213750D01*
G01*
X117805250Y-111719750D01*
G75*
G02*
X117591500Y-111933500I-213750J0D01*
G01*
X117051500Y-111933500D01*
G75*
G02*
X116837750Y-111719750I0J213750D01*
G01*
G37*
%TD*%
%TO.C,C428*%
G36*
G01*
X99781750Y-102183150D02*
X99354250Y-102183150D01*
G75*
G02*
X99140500Y-101969400I0J213750D01*
G01*
X99140500Y-101429400D01*
G75*
G02*
X99354250Y-101215650I213750J0D01*
G01*
X99781750Y-101215650D01*
G75*
G02*
X99995500Y-101429400I0J-213750D01*
G01*
X99995500Y-101969400D01*
G75*
G02*
X99781750Y-102183150I-213750J0D01*
G01*
G37*
G36*
G01*
X99781750Y-100458150D02*
X99354250Y-100458150D01*
G75*
G02*
X99140500Y-100244400I0J213750D01*
G01*
X99140500Y-99704400D01*
G75*
G02*
X99354250Y-99490650I213750J0D01*
G01*
X99781750Y-99490650D01*
G75*
G02*
X99995500Y-99704400I0J-213750D01*
G01*
X99995500Y-100244400D01*
G75*
G02*
X99781750Y-100458150I-213750J0D01*
G01*
G37*
%TD*%
%TO.C,C427*%
G36*
G01*
X113785250Y-107990250D02*
X113785250Y-108417750D01*
G75*
G02*
X113571500Y-108631500I-213750J0D01*
G01*
X113031500Y-108631500D01*
G75*
G02*
X112817750Y-108417750I0J213750D01*
G01*
X112817750Y-107990250D01*
G75*
G02*
X113031500Y-107776500I213750J0D01*
G01*
X113571500Y-107776500D01*
G75*
G02*
X113785250Y-107990250I0J-213750D01*
G01*
G37*
G36*
G01*
X112060250Y-107990250D02*
X112060250Y-108417750D01*
G75*
G02*
X111846500Y-108631500I-213750J0D01*
G01*
X111306500Y-108631500D01*
G75*
G02*
X111092750Y-108417750I0J213750D01*
G01*
X111092750Y-107990250D01*
G75*
G02*
X111306500Y-107776500I213750J0D01*
G01*
X111846500Y-107776500D01*
G75*
G02*
X112060250Y-107990250I0J-213750D01*
G01*
G37*
%TD*%
%TO.C,C425*%
G36*
G01*
X115112750Y-110195750D02*
X115112750Y-109768250D01*
G75*
G02*
X115326500Y-109554500I213750J0D01*
G01*
X115866500Y-109554500D01*
G75*
G02*
X116080250Y-109768250I0J-213750D01*
G01*
X116080250Y-110195750D01*
G75*
G02*
X115866500Y-110409500I-213750J0D01*
G01*
X115326500Y-110409500D01*
G75*
G02*
X115112750Y-110195750I0J213750D01*
G01*
G37*
G36*
G01*
X116837750Y-110195750D02*
X116837750Y-109768250D01*
G75*
G02*
X117051500Y-109554500I213750J0D01*
G01*
X117591500Y-109554500D01*
G75*
G02*
X117805250Y-109768250I0J-213750D01*
G01*
X117805250Y-110195750D01*
G75*
G02*
X117591500Y-110409500I-213750J0D01*
G01*
X117051500Y-110409500D01*
G75*
G02*
X116837750Y-110195750I0J213750D01*
G01*
G37*
%TD*%
%TO.C,C424*%
G36*
G01*
X103809850Y-110250850D02*
X103809850Y-110678350D01*
G75*
G02*
X103596100Y-110892100I-213750J0D01*
G01*
X103056100Y-110892100D01*
G75*
G02*
X102842350Y-110678350I0J213750D01*
G01*
X102842350Y-110250850D01*
G75*
G02*
X103056100Y-110037100I213750J0D01*
G01*
X103596100Y-110037100D01*
G75*
G02*
X103809850Y-110250850I0J-213750D01*
G01*
G37*
G36*
G01*
X102084850Y-110250850D02*
X102084850Y-110678350D01*
G75*
G02*
X101871100Y-110892100I-213750J0D01*
G01*
X101331100Y-110892100D01*
G75*
G02*
X101117350Y-110678350I0J213750D01*
G01*
X101117350Y-110250850D01*
G75*
G02*
X101331100Y-110037100I213750J0D01*
G01*
X101871100Y-110037100D01*
G75*
G02*
X102084850Y-110250850I0J-213750D01*
G01*
G37*
%TD*%
%TO.C,C423*%
G36*
G01*
X113785250Y-109641250D02*
X113785250Y-110068750D01*
G75*
G02*
X113571500Y-110282500I-213750J0D01*
G01*
X113031500Y-110282500D01*
G75*
G02*
X112817750Y-110068750I0J213750D01*
G01*
X112817750Y-109641250D01*
G75*
G02*
X113031500Y-109427500I213750J0D01*
G01*
X113571500Y-109427500D01*
G75*
G02*
X113785250Y-109641250I0J-213750D01*
G01*
G37*
G36*
G01*
X112060250Y-109641250D02*
X112060250Y-110068750D01*
G75*
G02*
X111846500Y-110282500I-213750J0D01*
G01*
X111306500Y-110282500D01*
G75*
G02*
X111092750Y-110068750I0J213750D01*
G01*
X111092750Y-109641250D01*
G75*
G02*
X111306500Y-109427500I213750J0D01*
G01*
X111846500Y-109427500D01*
G75*
G02*
X112060250Y-109641250I0J-213750D01*
G01*
G37*
%TD*%
%TO.C,C421*%
G36*
G01*
X115112750Y-108544750D02*
X115112750Y-108117250D01*
G75*
G02*
X115326500Y-107903500I213750J0D01*
G01*
X115866500Y-107903500D01*
G75*
G02*
X116080250Y-108117250I0J-213750D01*
G01*
X116080250Y-108544750D01*
G75*
G02*
X115866500Y-108758500I-213750J0D01*
G01*
X115326500Y-108758500D01*
G75*
G02*
X115112750Y-108544750I0J213750D01*
G01*
G37*
G36*
G01*
X116837750Y-108544750D02*
X116837750Y-108117250D01*
G75*
G02*
X117051500Y-107903500I213750J0D01*
G01*
X117591500Y-107903500D01*
G75*
G02*
X117805250Y-108117250I0J-213750D01*
G01*
X117805250Y-108544750D01*
G75*
G02*
X117591500Y-108758500I-213750J0D01*
G01*
X117051500Y-108758500D01*
G75*
G02*
X116837750Y-108544750I0J213750D01*
G01*
G37*
%TD*%
%TO.C,C420*%
G36*
G01*
X103836350Y-108523650D02*
X103836350Y-108951150D01*
G75*
G02*
X103622600Y-109164900I-213750J0D01*
G01*
X103082600Y-109164900D01*
G75*
G02*
X102868850Y-108951150I0J213750D01*
G01*
X102868850Y-108523650D01*
G75*
G02*
X103082600Y-108309900I213750J0D01*
G01*
X103622600Y-108309900D01*
G75*
G02*
X103836350Y-108523650I0J-213750D01*
G01*
G37*
G36*
G01*
X102111350Y-108523650D02*
X102111350Y-108951150D01*
G75*
G02*
X101897600Y-109164900I-213750J0D01*
G01*
X101357600Y-109164900D01*
G75*
G02*
X101143850Y-108951150I0J213750D01*
G01*
X101143850Y-108523650D01*
G75*
G02*
X101357600Y-108309900I213750J0D01*
G01*
X101897600Y-108309900D01*
G75*
G02*
X102111350Y-108523650I0J-213750D01*
G01*
G37*
%TD*%
%TO.C,C417*%
G36*
G01*
X115112750Y-106893750D02*
X115112750Y-106466250D01*
G75*
G02*
X115326500Y-106252500I213750J0D01*
G01*
X115866500Y-106252500D01*
G75*
G02*
X116080250Y-106466250I0J-213750D01*
G01*
X116080250Y-106893750D01*
G75*
G02*
X115866500Y-107107500I-213750J0D01*
G01*
X115326500Y-107107500D01*
G75*
G02*
X115112750Y-106893750I0J213750D01*
G01*
G37*
G36*
G01*
X116837750Y-106893750D02*
X116837750Y-106466250D01*
G75*
G02*
X117051500Y-106252500I213750J0D01*
G01*
X117591500Y-106252500D01*
G75*
G02*
X117805250Y-106466250I0J-213750D01*
G01*
X117805250Y-106893750D01*
G75*
G02*
X117591500Y-107107500I-213750J0D01*
G01*
X117051500Y-107107500D01*
G75*
G02*
X116837750Y-106893750I0J213750D01*
G01*
G37*
%TD*%
%TO.C,C416*%
G36*
G01*
X104064950Y-96763450D02*
X104064950Y-97190950D01*
G75*
G02*
X103851200Y-97404700I-213750J0D01*
G01*
X103311200Y-97404700D01*
G75*
G02*
X103097450Y-97190950I0J213750D01*
G01*
X103097450Y-96763450D01*
G75*
G02*
X103311200Y-96549700I213750J0D01*
G01*
X103851200Y-96549700D01*
G75*
G02*
X104064950Y-96763450I0J-213750D01*
G01*
G37*
G36*
G01*
X102339950Y-96763450D02*
X102339950Y-97190950D01*
G75*
G02*
X102126200Y-97404700I-213750J0D01*
G01*
X101586200Y-97404700D01*
G75*
G02*
X101372450Y-97190950I0J213750D01*
G01*
X101372450Y-96763450D01*
G75*
G02*
X101586200Y-96549700I213750J0D01*
G01*
X102126200Y-96549700D01*
G75*
G02*
X102339950Y-96763450I0J-213750D01*
G01*
G37*
%TD*%
%TO.C,C415*%
G36*
G01*
X104064950Y-98541450D02*
X104064950Y-98968950D01*
G75*
G02*
X103851200Y-99182700I-213750J0D01*
G01*
X103311200Y-99182700D01*
G75*
G02*
X103097450Y-98968950I0J213750D01*
G01*
X103097450Y-98541450D01*
G75*
G02*
X103311200Y-98327700I213750J0D01*
G01*
X103851200Y-98327700D01*
G75*
G02*
X104064950Y-98541450I0J-213750D01*
G01*
G37*
G36*
G01*
X102339950Y-98541450D02*
X102339950Y-98968950D01*
G75*
G02*
X102126200Y-99182700I-213750J0D01*
G01*
X101586200Y-99182700D01*
G75*
G02*
X101372450Y-98968950I0J213750D01*
G01*
X101372450Y-98541450D01*
G75*
G02*
X101586200Y-98327700I213750J0D01*
G01*
X102126200Y-98327700D01*
G75*
G02*
X102339950Y-98541450I0J-213750D01*
G01*
G37*
%TD*%
%TO.C,C414*%
G36*
G01*
X96146250Y-102486250D02*
X96146250Y-102913750D01*
G75*
G02*
X95932500Y-103127500I-213750J0D01*
G01*
X95392500Y-103127500D01*
G75*
G02*
X95178750Y-102913750I0J213750D01*
G01*
X95178750Y-102486250D01*
G75*
G02*
X95392500Y-102272500I213750J0D01*
G01*
X95932500Y-102272500D01*
G75*
G02*
X96146250Y-102486250I0J-213750D01*
G01*
G37*
G36*
G01*
X94421250Y-102486250D02*
X94421250Y-102913750D01*
G75*
G02*
X94207500Y-103127500I-213750J0D01*
G01*
X93667500Y-103127500D01*
G75*
G02*
X93453750Y-102913750I0J213750D01*
G01*
X93453750Y-102486250D01*
G75*
G02*
X93667500Y-102272500I213750J0D01*
G01*
X94207500Y-102272500D01*
G75*
G02*
X94421250Y-102486250I0J-213750D01*
G01*
G37*
%TD*%
%TO.C,C413*%
G36*
G01*
X99807150Y-98728750D02*
X99379650Y-98728750D01*
G75*
G02*
X99165900Y-98515000I0J213750D01*
G01*
X99165900Y-97975000D01*
G75*
G02*
X99379650Y-97761250I213750J0D01*
G01*
X99807150Y-97761250D01*
G75*
G02*
X100020900Y-97975000I0J-213750D01*
G01*
X100020900Y-98515000D01*
G75*
G02*
X99807150Y-98728750I-213750J0D01*
G01*
G37*
G36*
G01*
X99807150Y-97003750D02*
X99379650Y-97003750D01*
G75*
G02*
X99165900Y-96790000I0J213750D01*
G01*
X99165900Y-96250000D01*
G75*
G02*
X99379650Y-96036250I213750J0D01*
G01*
X99807150Y-96036250D01*
G75*
G02*
X100020900Y-96250000I0J-213750D01*
G01*
X100020900Y-96790000D01*
G75*
G02*
X99807150Y-97003750I-213750J0D01*
G01*
G37*
%TD*%
%TO.C,C412*%
G36*
G01*
X101345950Y-95463750D02*
X101345950Y-95036250D01*
G75*
G02*
X101559700Y-94822500I213750J0D01*
G01*
X102099700Y-94822500D01*
G75*
G02*
X102313450Y-95036250I0J-213750D01*
G01*
X102313450Y-95463750D01*
G75*
G02*
X102099700Y-95677500I-213750J0D01*
G01*
X101559700Y-95677500D01*
G75*
G02*
X101345950Y-95463750I0J213750D01*
G01*
G37*
G36*
G01*
X103070950Y-95463750D02*
X103070950Y-95036250D01*
G75*
G02*
X103284700Y-94822500I213750J0D01*
G01*
X103824700Y-94822500D01*
G75*
G02*
X104038450Y-95036250I0J-213750D01*
G01*
X104038450Y-95463750D01*
G75*
G02*
X103824700Y-95677500I-213750J0D01*
G01*
X103284700Y-95677500D01*
G75*
G02*
X103070950Y-95463750I0J213750D01*
G01*
G37*
%TD*%
%TO.C,C411*%
G36*
G01*
X107576250Y-90413750D02*
X108003750Y-90413750D01*
G75*
G02*
X108217500Y-90627500I0J-213750D01*
G01*
X108217500Y-91167500D01*
G75*
G02*
X108003750Y-91381250I-213750J0D01*
G01*
X107576250Y-91381250D01*
G75*
G02*
X107362500Y-91167500I0J213750D01*
G01*
X107362500Y-90627500D01*
G75*
G02*
X107576250Y-90413750I213750J0D01*
G01*
G37*
G36*
G01*
X107576250Y-92138750D02*
X108003750Y-92138750D01*
G75*
G02*
X108217500Y-92352500I0J-213750D01*
G01*
X108217500Y-92892500D01*
G75*
G02*
X108003750Y-93106250I-213750J0D01*
G01*
X107576250Y-93106250D01*
G75*
G02*
X107362500Y-92892500I0J213750D01*
G01*
X107362500Y-92352500D01*
G75*
G02*
X107576250Y-92138750I213750J0D01*
G01*
G37*
%TD*%
%TO.C,C410*%
G36*
G01*
X104507881Y-94092207D02*
X104205593Y-93789919D01*
G75*
G02*
X104205593Y-93487631I151144J151144D01*
G01*
X104587431Y-93105793D01*
G75*
G02*
X104889719Y-93105793I151144J-151144D01*
G01*
X105192007Y-93408081D01*
G75*
G02*
X105192007Y-93710369I-151144J-151144D01*
G01*
X104810169Y-94092207D01*
G75*
G02*
X104507881Y-94092207I-151144J151144D01*
G01*
G37*
G36*
G01*
X105727641Y-92872447D02*
X105425353Y-92570159D01*
G75*
G02*
X105425353Y-92267871I151144J151144D01*
G01*
X105807191Y-91886033D01*
G75*
G02*
X106109479Y-91886033I151144J-151144D01*
G01*
X106411767Y-92188321D01*
G75*
G02*
X106411767Y-92490609I-151144J-151144D01*
G01*
X106029929Y-92872447D01*
G75*
G02*
X105727641Y-92872447I-151144J151144D01*
G01*
G37*
%TD*%
%TO.C,C409*%
G36*
G01*
X101372450Y-102397950D02*
X101372450Y-101970450D01*
G75*
G02*
X101586200Y-101756700I213750J0D01*
G01*
X102126200Y-101756700D01*
G75*
G02*
X102339950Y-101970450I0J-213750D01*
G01*
X102339950Y-102397950D01*
G75*
G02*
X102126200Y-102611700I-213750J0D01*
G01*
X101586200Y-102611700D01*
G75*
G02*
X101372450Y-102397950I0J213750D01*
G01*
G37*
G36*
G01*
X103097450Y-102397950D02*
X103097450Y-101970450D01*
G75*
G02*
X103311200Y-101756700I213750J0D01*
G01*
X103851200Y-101756700D01*
G75*
G02*
X104064950Y-101970450I0J-213750D01*
G01*
X104064950Y-102397950D01*
G75*
G02*
X103851200Y-102611700I-213750J0D01*
G01*
X103311200Y-102611700D01*
G75*
G02*
X103097450Y-102397950I0J213750D01*
G01*
G37*
%TD*%
%TO.C,C402*%
G36*
G01*
X99252650Y-113488250D02*
X99680150Y-113488250D01*
G75*
G02*
X99893900Y-113702000I0J-213750D01*
G01*
X99893900Y-114242000D01*
G75*
G02*
X99680150Y-114455750I-213750J0D01*
G01*
X99252650Y-114455750D01*
G75*
G02*
X99038900Y-114242000I0J213750D01*
G01*
X99038900Y-113702000D01*
G75*
G02*
X99252650Y-113488250I213750J0D01*
G01*
G37*
G36*
G01*
X99252650Y-115213250D02*
X99680150Y-115213250D01*
G75*
G02*
X99893900Y-115427000I0J-213750D01*
G01*
X99893900Y-115967000D01*
G75*
G02*
X99680150Y-116180750I-213750J0D01*
G01*
X99252650Y-116180750D01*
G75*
G02*
X99038900Y-115967000I0J213750D01*
G01*
X99038900Y-115427000D01*
G75*
G02*
X99252650Y-115213250I213750J0D01*
G01*
G37*
%TD*%
%TO.C,C401*%
G36*
G01*
X100162750Y-85547250D02*
X99735250Y-85547250D01*
G75*
G02*
X99521500Y-85333500I0J213750D01*
G01*
X99521500Y-84793500D01*
G75*
G02*
X99735250Y-84579750I213750J0D01*
G01*
X100162750Y-84579750D01*
G75*
G02*
X100376500Y-84793500I0J-213750D01*
G01*
X100376500Y-85333500D01*
G75*
G02*
X100162750Y-85547250I-213750J0D01*
G01*
G37*
G36*
G01*
X100162750Y-83822250D02*
X99735250Y-83822250D01*
G75*
G02*
X99521500Y-83608500I0J213750D01*
G01*
X99521500Y-83068500D01*
G75*
G02*
X99735250Y-82854750I213750J0D01*
G01*
X100162750Y-82854750D01*
G75*
G02*
X100376500Y-83068500I0J-213750D01*
G01*
X100376500Y-83608500D01*
G75*
G02*
X100162750Y-83822250I-213750J0D01*
G01*
G37*
%TD*%
%TO.C,C219*%
G36*
G01*
X145593950Y-81548850D02*
X145593950Y-81976350D01*
G75*
G02*
X145380200Y-82190100I-213750J0D01*
G01*
X144840200Y-82190100D01*
G75*
G02*
X144626450Y-81976350I0J213750D01*
G01*
X144626450Y-81548850D01*
G75*
G02*
X144840200Y-81335100I213750J0D01*
G01*
X145380200Y-81335100D01*
G75*
G02*
X145593950Y-81548850I0J-213750D01*
G01*
G37*
G36*
G01*
X143868950Y-81548850D02*
X143868950Y-81976350D01*
G75*
G02*
X143655200Y-82190100I-213750J0D01*
G01*
X143115200Y-82190100D01*
G75*
G02*
X142901450Y-81976350I0J213750D01*
G01*
X142901450Y-81548850D01*
G75*
G02*
X143115200Y-81335100I213750J0D01*
G01*
X143655200Y-81335100D01*
G75*
G02*
X143868950Y-81548850I0J-213750D01*
G01*
G37*
%TD*%
%TO.C,C218*%
G36*
G01*
X145568550Y-83225250D02*
X145568550Y-83652750D01*
G75*
G02*
X145354800Y-83866500I-213750J0D01*
G01*
X144814800Y-83866500D01*
G75*
G02*
X144601050Y-83652750I0J213750D01*
G01*
X144601050Y-83225250D01*
G75*
G02*
X144814800Y-83011500I213750J0D01*
G01*
X145354800Y-83011500D01*
G75*
G02*
X145568550Y-83225250I0J-213750D01*
G01*
G37*
G36*
G01*
X143843550Y-83225250D02*
X143843550Y-83652750D01*
G75*
G02*
X143629800Y-83866500I-213750J0D01*
G01*
X143089800Y-83866500D01*
G75*
G02*
X142876050Y-83652750I0J213750D01*
G01*
X142876050Y-83225250D01*
G75*
G02*
X143089800Y-83011500I213750J0D01*
G01*
X143629800Y-83011500D01*
G75*
G02*
X143843550Y-83225250I0J-213750D01*
G01*
G37*
%TD*%
%TO.C,C216*%
G36*
G01*
X147702150Y-77840450D02*
X147702150Y-78267950D01*
G75*
G02*
X147488400Y-78481700I-213750J0D01*
G01*
X146948400Y-78481700D01*
G75*
G02*
X146734650Y-78267950I0J213750D01*
G01*
X146734650Y-77840450D01*
G75*
G02*
X146948400Y-77626700I213750J0D01*
G01*
X147488400Y-77626700D01*
G75*
G02*
X147702150Y-77840450I0J-213750D01*
G01*
G37*
G36*
G01*
X145977150Y-77840450D02*
X145977150Y-78267950D01*
G75*
G02*
X145763400Y-78481700I-213750J0D01*
G01*
X145223400Y-78481700D01*
G75*
G02*
X145009650Y-78267950I0J213750D01*
G01*
X145009650Y-77840450D01*
G75*
G02*
X145223400Y-77626700I213750J0D01*
G01*
X145763400Y-77626700D01*
G75*
G02*
X145977150Y-77840450I0J-213750D01*
G01*
G37*
%TD*%
%TO.C,C212*%
G36*
G01*
X116559550Y-82412450D02*
X116559550Y-82839950D01*
G75*
G02*
X116345800Y-83053700I-213750J0D01*
G01*
X115805800Y-83053700D01*
G75*
G02*
X115592050Y-82839950I0J213750D01*
G01*
X115592050Y-82412450D01*
G75*
G02*
X115805800Y-82198700I213750J0D01*
G01*
X116345800Y-82198700D01*
G75*
G02*
X116559550Y-82412450I0J-213750D01*
G01*
G37*
G36*
G01*
X114834550Y-82412450D02*
X114834550Y-82839950D01*
G75*
G02*
X114620800Y-83053700I-213750J0D01*
G01*
X114080800Y-83053700D01*
G75*
G02*
X113867050Y-82839950I0J213750D01*
G01*
X113867050Y-82412450D01*
G75*
G02*
X114080800Y-82198700I213750J0D01*
G01*
X114620800Y-82198700D01*
G75*
G02*
X114834550Y-82412450I0J-213750D01*
G01*
G37*
%TD*%
%TO.C,C210*%
G36*
G01*
X146086250Y-116453750D02*
X146513750Y-116453750D01*
G75*
G02*
X146727500Y-116667500I0J-213750D01*
G01*
X146727500Y-117207500D01*
G75*
G02*
X146513750Y-117421250I-213750J0D01*
G01*
X146086250Y-117421250D01*
G75*
G02*
X145872500Y-117207500I0J213750D01*
G01*
X145872500Y-116667500D01*
G75*
G02*
X146086250Y-116453750I213750J0D01*
G01*
G37*
G36*
G01*
X146086250Y-118178750D02*
X146513750Y-118178750D01*
G75*
G02*
X146727500Y-118392500I0J-213750D01*
G01*
X146727500Y-118932500D01*
G75*
G02*
X146513750Y-119146250I-213750J0D01*
G01*
X146086250Y-119146250D01*
G75*
G02*
X145872500Y-118932500I0J213750D01*
G01*
X145872500Y-118392500D01*
G75*
G02*
X146086250Y-118178750I213750J0D01*
G01*
G37*
%TD*%
%TO.C,C209*%
G36*
G01*
X116446250Y-80486250D02*
X116446250Y-80913750D01*
G75*
G02*
X116232500Y-81127500I-213750J0D01*
G01*
X115692500Y-81127500D01*
G75*
G02*
X115478750Y-80913750I0J213750D01*
G01*
X115478750Y-80486250D01*
G75*
G02*
X115692500Y-80272500I213750J0D01*
G01*
X116232500Y-80272500D01*
G75*
G02*
X116446250Y-80486250I0J-213750D01*
G01*
G37*
G36*
G01*
X114721250Y-80486250D02*
X114721250Y-80913750D01*
G75*
G02*
X114507500Y-81127500I-213750J0D01*
G01*
X113967500Y-81127500D01*
G75*
G02*
X113753750Y-80913750I0J213750D01*
G01*
X113753750Y-80486250D01*
G75*
G02*
X113967500Y-80272500I213750J0D01*
G01*
X114507500Y-80272500D01*
G75*
G02*
X114721250Y-80486250I0J-213750D01*
G01*
G37*
%TD*%
%TO.C,C208*%
G36*
G01*
X104138850Y-120584350D02*
X104138850Y-120156850D01*
G75*
G02*
X104352600Y-119943100I213750J0D01*
G01*
X104892600Y-119943100D01*
G75*
G02*
X105106350Y-120156850I0J-213750D01*
G01*
X105106350Y-120584350D01*
G75*
G02*
X104892600Y-120798100I-213750J0D01*
G01*
X104352600Y-120798100D01*
G75*
G02*
X104138850Y-120584350I0J213750D01*
G01*
G37*
G36*
G01*
X105863850Y-120584350D02*
X105863850Y-120156850D01*
G75*
G02*
X106077600Y-119943100I213750J0D01*
G01*
X106617600Y-119943100D01*
G75*
G02*
X106831350Y-120156850I0J-213750D01*
G01*
X106831350Y-120584350D01*
G75*
G02*
X106617600Y-120798100I-213750J0D01*
G01*
X106077600Y-120798100D01*
G75*
G02*
X105863850Y-120584350I0J213750D01*
G01*
G37*
%TD*%
%TO.C,C207*%
G36*
G01*
X150429350Y-109396750D02*
X150001850Y-109396750D01*
G75*
G02*
X149788100Y-109183000I0J213750D01*
G01*
X149788100Y-108643000D01*
G75*
G02*
X150001850Y-108429250I213750J0D01*
G01*
X150429350Y-108429250D01*
G75*
G02*
X150643100Y-108643000I0J-213750D01*
G01*
X150643100Y-109183000D01*
G75*
G02*
X150429350Y-109396750I-213750J0D01*
G01*
G37*
G36*
G01*
X150429350Y-107671750D02*
X150001850Y-107671750D01*
G75*
G02*
X149788100Y-107458000I0J213750D01*
G01*
X149788100Y-106918000D01*
G75*
G02*
X150001850Y-106704250I213750J0D01*
G01*
X150429350Y-106704250D01*
G75*
G02*
X150643100Y-106918000I0J-213750D01*
G01*
X150643100Y-107458000D01*
G75*
G02*
X150429350Y-107671750I-213750J0D01*
G01*
G37*
%TD*%
%TO.C,C206*%
G36*
G01*
X116584950Y-84038050D02*
X116584950Y-84465550D01*
G75*
G02*
X116371200Y-84679300I-213750J0D01*
G01*
X115831200Y-84679300D01*
G75*
G02*
X115617450Y-84465550I0J213750D01*
G01*
X115617450Y-84038050D01*
G75*
G02*
X115831200Y-83824300I213750J0D01*
G01*
X116371200Y-83824300D01*
G75*
G02*
X116584950Y-84038050I0J-213750D01*
G01*
G37*
G36*
G01*
X114859950Y-84038050D02*
X114859950Y-84465550D01*
G75*
G02*
X114646200Y-84679300I-213750J0D01*
G01*
X114106200Y-84679300D01*
G75*
G02*
X113892450Y-84465550I0J213750D01*
G01*
X113892450Y-84038050D01*
G75*
G02*
X114106200Y-83824300I213750J0D01*
G01*
X114646200Y-83824300D01*
G75*
G02*
X114859950Y-84038050I0J-213750D01*
G01*
G37*
%TD*%
%TO.C,C205*%
G36*
G01*
X104113450Y-118755550D02*
X104113450Y-118328050D01*
G75*
G02*
X104327200Y-118114300I213750J0D01*
G01*
X104867200Y-118114300D01*
G75*
G02*
X105080950Y-118328050I0J-213750D01*
G01*
X105080950Y-118755550D01*
G75*
G02*
X104867200Y-118969300I-213750J0D01*
G01*
X104327200Y-118969300D01*
G75*
G02*
X104113450Y-118755550I0J213750D01*
G01*
G37*
G36*
G01*
X105838450Y-118755550D02*
X105838450Y-118328050D01*
G75*
G02*
X106052200Y-118114300I213750J0D01*
G01*
X106592200Y-118114300D01*
G75*
G02*
X106805950Y-118328050I0J-213750D01*
G01*
X106805950Y-118755550D01*
G75*
G02*
X106592200Y-118969300I-213750J0D01*
G01*
X106052200Y-118969300D01*
G75*
G02*
X105838450Y-118755550I0J213750D01*
G01*
G37*
%TD*%
%TO.C,C204*%
G36*
G01*
X148565750Y-120741050D02*
X148565750Y-121168550D01*
G75*
G02*
X148352000Y-121382300I-213750J0D01*
G01*
X147812000Y-121382300D01*
G75*
G02*
X147598250Y-121168550I0J213750D01*
G01*
X147598250Y-120741050D01*
G75*
G02*
X147812000Y-120527300I213750J0D01*
G01*
X148352000Y-120527300D01*
G75*
G02*
X148565750Y-120741050I0J-213750D01*
G01*
G37*
G36*
G01*
X146840750Y-120741050D02*
X146840750Y-121168550D01*
G75*
G02*
X146627000Y-121382300I-213750J0D01*
G01*
X146087000Y-121382300D01*
G75*
G02*
X145873250Y-121168550I0J213750D01*
G01*
X145873250Y-120741050D01*
G75*
G02*
X146087000Y-120527300I213750J0D01*
G01*
X146627000Y-120527300D01*
G75*
G02*
X146840750Y-120741050I0J-213750D01*
G01*
G37*
%TD*%
%TO.C,C203*%
G36*
G01*
X106953750Y-78913750D02*
X106953750Y-78486250D01*
G75*
G02*
X107167500Y-78272500I213750J0D01*
G01*
X107707500Y-78272500D01*
G75*
G02*
X107921250Y-78486250I0J-213750D01*
G01*
X107921250Y-78913750D01*
G75*
G02*
X107707500Y-79127500I-213750J0D01*
G01*
X107167500Y-79127500D01*
G75*
G02*
X106953750Y-78913750I0J213750D01*
G01*
G37*
G36*
G01*
X108678750Y-78913750D02*
X108678750Y-78486250D01*
G75*
G02*
X108892500Y-78272500I213750J0D01*
G01*
X109432500Y-78272500D01*
G75*
G02*
X109646250Y-78486250I0J-213750D01*
G01*
X109646250Y-78913750D01*
G75*
G02*
X109432500Y-79127500I-213750J0D01*
G01*
X108892500Y-79127500D01*
G75*
G02*
X108678750Y-78913750I0J213750D01*
G01*
G37*
%TD*%
%TO.C,C202*%
G36*
G01*
X112445850Y-125008250D02*
X112445850Y-125435750D01*
G75*
G02*
X112232100Y-125649500I-213750J0D01*
G01*
X111692100Y-125649500D01*
G75*
G02*
X111478350Y-125435750I0J213750D01*
G01*
X111478350Y-125008250D01*
G75*
G02*
X111692100Y-124794500I213750J0D01*
G01*
X112232100Y-124794500D01*
G75*
G02*
X112445850Y-125008250I0J-213750D01*
G01*
G37*
G36*
G01*
X110720850Y-125008250D02*
X110720850Y-125435750D01*
G75*
G02*
X110507100Y-125649500I-213750J0D01*
G01*
X109967100Y-125649500D01*
G75*
G02*
X109753350Y-125435750I0J213750D01*
G01*
X109753350Y-125008250D01*
G75*
G02*
X109967100Y-124794500I213750J0D01*
G01*
X110507100Y-124794500D01*
G75*
G02*
X110720850Y-125008250I0J-213750D01*
G01*
G37*
%TD*%
%TO.C,C201*%
G36*
G01*
X152513750Y-109546250D02*
X152086250Y-109546250D01*
G75*
G02*
X151872500Y-109332500I0J213750D01*
G01*
X151872500Y-108792500D01*
G75*
G02*
X152086250Y-108578750I213750J0D01*
G01*
X152513750Y-108578750D01*
G75*
G02*
X152727500Y-108792500I0J-213750D01*
G01*
X152727500Y-109332500D01*
G75*
G02*
X152513750Y-109546250I-213750J0D01*
G01*
G37*
G36*
G01*
X152513750Y-107821250D02*
X152086250Y-107821250D01*
G75*
G02*
X151872500Y-107607500I0J213750D01*
G01*
X151872500Y-107067500D01*
G75*
G02*
X152086250Y-106853750I213750J0D01*
G01*
X152513750Y-106853750D01*
G75*
G02*
X152727500Y-107067500I0J-213750D01*
G01*
X152727500Y-107607500D01*
G75*
G02*
X152513750Y-107821250I-213750J0D01*
G01*
G37*
%TD*%
D16*
%TO.C,U1*%
X145620000Y-107810000D03*
X145620000Y-107310000D03*
X145620000Y-106810000D03*
X145620000Y-106310000D03*
X145620000Y-105810000D03*
X145620000Y-105310000D03*
X145620000Y-104810000D03*
X145620000Y-104310000D03*
X145620000Y-103810000D03*
X145620000Y-103310000D03*
X145620000Y-102810000D03*
X145620000Y-102310000D03*
X145620000Y-101810000D03*
X145620000Y-101310000D03*
X145620000Y-100810000D03*
X145620000Y-100310000D03*
X145620000Y-99810000D03*
X145620000Y-99310000D03*
X145620000Y-98810000D03*
X145620000Y-98310000D03*
X145620000Y-97810000D03*
X145620000Y-97310000D03*
X145620000Y-96810000D03*
X145620000Y-96310000D03*
X145620000Y-95810000D03*
X145620000Y-95310000D03*
X145620000Y-94810000D03*
X145620000Y-94310000D03*
X145620000Y-93810000D03*
X145620000Y-93310000D03*
X145620000Y-92810000D03*
X145620000Y-92310000D03*
X145620000Y-91810000D03*
X145620000Y-91310000D03*
X145620000Y-90810000D03*
X145620000Y-90310000D03*
D17*
X143370000Y-88060000D03*
X142870000Y-88060000D03*
X142370000Y-88060000D03*
X141870000Y-88060000D03*
X141370000Y-88060000D03*
X140870000Y-88060000D03*
X140370000Y-88060000D03*
X139870000Y-88060000D03*
X139370000Y-88060000D03*
X138870000Y-88060000D03*
X138370000Y-88060000D03*
X137870000Y-88060000D03*
X137370000Y-88060000D03*
X136870000Y-88060000D03*
X136370000Y-88060000D03*
X135870000Y-88060000D03*
X135370000Y-88060000D03*
X134870000Y-88060000D03*
X134370000Y-88060000D03*
X133870000Y-88060000D03*
X133370000Y-88060000D03*
X132870000Y-88060000D03*
X132370000Y-88060000D03*
X131870000Y-88060000D03*
X131370000Y-88060000D03*
X130870000Y-88060000D03*
X130370000Y-88060000D03*
X129870000Y-88060000D03*
X129370000Y-88060000D03*
X128870000Y-88060000D03*
X128370000Y-88060000D03*
X127870000Y-88060000D03*
X127370000Y-88060000D03*
X126870000Y-88060000D03*
X126370000Y-88060000D03*
X125870000Y-88060000D03*
D16*
X123620000Y-90310000D03*
X123620000Y-90810000D03*
X123620000Y-91310000D03*
X123620000Y-91810000D03*
X123620000Y-92310000D03*
X123620000Y-92810000D03*
X123620000Y-93310000D03*
X123620000Y-93810000D03*
X123620000Y-94310000D03*
X123620000Y-94810000D03*
X123620000Y-95310000D03*
X123620000Y-95810000D03*
X123620000Y-96310000D03*
X123620000Y-96810000D03*
X123620000Y-97310000D03*
X123620000Y-97810000D03*
X123620000Y-98310000D03*
X123620000Y-98810000D03*
X123620000Y-99310000D03*
X123620000Y-99810000D03*
X123620000Y-100310000D03*
X123620000Y-100810000D03*
X123620000Y-101310000D03*
X123620000Y-101810000D03*
X123620000Y-102310000D03*
X123620000Y-102810000D03*
X123620000Y-103310000D03*
X123620000Y-103810000D03*
X123620000Y-104310000D03*
X123620000Y-104810000D03*
X123620000Y-105310000D03*
X123620000Y-105810000D03*
X123620000Y-106310000D03*
X123620000Y-106810000D03*
X123620000Y-107310000D03*
X123620000Y-107810000D03*
D17*
X125870000Y-110060000D03*
X126370000Y-110060000D03*
X126870000Y-110060000D03*
X127370000Y-110060000D03*
X127870000Y-110060000D03*
X128370000Y-110060000D03*
X128870000Y-110060000D03*
X129370000Y-110060000D03*
X129870000Y-110060000D03*
X130370000Y-110060000D03*
X130870000Y-110060000D03*
X131370000Y-110060000D03*
X131870000Y-110060000D03*
X132370000Y-110060000D03*
X132870000Y-110060000D03*
X133370000Y-110060000D03*
X133870000Y-110060000D03*
X134370000Y-110060000D03*
X134870000Y-110060000D03*
X135370000Y-110060000D03*
X135870000Y-110060000D03*
X136370000Y-110060000D03*
X136870000Y-110060000D03*
X137370000Y-110060000D03*
X137870000Y-110060000D03*
X138370000Y-110060000D03*
X138870000Y-110060000D03*
X139370000Y-110060000D03*
X139870000Y-110060000D03*
X140370000Y-110060000D03*
X140870000Y-110060000D03*
X141370000Y-110060000D03*
X141870000Y-110060000D03*
X142370000Y-110060000D03*
X142870000Y-110060000D03*
X143370000Y-110060000D03*
%TD*%
D18*
%TO.C,IC401*%
X109883000Y-101445000D03*
X109883000Y-97945000D03*
X113383000Y-97945000D03*
D19*
X116233000Y-103445000D03*
X116233000Y-102945000D03*
X116233000Y-102445000D03*
X116233000Y-101945000D03*
X116233000Y-101445000D03*
X116233000Y-100945000D03*
X116233000Y-100445000D03*
X116233000Y-99945000D03*
X116233000Y-99445000D03*
X116233000Y-98945000D03*
X116233000Y-98445000D03*
X116233000Y-97945000D03*
X116233000Y-97445000D03*
X116233000Y-96945000D03*
X116233000Y-96445000D03*
X116233000Y-95945000D03*
D20*
X115383000Y-95095000D03*
X114883000Y-95095000D03*
X114383000Y-95095000D03*
X113883000Y-95095000D03*
X113383000Y-95095000D03*
X112883000Y-95095000D03*
X112383000Y-95095000D03*
X111883000Y-95095000D03*
X111383000Y-95095000D03*
X110883000Y-95095000D03*
X110383000Y-95095000D03*
X109883000Y-95095000D03*
X109383000Y-95095000D03*
X108883000Y-95095000D03*
X108383000Y-95095000D03*
X107883000Y-95095000D03*
D19*
X107033000Y-95945000D03*
X107033000Y-96445000D03*
X107033000Y-96945000D03*
X107033000Y-97445000D03*
X107033000Y-97945000D03*
X107033000Y-98445000D03*
X107033000Y-98945000D03*
X107033000Y-99445000D03*
X107033000Y-99945000D03*
X107033000Y-100445000D03*
X107033000Y-100945000D03*
X107033000Y-101445000D03*
X107033000Y-101945000D03*
X107033000Y-102445000D03*
X107033000Y-102945000D03*
X107033000Y-103445000D03*
D20*
X107883000Y-104295000D03*
X108383000Y-104295000D03*
X108883000Y-104295000D03*
X109383000Y-104295000D03*
X109883000Y-104295000D03*
X110383000Y-104295000D03*
X110883000Y-104295000D03*
X111383000Y-104295000D03*
X111883000Y-104295000D03*
X112383000Y-104295000D03*
X112883000Y-104295000D03*
X113383000Y-104295000D03*
X113883000Y-104295000D03*
X114383000Y-104295000D03*
X114883000Y-104295000D03*
X115383000Y-104295000D03*
D18*
X113383000Y-101445000D03*
%TD*%
D21*
%TO.C,IC201*%
X152650063Y-115300063D03*
X152650063Y-113000063D03*
X152650063Y-110700062D03*
D22*
X146350062Y-113000063D03*
%TD*%
D23*
%TO.C,IC202*%
X108699937Y-123150063D03*
X110999937Y-123150063D03*
X113299938Y-123150063D03*
D24*
X110999937Y-116850062D03*
%TD*%
D23*
%TO.C,IC203*%
X112300063Y-80849937D03*
X110000063Y-80849937D03*
X107700062Y-80849937D03*
D24*
X110000063Y-87149938D03*
%TD*%
D21*
%TO.C,IC204*%
X153350063Y-84100063D03*
X153350063Y-81800063D03*
X153350063Y-79500062D03*
D22*
X147050062Y-81800063D03*
%TD*%
M02*
