%TF.GenerationSoftware,KiCad,Pcbnew,(5.1.8)-1*%
%TF.CreationDate,2021-04-21T20:08:09+02:00*%
%TF.ProjectId,Radioberry,52616469-6f62-4657-9272-792e6b696361,rev?*%
%TF.SameCoordinates,Original*%
%TF.FileFunction,Soldermask,Top*%
%TF.FilePolarity,Negative*%
%FSLAX46Y46*%
G04 Gerber Fmt 4.6, Leading zero omitted, Abs format (unit mm)*
G04 Created by KiCad (PCBNEW (5.1.8)-1) date 2021-04-21 20:08:09*
%MOMM*%
%LPD*%
G01*
G04 APERTURE LIST*
%ADD10C,0.600000*%
%ADD11O,1.300000X0.380000*%
%ADD12O,0.380000X1.300000*%
%ADD13C,4.100000*%
%ADD14C,3.100000*%
%ADD15C,1.624000*%
%ADD16C,2.005000*%
%ADD17C,2.767000*%
%ADD18C,5.400000*%
G04 APERTURE END LIST*
%TO.C,R201*%
G36*
G01*
X151547000Y-85701500D02*
X151547000Y-87098500D01*
G75*
G02*
X151497000Y-87148500I-50000J0D01*
G01*
X150608000Y-87148500D01*
G75*
G02*
X150558000Y-87098500I0J50000D01*
G01*
X150558000Y-85701500D01*
G75*
G02*
X150608000Y-85651500I50000J0D01*
G01*
X151497000Y-85651500D01*
G75*
G02*
X151547000Y-85701500I0J-50000D01*
G01*
G37*
G36*
G01*
X149642000Y-85701500D02*
X149642000Y-87098500D01*
G75*
G02*
X149592000Y-87148500I-50000J0D01*
G01*
X148703000Y-87148500D01*
G75*
G02*
X148653000Y-87098500I0J50000D01*
G01*
X148653000Y-85701500D01*
G75*
G02*
X148703000Y-85651500I50000J0D01*
G01*
X149592000Y-85651500D01*
G75*
G02*
X149642000Y-85701500I0J-50000D01*
G01*
G37*
%TD*%
%TO.C,T401*%
G36*
G01*
X92925900Y-103899500D02*
X94576900Y-103899500D01*
G75*
G02*
X94626900Y-103949500I0J-50000D01*
G01*
X94626900Y-104838500D01*
G75*
G02*
X94576900Y-104888500I-50000J0D01*
G01*
X92925900Y-104888500D01*
G75*
G02*
X92875900Y-104838500I0J50000D01*
G01*
X92875900Y-103949500D01*
G75*
G02*
X92925900Y-103899500I50000J0D01*
G01*
G37*
G36*
G01*
X92925900Y-106439500D02*
X94576900Y-106439500D01*
G75*
G02*
X94626900Y-106489500I0J-50000D01*
G01*
X94626900Y-107378500D01*
G75*
G02*
X94576900Y-107428500I-50000J0D01*
G01*
X92925900Y-107428500D01*
G75*
G02*
X92875900Y-107378500I0J50000D01*
G01*
X92875900Y-106489500D01*
G75*
G02*
X92925900Y-106439500I50000J0D01*
G01*
G37*
G36*
G01*
X96583500Y-106439500D02*
X98234500Y-106439500D01*
G75*
G02*
X98284500Y-106489500I0J-50000D01*
G01*
X98284500Y-107378500D01*
G75*
G02*
X98234500Y-107428500I-50000J0D01*
G01*
X96583500Y-107428500D01*
G75*
G02*
X96533500Y-107378500I0J50000D01*
G01*
X96533500Y-106489500D01*
G75*
G02*
X96583500Y-106439500I50000J0D01*
G01*
G37*
G36*
G01*
X96583500Y-105169500D02*
X98234500Y-105169500D01*
G75*
G02*
X98284500Y-105219500I0J-50000D01*
G01*
X98284500Y-106108500D01*
G75*
G02*
X98234500Y-106158500I-50000J0D01*
G01*
X96583500Y-106158500D01*
G75*
G02*
X96533500Y-106108500I0J50000D01*
G01*
X96533500Y-105219500D01*
G75*
G02*
X96583500Y-105169500I50000J0D01*
G01*
G37*
G36*
G01*
X96583500Y-103899500D02*
X98234500Y-103899500D01*
G75*
G02*
X98284500Y-103949500I0J-50000D01*
G01*
X98284500Y-104838500D01*
G75*
G02*
X98234500Y-104888500I-50000J0D01*
G01*
X96583500Y-104888500D01*
G75*
G02*
X96533500Y-104838500I0J50000D01*
G01*
X96533500Y-103949500D01*
G75*
G02*
X96583500Y-103899500I50000J0D01*
G01*
G37*
%TD*%
%TO.C,X400*%
G36*
G01*
X107252300Y-112636300D02*
X107252300Y-111747300D01*
G75*
G02*
X107302300Y-111697300I50000J0D01*
G01*
X107937300Y-111697300D01*
G75*
G02*
X107987300Y-111747300I0J-50000D01*
G01*
X107987300Y-112636300D01*
G75*
G02*
X107937300Y-112686300I-50000J0D01*
G01*
X107302300Y-112686300D01*
G75*
G02*
X107252300Y-112636300I0J50000D01*
G01*
G37*
G36*
G01*
X108343100Y-112636300D02*
X108343100Y-111747300D01*
G75*
G02*
X108393100Y-111697300I50000J0D01*
G01*
X109028100Y-111697300D01*
G75*
G02*
X109078100Y-111747300I0J-50000D01*
G01*
X109078100Y-112636300D01*
G75*
G02*
X109028100Y-112686300I-50000J0D01*
G01*
X108393100Y-112686300D01*
G75*
G02*
X108343100Y-112636300I0J50000D01*
G01*
G37*
G36*
G01*
X109436700Y-112636300D02*
X109436700Y-111747300D01*
G75*
G02*
X109486700Y-111697300I50000J0D01*
G01*
X110121700Y-111697300D01*
G75*
G02*
X110171700Y-111747300I0J-50000D01*
G01*
X110171700Y-112636300D01*
G75*
G02*
X110121700Y-112686300I-50000J0D01*
G01*
X109486700Y-112686300D01*
G75*
G02*
X109436700Y-112636300I0J50000D01*
G01*
G37*
G36*
G01*
X109436700Y-111137700D02*
X109436700Y-110248700D01*
G75*
G02*
X109486700Y-110198700I50000J0D01*
G01*
X110121700Y-110198700D01*
G75*
G02*
X110171700Y-110248700I0J-50000D01*
G01*
X110171700Y-111137700D01*
G75*
G02*
X110121700Y-111187700I-50000J0D01*
G01*
X109486700Y-111187700D01*
G75*
G02*
X109436700Y-111137700I0J50000D01*
G01*
G37*
G36*
G01*
X108343100Y-111137700D02*
X108343100Y-110248700D01*
G75*
G02*
X108393100Y-110198700I50000J0D01*
G01*
X109028100Y-110198700D01*
G75*
G02*
X109078100Y-110248700I0J-50000D01*
G01*
X109078100Y-111137700D01*
G75*
G02*
X109028100Y-111187700I-50000J0D01*
G01*
X108393100Y-111187700D01*
G75*
G02*
X108343100Y-111137700I0J50000D01*
G01*
G37*
G36*
G01*
X107252300Y-111137700D02*
X107252300Y-110248700D01*
G75*
G02*
X107302300Y-110198700I50000J0D01*
G01*
X107937300Y-110198700D01*
G75*
G02*
X107987300Y-110248700I0J-50000D01*
G01*
X107987300Y-111137700D01*
G75*
G02*
X107937300Y-111187700I-50000J0D01*
G01*
X107302300Y-111187700D01*
G75*
G02*
X107252300Y-111137700I0J50000D01*
G01*
G37*
%TD*%
%TO.C,T402*%
G36*
G01*
X93179900Y-96025500D02*
X94830900Y-96025500D01*
G75*
G02*
X94880900Y-96075500I0J-50000D01*
G01*
X94880900Y-96964500D01*
G75*
G02*
X94830900Y-97014500I-50000J0D01*
G01*
X93179900Y-97014500D01*
G75*
G02*
X93129900Y-96964500I0J50000D01*
G01*
X93129900Y-96075500D01*
G75*
G02*
X93179900Y-96025500I50000J0D01*
G01*
G37*
G36*
G01*
X93179900Y-98565500D02*
X94830900Y-98565500D01*
G75*
G02*
X94880900Y-98615500I0J-50000D01*
G01*
X94880900Y-99504500D01*
G75*
G02*
X94830900Y-99554500I-50000J0D01*
G01*
X93179900Y-99554500D01*
G75*
G02*
X93129900Y-99504500I0J50000D01*
G01*
X93129900Y-98615500D01*
G75*
G02*
X93179900Y-98565500I50000J0D01*
G01*
G37*
G36*
G01*
X96837500Y-98565500D02*
X98488500Y-98565500D01*
G75*
G02*
X98538500Y-98615500I0J-50000D01*
G01*
X98538500Y-99504500D01*
G75*
G02*
X98488500Y-99554500I-50000J0D01*
G01*
X96837500Y-99554500D01*
G75*
G02*
X96787500Y-99504500I0J50000D01*
G01*
X96787500Y-98615500D01*
G75*
G02*
X96837500Y-98565500I50000J0D01*
G01*
G37*
G36*
G01*
X96837500Y-97295500D02*
X98488500Y-97295500D01*
G75*
G02*
X98538500Y-97345500I0J-50000D01*
G01*
X98538500Y-98234500D01*
G75*
G02*
X98488500Y-98284500I-50000J0D01*
G01*
X96837500Y-98284500D01*
G75*
G02*
X96787500Y-98234500I0J50000D01*
G01*
X96787500Y-97345500D01*
G75*
G02*
X96837500Y-97295500I50000J0D01*
G01*
G37*
G36*
G01*
X96837500Y-96025500D02*
X98488500Y-96025500D01*
G75*
G02*
X98538500Y-96075500I0J-50000D01*
G01*
X98538500Y-96964500D01*
G75*
G02*
X98488500Y-97014500I-50000J0D01*
G01*
X96837500Y-97014500D01*
G75*
G02*
X96787500Y-96964500I0J50000D01*
G01*
X96787500Y-96075500D01*
G75*
G02*
X96837500Y-96025500I50000J0D01*
G01*
G37*
%TD*%
%TO.C,C419*%
G36*
G01*
X113889000Y-111243500D02*
X113889000Y-111768500D01*
G75*
G02*
X113626500Y-112031000I-262500J0D01*
G01*
X112976500Y-112031000D01*
G75*
G02*
X112714000Y-111768500I0J262500D01*
G01*
X112714000Y-111243500D01*
G75*
G02*
X112976500Y-110981000I262500J0D01*
G01*
X113626500Y-110981000D01*
G75*
G02*
X113889000Y-111243500I0J-262500D01*
G01*
G37*
G36*
G01*
X112164000Y-111243500D02*
X112164000Y-111768500D01*
G75*
G02*
X111901500Y-112031000I-262500J0D01*
G01*
X111251500Y-112031000D01*
G75*
G02*
X110989000Y-111768500I0J262500D01*
G01*
X110989000Y-111243500D01*
G75*
G02*
X111251500Y-110981000I262500J0D01*
G01*
X111901500Y-110981000D01*
G75*
G02*
X112164000Y-111243500I0J-262500D01*
G01*
G37*
%TD*%
%TO.C,L402*%
G36*
G01*
X93427560Y-93980800D02*
X94481640Y-93980800D01*
G75*
G02*
X94766600Y-94265760I0J-284960D01*
G01*
X94766600Y-95065840D01*
G75*
G02*
X94481640Y-95350800I-284960J0D01*
G01*
X93427560Y-95350800D01*
G75*
G02*
X93142600Y-95065840I0J284960D01*
G01*
X93142600Y-94265760D01*
G75*
G02*
X93427560Y-93980800I284960J0D01*
G01*
G37*
G36*
G01*
X93427560Y-91847200D02*
X94481640Y-91847200D01*
G75*
G02*
X94766600Y-92132160I0J-284960D01*
G01*
X94766600Y-92932240D01*
G75*
G02*
X94481640Y-93217200I-284960J0D01*
G01*
X93427560Y-93217200D01*
G75*
G02*
X93142600Y-92932240I0J284960D01*
G01*
X93142600Y-92132160D01*
G75*
G02*
X93427560Y-91847200I284960J0D01*
G01*
G37*
%TD*%
%TO.C,L401*%
G36*
G01*
X93472960Y-90181800D02*
X94527040Y-90181800D01*
G75*
G02*
X94812000Y-90466760I0J-284960D01*
G01*
X94812000Y-91266840D01*
G75*
G02*
X94527040Y-91551800I-284960J0D01*
G01*
X93472960Y-91551800D01*
G75*
G02*
X93188000Y-91266840I0J284960D01*
G01*
X93188000Y-90466760D01*
G75*
G02*
X93472960Y-90181800I284960J0D01*
G01*
G37*
G36*
G01*
X93472960Y-88048200D02*
X94527040Y-88048200D01*
G75*
G02*
X94812000Y-88333160I0J-284960D01*
G01*
X94812000Y-89133240D01*
G75*
G02*
X94527040Y-89418200I-284960J0D01*
G01*
X93472960Y-89418200D01*
G75*
G02*
X93188000Y-89133240I0J284960D01*
G01*
X93188000Y-88333160D01*
G75*
G02*
X93472960Y-88048200I284960J0D01*
G01*
G37*
%TD*%
%TO.C,FB406*%
G36*
G01*
X107649600Y-115350200D02*
X108199600Y-115350200D01*
G75*
G02*
X108474600Y-115625200I0J-275000D01*
G01*
X108474600Y-116175200D01*
G75*
G02*
X108199600Y-116450200I-275000J0D01*
G01*
X107649600Y-116450200D01*
G75*
G02*
X107374600Y-116175200I0J275000D01*
G01*
X107374600Y-115625200D01*
G75*
G02*
X107649600Y-115350200I275000J0D01*
G01*
G37*
G36*
G01*
X107649600Y-113525200D02*
X108199600Y-113525200D01*
G75*
G02*
X108474600Y-113800200I0J-275000D01*
G01*
X108474600Y-114350200D01*
G75*
G02*
X108199600Y-114625200I-275000J0D01*
G01*
X107649600Y-114625200D01*
G75*
G02*
X107374600Y-114350200I0J275000D01*
G01*
X107374600Y-113800200D01*
G75*
G02*
X107649600Y-113525200I275000J0D01*
G01*
G37*
%TD*%
%TO.C,FB405*%
G36*
G01*
X102696600Y-116718000D02*
X103246600Y-116718000D01*
G75*
G02*
X103521600Y-116993000I0J-275000D01*
G01*
X103521600Y-117543000D01*
G75*
G02*
X103246600Y-117818000I-275000J0D01*
G01*
X102696600Y-117818000D01*
G75*
G02*
X102421600Y-117543000I0J275000D01*
G01*
X102421600Y-116993000D01*
G75*
G02*
X102696600Y-116718000I275000J0D01*
G01*
G37*
G36*
G01*
X102696600Y-114893000D02*
X103246600Y-114893000D01*
G75*
G02*
X103521600Y-115168000I0J-275000D01*
G01*
X103521600Y-115718000D01*
G75*
G02*
X103246600Y-115993000I-275000J0D01*
G01*
X102696600Y-115993000D01*
G75*
G02*
X102421600Y-115718000I0J275000D01*
G01*
X102421600Y-115168000D01*
G75*
G02*
X102696600Y-114893000I275000J0D01*
G01*
G37*
%TD*%
%TO.C,FB404*%
G36*
G01*
X112137500Y-114325000D02*
X112137500Y-114875000D01*
G75*
G02*
X111862500Y-115150000I-275000J0D01*
G01*
X111312500Y-115150000D01*
G75*
G02*
X111037500Y-114875000I0J275000D01*
G01*
X111037500Y-114325000D01*
G75*
G02*
X111312500Y-114050000I275000J0D01*
G01*
X111862500Y-114050000D01*
G75*
G02*
X112137500Y-114325000I0J-275000D01*
G01*
G37*
G36*
G01*
X113962500Y-114325000D02*
X113962500Y-114875000D01*
G75*
G02*
X113687500Y-115150000I-275000J0D01*
G01*
X113137500Y-115150000D01*
G75*
G02*
X112862500Y-114875000I0J275000D01*
G01*
X112862500Y-114325000D01*
G75*
G02*
X113137500Y-114050000I275000J0D01*
G01*
X113687500Y-114050000D01*
G75*
G02*
X113962500Y-114325000I0J-275000D01*
G01*
G37*
%TD*%
%TO.C,FB402*%
G36*
G01*
X116862500Y-115175000D02*
X116862500Y-114625000D01*
G75*
G02*
X117137500Y-114350000I275000J0D01*
G01*
X117687500Y-114350000D01*
G75*
G02*
X117962500Y-114625000I0J-275000D01*
G01*
X117962500Y-115175000D01*
G75*
G02*
X117687500Y-115450000I-275000J0D01*
G01*
X117137500Y-115450000D01*
G75*
G02*
X116862500Y-115175000I0J275000D01*
G01*
G37*
G36*
G01*
X115037500Y-115175000D02*
X115037500Y-114625000D01*
G75*
G02*
X115312500Y-114350000I275000J0D01*
G01*
X115862500Y-114350000D01*
G75*
G02*
X116137500Y-114625000I0J-275000D01*
G01*
X116137500Y-115175000D01*
G75*
G02*
X115862500Y-115450000I-275000J0D01*
G01*
X115312500Y-115450000D01*
G75*
G02*
X115037500Y-115175000I0J275000D01*
G01*
G37*
%TD*%
%TO.C,FB401*%
G36*
G01*
X95157200Y-101392400D02*
X95157200Y-100842400D01*
G75*
G02*
X95432200Y-100567400I275000J0D01*
G01*
X95982200Y-100567400D01*
G75*
G02*
X96257200Y-100842400I0J-275000D01*
G01*
X96257200Y-101392400D01*
G75*
G02*
X95982200Y-101667400I-275000J0D01*
G01*
X95432200Y-101667400D01*
G75*
G02*
X95157200Y-101392400I0J275000D01*
G01*
G37*
G36*
G01*
X93332200Y-101392400D02*
X93332200Y-100842400D01*
G75*
G02*
X93607200Y-100567400I275000J0D01*
G01*
X94157200Y-100567400D01*
G75*
G02*
X94432200Y-100842400I0J-275000D01*
G01*
X94432200Y-101392400D01*
G75*
G02*
X94157200Y-101667400I-275000J0D01*
G01*
X93607200Y-101667400D01*
G75*
G02*
X93332200Y-101392400I0J275000D01*
G01*
G37*
%TD*%
%TO.C,F402*%
G36*
G01*
X95834200Y-109283500D02*
X95834200Y-110172500D01*
G75*
G02*
X95732600Y-110274100I-101600J0D01*
G01*
X94208600Y-110274100D01*
G75*
G02*
X94107000Y-110172500I0J101600D01*
G01*
X94107000Y-109283500D01*
G75*
G02*
X94208600Y-109181900I101600J0D01*
G01*
X95732600Y-109181900D01*
G75*
G02*
X95834200Y-109283500I0J-101600D01*
G01*
G37*
G36*
G01*
X93865762Y-108191300D02*
X93865762Y-109334300D01*
G75*
G02*
X93764162Y-109435900I-101600J0D01*
G01*
X93129162Y-109435900D01*
G75*
G02*
X93027562Y-109334300I0J101600D01*
G01*
X93027562Y-108191300D01*
G75*
G02*
X93129162Y-108089700I101600J0D01*
G01*
X93764162Y-108089700D01*
G75*
G02*
X93865762Y-108191300I0J-101600D01*
G01*
G37*
G36*
G01*
X93865762Y-110121700D02*
X93865762Y-111264700D01*
G75*
G02*
X93764162Y-111366300I-101600J0D01*
G01*
X93129162Y-111366300D01*
G75*
G02*
X93027562Y-111264700I0J101600D01*
G01*
X93027562Y-110121700D01*
G75*
G02*
X93129162Y-110020100I101600J0D01*
G01*
X93764162Y-110020100D01*
G75*
G02*
X93865762Y-110121700I0J-101600D01*
G01*
G37*
G36*
G01*
X92786200Y-109283500D02*
X92786200Y-110172500D01*
G75*
G02*
X92684600Y-110274100I-101600J0D01*
G01*
X91160600Y-110274100D01*
G75*
G02*
X91059000Y-110172500I0J101600D01*
G01*
X91059000Y-109283500D01*
G75*
G02*
X91160600Y-109181900I101600J0D01*
G01*
X92684600Y-109181900D01*
G75*
G02*
X92786200Y-109283500I0J-101600D01*
G01*
G37*
%TD*%
%TO.C,F401*%
G36*
G01*
X100431600Y-109283500D02*
X100431600Y-110172500D01*
G75*
G02*
X100330000Y-110274100I-101600J0D01*
G01*
X98806000Y-110274100D01*
G75*
G02*
X98704400Y-110172500I0J101600D01*
G01*
X98704400Y-109283500D01*
G75*
G02*
X98806000Y-109181900I101600J0D01*
G01*
X100330000Y-109181900D01*
G75*
G02*
X100431600Y-109283500I0J-101600D01*
G01*
G37*
G36*
G01*
X98463162Y-108191300D02*
X98463162Y-109334300D01*
G75*
G02*
X98361562Y-109435900I-101600J0D01*
G01*
X97726562Y-109435900D01*
G75*
G02*
X97624962Y-109334300I0J101600D01*
G01*
X97624962Y-108191300D01*
G75*
G02*
X97726562Y-108089700I101600J0D01*
G01*
X98361562Y-108089700D01*
G75*
G02*
X98463162Y-108191300I0J-101600D01*
G01*
G37*
G36*
G01*
X98463162Y-110121700D02*
X98463162Y-111264700D01*
G75*
G02*
X98361562Y-111366300I-101600J0D01*
G01*
X97726562Y-111366300D01*
G75*
G02*
X97624962Y-111264700I0J101600D01*
G01*
X97624962Y-110121700D01*
G75*
G02*
X97726562Y-110020100I101600J0D01*
G01*
X98361562Y-110020100D01*
G75*
G02*
X98463162Y-110121700I0J-101600D01*
G01*
G37*
G36*
G01*
X97383600Y-109283500D02*
X97383600Y-110172500D01*
G75*
G02*
X97282000Y-110274100I-101600J0D01*
G01*
X95758000Y-110274100D01*
G75*
G02*
X95656400Y-110172500I0J101600D01*
G01*
X95656400Y-109283500D01*
G75*
G02*
X95758000Y-109181900I101600J0D01*
G01*
X97282000Y-109181900D01*
G75*
G02*
X97383600Y-109283500I0J-101600D01*
G01*
G37*
%TD*%
%TO.C,D401*%
G36*
G01*
X92292120Y-97812760D02*
X91492120Y-97812760D01*
G75*
G02*
X91442120Y-97762760I0J50000D01*
G01*
X91442120Y-96262760D01*
G75*
G02*
X91492120Y-96212760I50000J0D01*
G01*
X92292120Y-96212760D01*
G75*
G02*
X92342120Y-96262760I0J-50000D01*
G01*
X92342120Y-97762760D01*
G75*
G02*
X92292120Y-97812760I-50000J0D01*
G01*
G37*
G36*
G01*
X92292120Y-100174960D02*
X91492120Y-100174960D01*
G75*
G02*
X91442120Y-100124960I0J50000D01*
G01*
X91442120Y-98624960D01*
G75*
G02*
X91492120Y-98574960I50000J0D01*
G01*
X92292120Y-98574960D01*
G75*
G02*
X92342120Y-98624960I0J-50000D01*
G01*
X92342120Y-100124960D01*
G75*
G02*
X92292120Y-100174960I-50000J0D01*
G01*
G37*
%TD*%
%TO.C,C408*%
G36*
G01*
X105235422Y-91206248D02*
X104272152Y-90242978D01*
G75*
G02*
X104272152Y-89862746I190116J190116D01*
G01*
X104899546Y-89235352D01*
G75*
G02*
X105279778Y-89235352I190116J-190116D01*
G01*
X106243048Y-90198622D01*
G75*
G02*
X106243048Y-90578854I-190116J-190116D01*
G01*
X105615654Y-91206248D01*
G75*
G02*
X105235422Y-91206248I-190116J190116D01*
G01*
G37*
G36*
G01*
X103025714Y-93415956D02*
X102062444Y-92452686D01*
G75*
G02*
X102062444Y-92072454I190116J190116D01*
G01*
X102689838Y-91445060D01*
G75*
G02*
X103070070Y-91445060I190116J-190116D01*
G01*
X104033340Y-92408330D01*
G75*
G02*
X104033340Y-92788562I-190116J-190116D01*
G01*
X103405946Y-93415956D01*
G75*
G02*
X103025714Y-93415956I-190116J190116D01*
G01*
G37*
%TD*%
%TO.C,C407*%
G36*
G01*
X95734000Y-94483724D02*
X95734000Y-93476276D01*
G75*
G02*
X96005276Y-93205000I271276J0D01*
G01*
X96737724Y-93205000D01*
G75*
G02*
X97009000Y-93476276I0J-271276D01*
G01*
X97009000Y-94483724D01*
G75*
G02*
X96737724Y-94755000I-271276J0D01*
G01*
X96005276Y-94755000D01*
G75*
G02*
X95734000Y-94483724I0J271276D01*
G01*
G37*
G36*
G01*
X97809000Y-94483724D02*
X97809000Y-93476276D01*
G75*
G02*
X98080276Y-93205000I271276J0D01*
G01*
X98812724Y-93205000D01*
G75*
G02*
X99084000Y-93476276I0J-271276D01*
G01*
X99084000Y-94483724D01*
G75*
G02*
X98812724Y-94755000I-271276J0D01*
G01*
X98080276Y-94755000D01*
G75*
G02*
X97809000Y-94483724I0J271276D01*
G01*
G37*
%TD*%
%TO.C,C406*%
G36*
G01*
X92324724Y-95303300D02*
X91317276Y-95303300D01*
G75*
G02*
X91046000Y-95032024I0J271276D01*
G01*
X91046000Y-94299576D01*
G75*
G02*
X91317276Y-94028300I271276J0D01*
G01*
X92324724Y-94028300D01*
G75*
G02*
X92596000Y-94299576I0J-271276D01*
G01*
X92596000Y-95032024D01*
G75*
G02*
X92324724Y-95303300I-271276J0D01*
G01*
G37*
G36*
G01*
X92324724Y-93228300D02*
X91317276Y-93228300D01*
G75*
G02*
X91046000Y-92957024I0J271276D01*
G01*
X91046000Y-92224576D01*
G75*
G02*
X91317276Y-91953300I271276J0D01*
G01*
X92324724Y-91953300D01*
G75*
G02*
X92596000Y-92224576I0J-271276D01*
G01*
X92596000Y-92957024D01*
G75*
G02*
X92324724Y-93228300I-271276J0D01*
G01*
G37*
%TD*%
%TO.C,C405*%
G36*
G01*
X95734000Y-92197724D02*
X95734000Y-91190276D01*
G75*
G02*
X96005276Y-90919000I271276J0D01*
G01*
X96737724Y-90919000D01*
G75*
G02*
X97009000Y-91190276I0J-271276D01*
G01*
X97009000Y-92197724D01*
G75*
G02*
X96737724Y-92469000I-271276J0D01*
G01*
X96005276Y-92469000D01*
G75*
G02*
X95734000Y-92197724I0J271276D01*
G01*
G37*
G36*
G01*
X97809000Y-92197724D02*
X97809000Y-91190276D01*
G75*
G02*
X98080276Y-90919000I271276J0D01*
G01*
X98812724Y-90919000D01*
G75*
G02*
X99084000Y-91190276I0J-271276D01*
G01*
X99084000Y-92197724D01*
G75*
G02*
X98812724Y-92469000I-271276J0D01*
G01*
X98080276Y-92469000D01*
G75*
G02*
X97809000Y-92197724I0J271276D01*
G01*
G37*
%TD*%
%TO.C,C404*%
G36*
G01*
X92324724Y-91464000D02*
X91317276Y-91464000D01*
G75*
G02*
X91046000Y-91192724I0J271276D01*
G01*
X91046000Y-90460276D01*
G75*
G02*
X91317276Y-90189000I271276J0D01*
G01*
X92324724Y-90189000D01*
G75*
G02*
X92596000Y-90460276I0J-271276D01*
G01*
X92596000Y-91192724D01*
G75*
G02*
X92324724Y-91464000I-271276J0D01*
G01*
G37*
G36*
G01*
X92324724Y-89389000D02*
X91317276Y-89389000D01*
G75*
G02*
X91046000Y-89117724I0J271276D01*
G01*
X91046000Y-88385276D01*
G75*
G02*
X91317276Y-88114000I271276J0D01*
G01*
X92324724Y-88114000D01*
G75*
G02*
X92596000Y-88385276I0J-271276D01*
G01*
X92596000Y-89117724D01*
G75*
G02*
X92324724Y-89389000I-271276J0D01*
G01*
G37*
%TD*%
%TO.C,C403*%
G36*
G01*
X95734000Y-89657724D02*
X95734000Y-88650276D01*
G75*
G02*
X96005276Y-88379000I271276J0D01*
G01*
X96737724Y-88379000D01*
G75*
G02*
X97009000Y-88650276I0J-271276D01*
G01*
X97009000Y-89657724D01*
G75*
G02*
X96737724Y-89929000I-271276J0D01*
G01*
X96005276Y-89929000D01*
G75*
G02*
X95734000Y-89657724I0J271276D01*
G01*
G37*
G36*
G01*
X97809000Y-89657724D02*
X97809000Y-88650276D01*
G75*
G02*
X98080276Y-88379000I271276J0D01*
G01*
X98812724Y-88379000D01*
G75*
G02*
X99084000Y-88650276I0J-271276D01*
G01*
X99084000Y-89657724D01*
G75*
G02*
X98812724Y-89929000I-271276J0D01*
G01*
X98080276Y-89929000D01*
G75*
G02*
X97809000Y-89657724I0J271276D01*
G01*
G37*
%TD*%
%TO.C,C220*%
G36*
G01*
X151585900Y-90158135D02*
X151585900Y-87895865D01*
G75*
G02*
X151854765Y-87627000I268865J0D01*
G01*
X152742035Y-87627000D01*
G75*
G02*
X153010900Y-87895865I0J-268865D01*
G01*
X153010900Y-90158135D01*
G75*
G02*
X152742035Y-90427000I-268865J0D01*
G01*
X151854765Y-90427000D01*
G75*
G02*
X151585900Y-90158135I0J268865D01*
G01*
G37*
G36*
G01*
X148460900Y-90158135D02*
X148460900Y-87895865D01*
G75*
G02*
X148729765Y-87627000I268865J0D01*
G01*
X149617035Y-87627000D01*
G75*
G02*
X149885900Y-87895865I0J-268865D01*
G01*
X149885900Y-90158135D01*
G75*
G02*
X149617035Y-90427000I-268865J0D01*
G01*
X148729765Y-90427000D01*
G75*
G02*
X148460900Y-90158135I0J268865D01*
G01*
G37*
%TD*%
%TO.C,C215*%
G36*
G01*
X105631135Y-84150000D02*
X103368865Y-84150000D01*
G75*
G02*
X103100000Y-83881135I0J268865D01*
G01*
X103100000Y-82993865D01*
G75*
G02*
X103368865Y-82725000I268865J0D01*
G01*
X105631135Y-82725000D01*
G75*
G02*
X105900000Y-82993865I0J-268865D01*
G01*
X105900000Y-83881135D01*
G75*
G02*
X105631135Y-84150000I-268865J0D01*
G01*
G37*
G36*
G01*
X105631135Y-87275000D02*
X103368865Y-87275000D01*
G75*
G02*
X103100000Y-87006135I0J268865D01*
G01*
X103100000Y-86118865D01*
G75*
G02*
X103368865Y-85850000I268865J0D01*
G01*
X105631135Y-85850000D01*
G75*
G02*
X105900000Y-86118865I0J-268865D01*
G01*
X105900000Y-87006135D01*
G75*
G02*
X105631135Y-87275000I-268865J0D01*
G01*
G37*
%TD*%
%TO.C,C214*%
G36*
G01*
X115268865Y-119650000D02*
X117531135Y-119650000D01*
G75*
G02*
X117800000Y-119918865I0J-268865D01*
G01*
X117800000Y-120806135D01*
G75*
G02*
X117531135Y-121075000I-268865J0D01*
G01*
X115268865Y-121075000D01*
G75*
G02*
X115000000Y-120806135I0J268865D01*
G01*
X115000000Y-119918865D01*
G75*
G02*
X115268865Y-119650000I268865J0D01*
G01*
G37*
G36*
G01*
X115268865Y-116525000D02*
X117531135Y-116525000D01*
G75*
G02*
X117800000Y-116793865I0J-268865D01*
G01*
X117800000Y-117681135D01*
G75*
G02*
X117531135Y-117950000I-268865J0D01*
G01*
X115268865Y-117950000D01*
G75*
G02*
X115000000Y-117681135I0J268865D01*
G01*
X115000000Y-116793865D01*
G75*
G02*
X115268865Y-116525000I268865J0D01*
G01*
G37*
%TD*%
%TO.C,C213*%
G36*
G01*
X150481400Y-119545935D02*
X150481400Y-117283665D01*
G75*
G02*
X150750265Y-117014800I268865J0D01*
G01*
X151637535Y-117014800D01*
G75*
G02*
X151906400Y-117283665I0J-268865D01*
G01*
X151906400Y-119545935D01*
G75*
G02*
X151637535Y-119814800I-268865J0D01*
G01*
X150750265Y-119814800D01*
G75*
G02*
X150481400Y-119545935I0J268865D01*
G01*
G37*
G36*
G01*
X147356400Y-119545935D02*
X147356400Y-117283665D01*
G75*
G02*
X147625265Y-117014800I268865J0D01*
G01*
X148512535Y-117014800D01*
G75*
G02*
X148781400Y-117283665I0J-268865D01*
G01*
X148781400Y-119545935D01*
G75*
G02*
X148512535Y-119814800I-268865J0D01*
G01*
X147625265Y-119814800D01*
G75*
G02*
X147356400Y-119545935I0J268865D01*
G01*
G37*
%TD*%
%TO.C,C217*%
G36*
G01*
X145697700Y-79823700D02*
X145697700Y-80348700D01*
G75*
G02*
X145435200Y-80611200I-262500J0D01*
G01*
X144785200Y-80611200D01*
G75*
G02*
X144522700Y-80348700I0J262500D01*
G01*
X144522700Y-79823700D01*
G75*
G02*
X144785200Y-79561200I262500J0D01*
G01*
X145435200Y-79561200D01*
G75*
G02*
X145697700Y-79823700I0J-262500D01*
G01*
G37*
G36*
G01*
X143972700Y-79823700D02*
X143972700Y-80348700D01*
G75*
G02*
X143710200Y-80611200I-262500J0D01*
G01*
X143060200Y-80611200D01*
G75*
G02*
X142797700Y-80348700I0J262500D01*
G01*
X142797700Y-79823700D01*
G75*
G02*
X143060200Y-79561200I262500J0D01*
G01*
X143710200Y-79561200D01*
G75*
G02*
X143972700Y-79823700I0J-262500D01*
G01*
G37*
%TD*%
%TO.C,C211*%
G36*
G01*
X104035100Y-122461900D02*
X104035100Y-121936900D01*
G75*
G02*
X104297600Y-121674400I262500J0D01*
G01*
X104947600Y-121674400D01*
G75*
G02*
X105210100Y-121936900I0J-262500D01*
G01*
X105210100Y-122461900D01*
G75*
G02*
X104947600Y-122724400I-262500J0D01*
G01*
X104297600Y-122724400D01*
G75*
G02*
X104035100Y-122461900I0J262500D01*
G01*
G37*
G36*
G01*
X105760100Y-122461900D02*
X105760100Y-121936900D01*
G75*
G02*
X106022600Y-121674400I262500J0D01*
G01*
X106672600Y-121674400D01*
G75*
G02*
X106935100Y-121936900I0J-262500D01*
G01*
X106935100Y-122461900D01*
G75*
G02*
X106672600Y-122724400I-262500J0D01*
G01*
X106022600Y-122724400D01*
G75*
G02*
X105760100Y-122461900I0J262500D01*
G01*
G37*
%TD*%
%TO.C,R403*%
G36*
G01*
X104169500Y-100219900D02*
X104169500Y-100744900D01*
G75*
G02*
X103907000Y-101007400I-262500J0D01*
G01*
X103357000Y-101007400D01*
G75*
G02*
X103094500Y-100744900I0J262500D01*
G01*
X103094500Y-100219900D01*
G75*
G02*
X103357000Y-99957400I262500J0D01*
G01*
X103907000Y-99957400D01*
G75*
G02*
X104169500Y-100219900I0J-262500D01*
G01*
G37*
G36*
G01*
X102344500Y-100219900D02*
X102344500Y-100744900D01*
G75*
G02*
X102082000Y-101007400I-262500J0D01*
G01*
X101532000Y-101007400D01*
G75*
G02*
X101269500Y-100744900I0J262500D01*
G01*
X101269500Y-100219900D01*
G75*
G02*
X101532000Y-99957400I262500J0D01*
G01*
X102082000Y-99957400D01*
G75*
G02*
X102344500Y-100219900I0J-262500D01*
G01*
G37*
%TD*%
%TO.C,C438*%
G36*
G01*
X109637500Y-106550000D02*
X110162500Y-106550000D01*
G75*
G02*
X110425000Y-106812500I0J-262500D01*
G01*
X110425000Y-107462500D01*
G75*
G02*
X110162500Y-107725000I-262500J0D01*
G01*
X109637500Y-107725000D01*
G75*
G02*
X109375000Y-107462500I0J262500D01*
G01*
X109375000Y-106812500D01*
G75*
G02*
X109637500Y-106550000I262500J0D01*
G01*
G37*
G36*
G01*
X109637500Y-108275000D02*
X110162500Y-108275000D01*
G75*
G02*
X110425000Y-108537500I0J-262500D01*
G01*
X110425000Y-109187500D01*
G75*
G02*
X110162500Y-109450000I-262500J0D01*
G01*
X109637500Y-109450000D01*
G75*
G02*
X109375000Y-109187500I0J262500D01*
G01*
X109375000Y-108537500D01*
G75*
G02*
X109637500Y-108275000I262500J0D01*
G01*
G37*
%TD*%
%TO.C,C437*%
G36*
G01*
X105731700Y-108633600D02*
X106256700Y-108633600D01*
G75*
G02*
X106519200Y-108896100I0J-262500D01*
G01*
X106519200Y-109546100D01*
G75*
G02*
X106256700Y-109808600I-262500J0D01*
G01*
X105731700Y-109808600D01*
G75*
G02*
X105469200Y-109546100I0J262500D01*
G01*
X105469200Y-108896100D01*
G75*
G02*
X105731700Y-108633600I262500J0D01*
G01*
G37*
G36*
G01*
X105731700Y-110358600D02*
X106256700Y-110358600D01*
G75*
G02*
X106519200Y-110621100I0J-262500D01*
G01*
X106519200Y-111271100D01*
G75*
G02*
X106256700Y-111533600I-262500J0D01*
G01*
X105731700Y-111533600D01*
G75*
G02*
X105469200Y-111271100I0J262500D01*
G01*
X105469200Y-110621100D01*
G75*
G02*
X105731700Y-110358600I262500J0D01*
G01*
G37*
%TD*%
%TO.C,C436*%
G36*
G01*
X103937900Y-113605700D02*
X103937900Y-114130700D01*
G75*
G02*
X103675400Y-114393200I-262500J0D01*
G01*
X103025400Y-114393200D01*
G75*
G02*
X102762900Y-114130700I0J262500D01*
G01*
X102762900Y-113605700D01*
G75*
G02*
X103025400Y-113343200I262500J0D01*
G01*
X103675400Y-113343200D01*
G75*
G02*
X103937900Y-113605700I0J-262500D01*
G01*
G37*
G36*
G01*
X102212900Y-113605700D02*
X102212900Y-114130700D01*
G75*
G02*
X101950400Y-114393200I-262500J0D01*
G01*
X101300400Y-114393200D01*
G75*
G02*
X101037900Y-114130700I0J262500D01*
G01*
X101037900Y-113605700D01*
G75*
G02*
X101300400Y-113343200I262500J0D01*
G01*
X101950400Y-113343200D01*
G75*
G02*
X102212900Y-113605700I0J-262500D01*
G01*
G37*
%TD*%
%TO.C,C435*%
G36*
G01*
X113889000Y-112767500D02*
X113889000Y-113292500D01*
G75*
G02*
X113626500Y-113555000I-262500J0D01*
G01*
X112976500Y-113555000D01*
G75*
G02*
X112714000Y-113292500I0J262500D01*
G01*
X112714000Y-112767500D01*
G75*
G02*
X112976500Y-112505000I262500J0D01*
G01*
X113626500Y-112505000D01*
G75*
G02*
X113889000Y-112767500I0J-262500D01*
G01*
G37*
G36*
G01*
X112164000Y-112767500D02*
X112164000Y-113292500D01*
G75*
G02*
X111901500Y-113555000I-262500J0D01*
G01*
X111251500Y-113555000D01*
G75*
G02*
X110989000Y-113292500I0J262500D01*
G01*
X110989000Y-112767500D01*
G75*
G02*
X111251500Y-112505000I262500J0D01*
G01*
X111901500Y-112505000D01*
G75*
G02*
X112164000Y-112767500I0J-262500D01*
G01*
G37*
%TD*%
%TO.C,C433*%
G36*
G01*
X115009000Y-113419500D02*
X115009000Y-112894500D01*
G75*
G02*
X115271500Y-112632000I262500J0D01*
G01*
X115921500Y-112632000D01*
G75*
G02*
X116184000Y-112894500I0J-262500D01*
G01*
X116184000Y-113419500D01*
G75*
G02*
X115921500Y-113682000I-262500J0D01*
G01*
X115271500Y-113682000D01*
G75*
G02*
X115009000Y-113419500I0J262500D01*
G01*
G37*
G36*
G01*
X116734000Y-113419500D02*
X116734000Y-112894500D01*
G75*
G02*
X116996500Y-112632000I262500J0D01*
G01*
X117646500Y-112632000D01*
G75*
G02*
X117909000Y-112894500I0J-262500D01*
G01*
X117909000Y-113419500D01*
G75*
G02*
X117646500Y-113682000I-262500J0D01*
G01*
X116996500Y-113682000D01*
G75*
G02*
X116734000Y-113419500I0J262500D01*
G01*
G37*
%TD*%
%TO.C,C432*%
G36*
G01*
X103900000Y-111903900D02*
X103900000Y-112428900D01*
G75*
G02*
X103637500Y-112691400I-262500J0D01*
G01*
X102987500Y-112691400D01*
G75*
G02*
X102725000Y-112428900I0J262500D01*
G01*
X102725000Y-111903900D01*
G75*
G02*
X102987500Y-111641400I262500J0D01*
G01*
X103637500Y-111641400D01*
G75*
G02*
X103900000Y-111903900I0J-262500D01*
G01*
G37*
G36*
G01*
X102175000Y-111903900D02*
X102175000Y-112428900D01*
G75*
G02*
X101912500Y-112691400I-262500J0D01*
G01*
X101262500Y-112691400D01*
G75*
G02*
X101000000Y-112428900I0J262500D01*
G01*
X101000000Y-111903900D01*
G75*
G02*
X101262500Y-111641400I262500J0D01*
G01*
X101912500Y-111641400D01*
G75*
G02*
X102175000Y-111903900I0J-262500D01*
G01*
G37*
%TD*%
%TO.C,C431*%
G36*
G01*
X113889000Y-106417500D02*
X113889000Y-106942500D01*
G75*
G02*
X113626500Y-107205000I-262500J0D01*
G01*
X112976500Y-107205000D01*
G75*
G02*
X112714000Y-106942500I0J262500D01*
G01*
X112714000Y-106417500D01*
G75*
G02*
X112976500Y-106155000I262500J0D01*
G01*
X113626500Y-106155000D01*
G75*
G02*
X113889000Y-106417500I0J-262500D01*
G01*
G37*
G36*
G01*
X112164000Y-106417500D02*
X112164000Y-106942500D01*
G75*
G02*
X111901500Y-107205000I-262500J0D01*
G01*
X111251500Y-107205000D01*
G75*
G02*
X110989000Y-106942500I0J262500D01*
G01*
X110989000Y-106417500D01*
G75*
G02*
X111251500Y-106155000I262500J0D01*
G01*
X111901500Y-106155000D01*
G75*
G02*
X112164000Y-106417500I0J-262500D01*
G01*
G37*
%TD*%
%TO.C,C429*%
G36*
G01*
X115009000Y-111768500D02*
X115009000Y-111243500D01*
G75*
G02*
X115271500Y-110981000I262500J0D01*
G01*
X115921500Y-110981000D01*
G75*
G02*
X116184000Y-111243500I0J-262500D01*
G01*
X116184000Y-111768500D01*
G75*
G02*
X115921500Y-112031000I-262500J0D01*
G01*
X115271500Y-112031000D01*
G75*
G02*
X115009000Y-111768500I0J262500D01*
G01*
G37*
G36*
G01*
X116734000Y-111768500D02*
X116734000Y-111243500D01*
G75*
G02*
X116996500Y-110981000I262500J0D01*
G01*
X117646500Y-110981000D01*
G75*
G02*
X117909000Y-111243500I0J-262500D01*
G01*
X117909000Y-111768500D01*
G75*
G02*
X117646500Y-112031000I-262500J0D01*
G01*
X116996500Y-112031000D01*
G75*
G02*
X116734000Y-111768500I0J262500D01*
G01*
G37*
%TD*%
%TO.C,C428*%
G36*
G01*
X99830500Y-102286900D02*
X99305500Y-102286900D01*
G75*
G02*
X99043000Y-102024400I0J262500D01*
G01*
X99043000Y-101374400D01*
G75*
G02*
X99305500Y-101111900I262500J0D01*
G01*
X99830500Y-101111900D01*
G75*
G02*
X100093000Y-101374400I0J-262500D01*
G01*
X100093000Y-102024400D01*
G75*
G02*
X99830500Y-102286900I-262500J0D01*
G01*
G37*
G36*
G01*
X99830500Y-100561900D02*
X99305500Y-100561900D01*
G75*
G02*
X99043000Y-100299400I0J262500D01*
G01*
X99043000Y-99649400D01*
G75*
G02*
X99305500Y-99386900I262500J0D01*
G01*
X99830500Y-99386900D01*
G75*
G02*
X100093000Y-99649400I0J-262500D01*
G01*
X100093000Y-100299400D01*
G75*
G02*
X99830500Y-100561900I-262500J0D01*
G01*
G37*
%TD*%
%TO.C,C427*%
G36*
G01*
X113889000Y-107941500D02*
X113889000Y-108466500D01*
G75*
G02*
X113626500Y-108729000I-262500J0D01*
G01*
X112976500Y-108729000D01*
G75*
G02*
X112714000Y-108466500I0J262500D01*
G01*
X112714000Y-107941500D01*
G75*
G02*
X112976500Y-107679000I262500J0D01*
G01*
X113626500Y-107679000D01*
G75*
G02*
X113889000Y-107941500I0J-262500D01*
G01*
G37*
G36*
G01*
X112164000Y-107941500D02*
X112164000Y-108466500D01*
G75*
G02*
X111901500Y-108729000I-262500J0D01*
G01*
X111251500Y-108729000D01*
G75*
G02*
X110989000Y-108466500I0J262500D01*
G01*
X110989000Y-107941500D01*
G75*
G02*
X111251500Y-107679000I262500J0D01*
G01*
X111901500Y-107679000D01*
G75*
G02*
X112164000Y-107941500I0J-262500D01*
G01*
G37*
%TD*%
%TO.C,C425*%
G36*
G01*
X115009000Y-110244500D02*
X115009000Y-109719500D01*
G75*
G02*
X115271500Y-109457000I262500J0D01*
G01*
X115921500Y-109457000D01*
G75*
G02*
X116184000Y-109719500I0J-262500D01*
G01*
X116184000Y-110244500D01*
G75*
G02*
X115921500Y-110507000I-262500J0D01*
G01*
X115271500Y-110507000D01*
G75*
G02*
X115009000Y-110244500I0J262500D01*
G01*
G37*
G36*
G01*
X116734000Y-110244500D02*
X116734000Y-109719500D01*
G75*
G02*
X116996500Y-109457000I262500J0D01*
G01*
X117646500Y-109457000D01*
G75*
G02*
X117909000Y-109719500I0J-262500D01*
G01*
X117909000Y-110244500D01*
G75*
G02*
X117646500Y-110507000I-262500J0D01*
G01*
X116996500Y-110507000D01*
G75*
G02*
X116734000Y-110244500I0J262500D01*
G01*
G37*
%TD*%
%TO.C,C424*%
G36*
G01*
X103913600Y-110202100D02*
X103913600Y-110727100D01*
G75*
G02*
X103651100Y-110989600I-262500J0D01*
G01*
X103001100Y-110989600D01*
G75*
G02*
X102738600Y-110727100I0J262500D01*
G01*
X102738600Y-110202100D01*
G75*
G02*
X103001100Y-109939600I262500J0D01*
G01*
X103651100Y-109939600D01*
G75*
G02*
X103913600Y-110202100I0J-262500D01*
G01*
G37*
G36*
G01*
X102188600Y-110202100D02*
X102188600Y-110727100D01*
G75*
G02*
X101926100Y-110989600I-262500J0D01*
G01*
X101276100Y-110989600D01*
G75*
G02*
X101013600Y-110727100I0J262500D01*
G01*
X101013600Y-110202100D01*
G75*
G02*
X101276100Y-109939600I262500J0D01*
G01*
X101926100Y-109939600D01*
G75*
G02*
X102188600Y-110202100I0J-262500D01*
G01*
G37*
%TD*%
%TO.C,C423*%
G36*
G01*
X113889000Y-109592500D02*
X113889000Y-110117500D01*
G75*
G02*
X113626500Y-110380000I-262500J0D01*
G01*
X112976500Y-110380000D01*
G75*
G02*
X112714000Y-110117500I0J262500D01*
G01*
X112714000Y-109592500D01*
G75*
G02*
X112976500Y-109330000I262500J0D01*
G01*
X113626500Y-109330000D01*
G75*
G02*
X113889000Y-109592500I0J-262500D01*
G01*
G37*
G36*
G01*
X112164000Y-109592500D02*
X112164000Y-110117500D01*
G75*
G02*
X111901500Y-110380000I-262500J0D01*
G01*
X111251500Y-110380000D01*
G75*
G02*
X110989000Y-110117500I0J262500D01*
G01*
X110989000Y-109592500D01*
G75*
G02*
X111251500Y-109330000I262500J0D01*
G01*
X111901500Y-109330000D01*
G75*
G02*
X112164000Y-109592500I0J-262500D01*
G01*
G37*
%TD*%
%TO.C,C421*%
G36*
G01*
X115009000Y-108593500D02*
X115009000Y-108068500D01*
G75*
G02*
X115271500Y-107806000I262500J0D01*
G01*
X115921500Y-107806000D01*
G75*
G02*
X116184000Y-108068500I0J-262500D01*
G01*
X116184000Y-108593500D01*
G75*
G02*
X115921500Y-108856000I-262500J0D01*
G01*
X115271500Y-108856000D01*
G75*
G02*
X115009000Y-108593500I0J262500D01*
G01*
G37*
G36*
G01*
X116734000Y-108593500D02*
X116734000Y-108068500D01*
G75*
G02*
X116996500Y-107806000I262500J0D01*
G01*
X117646500Y-107806000D01*
G75*
G02*
X117909000Y-108068500I0J-262500D01*
G01*
X117909000Y-108593500D01*
G75*
G02*
X117646500Y-108856000I-262500J0D01*
G01*
X116996500Y-108856000D01*
G75*
G02*
X116734000Y-108593500I0J262500D01*
G01*
G37*
%TD*%
%TO.C,C420*%
G36*
G01*
X103940100Y-108474900D02*
X103940100Y-108999900D01*
G75*
G02*
X103677600Y-109262400I-262500J0D01*
G01*
X103027600Y-109262400D01*
G75*
G02*
X102765100Y-108999900I0J262500D01*
G01*
X102765100Y-108474900D01*
G75*
G02*
X103027600Y-108212400I262500J0D01*
G01*
X103677600Y-108212400D01*
G75*
G02*
X103940100Y-108474900I0J-262500D01*
G01*
G37*
G36*
G01*
X102215100Y-108474900D02*
X102215100Y-108999900D01*
G75*
G02*
X101952600Y-109262400I-262500J0D01*
G01*
X101302600Y-109262400D01*
G75*
G02*
X101040100Y-108999900I0J262500D01*
G01*
X101040100Y-108474900D01*
G75*
G02*
X101302600Y-108212400I262500J0D01*
G01*
X101952600Y-108212400D01*
G75*
G02*
X102215100Y-108474900I0J-262500D01*
G01*
G37*
%TD*%
%TO.C,C417*%
G36*
G01*
X115009000Y-106942500D02*
X115009000Y-106417500D01*
G75*
G02*
X115271500Y-106155000I262500J0D01*
G01*
X115921500Y-106155000D01*
G75*
G02*
X116184000Y-106417500I0J-262500D01*
G01*
X116184000Y-106942500D01*
G75*
G02*
X115921500Y-107205000I-262500J0D01*
G01*
X115271500Y-107205000D01*
G75*
G02*
X115009000Y-106942500I0J262500D01*
G01*
G37*
G36*
G01*
X116734000Y-106942500D02*
X116734000Y-106417500D01*
G75*
G02*
X116996500Y-106155000I262500J0D01*
G01*
X117646500Y-106155000D01*
G75*
G02*
X117909000Y-106417500I0J-262500D01*
G01*
X117909000Y-106942500D01*
G75*
G02*
X117646500Y-107205000I-262500J0D01*
G01*
X116996500Y-107205000D01*
G75*
G02*
X116734000Y-106942500I0J262500D01*
G01*
G37*
%TD*%
%TO.C,C416*%
G36*
G01*
X104168700Y-96714700D02*
X104168700Y-97239700D01*
G75*
G02*
X103906200Y-97502200I-262500J0D01*
G01*
X103256200Y-97502200D01*
G75*
G02*
X102993700Y-97239700I0J262500D01*
G01*
X102993700Y-96714700D01*
G75*
G02*
X103256200Y-96452200I262500J0D01*
G01*
X103906200Y-96452200D01*
G75*
G02*
X104168700Y-96714700I0J-262500D01*
G01*
G37*
G36*
G01*
X102443700Y-96714700D02*
X102443700Y-97239700D01*
G75*
G02*
X102181200Y-97502200I-262500J0D01*
G01*
X101531200Y-97502200D01*
G75*
G02*
X101268700Y-97239700I0J262500D01*
G01*
X101268700Y-96714700D01*
G75*
G02*
X101531200Y-96452200I262500J0D01*
G01*
X102181200Y-96452200D01*
G75*
G02*
X102443700Y-96714700I0J-262500D01*
G01*
G37*
%TD*%
%TO.C,C415*%
G36*
G01*
X104168700Y-98492700D02*
X104168700Y-99017700D01*
G75*
G02*
X103906200Y-99280200I-262500J0D01*
G01*
X103256200Y-99280200D01*
G75*
G02*
X102993700Y-99017700I0J262500D01*
G01*
X102993700Y-98492700D01*
G75*
G02*
X103256200Y-98230200I262500J0D01*
G01*
X103906200Y-98230200D01*
G75*
G02*
X104168700Y-98492700I0J-262500D01*
G01*
G37*
G36*
G01*
X102443700Y-98492700D02*
X102443700Y-99017700D01*
G75*
G02*
X102181200Y-99280200I-262500J0D01*
G01*
X101531200Y-99280200D01*
G75*
G02*
X101268700Y-99017700I0J262500D01*
G01*
X101268700Y-98492700D01*
G75*
G02*
X101531200Y-98230200I262500J0D01*
G01*
X102181200Y-98230200D01*
G75*
G02*
X102443700Y-98492700I0J-262500D01*
G01*
G37*
%TD*%
%TO.C,C414*%
G36*
G01*
X96250000Y-102437500D02*
X96250000Y-102962500D01*
G75*
G02*
X95987500Y-103225000I-262500J0D01*
G01*
X95337500Y-103225000D01*
G75*
G02*
X95075000Y-102962500I0J262500D01*
G01*
X95075000Y-102437500D01*
G75*
G02*
X95337500Y-102175000I262500J0D01*
G01*
X95987500Y-102175000D01*
G75*
G02*
X96250000Y-102437500I0J-262500D01*
G01*
G37*
G36*
G01*
X94525000Y-102437500D02*
X94525000Y-102962500D01*
G75*
G02*
X94262500Y-103225000I-262500J0D01*
G01*
X93612500Y-103225000D01*
G75*
G02*
X93350000Y-102962500I0J262500D01*
G01*
X93350000Y-102437500D01*
G75*
G02*
X93612500Y-102175000I262500J0D01*
G01*
X94262500Y-102175000D01*
G75*
G02*
X94525000Y-102437500I0J-262500D01*
G01*
G37*
%TD*%
%TO.C,C413*%
G36*
G01*
X99855900Y-98832500D02*
X99330900Y-98832500D01*
G75*
G02*
X99068400Y-98570000I0J262500D01*
G01*
X99068400Y-97920000D01*
G75*
G02*
X99330900Y-97657500I262500J0D01*
G01*
X99855900Y-97657500D01*
G75*
G02*
X100118400Y-97920000I0J-262500D01*
G01*
X100118400Y-98570000D01*
G75*
G02*
X99855900Y-98832500I-262500J0D01*
G01*
G37*
G36*
G01*
X99855900Y-97107500D02*
X99330900Y-97107500D01*
G75*
G02*
X99068400Y-96845000I0J262500D01*
G01*
X99068400Y-96195000D01*
G75*
G02*
X99330900Y-95932500I262500J0D01*
G01*
X99855900Y-95932500D01*
G75*
G02*
X100118400Y-96195000I0J-262500D01*
G01*
X100118400Y-96845000D01*
G75*
G02*
X99855900Y-97107500I-262500J0D01*
G01*
G37*
%TD*%
%TO.C,C412*%
G36*
G01*
X101242200Y-95512500D02*
X101242200Y-94987500D01*
G75*
G02*
X101504700Y-94725000I262500J0D01*
G01*
X102154700Y-94725000D01*
G75*
G02*
X102417200Y-94987500I0J-262500D01*
G01*
X102417200Y-95512500D01*
G75*
G02*
X102154700Y-95775000I-262500J0D01*
G01*
X101504700Y-95775000D01*
G75*
G02*
X101242200Y-95512500I0J262500D01*
G01*
G37*
G36*
G01*
X102967200Y-95512500D02*
X102967200Y-94987500D01*
G75*
G02*
X103229700Y-94725000I262500J0D01*
G01*
X103879700Y-94725000D01*
G75*
G02*
X104142200Y-94987500I0J-262500D01*
G01*
X104142200Y-95512500D01*
G75*
G02*
X103879700Y-95775000I-262500J0D01*
G01*
X103229700Y-95775000D01*
G75*
G02*
X102967200Y-95512500I0J262500D01*
G01*
G37*
%TD*%
%TO.C,C411*%
G36*
G01*
X107527500Y-90310000D02*
X108052500Y-90310000D01*
G75*
G02*
X108315000Y-90572500I0J-262500D01*
G01*
X108315000Y-91222500D01*
G75*
G02*
X108052500Y-91485000I-262500J0D01*
G01*
X107527500Y-91485000D01*
G75*
G02*
X107265000Y-91222500I0J262500D01*
G01*
X107265000Y-90572500D01*
G75*
G02*
X107527500Y-90310000I262500J0D01*
G01*
G37*
G36*
G01*
X107527500Y-92035000D02*
X108052500Y-92035000D01*
G75*
G02*
X108315000Y-92297500I0J-262500D01*
G01*
X108315000Y-92947500D01*
G75*
G02*
X108052500Y-93210000I-262500J0D01*
G01*
X107527500Y-93210000D01*
G75*
G02*
X107265000Y-92947500I0J262500D01*
G01*
X107265000Y-92297500D01*
G75*
G02*
X107527500Y-92035000I262500J0D01*
G01*
G37*
%TD*%
%TO.C,C410*%
G36*
G01*
X104468990Y-94200041D02*
X104097759Y-93828810D01*
G75*
G02*
X104097759Y-93457578I185616J185616D01*
G01*
X104557378Y-92997959D01*
G75*
G02*
X104928610Y-92997959I185616J-185616D01*
G01*
X105299841Y-93369190D01*
G75*
G02*
X105299841Y-93740422I-185616J-185616D01*
G01*
X104840222Y-94200041D01*
G75*
G02*
X104468990Y-94200041I-185616J185616D01*
G01*
G37*
G36*
G01*
X105688750Y-92980281D02*
X105317519Y-92609050D01*
G75*
G02*
X105317519Y-92237818I185616J185616D01*
G01*
X105777138Y-91778199D01*
G75*
G02*
X106148370Y-91778199I185616J-185616D01*
G01*
X106519601Y-92149430D01*
G75*
G02*
X106519601Y-92520662I-185616J-185616D01*
G01*
X106059982Y-92980281D01*
G75*
G02*
X105688750Y-92980281I-185616J185616D01*
G01*
G37*
%TD*%
%TO.C,C409*%
G36*
G01*
X101268700Y-102446700D02*
X101268700Y-101921700D01*
G75*
G02*
X101531200Y-101659200I262500J0D01*
G01*
X102181200Y-101659200D01*
G75*
G02*
X102443700Y-101921700I0J-262500D01*
G01*
X102443700Y-102446700D01*
G75*
G02*
X102181200Y-102709200I-262500J0D01*
G01*
X101531200Y-102709200D01*
G75*
G02*
X101268700Y-102446700I0J262500D01*
G01*
G37*
G36*
G01*
X102993700Y-102446700D02*
X102993700Y-101921700D01*
G75*
G02*
X103256200Y-101659200I262500J0D01*
G01*
X103906200Y-101659200D01*
G75*
G02*
X104168700Y-101921700I0J-262500D01*
G01*
X104168700Y-102446700D01*
G75*
G02*
X103906200Y-102709200I-262500J0D01*
G01*
X103256200Y-102709200D01*
G75*
G02*
X102993700Y-102446700I0J262500D01*
G01*
G37*
%TD*%
%TO.C,C402*%
G36*
G01*
X99203900Y-113384500D02*
X99728900Y-113384500D01*
G75*
G02*
X99991400Y-113647000I0J-262500D01*
G01*
X99991400Y-114297000D01*
G75*
G02*
X99728900Y-114559500I-262500J0D01*
G01*
X99203900Y-114559500D01*
G75*
G02*
X98941400Y-114297000I0J262500D01*
G01*
X98941400Y-113647000D01*
G75*
G02*
X99203900Y-113384500I262500J0D01*
G01*
G37*
G36*
G01*
X99203900Y-115109500D02*
X99728900Y-115109500D01*
G75*
G02*
X99991400Y-115372000I0J-262500D01*
G01*
X99991400Y-116022000D01*
G75*
G02*
X99728900Y-116284500I-262500J0D01*
G01*
X99203900Y-116284500D01*
G75*
G02*
X98941400Y-116022000I0J262500D01*
G01*
X98941400Y-115372000D01*
G75*
G02*
X99203900Y-115109500I262500J0D01*
G01*
G37*
%TD*%
%TO.C,C401*%
G36*
G01*
X100211500Y-85651000D02*
X99686500Y-85651000D01*
G75*
G02*
X99424000Y-85388500I0J262500D01*
G01*
X99424000Y-84738500D01*
G75*
G02*
X99686500Y-84476000I262500J0D01*
G01*
X100211500Y-84476000D01*
G75*
G02*
X100474000Y-84738500I0J-262500D01*
G01*
X100474000Y-85388500D01*
G75*
G02*
X100211500Y-85651000I-262500J0D01*
G01*
G37*
G36*
G01*
X100211500Y-83926000D02*
X99686500Y-83926000D01*
G75*
G02*
X99424000Y-83663500I0J262500D01*
G01*
X99424000Y-83013500D01*
G75*
G02*
X99686500Y-82751000I262500J0D01*
G01*
X100211500Y-82751000D01*
G75*
G02*
X100474000Y-83013500I0J-262500D01*
G01*
X100474000Y-83663500D01*
G75*
G02*
X100211500Y-83926000I-262500J0D01*
G01*
G37*
%TD*%
%TO.C,C219*%
G36*
G01*
X145697700Y-81500100D02*
X145697700Y-82025100D01*
G75*
G02*
X145435200Y-82287600I-262500J0D01*
G01*
X144785200Y-82287600D01*
G75*
G02*
X144522700Y-82025100I0J262500D01*
G01*
X144522700Y-81500100D01*
G75*
G02*
X144785200Y-81237600I262500J0D01*
G01*
X145435200Y-81237600D01*
G75*
G02*
X145697700Y-81500100I0J-262500D01*
G01*
G37*
G36*
G01*
X143972700Y-81500100D02*
X143972700Y-82025100D01*
G75*
G02*
X143710200Y-82287600I-262500J0D01*
G01*
X143060200Y-82287600D01*
G75*
G02*
X142797700Y-82025100I0J262500D01*
G01*
X142797700Y-81500100D01*
G75*
G02*
X143060200Y-81237600I262500J0D01*
G01*
X143710200Y-81237600D01*
G75*
G02*
X143972700Y-81500100I0J-262500D01*
G01*
G37*
%TD*%
%TO.C,C218*%
G36*
G01*
X145672300Y-83176500D02*
X145672300Y-83701500D01*
G75*
G02*
X145409800Y-83964000I-262500J0D01*
G01*
X144759800Y-83964000D01*
G75*
G02*
X144497300Y-83701500I0J262500D01*
G01*
X144497300Y-83176500D01*
G75*
G02*
X144759800Y-82914000I262500J0D01*
G01*
X145409800Y-82914000D01*
G75*
G02*
X145672300Y-83176500I0J-262500D01*
G01*
G37*
G36*
G01*
X143947300Y-83176500D02*
X143947300Y-83701500D01*
G75*
G02*
X143684800Y-83964000I-262500J0D01*
G01*
X143034800Y-83964000D01*
G75*
G02*
X142772300Y-83701500I0J262500D01*
G01*
X142772300Y-83176500D01*
G75*
G02*
X143034800Y-82914000I262500J0D01*
G01*
X143684800Y-82914000D01*
G75*
G02*
X143947300Y-83176500I0J-262500D01*
G01*
G37*
%TD*%
%TO.C,C216*%
G36*
G01*
X147805900Y-77791700D02*
X147805900Y-78316700D01*
G75*
G02*
X147543400Y-78579200I-262500J0D01*
G01*
X146893400Y-78579200D01*
G75*
G02*
X146630900Y-78316700I0J262500D01*
G01*
X146630900Y-77791700D01*
G75*
G02*
X146893400Y-77529200I262500J0D01*
G01*
X147543400Y-77529200D01*
G75*
G02*
X147805900Y-77791700I0J-262500D01*
G01*
G37*
G36*
G01*
X146080900Y-77791700D02*
X146080900Y-78316700D01*
G75*
G02*
X145818400Y-78579200I-262500J0D01*
G01*
X145168400Y-78579200D01*
G75*
G02*
X144905900Y-78316700I0J262500D01*
G01*
X144905900Y-77791700D01*
G75*
G02*
X145168400Y-77529200I262500J0D01*
G01*
X145818400Y-77529200D01*
G75*
G02*
X146080900Y-77791700I0J-262500D01*
G01*
G37*
%TD*%
%TO.C,C212*%
G36*
G01*
X116663300Y-82363700D02*
X116663300Y-82888700D01*
G75*
G02*
X116400800Y-83151200I-262500J0D01*
G01*
X115750800Y-83151200D01*
G75*
G02*
X115488300Y-82888700I0J262500D01*
G01*
X115488300Y-82363700D01*
G75*
G02*
X115750800Y-82101200I262500J0D01*
G01*
X116400800Y-82101200D01*
G75*
G02*
X116663300Y-82363700I0J-262500D01*
G01*
G37*
G36*
G01*
X114938300Y-82363700D02*
X114938300Y-82888700D01*
G75*
G02*
X114675800Y-83151200I-262500J0D01*
G01*
X114025800Y-83151200D01*
G75*
G02*
X113763300Y-82888700I0J262500D01*
G01*
X113763300Y-82363700D01*
G75*
G02*
X114025800Y-82101200I262500J0D01*
G01*
X114675800Y-82101200D01*
G75*
G02*
X114938300Y-82363700I0J-262500D01*
G01*
G37*
%TD*%
%TO.C,C210*%
G36*
G01*
X146037500Y-116350000D02*
X146562500Y-116350000D01*
G75*
G02*
X146825000Y-116612500I0J-262500D01*
G01*
X146825000Y-117262500D01*
G75*
G02*
X146562500Y-117525000I-262500J0D01*
G01*
X146037500Y-117525000D01*
G75*
G02*
X145775000Y-117262500I0J262500D01*
G01*
X145775000Y-116612500D01*
G75*
G02*
X146037500Y-116350000I262500J0D01*
G01*
G37*
G36*
G01*
X146037500Y-118075000D02*
X146562500Y-118075000D01*
G75*
G02*
X146825000Y-118337500I0J-262500D01*
G01*
X146825000Y-118987500D01*
G75*
G02*
X146562500Y-119250000I-262500J0D01*
G01*
X146037500Y-119250000D01*
G75*
G02*
X145775000Y-118987500I0J262500D01*
G01*
X145775000Y-118337500D01*
G75*
G02*
X146037500Y-118075000I262500J0D01*
G01*
G37*
%TD*%
%TO.C,C209*%
G36*
G01*
X116550000Y-80437500D02*
X116550000Y-80962500D01*
G75*
G02*
X116287500Y-81225000I-262500J0D01*
G01*
X115637500Y-81225000D01*
G75*
G02*
X115375000Y-80962500I0J262500D01*
G01*
X115375000Y-80437500D01*
G75*
G02*
X115637500Y-80175000I262500J0D01*
G01*
X116287500Y-80175000D01*
G75*
G02*
X116550000Y-80437500I0J-262500D01*
G01*
G37*
G36*
G01*
X114825000Y-80437500D02*
X114825000Y-80962500D01*
G75*
G02*
X114562500Y-81225000I-262500J0D01*
G01*
X113912500Y-81225000D01*
G75*
G02*
X113650000Y-80962500I0J262500D01*
G01*
X113650000Y-80437500D01*
G75*
G02*
X113912500Y-80175000I262500J0D01*
G01*
X114562500Y-80175000D01*
G75*
G02*
X114825000Y-80437500I0J-262500D01*
G01*
G37*
%TD*%
%TO.C,C208*%
G36*
G01*
X104035100Y-120633100D02*
X104035100Y-120108100D01*
G75*
G02*
X104297600Y-119845600I262500J0D01*
G01*
X104947600Y-119845600D01*
G75*
G02*
X105210100Y-120108100I0J-262500D01*
G01*
X105210100Y-120633100D01*
G75*
G02*
X104947600Y-120895600I-262500J0D01*
G01*
X104297600Y-120895600D01*
G75*
G02*
X104035100Y-120633100I0J262500D01*
G01*
G37*
G36*
G01*
X105760100Y-120633100D02*
X105760100Y-120108100D01*
G75*
G02*
X106022600Y-119845600I262500J0D01*
G01*
X106672600Y-119845600D01*
G75*
G02*
X106935100Y-120108100I0J-262500D01*
G01*
X106935100Y-120633100D01*
G75*
G02*
X106672600Y-120895600I-262500J0D01*
G01*
X106022600Y-120895600D01*
G75*
G02*
X105760100Y-120633100I0J262500D01*
G01*
G37*
%TD*%
%TO.C,C207*%
G36*
G01*
X150478100Y-109500500D02*
X149953100Y-109500500D01*
G75*
G02*
X149690600Y-109238000I0J262500D01*
G01*
X149690600Y-108588000D01*
G75*
G02*
X149953100Y-108325500I262500J0D01*
G01*
X150478100Y-108325500D01*
G75*
G02*
X150740600Y-108588000I0J-262500D01*
G01*
X150740600Y-109238000D01*
G75*
G02*
X150478100Y-109500500I-262500J0D01*
G01*
G37*
G36*
G01*
X150478100Y-107775500D02*
X149953100Y-107775500D01*
G75*
G02*
X149690600Y-107513000I0J262500D01*
G01*
X149690600Y-106863000D01*
G75*
G02*
X149953100Y-106600500I262500J0D01*
G01*
X150478100Y-106600500D01*
G75*
G02*
X150740600Y-106863000I0J-262500D01*
G01*
X150740600Y-107513000D01*
G75*
G02*
X150478100Y-107775500I-262500J0D01*
G01*
G37*
%TD*%
%TO.C,C206*%
G36*
G01*
X116688700Y-83989300D02*
X116688700Y-84514300D01*
G75*
G02*
X116426200Y-84776800I-262500J0D01*
G01*
X115776200Y-84776800D01*
G75*
G02*
X115513700Y-84514300I0J262500D01*
G01*
X115513700Y-83989300D01*
G75*
G02*
X115776200Y-83726800I262500J0D01*
G01*
X116426200Y-83726800D01*
G75*
G02*
X116688700Y-83989300I0J-262500D01*
G01*
G37*
G36*
G01*
X114963700Y-83989300D02*
X114963700Y-84514300D01*
G75*
G02*
X114701200Y-84776800I-262500J0D01*
G01*
X114051200Y-84776800D01*
G75*
G02*
X113788700Y-84514300I0J262500D01*
G01*
X113788700Y-83989300D01*
G75*
G02*
X114051200Y-83726800I262500J0D01*
G01*
X114701200Y-83726800D01*
G75*
G02*
X114963700Y-83989300I0J-262500D01*
G01*
G37*
%TD*%
%TO.C,C205*%
G36*
G01*
X104009700Y-118804300D02*
X104009700Y-118279300D01*
G75*
G02*
X104272200Y-118016800I262500J0D01*
G01*
X104922200Y-118016800D01*
G75*
G02*
X105184700Y-118279300I0J-262500D01*
G01*
X105184700Y-118804300D01*
G75*
G02*
X104922200Y-119066800I-262500J0D01*
G01*
X104272200Y-119066800D01*
G75*
G02*
X104009700Y-118804300I0J262500D01*
G01*
G37*
G36*
G01*
X105734700Y-118804300D02*
X105734700Y-118279300D01*
G75*
G02*
X105997200Y-118016800I262500J0D01*
G01*
X106647200Y-118016800D01*
G75*
G02*
X106909700Y-118279300I0J-262500D01*
G01*
X106909700Y-118804300D01*
G75*
G02*
X106647200Y-119066800I-262500J0D01*
G01*
X105997200Y-119066800D01*
G75*
G02*
X105734700Y-118804300I0J262500D01*
G01*
G37*
%TD*%
%TO.C,C204*%
G36*
G01*
X148669500Y-120692300D02*
X148669500Y-121217300D01*
G75*
G02*
X148407000Y-121479800I-262500J0D01*
G01*
X147757000Y-121479800D01*
G75*
G02*
X147494500Y-121217300I0J262500D01*
G01*
X147494500Y-120692300D01*
G75*
G02*
X147757000Y-120429800I262500J0D01*
G01*
X148407000Y-120429800D01*
G75*
G02*
X148669500Y-120692300I0J-262500D01*
G01*
G37*
G36*
G01*
X146944500Y-120692300D02*
X146944500Y-121217300D01*
G75*
G02*
X146682000Y-121479800I-262500J0D01*
G01*
X146032000Y-121479800D01*
G75*
G02*
X145769500Y-121217300I0J262500D01*
G01*
X145769500Y-120692300D01*
G75*
G02*
X146032000Y-120429800I262500J0D01*
G01*
X146682000Y-120429800D01*
G75*
G02*
X146944500Y-120692300I0J-262500D01*
G01*
G37*
%TD*%
%TO.C,C203*%
G36*
G01*
X106850000Y-78962500D02*
X106850000Y-78437500D01*
G75*
G02*
X107112500Y-78175000I262500J0D01*
G01*
X107762500Y-78175000D01*
G75*
G02*
X108025000Y-78437500I0J-262500D01*
G01*
X108025000Y-78962500D01*
G75*
G02*
X107762500Y-79225000I-262500J0D01*
G01*
X107112500Y-79225000D01*
G75*
G02*
X106850000Y-78962500I0J262500D01*
G01*
G37*
G36*
G01*
X108575000Y-78962500D02*
X108575000Y-78437500D01*
G75*
G02*
X108837500Y-78175000I262500J0D01*
G01*
X109487500Y-78175000D01*
G75*
G02*
X109750000Y-78437500I0J-262500D01*
G01*
X109750000Y-78962500D01*
G75*
G02*
X109487500Y-79225000I-262500J0D01*
G01*
X108837500Y-79225000D01*
G75*
G02*
X108575000Y-78962500I0J262500D01*
G01*
G37*
%TD*%
%TO.C,C202*%
G36*
G01*
X112549600Y-124959500D02*
X112549600Y-125484500D01*
G75*
G02*
X112287100Y-125747000I-262500J0D01*
G01*
X111637100Y-125747000D01*
G75*
G02*
X111374600Y-125484500I0J262500D01*
G01*
X111374600Y-124959500D01*
G75*
G02*
X111637100Y-124697000I262500J0D01*
G01*
X112287100Y-124697000D01*
G75*
G02*
X112549600Y-124959500I0J-262500D01*
G01*
G37*
G36*
G01*
X110824600Y-124959500D02*
X110824600Y-125484500D01*
G75*
G02*
X110562100Y-125747000I-262500J0D01*
G01*
X109912100Y-125747000D01*
G75*
G02*
X109649600Y-125484500I0J262500D01*
G01*
X109649600Y-124959500D01*
G75*
G02*
X109912100Y-124697000I262500J0D01*
G01*
X110562100Y-124697000D01*
G75*
G02*
X110824600Y-124959500I0J-262500D01*
G01*
G37*
%TD*%
%TO.C,C201*%
G36*
G01*
X152562500Y-109650000D02*
X152037500Y-109650000D01*
G75*
G02*
X151775000Y-109387500I0J262500D01*
G01*
X151775000Y-108737500D01*
G75*
G02*
X152037500Y-108475000I262500J0D01*
G01*
X152562500Y-108475000D01*
G75*
G02*
X152825000Y-108737500I0J-262500D01*
G01*
X152825000Y-109387500D01*
G75*
G02*
X152562500Y-109650000I-262500J0D01*
G01*
G37*
G36*
G01*
X152562500Y-107925000D02*
X152037500Y-107925000D01*
G75*
G02*
X151775000Y-107662500I0J262500D01*
G01*
X151775000Y-107012500D01*
G75*
G02*
X152037500Y-106750000I262500J0D01*
G01*
X152562500Y-106750000D01*
G75*
G02*
X152825000Y-107012500I0J-262500D01*
G01*
X152825000Y-107662500D01*
G75*
G02*
X152562500Y-107925000I-262500J0D01*
G01*
G37*
%TD*%
D10*
%TO.C,U1*%
X136120000Y-97560000D03*
X134620000Y-100560000D03*
X134620000Y-99060000D03*
X133120000Y-99060000D03*
X136120000Y-99060000D03*
X133120000Y-97560000D03*
X134620000Y-97560000D03*
D11*
X145620000Y-107810000D03*
X145620000Y-107310000D03*
X145620000Y-106810000D03*
X145620000Y-106310000D03*
X145620000Y-105810000D03*
X145620000Y-105310000D03*
X145620000Y-104810000D03*
X145620000Y-104310000D03*
X145620000Y-103810000D03*
X145620000Y-103310000D03*
X145620000Y-102810000D03*
X145620000Y-102310000D03*
X145620000Y-101810000D03*
X145620000Y-101310000D03*
X145620000Y-100810000D03*
X145620000Y-100310000D03*
X145620000Y-99810000D03*
X145620000Y-99310000D03*
X145620000Y-98810000D03*
X145620000Y-98310000D03*
X145620000Y-97810000D03*
X145620000Y-97310000D03*
X145620000Y-96810000D03*
X145620000Y-96310000D03*
X145620000Y-95810000D03*
X145620000Y-95310000D03*
X145620000Y-94810000D03*
X145620000Y-94310000D03*
X145620000Y-93810000D03*
X145620000Y-93310000D03*
X145620000Y-92810000D03*
X145620000Y-92310000D03*
X145620000Y-91810000D03*
X145620000Y-91310000D03*
X145620000Y-90810000D03*
X145620000Y-90310000D03*
D12*
X143370000Y-88060000D03*
X142870000Y-88060000D03*
X142370000Y-88060000D03*
X141870000Y-88060000D03*
X141370000Y-88060000D03*
X140870000Y-88060000D03*
X140370000Y-88060000D03*
X139870000Y-88060000D03*
X139370000Y-88060000D03*
X138870000Y-88060000D03*
X138370000Y-88060000D03*
X137870000Y-88060000D03*
X137370000Y-88060000D03*
X136870000Y-88060000D03*
X136370000Y-88060000D03*
X135870000Y-88060000D03*
X135370000Y-88060000D03*
X134870000Y-88060000D03*
X134370000Y-88060000D03*
X133870000Y-88060000D03*
X133370000Y-88060000D03*
X132870000Y-88060000D03*
X132370000Y-88060000D03*
X131870000Y-88060000D03*
X131370000Y-88060000D03*
X130870000Y-88060000D03*
X130370000Y-88060000D03*
X129870000Y-88060000D03*
X129370000Y-88060000D03*
X128870000Y-88060000D03*
X128370000Y-88060000D03*
X127870000Y-88060000D03*
X127370000Y-88060000D03*
X126870000Y-88060000D03*
X126370000Y-88060000D03*
X125870000Y-88060000D03*
D11*
X123620000Y-90310000D03*
X123620000Y-90810000D03*
X123620000Y-91310000D03*
X123620000Y-91810000D03*
X123620000Y-92310000D03*
X123620000Y-92810000D03*
X123620000Y-93310000D03*
X123620000Y-93810000D03*
X123620000Y-94310000D03*
X123620000Y-94810000D03*
X123620000Y-95310000D03*
X123620000Y-95810000D03*
X123620000Y-96310000D03*
X123620000Y-96810000D03*
X123620000Y-97310000D03*
X123620000Y-97810000D03*
X123620000Y-98310000D03*
X123620000Y-98810000D03*
X123620000Y-99310000D03*
X123620000Y-99810000D03*
X123620000Y-100310000D03*
X123620000Y-100810000D03*
X123620000Y-101310000D03*
X123620000Y-101810000D03*
X123620000Y-102310000D03*
X123620000Y-102810000D03*
X123620000Y-103310000D03*
X123620000Y-103810000D03*
X123620000Y-104310000D03*
X123620000Y-104810000D03*
X123620000Y-105310000D03*
X123620000Y-105810000D03*
X123620000Y-106310000D03*
X123620000Y-106810000D03*
X123620000Y-107310000D03*
X123620000Y-107810000D03*
D12*
X125870000Y-110060000D03*
X126370000Y-110060000D03*
X126870000Y-110060000D03*
X127370000Y-110060000D03*
X127870000Y-110060000D03*
X128370000Y-110060000D03*
X128870000Y-110060000D03*
X129370000Y-110060000D03*
X129870000Y-110060000D03*
X130370000Y-110060000D03*
X130870000Y-110060000D03*
X131370000Y-110060000D03*
X131870000Y-110060000D03*
X132370000Y-110060000D03*
X132870000Y-110060000D03*
X133370000Y-110060000D03*
X133870000Y-110060000D03*
X134370000Y-110060000D03*
X134870000Y-110060000D03*
X135370000Y-110060000D03*
X135870000Y-110060000D03*
X136370000Y-110060000D03*
X136870000Y-110060000D03*
X137370000Y-110060000D03*
X137870000Y-110060000D03*
X138370000Y-110060000D03*
X138870000Y-110060000D03*
X139370000Y-110060000D03*
X139870000Y-110060000D03*
X140370000Y-110060000D03*
X140870000Y-110060000D03*
X141370000Y-110060000D03*
X141870000Y-110060000D03*
X142370000Y-110060000D03*
X142870000Y-110060000D03*
X143370000Y-110060000D03*
D13*
X136720000Y-101160000D03*
G36*
G01*
X137170000Y-96560000D02*
X137170000Y-101560000D01*
G75*
G02*
X137120000Y-101610000I-50000J0D01*
G01*
X132120000Y-101610000D01*
G75*
G02*
X132070000Y-101560000I0J50000D01*
G01*
X132070000Y-96560000D01*
G75*
G02*
X132120000Y-96510000I50000J0D01*
G01*
X137120000Y-96510000D01*
G75*
G02*
X137170000Y-96560000I0J-50000D01*
G01*
G37*
D10*
X133120000Y-100560000D03*
%TD*%
D14*
%TO.C,IC401*%
X113633000Y-101695000D03*
D10*
X108633000Y-102695000D03*
X110133000Y-102695000D03*
X108633000Y-101195000D03*
X110133000Y-101195000D03*
X108633000Y-96695000D03*
X108633000Y-98195000D03*
X114633000Y-98195000D03*
X114633000Y-96695000D03*
X113133000Y-96695000D03*
X113133000Y-98195000D03*
X110133000Y-98195000D03*
X110133000Y-96695000D03*
X111633000Y-96695000D03*
X111633000Y-98195000D03*
X111633000Y-102695000D03*
X111633000Y-101195000D03*
X114633000Y-99695000D03*
X113133000Y-99695000D03*
X108633000Y-99695000D03*
X110133000Y-99695000D03*
G36*
G01*
X111183000Y-100195000D02*
X111183000Y-102695000D01*
G75*
G02*
X111133000Y-102745000I-50000J0D01*
G01*
X108633000Y-102745000D01*
G75*
G02*
X108583000Y-102695000I0J50000D01*
G01*
X108583000Y-100195000D01*
G75*
G02*
X108633000Y-100145000I50000J0D01*
G01*
X111133000Y-100145000D01*
G75*
G02*
X111183000Y-100195000I0J-50000D01*
G01*
G37*
G36*
G01*
X111183000Y-96695000D02*
X111183000Y-99195000D01*
G75*
G02*
X111133000Y-99245000I-50000J0D01*
G01*
X108633000Y-99245000D01*
G75*
G02*
X108583000Y-99195000I0J50000D01*
G01*
X108583000Y-96695000D01*
G75*
G02*
X108633000Y-96645000I50000J0D01*
G01*
X111133000Y-96645000D01*
G75*
G02*
X111183000Y-96695000I0J-50000D01*
G01*
G37*
G36*
G01*
X114683000Y-96695000D02*
X114683000Y-99195000D01*
G75*
G02*
X114633000Y-99245000I-50000J0D01*
G01*
X112133000Y-99245000D01*
G75*
G02*
X112083000Y-99195000I0J50000D01*
G01*
X112083000Y-96695000D01*
G75*
G02*
X112133000Y-96645000I50000J0D01*
G01*
X114633000Y-96645000D01*
G75*
G02*
X114683000Y-96695000I0J-50000D01*
G01*
G37*
G36*
G01*
X115833000Y-103270000D02*
X116633000Y-103270000D01*
G75*
G02*
X116683000Y-103320000I0J-50000D01*
G01*
X116683000Y-103570000D01*
G75*
G02*
X116633000Y-103620000I-50000J0D01*
G01*
X115833000Y-103620000D01*
G75*
G02*
X115783000Y-103570000I0J50000D01*
G01*
X115783000Y-103320000D01*
G75*
G02*
X115833000Y-103270000I50000J0D01*
G01*
G37*
G36*
G01*
X115833000Y-102770000D02*
X116633000Y-102770000D01*
G75*
G02*
X116683000Y-102820000I0J-50000D01*
G01*
X116683000Y-103070000D01*
G75*
G02*
X116633000Y-103120000I-50000J0D01*
G01*
X115833000Y-103120000D01*
G75*
G02*
X115783000Y-103070000I0J50000D01*
G01*
X115783000Y-102820000D01*
G75*
G02*
X115833000Y-102770000I50000J0D01*
G01*
G37*
G36*
G01*
X115833000Y-102270000D02*
X116633000Y-102270000D01*
G75*
G02*
X116683000Y-102320000I0J-50000D01*
G01*
X116683000Y-102570000D01*
G75*
G02*
X116633000Y-102620000I-50000J0D01*
G01*
X115833000Y-102620000D01*
G75*
G02*
X115783000Y-102570000I0J50000D01*
G01*
X115783000Y-102320000D01*
G75*
G02*
X115833000Y-102270000I50000J0D01*
G01*
G37*
G36*
G01*
X115833000Y-101770000D02*
X116633000Y-101770000D01*
G75*
G02*
X116683000Y-101820000I0J-50000D01*
G01*
X116683000Y-102070000D01*
G75*
G02*
X116633000Y-102120000I-50000J0D01*
G01*
X115833000Y-102120000D01*
G75*
G02*
X115783000Y-102070000I0J50000D01*
G01*
X115783000Y-101820000D01*
G75*
G02*
X115833000Y-101770000I50000J0D01*
G01*
G37*
G36*
G01*
X115833000Y-101270000D02*
X116633000Y-101270000D01*
G75*
G02*
X116683000Y-101320000I0J-50000D01*
G01*
X116683000Y-101570000D01*
G75*
G02*
X116633000Y-101620000I-50000J0D01*
G01*
X115833000Y-101620000D01*
G75*
G02*
X115783000Y-101570000I0J50000D01*
G01*
X115783000Y-101320000D01*
G75*
G02*
X115833000Y-101270000I50000J0D01*
G01*
G37*
G36*
G01*
X115833000Y-100770000D02*
X116633000Y-100770000D01*
G75*
G02*
X116683000Y-100820000I0J-50000D01*
G01*
X116683000Y-101070000D01*
G75*
G02*
X116633000Y-101120000I-50000J0D01*
G01*
X115833000Y-101120000D01*
G75*
G02*
X115783000Y-101070000I0J50000D01*
G01*
X115783000Y-100820000D01*
G75*
G02*
X115833000Y-100770000I50000J0D01*
G01*
G37*
G36*
G01*
X115833000Y-100270000D02*
X116633000Y-100270000D01*
G75*
G02*
X116683000Y-100320000I0J-50000D01*
G01*
X116683000Y-100570000D01*
G75*
G02*
X116633000Y-100620000I-50000J0D01*
G01*
X115833000Y-100620000D01*
G75*
G02*
X115783000Y-100570000I0J50000D01*
G01*
X115783000Y-100320000D01*
G75*
G02*
X115833000Y-100270000I50000J0D01*
G01*
G37*
G36*
G01*
X115833000Y-99770000D02*
X116633000Y-99770000D01*
G75*
G02*
X116683000Y-99820000I0J-50000D01*
G01*
X116683000Y-100070000D01*
G75*
G02*
X116633000Y-100120000I-50000J0D01*
G01*
X115833000Y-100120000D01*
G75*
G02*
X115783000Y-100070000I0J50000D01*
G01*
X115783000Y-99820000D01*
G75*
G02*
X115833000Y-99770000I50000J0D01*
G01*
G37*
G36*
G01*
X115833000Y-99270000D02*
X116633000Y-99270000D01*
G75*
G02*
X116683000Y-99320000I0J-50000D01*
G01*
X116683000Y-99570000D01*
G75*
G02*
X116633000Y-99620000I-50000J0D01*
G01*
X115833000Y-99620000D01*
G75*
G02*
X115783000Y-99570000I0J50000D01*
G01*
X115783000Y-99320000D01*
G75*
G02*
X115833000Y-99270000I50000J0D01*
G01*
G37*
G36*
G01*
X115833000Y-98770000D02*
X116633000Y-98770000D01*
G75*
G02*
X116683000Y-98820000I0J-50000D01*
G01*
X116683000Y-99070000D01*
G75*
G02*
X116633000Y-99120000I-50000J0D01*
G01*
X115833000Y-99120000D01*
G75*
G02*
X115783000Y-99070000I0J50000D01*
G01*
X115783000Y-98820000D01*
G75*
G02*
X115833000Y-98770000I50000J0D01*
G01*
G37*
G36*
G01*
X115833000Y-98270000D02*
X116633000Y-98270000D01*
G75*
G02*
X116683000Y-98320000I0J-50000D01*
G01*
X116683000Y-98570000D01*
G75*
G02*
X116633000Y-98620000I-50000J0D01*
G01*
X115833000Y-98620000D01*
G75*
G02*
X115783000Y-98570000I0J50000D01*
G01*
X115783000Y-98320000D01*
G75*
G02*
X115833000Y-98270000I50000J0D01*
G01*
G37*
G36*
G01*
X115833000Y-97770000D02*
X116633000Y-97770000D01*
G75*
G02*
X116683000Y-97820000I0J-50000D01*
G01*
X116683000Y-98070000D01*
G75*
G02*
X116633000Y-98120000I-50000J0D01*
G01*
X115833000Y-98120000D01*
G75*
G02*
X115783000Y-98070000I0J50000D01*
G01*
X115783000Y-97820000D01*
G75*
G02*
X115833000Y-97770000I50000J0D01*
G01*
G37*
G36*
G01*
X115833000Y-97270000D02*
X116633000Y-97270000D01*
G75*
G02*
X116683000Y-97320000I0J-50000D01*
G01*
X116683000Y-97570000D01*
G75*
G02*
X116633000Y-97620000I-50000J0D01*
G01*
X115833000Y-97620000D01*
G75*
G02*
X115783000Y-97570000I0J50000D01*
G01*
X115783000Y-97320000D01*
G75*
G02*
X115833000Y-97270000I50000J0D01*
G01*
G37*
G36*
G01*
X115833000Y-96770000D02*
X116633000Y-96770000D01*
G75*
G02*
X116683000Y-96820000I0J-50000D01*
G01*
X116683000Y-97070000D01*
G75*
G02*
X116633000Y-97120000I-50000J0D01*
G01*
X115833000Y-97120000D01*
G75*
G02*
X115783000Y-97070000I0J50000D01*
G01*
X115783000Y-96820000D01*
G75*
G02*
X115833000Y-96770000I50000J0D01*
G01*
G37*
G36*
G01*
X115833000Y-96270000D02*
X116633000Y-96270000D01*
G75*
G02*
X116683000Y-96320000I0J-50000D01*
G01*
X116683000Y-96570000D01*
G75*
G02*
X116633000Y-96620000I-50000J0D01*
G01*
X115833000Y-96620000D01*
G75*
G02*
X115783000Y-96570000I0J50000D01*
G01*
X115783000Y-96320000D01*
G75*
G02*
X115833000Y-96270000I50000J0D01*
G01*
G37*
G36*
G01*
X115833000Y-95770000D02*
X116633000Y-95770000D01*
G75*
G02*
X116683000Y-95820000I0J-50000D01*
G01*
X116683000Y-96070000D01*
G75*
G02*
X116633000Y-96120000I-50000J0D01*
G01*
X115833000Y-96120000D01*
G75*
G02*
X115783000Y-96070000I0J50000D01*
G01*
X115783000Y-95820000D01*
G75*
G02*
X115833000Y-95770000I50000J0D01*
G01*
G37*
G36*
G01*
X115558000Y-94695000D02*
X115558000Y-95495000D01*
G75*
G02*
X115508000Y-95545000I-50000J0D01*
G01*
X115258000Y-95545000D01*
G75*
G02*
X115208000Y-95495000I0J50000D01*
G01*
X115208000Y-94695000D01*
G75*
G02*
X115258000Y-94645000I50000J0D01*
G01*
X115508000Y-94645000D01*
G75*
G02*
X115558000Y-94695000I0J-50000D01*
G01*
G37*
G36*
G01*
X115058000Y-94695000D02*
X115058000Y-95495000D01*
G75*
G02*
X115008000Y-95545000I-50000J0D01*
G01*
X114758000Y-95545000D01*
G75*
G02*
X114708000Y-95495000I0J50000D01*
G01*
X114708000Y-94695000D01*
G75*
G02*
X114758000Y-94645000I50000J0D01*
G01*
X115008000Y-94645000D01*
G75*
G02*
X115058000Y-94695000I0J-50000D01*
G01*
G37*
G36*
G01*
X114558000Y-94695000D02*
X114558000Y-95495000D01*
G75*
G02*
X114508000Y-95545000I-50000J0D01*
G01*
X114258000Y-95545000D01*
G75*
G02*
X114208000Y-95495000I0J50000D01*
G01*
X114208000Y-94695000D01*
G75*
G02*
X114258000Y-94645000I50000J0D01*
G01*
X114508000Y-94645000D01*
G75*
G02*
X114558000Y-94695000I0J-50000D01*
G01*
G37*
G36*
G01*
X114058000Y-94695000D02*
X114058000Y-95495000D01*
G75*
G02*
X114008000Y-95545000I-50000J0D01*
G01*
X113758000Y-95545000D01*
G75*
G02*
X113708000Y-95495000I0J50000D01*
G01*
X113708000Y-94695000D01*
G75*
G02*
X113758000Y-94645000I50000J0D01*
G01*
X114008000Y-94645000D01*
G75*
G02*
X114058000Y-94695000I0J-50000D01*
G01*
G37*
G36*
G01*
X113558000Y-94695000D02*
X113558000Y-95495000D01*
G75*
G02*
X113508000Y-95545000I-50000J0D01*
G01*
X113258000Y-95545000D01*
G75*
G02*
X113208000Y-95495000I0J50000D01*
G01*
X113208000Y-94695000D01*
G75*
G02*
X113258000Y-94645000I50000J0D01*
G01*
X113508000Y-94645000D01*
G75*
G02*
X113558000Y-94695000I0J-50000D01*
G01*
G37*
G36*
G01*
X113058000Y-94695000D02*
X113058000Y-95495000D01*
G75*
G02*
X113008000Y-95545000I-50000J0D01*
G01*
X112758000Y-95545000D01*
G75*
G02*
X112708000Y-95495000I0J50000D01*
G01*
X112708000Y-94695000D01*
G75*
G02*
X112758000Y-94645000I50000J0D01*
G01*
X113008000Y-94645000D01*
G75*
G02*
X113058000Y-94695000I0J-50000D01*
G01*
G37*
G36*
G01*
X112558000Y-94695000D02*
X112558000Y-95495000D01*
G75*
G02*
X112508000Y-95545000I-50000J0D01*
G01*
X112258000Y-95545000D01*
G75*
G02*
X112208000Y-95495000I0J50000D01*
G01*
X112208000Y-94695000D01*
G75*
G02*
X112258000Y-94645000I50000J0D01*
G01*
X112508000Y-94645000D01*
G75*
G02*
X112558000Y-94695000I0J-50000D01*
G01*
G37*
G36*
G01*
X112058000Y-94695000D02*
X112058000Y-95495000D01*
G75*
G02*
X112008000Y-95545000I-50000J0D01*
G01*
X111758000Y-95545000D01*
G75*
G02*
X111708000Y-95495000I0J50000D01*
G01*
X111708000Y-94695000D01*
G75*
G02*
X111758000Y-94645000I50000J0D01*
G01*
X112008000Y-94645000D01*
G75*
G02*
X112058000Y-94695000I0J-50000D01*
G01*
G37*
G36*
G01*
X111558000Y-94695000D02*
X111558000Y-95495000D01*
G75*
G02*
X111508000Y-95545000I-50000J0D01*
G01*
X111258000Y-95545000D01*
G75*
G02*
X111208000Y-95495000I0J50000D01*
G01*
X111208000Y-94695000D01*
G75*
G02*
X111258000Y-94645000I50000J0D01*
G01*
X111508000Y-94645000D01*
G75*
G02*
X111558000Y-94695000I0J-50000D01*
G01*
G37*
G36*
G01*
X111058000Y-94695000D02*
X111058000Y-95495000D01*
G75*
G02*
X111008000Y-95545000I-50000J0D01*
G01*
X110758000Y-95545000D01*
G75*
G02*
X110708000Y-95495000I0J50000D01*
G01*
X110708000Y-94695000D01*
G75*
G02*
X110758000Y-94645000I50000J0D01*
G01*
X111008000Y-94645000D01*
G75*
G02*
X111058000Y-94695000I0J-50000D01*
G01*
G37*
G36*
G01*
X110558000Y-94695000D02*
X110558000Y-95495000D01*
G75*
G02*
X110508000Y-95545000I-50000J0D01*
G01*
X110258000Y-95545000D01*
G75*
G02*
X110208000Y-95495000I0J50000D01*
G01*
X110208000Y-94695000D01*
G75*
G02*
X110258000Y-94645000I50000J0D01*
G01*
X110508000Y-94645000D01*
G75*
G02*
X110558000Y-94695000I0J-50000D01*
G01*
G37*
G36*
G01*
X110058000Y-94695000D02*
X110058000Y-95495000D01*
G75*
G02*
X110008000Y-95545000I-50000J0D01*
G01*
X109758000Y-95545000D01*
G75*
G02*
X109708000Y-95495000I0J50000D01*
G01*
X109708000Y-94695000D01*
G75*
G02*
X109758000Y-94645000I50000J0D01*
G01*
X110008000Y-94645000D01*
G75*
G02*
X110058000Y-94695000I0J-50000D01*
G01*
G37*
G36*
G01*
X109558000Y-94695000D02*
X109558000Y-95495000D01*
G75*
G02*
X109508000Y-95545000I-50000J0D01*
G01*
X109258000Y-95545000D01*
G75*
G02*
X109208000Y-95495000I0J50000D01*
G01*
X109208000Y-94695000D01*
G75*
G02*
X109258000Y-94645000I50000J0D01*
G01*
X109508000Y-94645000D01*
G75*
G02*
X109558000Y-94695000I0J-50000D01*
G01*
G37*
G36*
G01*
X109058000Y-94695000D02*
X109058000Y-95495000D01*
G75*
G02*
X109008000Y-95545000I-50000J0D01*
G01*
X108758000Y-95545000D01*
G75*
G02*
X108708000Y-95495000I0J50000D01*
G01*
X108708000Y-94695000D01*
G75*
G02*
X108758000Y-94645000I50000J0D01*
G01*
X109008000Y-94645000D01*
G75*
G02*
X109058000Y-94695000I0J-50000D01*
G01*
G37*
G36*
G01*
X108558000Y-94695000D02*
X108558000Y-95495000D01*
G75*
G02*
X108508000Y-95545000I-50000J0D01*
G01*
X108258000Y-95545000D01*
G75*
G02*
X108208000Y-95495000I0J50000D01*
G01*
X108208000Y-94695000D01*
G75*
G02*
X108258000Y-94645000I50000J0D01*
G01*
X108508000Y-94645000D01*
G75*
G02*
X108558000Y-94695000I0J-50000D01*
G01*
G37*
G36*
G01*
X108058000Y-94695000D02*
X108058000Y-95495000D01*
G75*
G02*
X108008000Y-95545000I-50000J0D01*
G01*
X107758000Y-95545000D01*
G75*
G02*
X107708000Y-95495000I0J50000D01*
G01*
X107708000Y-94695000D01*
G75*
G02*
X107758000Y-94645000I50000J0D01*
G01*
X108008000Y-94645000D01*
G75*
G02*
X108058000Y-94695000I0J-50000D01*
G01*
G37*
G36*
G01*
X106633000Y-95770000D02*
X107433000Y-95770000D01*
G75*
G02*
X107483000Y-95820000I0J-50000D01*
G01*
X107483000Y-96070000D01*
G75*
G02*
X107433000Y-96120000I-50000J0D01*
G01*
X106633000Y-96120000D01*
G75*
G02*
X106583000Y-96070000I0J50000D01*
G01*
X106583000Y-95820000D01*
G75*
G02*
X106633000Y-95770000I50000J0D01*
G01*
G37*
G36*
G01*
X106633000Y-96270000D02*
X107433000Y-96270000D01*
G75*
G02*
X107483000Y-96320000I0J-50000D01*
G01*
X107483000Y-96570000D01*
G75*
G02*
X107433000Y-96620000I-50000J0D01*
G01*
X106633000Y-96620000D01*
G75*
G02*
X106583000Y-96570000I0J50000D01*
G01*
X106583000Y-96320000D01*
G75*
G02*
X106633000Y-96270000I50000J0D01*
G01*
G37*
G36*
G01*
X106633000Y-96770000D02*
X107433000Y-96770000D01*
G75*
G02*
X107483000Y-96820000I0J-50000D01*
G01*
X107483000Y-97070000D01*
G75*
G02*
X107433000Y-97120000I-50000J0D01*
G01*
X106633000Y-97120000D01*
G75*
G02*
X106583000Y-97070000I0J50000D01*
G01*
X106583000Y-96820000D01*
G75*
G02*
X106633000Y-96770000I50000J0D01*
G01*
G37*
G36*
G01*
X106633000Y-97270000D02*
X107433000Y-97270000D01*
G75*
G02*
X107483000Y-97320000I0J-50000D01*
G01*
X107483000Y-97570000D01*
G75*
G02*
X107433000Y-97620000I-50000J0D01*
G01*
X106633000Y-97620000D01*
G75*
G02*
X106583000Y-97570000I0J50000D01*
G01*
X106583000Y-97320000D01*
G75*
G02*
X106633000Y-97270000I50000J0D01*
G01*
G37*
G36*
G01*
X106633000Y-97770000D02*
X107433000Y-97770000D01*
G75*
G02*
X107483000Y-97820000I0J-50000D01*
G01*
X107483000Y-98070000D01*
G75*
G02*
X107433000Y-98120000I-50000J0D01*
G01*
X106633000Y-98120000D01*
G75*
G02*
X106583000Y-98070000I0J50000D01*
G01*
X106583000Y-97820000D01*
G75*
G02*
X106633000Y-97770000I50000J0D01*
G01*
G37*
G36*
G01*
X106633000Y-98270000D02*
X107433000Y-98270000D01*
G75*
G02*
X107483000Y-98320000I0J-50000D01*
G01*
X107483000Y-98570000D01*
G75*
G02*
X107433000Y-98620000I-50000J0D01*
G01*
X106633000Y-98620000D01*
G75*
G02*
X106583000Y-98570000I0J50000D01*
G01*
X106583000Y-98320000D01*
G75*
G02*
X106633000Y-98270000I50000J0D01*
G01*
G37*
G36*
G01*
X106633000Y-98770000D02*
X107433000Y-98770000D01*
G75*
G02*
X107483000Y-98820000I0J-50000D01*
G01*
X107483000Y-99070000D01*
G75*
G02*
X107433000Y-99120000I-50000J0D01*
G01*
X106633000Y-99120000D01*
G75*
G02*
X106583000Y-99070000I0J50000D01*
G01*
X106583000Y-98820000D01*
G75*
G02*
X106633000Y-98770000I50000J0D01*
G01*
G37*
G36*
G01*
X106633000Y-99270000D02*
X107433000Y-99270000D01*
G75*
G02*
X107483000Y-99320000I0J-50000D01*
G01*
X107483000Y-99570000D01*
G75*
G02*
X107433000Y-99620000I-50000J0D01*
G01*
X106633000Y-99620000D01*
G75*
G02*
X106583000Y-99570000I0J50000D01*
G01*
X106583000Y-99320000D01*
G75*
G02*
X106633000Y-99270000I50000J0D01*
G01*
G37*
G36*
G01*
X106633000Y-99770000D02*
X107433000Y-99770000D01*
G75*
G02*
X107483000Y-99820000I0J-50000D01*
G01*
X107483000Y-100070000D01*
G75*
G02*
X107433000Y-100120000I-50000J0D01*
G01*
X106633000Y-100120000D01*
G75*
G02*
X106583000Y-100070000I0J50000D01*
G01*
X106583000Y-99820000D01*
G75*
G02*
X106633000Y-99770000I50000J0D01*
G01*
G37*
G36*
G01*
X106633000Y-100270000D02*
X107433000Y-100270000D01*
G75*
G02*
X107483000Y-100320000I0J-50000D01*
G01*
X107483000Y-100570000D01*
G75*
G02*
X107433000Y-100620000I-50000J0D01*
G01*
X106633000Y-100620000D01*
G75*
G02*
X106583000Y-100570000I0J50000D01*
G01*
X106583000Y-100320000D01*
G75*
G02*
X106633000Y-100270000I50000J0D01*
G01*
G37*
G36*
G01*
X106633000Y-100770000D02*
X107433000Y-100770000D01*
G75*
G02*
X107483000Y-100820000I0J-50000D01*
G01*
X107483000Y-101070000D01*
G75*
G02*
X107433000Y-101120000I-50000J0D01*
G01*
X106633000Y-101120000D01*
G75*
G02*
X106583000Y-101070000I0J50000D01*
G01*
X106583000Y-100820000D01*
G75*
G02*
X106633000Y-100770000I50000J0D01*
G01*
G37*
G36*
G01*
X106633000Y-101270000D02*
X107433000Y-101270000D01*
G75*
G02*
X107483000Y-101320000I0J-50000D01*
G01*
X107483000Y-101570000D01*
G75*
G02*
X107433000Y-101620000I-50000J0D01*
G01*
X106633000Y-101620000D01*
G75*
G02*
X106583000Y-101570000I0J50000D01*
G01*
X106583000Y-101320000D01*
G75*
G02*
X106633000Y-101270000I50000J0D01*
G01*
G37*
G36*
G01*
X106633000Y-101770000D02*
X107433000Y-101770000D01*
G75*
G02*
X107483000Y-101820000I0J-50000D01*
G01*
X107483000Y-102070000D01*
G75*
G02*
X107433000Y-102120000I-50000J0D01*
G01*
X106633000Y-102120000D01*
G75*
G02*
X106583000Y-102070000I0J50000D01*
G01*
X106583000Y-101820000D01*
G75*
G02*
X106633000Y-101770000I50000J0D01*
G01*
G37*
G36*
G01*
X106633000Y-102270000D02*
X107433000Y-102270000D01*
G75*
G02*
X107483000Y-102320000I0J-50000D01*
G01*
X107483000Y-102570000D01*
G75*
G02*
X107433000Y-102620000I-50000J0D01*
G01*
X106633000Y-102620000D01*
G75*
G02*
X106583000Y-102570000I0J50000D01*
G01*
X106583000Y-102320000D01*
G75*
G02*
X106633000Y-102270000I50000J0D01*
G01*
G37*
G36*
G01*
X106633000Y-102770000D02*
X107433000Y-102770000D01*
G75*
G02*
X107483000Y-102820000I0J-50000D01*
G01*
X107483000Y-103070000D01*
G75*
G02*
X107433000Y-103120000I-50000J0D01*
G01*
X106633000Y-103120000D01*
G75*
G02*
X106583000Y-103070000I0J50000D01*
G01*
X106583000Y-102820000D01*
G75*
G02*
X106633000Y-102770000I50000J0D01*
G01*
G37*
G36*
G01*
X106633000Y-103270000D02*
X107433000Y-103270000D01*
G75*
G02*
X107483000Y-103320000I0J-50000D01*
G01*
X107483000Y-103570000D01*
G75*
G02*
X107433000Y-103620000I-50000J0D01*
G01*
X106633000Y-103620000D01*
G75*
G02*
X106583000Y-103570000I0J50000D01*
G01*
X106583000Y-103320000D01*
G75*
G02*
X106633000Y-103270000I50000J0D01*
G01*
G37*
G36*
G01*
X108058000Y-103895000D02*
X108058000Y-104695000D01*
G75*
G02*
X108008000Y-104745000I-50000J0D01*
G01*
X107758000Y-104745000D01*
G75*
G02*
X107708000Y-104695000I0J50000D01*
G01*
X107708000Y-103895000D01*
G75*
G02*
X107758000Y-103845000I50000J0D01*
G01*
X108008000Y-103845000D01*
G75*
G02*
X108058000Y-103895000I0J-50000D01*
G01*
G37*
G36*
G01*
X108558000Y-103895000D02*
X108558000Y-104695000D01*
G75*
G02*
X108508000Y-104745000I-50000J0D01*
G01*
X108258000Y-104745000D01*
G75*
G02*
X108208000Y-104695000I0J50000D01*
G01*
X108208000Y-103895000D01*
G75*
G02*
X108258000Y-103845000I50000J0D01*
G01*
X108508000Y-103845000D01*
G75*
G02*
X108558000Y-103895000I0J-50000D01*
G01*
G37*
G36*
G01*
X109058000Y-103895000D02*
X109058000Y-104695000D01*
G75*
G02*
X109008000Y-104745000I-50000J0D01*
G01*
X108758000Y-104745000D01*
G75*
G02*
X108708000Y-104695000I0J50000D01*
G01*
X108708000Y-103895000D01*
G75*
G02*
X108758000Y-103845000I50000J0D01*
G01*
X109008000Y-103845000D01*
G75*
G02*
X109058000Y-103895000I0J-50000D01*
G01*
G37*
G36*
G01*
X109558000Y-103895000D02*
X109558000Y-104695000D01*
G75*
G02*
X109508000Y-104745000I-50000J0D01*
G01*
X109258000Y-104745000D01*
G75*
G02*
X109208000Y-104695000I0J50000D01*
G01*
X109208000Y-103895000D01*
G75*
G02*
X109258000Y-103845000I50000J0D01*
G01*
X109508000Y-103845000D01*
G75*
G02*
X109558000Y-103895000I0J-50000D01*
G01*
G37*
G36*
G01*
X110058000Y-103895000D02*
X110058000Y-104695000D01*
G75*
G02*
X110008000Y-104745000I-50000J0D01*
G01*
X109758000Y-104745000D01*
G75*
G02*
X109708000Y-104695000I0J50000D01*
G01*
X109708000Y-103895000D01*
G75*
G02*
X109758000Y-103845000I50000J0D01*
G01*
X110008000Y-103845000D01*
G75*
G02*
X110058000Y-103895000I0J-50000D01*
G01*
G37*
G36*
G01*
X110558000Y-103895000D02*
X110558000Y-104695000D01*
G75*
G02*
X110508000Y-104745000I-50000J0D01*
G01*
X110258000Y-104745000D01*
G75*
G02*
X110208000Y-104695000I0J50000D01*
G01*
X110208000Y-103895000D01*
G75*
G02*
X110258000Y-103845000I50000J0D01*
G01*
X110508000Y-103845000D01*
G75*
G02*
X110558000Y-103895000I0J-50000D01*
G01*
G37*
G36*
G01*
X111058000Y-103895000D02*
X111058000Y-104695000D01*
G75*
G02*
X111008000Y-104745000I-50000J0D01*
G01*
X110758000Y-104745000D01*
G75*
G02*
X110708000Y-104695000I0J50000D01*
G01*
X110708000Y-103895000D01*
G75*
G02*
X110758000Y-103845000I50000J0D01*
G01*
X111008000Y-103845000D01*
G75*
G02*
X111058000Y-103895000I0J-50000D01*
G01*
G37*
G36*
G01*
X111558000Y-103895000D02*
X111558000Y-104695000D01*
G75*
G02*
X111508000Y-104745000I-50000J0D01*
G01*
X111258000Y-104745000D01*
G75*
G02*
X111208000Y-104695000I0J50000D01*
G01*
X111208000Y-103895000D01*
G75*
G02*
X111258000Y-103845000I50000J0D01*
G01*
X111508000Y-103845000D01*
G75*
G02*
X111558000Y-103895000I0J-50000D01*
G01*
G37*
G36*
G01*
X112058000Y-103895000D02*
X112058000Y-104695000D01*
G75*
G02*
X112008000Y-104745000I-50000J0D01*
G01*
X111758000Y-104745000D01*
G75*
G02*
X111708000Y-104695000I0J50000D01*
G01*
X111708000Y-103895000D01*
G75*
G02*
X111758000Y-103845000I50000J0D01*
G01*
X112008000Y-103845000D01*
G75*
G02*
X112058000Y-103895000I0J-50000D01*
G01*
G37*
G36*
G01*
X112558000Y-103895000D02*
X112558000Y-104695000D01*
G75*
G02*
X112508000Y-104745000I-50000J0D01*
G01*
X112258000Y-104745000D01*
G75*
G02*
X112208000Y-104695000I0J50000D01*
G01*
X112208000Y-103895000D01*
G75*
G02*
X112258000Y-103845000I50000J0D01*
G01*
X112508000Y-103845000D01*
G75*
G02*
X112558000Y-103895000I0J-50000D01*
G01*
G37*
G36*
G01*
X113058000Y-103895000D02*
X113058000Y-104695000D01*
G75*
G02*
X113008000Y-104745000I-50000J0D01*
G01*
X112758000Y-104745000D01*
G75*
G02*
X112708000Y-104695000I0J50000D01*
G01*
X112708000Y-103895000D01*
G75*
G02*
X112758000Y-103845000I50000J0D01*
G01*
X113008000Y-103845000D01*
G75*
G02*
X113058000Y-103895000I0J-50000D01*
G01*
G37*
G36*
G01*
X113558000Y-103895000D02*
X113558000Y-104695000D01*
G75*
G02*
X113508000Y-104745000I-50000J0D01*
G01*
X113258000Y-104745000D01*
G75*
G02*
X113208000Y-104695000I0J50000D01*
G01*
X113208000Y-103895000D01*
G75*
G02*
X113258000Y-103845000I50000J0D01*
G01*
X113508000Y-103845000D01*
G75*
G02*
X113558000Y-103895000I0J-50000D01*
G01*
G37*
G36*
G01*
X114058000Y-103895000D02*
X114058000Y-104695000D01*
G75*
G02*
X114008000Y-104745000I-50000J0D01*
G01*
X113758000Y-104745000D01*
G75*
G02*
X113708000Y-104695000I0J50000D01*
G01*
X113708000Y-103895000D01*
G75*
G02*
X113758000Y-103845000I50000J0D01*
G01*
X114008000Y-103845000D01*
G75*
G02*
X114058000Y-103895000I0J-50000D01*
G01*
G37*
G36*
G01*
X114558000Y-103895000D02*
X114558000Y-104695000D01*
G75*
G02*
X114508000Y-104745000I-50000J0D01*
G01*
X114258000Y-104745000D01*
G75*
G02*
X114208000Y-104695000I0J50000D01*
G01*
X114208000Y-103895000D01*
G75*
G02*
X114258000Y-103845000I50000J0D01*
G01*
X114508000Y-103845000D01*
G75*
G02*
X114558000Y-103895000I0J-50000D01*
G01*
G37*
G36*
G01*
X115058000Y-103895000D02*
X115058000Y-104695000D01*
G75*
G02*
X115008000Y-104745000I-50000J0D01*
G01*
X114758000Y-104745000D01*
G75*
G02*
X114708000Y-104695000I0J50000D01*
G01*
X114708000Y-103895000D01*
G75*
G02*
X114758000Y-103845000I50000J0D01*
G01*
X115008000Y-103845000D01*
G75*
G02*
X115058000Y-103895000I0J-50000D01*
G01*
G37*
G36*
G01*
X115558000Y-103895000D02*
X115558000Y-104695000D01*
G75*
G02*
X115508000Y-104745000I-50000J0D01*
G01*
X115258000Y-104745000D01*
G75*
G02*
X115208000Y-104695000I0J50000D01*
G01*
X115208000Y-103895000D01*
G75*
G02*
X115258000Y-103845000I50000J0D01*
G01*
X115508000Y-103845000D01*
G75*
G02*
X115558000Y-103895000I0J-50000D01*
G01*
G37*
G36*
G01*
X115183000Y-96195000D02*
X115183000Y-103195000D01*
G75*
G02*
X115133000Y-103245000I-50000J0D01*
G01*
X108133000Y-103245000D01*
G75*
G02*
X108083000Y-103195000I0J50000D01*
G01*
X108083000Y-96195000D01*
G75*
G02*
X108133000Y-96145000I50000J0D01*
G01*
X115133000Y-96145000D01*
G75*
G02*
X115183000Y-96195000I0J-50000D01*
G01*
G37*
G36*
G01*
X114683000Y-100195000D02*
X114683000Y-102695000D01*
G75*
G02*
X114633000Y-102745000I-50000J0D01*
G01*
X112133000Y-102745000D01*
G75*
G02*
X112083000Y-102695000I0J50000D01*
G01*
X112083000Y-100195000D01*
G75*
G02*
X112133000Y-100145000I50000J0D01*
G01*
X114633000Y-100145000D01*
G75*
G02*
X114683000Y-100195000I0J-50000D01*
G01*
G37*
X111633000Y-99695000D03*
%TD*%
D15*
%TO.C,CN301*%
X143430000Y-122730000D03*
X143430000Y-125270000D03*
X140890000Y-122730000D03*
X140890000Y-125270000D03*
X138350000Y-122730000D03*
X138350000Y-125270000D03*
X135810000Y-122730000D03*
X135810000Y-125270000D03*
X133270000Y-122730000D03*
X133270000Y-125270000D03*
X130730000Y-122730000D03*
X130730000Y-125270000D03*
X128190000Y-122730000D03*
X128190000Y-125270000D03*
X125650000Y-122730000D03*
X125650000Y-125270000D03*
X123110000Y-122730000D03*
X123110000Y-125270000D03*
X120570000Y-122730000D03*
X120570000Y-125270000D03*
%TD*%
%TO.C,IC201*%
G36*
G01*
X153650063Y-116100063D02*
X151650063Y-116100063D01*
G75*
G02*
X151600063Y-116050063I0J50000D01*
G01*
X151600063Y-114550063D01*
G75*
G02*
X151650063Y-114500063I50000J0D01*
G01*
X153650063Y-114500063D01*
G75*
G02*
X153700063Y-114550063I0J-50000D01*
G01*
X153700063Y-116050063D01*
G75*
G02*
X153650063Y-116100063I-50000J0D01*
G01*
G37*
G36*
G01*
X153650063Y-113800063D02*
X151650063Y-113800063D01*
G75*
G02*
X151600063Y-113750063I0J50000D01*
G01*
X151600063Y-112250063D01*
G75*
G02*
X151650063Y-112200063I50000J0D01*
G01*
X153650063Y-112200063D01*
G75*
G02*
X153700063Y-112250063I0J-50000D01*
G01*
X153700063Y-113750063D01*
G75*
G02*
X153650063Y-113800063I-50000J0D01*
G01*
G37*
G36*
G01*
X153650063Y-111500062D02*
X151650063Y-111500062D01*
G75*
G02*
X151600063Y-111450062I0J50000D01*
G01*
X151600063Y-109950062D01*
G75*
G02*
X151650063Y-109900062I50000J0D01*
G01*
X153650063Y-109900062D01*
G75*
G02*
X153700063Y-109950062I0J-50000D01*
G01*
X153700063Y-111450062D01*
G75*
G02*
X153650063Y-111500062I-50000J0D01*
G01*
G37*
G36*
G01*
X147350062Y-114950063D02*
X145350062Y-114950063D01*
G75*
G02*
X145300062Y-114900063I0J50000D01*
G01*
X145300062Y-111100063D01*
G75*
G02*
X145350062Y-111050063I50000J0D01*
G01*
X147350062Y-111050063D01*
G75*
G02*
X147400062Y-111100063I0J-50000D01*
G01*
X147400062Y-114900063D01*
G75*
G02*
X147350062Y-114950063I-50000J0D01*
G01*
G37*
%TD*%
%TO.C,IC202*%
G36*
G01*
X107899937Y-124150063D02*
X107899937Y-122150063D01*
G75*
G02*
X107949937Y-122100063I50000J0D01*
G01*
X109449937Y-122100063D01*
G75*
G02*
X109499937Y-122150063I0J-50000D01*
G01*
X109499937Y-124150063D01*
G75*
G02*
X109449937Y-124200063I-50000J0D01*
G01*
X107949937Y-124200063D01*
G75*
G02*
X107899937Y-124150063I0J50000D01*
G01*
G37*
G36*
G01*
X110199937Y-124150063D02*
X110199937Y-122150063D01*
G75*
G02*
X110249937Y-122100063I50000J0D01*
G01*
X111749937Y-122100063D01*
G75*
G02*
X111799937Y-122150063I0J-50000D01*
G01*
X111799937Y-124150063D01*
G75*
G02*
X111749937Y-124200063I-50000J0D01*
G01*
X110249937Y-124200063D01*
G75*
G02*
X110199937Y-124150063I0J50000D01*
G01*
G37*
G36*
G01*
X112499938Y-124150063D02*
X112499938Y-122150063D01*
G75*
G02*
X112549938Y-122100063I50000J0D01*
G01*
X114049938Y-122100063D01*
G75*
G02*
X114099938Y-122150063I0J-50000D01*
G01*
X114099938Y-124150063D01*
G75*
G02*
X114049938Y-124200063I-50000J0D01*
G01*
X112549938Y-124200063D01*
G75*
G02*
X112499938Y-124150063I0J50000D01*
G01*
G37*
G36*
G01*
X109049937Y-117850062D02*
X109049937Y-115850062D01*
G75*
G02*
X109099937Y-115800062I50000J0D01*
G01*
X112899937Y-115800062D01*
G75*
G02*
X112949937Y-115850062I0J-50000D01*
G01*
X112949937Y-117850062D01*
G75*
G02*
X112899937Y-117900062I-50000J0D01*
G01*
X109099937Y-117900062D01*
G75*
G02*
X109049937Y-117850062I0J50000D01*
G01*
G37*
%TD*%
%TO.C,IC203*%
G36*
G01*
X113100063Y-79849937D02*
X113100063Y-81849937D01*
G75*
G02*
X113050063Y-81899937I-50000J0D01*
G01*
X111550063Y-81899937D01*
G75*
G02*
X111500063Y-81849937I0J50000D01*
G01*
X111500063Y-79849937D01*
G75*
G02*
X111550063Y-79799937I50000J0D01*
G01*
X113050063Y-79799937D01*
G75*
G02*
X113100063Y-79849937I0J-50000D01*
G01*
G37*
G36*
G01*
X110800063Y-79849937D02*
X110800063Y-81849937D01*
G75*
G02*
X110750063Y-81899937I-50000J0D01*
G01*
X109250063Y-81899937D01*
G75*
G02*
X109200063Y-81849937I0J50000D01*
G01*
X109200063Y-79849937D01*
G75*
G02*
X109250063Y-79799937I50000J0D01*
G01*
X110750063Y-79799937D01*
G75*
G02*
X110800063Y-79849937I0J-50000D01*
G01*
G37*
G36*
G01*
X108500062Y-79849937D02*
X108500062Y-81849937D01*
G75*
G02*
X108450062Y-81899937I-50000J0D01*
G01*
X106950062Y-81899937D01*
G75*
G02*
X106900062Y-81849937I0J50000D01*
G01*
X106900062Y-79849937D01*
G75*
G02*
X106950062Y-79799937I50000J0D01*
G01*
X108450062Y-79799937D01*
G75*
G02*
X108500062Y-79849937I0J-50000D01*
G01*
G37*
G36*
G01*
X111950063Y-86149938D02*
X111950063Y-88149938D01*
G75*
G02*
X111900063Y-88199938I-50000J0D01*
G01*
X108100063Y-88199938D01*
G75*
G02*
X108050063Y-88149938I0J50000D01*
G01*
X108050063Y-86149938D01*
G75*
G02*
X108100063Y-86099938I50000J0D01*
G01*
X111900063Y-86099938D01*
G75*
G02*
X111950063Y-86149938I0J-50000D01*
G01*
G37*
%TD*%
%TO.C,IC204*%
G36*
G01*
X154350063Y-84900063D02*
X152350063Y-84900063D01*
G75*
G02*
X152300063Y-84850063I0J50000D01*
G01*
X152300063Y-83350063D01*
G75*
G02*
X152350063Y-83300063I50000J0D01*
G01*
X154350063Y-83300063D01*
G75*
G02*
X154400063Y-83350063I0J-50000D01*
G01*
X154400063Y-84850063D01*
G75*
G02*
X154350063Y-84900063I-50000J0D01*
G01*
G37*
G36*
G01*
X154350063Y-82600063D02*
X152350063Y-82600063D01*
G75*
G02*
X152300063Y-82550063I0J50000D01*
G01*
X152300063Y-81050063D01*
G75*
G02*
X152350063Y-81000063I50000J0D01*
G01*
X154350063Y-81000063D01*
G75*
G02*
X154400063Y-81050063I0J-50000D01*
G01*
X154400063Y-82550063D01*
G75*
G02*
X154350063Y-82600063I-50000J0D01*
G01*
G37*
G36*
G01*
X154350063Y-80300062D02*
X152350063Y-80300062D01*
G75*
G02*
X152300063Y-80250062I0J50000D01*
G01*
X152300063Y-78750062D01*
G75*
G02*
X152350063Y-78700062I50000J0D01*
G01*
X154350063Y-78700062D01*
G75*
G02*
X154400063Y-78750062I0J-50000D01*
G01*
X154400063Y-80250062D01*
G75*
G02*
X154350063Y-80300062I-50000J0D01*
G01*
G37*
G36*
G01*
X148050062Y-83750063D02*
X146050062Y-83750063D01*
G75*
G02*
X146000062Y-83700063I0J50000D01*
G01*
X146000062Y-79900063D01*
G75*
G02*
X146050062Y-79850063I50000J0D01*
G01*
X148050062Y-79850063D01*
G75*
G02*
X148100062Y-79900063I0J-50000D01*
G01*
X148100062Y-83700063D01*
G75*
G02*
X148050062Y-83750063I-50000J0D01*
G01*
G37*
%TD*%
D16*
%TO.C,X401*%
X94500000Y-83500000D03*
D17*
X97049900Y-86049900D03*
X91950100Y-86049900D03*
X91950100Y-80950100D03*
X97049900Y-80950100D03*
%TD*%
D16*
%TO.C,X402*%
X94400000Y-115700000D03*
D17*
X96949900Y-118249900D03*
X91850100Y-118249900D03*
X91850100Y-113150100D03*
X96949900Y-113150100D03*
%TD*%
D18*
%TO.C,MH1*%
X93500000Y-74500000D03*
%TD*%
%TO.C,MH2*%
X93500000Y-123500000D03*
%TD*%
%TO.C,MH3*%
X151500000Y-74500000D03*
%TD*%
%TO.C,MH4*%
X151500000Y-123500000D03*
%TD*%
D15*
%TO.C,CN302*%
X98370000Y-75770000D03*
X98370000Y-73230000D03*
X100910000Y-75770000D03*
X100910000Y-73230000D03*
X103450000Y-75770000D03*
X103450000Y-73230000D03*
X105990000Y-75770000D03*
X105990000Y-73230000D03*
X108530000Y-75770000D03*
X108530000Y-73230000D03*
X111070000Y-75770000D03*
X111070000Y-73230000D03*
X113610000Y-75770000D03*
X113610000Y-73230000D03*
X116150000Y-75770000D03*
X116150000Y-73230000D03*
X118690000Y-75770000D03*
X118690000Y-73230000D03*
X121230000Y-75770000D03*
X121230000Y-73230000D03*
X123770000Y-75770000D03*
X123770000Y-73230000D03*
X126310000Y-75770000D03*
X126310000Y-73230000D03*
X128850000Y-75770000D03*
X128850000Y-73230000D03*
X131390000Y-75770000D03*
X131390000Y-73230000D03*
X133930000Y-75770000D03*
X133930000Y-73230000D03*
X136470000Y-75770000D03*
X136470000Y-73230000D03*
X139010000Y-75770000D03*
X139010000Y-73230000D03*
X141550000Y-75770000D03*
X141550000Y-73230000D03*
X144090000Y-75770000D03*
X144090000Y-73230000D03*
X146630000Y-75770000D03*
X146630000Y-73230000D03*
%TD*%
M02*
