%TF.GenerationSoftware,KiCad,Pcbnew,(5.1.8)-1*%
%TF.CreationDate,2021-04-21T20:08:09+02:00*%
%TF.ProjectId,Radioberry,52616469-6f62-4657-9272-792e6b696361,rev?*%
%TF.SameCoordinates,Original*%
%TF.FileFunction,Legend,Bot*%
%TF.FilePolarity,Positive*%
%FSLAX46Y46*%
G04 Gerber Fmt 4.6, Leading zero omitted, Abs format (unit mm)*
G04 Created by KiCad (PCBNEW (5.1.8)-1) date 2021-04-21 20:08:09*
%MOMM*%
%LPD*%
G01*
G04 APERTURE LIST*
%ADD10C,0.300000*%
%ADD11C,0.120000*%
%ADD12C,0.100000*%
%ADD13C,0.152400*%
%ADD14C,0.088900*%
%ADD15C,0.127000*%
G04 APERTURE END LIST*
D10*
X137208720Y-79378011D02*
X137708720Y-78663725D01*
X138065862Y-79378011D02*
X138065862Y-77878011D01*
X137494434Y-77878011D01*
X137351577Y-77949440D01*
X137280148Y-78020868D01*
X137208720Y-78163725D01*
X137208720Y-78378011D01*
X137280148Y-78520868D01*
X137351577Y-78592297D01*
X137494434Y-78663725D01*
X138065862Y-78663725D01*
X135923005Y-79378011D02*
X135923005Y-78592297D01*
X135994434Y-78449440D01*
X136137291Y-78378011D01*
X136423005Y-78378011D01*
X136565862Y-78449440D01*
X135923005Y-79306582D02*
X136065862Y-79378011D01*
X136423005Y-79378011D01*
X136565862Y-79306582D01*
X136637291Y-79163725D01*
X136637291Y-79020868D01*
X136565862Y-78878011D01*
X136423005Y-78806582D01*
X136065862Y-78806582D01*
X135923005Y-78735154D01*
X134565862Y-79378011D02*
X134565862Y-77878011D01*
X134565862Y-79306582D02*
X134708720Y-79378011D01*
X134994434Y-79378011D01*
X135137291Y-79306582D01*
X135208720Y-79235154D01*
X135280148Y-79092297D01*
X135280148Y-78663725D01*
X135208720Y-78520868D01*
X135137291Y-78449440D01*
X134994434Y-78378011D01*
X134708720Y-78378011D01*
X134565862Y-78449440D01*
X133851577Y-79378011D02*
X133851577Y-78378011D01*
X133851577Y-77878011D02*
X133923005Y-77949440D01*
X133851577Y-78020868D01*
X133780148Y-77949440D01*
X133851577Y-77878011D01*
X133851577Y-78020868D01*
X132923005Y-79378011D02*
X133065862Y-79306582D01*
X133137291Y-79235154D01*
X133208720Y-79092297D01*
X133208720Y-78663725D01*
X133137291Y-78520868D01*
X133065862Y-78449440D01*
X132923005Y-78378011D01*
X132708720Y-78378011D01*
X132565862Y-78449440D01*
X132494434Y-78520868D01*
X132423005Y-78663725D01*
X132423005Y-79092297D01*
X132494434Y-79235154D01*
X132565862Y-79306582D01*
X132708720Y-79378011D01*
X132923005Y-79378011D01*
X131780148Y-79378011D02*
X131780148Y-77878011D01*
X131780148Y-78449440D02*
X131637291Y-78378011D01*
X131351577Y-78378011D01*
X131208720Y-78449440D01*
X131137291Y-78520868D01*
X131065862Y-78663725D01*
X131065862Y-79092297D01*
X131137291Y-79235154D01*
X131208720Y-79306582D01*
X131351577Y-79378011D01*
X131637291Y-79378011D01*
X131780148Y-79306582D01*
X129851577Y-79306582D02*
X129994434Y-79378011D01*
X130280148Y-79378011D01*
X130423005Y-79306582D01*
X130494434Y-79163725D01*
X130494434Y-78592297D01*
X130423005Y-78449440D01*
X130280148Y-78378011D01*
X129994434Y-78378011D01*
X129851577Y-78449440D01*
X129780148Y-78592297D01*
X129780148Y-78735154D01*
X130494434Y-78878011D01*
X129137291Y-79378011D02*
X129137291Y-78378011D01*
X129137291Y-78663725D02*
X129065862Y-78520868D01*
X128994434Y-78449440D01*
X128851577Y-78378011D01*
X128708720Y-78378011D01*
X128208720Y-79378011D02*
X128208720Y-78378011D01*
X128208720Y-78663725D02*
X128137291Y-78520868D01*
X128065862Y-78449440D01*
X127923005Y-78378011D01*
X127780148Y-78378011D01*
X127423005Y-78378011D02*
X127065862Y-79378011D01*
X126708720Y-78378011D02*
X127065862Y-79378011D01*
X127208720Y-79735154D01*
X127280148Y-79806582D01*
X127423005Y-79878011D01*
X125208720Y-77878011D02*
X124708720Y-79378011D01*
X124208720Y-77878011D01*
X123780148Y-78020868D02*
X123708720Y-77949440D01*
X123565862Y-77878011D01*
X123208720Y-77878011D01*
X123065862Y-77949440D01*
X122994434Y-78020868D01*
X122923005Y-78163725D01*
X122923005Y-78306582D01*
X122994434Y-78520868D01*
X123851577Y-79378011D01*
X122923005Y-79378011D01*
X122280148Y-79235154D02*
X122208720Y-79306582D01*
X122280148Y-79378011D01*
X122351577Y-79306582D01*
X122280148Y-79235154D01*
X122280148Y-79378011D01*
X121280148Y-77878011D02*
X121137291Y-77878011D01*
X120994434Y-77949440D01*
X120923005Y-78020868D01*
X120851577Y-78163725D01*
X120780148Y-78449440D01*
X120780148Y-78806582D01*
X120851577Y-79092297D01*
X120923005Y-79235154D01*
X120994434Y-79306582D01*
X121137291Y-79378011D01*
X121280148Y-79378011D01*
X121423005Y-79306582D01*
X121494434Y-79235154D01*
X121565862Y-79092297D01*
X121637291Y-78806582D01*
X121637291Y-78449440D01*
X121565862Y-78163725D01*
X121494434Y-78020868D01*
X121423005Y-77949440D01*
X121280148Y-77878011D01*
X132387291Y-81142297D02*
X132173005Y-81213725D01*
X132101577Y-81285154D01*
X132030148Y-81428011D01*
X132030148Y-81642297D01*
X132101577Y-81785154D01*
X132173005Y-81856582D01*
X132315862Y-81928011D01*
X132887291Y-81928011D01*
X132887291Y-80428011D01*
X132387291Y-80428011D01*
X132244434Y-80499440D01*
X132173005Y-80570868D01*
X132101577Y-80713725D01*
X132101577Y-80856582D01*
X132173005Y-80999440D01*
X132244434Y-81070868D01*
X132387291Y-81142297D01*
X132887291Y-81142297D01*
X130815862Y-81856582D02*
X130958720Y-81928011D01*
X131244434Y-81928011D01*
X131387291Y-81856582D01*
X131458720Y-81713725D01*
X131458720Y-81142297D01*
X131387291Y-80999440D01*
X131244434Y-80928011D01*
X130958720Y-80928011D01*
X130815862Y-80999440D01*
X130744434Y-81142297D01*
X130744434Y-81285154D01*
X131458720Y-81428011D01*
X130315862Y-80928011D02*
X129744434Y-80928011D01*
X130101577Y-80428011D02*
X130101577Y-81713725D01*
X130030148Y-81856582D01*
X129887291Y-81928011D01*
X129744434Y-81928011D01*
X128601577Y-81928011D02*
X128601577Y-81142297D01*
X128673005Y-80999440D01*
X128815862Y-80928011D01*
X129101577Y-80928011D01*
X129244434Y-80999440D01*
X128601577Y-81856582D02*
X128744434Y-81928011D01*
X129101577Y-81928011D01*
X129244434Y-81856582D01*
X129315862Y-81713725D01*
X129315862Y-81570868D01*
X129244434Y-81428011D01*
X129101577Y-81356582D01*
X128744434Y-81356582D01*
X128601577Y-81285154D01*
X126030148Y-80428011D02*
X126744434Y-80428011D01*
X126815862Y-81142297D01*
X126744434Y-81070868D01*
X126601577Y-80999440D01*
X126244434Y-80999440D01*
X126101577Y-81070868D01*
X126030148Y-81142297D01*
X125958720Y-81285154D01*
X125958720Y-81642297D01*
X126030148Y-81785154D01*
X126101577Y-81856582D01*
X126244434Y-81928011D01*
X126601577Y-81928011D01*
X126744434Y-81856582D01*
X126815862Y-81785154D01*
D11*
%TO.C,FB403*%
X104032500Y-96265276D02*
X104032500Y-96774724D01*
X102987500Y-96265276D02*
X102987500Y-96774724D01*
%TO.C,FB208*%
X146254724Y-88972500D02*
X145745276Y-88972500D01*
X146254724Y-87927500D02*
X145745276Y-87927500D01*
%TO.C,FB207*%
X122986076Y-109127500D02*
X123495524Y-109127500D01*
X122986076Y-110172500D02*
X123495524Y-110172500D01*
%TO.C,FB206*%
X146354724Y-110172500D02*
X145845276Y-110172500D01*
X146354724Y-109127500D02*
X145845276Y-109127500D01*
%TO.C,FB205*%
X128762500Y-91325276D02*
X128762500Y-91834724D01*
X127717500Y-91325276D02*
X127717500Y-91834724D01*
%TO.C,FB204*%
X149834724Y-90812500D02*
X149325276Y-90812500D01*
X149834724Y-89767500D02*
X149325276Y-89767500D01*
%TO.C,FB203*%
X119515276Y-105177500D02*
X120024724Y-105177500D01*
X119515276Y-106222500D02*
X120024724Y-106222500D01*
%TO.C,FB202*%
X145895276Y-105987500D02*
X146404724Y-105987500D01*
X145895276Y-107032500D02*
X146404724Y-107032500D01*
%TO.C,FB201*%
X119575276Y-91567500D02*
X120084724Y-91567500D01*
X119575276Y-92612500D02*
X120084724Y-92612500D01*
%TO.C,C256*%
X137593800Y-85527933D02*
X137593800Y-85820467D01*
X136573800Y-85527933D02*
X136573800Y-85820467D01*
%TO.C,R308*%
X129477500Y-119754724D02*
X129477500Y-119245276D01*
X130522500Y-119754724D02*
X130522500Y-119245276D01*
%TO.C,R307*%
X127477500Y-119754724D02*
X127477500Y-119245276D01*
X128522500Y-119754724D02*
X128522500Y-119245276D01*
%TO.C,R306*%
X133727500Y-119754724D02*
X133727500Y-119245276D01*
X134772500Y-119754724D02*
X134772500Y-119245276D01*
%TO.C,R305*%
X131727500Y-119754724D02*
X131727500Y-119245276D01*
X132772500Y-119754724D02*
X132772500Y-119245276D01*
%TO.C,R304*%
X125232900Y-119987144D02*
X125232900Y-119477696D01*
X126277900Y-119987144D02*
X126277900Y-119477696D01*
%TO.C,R303*%
X123231380Y-120015724D02*
X123231380Y-119506276D01*
X124276380Y-120015724D02*
X124276380Y-119506276D01*
%TO.C,R302*%
X142714724Y-78962500D02*
X142205276Y-78962500D01*
X142714724Y-77917500D02*
X142205276Y-77917500D01*
%TO.C,R301*%
X115444724Y-79522500D02*
X114935276Y-79522500D01*
X115444724Y-78477500D02*
X114935276Y-78477500D01*
%TO.C,C434*%
X105283733Y-91750000D02*
X105576267Y-91750000D01*
X105283733Y-92770000D02*
X105576267Y-92770000D01*
%TO.C,C430*%
X105273733Y-86820000D02*
X105566267Y-86820000D01*
X105273733Y-87840000D02*
X105566267Y-87840000D01*
%TO.C,C426*%
X105293733Y-93510000D02*
X105586267Y-93510000D01*
X105293733Y-94530000D02*
X105586267Y-94530000D01*
%TO.C,C422*%
X105293733Y-90100000D02*
X105586267Y-90100000D01*
X105293733Y-91120000D02*
X105586267Y-91120000D01*
%TO.C,C418*%
X105283733Y-88440000D02*
X105576267Y-88440000D01*
X105283733Y-89460000D02*
X105576267Y-89460000D01*
%TO.C,C259*%
X141400000Y-110923733D02*
X141400000Y-111216267D01*
X140380000Y-110923733D02*
X140380000Y-111216267D01*
%TO.C,C258*%
X136720000Y-110993733D02*
X136720000Y-111286267D01*
X135700000Y-110993733D02*
X135700000Y-111286267D01*
%TO.C,C257*%
X130050000Y-85526833D02*
X130050000Y-85819367D01*
X129030000Y-85526833D02*
X129030000Y-85819367D01*
%TO.C,C255*%
X145903733Y-94740000D02*
X146196267Y-94740000D01*
X145903733Y-95760000D02*
X146196267Y-95760000D01*
%TO.C,C254*%
X145903733Y-99820000D02*
X146196267Y-99820000D01*
X145903733Y-100840000D02*
X146196267Y-100840000D01*
%TO.C,C253*%
X123376267Y-100980000D02*
X123083733Y-100980000D01*
X123376267Y-99960000D02*
X123083733Y-99960000D01*
%TO.C,C252*%
X123056267Y-94910000D02*
X122763733Y-94910000D01*
X123056267Y-93890000D02*
X122763733Y-93890000D01*
%TO.C,C251*%
X132590000Y-85553333D02*
X132590000Y-85845867D01*
X131570000Y-85553333D02*
X131570000Y-85845867D01*
%TO.C,C250*%
X140210000Y-85526833D02*
X140210000Y-85819367D01*
X139190000Y-85526833D02*
X139190000Y-85819367D01*
%TO.C,C249*%
X139390000Y-110953733D02*
X139390000Y-111246267D01*
X138370000Y-110953733D02*
X138370000Y-111246267D01*
%TO.C,C248*%
X130340000Y-111003733D02*
X130340000Y-111296267D01*
X129320000Y-111003733D02*
X129320000Y-111296267D01*
%TO.C,C247*%
X149463733Y-92280000D02*
X149756267Y-92280000D01*
X149463733Y-93300000D02*
X149756267Y-93300000D01*
%TO.C,C246*%
X124550000Y-87753733D02*
X124550000Y-88046267D01*
X123530000Y-87753733D02*
X123530000Y-88046267D01*
%TO.C,C245*%
X119713733Y-87740000D02*
X120006267Y-87740000D01*
X119713733Y-88760000D02*
X120006267Y-88760000D01*
%TO.C,C244*%
X120006267Y-109670000D02*
X119713733Y-109670000D01*
X120006267Y-108650000D02*
X119713733Y-108650000D01*
%TO.C,C243*%
X135888000Y-106318267D02*
X135888000Y-106025733D01*
X136908000Y-106318267D02*
X136908000Y-106025733D01*
%TO.C,C242*%
X137416000Y-91293733D02*
X137416000Y-91586267D01*
X136396000Y-91293733D02*
X136396000Y-91586267D01*
%TO.C,C241*%
X127869733Y-98550000D02*
X128162267Y-98550000D01*
X127869733Y-99570000D02*
X128162267Y-99570000D01*
%TO.C,C240*%
X141585733Y-107186000D02*
X141878267Y-107186000D01*
X141585733Y-108206000D02*
X141878267Y-108206000D01*
%TO.C,C239*%
X150016267Y-105760000D02*
X149723733Y-105760000D01*
X150016267Y-104740000D02*
X149723733Y-104740000D01*
%TO.C,C238*%
X149723733Y-102850000D02*
X150016267Y-102850000D01*
X149723733Y-103870000D02*
X150016267Y-103870000D01*
%TO.C,C237*%
X141116267Y-97284000D02*
X140823733Y-97284000D01*
X141116267Y-96264000D02*
X140823733Y-96264000D01*
%TO.C,C236*%
X138174000Y-106318267D02*
X138174000Y-106025733D01*
X139194000Y-106318267D02*
X139194000Y-106025733D01*
%TO.C,C235*%
X127869733Y-102614000D02*
X128162267Y-102614000D01*
X127869733Y-103634000D02*
X128162267Y-103634000D01*
%TO.C,C234*%
X127654267Y-108460000D02*
X127361733Y-108460000D01*
X127654267Y-107440000D02*
X127361733Y-107440000D01*
%TO.C,C233*%
X119673733Y-106920000D02*
X119966267Y-106920000D01*
X119673733Y-107940000D02*
X119966267Y-107940000D01*
%TO.C,C232*%
X119986267Y-90730000D02*
X119693733Y-90730000D01*
X119986267Y-89710000D02*
X119693733Y-89710000D01*
%TO.C,C231*%
X141116267Y-101348000D02*
X140823733Y-101348000D01*
X141116267Y-100328000D02*
X140823733Y-100328000D01*
%TO.C,C230*%
X149693733Y-100870000D02*
X149986267Y-100870000D01*
X149693733Y-101890000D02*
X149986267Y-101890000D01*
%TO.C,C229*%
X141116267Y-99316000D02*
X140823733Y-99316000D01*
X141116267Y-98296000D02*
X140823733Y-98296000D01*
%TO.C,C228*%
X149756267Y-95170000D02*
X149463733Y-95170000D01*
X149756267Y-94150000D02*
X149463733Y-94150000D01*
%TO.C,C227*%
X141839733Y-89914000D02*
X142132267Y-89914000D01*
X141839733Y-90934000D02*
X142132267Y-90934000D01*
%TO.C,C226*%
X141116267Y-103380000D02*
X140823733Y-103380000D01*
X141116267Y-102360000D02*
X140823733Y-102360000D01*
%TO.C,C225*%
X131316000Y-106318267D02*
X131316000Y-106025733D01*
X132336000Y-106318267D02*
X132336000Y-106025733D01*
%TO.C,C224*%
X127869733Y-96518000D02*
X128162267Y-96518000D01*
X127869733Y-97538000D02*
X128162267Y-97538000D01*
%TO.C,C223*%
X133602000Y-106318267D02*
X133602000Y-106025733D01*
X134622000Y-106318267D02*
X134622000Y-106025733D01*
%TO.C,C222*%
X135384000Y-91293733D02*
X135384000Y-91586267D01*
X134364000Y-91293733D02*
X134364000Y-91586267D01*
%TO.C,C221*%
X127869733Y-100582000D02*
X128162267Y-100582000D01*
X127869733Y-101602000D02*
X128162267Y-101602000D01*
D12*
%TO.C,CN302*%
G36*
X146376000Y-76024000D02*
G01*
X146884000Y-76024000D01*
X146884000Y-75516000D01*
X146376000Y-75516000D01*
X146376000Y-76024000D01*
G37*
G36*
X146376000Y-73484000D02*
G01*
X146884000Y-73484000D01*
X146884000Y-72976000D01*
X146376000Y-72976000D01*
X146376000Y-73484000D01*
G37*
G36*
X143836000Y-76024000D02*
G01*
X144344000Y-76024000D01*
X144344000Y-75516000D01*
X143836000Y-75516000D01*
X143836000Y-76024000D01*
G37*
G36*
X143836000Y-73484000D02*
G01*
X144344000Y-73484000D01*
X144344000Y-72976000D01*
X143836000Y-72976000D01*
X143836000Y-73484000D01*
G37*
G36*
X141296000Y-76024000D02*
G01*
X141804000Y-76024000D01*
X141804000Y-75516000D01*
X141296000Y-75516000D01*
X141296000Y-76024000D01*
G37*
G36*
X141296000Y-73484000D02*
G01*
X141804000Y-73484000D01*
X141804000Y-72976000D01*
X141296000Y-72976000D01*
X141296000Y-73484000D01*
G37*
G36*
X138756000Y-76024000D02*
G01*
X139264000Y-76024000D01*
X139264000Y-75516000D01*
X138756000Y-75516000D01*
X138756000Y-76024000D01*
G37*
G36*
X138756000Y-73484000D02*
G01*
X139264000Y-73484000D01*
X139264000Y-72976000D01*
X138756000Y-72976000D01*
X138756000Y-73484000D01*
G37*
G36*
X136216000Y-76024000D02*
G01*
X136724000Y-76024000D01*
X136724000Y-75516000D01*
X136216000Y-75516000D01*
X136216000Y-76024000D01*
G37*
G36*
X136216000Y-73484000D02*
G01*
X136724000Y-73484000D01*
X136724000Y-72976000D01*
X136216000Y-72976000D01*
X136216000Y-73484000D01*
G37*
G36*
X133676000Y-76024000D02*
G01*
X134184000Y-76024000D01*
X134184000Y-75516000D01*
X133676000Y-75516000D01*
X133676000Y-76024000D01*
G37*
G36*
X133676000Y-73484000D02*
G01*
X134184000Y-73484000D01*
X134184000Y-72976000D01*
X133676000Y-72976000D01*
X133676000Y-73484000D01*
G37*
G36*
X131136000Y-76024000D02*
G01*
X131644000Y-76024000D01*
X131644000Y-75516000D01*
X131136000Y-75516000D01*
X131136000Y-76024000D01*
G37*
G36*
X131136000Y-73484000D02*
G01*
X131644000Y-73484000D01*
X131644000Y-72976000D01*
X131136000Y-72976000D01*
X131136000Y-73484000D01*
G37*
G36*
X128596000Y-76024000D02*
G01*
X129104000Y-76024000D01*
X129104000Y-75516000D01*
X128596000Y-75516000D01*
X128596000Y-76024000D01*
G37*
G36*
X128596000Y-73484000D02*
G01*
X129104000Y-73484000D01*
X129104000Y-72976000D01*
X128596000Y-72976000D01*
X128596000Y-73484000D01*
G37*
G36*
X126056000Y-76024000D02*
G01*
X126564000Y-76024000D01*
X126564000Y-75516000D01*
X126056000Y-75516000D01*
X126056000Y-76024000D01*
G37*
G36*
X126056000Y-73484000D02*
G01*
X126564000Y-73484000D01*
X126564000Y-72976000D01*
X126056000Y-72976000D01*
X126056000Y-73484000D01*
G37*
G36*
X123516000Y-76024000D02*
G01*
X124024000Y-76024000D01*
X124024000Y-75516000D01*
X123516000Y-75516000D01*
X123516000Y-76024000D01*
G37*
G36*
X123516000Y-73484000D02*
G01*
X124024000Y-73484000D01*
X124024000Y-72976000D01*
X123516000Y-72976000D01*
X123516000Y-73484000D01*
G37*
G36*
X120976000Y-76024000D02*
G01*
X121484000Y-76024000D01*
X121484000Y-75516000D01*
X120976000Y-75516000D01*
X120976000Y-76024000D01*
G37*
G36*
X120976000Y-73484000D02*
G01*
X121484000Y-73484000D01*
X121484000Y-72976000D01*
X120976000Y-72976000D01*
X120976000Y-73484000D01*
G37*
G36*
X118436000Y-76024000D02*
G01*
X118944000Y-76024000D01*
X118944000Y-75516000D01*
X118436000Y-75516000D01*
X118436000Y-76024000D01*
G37*
G36*
X118436000Y-73484000D02*
G01*
X118944000Y-73484000D01*
X118944000Y-72976000D01*
X118436000Y-72976000D01*
X118436000Y-73484000D01*
G37*
G36*
X115896000Y-76024000D02*
G01*
X116404000Y-76024000D01*
X116404000Y-75516000D01*
X115896000Y-75516000D01*
X115896000Y-76024000D01*
G37*
G36*
X115896000Y-73484000D02*
G01*
X116404000Y-73484000D01*
X116404000Y-72976000D01*
X115896000Y-72976000D01*
X115896000Y-73484000D01*
G37*
G36*
X113356000Y-76024000D02*
G01*
X113864000Y-76024000D01*
X113864000Y-75516000D01*
X113356000Y-75516000D01*
X113356000Y-76024000D01*
G37*
G36*
X113356000Y-73484000D02*
G01*
X113864000Y-73484000D01*
X113864000Y-72976000D01*
X113356000Y-72976000D01*
X113356000Y-73484000D01*
G37*
G36*
X110816000Y-76024000D02*
G01*
X111324000Y-76024000D01*
X111324000Y-75516000D01*
X110816000Y-75516000D01*
X110816000Y-76024000D01*
G37*
G36*
X108276000Y-76024000D02*
G01*
X108784000Y-76024000D01*
X108784000Y-75516000D01*
X108276000Y-75516000D01*
X108276000Y-76024000D01*
G37*
G36*
X105736000Y-76024000D02*
G01*
X106244000Y-76024000D01*
X106244000Y-75516000D01*
X105736000Y-75516000D01*
X105736000Y-76024000D01*
G37*
G36*
X110816000Y-73484000D02*
G01*
X111324000Y-73484000D01*
X111324000Y-72976000D01*
X110816000Y-72976000D01*
X110816000Y-73484000D01*
G37*
G36*
X108276000Y-73484000D02*
G01*
X108784000Y-73484000D01*
X108784000Y-72976000D01*
X108276000Y-72976000D01*
X108276000Y-73484000D01*
G37*
G36*
X105736000Y-73484000D02*
G01*
X106244000Y-73484000D01*
X106244000Y-72976000D01*
X105736000Y-72976000D01*
X105736000Y-73484000D01*
G37*
G36*
X103196000Y-76024000D02*
G01*
X103704000Y-76024000D01*
X103704000Y-75516000D01*
X103196000Y-75516000D01*
X103196000Y-76024000D01*
G37*
G36*
X103196000Y-73484000D02*
G01*
X103704000Y-73484000D01*
X103704000Y-72976000D01*
X103196000Y-72976000D01*
X103196000Y-73484000D01*
G37*
G36*
X100656000Y-76024000D02*
G01*
X101164000Y-76024000D01*
X101164000Y-75516000D01*
X100656000Y-75516000D01*
X100656000Y-76024000D01*
G37*
G36*
X100656000Y-73484000D02*
G01*
X101164000Y-73484000D01*
X101164000Y-72976000D01*
X100656000Y-72976000D01*
X100656000Y-73484000D01*
G37*
G36*
X98116000Y-73484000D02*
G01*
X98624000Y-73484000D01*
X98624000Y-72976000D01*
X98116000Y-72976000D01*
X98116000Y-73484000D01*
G37*
G36*
X98116000Y-76024000D02*
G01*
X98624000Y-76024000D01*
X98624000Y-75516000D01*
X98116000Y-75516000D01*
X98116000Y-76024000D01*
G37*
D13*
X147900000Y-72595000D02*
X147900000Y-76405000D01*
X145360000Y-76405000D02*
X145995000Y-77040000D01*
X147265000Y-77040000D02*
X145995000Y-77040000D01*
X147900000Y-76405000D02*
X147265000Y-77040000D01*
X147265000Y-71960000D02*
X147900000Y-72595000D01*
X147265000Y-71960000D02*
X145995000Y-71960000D01*
X145360000Y-72595000D02*
X145995000Y-71960000D01*
X145360000Y-72595000D02*
X145360000Y-76405000D01*
X142820000Y-72595000D02*
X142820000Y-76405000D01*
X140280000Y-72595000D02*
X140280000Y-76405000D01*
X137740000Y-72595000D02*
X137740000Y-76405000D01*
X135200000Y-72595000D02*
X135200000Y-76405000D01*
X132660000Y-72595000D02*
X132660000Y-76405000D01*
X130120000Y-72595000D02*
X130120000Y-76405000D01*
X127580000Y-72595000D02*
X127580000Y-76405000D01*
X125040000Y-72595000D02*
X125040000Y-76405000D01*
X122500000Y-72595000D02*
X122500000Y-76405000D01*
X119960000Y-72595000D02*
X119960000Y-76405000D01*
X117420000Y-72595000D02*
X117420000Y-76405000D01*
X114880000Y-72595000D02*
X114880000Y-76405000D01*
X112340000Y-72595000D02*
X112340000Y-76405000D01*
X109800000Y-72595000D02*
X109800000Y-76405000D01*
X107260000Y-72595000D02*
X107260000Y-76405000D01*
X104720000Y-72595000D02*
X104720000Y-76405000D01*
X102180000Y-72595000D02*
X102180000Y-76405000D01*
X99640000Y-72595000D02*
X99640000Y-76405000D01*
X112340000Y-76405000D02*
X112975000Y-77040000D01*
X114245000Y-77040000D02*
X112975000Y-77040000D01*
X114880000Y-76405000D02*
X114245000Y-77040000D01*
X114880000Y-76405000D02*
X115515000Y-77040000D01*
X116785000Y-77040000D02*
X115515000Y-77040000D01*
X117420000Y-76405000D02*
X116785000Y-77040000D01*
X117420000Y-76405000D02*
X118055000Y-77040000D01*
X119325000Y-77040000D02*
X118055000Y-77040000D01*
X119960000Y-76405000D02*
X119325000Y-77040000D01*
X119960000Y-76405000D02*
X120595000Y-77040000D01*
X121865000Y-77040000D02*
X120595000Y-77040000D01*
X122500000Y-76405000D02*
X121865000Y-77040000D01*
X122500000Y-76405000D02*
X123135000Y-77040000D01*
X124405000Y-77040000D02*
X123135000Y-77040000D01*
X125040000Y-76405000D02*
X124405000Y-77040000D01*
X125040000Y-76405000D02*
X125675000Y-77040000D01*
X126945000Y-77040000D02*
X125675000Y-77040000D01*
X127580000Y-76405000D02*
X126945000Y-77040000D01*
X127580000Y-76405000D02*
X128215000Y-77040000D01*
X129485000Y-77040000D02*
X128215000Y-77040000D01*
X130120000Y-76405000D02*
X129485000Y-77040000D01*
X130120000Y-76405000D02*
X130755000Y-77040000D01*
X132025000Y-77040000D02*
X130755000Y-77040000D01*
X132660000Y-76405000D02*
X132025000Y-77040000D01*
X133295000Y-77040000D02*
X132660000Y-76405000D01*
X133295000Y-77040000D02*
X134565000Y-77040000D01*
X135200000Y-76405000D02*
X134565000Y-77040000D01*
X135835000Y-77040000D02*
X135200000Y-76405000D01*
X135835000Y-77040000D02*
X137105000Y-77040000D01*
X137740000Y-76405000D02*
X137105000Y-77040000D01*
X137740000Y-76405000D02*
X138375000Y-77040000D01*
X139645000Y-77040000D02*
X138375000Y-77040000D01*
X140280000Y-76405000D02*
X139645000Y-77040000D01*
X140280000Y-76405000D02*
X140915000Y-77040000D01*
X142185000Y-77040000D02*
X140915000Y-77040000D01*
X142820000Y-76405000D02*
X142185000Y-77040000D01*
X142820000Y-76405000D02*
X143455000Y-77040000D01*
X144725000Y-77040000D02*
X143455000Y-77040000D01*
X145360000Y-76405000D02*
X144725000Y-77040000D01*
X144725000Y-71960000D02*
X145360000Y-72595000D01*
X144725000Y-71960000D02*
X143455000Y-71960000D01*
X142820000Y-72595000D02*
X143455000Y-71960000D01*
X142185000Y-71960000D02*
X142820000Y-72595000D01*
X142185000Y-71960000D02*
X140915000Y-71960000D01*
X140280000Y-72595000D02*
X140915000Y-71960000D01*
X139645000Y-71960000D02*
X140280000Y-72595000D01*
X139645000Y-71960000D02*
X138375000Y-71960000D01*
X137740000Y-72595000D02*
X138375000Y-71960000D01*
X137105000Y-71960000D02*
X137740000Y-72595000D01*
X137105000Y-71960000D02*
X135835000Y-71960000D01*
X135200000Y-72595000D02*
X135835000Y-71960000D01*
X134565000Y-71960000D02*
X135200000Y-72595000D01*
X134565000Y-71960000D02*
X133295000Y-71960000D01*
X132660000Y-72595000D02*
X133295000Y-71960000D01*
X132025000Y-71960000D02*
X132660000Y-72595000D01*
X132025000Y-71960000D02*
X130755000Y-71960000D01*
X130120000Y-72595000D02*
X130755000Y-71960000D01*
X129485000Y-71960000D02*
X130120000Y-72595000D01*
X129485000Y-71960000D02*
X128215000Y-71960000D01*
X127580000Y-72595000D02*
X128215000Y-71960000D01*
X127580000Y-72595000D02*
X126945000Y-71960000D01*
X125675000Y-71960000D02*
X126945000Y-71960000D01*
X125040000Y-72595000D02*
X125675000Y-71960000D01*
X124405000Y-71960000D02*
X125040000Y-72595000D01*
X123135000Y-71960000D02*
X124405000Y-71960000D01*
X122500000Y-72595000D02*
X123135000Y-71960000D01*
X121865000Y-71960000D02*
X122500000Y-72595000D01*
X120595000Y-71960000D02*
X121865000Y-71960000D01*
X119960000Y-72595000D02*
X120595000Y-71960000D01*
X119325000Y-71960000D02*
X119960000Y-72595000D01*
X118055000Y-71960000D02*
X119325000Y-71960000D01*
X117420000Y-72595000D02*
X118055000Y-71960000D01*
X116785000Y-71960000D02*
X117420000Y-72595000D01*
X115515000Y-71960000D02*
X116785000Y-71960000D01*
X114880000Y-72595000D02*
X115515000Y-71960000D01*
X114245000Y-71960000D02*
X114880000Y-72595000D01*
X112975000Y-71960000D02*
X114245000Y-71960000D01*
X112340000Y-72595000D02*
X112975000Y-71960000D01*
X111705000Y-71960000D02*
X112340000Y-72595000D01*
X110435000Y-71960000D02*
X111705000Y-71960000D01*
X109800000Y-72595000D02*
X110435000Y-71960000D01*
X109165000Y-71960000D02*
X109800000Y-72595000D01*
X107895000Y-71960000D02*
X109165000Y-71960000D01*
X107260000Y-72595000D02*
X107895000Y-71960000D01*
X106625000Y-71960000D02*
X107260000Y-72595000D01*
X105355000Y-71960000D02*
X106625000Y-71960000D01*
X104720000Y-72595000D02*
X105355000Y-71960000D01*
X104085000Y-71960000D02*
X104720000Y-72595000D01*
X102815000Y-71960000D02*
X104085000Y-71960000D01*
X102180000Y-72595000D02*
X102815000Y-71960000D01*
X101545000Y-71960000D02*
X102180000Y-72595000D01*
X100275000Y-71960000D02*
X101545000Y-71960000D01*
X99640000Y-72595000D02*
X100275000Y-71960000D01*
X99005000Y-71960000D02*
X99640000Y-72595000D01*
X97735000Y-71960000D02*
X99005000Y-71960000D01*
X97100000Y-72595000D02*
X97735000Y-71960000D01*
X97100000Y-76405000D02*
X97100000Y-72595000D01*
X111705000Y-77040000D02*
X112340000Y-76405000D01*
X110435000Y-77040000D02*
X111705000Y-77040000D01*
X109800000Y-76405000D02*
X110435000Y-77040000D01*
X109165000Y-77040000D02*
X109800000Y-76405000D01*
X107895000Y-77040000D02*
X109165000Y-77040000D01*
X107260000Y-76405000D02*
X107895000Y-77040000D01*
X106625000Y-77040000D02*
X107260000Y-76405000D01*
X105355000Y-77040000D02*
X106625000Y-77040000D01*
X104720000Y-76405000D02*
X105355000Y-77040000D01*
X104085000Y-77040000D02*
X104720000Y-76405000D01*
X102815000Y-77040000D02*
X104085000Y-77040000D01*
X102180000Y-76405000D02*
X102815000Y-77040000D01*
X101545000Y-77040000D02*
X102180000Y-76405000D01*
X100275000Y-77040000D02*
X101545000Y-77040000D01*
X99640000Y-76405000D02*
X100275000Y-77040000D01*
X99005000Y-77040000D02*
X99640000Y-76405000D01*
X97735000Y-77040000D02*
X99005000Y-77040000D01*
X97100000Y-76405000D02*
X97735000Y-77040000D01*
%TO.C,FB403*%
D14*
X102436385Y-95824402D02*
X102436385Y-95697402D01*
X102635957Y-95697402D02*
X102254957Y-95697402D01*
X102254957Y-95878831D01*
X102436385Y-96150974D02*
X102454528Y-96205402D01*
X102472671Y-96223545D01*
X102508957Y-96241688D01*
X102563385Y-96241688D01*
X102599671Y-96223545D01*
X102617814Y-96205402D01*
X102635957Y-96169117D01*
X102635957Y-96023974D01*
X102254957Y-96023974D01*
X102254957Y-96150974D01*
X102273100Y-96187260D01*
X102291242Y-96205402D01*
X102327528Y-96223545D01*
X102363814Y-96223545D01*
X102400100Y-96205402D01*
X102418242Y-96187260D01*
X102436385Y-96150974D01*
X102436385Y-96023974D01*
X102381957Y-96568260D02*
X102635957Y-96568260D01*
X102236814Y-96477545D02*
X102508957Y-96386831D01*
X102508957Y-96622688D01*
X102254957Y-96840402D02*
X102254957Y-96876688D01*
X102273100Y-96912974D01*
X102291242Y-96931117D01*
X102327528Y-96949260D01*
X102400100Y-96967402D01*
X102490814Y-96967402D01*
X102563385Y-96949260D01*
X102599671Y-96931117D01*
X102617814Y-96912974D01*
X102635957Y-96876688D01*
X102635957Y-96840402D01*
X102617814Y-96804117D01*
X102599671Y-96785974D01*
X102563385Y-96767831D01*
X102490814Y-96749688D01*
X102400100Y-96749688D01*
X102327528Y-96767831D01*
X102291242Y-96785974D01*
X102273100Y-96804117D01*
X102254957Y-96840402D01*
X102254957Y-97094402D02*
X102254957Y-97330260D01*
X102400100Y-97203260D01*
X102400100Y-97257688D01*
X102418242Y-97293974D01*
X102436385Y-97312117D01*
X102472671Y-97330260D01*
X102563385Y-97330260D01*
X102599671Y-97312117D01*
X102617814Y-97293974D01*
X102635957Y-97257688D01*
X102635957Y-97148831D01*
X102617814Y-97112545D01*
X102599671Y-97094402D01*
%TO.C,FB208*%
X146680357Y-86992785D02*
X146807357Y-86992785D01*
X146807357Y-87192357D02*
X146807357Y-86811357D01*
X146625928Y-86811357D01*
X146353785Y-86992785D02*
X146299357Y-87010928D01*
X146281214Y-87029071D01*
X146263071Y-87065357D01*
X146263071Y-87119785D01*
X146281214Y-87156071D01*
X146299357Y-87174214D01*
X146335642Y-87192357D01*
X146480785Y-87192357D01*
X146480785Y-86811357D01*
X146353785Y-86811357D01*
X146317500Y-86829500D01*
X146299357Y-86847642D01*
X146281214Y-86883928D01*
X146281214Y-86920214D01*
X146299357Y-86956500D01*
X146317500Y-86974642D01*
X146353785Y-86992785D01*
X146480785Y-86992785D01*
X146117928Y-86847642D02*
X146099785Y-86829500D01*
X146063500Y-86811357D01*
X145972785Y-86811357D01*
X145936500Y-86829500D01*
X145918357Y-86847642D01*
X145900214Y-86883928D01*
X145900214Y-86920214D01*
X145918357Y-86974642D01*
X146136071Y-87192357D01*
X145900214Y-87192357D01*
X145664357Y-86811357D02*
X145628071Y-86811357D01*
X145591785Y-86829500D01*
X145573642Y-86847642D01*
X145555500Y-86883928D01*
X145537357Y-86956500D01*
X145537357Y-87047214D01*
X145555500Y-87119785D01*
X145573642Y-87156071D01*
X145591785Y-87174214D01*
X145628071Y-87192357D01*
X145664357Y-87192357D01*
X145700642Y-87174214D01*
X145718785Y-87156071D01*
X145736928Y-87119785D01*
X145755071Y-87047214D01*
X145755071Y-86956500D01*
X145736928Y-86883928D01*
X145718785Y-86847642D01*
X145700642Y-86829500D01*
X145664357Y-86811357D01*
X145319642Y-86974642D02*
X145355928Y-86956500D01*
X145374071Y-86938357D01*
X145392214Y-86902071D01*
X145392214Y-86883928D01*
X145374071Y-86847642D01*
X145355928Y-86829500D01*
X145319642Y-86811357D01*
X145247071Y-86811357D01*
X145210785Y-86829500D01*
X145192642Y-86847642D01*
X145174500Y-86883928D01*
X145174500Y-86902071D01*
X145192642Y-86938357D01*
X145210785Y-86956500D01*
X145247071Y-86974642D01*
X145319642Y-86974642D01*
X145355928Y-86992785D01*
X145374071Y-87010928D01*
X145392214Y-87047214D01*
X145392214Y-87119785D01*
X145374071Y-87156071D01*
X145355928Y-87174214D01*
X145319642Y-87192357D01*
X145247071Y-87192357D01*
X145210785Y-87174214D01*
X145192642Y-87156071D01*
X145174500Y-87119785D01*
X145174500Y-87047214D01*
X145192642Y-87010928D01*
X145210785Y-86992785D01*
X145247071Y-86974642D01*
%TO.C,FB207*%
X124027837Y-108537465D02*
X124154837Y-108537465D01*
X124154837Y-108737037D02*
X124154837Y-108356037D01*
X123973408Y-108356037D01*
X123701265Y-108537465D02*
X123646837Y-108555608D01*
X123628694Y-108573751D01*
X123610551Y-108610037D01*
X123610551Y-108664465D01*
X123628694Y-108700751D01*
X123646837Y-108718894D01*
X123683122Y-108737037D01*
X123828265Y-108737037D01*
X123828265Y-108356037D01*
X123701265Y-108356037D01*
X123664980Y-108374180D01*
X123646837Y-108392322D01*
X123628694Y-108428608D01*
X123628694Y-108464894D01*
X123646837Y-108501180D01*
X123664980Y-108519322D01*
X123701265Y-108537465D01*
X123828265Y-108537465D01*
X123465408Y-108392322D02*
X123447265Y-108374180D01*
X123410980Y-108356037D01*
X123320265Y-108356037D01*
X123283980Y-108374180D01*
X123265837Y-108392322D01*
X123247694Y-108428608D01*
X123247694Y-108464894D01*
X123265837Y-108519322D01*
X123483551Y-108737037D01*
X123247694Y-108737037D01*
X123011837Y-108356037D02*
X122975551Y-108356037D01*
X122939265Y-108374180D01*
X122921122Y-108392322D01*
X122902980Y-108428608D01*
X122884837Y-108501180D01*
X122884837Y-108591894D01*
X122902980Y-108664465D01*
X122921122Y-108700751D01*
X122939265Y-108718894D01*
X122975551Y-108737037D01*
X123011837Y-108737037D01*
X123048122Y-108718894D01*
X123066265Y-108700751D01*
X123084408Y-108664465D01*
X123102551Y-108591894D01*
X123102551Y-108501180D01*
X123084408Y-108428608D01*
X123066265Y-108392322D01*
X123048122Y-108374180D01*
X123011837Y-108356037D01*
X122757837Y-108356037D02*
X122503837Y-108356037D01*
X122667122Y-108737037D01*
%TO.C,FB206*%
X144077145Y-108915562D02*
X144077145Y-108788562D01*
X144276717Y-108788562D02*
X143895717Y-108788562D01*
X143895717Y-108969991D01*
X144077145Y-109242134D02*
X144095288Y-109296562D01*
X144113431Y-109314705D01*
X144149717Y-109332848D01*
X144204145Y-109332848D01*
X144240431Y-109314705D01*
X144258574Y-109296562D01*
X144276717Y-109260277D01*
X144276717Y-109115134D01*
X143895717Y-109115134D01*
X143895717Y-109242134D01*
X143913860Y-109278420D01*
X143932002Y-109296562D01*
X143968288Y-109314705D01*
X144004574Y-109314705D01*
X144040860Y-109296562D01*
X144059002Y-109278420D01*
X144077145Y-109242134D01*
X144077145Y-109115134D01*
X143932002Y-109477991D02*
X143913860Y-109496134D01*
X143895717Y-109532420D01*
X143895717Y-109623134D01*
X143913860Y-109659420D01*
X143932002Y-109677562D01*
X143968288Y-109695705D01*
X144004574Y-109695705D01*
X144059002Y-109677562D01*
X144276717Y-109459848D01*
X144276717Y-109695705D01*
X143895717Y-109931562D02*
X143895717Y-109967848D01*
X143913860Y-110004134D01*
X143932002Y-110022277D01*
X143968288Y-110040420D01*
X144040860Y-110058562D01*
X144131574Y-110058562D01*
X144204145Y-110040420D01*
X144240431Y-110022277D01*
X144258574Y-110004134D01*
X144276717Y-109967848D01*
X144276717Y-109931562D01*
X144258574Y-109895277D01*
X144240431Y-109877134D01*
X144204145Y-109858991D01*
X144131574Y-109840848D01*
X144040860Y-109840848D01*
X143968288Y-109858991D01*
X143932002Y-109877134D01*
X143913860Y-109895277D01*
X143895717Y-109931562D01*
X143895717Y-110385134D02*
X143895717Y-110312562D01*
X143913860Y-110276277D01*
X143932002Y-110258134D01*
X143986431Y-110221848D01*
X144059002Y-110203705D01*
X144204145Y-110203705D01*
X144240431Y-110221848D01*
X144258574Y-110239991D01*
X144276717Y-110276277D01*
X144276717Y-110348848D01*
X144258574Y-110385134D01*
X144240431Y-110403277D01*
X144204145Y-110421420D01*
X144113431Y-110421420D01*
X144077145Y-110403277D01*
X144059002Y-110385134D01*
X144040860Y-110348848D01*
X144040860Y-110276277D01*
X144059002Y-110239991D01*
X144077145Y-110221848D01*
X144113431Y-110203705D01*
%TO.C,FB205*%
X126782785Y-90899642D02*
X126782785Y-90772642D01*
X126982357Y-90772642D02*
X126601357Y-90772642D01*
X126601357Y-90954071D01*
X126782785Y-91226214D02*
X126800928Y-91280642D01*
X126819071Y-91298785D01*
X126855357Y-91316928D01*
X126909785Y-91316928D01*
X126946071Y-91298785D01*
X126964214Y-91280642D01*
X126982357Y-91244357D01*
X126982357Y-91099214D01*
X126601357Y-91099214D01*
X126601357Y-91226214D01*
X126619500Y-91262500D01*
X126637642Y-91280642D01*
X126673928Y-91298785D01*
X126710214Y-91298785D01*
X126746500Y-91280642D01*
X126764642Y-91262500D01*
X126782785Y-91226214D01*
X126782785Y-91099214D01*
X126637642Y-91462071D02*
X126619500Y-91480214D01*
X126601357Y-91516500D01*
X126601357Y-91607214D01*
X126619500Y-91643500D01*
X126637642Y-91661642D01*
X126673928Y-91679785D01*
X126710214Y-91679785D01*
X126764642Y-91661642D01*
X126982357Y-91443928D01*
X126982357Y-91679785D01*
X126601357Y-91915642D02*
X126601357Y-91951928D01*
X126619500Y-91988214D01*
X126637642Y-92006357D01*
X126673928Y-92024500D01*
X126746500Y-92042642D01*
X126837214Y-92042642D01*
X126909785Y-92024500D01*
X126946071Y-92006357D01*
X126964214Y-91988214D01*
X126982357Y-91951928D01*
X126982357Y-91915642D01*
X126964214Y-91879357D01*
X126946071Y-91861214D01*
X126909785Y-91843071D01*
X126837214Y-91824928D01*
X126746500Y-91824928D01*
X126673928Y-91843071D01*
X126637642Y-91861214D01*
X126619500Y-91879357D01*
X126601357Y-91915642D01*
X126601357Y-92387357D02*
X126601357Y-92205928D01*
X126782785Y-92187785D01*
X126764642Y-92205928D01*
X126746500Y-92242214D01*
X126746500Y-92332928D01*
X126764642Y-92369214D01*
X126782785Y-92387357D01*
X126819071Y-92405500D01*
X126909785Y-92405500D01*
X126946071Y-92387357D01*
X126964214Y-92369214D01*
X126982357Y-92332928D01*
X126982357Y-92242214D01*
X126964214Y-92205928D01*
X126946071Y-92187785D01*
%TO.C,FB204*%
X151554905Y-89642042D02*
X151554905Y-89515042D01*
X151754477Y-89515042D02*
X151373477Y-89515042D01*
X151373477Y-89696471D01*
X151554905Y-89968614D02*
X151573048Y-90023042D01*
X151591191Y-90041185D01*
X151627477Y-90059328D01*
X151681905Y-90059328D01*
X151718191Y-90041185D01*
X151736334Y-90023042D01*
X151754477Y-89986757D01*
X151754477Y-89841614D01*
X151373477Y-89841614D01*
X151373477Y-89968614D01*
X151391620Y-90004900D01*
X151409762Y-90023042D01*
X151446048Y-90041185D01*
X151482334Y-90041185D01*
X151518620Y-90023042D01*
X151536762Y-90004900D01*
X151554905Y-89968614D01*
X151554905Y-89841614D01*
X151409762Y-90204471D02*
X151391620Y-90222614D01*
X151373477Y-90258900D01*
X151373477Y-90349614D01*
X151391620Y-90385900D01*
X151409762Y-90404042D01*
X151446048Y-90422185D01*
X151482334Y-90422185D01*
X151536762Y-90404042D01*
X151754477Y-90186328D01*
X151754477Y-90422185D01*
X151373477Y-90658042D02*
X151373477Y-90694328D01*
X151391620Y-90730614D01*
X151409762Y-90748757D01*
X151446048Y-90766900D01*
X151518620Y-90785042D01*
X151609334Y-90785042D01*
X151681905Y-90766900D01*
X151718191Y-90748757D01*
X151736334Y-90730614D01*
X151754477Y-90694328D01*
X151754477Y-90658042D01*
X151736334Y-90621757D01*
X151718191Y-90603614D01*
X151681905Y-90585471D01*
X151609334Y-90567328D01*
X151518620Y-90567328D01*
X151446048Y-90585471D01*
X151409762Y-90603614D01*
X151391620Y-90621757D01*
X151373477Y-90658042D01*
X151500477Y-91111614D02*
X151754477Y-91111614D01*
X151355334Y-91020900D02*
X151627477Y-90930185D01*
X151627477Y-91166042D01*
%TO.C,FB203*%
X121725145Y-105029362D02*
X121725145Y-104902362D01*
X121924717Y-104902362D02*
X121543717Y-104902362D01*
X121543717Y-105083791D01*
X121725145Y-105355934D02*
X121743288Y-105410362D01*
X121761431Y-105428505D01*
X121797717Y-105446648D01*
X121852145Y-105446648D01*
X121888431Y-105428505D01*
X121906574Y-105410362D01*
X121924717Y-105374077D01*
X121924717Y-105228934D01*
X121543717Y-105228934D01*
X121543717Y-105355934D01*
X121561860Y-105392220D01*
X121580002Y-105410362D01*
X121616288Y-105428505D01*
X121652574Y-105428505D01*
X121688860Y-105410362D01*
X121707002Y-105392220D01*
X121725145Y-105355934D01*
X121725145Y-105228934D01*
X121580002Y-105591791D02*
X121561860Y-105609934D01*
X121543717Y-105646220D01*
X121543717Y-105736934D01*
X121561860Y-105773220D01*
X121580002Y-105791362D01*
X121616288Y-105809505D01*
X121652574Y-105809505D01*
X121707002Y-105791362D01*
X121924717Y-105573648D01*
X121924717Y-105809505D01*
X121543717Y-106045362D02*
X121543717Y-106081648D01*
X121561860Y-106117934D01*
X121580002Y-106136077D01*
X121616288Y-106154220D01*
X121688860Y-106172362D01*
X121779574Y-106172362D01*
X121852145Y-106154220D01*
X121888431Y-106136077D01*
X121906574Y-106117934D01*
X121924717Y-106081648D01*
X121924717Y-106045362D01*
X121906574Y-106009077D01*
X121888431Y-105990934D01*
X121852145Y-105972791D01*
X121779574Y-105954648D01*
X121688860Y-105954648D01*
X121616288Y-105972791D01*
X121580002Y-105990934D01*
X121561860Y-106009077D01*
X121543717Y-106045362D01*
X121543717Y-106299362D02*
X121543717Y-106535220D01*
X121688860Y-106408220D01*
X121688860Y-106462648D01*
X121707002Y-106498934D01*
X121725145Y-106517077D01*
X121761431Y-106535220D01*
X121852145Y-106535220D01*
X121888431Y-106517077D01*
X121906574Y-106498934D01*
X121924717Y-106462648D01*
X121924717Y-106353791D01*
X121906574Y-106317505D01*
X121888431Y-106299362D01*
%TO.C,FB202*%
X144148265Y-105842162D02*
X144148265Y-105715162D01*
X144347837Y-105715162D02*
X143966837Y-105715162D01*
X143966837Y-105896591D01*
X144148265Y-106168734D02*
X144166408Y-106223162D01*
X144184551Y-106241305D01*
X144220837Y-106259448D01*
X144275265Y-106259448D01*
X144311551Y-106241305D01*
X144329694Y-106223162D01*
X144347837Y-106186877D01*
X144347837Y-106041734D01*
X143966837Y-106041734D01*
X143966837Y-106168734D01*
X143984980Y-106205020D01*
X144003122Y-106223162D01*
X144039408Y-106241305D01*
X144075694Y-106241305D01*
X144111980Y-106223162D01*
X144130122Y-106205020D01*
X144148265Y-106168734D01*
X144148265Y-106041734D01*
X144003122Y-106404591D02*
X143984980Y-106422734D01*
X143966837Y-106459020D01*
X143966837Y-106549734D01*
X143984980Y-106586020D01*
X144003122Y-106604162D01*
X144039408Y-106622305D01*
X144075694Y-106622305D01*
X144130122Y-106604162D01*
X144347837Y-106386448D01*
X144347837Y-106622305D01*
X143966837Y-106858162D02*
X143966837Y-106894448D01*
X143984980Y-106930734D01*
X144003122Y-106948877D01*
X144039408Y-106967020D01*
X144111980Y-106985162D01*
X144202694Y-106985162D01*
X144275265Y-106967020D01*
X144311551Y-106948877D01*
X144329694Y-106930734D01*
X144347837Y-106894448D01*
X144347837Y-106858162D01*
X144329694Y-106821877D01*
X144311551Y-106803734D01*
X144275265Y-106785591D01*
X144202694Y-106767448D01*
X144111980Y-106767448D01*
X144039408Y-106785591D01*
X144003122Y-106803734D01*
X143984980Y-106821877D01*
X143966837Y-106858162D01*
X144003122Y-107130305D02*
X143984980Y-107148448D01*
X143966837Y-107184734D01*
X143966837Y-107275448D01*
X143984980Y-107311734D01*
X144003122Y-107329877D01*
X144039408Y-107348020D01*
X144075694Y-107348020D01*
X144130122Y-107329877D01*
X144347837Y-107112162D01*
X144347837Y-107348020D01*
%TO.C,FB201*%
X117818625Y-91354002D02*
X117818625Y-91227002D01*
X118018197Y-91227002D02*
X117637197Y-91227002D01*
X117637197Y-91408431D01*
X117818625Y-91680574D02*
X117836768Y-91735002D01*
X117854911Y-91753145D01*
X117891197Y-91771288D01*
X117945625Y-91771288D01*
X117981911Y-91753145D01*
X118000054Y-91735002D01*
X118018197Y-91698717D01*
X118018197Y-91553574D01*
X117637197Y-91553574D01*
X117637197Y-91680574D01*
X117655340Y-91716860D01*
X117673482Y-91735002D01*
X117709768Y-91753145D01*
X117746054Y-91753145D01*
X117782340Y-91735002D01*
X117800482Y-91716860D01*
X117818625Y-91680574D01*
X117818625Y-91553574D01*
X117673482Y-91916431D02*
X117655340Y-91934574D01*
X117637197Y-91970860D01*
X117637197Y-92061574D01*
X117655340Y-92097860D01*
X117673482Y-92116002D01*
X117709768Y-92134145D01*
X117746054Y-92134145D01*
X117800482Y-92116002D01*
X118018197Y-91898288D01*
X118018197Y-92134145D01*
X117637197Y-92370002D02*
X117637197Y-92406288D01*
X117655340Y-92442574D01*
X117673482Y-92460717D01*
X117709768Y-92478860D01*
X117782340Y-92497002D01*
X117873054Y-92497002D01*
X117945625Y-92478860D01*
X117981911Y-92460717D01*
X118000054Y-92442574D01*
X118018197Y-92406288D01*
X118018197Y-92370002D01*
X118000054Y-92333717D01*
X117981911Y-92315574D01*
X117945625Y-92297431D01*
X117873054Y-92279288D01*
X117782340Y-92279288D01*
X117709768Y-92297431D01*
X117673482Y-92315574D01*
X117655340Y-92333717D01*
X117637197Y-92370002D01*
X118018197Y-92859860D02*
X118018197Y-92642145D01*
X118018197Y-92751002D02*
X117637197Y-92751002D01*
X117691625Y-92714717D01*
X117727911Y-92678431D01*
X117746054Y-92642145D01*
%TO.C,C256*%
X137586357Y-83813831D02*
X137604500Y-83831974D01*
X137658928Y-83850117D01*
X137695214Y-83850117D01*
X137749642Y-83831974D01*
X137785928Y-83795688D01*
X137804071Y-83759402D01*
X137822214Y-83686831D01*
X137822214Y-83632402D01*
X137804071Y-83559831D01*
X137785928Y-83523545D01*
X137749642Y-83487260D01*
X137695214Y-83469117D01*
X137658928Y-83469117D01*
X137604500Y-83487260D01*
X137586357Y-83505402D01*
X137441214Y-83505402D02*
X137423071Y-83487260D01*
X137386785Y-83469117D01*
X137296071Y-83469117D01*
X137259785Y-83487260D01*
X137241642Y-83505402D01*
X137223500Y-83541688D01*
X137223500Y-83577974D01*
X137241642Y-83632402D01*
X137459357Y-83850117D01*
X137223500Y-83850117D01*
X136878785Y-83469117D02*
X137060214Y-83469117D01*
X137078357Y-83650545D01*
X137060214Y-83632402D01*
X137023928Y-83614260D01*
X136933214Y-83614260D01*
X136896928Y-83632402D01*
X136878785Y-83650545D01*
X136860642Y-83686831D01*
X136860642Y-83777545D01*
X136878785Y-83813831D01*
X136896928Y-83831974D01*
X136933214Y-83850117D01*
X137023928Y-83850117D01*
X137060214Y-83831974D01*
X137078357Y-83813831D01*
X136534071Y-83469117D02*
X136606642Y-83469117D01*
X136642928Y-83487260D01*
X136661071Y-83505402D01*
X136697357Y-83559831D01*
X136715500Y-83632402D01*
X136715500Y-83777545D01*
X136697357Y-83813831D01*
X136679214Y-83831974D01*
X136642928Y-83850117D01*
X136570357Y-83850117D01*
X136534071Y-83831974D01*
X136515928Y-83813831D01*
X136497785Y-83777545D01*
X136497785Y-83686831D01*
X136515928Y-83650545D01*
X136534071Y-83632402D01*
X136570357Y-83614260D01*
X136642928Y-83614260D01*
X136679214Y-83632402D01*
X136697357Y-83650545D01*
X136715500Y-83686831D01*
%TO.C,R308*%
X130423557Y-121655477D02*
X130550557Y-121474048D01*
X130641271Y-121655477D02*
X130641271Y-121274477D01*
X130496128Y-121274477D01*
X130459842Y-121292620D01*
X130441700Y-121310762D01*
X130423557Y-121347048D01*
X130423557Y-121401477D01*
X130441700Y-121437762D01*
X130459842Y-121455905D01*
X130496128Y-121474048D01*
X130641271Y-121474048D01*
X130296557Y-121274477D02*
X130060700Y-121274477D01*
X130187700Y-121419620D01*
X130133271Y-121419620D01*
X130096985Y-121437762D01*
X130078842Y-121455905D01*
X130060700Y-121492191D01*
X130060700Y-121582905D01*
X130078842Y-121619191D01*
X130096985Y-121637334D01*
X130133271Y-121655477D01*
X130242128Y-121655477D01*
X130278414Y-121637334D01*
X130296557Y-121619191D01*
X129824842Y-121274477D02*
X129788557Y-121274477D01*
X129752271Y-121292620D01*
X129734128Y-121310762D01*
X129715985Y-121347048D01*
X129697842Y-121419620D01*
X129697842Y-121510334D01*
X129715985Y-121582905D01*
X129734128Y-121619191D01*
X129752271Y-121637334D01*
X129788557Y-121655477D01*
X129824842Y-121655477D01*
X129861128Y-121637334D01*
X129879271Y-121619191D01*
X129897414Y-121582905D01*
X129915557Y-121510334D01*
X129915557Y-121419620D01*
X129897414Y-121347048D01*
X129879271Y-121310762D01*
X129861128Y-121292620D01*
X129824842Y-121274477D01*
X129480128Y-121437762D02*
X129516414Y-121419620D01*
X129534557Y-121401477D01*
X129552700Y-121365191D01*
X129552700Y-121347048D01*
X129534557Y-121310762D01*
X129516414Y-121292620D01*
X129480128Y-121274477D01*
X129407557Y-121274477D01*
X129371271Y-121292620D01*
X129353128Y-121310762D01*
X129334985Y-121347048D01*
X129334985Y-121365191D01*
X129353128Y-121401477D01*
X129371271Y-121419620D01*
X129407557Y-121437762D01*
X129480128Y-121437762D01*
X129516414Y-121455905D01*
X129534557Y-121474048D01*
X129552700Y-121510334D01*
X129552700Y-121582905D01*
X129534557Y-121619191D01*
X129516414Y-121637334D01*
X129480128Y-121655477D01*
X129407557Y-121655477D01*
X129371271Y-121637334D01*
X129353128Y-121619191D01*
X129334985Y-121582905D01*
X129334985Y-121510334D01*
X129353128Y-121474048D01*
X129371271Y-121455905D01*
X129407557Y-121437762D01*
%TO.C,R307*%
X128432197Y-117642277D02*
X128559197Y-117460848D01*
X128649911Y-117642277D02*
X128649911Y-117261277D01*
X128504768Y-117261277D01*
X128468482Y-117279420D01*
X128450340Y-117297562D01*
X128432197Y-117333848D01*
X128432197Y-117388277D01*
X128450340Y-117424562D01*
X128468482Y-117442705D01*
X128504768Y-117460848D01*
X128649911Y-117460848D01*
X128305197Y-117261277D02*
X128069340Y-117261277D01*
X128196340Y-117406420D01*
X128141911Y-117406420D01*
X128105625Y-117424562D01*
X128087482Y-117442705D01*
X128069340Y-117478991D01*
X128069340Y-117569705D01*
X128087482Y-117605991D01*
X128105625Y-117624134D01*
X128141911Y-117642277D01*
X128250768Y-117642277D01*
X128287054Y-117624134D01*
X128305197Y-117605991D01*
X127833482Y-117261277D02*
X127797197Y-117261277D01*
X127760911Y-117279420D01*
X127742768Y-117297562D01*
X127724625Y-117333848D01*
X127706482Y-117406420D01*
X127706482Y-117497134D01*
X127724625Y-117569705D01*
X127742768Y-117605991D01*
X127760911Y-117624134D01*
X127797197Y-117642277D01*
X127833482Y-117642277D01*
X127869768Y-117624134D01*
X127887911Y-117605991D01*
X127906054Y-117569705D01*
X127924197Y-117497134D01*
X127924197Y-117406420D01*
X127906054Y-117333848D01*
X127887911Y-117297562D01*
X127869768Y-117279420D01*
X127833482Y-117261277D01*
X127579482Y-117261277D02*
X127325482Y-117261277D01*
X127488768Y-117642277D01*
%TO.C,R306*%
X134624717Y-117667677D02*
X134751717Y-117486248D01*
X134842431Y-117667677D02*
X134842431Y-117286677D01*
X134697288Y-117286677D01*
X134661002Y-117304820D01*
X134642860Y-117322962D01*
X134624717Y-117359248D01*
X134624717Y-117413677D01*
X134642860Y-117449962D01*
X134661002Y-117468105D01*
X134697288Y-117486248D01*
X134842431Y-117486248D01*
X134497717Y-117286677D02*
X134261860Y-117286677D01*
X134388860Y-117431820D01*
X134334431Y-117431820D01*
X134298145Y-117449962D01*
X134280002Y-117468105D01*
X134261860Y-117504391D01*
X134261860Y-117595105D01*
X134280002Y-117631391D01*
X134298145Y-117649534D01*
X134334431Y-117667677D01*
X134443288Y-117667677D01*
X134479574Y-117649534D01*
X134497717Y-117631391D01*
X134026002Y-117286677D02*
X133989717Y-117286677D01*
X133953431Y-117304820D01*
X133935288Y-117322962D01*
X133917145Y-117359248D01*
X133899002Y-117431820D01*
X133899002Y-117522534D01*
X133917145Y-117595105D01*
X133935288Y-117631391D01*
X133953431Y-117649534D01*
X133989717Y-117667677D01*
X134026002Y-117667677D01*
X134062288Y-117649534D01*
X134080431Y-117631391D01*
X134098574Y-117595105D01*
X134116717Y-117522534D01*
X134116717Y-117431820D01*
X134098574Y-117359248D01*
X134080431Y-117322962D01*
X134062288Y-117304820D01*
X134026002Y-117286677D01*
X133572431Y-117286677D02*
X133645002Y-117286677D01*
X133681288Y-117304820D01*
X133699431Y-117322962D01*
X133735717Y-117377391D01*
X133753860Y-117449962D01*
X133753860Y-117595105D01*
X133735717Y-117631391D01*
X133717574Y-117649534D01*
X133681288Y-117667677D01*
X133608717Y-117667677D01*
X133572431Y-117649534D01*
X133554288Y-117631391D01*
X133536145Y-117595105D01*
X133536145Y-117504391D01*
X133554288Y-117468105D01*
X133572431Y-117449962D01*
X133608717Y-117431820D01*
X133681288Y-117431820D01*
X133717574Y-117449962D01*
X133735717Y-117468105D01*
X133753860Y-117504391D01*
%TO.C,R305*%
X132679077Y-117667677D02*
X132806077Y-117486248D01*
X132896791Y-117667677D02*
X132896791Y-117286677D01*
X132751648Y-117286677D01*
X132715362Y-117304820D01*
X132697220Y-117322962D01*
X132679077Y-117359248D01*
X132679077Y-117413677D01*
X132697220Y-117449962D01*
X132715362Y-117468105D01*
X132751648Y-117486248D01*
X132896791Y-117486248D01*
X132552077Y-117286677D02*
X132316220Y-117286677D01*
X132443220Y-117431820D01*
X132388791Y-117431820D01*
X132352505Y-117449962D01*
X132334362Y-117468105D01*
X132316220Y-117504391D01*
X132316220Y-117595105D01*
X132334362Y-117631391D01*
X132352505Y-117649534D01*
X132388791Y-117667677D01*
X132497648Y-117667677D01*
X132533934Y-117649534D01*
X132552077Y-117631391D01*
X132080362Y-117286677D02*
X132044077Y-117286677D01*
X132007791Y-117304820D01*
X131989648Y-117322962D01*
X131971505Y-117359248D01*
X131953362Y-117431820D01*
X131953362Y-117522534D01*
X131971505Y-117595105D01*
X131989648Y-117631391D01*
X132007791Y-117649534D01*
X132044077Y-117667677D01*
X132080362Y-117667677D01*
X132116648Y-117649534D01*
X132134791Y-117631391D01*
X132152934Y-117595105D01*
X132171077Y-117522534D01*
X132171077Y-117431820D01*
X132152934Y-117359248D01*
X132134791Y-117322962D01*
X132116648Y-117304820D01*
X132080362Y-117286677D01*
X131608648Y-117286677D02*
X131790077Y-117286677D01*
X131808220Y-117468105D01*
X131790077Y-117449962D01*
X131753791Y-117431820D01*
X131663077Y-117431820D01*
X131626791Y-117449962D01*
X131608648Y-117468105D01*
X131590505Y-117504391D01*
X131590505Y-117595105D01*
X131608648Y-117631391D01*
X131626791Y-117649534D01*
X131663077Y-117667677D01*
X131753791Y-117667677D01*
X131790077Y-117649534D01*
X131808220Y-117631391D01*
%TO.C,R304*%
X126248117Y-117874697D02*
X126375117Y-117693268D01*
X126465831Y-117874697D02*
X126465831Y-117493697D01*
X126320688Y-117493697D01*
X126284402Y-117511840D01*
X126266260Y-117529982D01*
X126248117Y-117566268D01*
X126248117Y-117620697D01*
X126266260Y-117656982D01*
X126284402Y-117675125D01*
X126320688Y-117693268D01*
X126465831Y-117693268D01*
X126121117Y-117493697D02*
X125885260Y-117493697D01*
X126012260Y-117638840D01*
X125957831Y-117638840D01*
X125921545Y-117656982D01*
X125903402Y-117675125D01*
X125885260Y-117711411D01*
X125885260Y-117802125D01*
X125903402Y-117838411D01*
X125921545Y-117856554D01*
X125957831Y-117874697D01*
X126066688Y-117874697D01*
X126102974Y-117856554D01*
X126121117Y-117838411D01*
X125649402Y-117493697D02*
X125613117Y-117493697D01*
X125576831Y-117511840D01*
X125558688Y-117529982D01*
X125540545Y-117566268D01*
X125522402Y-117638840D01*
X125522402Y-117729554D01*
X125540545Y-117802125D01*
X125558688Y-117838411D01*
X125576831Y-117856554D01*
X125613117Y-117874697D01*
X125649402Y-117874697D01*
X125685688Y-117856554D01*
X125703831Y-117838411D01*
X125721974Y-117802125D01*
X125740117Y-117729554D01*
X125740117Y-117638840D01*
X125721974Y-117566268D01*
X125703831Y-117529982D01*
X125685688Y-117511840D01*
X125649402Y-117493697D01*
X125195831Y-117620697D02*
X125195831Y-117874697D01*
X125286545Y-117475554D02*
X125377260Y-117747697D01*
X125141402Y-117747697D01*
%TO.C,R303*%
X124128237Y-117938837D02*
X124255237Y-117757408D01*
X124345951Y-117938837D02*
X124345951Y-117557837D01*
X124200808Y-117557837D01*
X124164522Y-117575980D01*
X124146380Y-117594122D01*
X124128237Y-117630408D01*
X124128237Y-117684837D01*
X124146380Y-117721122D01*
X124164522Y-117739265D01*
X124200808Y-117757408D01*
X124345951Y-117757408D01*
X124001237Y-117557837D02*
X123765380Y-117557837D01*
X123892380Y-117702980D01*
X123837951Y-117702980D01*
X123801665Y-117721122D01*
X123783522Y-117739265D01*
X123765380Y-117775551D01*
X123765380Y-117866265D01*
X123783522Y-117902551D01*
X123801665Y-117920694D01*
X123837951Y-117938837D01*
X123946808Y-117938837D01*
X123983094Y-117920694D01*
X124001237Y-117902551D01*
X123529522Y-117557837D02*
X123493237Y-117557837D01*
X123456951Y-117575980D01*
X123438808Y-117594122D01*
X123420665Y-117630408D01*
X123402522Y-117702980D01*
X123402522Y-117793694D01*
X123420665Y-117866265D01*
X123438808Y-117902551D01*
X123456951Y-117920694D01*
X123493237Y-117938837D01*
X123529522Y-117938837D01*
X123565808Y-117920694D01*
X123583951Y-117902551D01*
X123602094Y-117866265D01*
X123620237Y-117793694D01*
X123620237Y-117702980D01*
X123602094Y-117630408D01*
X123583951Y-117594122D01*
X123565808Y-117575980D01*
X123529522Y-117557837D01*
X123275522Y-117557837D02*
X123039665Y-117557837D01*
X123166665Y-117702980D01*
X123112237Y-117702980D01*
X123075951Y-117721122D01*
X123057808Y-117739265D01*
X123039665Y-117775551D01*
X123039665Y-117866265D01*
X123057808Y-117902551D01*
X123075951Y-117920694D01*
X123112237Y-117938837D01*
X123221094Y-117938837D01*
X123257380Y-117920694D01*
X123275522Y-117902551D01*
%TO.C,R302*%
X140639437Y-77993602D02*
X140458008Y-77866602D01*
X140639437Y-77775888D02*
X140258437Y-77775888D01*
X140258437Y-77921031D01*
X140276580Y-77957317D01*
X140294722Y-77975460D01*
X140331008Y-77993602D01*
X140385437Y-77993602D01*
X140421722Y-77975460D01*
X140439865Y-77957317D01*
X140458008Y-77921031D01*
X140458008Y-77775888D01*
X140258437Y-78120602D02*
X140258437Y-78356460D01*
X140403580Y-78229460D01*
X140403580Y-78283888D01*
X140421722Y-78320174D01*
X140439865Y-78338317D01*
X140476151Y-78356460D01*
X140566865Y-78356460D01*
X140603151Y-78338317D01*
X140621294Y-78320174D01*
X140639437Y-78283888D01*
X140639437Y-78175031D01*
X140621294Y-78138745D01*
X140603151Y-78120602D01*
X140258437Y-78592317D02*
X140258437Y-78628602D01*
X140276580Y-78664888D01*
X140294722Y-78683031D01*
X140331008Y-78701174D01*
X140403580Y-78719317D01*
X140494294Y-78719317D01*
X140566865Y-78701174D01*
X140603151Y-78683031D01*
X140621294Y-78664888D01*
X140639437Y-78628602D01*
X140639437Y-78592317D01*
X140621294Y-78556031D01*
X140603151Y-78537888D01*
X140566865Y-78519745D01*
X140494294Y-78501602D01*
X140403580Y-78501602D01*
X140331008Y-78519745D01*
X140294722Y-78537888D01*
X140276580Y-78556031D01*
X140258437Y-78592317D01*
X140294722Y-78864460D02*
X140276580Y-78882602D01*
X140258437Y-78918888D01*
X140258437Y-79009602D01*
X140276580Y-79045888D01*
X140294722Y-79064031D01*
X140331008Y-79082174D01*
X140367294Y-79082174D01*
X140421722Y-79064031D01*
X140639437Y-78846317D01*
X140639437Y-79082174D01*
%TO.C,R301*%
X113324277Y-78501602D02*
X113142848Y-78374602D01*
X113324277Y-78283888D02*
X112943277Y-78283888D01*
X112943277Y-78429031D01*
X112961420Y-78465317D01*
X112979562Y-78483460D01*
X113015848Y-78501602D01*
X113070277Y-78501602D01*
X113106562Y-78483460D01*
X113124705Y-78465317D01*
X113142848Y-78429031D01*
X113142848Y-78283888D01*
X112943277Y-78628602D02*
X112943277Y-78864460D01*
X113088420Y-78737460D01*
X113088420Y-78791888D01*
X113106562Y-78828174D01*
X113124705Y-78846317D01*
X113160991Y-78864460D01*
X113251705Y-78864460D01*
X113287991Y-78846317D01*
X113306134Y-78828174D01*
X113324277Y-78791888D01*
X113324277Y-78683031D01*
X113306134Y-78646745D01*
X113287991Y-78628602D01*
X112943277Y-79100317D02*
X112943277Y-79136602D01*
X112961420Y-79172888D01*
X112979562Y-79191031D01*
X113015848Y-79209174D01*
X113088420Y-79227317D01*
X113179134Y-79227317D01*
X113251705Y-79209174D01*
X113287991Y-79191031D01*
X113306134Y-79172888D01*
X113324277Y-79136602D01*
X113324277Y-79100317D01*
X113306134Y-79064031D01*
X113287991Y-79045888D01*
X113251705Y-79027745D01*
X113179134Y-79009602D01*
X113088420Y-79009602D01*
X113015848Y-79027745D01*
X112979562Y-79045888D01*
X112961420Y-79064031D01*
X112943277Y-79100317D01*
X113324277Y-79590174D02*
X113324277Y-79372460D01*
X113324277Y-79481317D02*
X112943277Y-79481317D01*
X112997705Y-79445031D01*
X113033991Y-79408745D01*
X113052134Y-79372460D01*
%TO.C,C434*%
X103595351Y-91811202D02*
X103613494Y-91793060D01*
X103631637Y-91738631D01*
X103631637Y-91702345D01*
X103613494Y-91647917D01*
X103577208Y-91611631D01*
X103540922Y-91593488D01*
X103468351Y-91575345D01*
X103413922Y-91575345D01*
X103341351Y-91593488D01*
X103305065Y-91611631D01*
X103268780Y-91647917D01*
X103250637Y-91702345D01*
X103250637Y-91738631D01*
X103268780Y-91793060D01*
X103286922Y-91811202D01*
X103377637Y-92137774D02*
X103631637Y-92137774D01*
X103232494Y-92047060D02*
X103504637Y-91956345D01*
X103504637Y-92192202D01*
X103250637Y-92301060D02*
X103250637Y-92536917D01*
X103395780Y-92409917D01*
X103395780Y-92464345D01*
X103413922Y-92500631D01*
X103432065Y-92518774D01*
X103468351Y-92536917D01*
X103559065Y-92536917D01*
X103595351Y-92518774D01*
X103613494Y-92500631D01*
X103631637Y-92464345D01*
X103631637Y-92355488D01*
X103613494Y-92319202D01*
X103595351Y-92301060D01*
X103377637Y-92863488D02*
X103631637Y-92863488D01*
X103232494Y-92772774D02*
X103504637Y-92682060D01*
X103504637Y-92917917D01*
%TO.C,C430*%
X103625831Y-86888682D02*
X103643974Y-86870540D01*
X103662117Y-86816111D01*
X103662117Y-86779825D01*
X103643974Y-86725397D01*
X103607688Y-86689111D01*
X103571402Y-86670968D01*
X103498831Y-86652825D01*
X103444402Y-86652825D01*
X103371831Y-86670968D01*
X103335545Y-86689111D01*
X103299260Y-86725397D01*
X103281117Y-86779825D01*
X103281117Y-86816111D01*
X103299260Y-86870540D01*
X103317402Y-86888682D01*
X103408117Y-87215254D02*
X103662117Y-87215254D01*
X103262974Y-87124540D02*
X103535117Y-87033825D01*
X103535117Y-87269682D01*
X103281117Y-87378540D02*
X103281117Y-87614397D01*
X103426260Y-87487397D01*
X103426260Y-87541825D01*
X103444402Y-87578111D01*
X103462545Y-87596254D01*
X103498831Y-87614397D01*
X103589545Y-87614397D01*
X103625831Y-87596254D01*
X103643974Y-87578111D01*
X103662117Y-87541825D01*
X103662117Y-87432968D01*
X103643974Y-87396682D01*
X103625831Y-87378540D01*
X103281117Y-87850254D02*
X103281117Y-87886540D01*
X103299260Y-87922825D01*
X103317402Y-87940968D01*
X103353688Y-87959111D01*
X103426260Y-87977254D01*
X103516974Y-87977254D01*
X103589545Y-87959111D01*
X103625831Y-87940968D01*
X103643974Y-87922825D01*
X103662117Y-87886540D01*
X103662117Y-87850254D01*
X103643974Y-87813968D01*
X103625831Y-87795825D01*
X103589545Y-87777682D01*
X103516974Y-87759540D01*
X103426260Y-87759540D01*
X103353688Y-87777682D01*
X103317402Y-87795825D01*
X103299260Y-87813968D01*
X103281117Y-87850254D01*
%TO.C,C426*%
X103625831Y-93523162D02*
X103643974Y-93505020D01*
X103662117Y-93450591D01*
X103662117Y-93414305D01*
X103643974Y-93359877D01*
X103607688Y-93323591D01*
X103571402Y-93305448D01*
X103498831Y-93287305D01*
X103444402Y-93287305D01*
X103371831Y-93305448D01*
X103335545Y-93323591D01*
X103299260Y-93359877D01*
X103281117Y-93414305D01*
X103281117Y-93450591D01*
X103299260Y-93505020D01*
X103317402Y-93523162D01*
X103408117Y-93849734D02*
X103662117Y-93849734D01*
X103262974Y-93759020D02*
X103535117Y-93668305D01*
X103535117Y-93904162D01*
X103317402Y-94031162D02*
X103299260Y-94049305D01*
X103281117Y-94085591D01*
X103281117Y-94176305D01*
X103299260Y-94212591D01*
X103317402Y-94230734D01*
X103353688Y-94248877D01*
X103389974Y-94248877D01*
X103444402Y-94230734D01*
X103662117Y-94013020D01*
X103662117Y-94248877D01*
X103281117Y-94575448D02*
X103281117Y-94502877D01*
X103299260Y-94466591D01*
X103317402Y-94448448D01*
X103371831Y-94412162D01*
X103444402Y-94394020D01*
X103589545Y-94394020D01*
X103625831Y-94412162D01*
X103643974Y-94430305D01*
X103662117Y-94466591D01*
X103662117Y-94539162D01*
X103643974Y-94575448D01*
X103625831Y-94593591D01*
X103589545Y-94611734D01*
X103498831Y-94611734D01*
X103462545Y-94593591D01*
X103444402Y-94575448D01*
X103426260Y-94539162D01*
X103426260Y-94466591D01*
X103444402Y-94430305D01*
X103462545Y-94412162D01*
X103498831Y-94394020D01*
%TO.C,C422*%
X103610591Y-90114482D02*
X103628734Y-90096340D01*
X103646877Y-90041911D01*
X103646877Y-90005625D01*
X103628734Y-89951197D01*
X103592448Y-89914911D01*
X103556162Y-89896768D01*
X103483591Y-89878625D01*
X103429162Y-89878625D01*
X103356591Y-89896768D01*
X103320305Y-89914911D01*
X103284020Y-89951197D01*
X103265877Y-90005625D01*
X103265877Y-90041911D01*
X103284020Y-90096340D01*
X103302162Y-90114482D01*
X103392877Y-90441054D02*
X103646877Y-90441054D01*
X103247734Y-90350340D02*
X103519877Y-90259625D01*
X103519877Y-90495482D01*
X103302162Y-90622482D02*
X103284020Y-90640625D01*
X103265877Y-90676911D01*
X103265877Y-90767625D01*
X103284020Y-90803911D01*
X103302162Y-90822054D01*
X103338448Y-90840197D01*
X103374734Y-90840197D01*
X103429162Y-90822054D01*
X103646877Y-90604340D01*
X103646877Y-90840197D01*
X103302162Y-90985340D02*
X103284020Y-91003482D01*
X103265877Y-91039768D01*
X103265877Y-91130482D01*
X103284020Y-91166768D01*
X103302162Y-91184911D01*
X103338448Y-91203054D01*
X103374734Y-91203054D01*
X103429162Y-91184911D01*
X103646877Y-90967197D01*
X103646877Y-91203054D01*
%TO.C,C418*%
X103625831Y-88483802D02*
X103643974Y-88465660D01*
X103662117Y-88411231D01*
X103662117Y-88374945D01*
X103643974Y-88320517D01*
X103607688Y-88284231D01*
X103571402Y-88266088D01*
X103498831Y-88247945D01*
X103444402Y-88247945D01*
X103371831Y-88266088D01*
X103335545Y-88284231D01*
X103299260Y-88320517D01*
X103281117Y-88374945D01*
X103281117Y-88411231D01*
X103299260Y-88465660D01*
X103317402Y-88483802D01*
X103408117Y-88810374D02*
X103662117Y-88810374D01*
X103262974Y-88719660D02*
X103535117Y-88628945D01*
X103535117Y-88864802D01*
X103662117Y-89209517D02*
X103662117Y-88991802D01*
X103662117Y-89100660D02*
X103281117Y-89100660D01*
X103335545Y-89064374D01*
X103371831Y-89028088D01*
X103389974Y-88991802D01*
X103444402Y-89427231D02*
X103426260Y-89390945D01*
X103408117Y-89372802D01*
X103371831Y-89354660D01*
X103353688Y-89354660D01*
X103317402Y-89372802D01*
X103299260Y-89390945D01*
X103281117Y-89427231D01*
X103281117Y-89499802D01*
X103299260Y-89536088D01*
X103317402Y-89554231D01*
X103353688Y-89572374D01*
X103371831Y-89572374D01*
X103408117Y-89554231D01*
X103426260Y-89536088D01*
X103444402Y-89499802D01*
X103444402Y-89427231D01*
X103462545Y-89390945D01*
X103480688Y-89372802D01*
X103516974Y-89354660D01*
X103589545Y-89354660D01*
X103625831Y-89372802D01*
X103643974Y-89390945D01*
X103662117Y-89427231D01*
X103662117Y-89499802D01*
X103643974Y-89536088D01*
X103625831Y-89554231D01*
X103589545Y-89572374D01*
X103516974Y-89572374D01*
X103480688Y-89554231D01*
X103462545Y-89536088D01*
X103444402Y-89499802D01*
%TO.C,C259*%
X142157631Y-110571642D02*
X142175774Y-110553500D01*
X142193917Y-110499071D01*
X142193917Y-110462785D01*
X142175774Y-110408357D01*
X142139488Y-110372071D01*
X142103202Y-110353928D01*
X142030631Y-110335785D01*
X141976202Y-110335785D01*
X141903631Y-110353928D01*
X141867345Y-110372071D01*
X141831060Y-110408357D01*
X141812917Y-110462785D01*
X141812917Y-110499071D01*
X141831060Y-110553500D01*
X141849202Y-110571642D01*
X141849202Y-110716785D02*
X141831060Y-110734928D01*
X141812917Y-110771214D01*
X141812917Y-110861928D01*
X141831060Y-110898214D01*
X141849202Y-110916357D01*
X141885488Y-110934500D01*
X141921774Y-110934500D01*
X141976202Y-110916357D01*
X142193917Y-110698642D01*
X142193917Y-110934500D01*
X141812917Y-111279214D02*
X141812917Y-111097785D01*
X141994345Y-111079642D01*
X141976202Y-111097785D01*
X141958060Y-111134071D01*
X141958060Y-111224785D01*
X141976202Y-111261071D01*
X141994345Y-111279214D01*
X142030631Y-111297357D01*
X142121345Y-111297357D01*
X142157631Y-111279214D01*
X142175774Y-111261071D01*
X142193917Y-111224785D01*
X142193917Y-111134071D01*
X142175774Y-111097785D01*
X142157631Y-111079642D01*
X142193917Y-111478785D02*
X142193917Y-111551357D01*
X142175774Y-111587642D01*
X142157631Y-111605785D01*
X142103202Y-111642071D01*
X142030631Y-111660214D01*
X141885488Y-111660214D01*
X141849202Y-111642071D01*
X141831060Y-111623928D01*
X141812917Y-111587642D01*
X141812917Y-111515071D01*
X141831060Y-111478785D01*
X141849202Y-111460642D01*
X141885488Y-111442500D01*
X141976202Y-111442500D01*
X142012488Y-111460642D01*
X142030631Y-111478785D01*
X142048774Y-111515071D01*
X142048774Y-111587642D01*
X142030631Y-111623928D01*
X142012488Y-111642071D01*
X141976202Y-111660214D01*
%TO.C,C258*%
X135294551Y-110663082D02*
X135312694Y-110644940D01*
X135330837Y-110590511D01*
X135330837Y-110554225D01*
X135312694Y-110499797D01*
X135276408Y-110463511D01*
X135240122Y-110445368D01*
X135167551Y-110427225D01*
X135113122Y-110427225D01*
X135040551Y-110445368D01*
X135004265Y-110463511D01*
X134967980Y-110499797D01*
X134949837Y-110554225D01*
X134949837Y-110590511D01*
X134967980Y-110644940D01*
X134986122Y-110663082D01*
X134986122Y-110808225D02*
X134967980Y-110826368D01*
X134949837Y-110862654D01*
X134949837Y-110953368D01*
X134967980Y-110989654D01*
X134986122Y-111007797D01*
X135022408Y-111025940D01*
X135058694Y-111025940D01*
X135113122Y-111007797D01*
X135330837Y-110790082D01*
X135330837Y-111025940D01*
X134949837Y-111370654D02*
X134949837Y-111189225D01*
X135131265Y-111171082D01*
X135113122Y-111189225D01*
X135094980Y-111225511D01*
X135094980Y-111316225D01*
X135113122Y-111352511D01*
X135131265Y-111370654D01*
X135167551Y-111388797D01*
X135258265Y-111388797D01*
X135294551Y-111370654D01*
X135312694Y-111352511D01*
X135330837Y-111316225D01*
X135330837Y-111225511D01*
X135312694Y-111189225D01*
X135294551Y-111171082D01*
X135113122Y-111606511D02*
X135094980Y-111570225D01*
X135076837Y-111552082D01*
X135040551Y-111533940D01*
X135022408Y-111533940D01*
X134986122Y-111552082D01*
X134967980Y-111570225D01*
X134949837Y-111606511D01*
X134949837Y-111679082D01*
X134967980Y-111715368D01*
X134986122Y-111733511D01*
X135022408Y-111751654D01*
X135040551Y-111751654D01*
X135076837Y-111733511D01*
X135094980Y-111715368D01*
X135113122Y-111679082D01*
X135113122Y-111606511D01*
X135131265Y-111570225D01*
X135149408Y-111552082D01*
X135185694Y-111533940D01*
X135258265Y-111533940D01*
X135294551Y-111552082D01*
X135312694Y-111570225D01*
X135330837Y-111606511D01*
X135330837Y-111679082D01*
X135312694Y-111715368D01*
X135294551Y-111733511D01*
X135258265Y-111751654D01*
X135185694Y-111751654D01*
X135149408Y-111733511D01*
X135131265Y-111715368D01*
X135113122Y-111679082D01*
%TO.C,C257*%
X130001917Y-83818911D02*
X130020060Y-83837054D01*
X130074488Y-83855197D01*
X130110774Y-83855197D01*
X130165202Y-83837054D01*
X130201488Y-83800768D01*
X130219631Y-83764482D01*
X130237774Y-83691911D01*
X130237774Y-83637482D01*
X130219631Y-83564911D01*
X130201488Y-83528625D01*
X130165202Y-83492340D01*
X130110774Y-83474197D01*
X130074488Y-83474197D01*
X130020060Y-83492340D01*
X130001917Y-83510482D01*
X129856774Y-83510482D02*
X129838631Y-83492340D01*
X129802345Y-83474197D01*
X129711631Y-83474197D01*
X129675345Y-83492340D01*
X129657202Y-83510482D01*
X129639060Y-83546768D01*
X129639060Y-83583054D01*
X129657202Y-83637482D01*
X129874917Y-83855197D01*
X129639060Y-83855197D01*
X129294345Y-83474197D02*
X129475774Y-83474197D01*
X129493917Y-83655625D01*
X129475774Y-83637482D01*
X129439488Y-83619340D01*
X129348774Y-83619340D01*
X129312488Y-83637482D01*
X129294345Y-83655625D01*
X129276202Y-83691911D01*
X129276202Y-83782625D01*
X129294345Y-83818911D01*
X129312488Y-83837054D01*
X129348774Y-83855197D01*
X129439488Y-83855197D01*
X129475774Y-83837054D01*
X129493917Y-83818911D01*
X129149202Y-83474197D02*
X128895202Y-83474197D01*
X129058488Y-83855197D01*
%TO.C,C255*%
X146577957Y-96452871D02*
X146596100Y-96471014D01*
X146650528Y-96489157D01*
X146686814Y-96489157D01*
X146741242Y-96471014D01*
X146777528Y-96434728D01*
X146795671Y-96398442D01*
X146813814Y-96325871D01*
X146813814Y-96271442D01*
X146795671Y-96198871D01*
X146777528Y-96162585D01*
X146741242Y-96126300D01*
X146686814Y-96108157D01*
X146650528Y-96108157D01*
X146596100Y-96126300D01*
X146577957Y-96144442D01*
X146432814Y-96144442D02*
X146414671Y-96126300D01*
X146378385Y-96108157D01*
X146287671Y-96108157D01*
X146251385Y-96126300D01*
X146233242Y-96144442D01*
X146215100Y-96180728D01*
X146215100Y-96217014D01*
X146233242Y-96271442D01*
X146450957Y-96489157D01*
X146215100Y-96489157D01*
X145870385Y-96108157D02*
X146051814Y-96108157D01*
X146069957Y-96289585D01*
X146051814Y-96271442D01*
X146015528Y-96253300D01*
X145924814Y-96253300D01*
X145888528Y-96271442D01*
X145870385Y-96289585D01*
X145852242Y-96325871D01*
X145852242Y-96416585D01*
X145870385Y-96452871D01*
X145888528Y-96471014D01*
X145924814Y-96489157D01*
X146015528Y-96489157D01*
X146051814Y-96471014D01*
X146069957Y-96452871D01*
X145507528Y-96108157D02*
X145688957Y-96108157D01*
X145707100Y-96289585D01*
X145688957Y-96271442D01*
X145652671Y-96253300D01*
X145561957Y-96253300D01*
X145525671Y-96271442D01*
X145507528Y-96289585D01*
X145489385Y-96325871D01*
X145489385Y-96416585D01*
X145507528Y-96452871D01*
X145525671Y-96471014D01*
X145561957Y-96489157D01*
X145652671Y-96489157D01*
X145688957Y-96471014D01*
X145707100Y-96452871D01*
%TO.C,C254*%
X146577957Y-101532871D02*
X146596100Y-101551014D01*
X146650528Y-101569157D01*
X146686814Y-101569157D01*
X146741242Y-101551014D01*
X146777528Y-101514728D01*
X146795671Y-101478442D01*
X146813814Y-101405871D01*
X146813814Y-101351442D01*
X146795671Y-101278871D01*
X146777528Y-101242585D01*
X146741242Y-101206300D01*
X146686814Y-101188157D01*
X146650528Y-101188157D01*
X146596100Y-101206300D01*
X146577957Y-101224442D01*
X146432814Y-101224442D02*
X146414671Y-101206300D01*
X146378385Y-101188157D01*
X146287671Y-101188157D01*
X146251385Y-101206300D01*
X146233242Y-101224442D01*
X146215100Y-101260728D01*
X146215100Y-101297014D01*
X146233242Y-101351442D01*
X146450957Y-101569157D01*
X146215100Y-101569157D01*
X145870385Y-101188157D02*
X146051814Y-101188157D01*
X146069957Y-101369585D01*
X146051814Y-101351442D01*
X146015528Y-101333300D01*
X145924814Y-101333300D01*
X145888528Y-101351442D01*
X145870385Y-101369585D01*
X145852242Y-101405871D01*
X145852242Y-101496585D01*
X145870385Y-101532871D01*
X145888528Y-101551014D01*
X145924814Y-101569157D01*
X146015528Y-101569157D01*
X146051814Y-101551014D01*
X146069957Y-101532871D01*
X145525671Y-101315157D02*
X145525671Y-101569157D01*
X145616385Y-101170014D02*
X145707100Y-101442157D01*
X145471242Y-101442157D01*
%TO.C,C253*%
X123554757Y-99539271D02*
X123572900Y-99557414D01*
X123627328Y-99575557D01*
X123663614Y-99575557D01*
X123718042Y-99557414D01*
X123754328Y-99521128D01*
X123772471Y-99484842D01*
X123790614Y-99412271D01*
X123790614Y-99357842D01*
X123772471Y-99285271D01*
X123754328Y-99248985D01*
X123718042Y-99212700D01*
X123663614Y-99194557D01*
X123627328Y-99194557D01*
X123572900Y-99212700D01*
X123554757Y-99230842D01*
X123409614Y-99230842D02*
X123391471Y-99212700D01*
X123355185Y-99194557D01*
X123264471Y-99194557D01*
X123228185Y-99212700D01*
X123210042Y-99230842D01*
X123191900Y-99267128D01*
X123191900Y-99303414D01*
X123210042Y-99357842D01*
X123427757Y-99575557D01*
X123191900Y-99575557D01*
X122847185Y-99194557D02*
X123028614Y-99194557D01*
X123046757Y-99375985D01*
X123028614Y-99357842D01*
X122992328Y-99339700D01*
X122901614Y-99339700D01*
X122865328Y-99357842D01*
X122847185Y-99375985D01*
X122829042Y-99412271D01*
X122829042Y-99502985D01*
X122847185Y-99539271D01*
X122865328Y-99557414D01*
X122901614Y-99575557D01*
X122992328Y-99575557D01*
X123028614Y-99557414D01*
X123046757Y-99539271D01*
X122702042Y-99194557D02*
X122466185Y-99194557D01*
X122593185Y-99339700D01*
X122538757Y-99339700D01*
X122502471Y-99357842D01*
X122484328Y-99375985D01*
X122466185Y-99412271D01*
X122466185Y-99502985D01*
X122484328Y-99539271D01*
X122502471Y-99557414D01*
X122538757Y-99575557D01*
X122647614Y-99575557D01*
X122683900Y-99557414D01*
X122702042Y-99539271D01*
%TO.C,C252*%
X121101031Y-93914322D02*
X121119174Y-93896180D01*
X121137317Y-93841751D01*
X121137317Y-93805465D01*
X121119174Y-93751037D01*
X121082888Y-93714751D01*
X121046602Y-93696608D01*
X120974031Y-93678465D01*
X120919602Y-93678465D01*
X120847031Y-93696608D01*
X120810745Y-93714751D01*
X120774460Y-93751037D01*
X120756317Y-93805465D01*
X120756317Y-93841751D01*
X120774460Y-93896180D01*
X120792602Y-93914322D01*
X120792602Y-94059465D02*
X120774460Y-94077608D01*
X120756317Y-94113894D01*
X120756317Y-94204608D01*
X120774460Y-94240894D01*
X120792602Y-94259037D01*
X120828888Y-94277180D01*
X120865174Y-94277180D01*
X120919602Y-94259037D01*
X121137317Y-94041322D01*
X121137317Y-94277180D01*
X120756317Y-94621894D02*
X120756317Y-94440465D01*
X120937745Y-94422322D01*
X120919602Y-94440465D01*
X120901460Y-94476751D01*
X120901460Y-94567465D01*
X120919602Y-94603751D01*
X120937745Y-94621894D01*
X120974031Y-94640037D01*
X121064745Y-94640037D01*
X121101031Y-94621894D01*
X121119174Y-94603751D01*
X121137317Y-94567465D01*
X121137317Y-94476751D01*
X121119174Y-94440465D01*
X121101031Y-94422322D01*
X120792602Y-94785180D02*
X120774460Y-94803322D01*
X120756317Y-94839608D01*
X120756317Y-94930322D01*
X120774460Y-94966608D01*
X120792602Y-94984751D01*
X120828888Y-95002894D01*
X120865174Y-95002894D01*
X120919602Y-94984751D01*
X121137317Y-94767037D01*
X121137317Y-95002894D01*
%TO.C,C251*%
X132531757Y-83818911D02*
X132549900Y-83837054D01*
X132604328Y-83855197D01*
X132640614Y-83855197D01*
X132695042Y-83837054D01*
X132731328Y-83800768D01*
X132749471Y-83764482D01*
X132767614Y-83691911D01*
X132767614Y-83637482D01*
X132749471Y-83564911D01*
X132731328Y-83528625D01*
X132695042Y-83492340D01*
X132640614Y-83474197D01*
X132604328Y-83474197D01*
X132549900Y-83492340D01*
X132531757Y-83510482D01*
X132386614Y-83510482D02*
X132368471Y-83492340D01*
X132332185Y-83474197D01*
X132241471Y-83474197D01*
X132205185Y-83492340D01*
X132187042Y-83510482D01*
X132168900Y-83546768D01*
X132168900Y-83583054D01*
X132187042Y-83637482D01*
X132404757Y-83855197D01*
X132168900Y-83855197D01*
X131824185Y-83474197D02*
X132005614Y-83474197D01*
X132023757Y-83655625D01*
X132005614Y-83637482D01*
X131969328Y-83619340D01*
X131878614Y-83619340D01*
X131842328Y-83637482D01*
X131824185Y-83655625D01*
X131806042Y-83691911D01*
X131806042Y-83782625D01*
X131824185Y-83818911D01*
X131842328Y-83837054D01*
X131878614Y-83855197D01*
X131969328Y-83855197D01*
X132005614Y-83837054D01*
X132023757Y-83818911D01*
X131443185Y-83855197D02*
X131660900Y-83855197D01*
X131552042Y-83855197D02*
X131552042Y-83474197D01*
X131588328Y-83528625D01*
X131624614Y-83564911D01*
X131660900Y-83583054D01*
%TO.C,C250*%
X140116197Y-83844311D02*
X140134340Y-83862454D01*
X140188768Y-83880597D01*
X140225054Y-83880597D01*
X140279482Y-83862454D01*
X140315768Y-83826168D01*
X140333911Y-83789882D01*
X140352054Y-83717311D01*
X140352054Y-83662882D01*
X140333911Y-83590311D01*
X140315768Y-83554025D01*
X140279482Y-83517740D01*
X140225054Y-83499597D01*
X140188768Y-83499597D01*
X140134340Y-83517740D01*
X140116197Y-83535882D01*
X139971054Y-83535882D02*
X139952911Y-83517740D01*
X139916625Y-83499597D01*
X139825911Y-83499597D01*
X139789625Y-83517740D01*
X139771482Y-83535882D01*
X139753340Y-83572168D01*
X139753340Y-83608454D01*
X139771482Y-83662882D01*
X139989197Y-83880597D01*
X139753340Y-83880597D01*
X139408625Y-83499597D02*
X139590054Y-83499597D01*
X139608197Y-83681025D01*
X139590054Y-83662882D01*
X139553768Y-83644740D01*
X139463054Y-83644740D01*
X139426768Y-83662882D01*
X139408625Y-83681025D01*
X139390482Y-83717311D01*
X139390482Y-83808025D01*
X139408625Y-83844311D01*
X139426768Y-83862454D01*
X139463054Y-83880597D01*
X139553768Y-83880597D01*
X139590054Y-83862454D01*
X139608197Y-83844311D01*
X139154625Y-83499597D02*
X139118340Y-83499597D01*
X139082054Y-83517740D01*
X139063911Y-83535882D01*
X139045768Y-83572168D01*
X139027625Y-83644740D01*
X139027625Y-83735454D01*
X139045768Y-83808025D01*
X139063911Y-83844311D01*
X139082054Y-83862454D01*
X139118340Y-83880597D01*
X139154625Y-83880597D01*
X139190911Y-83862454D01*
X139209054Y-83844311D01*
X139227197Y-83808025D01*
X139245340Y-83735454D01*
X139245340Y-83644740D01*
X139227197Y-83572168D01*
X139209054Y-83535882D01*
X139190911Y-83517740D01*
X139154625Y-83499597D01*
%TO.C,C249*%
X139369437Y-109203671D02*
X139387580Y-109221814D01*
X139442008Y-109239957D01*
X139478294Y-109239957D01*
X139532722Y-109221814D01*
X139569008Y-109185528D01*
X139587151Y-109149242D01*
X139605294Y-109076671D01*
X139605294Y-109022242D01*
X139587151Y-108949671D01*
X139569008Y-108913385D01*
X139532722Y-108877100D01*
X139478294Y-108858957D01*
X139442008Y-108858957D01*
X139387580Y-108877100D01*
X139369437Y-108895242D01*
X139224294Y-108895242D02*
X139206151Y-108877100D01*
X139169865Y-108858957D01*
X139079151Y-108858957D01*
X139042865Y-108877100D01*
X139024722Y-108895242D01*
X139006580Y-108931528D01*
X139006580Y-108967814D01*
X139024722Y-109022242D01*
X139242437Y-109239957D01*
X139006580Y-109239957D01*
X138680008Y-108985957D02*
X138680008Y-109239957D01*
X138770722Y-108840814D02*
X138861437Y-109112957D01*
X138625580Y-109112957D01*
X138462294Y-109239957D02*
X138389722Y-109239957D01*
X138353437Y-109221814D01*
X138335294Y-109203671D01*
X138299008Y-109149242D01*
X138280865Y-109076671D01*
X138280865Y-108931528D01*
X138299008Y-108895242D01*
X138317151Y-108877100D01*
X138353437Y-108858957D01*
X138426008Y-108858957D01*
X138462294Y-108877100D01*
X138480437Y-108895242D01*
X138498580Y-108931528D01*
X138498580Y-109022242D01*
X138480437Y-109058528D01*
X138462294Y-109076671D01*
X138426008Y-109094814D01*
X138353437Y-109094814D01*
X138317151Y-109076671D01*
X138299008Y-109058528D01*
X138280865Y-109022242D01*
%TO.C,C248*%
X130281317Y-109300191D02*
X130299460Y-109318334D01*
X130353888Y-109336477D01*
X130390174Y-109336477D01*
X130444602Y-109318334D01*
X130480888Y-109282048D01*
X130499031Y-109245762D01*
X130517174Y-109173191D01*
X130517174Y-109118762D01*
X130499031Y-109046191D01*
X130480888Y-109009905D01*
X130444602Y-108973620D01*
X130390174Y-108955477D01*
X130353888Y-108955477D01*
X130299460Y-108973620D01*
X130281317Y-108991762D01*
X130136174Y-108991762D02*
X130118031Y-108973620D01*
X130081745Y-108955477D01*
X129991031Y-108955477D01*
X129954745Y-108973620D01*
X129936602Y-108991762D01*
X129918460Y-109028048D01*
X129918460Y-109064334D01*
X129936602Y-109118762D01*
X130154317Y-109336477D01*
X129918460Y-109336477D01*
X129591888Y-109082477D02*
X129591888Y-109336477D01*
X129682602Y-108937334D02*
X129773317Y-109209477D01*
X129537460Y-109209477D01*
X129337888Y-109118762D02*
X129374174Y-109100620D01*
X129392317Y-109082477D01*
X129410460Y-109046191D01*
X129410460Y-109028048D01*
X129392317Y-108991762D01*
X129374174Y-108973620D01*
X129337888Y-108955477D01*
X129265317Y-108955477D01*
X129229031Y-108973620D01*
X129210888Y-108991762D01*
X129192745Y-109028048D01*
X129192745Y-109046191D01*
X129210888Y-109082477D01*
X129229031Y-109100620D01*
X129265317Y-109118762D01*
X129337888Y-109118762D01*
X129374174Y-109136905D01*
X129392317Y-109155048D01*
X129410460Y-109191334D01*
X129410460Y-109263905D01*
X129392317Y-109300191D01*
X129374174Y-109318334D01*
X129337888Y-109336477D01*
X129265317Y-109336477D01*
X129229031Y-109318334D01*
X129210888Y-109300191D01*
X129192745Y-109263905D01*
X129192745Y-109191334D01*
X129210888Y-109155048D01*
X129229031Y-109136905D01*
X129265317Y-109118762D01*
%TO.C,C247*%
X151763911Y-92344602D02*
X151782054Y-92326460D01*
X151800197Y-92272031D01*
X151800197Y-92235745D01*
X151782054Y-92181317D01*
X151745768Y-92145031D01*
X151709482Y-92126888D01*
X151636911Y-92108745D01*
X151582482Y-92108745D01*
X151509911Y-92126888D01*
X151473625Y-92145031D01*
X151437340Y-92181317D01*
X151419197Y-92235745D01*
X151419197Y-92272031D01*
X151437340Y-92326460D01*
X151455482Y-92344602D01*
X151455482Y-92489745D02*
X151437340Y-92507888D01*
X151419197Y-92544174D01*
X151419197Y-92634888D01*
X151437340Y-92671174D01*
X151455482Y-92689317D01*
X151491768Y-92707460D01*
X151528054Y-92707460D01*
X151582482Y-92689317D01*
X151800197Y-92471602D01*
X151800197Y-92707460D01*
X151546197Y-93034031D02*
X151800197Y-93034031D01*
X151401054Y-92943317D02*
X151673197Y-92852602D01*
X151673197Y-93088460D01*
X151419197Y-93197317D02*
X151419197Y-93451317D01*
X151800197Y-93288031D01*
%TO.C,C246*%
X124449477Y-85957591D02*
X124467620Y-85975734D01*
X124522048Y-85993877D01*
X124558334Y-85993877D01*
X124612762Y-85975734D01*
X124649048Y-85939448D01*
X124667191Y-85903162D01*
X124685334Y-85830591D01*
X124685334Y-85776162D01*
X124667191Y-85703591D01*
X124649048Y-85667305D01*
X124612762Y-85631020D01*
X124558334Y-85612877D01*
X124522048Y-85612877D01*
X124467620Y-85631020D01*
X124449477Y-85649162D01*
X124304334Y-85649162D02*
X124286191Y-85631020D01*
X124249905Y-85612877D01*
X124159191Y-85612877D01*
X124122905Y-85631020D01*
X124104762Y-85649162D01*
X124086620Y-85685448D01*
X124086620Y-85721734D01*
X124104762Y-85776162D01*
X124322477Y-85993877D01*
X124086620Y-85993877D01*
X123760048Y-85739877D02*
X123760048Y-85993877D01*
X123850762Y-85594734D02*
X123941477Y-85866877D01*
X123705620Y-85866877D01*
X123397191Y-85612877D02*
X123469762Y-85612877D01*
X123506048Y-85631020D01*
X123524191Y-85649162D01*
X123560477Y-85703591D01*
X123578620Y-85776162D01*
X123578620Y-85921305D01*
X123560477Y-85957591D01*
X123542334Y-85975734D01*
X123506048Y-85993877D01*
X123433477Y-85993877D01*
X123397191Y-85975734D01*
X123379048Y-85957591D01*
X123360905Y-85921305D01*
X123360905Y-85830591D01*
X123379048Y-85794305D01*
X123397191Y-85776162D01*
X123433477Y-85758020D01*
X123506048Y-85758020D01*
X123542334Y-85776162D01*
X123560477Y-85794305D01*
X123578620Y-85830591D01*
%TO.C,C245*%
X118042871Y-87772602D02*
X118061014Y-87754460D01*
X118079157Y-87700031D01*
X118079157Y-87663745D01*
X118061014Y-87609317D01*
X118024728Y-87573031D01*
X117988442Y-87554888D01*
X117915871Y-87536745D01*
X117861442Y-87536745D01*
X117788871Y-87554888D01*
X117752585Y-87573031D01*
X117716300Y-87609317D01*
X117698157Y-87663745D01*
X117698157Y-87700031D01*
X117716300Y-87754460D01*
X117734442Y-87772602D01*
X117734442Y-87917745D02*
X117716300Y-87935888D01*
X117698157Y-87972174D01*
X117698157Y-88062888D01*
X117716300Y-88099174D01*
X117734442Y-88117317D01*
X117770728Y-88135460D01*
X117807014Y-88135460D01*
X117861442Y-88117317D01*
X118079157Y-87899602D01*
X118079157Y-88135460D01*
X117825157Y-88462031D02*
X118079157Y-88462031D01*
X117680014Y-88371317D02*
X117952157Y-88280602D01*
X117952157Y-88516460D01*
X117698157Y-88843031D02*
X117698157Y-88661602D01*
X117879585Y-88643460D01*
X117861442Y-88661602D01*
X117843300Y-88697888D01*
X117843300Y-88788602D01*
X117861442Y-88824888D01*
X117879585Y-88843031D01*
X117915871Y-88861174D01*
X118006585Y-88861174D01*
X118042871Y-88843031D01*
X118061014Y-88824888D01*
X118079157Y-88788602D01*
X118079157Y-88697888D01*
X118061014Y-88661602D01*
X118042871Y-88643460D01*
%TO.C,C244*%
X117976831Y-108702202D02*
X117994974Y-108684060D01*
X118013117Y-108629631D01*
X118013117Y-108593345D01*
X117994974Y-108538917D01*
X117958688Y-108502631D01*
X117922402Y-108484488D01*
X117849831Y-108466345D01*
X117795402Y-108466345D01*
X117722831Y-108484488D01*
X117686545Y-108502631D01*
X117650260Y-108538917D01*
X117632117Y-108593345D01*
X117632117Y-108629631D01*
X117650260Y-108684060D01*
X117668402Y-108702202D01*
X117668402Y-108847345D02*
X117650260Y-108865488D01*
X117632117Y-108901774D01*
X117632117Y-108992488D01*
X117650260Y-109028774D01*
X117668402Y-109046917D01*
X117704688Y-109065060D01*
X117740974Y-109065060D01*
X117795402Y-109046917D01*
X118013117Y-108829202D01*
X118013117Y-109065060D01*
X117759117Y-109391631D02*
X118013117Y-109391631D01*
X117613974Y-109300917D02*
X117886117Y-109210202D01*
X117886117Y-109446060D01*
X117759117Y-109754488D02*
X118013117Y-109754488D01*
X117613974Y-109663774D02*
X117886117Y-109573060D01*
X117886117Y-109808917D01*
%TO.C,C243*%
X136824357Y-108345151D02*
X136842500Y-108363294D01*
X136896928Y-108381437D01*
X136933214Y-108381437D01*
X136987642Y-108363294D01*
X137023928Y-108327008D01*
X137042071Y-108290722D01*
X137060214Y-108218151D01*
X137060214Y-108163722D01*
X137042071Y-108091151D01*
X137023928Y-108054865D01*
X136987642Y-108018580D01*
X136933214Y-108000437D01*
X136896928Y-108000437D01*
X136842500Y-108018580D01*
X136824357Y-108036722D01*
X136679214Y-108036722D02*
X136661071Y-108018580D01*
X136624785Y-108000437D01*
X136534071Y-108000437D01*
X136497785Y-108018580D01*
X136479642Y-108036722D01*
X136461500Y-108073008D01*
X136461500Y-108109294D01*
X136479642Y-108163722D01*
X136697357Y-108381437D01*
X136461500Y-108381437D01*
X136134928Y-108127437D02*
X136134928Y-108381437D01*
X136225642Y-107982294D02*
X136316357Y-108254437D01*
X136080500Y-108254437D01*
X135971642Y-108000437D02*
X135735785Y-108000437D01*
X135862785Y-108145580D01*
X135808357Y-108145580D01*
X135772071Y-108163722D01*
X135753928Y-108181865D01*
X135735785Y-108218151D01*
X135735785Y-108308865D01*
X135753928Y-108345151D01*
X135772071Y-108363294D01*
X135808357Y-108381437D01*
X135917214Y-108381437D01*
X135953500Y-108363294D01*
X135971642Y-108345151D01*
%TO.C,C242*%
X137266317Y-89589791D02*
X137284460Y-89607934D01*
X137338888Y-89626077D01*
X137375174Y-89626077D01*
X137429602Y-89607934D01*
X137465888Y-89571648D01*
X137484031Y-89535362D01*
X137502174Y-89462791D01*
X137502174Y-89408362D01*
X137484031Y-89335791D01*
X137465888Y-89299505D01*
X137429602Y-89263220D01*
X137375174Y-89245077D01*
X137338888Y-89245077D01*
X137284460Y-89263220D01*
X137266317Y-89281362D01*
X137121174Y-89281362D02*
X137103031Y-89263220D01*
X137066745Y-89245077D01*
X136976031Y-89245077D01*
X136939745Y-89263220D01*
X136921602Y-89281362D01*
X136903460Y-89317648D01*
X136903460Y-89353934D01*
X136921602Y-89408362D01*
X137139317Y-89626077D01*
X136903460Y-89626077D01*
X136576888Y-89372077D02*
X136576888Y-89626077D01*
X136667602Y-89226934D02*
X136758317Y-89499077D01*
X136522460Y-89499077D01*
X136395460Y-89281362D02*
X136377317Y-89263220D01*
X136341031Y-89245077D01*
X136250317Y-89245077D01*
X136214031Y-89263220D01*
X136195888Y-89281362D01*
X136177745Y-89317648D01*
X136177745Y-89353934D01*
X136195888Y-89408362D01*
X136413602Y-89626077D01*
X136177745Y-89626077D01*
%TO.C,C241*%
X126206431Y-98547282D02*
X126224574Y-98529140D01*
X126242717Y-98474711D01*
X126242717Y-98438425D01*
X126224574Y-98383997D01*
X126188288Y-98347711D01*
X126152002Y-98329568D01*
X126079431Y-98311425D01*
X126025002Y-98311425D01*
X125952431Y-98329568D01*
X125916145Y-98347711D01*
X125879860Y-98383997D01*
X125861717Y-98438425D01*
X125861717Y-98474711D01*
X125879860Y-98529140D01*
X125898002Y-98547282D01*
X125898002Y-98692425D02*
X125879860Y-98710568D01*
X125861717Y-98746854D01*
X125861717Y-98837568D01*
X125879860Y-98873854D01*
X125898002Y-98891997D01*
X125934288Y-98910140D01*
X125970574Y-98910140D01*
X126025002Y-98891997D01*
X126242717Y-98674282D01*
X126242717Y-98910140D01*
X125988717Y-99236711D02*
X126242717Y-99236711D01*
X125843574Y-99145997D02*
X126115717Y-99055282D01*
X126115717Y-99291140D01*
X126242717Y-99635854D02*
X126242717Y-99418140D01*
X126242717Y-99526997D02*
X125861717Y-99526997D01*
X125916145Y-99490711D01*
X125952431Y-99454425D01*
X125970574Y-99418140D01*
%TO.C,C240*%
X142138037Y-106785591D02*
X142156180Y-106803734D01*
X142210608Y-106821877D01*
X142246894Y-106821877D01*
X142301322Y-106803734D01*
X142337608Y-106767448D01*
X142355751Y-106731162D01*
X142373894Y-106658591D01*
X142373894Y-106604162D01*
X142355751Y-106531591D01*
X142337608Y-106495305D01*
X142301322Y-106459020D01*
X142246894Y-106440877D01*
X142210608Y-106440877D01*
X142156180Y-106459020D01*
X142138037Y-106477162D01*
X141992894Y-106477162D02*
X141974751Y-106459020D01*
X141938465Y-106440877D01*
X141847751Y-106440877D01*
X141811465Y-106459020D01*
X141793322Y-106477162D01*
X141775180Y-106513448D01*
X141775180Y-106549734D01*
X141793322Y-106604162D01*
X142011037Y-106821877D01*
X141775180Y-106821877D01*
X141448608Y-106567877D02*
X141448608Y-106821877D01*
X141539322Y-106422734D02*
X141630037Y-106694877D01*
X141394180Y-106694877D01*
X141176465Y-106440877D02*
X141140180Y-106440877D01*
X141103894Y-106459020D01*
X141085751Y-106477162D01*
X141067608Y-106513448D01*
X141049465Y-106586020D01*
X141049465Y-106676734D01*
X141067608Y-106749305D01*
X141085751Y-106785591D01*
X141103894Y-106803734D01*
X141140180Y-106821877D01*
X141176465Y-106821877D01*
X141212751Y-106803734D01*
X141230894Y-106785591D01*
X141249037Y-106749305D01*
X141267180Y-106676734D01*
X141267180Y-106586020D01*
X141249037Y-106513448D01*
X141230894Y-106477162D01*
X141212751Y-106459020D01*
X141176465Y-106440877D01*
%TO.C,C239*%
X148019951Y-104821082D02*
X148038094Y-104802940D01*
X148056237Y-104748511D01*
X148056237Y-104712225D01*
X148038094Y-104657797D01*
X148001808Y-104621511D01*
X147965522Y-104603368D01*
X147892951Y-104585225D01*
X147838522Y-104585225D01*
X147765951Y-104603368D01*
X147729665Y-104621511D01*
X147693380Y-104657797D01*
X147675237Y-104712225D01*
X147675237Y-104748511D01*
X147693380Y-104802940D01*
X147711522Y-104821082D01*
X147711522Y-104966225D02*
X147693380Y-104984368D01*
X147675237Y-105020654D01*
X147675237Y-105111368D01*
X147693380Y-105147654D01*
X147711522Y-105165797D01*
X147747808Y-105183940D01*
X147784094Y-105183940D01*
X147838522Y-105165797D01*
X148056237Y-104948082D01*
X148056237Y-105183940D01*
X147675237Y-105310940D02*
X147675237Y-105546797D01*
X147820380Y-105419797D01*
X147820380Y-105474225D01*
X147838522Y-105510511D01*
X147856665Y-105528654D01*
X147892951Y-105546797D01*
X147983665Y-105546797D01*
X148019951Y-105528654D01*
X148038094Y-105510511D01*
X148056237Y-105474225D01*
X148056237Y-105365368D01*
X148038094Y-105329082D01*
X148019951Y-105310940D01*
X148056237Y-105728225D02*
X148056237Y-105800797D01*
X148038094Y-105837082D01*
X148019951Y-105855225D01*
X147965522Y-105891511D01*
X147892951Y-105909654D01*
X147747808Y-105909654D01*
X147711522Y-105891511D01*
X147693380Y-105873368D01*
X147675237Y-105837082D01*
X147675237Y-105764511D01*
X147693380Y-105728225D01*
X147711522Y-105710082D01*
X147747808Y-105691940D01*
X147838522Y-105691940D01*
X147874808Y-105710082D01*
X147892951Y-105728225D01*
X147911094Y-105764511D01*
X147911094Y-105837082D01*
X147892951Y-105873368D01*
X147874808Y-105891511D01*
X147838522Y-105909654D01*
%TO.C,C238*%
X148055511Y-102941482D02*
X148073654Y-102923340D01*
X148091797Y-102868911D01*
X148091797Y-102832625D01*
X148073654Y-102778197D01*
X148037368Y-102741911D01*
X148001082Y-102723768D01*
X147928511Y-102705625D01*
X147874082Y-102705625D01*
X147801511Y-102723768D01*
X147765225Y-102741911D01*
X147728940Y-102778197D01*
X147710797Y-102832625D01*
X147710797Y-102868911D01*
X147728940Y-102923340D01*
X147747082Y-102941482D01*
X147747082Y-103086625D02*
X147728940Y-103104768D01*
X147710797Y-103141054D01*
X147710797Y-103231768D01*
X147728940Y-103268054D01*
X147747082Y-103286197D01*
X147783368Y-103304340D01*
X147819654Y-103304340D01*
X147874082Y-103286197D01*
X148091797Y-103068482D01*
X148091797Y-103304340D01*
X147710797Y-103431340D02*
X147710797Y-103667197D01*
X147855940Y-103540197D01*
X147855940Y-103594625D01*
X147874082Y-103630911D01*
X147892225Y-103649054D01*
X147928511Y-103667197D01*
X148019225Y-103667197D01*
X148055511Y-103649054D01*
X148073654Y-103630911D01*
X148091797Y-103594625D01*
X148091797Y-103485768D01*
X148073654Y-103449482D01*
X148055511Y-103431340D01*
X147874082Y-103884911D02*
X147855940Y-103848625D01*
X147837797Y-103830482D01*
X147801511Y-103812340D01*
X147783368Y-103812340D01*
X147747082Y-103830482D01*
X147728940Y-103848625D01*
X147710797Y-103884911D01*
X147710797Y-103957482D01*
X147728940Y-103993768D01*
X147747082Y-104011911D01*
X147783368Y-104030054D01*
X147801511Y-104030054D01*
X147837797Y-104011911D01*
X147855940Y-103993768D01*
X147874082Y-103957482D01*
X147874082Y-103884911D01*
X147892225Y-103848625D01*
X147910368Y-103830482D01*
X147946654Y-103812340D01*
X148019225Y-103812340D01*
X148055511Y-103830482D01*
X148073654Y-103848625D01*
X148091797Y-103884911D01*
X148091797Y-103957482D01*
X148073654Y-103993768D01*
X148055511Y-104011911D01*
X148019225Y-104030054D01*
X147946654Y-104030054D01*
X147910368Y-104011911D01*
X147892225Y-103993768D01*
X147874082Y-103957482D01*
%TO.C,C237*%
X139140111Y-96388282D02*
X139158254Y-96370140D01*
X139176397Y-96315711D01*
X139176397Y-96279425D01*
X139158254Y-96224997D01*
X139121968Y-96188711D01*
X139085682Y-96170568D01*
X139013111Y-96152425D01*
X138958682Y-96152425D01*
X138886111Y-96170568D01*
X138849825Y-96188711D01*
X138813540Y-96224997D01*
X138795397Y-96279425D01*
X138795397Y-96315711D01*
X138813540Y-96370140D01*
X138831682Y-96388282D01*
X138831682Y-96533425D02*
X138813540Y-96551568D01*
X138795397Y-96587854D01*
X138795397Y-96678568D01*
X138813540Y-96714854D01*
X138831682Y-96732997D01*
X138867968Y-96751140D01*
X138904254Y-96751140D01*
X138958682Y-96732997D01*
X139176397Y-96515282D01*
X139176397Y-96751140D01*
X138795397Y-96878140D02*
X138795397Y-97113997D01*
X138940540Y-96986997D01*
X138940540Y-97041425D01*
X138958682Y-97077711D01*
X138976825Y-97095854D01*
X139013111Y-97113997D01*
X139103825Y-97113997D01*
X139140111Y-97095854D01*
X139158254Y-97077711D01*
X139176397Y-97041425D01*
X139176397Y-96932568D01*
X139158254Y-96896282D01*
X139140111Y-96878140D01*
X138795397Y-97240997D02*
X138795397Y-97494997D01*
X139176397Y-97331711D01*
%TO.C,C236*%
X138998597Y-108345151D02*
X139016740Y-108363294D01*
X139071168Y-108381437D01*
X139107454Y-108381437D01*
X139161882Y-108363294D01*
X139198168Y-108327008D01*
X139216311Y-108290722D01*
X139234454Y-108218151D01*
X139234454Y-108163722D01*
X139216311Y-108091151D01*
X139198168Y-108054865D01*
X139161882Y-108018580D01*
X139107454Y-108000437D01*
X139071168Y-108000437D01*
X139016740Y-108018580D01*
X138998597Y-108036722D01*
X138853454Y-108036722D02*
X138835311Y-108018580D01*
X138799025Y-108000437D01*
X138708311Y-108000437D01*
X138672025Y-108018580D01*
X138653882Y-108036722D01*
X138635740Y-108073008D01*
X138635740Y-108109294D01*
X138653882Y-108163722D01*
X138871597Y-108381437D01*
X138635740Y-108381437D01*
X138508740Y-108000437D02*
X138272882Y-108000437D01*
X138399882Y-108145580D01*
X138345454Y-108145580D01*
X138309168Y-108163722D01*
X138291025Y-108181865D01*
X138272882Y-108218151D01*
X138272882Y-108308865D01*
X138291025Y-108345151D01*
X138309168Y-108363294D01*
X138345454Y-108381437D01*
X138454311Y-108381437D01*
X138490597Y-108363294D01*
X138508740Y-108345151D01*
X137946311Y-108000437D02*
X138018882Y-108000437D01*
X138055168Y-108018580D01*
X138073311Y-108036722D01*
X138109597Y-108091151D01*
X138127740Y-108163722D01*
X138127740Y-108308865D01*
X138109597Y-108345151D01*
X138091454Y-108363294D01*
X138055168Y-108381437D01*
X137982597Y-108381437D01*
X137946311Y-108363294D01*
X137928168Y-108345151D01*
X137910025Y-108308865D01*
X137910025Y-108218151D01*
X137928168Y-108181865D01*
X137946311Y-108163722D01*
X137982597Y-108145580D01*
X138055168Y-108145580D01*
X138091454Y-108163722D01*
X138109597Y-108181865D01*
X138127740Y-108218151D01*
%TO.C,C235*%
X126191191Y-102601122D02*
X126209334Y-102582980D01*
X126227477Y-102528551D01*
X126227477Y-102492265D01*
X126209334Y-102437837D01*
X126173048Y-102401551D01*
X126136762Y-102383408D01*
X126064191Y-102365265D01*
X126009762Y-102365265D01*
X125937191Y-102383408D01*
X125900905Y-102401551D01*
X125864620Y-102437837D01*
X125846477Y-102492265D01*
X125846477Y-102528551D01*
X125864620Y-102582980D01*
X125882762Y-102601122D01*
X125882762Y-102746265D02*
X125864620Y-102764408D01*
X125846477Y-102800694D01*
X125846477Y-102891408D01*
X125864620Y-102927694D01*
X125882762Y-102945837D01*
X125919048Y-102963980D01*
X125955334Y-102963980D01*
X126009762Y-102945837D01*
X126227477Y-102728122D01*
X126227477Y-102963980D01*
X125846477Y-103090980D02*
X125846477Y-103326837D01*
X125991620Y-103199837D01*
X125991620Y-103254265D01*
X126009762Y-103290551D01*
X126027905Y-103308694D01*
X126064191Y-103326837D01*
X126154905Y-103326837D01*
X126191191Y-103308694D01*
X126209334Y-103290551D01*
X126227477Y-103254265D01*
X126227477Y-103145408D01*
X126209334Y-103109122D01*
X126191191Y-103090980D01*
X125846477Y-103671551D02*
X125846477Y-103490122D01*
X126027905Y-103471980D01*
X126009762Y-103490122D01*
X125991620Y-103526408D01*
X125991620Y-103617122D01*
X126009762Y-103653408D01*
X126027905Y-103671551D01*
X126064191Y-103689694D01*
X126154905Y-103689694D01*
X126191191Y-103671551D01*
X126209334Y-103653408D01*
X126227477Y-103617122D01*
X126227477Y-103526408D01*
X126209334Y-103490122D01*
X126191191Y-103471980D01*
%TO.C,C234*%
X127832757Y-107019271D02*
X127850900Y-107037414D01*
X127905328Y-107055557D01*
X127941614Y-107055557D01*
X127996042Y-107037414D01*
X128032328Y-107001128D01*
X128050471Y-106964842D01*
X128068614Y-106892271D01*
X128068614Y-106837842D01*
X128050471Y-106765271D01*
X128032328Y-106728985D01*
X127996042Y-106692700D01*
X127941614Y-106674557D01*
X127905328Y-106674557D01*
X127850900Y-106692700D01*
X127832757Y-106710842D01*
X127687614Y-106710842D02*
X127669471Y-106692700D01*
X127633185Y-106674557D01*
X127542471Y-106674557D01*
X127506185Y-106692700D01*
X127488042Y-106710842D01*
X127469900Y-106747128D01*
X127469900Y-106783414D01*
X127488042Y-106837842D01*
X127705757Y-107055557D01*
X127469900Y-107055557D01*
X127342900Y-106674557D02*
X127107042Y-106674557D01*
X127234042Y-106819700D01*
X127179614Y-106819700D01*
X127143328Y-106837842D01*
X127125185Y-106855985D01*
X127107042Y-106892271D01*
X127107042Y-106982985D01*
X127125185Y-107019271D01*
X127143328Y-107037414D01*
X127179614Y-107055557D01*
X127288471Y-107055557D01*
X127324757Y-107037414D01*
X127342900Y-107019271D01*
X126780471Y-106801557D02*
X126780471Y-107055557D01*
X126871185Y-106656414D02*
X126961900Y-106928557D01*
X126726042Y-106928557D01*
%TO.C,C233*%
X117992071Y-106954682D02*
X118010214Y-106936540D01*
X118028357Y-106882111D01*
X118028357Y-106845825D01*
X118010214Y-106791397D01*
X117973928Y-106755111D01*
X117937642Y-106736968D01*
X117865071Y-106718825D01*
X117810642Y-106718825D01*
X117738071Y-106736968D01*
X117701785Y-106755111D01*
X117665500Y-106791397D01*
X117647357Y-106845825D01*
X117647357Y-106882111D01*
X117665500Y-106936540D01*
X117683642Y-106954682D01*
X117683642Y-107099825D02*
X117665500Y-107117968D01*
X117647357Y-107154254D01*
X117647357Y-107244968D01*
X117665500Y-107281254D01*
X117683642Y-107299397D01*
X117719928Y-107317540D01*
X117756214Y-107317540D01*
X117810642Y-107299397D01*
X118028357Y-107081682D01*
X118028357Y-107317540D01*
X117647357Y-107444540D02*
X117647357Y-107680397D01*
X117792500Y-107553397D01*
X117792500Y-107607825D01*
X117810642Y-107644111D01*
X117828785Y-107662254D01*
X117865071Y-107680397D01*
X117955785Y-107680397D01*
X117992071Y-107662254D01*
X118010214Y-107644111D01*
X118028357Y-107607825D01*
X118028357Y-107498968D01*
X118010214Y-107462682D01*
X117992071Y-107444540D01*
X117647357Y-107807397D02*
X117647357Y-108043254D01*
X117792500Y-107916254D01*
X117792500Y-107970682D01*
X117810642Y-108006968D01*
X117828785Y-108025111D01*
X117865071Y-108043254D01*
X117955785Y-108043254D01*
X117992071Y-108025111D01*
X118010214Y-108006968D01*
X118028357Y-107970682D01*
X118028357Y-107861825D01*
X118010214Y-107825540D01*
X117992071Y-107807397D01*
%TO.C,C232*%
X118002231Y-89733482D02*
X118020374Y-89715340D01*
X118038517Y-89660911D01*
X118038517Y-89624625D01*
X118020374Y-89570197D01*
X117984088Y-89533911D01*
X117947802Y-89515768D01*
X117875231Y-89497625D01*
X117820802Y-89497625D01*
X117748231Y-89515768D01*
X117711945Y-89533911D01*
X117675660Y-89570197D01*
X117657517Y-89624625D01*
X117657517Y-89660911D01*
X117675660Y-89715340D01*
X117693802Y-89733482D01*
X117693802Y-89878625D02*
X117675660Y-89896768D01*
X117657517Y-89933054D01*
X117657517Y-90023768D01*
X117675660Y-90060054D01*
X117693802Y-90078197D01*
X117730088Y-90096340D01*
X117766374Y-90096340D01*
X117820802Y-90078197D01*
X118038517Y-89860482D01*
X118038517Y-90096340D01*
X117657517Y-90223340D02*
X117657517Y-90459197D01*
X117802660Y-90332197D01*
X117802660Y-90386625D01*
X117820802Y-90422911D01*
X117838945Y-90441054D01*
X117875231Y-90459197D01*
X117965945Y-90459197D01*
X118002231Y-90441054D01*
X118020374Y-90422911D01*
X118038517Y-90386625D01*
X118038517Y-90277768D01*
X118020374Y-90241482D01*
X118002231Y-90223340D01*
X117693802Y-90604340D02*
X117675660Y-90622482D01*
X117657517Y-90658768D01*
X117657517Y-90749482D01*
X117675660Y-90785768D01*
X117693802Y-90803911D01*
X117730088Y-90822054D01*
X117766374Y-90822054D01*
X117820802Y-90803911D01*
X118038517Y-90586197D01*
X118038517Y-90822054D01*
%TO.C,C231*%
X139129951Y-100411642D02*
X139148094Y-100393500D01*
X139166237Y-100339071D01*
X139166237Y-100302785D01*
X139148094Y-100248357D01*
X139111808Y-100212071D01*
X139075522Y-100193928D01*
X139002951Y-100175785D01*
X138948522Y-100175785D01*
X138875951Y-100193928D01*
X138839665Y-100212071D01*
X138803380Y-100248357D01*
X138785237Y-100302785D01*
X138785237Y-100339071D01*
X138803380Y-100393500D01*
X138821522Y-100411642D01*
X138821522Y-100556785D02*
X138803380Y-100574928D01*
X138785237Y-100611214D01*
X138785237Y-100701928D01*
X138803380Y-100738214D01*
X138821522Y-100756357D01*
X138857808Y-100774500D01*
X138894094Y-100774500D01*
X138948522Y-100756357D01*
X139166237Y-100538642D01*
X139166237Y-100774500D01*
X138785237Y-100901500D02*
X138785237Y-101137357D01*
X138930380Y-101010357D01*
X138930380Y-101064785D01*
X138948522Y-101101071D01*
X138966665Y-101119214D01*
X139002951Y-101137357D01*
X139093665Y-101137357D01*
X139129951Y-101119214D01*
X139148094Y-101101071D01*
X139166237Y-101064785D01*
X139166237Y-100955928D01*
X139148094Y-100919642D01*
X139129951Y-100901500D01*
X139166237Y-101500214D02*
X139166237Y-101282500D01*
X139166237Y-101391357D02*
X138785237Y-101391357D01*
X138839665Y-101355071D01*
X138875951Y-101318785D01*
X138894094Y-101282500D01*
%TO.C,C230*%
X150032357Y-100415271D02*
X150050500Y-100433414D01*
X150104928Y-100451557D01*
X150141214Y-100451557D01*
X150195642Y-100433414D01*
X150231928Y-100397128D01*
X150250071Y-100360842D01*
X150268214Y-100288271D01*
X150268214Y-100233842D01*
X150250071Y-100161271D01*
X150231928Y-100124985D01*
X150195642Y-100088700D01*
X150141214Y-100070557D01*
X150104928Y-100070557D01*
X150050500Y-100088700D01*
X150032357Y-100106842D01*
X149887214Y-100106842D02*
X149869071Y-100088700D01*
X149832785Y-100070557D01*
X149742071Y-100070557D01*
X149705785Y-100088700D01*
X149687642Y-100106842D01*
X149669500Y-100143128D01*
X149669500Y-100179414D01*
X149687642Y-100233842D01*
X149905357Y-100451557D01*
X149669500Y-100451557D01*
X149542500Y-100070557D02*
X149306642Y-100070557D01*
X149433642Y-100215700D01*
X149379214Y-100215700D01*
X149342928Y-100233842D01*
X149324785Y-100251985D01*
X149306642Y-100288271D01*
X149306642Y-100378985D01*
X149324785Y-100415271D01*
X149342928Y-100433414D01*
X149379214Y-100451557D01*
X149488071Y-100451557D01*
X149524357Y-100433414D01*
X149542500Y-100415271D01*
X149070785Y-100070557D02*
X149034500Y-100070557D01*
X148998214Y-100088700D01*
X148980071Y-100106842D01*
X148961928Y-100143128D01*
X148943785Y-100215700D01*
X148943785Y-100306414D01*
X148961928Y-100378985D01*
X148980071Y-100415271D01*
X148998214Y-100433414D01*
X149034500Y-100451557D01*
X149070785Y-100451557D01*
X149107071Y-100433414D01*
X149125214Y-100415271D01*
X149143357Y-100378985D01*
X149161500Y-100306414D01*
X149161500Y-100215700D01*
X149143357Y-100143128D01*
X149125214Y-100106842D01*
X149107071Y-100088700D01*
X149070785Y-100070557D01*
%TO.C,C229*%
X139074071Y-98369482D02*
X139092214Y-98351340D01*
X139110357Y-98296911D01*
X139110357Y-98260625D01*
X139092214Y-98206197D01*
X139055928Y-98169911D01*
X139019642Y-98151768D01*
X138947071Y-98133625D01*
X138892642Y-98133625D01*
X138820071Y-98151768D01*
X138783785Y-98169911D01*
X138747500Y-98206197D01*
X138729357Y-98260625D01*
X138729357Y-98296911D01*
X138747500Y-98351340D01*
X138765642Y-98369482D01*
X138765642Y-98514625D02*
X138747500Y-98532768D01*
X138729357Y-98569054D01*
X138729357Y-98659768D01*
X138747500Y-98696054D01*
X138765642Y-98714197D01*
X138801928Y-98732340D01*
X138838214Y-98732340D01*
X138892642Y-98714197D01*
X139110357Y-98496482D01*
X139110357Y-98732340D01*
X138765642Y-98877482D02*
X138747500Y-98895625D01*
X138729357Y-98931911D01*
X138729357Y-99022625D01*
X138747500Y-99058911D01*
X138765642Y-99077054D01*
X138801928Y-99095197D01*
X138838214Y-99095197D01*
X138892642Y-99077054D01*
X139110357Y-98859340D01*
X139110357Y-99095197D01*
X139110357Y-99276625D02*
X139110357Y-99349197D01*
X139092214Y-99385482D01*
X139074071Y-99403625D01*
X139019642Y-99439911D01*
X138947071Y-99458054D01*
X138801928Y-99458054D01*
X138765642Y-99439911D01*
X138747500Y-99421768D01*
X138729357Y-99385482D01*
X138729357Y-99312911D01*
X138747500Y-99276625D01*
X138765642Y-99258482D01*
X138801928Y-99240340D01*
X138892642Y-99240340D01*
X138928928Y-99258482D01*
X138947071Y-99276625D01*
X138965214Y-99312911D01*
X138965214Y-99385482D01*
X138947071Y-99421768D01*
X138928928Y-99439911D01*
X138892642Y-99458054D01*
%TO.C,C228*%
X151763911Y-94219122D02*
X151782054Y-94200980D01*
X151800197Y-94146551D01*
X151800197Y-94110265D01*
X151782054Y-94055837D01*
X151745768Y-94019551D01*
X151709482Y-94001408D01*
X151636911Y-93983265D01*
X151582482Y-93983265D01*
X151509911Y-94001408D01*
X151473625Y-94019551D01*
X151437340Y-94055837D01*
X151419197Y-94110265D01*
X151419197Y-94146551D01*
X151437340Y-94200980D01*
X151455482Y-94219122D01*
X151455482Y-94364265D02*
X151437340Y-94382408D01*
X151419197Y-94418694D01*
X151419197Y-94509408D01*
X151437340Y-94545694D01*
X151455482Y-94563837D01*
X151491768Y-94581980D01*
X151528054Y-94581980D01*
X151582482Y-94563837D01*
X151800197Y-94346122D01*
X151800197Y-94581980D01*
X151455482Y-94727122D02*
X151437340Y-94745265D01*
X151419197Y-94781551D01*
X151419197Y-94872265D01*
X151437340Y-94908551D01*
X151455482Y-94926694D01*
X151491768Y-94944837D01*
X151528054Y-94944837D01*
X151582482Y-94926694D01*
X151800197Y-94708980D01*
X151800197Y-94944837D01*
X151582482Y-95162551D02*
X151564340Y-95126265D01*
X151546197Y-95108122D01*
X151509911Y-95089980D01*
X151491768Y-95089980D01*
X151455482Y-95108122D01*
X151437340Y-95126265D01*
X151419197Y-95162551D01*
X151419197Y-95235122D01*
X151437340Y-95271408D01*
X151455482Y-95289551D01*
X151491768Y-95307694D01*
X151509911Y-95307694D01*
X151546197Y-95289551D01*
X151564340Y-95271408D01*
X151582482Y-95235122D01*
X151582482Y-95162551D01*
X151600625Y-95126265D01*
X151618768Y-95108122D01*
X151655054Y-95089980D01*
X151727625Y-95089980D01*
X151763911Y-95108122D01*
X151782054Y-95126265D01*
X151800197Y-95162551D01*
X151800197Y-95235122D01*
X151782054Y-95271408D01*
X151763911Y-95289551D01*
X151727625Y-95307694D01*
X151655054Y-95307694D01*
X151618768Y-95289551D01*
X151600625Y-95271408D01*
X151582482Y-95235122D01*
%TO.C,C227*%
X142513957Y-91626871D02*
X142532100Y-91645014D01*
X142586528Y-91663157D01*
X142622814Y-91663157D01*
X142677242Y-91645014D01*
X142713528Y-91608728D01*
X142731671Y-91572442D01*
X142749814Y-91499871D01*
X142749814Y-91445442D01*
X142731671Y-91372871D01*
X142713528Y-91336585D01*
X142677242Y-91300300D01*
X142622814Y-91282157D01*
X142586528Y-91282157D01*
X142532100Y-91300300D01*
X142513957Y-91318442D01*
X142368814Y-91318442D02*
X142350671Y-91300300D01*
X142314385Y-91282157D01*
X142223671Y-91282157D01*
X142187385Y-91300300D01*
X142169242Y-91318442D01*
X142151100Y-91354728D01*
X142151100Y-91391014D01*
X142169242Y-91445442D01*
X142386957Y-91663157D01*
X142151100Y-91663157D01*
X142005957Y-91318442D02*
X141987814Y-91300300D01*
X141951528Y-91282157D01*
X141860814Y-91282157D01*
X141824528Y-91300300D01*
X141806385Y-91318442D01*
X141788242Y-91354728D01*
X141788242Y-91391014D01*
X141806385Y-91445442D01*
X142024100Y-91663157D01*
X141788242Y-91663157D01*
X141661242Y-91282157D02*
X141407242Y-91282157D01*
X141570528Y-91663157D01*
%TO.C,C226*%
X139155351Y-102458882D02*
X139173494Y-102440740D01*
X139191637Y-102386311D01*
X139191637Y-102350025D01*
X139173494Y-102295597D01*
X139137208Y-102259311D01*
X139100922Y-102241168D01*
X139028351Y-102223025D01*
X138973922Y-102223025D01*
X138901351Y-102241168D01*
X138865065Y-102259311D01*
X138828780Y-102295597D01*
X138810637Y-102350025D01*
X138810637Y-102386311D01*
X138828780Y-102440740D01*
X138846922Y-102458882D01*
X138846922Y-102604025D02*
X138828780Y-102622168D01*
X138810637Y-102658454D01*
X138810637Y-102749168D01*
X138828780Y-102785454D01*
X138846922Y-102803597D01*
X138883208Y-102821740D01*
X138919494Y-102821740D01*
X138973922Y-102803597D01*
X139191637Y-102585882D01*
X139191637Y-102821740D01*
X138846922Y-102966882D02*
X138828780Y-102985025D01*
X138810637Y-103021311D01*
X138810637Y-103112025D01*
X138828780Y-103148311D01*
X138846922Y-103166454D01*
X138883208Y-103184597D01*
X138919494Y-103184597D01*
X138973922Y-103166454D01*
X139191637Y-102948740D01*
X139191637Y-103184597D01*
X138810637Y-103511168D02*
X138810637Y-103438597D01*
X138828780Y-103402311D01*
X138846922Y-103384168D01*
X138901351Y-103347882D01*
X138973922Y-103329740D01*
X139119065Y-103329740D01*
X139155351Y-103347882D01*
X139173494Y-103366025D01*
X139191637Y-103402311D01*
X139191637Y-103474882D01*
X139173494Y-103511168D01*
X139155351Y-103529311D01*
X139119065Y-103547454D01*
X139028351Y-103547454D01*
X138992065Y-103529311D01*
X138973922Y-103511168D01*
X138955780Y-103474882D01*
X138955780Y-103402311D01*
X138973922Y-103366025D01*
X138992065Y-103347882D01*
X139028351Y-103329740D01*
%TO.C,C225*%
X132206637Y-108345151D02*
X132224780Y-108363294D01*
X132279208Y-108381437D01*
X132315494Y-108381437D01*
X132369922Y-108363294D01*
X132406208Y-108327008D01*
X132424351Y-108290722D01*
X132442494Y-108218151D01*
X132442494Y-108163722D01*
X132424351Y-108091151D01*
X132406208Y-108054865D01*
X132369922Y-108018580D01*
X132315494Y-108000437D01*
X132279208Y-108000437D01*
X132224780Y-108018580D01*
X132206637Y-108036722D01*
X132061494Y-108036722D02*
X132043351Y-108018580D01*
X132007065Y-108000437D01*
X131916351Y-108000437D01*
X131880065Y-108018580D01*
X131861922Y-108036722D01*
X131843780Y-108073008D01*
X131843780Y-108109294D01*
X131861922Y-108163722D01*
X132079637Y-108381437D01*
X131843780Y-108381437D01*
X131698637Y-108036722D02*
X131680494Y-108018580D01*
X131644208Y-108000437D01*
X131553494Y-108000437D01*
X131517208Y-108018580D01*
X131499065Y-108036722D01*
X131480922Y-108073008D01*
X131480922Y-108109294D01*
X131499065Y-108163722D01*
X131716780Y-108381437D01*
X131480922Y-108381437D01*
X131136208Y-108000437D02*
X131317637Y-108000437D01*
X131335780Y-108181865D01*
X131317637Y-108163722D01*
X131281351Y-108145580D01*
X131190637Y-108145580D01*
X131154351Y-108163722D01*
X131136208Y-108181865D01*
X131118065Y-108218151D01*
X131118065Y-108308865D01*
X131136208Y-108345151D01*
X131154351Y-108363294D01*
X131190637Y-108381437D01*
X131281351Y-108381437D01*
X131317637Y-108363294D01*
X131335780Y-108345151D01*
%TO.C,C224*%
X126191191Y-96606722D02*
X126209334Y-96588580D01*
X126227477Y-96534151D01*
X126227477Y-96497865D01*
X126209334Y-96443437D01*
X126173048Y-96407151D01*
X126136762Y-96389008D01*
X126064191Y-96370865D01*
X126009762Y-96370865D01*
X125937191Y-96389008D01*
X125900905Y-96407151D01*
X125864620Y-96443437D01*
X125846477Y-96497865D01*
X125846477Y-96534151D01*
X125864620Y-96588580D01*
X125882762Y-96606722D01*
X125882762Y-96751865D02*
X125864620Y-96770008D01*
X125846477Y-96806294D01*
X125846477Y-96897008D01*
X125864620Y-96933294D01*
X125882762Y-96951437D01*
X125919048Y-96969580D01*
X125955334Y-96969580D01*
X126009762Y-96951437D01*
X126227477Y-96733722D01*
X126227477Y-96969580D01*
X125882762Y-97114722D02*
X125864620Y-97132865D01*
X125846477Y-97169151D01*
X125846477Y-97259865D01*
X125864620Y-97296151D01*
X125882762Y-97314294D01*
X125919048Y-97332437D01*
X125955334Y-97332437D01*
X126009762Y-97314294D01*
X126227477Y-97096580D01*
X126227477Y-97332437D01*
X125973477Y-97659008D02*
X126227477Y-97659008D01*
X125828334Y-97568294D02*
X126100477Y-97477580D01*
X126100477Y-97713437D01*
%TO.C,C223*%
X134502797Y-104301471D02*
X134520940Y-104319614D01*
X134575368Y-104337757D01*
X134611654Y-104337757D01*
X134666082Y-104319614D01*
X134702368Y-104283328D01*
X134720511Y-104247042D01*
X134738654Y-104174471D01*
X134738654Y-104120042D01*
X134720511Y-104047471D01*
X134702368Y-104011185D01*
X134666082Y-103974900D01*
X134611654Y-103956757D01*
X134575368Y-103956757D01*
X134520940Y-103974900D01*
X134502797Y-103993042D01*
X134357654Y-103993042D02*
X134339511Y-103974900D01*
X134303225Y-103956757D01*
X134212511Y-103956757D01*
X134176225Y-103974900D01*
X134158082Y-103993042D01*
X134139940Y-104029328D01*
X134139940Y-104065614D01*
X134158082Y-104120042D01*
X134375797Y-104337757D01*
X134139940Y-104337757D01*
X133994797Y-103993042D02*
X133976654Y-103974900D01*
X133940368Y-103956757D01*
X133849654Y-103956757D01*
X133813368Y-103974900D01*
X133795225Y-103993042D01*
X133777082Y-104029328D01*
X133777082Y-104065614D01*
X133795225Y-104120042D01*
X134012940Y-104337757D01*
X133777082Y-104337757D01*
X133650082Y-103956757D02*
X133414225Y-103956757D01*
X133541225Y-104101900D01*
X133486797Y-104101900D01*
X133450511Y-104120042D01*
X133432368Y-104138185D01*
X133414225Y-104174471D01*
X133414225Y-104265185D01*
X133432368Y-104301471D01*
X133450511Y-104319614D01*
X133486797Y-104337757D01*
X133595654Y-104337757D01*
X133631940Y-104319614D01*
X133650082Y-104301471D01*
%TO.C,C222*%
X135269877Y-89589791D02*
X135288020Y-89607934D01*
X135342448Y-89626077D01*
X135378734Y-89626077D01*
X135433162Y-89607934D01*
X135469448Y-89571648D01*
X135487591Y-89535362D01*
X135505734Y-89462791D01*
X135505734Y-89408362D01*
X135487591Y-89335791D01*
X135469448Y-89299505D01*
X135433162Y-89263220D01*
X135378734Y-89245077D01*
X135342448Y-89245077D01*
X135288020Y-89263220D01*
X135269877Y-89281362D01*
X135124734Y-89281362D02*
X135106591Y-89263220D01*
X135070305Y-89245077D01*
X134979591Y-89245077D01*
X134943305Y-89263220D01*
X134925162Y-89281362D01*
X134907020Y-89317648D01*
X134907020Y-89353934D01*
X134925162Y-89408362D01*
X135142877Y-89626077D01*
X134907020Y-89626077D01*
X134761877Y-89281362D02*
X134743734Y-89263220D01*
X134707448Y-89245077D01*
X134616734Y-89245077D01*
X134580448Y-89263220D01*
X134562305Y-89281362D01*
X134544162Y-89317648D01*
X134544162Y-89353934D01*
X134562305Y-89408362D01*
X134780020Y-89626077D01*
X134544162Y-89626077D01*
X134399020Y-89281362D02*
X134380877Y-89263220D01*
X134344591Y-89245077D01*
X134253877Y-89245077D01*
X134217591Y-89263220D01*
X134199448Y-89281362D01*
X134181305Y-89317648D01*
X134181305Y-89353934D01*
X134199448Y-89408362D01*
X134417162Y-89626077D01*
X134181305Y-89626077D01*
%TO.C,C221*%
X126160711Y-100675802D02*
X126178854Y-100657660D01*
X126196997Y-100603231D01*
X126196997Y-100566945D01*
X126178854Y-100512517D01*
X126142568Y-100476231D01*
X126106282Y-100458088D01*
X126033711Y-100439945D01*
X125979282Y-100439945D01*
X125906711Y-100458088D01*
X125870425Y-100476231D01*
X125834140Y-100512517D01*
X125815997Y-100566945D01*
X125815997Y-100603231D01*
X125834140Y-100657660D01*
X125852282Y-100675802D01*
X125852282Y-100820945D02*
X125834140Y-100839088D01*
X125815997Y-100875374D01*
X125815997Y-100966088D01*
X125834140Y-101002374D01*
X125852282Y-101020517D01*
X125888568Y-101038660D01*
X125924854Y-101038660D01*
X125979282Y-101020517D01*
X126196997Y-100802802D01*
X126196997Y-101038660D01*
X125852282Y-101183802D02*
X125834140Y-101201945D01*
X125815997Y-101238231D01*
X125815997Y-101328945D01*
X125834140Y-101365231D01*
X125852282Y-101383374D01*
X125888568Y-101401517D01*
X125924854Y-101401517D01*
X125979282Y-101383374D01*
X126196997Y-101165660D01*
X126196997Y-101401517D01*
X126196997Y-101764374D02*
X126196997Y-101546660D01*
X126196997Y-101655517D02*
X125815997Y-101655517D01*
X125870425Y-101619231D01*
X125906711Y-101582945D01*
X125924854Y-101546660D01*
%TO.C,CN302*%
D15*
X149310759Y-78527642D02*
X149368211Y-78585095D01*
X149540569Y-78642547D01*
X149655473Y-78642547D01*
X149827830Y-78585095D01*
X149942735Y-78470190D01*
X150000188Y-78355285D01*
X150057640Y-78125476D01*
X150057640Y-77953119D01*
X150000188Y-77723309D01*
X149942735Y-77608404D01*
X149827830Y-77493500D01*
X149655473Y-77436047D01*
X149540569Y-77436047D01*
X149368211Y-77493500D01*
X149310759Y-77550952D01*
X148793688Y-78642547D02*
X148793688Y-77436047D01*
X148104259Y-78642547D01*
X148104259Y-77436047D01*
X147644640Y-77436047D02*
X146897759Y-77436047D01*
X147299926Y-77895666D01*
X147127569Y-77895666D01*
X147012664Y-77953119D01*
X146955211Y-78010571D01*
X146897759Y-78125476D01*
X146897759Y-78412738D01*
X146955211Y-78527642D01*
X147012664Y-78585095D01*
X147127569Y-78642547D01*
X147472283Y-78642547D01*
X147587188Y-78585095D01*
X147644640Y-78527642D01*
X146150878Y-77436047D02*
X146035973Y-77436047D01*
X145921069Y-77493500D01*
X145863616Y-77550952D01*
X145806164Y-77665857D01*
X145748711Y-77895666D01*
X145748711Y-78182928D01*
X145806164Y-78412738D01*
X145863616Y-78527642D01*
X145921069Y-78585095D01*
X146035973Y-78642547D01*
X146150878Y-78642547D01*
X146265783Y-78585095D01*
X146323235Y-78527642D01*
X146380688Y-78412738D01*
X146438140Y-78182928D01*
X146438140Y-77895666D01*
X146380688Y-77665857D01*
X146323235Y-77550952D01*
X146265783Y-77493500D01*
X146150878Y-77436047D01*
X145289092Y-77550952D02*
X145231640Y-77493500D01*
X145116735Y-77436047D01*
X144829473Y-77436047D01*
X144714569Y-77493500D01*
X144657116Y-77550952D01*
X144599664Y-77665857D01*
X144599664Y-77780761D01*
X144657116Y-77953119D01*
X145346545Y-78642547D01*
X144599664Y-78642547D01*
%TD*%
M02*
