%TF.GenerationSoftware,KiCad,Pcbnew,(5.1.8)-1*%
%TF.CreationDate,2021-04-21T20:08:09+02:00*%
%TF.ProjectId,Radioberry,52616469-6f62-4657-9272-792e6b696361,rev?*%
%TF.SameCoordinates,Original*%
%TF.FileFunction,Paste,Bot*%
%TF.FilePolarity,Positive*%
%FSLAX46Y46*%
G04 Gerber Fmt 4.6, Leading zero omitted, Abs format (unit mm)*
G04 Created by KiCad (PCBNEW (5.1.8)-1) date 2021-04-21 20:08:09*
%MOMM*%
%LPD*%
G01*
G04 APERTURE LIST*
G04 APERTURE END LIST*
%TO.C,FB403*%
G36*
G01*
X103285000Y-96982500D02*
X103735000Y-96982500D01*
G75*
G02*
X103960000Y-97207500I0J-225000D01*
G01*
X103960000Y-97657500D01*
G75*
G02*
X103735000Y-97882500I-225000J0D01*
G01*
X103285000Y-97882500D01*
G75*
G02*
X103060000Y-97657500I0J225000D01*
G01*
X103060000Y-97207500D01*
G75*
G02*
X103285000Y-96982500I225000J0D01*
G01*
G37*
G36*
G01*
X103285000Y-95157500D02*
X103735000Y-95157500D01*
G75*
G02*
X103960000Y-95382500I0J-225000D01*
G01*
X103960000Y-95832500D01*
G75*
G02*
X103735000Y-96057500I-225000J0D01*
G01*
X103285000Y-96057500D01*
G75*
G02*
X103060000Y-95832500I0J225000D01*
G01*
X103060000Y-95382500D01*
G75*
G02*
X103285000Y-95157500I225000J0D01*
G01*
G37*
%TD*%
%TO.C,FB208*%
G36*
G01*
X145537500Y-88225000D02*
X145537500Y-88675000D01*
G75*
G02*
X145312500Y-88900000I-225000J0D01*
G01*
X144862500Y-88900000D01*
G75*
G02*
X144637500Y-88675000I0J225000D01*
G01*
X144637500Y-88225000D01*
G75*
G02*
X144862500Y-88000000I225000J0D01*
G01*
X145312500Y-88000000D01*
G75*
G02*
X145537500Y-88225000I0J-225000D01*
G01*
G37*
G36*
G01*
X147362500Y-88225000D02*
X147362500Y-88675000D01*
G75*
G02*
X147137500Y-88900000I-225000J0D01*
G01*
X146687500Y-88900000D01*
G75*
G02*
X146462500Y-88675000I0J225000D01*
G01*
X146462500Y-88225000D01*
G75*
G02*
X146687500Y-88000000I225000J0D01*
G01*
X147137500Y-88000000D01*
G75*
G02*
X147362500Y-88225000I0J-225000D01*
G01*
G37*
%TD*%
%TO.C,FB207*%
G36*
G01*
X123703300Y-109875000D02*
X123703300Y-109425000D01*
G75*
G02*
X123928300Y-109200000I225000J0D01*
G01*
X124378300Y-109200000D01*
G75*
G02*
X124603300Y-109425000I0J-225000D01*
G01*
X124603300Y-109875000D01*
G75*
G02*
X124378300Y-110100000I-225000J0D01*
G01*
X123928300Y-110100000D01*
G75*
G02*
X123703300Y-109875000I0J225000D01*
G01*
G37*
G36*
G01*
X121878300Y-109875000D02*
X121878300Y-109425000D01*
G75*
G02*
X122103300Y-109200000I225000J0D01*
G01*
X122553300Y-109200000D01*
G75*
G02*
X122778300Y-109425000I0J-225000D01*
G01*
X122778300Y-109875000D01*
G75*
G02*
X122553300Y-110100000I-225000J0D01*
G01*
X122103300Y-110100000D01*
G75*
G02*
X121878300Y-109875000I0J225000D01*
G01*
G37*
%TD*%
%TO.C,FB206*%
G36*
G01*
X145637500Y-109425000D02*
X145637500Y-109875000D01*
G75*
G02*
X145412500Y-110100000I-225000J0D01*
G01*
X144962500Y-110100000D01*
G75*
G02*
X144737500Y-109875000I0J225000D01*
G01*
X144737500Y-109425000D01*
G75*
G02*
X144962500Y-109200000I225000J0D01*
G01*
X145412500Y-109200000D01*
G75*
G02*
X145637500Y-109425000I0J-225000D01*
G01*
G37*
G36*
G01*
X147462500Y-109425000D02*
X147462500Y-109875000D01*
G75*
G02*
X147237500Y-110100000I-225000J0D01*
G01*
X146787500Y-110100000D01*
G75*
G02*
X146562500Y-109875000I0J225000D01*
G01*
X146562500Y-109425000D01*
G75*
G02*
X146787500Y-109200000I225000J0D01*
G01*
X147237500Y-109200000D01*
G75*
G02*
X147462500Y-109425000I0J-225000D01*
G01*
G37*
%TD*%
%TO.C,FB205*%
G36*
G01*
X128015000Y-92042500D02*
X128465000Y-92042500D01*
G75*
G02*
X128690000Y-92267500I0J-225000D01*
G01*
X128690000Y-92717500D01*
G75*
G02*
X128465000Y-92942500I-225000J0D01*
G01*
X128015000Y-92942500D01*
G75*
G02*
X127790000Y-92717500I0J225000D01*
G01*
X127790000Y-92267500D01*
G75*
G02*
X128015000Y-92042500I225000J0D01*
G01*
G37*
G36*
G01*
X128015000Y-90217500D02*
X128465000Y-90217500D01*
G75*
G02*
X128690000Y-90442500I0J-225000D01*
G01*
X128690000Y-90892500D01*
G75*
G02*
X128465000Y-91117500I-225000J0D01*
G01*
X128015000Y-91117500D01*
G75*
G02*
X127790000Y-90892500I0J225000D01*
G01*
X127790000Y-90442500D01*
G75*
G02*
X128015000Y-90217500I225000J0D01*
G01*
G37*
%TD*%
%TO.C,FB204*%
G36*
G01*
X149117500Y-90065000D02*
X149117500Y-90515000D01*
G75*
G02*
X148892500Y-90740000I-225000J0D01*
G01*
X148442500Y-90740000D01*
G75*
G02*
X148217500Y-90515000I0J225000D01*
G01*
X148217500Y-90065000D01*
G75*
G02*
X148442500Y-89840000I225000J0D01*
G01*
X148892500Y-89840000D01*
G75*
G02*
X149117500Y-90065000I0J-225000D01*
G01*
G37*
G36*
G01*
X150942500Y-90065000D02*
X150942500Y-90515000D01*
G75*
G02*
X150717500Y-90740000I-225000J0D01*
G01*
X150267500Y-90740000D01*
G75*
G02*
X150042500Y-90515000I0J225000D01*
G01*
X150042500Y-90065000D01*
G75*
G02*
X150267500Y-89840000I225000J0D01*
G01*
X150717500Y-89840000D01*
G75*
G02*
X150942500Y-90065000I0J-225000D01*
G01*
G37*
%TD*%
%TO.C,FB203*%
G36*
G01*
X120232500Y-105925000D02*
X120232500Y-105475000D01*
G75*
G02*
X120457500Y-105250000I225000J0D01*
G01*
X120907500Y-105250000D01*
G75*
G02*
X121132500Y-105475000I0J-225000D01*
G01*
X121132500Y-105925000D01*
G75*
G02*
X120907500Y-106150000I-225000J0D01*
G01*
X120457500Y-106150000D01*
G75*
G02*
X120232500Y-105925000I0J225000D01*
G01*
G37*
G36*
G01*
X118407500Y-105925000D02*
X118407500Y-105475000D01*
G75*
G02*
X118632500Y-105250000I225000J0D01*
G01*
X119082500Y-105250000D01*
G75*
G02*
X119307500Y-105475000I0J-225000D01*
G01*
X119307500Y-105925000D01*
G75*
G02*
X119082500Y-106150000I-225000J0D01*
G01*
X118632500Y-106150000D01*
G75*
G02*
X118407500Y-105925000I0J225000D01*
G01*
G37*
%TD*%
%TO.C,FB202*%
G36*
G01*
X146612500Y-106735000D02*
X146612500Y-106285000D01*
G75*
G02*
X146837500Y-106060000I225000J0D01*
G01*
X147287500Y-106060000D01*
G75*
G02*
X147512500Y-106285000I0J-225000D01*
G01*
X147512500Y-106735000D01*
G75*
G02*
X147287500Y-106960000I-225000J0D01*
G01*
X146837500Y-106960000D01*
G75*
G02*
X146612500Y-106735000I0J225000D01*
G01*
G37*
G36*
G01*
X144787500Y-106735000D02*
X144787500Y-106285000D01*
G75*
G02*
X145012500Y-106060000I225000J0D01*
G01*
X145462500Y-106060000D01*
G75*
G02*
X145687500Y-106285000I0J-225000D01*
G01*
X145687500Y-106735000D01*
G75*
G02*
X145462500Y-106960000I-225000J0D01*
G01*
X145012500Y-106960000D01*
G75*
G02*
X144787500Y-106735000I0J225000D01*
G01*
G37*
%TD*%
%TO.C,FB201*%
G36*
G01*
X120292500Y-92315000D02*
X120292500Y-91865000D01*
G75*
G02*
X120517500Y-91640000I225000J0D01*
G01*
X120967500Y-91640000D01*
G75*
G02*
X121192500Y-91865000I0J-225000D01*
G01*
X121192500Y-92315000D01*
G75*
G02*
X120967500Y-92540000I-225000J0D01*
G01*
X120517500Y-92540000D01*
G75*
G02*
X120292500Y-92315000I0J225000D01*
G01*
G37*
G36*
G01*
X118467500Y-92315000D02*
X118467500Y-91865000D01*
G75*
G02*
X118692500Y-91640000I225000J0D01*
G01*
X119142500Y-91640000D01*
G75*
G02*
X119367500Y-91865000I0J-225000D01*
G01*
X119367500Y-92315000D01*
G75*
G02*
X119142500Y-92540000I-225000J0D01*
G01*
X118692500Y-92540000D01*
G75*
G02*
X118467500Y-92315000I0J225000D01*
G01*
G37*
%TD*%
%TO.C,C256*%
G36*
G01*
X136870050Y-84327950D02*
X137297550Y-84327950D01*
G75*
G02*
X137511300Y-84541700I0J-213750D01*
G01*
X137511300Y-85081700D01*
G75*
G02*
X137297550Y-85295450I-213750J0D01*
G01*
X136870050Y-85295450D01*
G75*
G02*
X136656300Y-85081700I0J213750D01*
G01*
X136656300Y-84541700D01*
G75*
G02*
X136870050Y-84327950I213750J0D01*
G01*
G37*
G36*
G01*
X136870050Y-86052950D02*
X137297550Y-86052950D01*
G75*
G02*
X137511300Y-86266700I0J-213750D01*
G01*
X137511300Y-86806700D01*
G75*
G02*
X137297550Y-87020450I-213750J0D01*
G01*
X136870050Y-87020450D01*
G75*
G02*
X136656300Y-86806700I0J213750D01*
G01*
X136656300Y-86266700D01*
G75*
G02*
X136870050Y-86052950I213750J0D01*
G01*
G37*
%TD*%
%TO.C,R308*%
G36*
G01*
X130213750Y-120851250D02*
X129786250Y-120851250D01*
G75*
G02*
X129572500Y-120637500I0J213750D01*
G01*
X129572500Y-120187500D01*
G75*
G02*
X129786250Y-119973750I213750J0D01*
G01*
X130213750Y-119973750D01*
G75*
G02*
X130427500Y-120187500I0J-213750D01*
G01*
X130427500Y-120637500D01*
G75*
G02*
X130213750Y-120851250I-213750J0D01*
G01*
G37*
G36*
G01*
X130213750Y-119026250D02*
X129786250Y-119026250D01*
G75*
G02*
X129572500Y-118812500I0J213750D01*
G01*
X129572500Y-118362500D01*
G75*
G02*
X129786250Y-118148750I213750J0D01*
G01*
X130213750Y-118148750D01*
G75*
G02*
X130427500Y-118362500I0J-213750D01*
G01*
X130427500Y-118812500D01*
G75*
G02*
X130213750Y-119026250I-213750J0D01*
G01*
G37*
%TD*%
%TO.C,R307*%
G36*
G01*
X128213750Y-120851250D02*
X127786250Y-120851250D01*
G75*
G02*
X127572500Y-120637500I0J213750D01*
G01*
X127572500Y-120187500D01*
G75*
G02*
X127786250Y-119973750I213750J0D01*
G01*
X128213750Y-119973750D01*
G75*
G02*
X128427500Y-120187500I0J-213750D01*
G01*
X128427500Y-120637500D01*
G75*
G02*
X128213750Y-120851250I-213750J0D01*
G01*
G37*
G36*
G01*
X128213750Y-119026250D02*
X127786250Y-119026250D01*
G75*
G02*
X127572500Y-118812500I0J213750D01*
G01*
X127572500Y-118362500D01*
G75*
G02*
X127786250Y-118148750I213750J0D01*
G01*
X128213750Y-118148750D01*
G75*
G02*
X128427500Y-118362500I0J-213750D01*
G01*
X128427500Y-118812500D01*
G75*
G02*
X128213750Y-119026250I-213750J0D01*
G01*
G37*
%TD*%
%TO.C,R306*%
G36*
G01*
X134463750Y-120851250D02*
X134036250Y-120851250D01*
G75*
G02*
X133822500Y-120637500I0J213750D01*
G01*
X133822500Y-120187500D01*
G75*
G02*
X134036250Y-119973750I213750J0D01*
G01*
X134463750Y-119973750D01*
G75*
G02*
X134677500Y-120187500I0J-213750D01*
G01*
X134677500Y-120637500D01*
G75*
G02*
X134463750Y-120851250I-213750J0D01*
G01*
G37*
G36*
G01*
X134463750Y-119026250D02*
X134036250Y-119026250D01*
G75*
G02*
X133822500Y-118812500I0J213750D01*
G01*
X133822500Y-118362500D01*
G75*
G02*
X134036250Y-118148750I213750J0D01*
G01*
X134463750Y-118148750D01*
G75*
G02*
X134677500Y-118362500I0J-213750D01*
G01*
X134677500Y-118812500D01*
G75*
G02*
X134463750Y-119026250I-213750J0D01*
G01*
G37*
%TD*%
%TO.C,R305*%
G36*
G01*
X132463750Y-120851250D02*
X132036250Y-120851250D01*
G75*
G02*
X131822500Y-120637500I0J213750D01*
G01*
X131822500Y-120187500D01*
G75*
G02*
X132036250Y-119973750I213750J0D01*
G01*
X132463750Y-119973750D01*
G75*
G02*
X132677500Y-120187500I0J-213750D01*
G01*
X132677500Y-120637500D01*
G75*
G02*
X132463750Y-120851250I-213750J0D01*
G01*
G37*
G36*
G01*
X132463750Y-119026250D02*
X132036250Y-119026250D01*
G75*
G02*
X131822500Y-118812500I0J213750D01*
G01*
X131822500Y-118362500D01*
G75*
G02*
X132036250Y-118148750I213750J0D01*
G01*
X132463750Y-118148750D01*
G75*
G02*
X132677500Y-118362500I0J-213750D01*
G01*
X132677500Y-118812500D01*
G75*
G02*
X132463750Y-119026250I-213750J0D01*
G01*
G37*
%TD*%
%TO.C,R304*%
G36*
G01*
X125969150Y-121083670D02*
X125541650Y-121083670D01*
G75*
G02*
X125327900Y-120869920I0J213750D01*
G01*
X125327900Y-120419920D01*
G75*
G02*
X125541650Y-120206170I213750J0D01*
G01*
X125969150Y-120206170D01*
G75*
G02*
X126182900Y-120419920I0J-213750D01*
G01*
X126182900Y-120869920D01*
G75*
G02*
X125969150Y-121083670I-213750J0D01*
G01*
G37*
G36*
G01*
X125969150Y-119258670D02*
X125541650Y-119258670D01*
G75*
G02*
X125327900Y-119044920I0J213750D01*
G01*
X125327900Y-118594920D01*
G75*
G02*
X125541650Y-118381170I213750J0D01*
G01*
X125969150Y-118381170D01*
G75*
G02*
X126182900Y-118594920I0J-213750D01*
G01*
X126182900Y-119044920D01*
G75*
G02*
X125969150Y-119258670I-213750J0D01*
G01*
G37*
%TD*%
%TO.C,R303*%
G36*
G01*
X123967630Y-121112250D02*
X123540130Y-121112250D01*
G75*
G02*
X123326380Y-120898500I0J213750D01*
G01*
X123326380Y-120448500D01*
G75*
G02*
X123540130Y-120234750I213750J0D01*
G01*
X123967630Y-120234750D01*
G75*
G02*
X124181380Y-120448500I0J-213750D01*
G01*
X124181380Y-120898500D01*
G75*
G02*
X123967630Y-121112250I-213750J0D01*
G01*
G37*
G36*
G01*
X123967630Y-119287250D02*
X123540130Y-119287250D01*
G75*
G02*
X123326380Y-119073500I0J213750D01*
G01*
X123326380Y-118623500D01*
G75*
G02*
X123540130Y-118409750I213750J0D01*
G01*
X123967630Y-118409750D01*
G75*
G02*
X124181380Y-118623500I0J-213750D01*
G01*
X124181380Y-119073500D01*
G75*
G02*
X123967630Y-119287250I-213750J0D01*
G01*
G37*
%TD*%
%TO.C,R302*%
G36*
G01*
X143811250Y-78226250D02*
X143811250Y-78653750D01*
G75*
G02*
X143597500Y-78867500I-213750J0D01*
G01*
X143147500Y-78867500D01*
G75*
G02*
X142933750Y-78653750I0J213750D01*
G01*
X142933750Y-78226250D01*
G75*
G02*
X143147500Y-78012500I213750J0D01*
G01*
X143597500Y-78012500D01*
G75*
G02*
X143811250Y-78226250I0J-213750D01*
G01*
G37*
G36*
G01*
X141986250Y-78226250D02*
X141986250Y-78653750D01*
G75*
G02*
X141772500Y-78867500I-213750J0D01*
G01*
X141322500Y-78867500D01*
G75*
G02*
X141108750Y-78653750I0J213750D01*
G01*
X141108750Y-78226250D01*
G75*
G02*
X141322500Y-78012500I213750J0D01*
G01*
X141772500Y-78012500D01*
G75*
G02*
X141986250Y-78226250I0J-213750D01*
G01*
G37*
%TD*%
%TO.C,R301*%
G36*
G01*
X116541250Y-78786250D02*
X116541250Y-79213750D01*
G75*
G02*
X116327500Y-79427500I-213750J0D01*
G01*
X115877500Y-79427500D01*
G75*
G02*
X115663750Y-79213750I0J213750D01*
G01*
X115663750Y-78786250D01*
G75*
G02*
X115877500Y-78572500I213750J0D01*
G01*
X116327500Y-78572500D01*
G75*
G02*
X116541250Y-78786250I0J-213750D01*
G01*
G37*
G36*
G01*
X114716250Y-78786250D02*
X114716250Y-79213750D01*
G75*
G02*
X114502500Y-79427500I-213750J0D01*
G01*
X114052500Y-79427500D01*
G75*
G02*
X113838750Y-79213750I0J213750D01*
G01*
X113838750Y-78786250D01*
G75*
G02*
X114052500Y-78572500I213750J0D01*
G01*
X114502500Y-78572500D01*
G75*
G02*
X114716250Y-78786250I0J-213750D01*
G01*
G37*
%TD*%
%TO.C,C434*%
G36*
G01*
X104083750Y-92473750D02*
X104083750Y-92046250D01*
G75*
G02*
X104297500Y-91832500I213750J0D01*
G01*
X104837500Y-91832500D01*
G75*
G02*
X105051250Y-92046250I0J-213750D01*
G01*
X105051250Y-92473750D01*
G75*
G02*
X104837500Y-92687500I-213750J0D01*
G01*
X104297500Y-92687500D01*
G75*
G02*
X104083750Y-92473750I0J213750D01*
G01*
G37*
G36*
G01*
X105808750Y-92473750D02*
X105808750Y-92046250D01*
G75*
G02*
X106022500Y-91832500I213750J0D01*
G01*
X106562500Y-91832500D01*
G75*
G02*
X106776250Y-92046250I0J-213750D01*
G01*
X106776250Y-92473750D01*
G75*
G02*
X106562500Y-92687500I-213750J0D01*
G01*
X106022500Y-92687500D01*
G75*
G02*
X105808750Y-92473750I0J213750D01*
G01*
G37*
%TD*%
%TO.C,C430*%
G36*
G01*
X104073750Y-87543750D02*
X104073750Y-87116250D01*
G75*
G02*
X104287500Y-86902500I213750J0D01*
G01*
X104827500Y-86902500D01*
G75*
G02*
X105041250Y-87116250I0J-213750D01*
G01*
X105041250Y-87543750D01*
G75*
G02*
X104827500Y-87757500I-213750J0D01*
G01*
X104287500Y-87757500D01*
G75*
G02*
X104073750Y-87543750I0J213750D01*
G01*
G37*
G36*
G01*
X105798750Y-87543750D02*
X105798750Y-87116250D01*
G75*
G02*
X106012500Y-86902500I213750J0D01*
G01*
X106552500Y-86902500D01*
G75*
G02*
X106766250Y-87116250I0J-213750D01*
G01*
X106766250Y-87543750D01*
G75*
G02*
X106552500Y-87757500I-213750J0D01*
G01*
X106012500Y-87757500D01*
G75*
G02*
X105798750Y-87543750I0J213750D01*
G01*
G37*
%TD*%
%TO.C,C426*%
G36*
G01*
X104093750Y-94233750D02*
X104093750Y-93806250D01*
G75*
G02*
X104307500Y-93592500I213750J0D01*
G01*
X104847500Y-93592500D01*
G75*
G02*
X105061250Y-93806250I0J-213750D01*
G01*
X105061250Y-94233750D01*
G75*
G02*
X104847500Y-94447500I-213750J0D01*
G01*
X104307500Y-94447500D01*
G75*
G02*
X104093750Y-94233750I0J213750D01*
G01*
G37*
G36*
G01*
X105818750Y-94233750D02*
X105818750Y-93806250D01*
G75*
G02*
X106032500Y-93592500I213750J0D01*
G01*
X106572500Y-93592500D01*
G75*
G02*
X106786250Y-93806250I0J-213750D01*
G01*
X106786250Y-94233750D01*
G75*
G02*
X106572500Y-94447500I-213750J0D01*
G01*
X106032500Y-94447500D01*
G75*
G02*
X105818750Y-94233750I0J213750D01*
G01*
G37*
%TD*%
%TO.C,C422*%
G36*
G01*
X104093750Y-90823750D02*
X104093750Y-90396250D01*
G75*
G02*
X104307500Y-90182500I213750J0D01*
G01*
X104847500Y-90182500D01*
G75*
G02*
X105061250Y-90396250I0J-213750D01*
G01*
X105061250Y-90823750D01*
G75*
G02*
X104847500Y-91037500I-213750J0D01*
G01*
X104307500Y-91037500D01*
G75*
G02*
X104093750Y-90823750I0J213750D01*
G01*
G37*
G36*
G01*
X105818750Y-90823750D02*
X105818750Y-90396250D01*
G75*
G02*
X106032500Y-90182500I213750J0D01*
G01*
X106572500Y-90182500D01*
G75*
G02*
X106786250Y-90396250I0J-213750D01*
G01*
X106786250Y-90823750D01*
G75*
G02*
X106572500Y-91037500I-213750J0D01*
G01*
X106032500Y-91037500D01*
G75*
G02*
X105818750Y-90823750I0J213750D01*
G01*
G37*
%TD*%
%TO.C,C418*%
G36*
G01*
X104083750Y-89163750D02*
X104083750Y-88736250D01*
G75*
G02*
X104297500Y-88522500I213750J0D01*
G01*
X104837500Y-88522500D01*
G75*
G02*
X105051250Y-88736250I0J-213750D01*
G01*
X105051250Y-89163750D01*
G75*
G02*
X104837500Y-89377500I-213750J0D01*
G01*
X104297500Y-89377500D01*
G75*
G02*
X104083750Y-89163750I0J213750D01*
G01*
G37*
G36*
G01*
X105808750Y-89163750D02*
X105808750Y-88736250D01*
G75*
G02*
X106022500Y-88522500I213750J0D01*
G01*
X106562500Y-88522500D01*
G75*
G02*
X106776250Y-88736250I0J-213750D01*
G01*
X106776250Y-89163750D01*
G75*
G02*
X106562500Y-89377500I-213750J0D01*
G01*
X106022500Y-89377500D01*
G75*
G02*
X105808750Y-89163750I0J213750D01*
G01*
G37*
%TD*%
%TO.C,C259*%
G36*
G01*
X140676250Y-109723750D02*
X141103750Y-109723750D01*
G75*
G02*
X141317500Y-109937500I0J-213750D01*
G01*
X141317500Y-110477500D01*
G75*
G02*
X141103750Y-110691250I-213750J0D01*
G01*
X140676250Y-110691250D01*
G75*
G02*
X140462500Y-110477500I0J213750D01*
G01*
X140462500Y-109937500D01*
G75*
G02*
X140676250Y-109723750I213750J0D01*
G01*
G37*
G36*
G01*
X140676250Y-111448750D02*
X141103750Y-111448750D01*
G75*
G02*
X141317500Y-111662500I0J-213750D01*
G01*
X141317500Y-112202500D01*
G75*
G02*
X141103750Y-112416250I-213750J0D01*
G01*
X140676250Y-112416250D01*
G75*
G02*
X140462500Y-112202500I0J213750D01*
G01*
X140462500Y-111662500D01*
G75*
G02*
X140676250Y-111448750I213750J0D01*
G01*
G37*
%TD*%
%TO.C,C258*%
G36*
G01*
X135996250Y-109793750D02*
X136423750Y-109793750D01*
G75*
G02*
X136637500Y-110007500I0J-213750D01*
G01*
X136637500Y-110547500D01*
G75*
G02*
X136423750Y-110761250I-213750J0D01*
G01*
X135996250Y-110761250D01*
G75*
G02*
X135782500Y-110547500I0J213750D01*
G01*
X135782500Y-110007500D01*
G75*
G02*
X135996250Y-109793750I213750J0D01*
G01*
G37*
G36*
G01*
X135996250Y-111518750D02*
X136423750Y-111518750D01*
G75*
G02*
X136637500Y-111732500I0J-213750D01*
G01*
X136637500Y-112272500D01*
G75*
G02*
X136423750Y-112486250I-213750J0D01*
G01*
X135996250Y-112486250D01*
G75*
G02*
X135782500Y-112272500I0J213750D01*
G01*
X135782500Y-111732500D01*
G75*
G02*
X135996250Y-111518750I213750J0D01*
G01*
G37*
%TD*%
%TO.C,C257*%
G36*
G01*
X129326250Y-84326850D02*
X129753750Y-84326850D01*
G75*
G02*
X129967500Y-84540600I0J-213750D01*
G01*
X129967500Y-85080600D01*
G75*
G02*
X129753750Y-85294350I-213750J0D01*
G01*
X129326250Y-85294350D01*
G75*
G02*
X129112500Y-85080600I0J213750D01*
G01*
X129112500Y-84540600D01*
G75*
G02*
X129326250Y-84326850I213750J0D01*
G01*
G37*
G36*
G01*
X129326250Y-86051850D02*
X129753750Y-86051850D01*
G75*
G02*
X129967500Y-86265600I0J-213750D01*
G01*
X129967500Y-86805600D01*
G75*
G02*
X129753750Y-87019350I-213750J0D01*
G01*
X129326250Y-87019350D01*
G75*
G02*
X129112500Y-86805600I0J213750D01*
G01*
X129112500Y-86265600D01*
G75*
G02*
X129326250Y-86051850I213750J0D01*
G01*
G37*
%TD*%
%TO.C,C255*%
G36*
G01*
X144703750Y-95463750D02*
X144703750Y-95036250D01*
G75*
G02*
X144917500Y-94822500I213750J0D01*
G01*
X145457500Y-94822500D01*
G75*
G02*
X145671250Y-95036250I0J-213750D01*
G01*
X145671250Y-95463750D01*
G75*
G02*
X145457500Y-95677500I-213750J0D01*
G01*
X144917500Y-95677500D01*
G75*
G02*
X144703750Y-95463750I0J213750D01*
G01*
G37*
G36*
G01*
X146428750Y-95463750D02*
X146428750Y-95036250D01*
G75*
G02*
X146642500Y-94822500I213750J0D01*
G01*
X147182500Y-94822500D01*
G75*
G02*
X147396250Y-95036250I0J-213750D01*
G01*
X147396250Y-95463750D01*
G75*
G02*
X147182500Y-95677500I-213750J0D01*
G01*
X146642500Y-95677500D01*
G75*
G02*
X146428750Y-95463750I0J213750D01*
G01*
G37*
%TD*%
%TO.C,C254*%
G36*
G01*
X144703750Y-100543750D02*
X144703750Y-100116250D01*
G75*
G02*
X144917500Y-99902500I213750J0D01*
G01*
X145457500Y-99902500D01*
G75*
G02*
X145671250Y-100116250I0J-213750D01*
G01*
X145671250Y-100543750D01*
G75*
G02*
X145457500Y-100757500I-213750J0D01*
G01*
X144917500Y-100757500D01*
G75*
G02*
X144703750Y-100543750I0J213750D01*
G01*
G37*
G36*
G01*
X146428750Y-100543750D02*
X146428750Y-100116250D01*
G75*
G02*
X146642500Y-99902500I213750J0D01*
G01*
X147182500Y-99902500D01*
G75*
G02*
X147396250Y-100116250I0J-213750D01*
G01*
X147396250Y-100543750D01*
G75*
G02*
X147182500Y-100757500I-213750J0D01*
G01*
X146642500Y-100757500D01*
G75*
G02*
X146428750Y-100543750I0J213750D01*
G01*
G37*
%TD*%
%TO.C,C253*%
G36*
G01*
X124576250Y-100256250D02*
X124576250Y-100683750D01*
G75*
G02*
X124362500Y-100897500I-213750J0D01*
G01*
X123822500Y-100897500D01*
G75*
G02*
X123608750Y-100683750I0J213750D01*
G01*
X123608750Y-100256250D01*
G75*
G02*
X123822500Y-100042500I213750J0D01*
G01*
X124362500Y-100042500D01*
G75*
G02*
X124576250Y-100256250I0J-213750D01*
G01*
G37*
G36*
G01*
X122851250Y-100256250D02*
X122851250Y-100683750D01*
G75*
G02*
X122637500Y-100897500I-213750J0D01*
G01*
X122097500Y-100897500D01*
G75*
G02*
X121883750Y-100683750I0J213750D01*
G01*
X121883750Y-100256250D01*
G75*
G02*
X122097500Y-100042500I213750J0D01*
G01*
X122637500Y-100042500D01*
G75*
G02*
X122851250Y-100256250I0J-213750D01*
G01*
G37*
%TD*%
%TO.C,C252*%
G36*
G01*
X124256250Y-94186250D02*
X124256250Y-94613750D01*
G75*
G02*
X124042500Y-94827500I-213750J0D01*
G01*
X123502500Y-94827500D01*
G75*
G02*
X123288750Y-94613750I0J213750D01*
G01*
X123288750Y-94186250D01*
G75*
G02*
X123502500Y-93972500I213750J0D01*
G01*
X124042500Y-93972500D01*
G75*
G02*
X124256250Y-94186250I0J-213750D01*
G01*
G37*
G36*
G01*
X122531250Y-94186250D02*
X122531250Y-94613750D01*
G75*
G02*
X122317500Y-94827500I-213750J0D01*
G01*
X121777500Y-94827500D01*
G75*
G02*
X121563750Y-94613750I0J213750D01*
G01*
X121563750Y-94186250D01*
G75*
G02*
X121777500Y-93972500I213750J0D01*
G01*
X122317500Y-93972500D01*
G75*
G02*
X122531250Y-94186250I0J-213750D01*
G01*
G37*
%TD*%
%TO.C,C251*%
G36*
G01*
X131866250Y-84353350D02*
X132293750Y-84353350D01*
G75*
G02*
X132507500Y-84567100I0J-213750D01*
G01*
X132507500Y-85107100D01*
G75*
G02*
X132293750Y-85320850I-213750J0D01*
G01*
X131866250Y-85320850D01*
G75*
G02*
X131652500Y-85107100I0J213750D01*
G01*
X131652500Y-84567100D01*
G75*
G02*
X131866250Y-84353350I213750J0D01*
G01*
G37*
G36*
G01*
X131866250Y-86078350D02*
X132293750Y-86078350D01*
G75*
G02*
X132507500Y-86292100I0J-213750D01*
G01*
X132507500Y-86832100D01*
G75*
G02*
X132293750Y-87045850I-213750J0D01*
G01*
X131866250Y-87045850D01*
G75*
G02*
X131652500Y-86832100I0J213750D01*
G01*
X131652500Y-86292100D01*
G75*
G02*
X131866250Y-86078350I213750J0D01*
G01*
G37*
%TD*%
%TO.C,C250*%
G36*
G01*
X139486250Y-84326850D02*
X139913750Y-84326850D01*
G75*
G02*
X140127500Y-84540600I0J-213750D01*
G01*
X140127500Y-85080600D01*
G75*
G02*
X139913750Y-85294350I-213750J0D01*
G01*
X139486250Y-85294350D01*
G75*
G02*
X139272500Y-85080600I0J213750D01*
G01*
X139272500Y-84540600D01*
G75*
G02*
X139486250Y-84326850I213750J0D01*
G01*
G37*
G36*
G01*
X139486250Y-86051850D02*
X139913750Y-86051850D01*
G75*
G02*
X140127500Y-86265600I0J-213750D01*
G01*
X140127500Y-86805600D01*
G75*
G02*
X139913750Y-87019350I-213750J0D01*
G01*
X139486250Y-87019350D01*
G75*
G02*
X139272500Y-86805600I0J213750D01*
G01*
X139272500Y-86265600D01*
G75*
G02*
X139486250Y-86051850I213750J0D01*
G01*
G37*
%TD*%
%TO.C,C249*%
G36*
G01*
X138666250Y-109753750D02*
X139093750Y-109753750D01*
G75*
G02*
X139307500Y-109967500I0J-213750D01*
G01*
X139307500Y-110507500D01*
G75*
G02*
X139093750Y-110721250I-213750J0D01*
G01*
X138666250Y-110721250D01*
G75*
G02*
X138452500Y-110507500I0J213750D01*
G01*
X138452500Y-109967500D01*
G75*
G02*
X138666250Y-109753750I213750J0D01*
G01*
G37*
G36*
G01*
X138666250Y-111478750D02*
X139093750Y-111478750D01*
G75*
G02*
X139307500Y-111692500I0J-213750D01*
G01*
X139307500Y-112232500D01*
G75*
G02*
X139093750Y-112446250I-213750J0D01*
G01*
X138666250Y-112446250D01*
G75*
G02*
X138452500Y-112232500I0J213750D01*
G01*
X138452500Y-111692500D01*
G75*
G02*
X138666250Y-111478750I213750J0D01*
G01*
G37*
%TD*%
%TO.C,C248*%
G36*
G01*
X129616250Y-109803750D02*
X130043750Y-109803750D01*
G75*
G02*
X130257500Y-110017500I0J-213750D01*
G01*
X130257500Y-110557500D01*
G75*
G02*
X130043750Y-110771250I-213750J0D01*
G01*
X129616250Y-110771250D01*
G75*
G02*
X129402500Y-110557500I0J213750D01*
G01*
X129402500Y-110017500D01*
G75*
G02*
X129616250Y-109803750I213750J0D01*
G01*
G37*
G36*
G01*
X129616250Y-111528750D02*
X130043750Y-111528750D01*
G75*
G02*
X130257500Y-111742500I0J-213750D01*
G01*
X130257500Y-112282500D01*
G75*
G02*
X130043750Y-112496250I-213750J0D01*
G01*
X129616250Y-112496250D01*
G75*
G02*
X129402500Y-112282500I0J213750D01*
G01*
X129402500Y-111742500D01*
G75*
G02*
X129616250Y-111528750I213750J0D01*
G01*
G37*
%TD*%
%TO.C,C247*%
G36*
G01*
X148263750Y-93003750D02*
X148263750Y-92576250D01*
G75*
G02*
X148477500Y-92362500I213750J0D01*
G01*
X149017500Y-92362500D01*
G75*
G02*
X149231250Y-92576250I0J-213750D01*
G01*
X149231250Y-93003750D01*
G75*
G02*
X149017500Y-93217500I-213750J0D01*
G01*
X148477500Y-93217500D01*
G75*
G02*
X148263750Y-93003750I0J213750D01*
G01*
G37*
G36*
G01*
X149988750Y-93003750D02*
X149988750Y-92576250D01*
G75*
G02*
X150202500Y-92362500I213750J0D01*
G01*
X150742500Y-92362500D01*
G75*
G02*
X150956250Y-92576250I0J-213750D01*
G01*
X150956250Y-93003750D01*
G75*
G02*
X150742500Y-93217500I-213750J0D01*
G01*
X150202500Y-93217500D01*
G75*
G02*
X149988750Y-93003750I0J213750D01*
G01*
G37*
%TD*%
%TO.C,C246*%
G36*
G01*
X123826250Y-86553750D02*
X124253750Y-86553750D01*
G75*
G02*
X124467500Y-86767500I0J-213750D01*
G01*
X124467500Y-87307500D01*
G75*
G02*
X124253750Y-87521250I-213750J0D01*
G01*
X123826250Y-87521250D01*
G75*
G02*
X123612500Y-87307500I0J213750D01*
G01*
X123612500Y-86767500D01*
G75*
G02*
X123826250Y-86553750I213750J0D01*
G01*
G37*
G36*
G01*
X123826250Y-88278750D02*
X124253750Y-88278750D01*
G75*
G02*
X124467500Y-88492500I0J-213750D01*
G01*
X124467500Y-89032500D01*
G75*
G02*
X124253750Y-89246250I-213750J0D01*
G01*
X123826250Y-89246250D01*
G75*
G02*
X123612500Y-89032500I0J213750D01*
G01*
X123612500Y-88492500D01*
G75*
G02*
X123826250Y-88278750I213750J0D01*
G01*
G37*
%TD*%
%TO.C,C245*%
G36*
G01*
X118513750Y-88463750D02*
X118513750Y-88036250D01*
G75*
G02*
X118727500Y-87822500I213750J0D01*
G01*
X119267500Y-87822500D01*
G75*
G02*
X119481250Y-88036250I0J-213750D01*
G01*
X119481250Y-88463750D01*
G75*
G02*
X119267500Y-88677500I-213750J0D01*
G01*
X118727500Y-88677500D01*
G75*
G02*
X118513750Y-88463750I0J213750D01*
G01*
G37*
G36*
G01*
X120238750Y-88463750D02*
X120238750Y-88036250D01*
G75*
G02*
X120452500Y-87822500I213750J0D01*
G01*
X120992500Y-87822500D01*
G75*
G02*
X121206250Y-88036250I0J-213750D01*
G01*
X121206250Y-88463750D01*
G75*
G02*
X120992500Y-88677500I-213750J0D01*
G01*
X120452500Y-88677500D01*
G75*
G02*
X120238750Y-88463750I0J213750D01*
G01*
G37*
%TD*%
%TO.C,C244*%
G36*
G01*
X121206250Y-108946250D02*
X121206250Y-109373750D01*
G75*
G02*
X120992500Y-109587500I-213750J0D01*
G01*
X120452500Y-109587500D01*
G75*
G02*
X120238750Y-109373750I0J213750D01*
G01*
X120238750Y-108946250D01*
G75*
G02*
X120452500Y-108732500I213750J0D01*
G01*
X120992500Y-108732500D01*
G75*
G02*
X121206250Y-108946250I0J-213750D01*
G01*
G37*
G36*
G01*
X119481250Y-108946250D02*
X119481250Y-109373750D01*
G75*
G02*
X119267500Y-109587500I-213750J0D01*
G01*
X118727500Y-109587500D01*
G75*
G02*
X118513750Y-109373750I0J213750D01*
G01*
X118513750Y-108946250D01*
G75*
G02*
X118727500Y-108732500I213750J0D01*
G01*
X119267500Y-108732500D01*
G75*
G02*
X119481250Y-108946250I0J-213750D01*
G01*
G37*
%TD*%
%TO.C,C243*%
G36*
G01*
X136611750Y-107518250D02*
X136184250Y-107518250D01*
G75*
G02*
X135970500Y-107304500I0J213750D01*
G01*
X135970500Y-106764500D01*
G75*
G02*
X136184250Y-106550750I213750J0D01*
G01*
X136611750Y-106550750D01*
G75*
G02*
X136825500Y-106764500I0J-213750D01*
G01*
X136825500Y-107304500D01*
G75*
G02*
X136611750Y-107518250I-213750J0D01*
G01*
G37*
G36*
G01*
X136611750Y-105793250D02*
X136184250Y-105793250D01*
G75*
G02*
X135970500Y-105579500I0J213750D01*
G01*
X135970500Y-105039500D01*
G75*
G02*
X136184250Y-104825750I213750J0D01*
G01*
X136611750Y-104825750D01*
G75*
G02*
X136825500Y-105039500I0J-213750D01*
G01*
X136825500Y-105579500D01*
G75*
G02*
X136611750Y-105793250I-213750J0D01*
G01*
G37*
%TD*%
%TO.C,C242*%
G36*
G01*
X136692250Y-90093750D02*
X137119750Y-90093750D01*
G75*
G02*
X137333500Y-90307500I0J-213750D01*
G01*
X137333500Y-90847500D01*
G75*
G02*
X137119750Y-91061250I-213750J0D01*
G01*
X136692250Y-91061250D01*
G75*
G02*
X136478500Y-90847500I0J213750D01*
G01*
X136478500Y-90307500D01*
G75*
G02*
X136692250Y-90093750I213750J0D01*
G01*
G37*
G36*
G01*
X136692250Y-91818750D02*
X137119750Y-91818750D01*
G75*
G02*
X137333500Y-92032500I0J-213750D01*
G01*
X137333500Y-92572500D01*
G75*
G02*
X137119750Y-92786250I-213750J0D01*
G01*
X136692250Y-92786250D01*
G75*
G02*
X136478500Y-92572500I0J213750D01*
G01*
X136478500Y-92032500D01*
G75*
G02*
X136692250Y-91818750I213750J0D01*
G01*
G37*
%TD*%
%TO.C,C241*%
G36*
G01*
X126669750Y-99273750D02*
X126669750Y-98846250D01*
G75*
G02*
X126883500Y-98632500I213750J0D01*
G01*
X127423500Y-98632500D01*
G75*
G02*
X127637250Y-98846250I0J-213750D01*
G01*
X127637250Y-99273750D01*
G75*
G02*
X127423500Y-99487500I-213750J0D01*
G01*
X126883500Y-99487500D01*
G75*
G02*
X126669750Y-99273750I0J213750D01*
G01*
G37*
G36*
G01*
X128394750Y-99273750D02*
X128394750Y-98846250D01*
G75*
G02*
X128608500Y-98632500I213750J0D01*
G01*
X129148500Y-98632500D01*
G75*
G02*
X129362250Y-98846250I0J-213750D01*
G01*
X129362250Y-99273750D01*
G75*
G02*
X129148500Y-99487500I-213750J0D01*
G01*
X128608500Y-99487500D01*
G75*
G02*
X128394750Y-99273750I0J213750D01*
G01*
G37*
%TD*%
%TO.C,C240*%
G36*
G01*
X140385750Y-107909750D02*
X140385750Y-107482250D01*
G75*
G02*
X140599500Y-107268500I213750J0D01*
G01*
X141139500Y-107268500D01*
G75*
G02*
X141353250Y-107482250I0J-213750D01*
G01*
X141353250Y-107909750D01*
G75*
G02*
X141139500Y-108123500I-213750J0D01*
G01*
X140599500Y-108123500D01*
G75*
G02*
X140385750Y-107909750I0J213750D01*
G01*
G37*
G36*
G01*
X142110750Y-107909750D02*
X142110750Y-107482250D01*
G75*
G02*
X142324500Y-107268500I213750J0D01*
G01*
X142864500Y-107268500D01*
G75*
G02*
X143078250Y-107482250I0J-213750D01*
G01*
X143078250Y-107909750D01*
G75*
G02*
X142864500Y-108123500I-213750J0D01*
G01*
X142324500Y-108123500D01*
G75*
G02*
X142110750Y-107909750I0J213750D01*
G01*
G37*
%TD*%
%TO.C,C239*%
G36*
G01*
X151216250Y-105036250D02*
X151216250Y-105463750D01*
G75*
G02*
X151002500Y-105677500I-213750J0D01*
G01*
X150462500Y-105677500D01*
G75*
G02*
X150248750Y-105463750I0J213750D01*
G01*
X150248750Y-105036250D01*
G75*
G02*
X150462500Y-104822500I213750J0D01*
G01*
X151002500Y-104822500D01*
G75*
G02*
X151216250Y-105036250I0J-213750D01*
G01*
G37*
G36*
G01*
X149491250Y-105036250D02*
X149491250Y-105463750D01*
G75*
G02*
X149277500Y-105677500I-213750J0D01*
G01*
X148737500Y-105677500D01*
G75*
G02*
X148523750Y-105463750I0J213750D01*
G01*
X148523750Y-105036250D01*
G75*
G02*
X148737500Y-104822500I213750J0D01*
G01*
X149277500Y-104822500D01*
G75*
G02*
X149491250Y-105036250I0J-213750D01*
G01*
G37*
%TD*%
%TO.C,C238*%
G36*
G01*
X148523750Y-103573750D02*
X148523750Y-103146250D01*
G75*
G02*
X148737500Y-102932500I213750J0D01*
G01*
X149277500Y-102932500D01*
G75*
G02*
X149491250Y-103146250I0J-213750D01*
G01*
X149491250Y-103573750D01*
G75*
G02*
X149277500Y-103787500I-213750J0D01*
G01*
X148737500Y-103787500D01*
G75*
G02*
X148523750Y-103573750I0J213750D01*
G01*
G37*
G36*
G01*
X150248750Y-103573750D02*
X150248750Y-103146250D01*
G75*
G02*
X150462500Y-102932500I213750J0D01*
G01*
X151002500Y-102932500D01*
G75*
G02*
X151216250Y-103146250I0J-213750D01*
G01*
X151216250Y-103573750D01*
G75*
G02*
X151002500Y-103787500I-213750J0D01*
G01*
X150462500Y-103787500D01*
G75*
G02*
X150248750Y-103573750I0J213750D01*
G01*
G37*
%TD*%
%TO.C,C237*%
G36*
G01*
X142316250Y-96560250D02*
X142316250Y-96987750D01*
G75*
G02*
X142102500Y-97201500I-213750J0D01*
G01*
X141562500Y-97201500D01*
G75*
G02*
X141348750Y-96987750I0J213750D01*
G01*
X141348750Y-96560250D01*
G75*
G02*
X141562500Y-96346500I213750J0D01*
G01*
X142102500Y-96346500D01*
G75*
G02*
X142316250Y-96560250I0J-213750D01*
G01*
G37*
G36*
G01*
X140591250Y-96560250D02*
X140591250Y-96987750D01*
G75*
G02*
X140377500Y-97201500I-213750J0D01*
G01*
X139837500Y-97201500D01*
G75*
G02*
X139623750Y-96987750I0J213750D01*
G01*
X139623750Y-96560250D01*
G75*
G02*
X139837500Y-96346500I213750J0D01*
G01*
X140377500Y-96346500D01*
G75*
G02*
X140591250Y-96560250I0J-213750D01*
G01*
G37*
%TD*%
%TO.C,C236*%
G36*
G01*
X138897750Y-107518250D02*
X138470250Y-107518250D01*
G75*
G02*
X138256500Y-107304500I0J213750D01*
G01*
X138256500Y-106764500D01*
G75*
G02*
X138470250Y-106550750I213750J0D01*
G01*
X138897750Y-106550750D01*
G75*
G02*
X139111500Y-106764500I0J-213750D01*
G01*
X139111500Y-107304500D01*
G75*
G02*
X138897750Y-107518250I-213750J0D01*
G01*
G37*
G36*
G01*
X138897750Y-105793250D02*
X138470250Y-105793250D01*
G75*
G02*
X138256500Y-105579500I0J213750D01*
G01*
X138256500Y-105039500D01*
G75*
G02*
X138470250Y-104825750I213750J0D01*
G01*
X138897750Y-104825750D01*
G75*
G02*
X139111500Y-105039500I0J-213750D01*
G01*
X139111500Y-105579500D01*
G75*
G02*
X138897750Y-105793250I-213750J0D01*
G01*
G37*
%TD*%
%TO.C,C235*%
G36*
G01*
X126669750Y-103337750D02*
X126669750Y-102910250D01*
G75*
G02*
X126883500Y-102696500I213750J0D01*
G01*
X127423500Y-102696500D01*
G75*
G02*
X127637250Y-102910250I0J-213750D01*
G01*
X127637250Y-103337750D01*
G75*
G02*
X127423500Y-103551500I-213750J0D01*
G01*
X126883500Y-103551500D01*
G75*
G02*
X126669750Y-103337750I0J213750D01*
G01*
G37*
G36*
G01*
X128394750Y-103337750D02*
X128394750Y-102910250D01*
G75*
G02*
X128608500Y-102696500I213750J0D01*
G01*
X129148500Y-102696500D01*
G75*
G02*
X129362250Y-102910250I0J-213750D01*
G01*
X129362250Y-103337750D01*
G75*
G02*
X129148500Y-103551500I-213750J0D01*
G01*
X128608500Y-103551500D01*
G75*
G02*
X128394750Y-103337750I0J213750D01*
G01*
G37*
%TD*%
%TO.C,C234*%
G36*
G01*
X128854250Y-107736250D02*
X128854250Y-108163750D01*
G75*
G02*
X128640500Y-108377500I-213750J0D01*
G01*
X128100500Y-108377500D01*
G75*
G02*
X127886750Y-108163750I0J213750D01*
G01*
X127886750Y-107736250D01*
G75*
G02*
X128100500Y-107522500I213750J0D01*
G01*
X128640500Y-107522500D01*
G75*
G02*
X128854250Y-107736250I0J-213750D01*
G01*
G37*
G36*
G01*
X127129250Y-107736250D02*
X127129250Y-108163750D01*
G75*
G02*
X126915500Y-108377500I-213750J0D01*
G01*
X126375500Y-108377500D01*
G75*
G02*
X126161750Y-108163750I0J213750D01*
G01*
X126161750Y-107736250D01*
G75*
G02*
X126375500Y-107522500I213750J0D01*
G01*
X126915500Y-107522500D01*
G75*
G02*
X127129250Y-107736250I0J-213750D01*
G01*
G37*
%TD*%
%TO.C,C233*%
G36*
G01*
X118473750Y-107643750D02*
X118473750Y-107216250D01*
G75*
G02*
X118687500Y-107002500I213750J0D01*
G01*
X119227500Y-107002500D01*
G75*
G02*
X119441250Y-107216250I0J-213750D01*
G01*
X119441250Y-107643750D01*
G75*
G02*
X119227500Y-107857500I-213750J0D01*
G01*
X118687500Y-107857500D01*
G75*
G02*
X118473750Y-107643750I0J213750D01*
G01*
G37*
G36*
G01*
X120198750Y-107643750D02*
X120198750Y-107216250D01*
G75*
G02*
X120412500Y-107002500I213750J0D01*
G01*
X120952500Y-107002500D01*
G75*
G02*
X121166250Y-107216250I0J-213750D01*
G01*
X121166250Y-107643750D01*
G75*
G02*
X120952500Y-107857500I-213750J0D01*
G01*
X120412500Y-107857500D01*
G75*
G02*
X120198750Y-107643750I0J213750D01*
G01*
G37*
%TD*%
%TO.C,C232*%
G36*
G01*
X121186250Y-90006250D02*
X121186250Y-90433750D01*
G75*
G02*
X120972500Y-90647500I-213750J0D01*
G01*
X120432500Y-90647500D01*
G75*
G02*
X120218750Y-90433750I0J213750D01*
G01*
X120218750Y-90006250D01*
G75*
G02*
X120432500Y-89792500I213750J0D01*
G01*
X120972500Y-89792500D01*
G75*
G02*
X121186250Y-90006250I0J-213750D01*
G01*
G37*
G36*
G01*
X119461250Y-90006250D02*
X119461250Y-90433750D01*
G75*
G02*
X119247500Y-90647500I-213750J0D01*
G01*
X118707500Y-90647500D01*
G75*
G02*
X118493750Y-90433750I0J213750D01*
G01*
X118493750Y-90006250D01*
G75*
G02*
X118707500Y-89792500I213750J0D01*
G01*
X119247500Y-89792500D01*
G75*
G02*
X119461250Y-90006250I0J-213750D01*
G01*
G37*
%TD*%
%TO.C,C231*%
G36*
G01*
X142316250Y-100624250D02*
X142316250Y-101051750D01*
G75*
G02*
X142102500Y-101265500I-213750J0D01*
G01*
X141562500Y-101265500D01*
G75*
G02*
X141348750Y-101051750I0J213750D01*
G01*
X141348750Y-100624250D01*
G75*
G02*
X141562500Y-100410500I213750J0D01*
G01*
X142102500Y-100410500D01*
G75*
G02*
X142316250Y-100624250I0J-213750D01*
G01*
G37*
G36*
G01*
X140591250Y-100624250D02*
X140591250Y-101051750D01*
G75*
G02*
X140377500Y-101265500I-213750J0D01*
G01*
X139837500Y-101265500D01*
G75*
G02*
X139623750Y-101051750I0J213750D01*
G01*
X139623750Y-100624250D01*
G75*
G02*
X139837500Y-100410500I213750J0D01*
G01*
X140377500Y-100410500D01*
G75*
G02*
X140591250Y-100624250I0J-213750D01*
G01*
G37*
%TD*%
%TO.C,C230*%
G36*
G01*
X148493750Y-101593750D02*
X148493750Y-101166250D01*
G75*
G02*
X148707500Y-100952500I213750J0D01*
G01*
X149247500Y-100952500D01*
G75*
G02*
X149461250Y-101166250I0J-213750D01*
G01*
X149461250Y-101593750D01*
G75*
G02*
X149247500Y-101807500I-213750J0D01*
G01*
X148707500Y-101807500D01*
G75*
G02*
X148493750Y-101593750I0J213750D01*
G01*
G37*
G36*
G01*
X150218750Y-101593750D02*
X150218750Y-101166250D01*
G75*
G02*
X150432500Y-100952500I213750J0D01*
G01*
X150972500Y-100952500D01*
G75*
G02*
X151186250Y-101166250I0J-213750D01*
G01*
X151186250Y-101593750D01*
G75*
G02*
X150972500Y-101807500I-213750J0D01*
G01*
X150432500Y-101807500D01*
G75*
G02*
X150218750Y-101593750I0J213750D01*
G01*
G37*
%TD*%
%TO.C,C229*%
G36*
G01*
X142316250Y-98592250D02*
X142316250Y-99019750D01*
G75*
G02*
X142102500Y-99233500I-213750J0D01*
G01*
X141562500Y-99233500D01*
G75*
G02*
X141348750Y-99019750I0J213750D01*
G01*
X141348750Y-98592250D01*
G75*
G02*
X141562500Y-98378500I213750J0D01*
G01*
X142102500Y-98378500D01*
G75*
G02*
X142316250Y-98592250I0J-213750D01*
G01*
G37*
G36*
G01*
X140591250Y-98592250D02*
X140591250Y-99019750D01*
G75*
G02*
X140377500Y-99233500I-213750J0D01*
G01*
X139837500Y-99233500D01*
G75*
G02*
X139623750Y-99019750I0J213750D01*
G01*
X139623750Y-98592250D01*
G75*
G02*
X139837500Y-98378500I213750J0D01*
G01*
X140377500Y-98378500D01*
G75*
G02*
X140591250Y-98592250I0J-213750D01*
G01*
G37*
%TD*%
%TO.C,C228*%
G36*
G01*
X150956250Y-94446250D02*
X150956250Y-94873750D01*
G75*
G02*
X150742500Y-95087500I-213750J0D01*
G01*
X150202500Y-95087500D01*
G75*
G02*
X149988750Y-94873750I0J213750D01*
G01*
X149988750Y-94446250D01*
G75*
G02*
X150202500Y-94232500I213750J0D01*
G01*
X150742500Y-94232500D01*
G75*
G02*
X150956250Y-94446250I0J-213750D01*
G01*
G37*
G36*
G01*
X149231250Y-94446250D02*
X149231250Y-94873750D01*
G75*
G02*
X149017500Y-95087500I-213750J0D01*
G01*
X148477500Y-95087500D01*
G75*
G02*
X148263750Y-94873750I0J213750D01*
G01*
X148263750Y-94446250D01*
G75*
G02*
X148477500Y-94232500I213750J0D01*
G01*
X149017500Y-94232500D01*
G75*
G02*
X149231250Y-94446250I0J-213750D01*
G01*
G37*
%TD*%
%TO.C,C227*%
G36*
G01*
X140639750Y-90637750D02*
X140639750Y-90210250D01*
G75*
G02*
X140853500Y-89996500I213750J0D01*
G01*
X141393500Y-89996500D01*
G75*
G02*
X141607250Y-90210250I0J-213750D01*
G01*
X141607250Y-90637750D01*
G75*
G02*
X141393500Y-90851500I-213750J0D01*
G01*
X140853500Y-90851500D01*
G75*
G02*
X140639750Y-90637750I0J213750D01*
G01*
G37*
G36*
G01*
X142364750Y-90637750D02*
X142364750Y-90210250D01*
G75*
G02*
X142578500Y-89996500I213750J0D01*
G01*
X143118500Y-89996500D01*
G75*
G02*
X143332250Y-90210250I0J-213750D01*
G01*
X143332250Y-90637750D01*
G75*
G02*
X143118500Y-90851500I-213750J0D01*
G01*
X142578500Y-90851500D01*
G75*
G02*
X142364750Y-90637750I0J213750D01*
G01*
G37*
%TD*%
%TO.C,C226*%
G36*
G01*
X142316250Y-102656250D02*
X142316250Y-103083750D01*
G75*
G02*
X142102500Y-103297500I-213750J0D01*
G01*
X141562500Y-103297500D01*
G75*
G02*
X141348750Y-103083750I0J213750D01*
G01*
X141348750Y-102656250D01*
G75*
G02*
X141562500Y-102442500I213750J0D01*
G01*
X142102500Y-102442500D01*
G75*
G02*
X142316250Y-102656250I0J-213750D01*
G01*
G37*
G36*
G01*
X140591250Y-102656250D02*
X140591250Y-103083750D01*
G75*
G02*
X140377500Y-103297500I-213750J0D01*
G01*
X139837500Y-103297500D01*
G75*
G02*
X139623750Y-103083750I0J213750D01*
G01*
X139623750Y-102656250D01*
G75*
G02*
X139837500Y-102442500I213750J0D01*
G01*
X140377500Y-102442500D01*
G75*
G02*
X140591250Y-102656250I0J-213750D01*
G01*
G37*
%TD*%
%TO.C,C225*%
G36*
G01*
X132039750Y-107518250D02*
X131612250Y-107518250D01*
G75*
G02*
X131398500Y-107304500I0J213750D01*
G01*
X131398500Y-106764500D01*
G75*
G02*
X131612250Y-106550750I213750J0D01*
G01*
X132039750Y-106550750D01*
G75*
G02*
X132253500Y-106764500I0J-213750D01*
G01*
X132253500Y-107304500D01*
G75*
G02*
X132039750Y-107518250I-213750J0D01*
G01*
G37*
G36*
G01*
X132039750Y-105793250D02*
X131612250Y-105793250D01*
G75*
G02*
X131398500Y-105579500I0J213750D01*
G01*
X131398500Y-105039500D01*
G75*
G02*
X131612250Y-104825750I213750J0D01*
G01*
X132039750Y-104825750D01*
G75*
G02*
X132253500Y-105039500I0J-213750D01*
G01*
X132253500Y-105579500D01*
G75*
G02*
X132039750Y-105793250I-213750J0D01*
G01*
G37*
%TD*%
%TO.C,C224*%
G36*
G01*
X126669750Y-97241750D02*
X126669750Y-96814250D01*
G75*
G02*
X126883500Y-96600500I213750J0D01*
G01*
X127423500Y-96600500D01*
G75*
G02*
X127637250Y-96814250I0J-213750D01*
G01*
X127637250Y-97241750D01*
G75*
G02*
X127423500Y-97455500I-213750J0D01*
G01*
X126883500Y-97455500D01*
G75*
G02*
X126669750Y-97241750I0J213750D01*
G01*
G37*
G36*
G01*
X128394750Y-97241750D02*
X128394750Y-96814250D01*
G75*
G02*
X128608500Y-96600500I213750J0D01*
G01*
X129148500Y-96600500D01*
G75*
G02*
X129362250Y-96814250I0J-213750D01*
G01*
X129362250Y-97241750D01*
G75*
G02*
X129148500Y-97455500I-213750J0D01*
G01*
X128608500Y-97455500D01*
G75*
G02*
X128394750Y-97241750I0J213750D01*
G01*
G37*
%TD*%
%TO.C,C223*%
G36*
G01*
X134325750Y-107518250D02*
X133898250Y-107518250D01*
G75*
G02*
X133684500Y-107304500I0J213750D01*
G01*
X133684500Y-106764500D01*
G75*
G02*
X133898250Y-106550750I213750J0D01*
G01*
X134325750Y-106550750D01*
G75*
G02*
X134539500Y-106764500I0J-213750D01*
G01*
X134539500Y-107304500D01*
G75*
G02*
X134325750Y-107518250I-213750J0D01*
G01*
G37*
G36*
G01*
X134325750Y-105793250D02*
X133898250Y-105793250D01*
G75*
G02*
X133684500Y-105579500I0J213750D01*
G01*
X133684500Y-105039500D01*
G75*
G02*
X133898250Y-104825750I213750J0D01*
G01*
X134325750Y-104825750D01*
G75*
G02*
X134539500Y-105039500I0J-213750D01*
G01*
X134539500Y-105579500D01*
G75*
G02*
X134325750Y-105793250I-213750J0D01*
G01*
G37*
%TD*%
%TO.C,C222*%
G36*
G01*
X134660250Y-90093750D02*
X135087750Y-90093750D01*
G75*
G02*
X135301500Y-90307500I0J-213750D01*
G01*
X135301500Y-90847500D01*
G75*
G02*
X135087750Y-91061250I-213750J0D01*
G01*
X134660250Y-91061250D01*
G75*
G02*
X134446500Y-90847500I0J213750D01*
G01*
X134446500Y-90307500D01*
G75*
G02*
X134660250Y-90093750I213750J0D01*
G01*
G37*
G36*
G01*
X134660250Y-91818750D02*
X135087750Y-91818750D01*
G75*
G02*
X135301500Y-92032500I0J-213750D01*
G01*
X135301500Y-92572500D01*
G75*
G02*
X135087750Y-92786250I-213750J0D01*
G01*
X134660250Y-92786250D01*
G75*
G02*
X134446500Y-92572500I0J213750D01*
G01*
X134446500Y-92032500D01*
G75*
G02*
X134660250Y-91818750I213750J0D01*
G01*
G37*
%TD*%
%TO.C,C221*%
G36*
G01*
X126669750Y-101305750D02*
X126669750Y-100878250D01*
G75*
G02*
X126883500Y-100664500I213750J0D01*
G01*
X127423500Y-100664500D01*
G75*
G02*
X127637250Y-100878250I0J-213750D01*
G01*
X127637250Y-101305750D01*
G75*
G02*
X127423500Y-101519500I-213750J0D01*
G01*
X126883500Y-101519500D01*
G75*
G02*
X126669750Y-101305750I0J213750D01*
G01*
G37*
G36*
G01*
X128394750Y-101305750D02*
X128394750Y-100878250D01*
G75*
G02*
X128608500Y-100664500I213750J0D01*
G01*
X129148500Y-100664500D01*
G75*
G02*
X129362250Y-100878250I0J-213750D01*
G01*
X129362250Y-101305750D01*
G75*
G02*
X129148500Y-101519500I-213750J0D01*
G01*
X128608500Y-101519500D01*
G75*
G02*
X128394750Y-101305750I0J213750D01*
G01*
G37*
%TD*%
M02*
