M48
; DRILL file {KiCad 7.0.7} date Tue Dec 26 13:33:42 2023
; FORMAT={-:-/ absolute / metric / decimal}
; #@! TF.CreationDate,2023-12-26T13:33:42+01:00
; #@! TF.GenerationSoftware,Kicad,Pcbnew,7.0.7
; #@! TF.FileFunction,Plated,1,2,PTH
FMAT,2
METRIC
; #@! TA.AperFunction,Plated,PTH,ViaDrill
T1C0.400
; #@! TA.AperFunction,Plated,PTH,ComponentDrill
T2C1.000
; #@! TA.AperFunction,Plated,PTH,ComponentDrill
T3C1.016
; #@! TA.AperFunction,Plated,PTH,ComponentDrill
T4C1.270
; #@! TA.AperFunction,Plated,PTH,ComponentDrill
T5C1.570
; #@! TA.AperFunction,Plated,PTH,ComponentDrill
T6C1.600
; #@! TA.AperFunction,Plated,PTH,ComponentDrill
T7C3.300
%
G90
G05
T1
X104.0Y-117.8
X104.6Y-119.4
X108.45Y-75.95
X109.9Y-117.3
X111.8Y-111.0
X117.4Y-116.6
X130.0Y-112.8
X130.2Y-108.8
X134.6Y-92.8
X142.4Y-75.4
X142.4Y-91.0
T2
X91.6Y-83.0
X91.6Y-88.08
X91.6Y-114.0
X91.6Y-119.08
X94.14Y-80.46
X94.14Y-85.54
X94.14Y-88.08
X94.14Y-111.46
X94.14Y-116.54
X94.14Y-119.08
X101.92Y-122.5
X101.92Y-125.04
X104.46Y-122.5
X104.46Y-125.04
X107.0Y-122.5
X107.0Y-125.04
X109.54Y-122.5
X109.54Y-125.04
X112.08Y-122.5
X112.08Y-125.04
X150.8Y-79.92
X150.8Y-82.46
X150.8Y-87.54
X150.8Y-99.92
X150.8Y-102.46
X150.8Y-107.54
X153.34Y-79.92
X153.34Y-85.0
X153.34Y-99.92
X153.34Y-105.0
T3
X120.57Y-122.73
X120.57Y-125.27
X123.11Y-122.73
X123.11Y-125.27
X125.65Y-122.73
X125.65Y-125.27
X128.19Y-122.73
X128.19Y-125.27
X130.73Y-122.73
X130.73Y-125.27
X133.27Y-122.73
X133.27Y-125.27
X135.81Y-122.73
X135.81Y-125.27
X138.35Y-122.73
X138.35Y-125.27
X140.89Y-122.73
X140.89Y-125.27
X143.43Y-122.73
X143.43Y-125.27
T4
X144.1Y-116.0
X149.1Y-116.0
T5
X91.6Y-80.46
X91.6Y-85.54
X91.6Y-111.46
X91.6Y-116.54
X94.14Y-83.0
X94.14Y-114.0
X96.68Y-80.46
X96.68Y-85.54
X96.68Y-111.46
X96.68Y-116.54
X148.26Y-82.46
X148.26Y-87.54
X148.26Y-102.46
X148.26Y-107.54
X150.8Y-85.0
X150.8Y-105.0
X153.34Y-82.46
X153.34Y-87.54
X153.34Y-102.46
X153.34Y-107.54
T6
X141.0Y-116.0
X144.0Y-111.3
X147.15Y-116.0
T7
X93.5Y-74.5
X93.5Y-123.5
X151.5Y-74.5
X151.5Y-123.5
T0
M30
