M48
; DRILL file {KiCad (5.1.8)-1} date 11/16/21 20:30:27
; FORMAT={-:-/ absolute / inch / decimal}
; #@! TF.CreationDate,2021-11-16T20:30:27+01:00
; #@! TF.GenerationSoftware,Kicad,Pcbnew,(5.1.8)-1
FMAT,2
INCH
T1C0.0157
T2C0.0236
T3C0.0354
T4C0.0394
T5C0.0400
T6C0.0500
T7C0.0630
T8C0.1299
T9C0.0256
%
G90
G05
T1
X3.8701Y-4.2303
X3.9409Y-4.6122
X4.0118Y-4.4783
X4.0669Y-4.5177
X4.2776Y-4.5551
X4.3445Y-3.1929
X4.4724Y-3.5039
X4.4862Y-4.628
X4.5787Y-3.6654
X4.6614Y-3.5128
X4.7205Y-3.2933
X4.8445Y-3.5217
X4.8465Y-3.6594
X4.9055Y-3.561
X4.9173Y-3.4094
X4.9193Y-3.7244
X5.0157Y-3.8268
X5.1161Y-3.4094
X5.1673Y-4.1083
X5.3642Y-3.2067
X5.372Y-3.7372
X5.3728Y-3.1272
X5.4882Y-3.0886
X5.6378Y-3.6575
X5.6713Y-3.0827
T3
X4.7445Y-4.9213
X4.8445Y-4.9213
T4
X3.9996Y-4.8091
X3.9996Y-4.9091
X4.0996Y-4.8091
X4.0996Y-4.9091
X4.1996Y-4.8091
X4.1996Y-4.9091
X4.2996Y-4.8091
X4.2996Y-4.9091
X4.3996Y-4.8091
X4.3996Y-4.9091
T5
X3.8728Y-2.8831
X3.8728Y-2.9831
X3.9728Y-2.8831
X3.9728Y-2.9831
X4.0728Y-2.8831
X4.0728Y-2.9831
X4.1728Y-2.8831
X4.1728Y-2.9831
X4.2728Y-2.8831
X4.2728Y-2.9831
X4.3728Y-2.8831
X4.3728Y-2.9831
X4.4728Y-2.8831
X4.4728Y-2.9831
X4.5728Y-2.8831
X4.5728Y-2.9831
X4.6728Y-2.8831
X4.6728Y-2.9831
X4.7728Y-2.8831
X4.7728Y-2.9831
X4.8728Y-2.8831
X4.8728Y-2.9831
X4.9728Y-2.8831
X4.9728Y-2.9831
X5.0728Y-2.8831
X5.0728Y-2.9831
X5.1728Y-2.8831
X5.1728Y-2.9831
X5.2728Y-2.8831
X5.2728Y-2.9831
X5.3728Y-2.8831
X5.3728Y-2.9831
X5.4728Y-2.8831
X5.4728Y-2.9831
X5.5728Y-2.8831
X5.5728Y-2.9831
X5.6728Y-2.8831
X5.6728Y-2.9831
X5.7728Y-2.8831
X5.7728Y-2.9831
T6
X5.685Y-4.4921
X5.8819Y-4.4921
T7
X5.563Y-4.4921
X5.6811Y-4.3071
X5.8051Y-4.4921
T8
X3.6811Y-4.8622
X5.9646Y-4.8622
X3.6811Y-2.9331
X5.9646Y-2.9331
T9
X5.8996Y-3.7835
X5.8996Y-4.0118
T2
G00X5.8669Y-3.7276
M15
G01X5.8906Y-3.7276
M16
G05
G00X5.8669Y-4.0677
M15
G01X5.8906Y-4.0677
M16
G05
G00X6.0315Y-3.7276
M15
G01X6.0551Y-3.7276
M16
G05
G00X6.0315Y-4.0677
M15
G01X6.0551Y-4.0677
M16
G05
T0
M30
