%TF.GenerationSoftware,KiCad,Pcbnew,(5.1.8)-1*%
%TF.CreationDate,2021-11-18T21:11:29+01:00*%
%TF.ProjectId,radioberry-juice,72616469-6f62-4657-9272-792d6a756963,rev?*%
%TF.SameCoordinates,Original*%
%TF.FileFunction,Legend,Bot*%
%TF.FilePolarity,Positive*%
%FSLAX46Y46*%
G04 Gerber Fmt 4.6, Leading zero omitted, Abs format (unit mm)*
G04 Created by KiCad (PCBNEW (5.1.8)-1) date 2021-11-18 21:11:29*
%MOMM*%
%LPD*%
G01*
G04 APERTURE LIST*
%ADD10C,0.120000*%
%ADD11C,0.100000*%
%ADD12C,0.152400*%
%ADD13C,0.150000*%
G04 APERTURE END LIST*
D10*
%TO.C,C22*%
X120650000Y-91200000D02*
X120650000Y-91900000D01*
X121850000Y-91900000D02*
X121850000Y-91200000D01*
D11*
%TO.C,J5*%
G36*
X146376000Y-76024000D02*
G01*
X146884000Y-76024000D01*
X146884000Y-75516000D01*
X146376000Y-75516000D01*
X146376000Y-76024000D01*
G37*
G36*
X146376000Y-73484000D02*
G01*
X146884000Y-73484000D01*
X146884000Y-72976000D01*
X146376000Y-72976000D01*
X146376000Y-73484000D01*
G37*
G36*
X143836000Y-76024000D02*
G01*
X144344000Y-76024000D01*
X144344000Y-75516000D01*
X143836000Y-75516000D01*
X143836000Y-76024000D01*
G37*
G36*
X143836000Y-73484000D02*
G01*
X144344000Y-73484000D01*
X144344000Y-72976000D01*
X143836000Y-72976000D01*
X143836000Y-73484000D01*
G37*
G36*
X141296000Y-76024000D02*
G01*
X141804000Y-76024000D01*
X141804000Y-75516000D01*
X141296000Y-75516000D01*
X141296000Y-76024000D01*
G37*
G36*
X141296000Y-73484000D02*
G01*
X141804000Y-73484000D01*
X141804000Y-72976000D01*
X141296000Y-72976000D01*
X141296000Y-73484000D01*
G37*
G36*
X138756000Y-76024000D02*
G01*
X139264000Y-76024000D01*
X139264000Y-75516000D01*
X138756000Y-75516000D01*
X138756000Y-76024000D01*
G37*
G36*
X138756000Y-73484000D02*
G01*
X139264000Y-73484000D01*
X139264000Y-72976000D01*
X138756000Y-72976000D01*
X138756000Y-73484000D01*
G37*
G36*
X136216000Y-76024000D02*
G01*
X136724000Y-76024000D01*
X136724000Y-75516000D01*
X136216000Y-75516000D01*
X136216000Y-76024000D01*
G37*
G36*
X136216000Y-73484000D02*
G01*
X136724000Y-73484000D01*
X136724000Y-72976000D01*
X136216000Y-72976000D01*
X136216000Y-73484000D01*
G37*
G36*
X133676000Y-76024000D02*
G01*
X134184000Y-76024000D01*
X134184000Y-75516000D01*
X133676000Y-75516000D01*
X133676000Y-76024000D01*
G37*
G36*
X133676000Y-73484000D02*
G01*
X134184000Y-73484000D01*
X134184000Y-72976000D01*
X133676000Y-72976000D01*
X133676000Y-73484000D01*
G37*
G36*
X131136000Y-76024000D02*
G01*
X131644000Y-76024000D01*
X131644000Y-75516000D01*
X131136000Y-75516000D01*
X131136000Y-76024000D01*
G37*
G36*
X131136000Y-73484000D02*
G01*
X131644000Y-73484000D01*
X131644000Y-72976000D01*
X131136000Y-72976000D01*
X131136000Y-73484000D01*
G37*
G36*
X128596000Y-76024000D02*
G01*
X129104000Y-76024000D01*
X129104000Y-75516000D01*
X128596000Y-75516000D01*
X128596000Y-76024000D01*
G37*
G36*
X128596000Y-73484000D02*
G01*
X129104000Y-73484000D01*
X129104000Y-72976000D01*
X128596000Y-72976000D01*
X128596000Y-73484000D01*
G37*
G36*
X126056000Y-76024000D02*
G01*
X126564000Y-76024000D01*
X126564000Y-75516000D01*
X126056000Y-75516000D01*
X126056000Y-76024000D01*
G37*
G36*
X126056000Y-73484000D02*
G01*
X126564000Y-73484000D01*
X126564000Y-72976000D01*
X126056000Y-72976000D01*
X126056000Y-73484000D01*
G37*
G36*
X123516000Y-76024000D02*
G01*
X124024000Y-76024000D01*
X124024000Y-75516000D01*
X123516000Y-75516000D01*
X123516000Y-76024000D01*
G37*
G36*
X123516000Y-73484000D02*
G01*
X124024000Y-73484000D01*
X124024000Y-72976000D01*
X123516000Y-72976000D01*
X123516000Y-73484000D01*
G37*
G36*
X120976000Y-76024000D02*
G01*
X121484000Y-76024000D01*
X121484000Y-75516000D01*
X120976000Y-75516000D01*
X120976000Y-76024000D01*
G37*
G36*
X120976000Y-73484000D02*
G01*
X121484000Y-73484000D01*
X121484000Y-72976000D01*
X120976000Y-72976000D01*
X120976000Y-73484000D01*
G37*
G36*
X118436000Y-76024000D02*
G01*
X118944000Y-76024000D01*
X118944000Y-75516000D01*
X118436000Y-75516000D01*
X118436000Y-76024000D01*
G37*
G36*
X118436000Y-73484000D02*
G01*
X118944000Y-73484000D01*
X118944000Y-72976000D01*
X118436000Y-72976000D01*
X118436000Y-73484000D01*
G37*
G36*
X115896000Y-76024000D02*
G01*
X116404000Y-76024000D01*
X116404000Y-75516000D01*
X115896000Y-75516000D01*
X115896000Y-76024000D01*
G37*
G36*
X115896000Y-73484000D02*
G01*
X116404000Y-73484000D01*
X116404000Y-72976000D01*
X115896000Y-72976000D01*
X115896000Y-73484000D01*
G37*
G36*
X113356000Y-76024000D02*
G01*
X113864000Y-76024000D01*
X113864000Y-75516000D01*
X113356000Y-75516000D01*
X113356000Y-76024000D01*
G37*
G36*
X113356000Y-73484000D02*
G01*
X113864000Y-73484000D01*
X113864000Y-72976000D01*
X113356000Y-72976000D01*
X113356000Y-73484000D01*
G37*
G36*
X110816000Y-76024000D02*
G01*
X111324000Y-76024000D01*
X111324000Y-75516000D01*
X110816000Y-75516000D01*
X110816000Y-76024000D01*
G37*
G36*
X108276000Y-76024000D02*
G01*
X108784000Y-76024000D01*
X108784000Y-75516000D01*
X108276000Y-75516000D01*
X108276000Y-76024000D01*
G37*
G36*
X105736000Y-76024000D02*
G01*
X106244000Y-76024000D01*
X106244000Y-75516000D01*
X105736000Y-75516000D01*
X105736000Y-76024000D01*
G37*
G36*
X110816000Y-73484000D02*
G01*
X111324000Y-73484000D01*
X111324000Y-72976000D01*
X110816000Y-72976000D01*
X110816000Y-73484000D01*
G37*
G36*
X108276000Y-73484000D02*
G01*
X108784000Y-73484000D01*
X108784000Y-72976000D01*
X108276000Y-72976000D01*
X108276000Y-73484000D01*
G37*
G36*
X105736000Y-73484000D02*
G01*
X106244000Y-73484000D01*
X106244000Y-72976000D01*
X105736000Y-72976000D01*
X105736000Y-73484000D01*
G37*
G36*
X103196000Y-76024000D02*
G01*
X103704000Y-76024000D01*
X103704000Y-75516000D01*
X103196000Y-75516000D01*
X103196000Y-76024000D01*
G37*
G36*
X103196000Y-73484000D02*
G01*
X103704000Y-73484000D01*
X103704000Y-72976000D01*
X103196000Y-72976000D01*
X103196000Y-73484000D01*
G37*
G36*
X100656000Y-76024000D02*
G01*
X101164000Y-76024000D01*
X101164000Y-75516000D01*
X100656000Y-75516000D01*
X100656000Y-76024000D01*
G37*
G36*
X100656000Y-73484000D02*
G01*
X101164000Y-73484000D01*
X101164000Y-72976000D01*
X100656000Y-72976000D01*
X100656000Y-73484000D01*
G37*
G36*
X98116000Y-73484000D02*
G01*
X98624000Y-73484000D01*
X98624000Y-72976000D01*
X98116000Y-72976000D01*
X98116000Y-73484000D01*
G37*
G36*
X98116000Y-76024000D02*
G01*
X98624000Y-76024000D01*
X98624000Y-75516000D01*
X98116000Y-75516000D01*
X98116000Y-76024000D01*
G37*
D12*
X147900000Y-72595000D02*
X147900000Y-76405000D01*
X145360000Y-76405000D02*
X145995000Y-77040000D01*
X147265000Y-77040000D02*
X145995000Y-77040000D01*
X147900000Y-76405000D02*
X147265000Y-77040000D01*
X147265000Y-71960000D02*
X147900000Y-72595000D01*
X147265000Y-71960000D02*
X145995000Y-71960000D01*
X145360000Y-72595000D02*
X145995000Y-71960000D01*
X145360000Y-72595000D02*
X145360000Y-76405000D01*
X142820000Y-72595000D02*
X142820000Y-76405000D01*
X140280000Y-72595000D02*
X140280000Y-76405000D01*
X137740000Y-72595000D02*
X137740000Y-76405000D01*
X135200000Y-72595000D02*
X135200000Y-76405000D01*
X132660000Y-72595000D02*
X132660000Y-76405000D01*
X130120000Y-72595000D02*
X130120000Y-76405000D01*
X127580000Y-72595000D02*
X127580000Y-76405000D01*
X125040000Y-72595000D02*
X125040000Y-76405000D01*
X122500000Y-72595000D02*
X122500000Y-76405000D01*
X119960000Y-72595000D02*
X119960000Y-76405000D01*
X117420000Y-72595000D02*
X117420000Y-76405000D01*
X114880000Y-72595000D02*
X114880000Y-76405000D01*
X112340000Y-72595000D02*
X112340000Y-76405000D01*
X109800000Y-72595000D02*
X109800000Y-76405000D01*
X107260000Y-72595000D02*
X107260000Y-76405000D01*
X104720000Y-72595000D02*
X104720000Y-76405000D01*
X102180000Y-72595000D02*
X102180000Y-76405000D01*
X99640000Y-72595000D02*
X99640000Y-76405000D01*
X112340000Y-76405000D02*
X112975000Y-77040000D01*
X114245000Y-77040000D02*
X112975000Y-77040000D01*
X114880000Y-76405000D02*
X114245000Y-77040000D01*
X114880000Y-76405000D02*
X115515000Y-77040000D01*
X116785000Y-77040000D02*
X115515000Y-77040000D01*
X117420000Y-76405000D02*
X116785000Y-77040000D01*
X117420000Y-76405000D02*
X118055000Y-77040000D01*
X119325000Y-77040000D02*
X118055000Y-77040000D01*
X119960000Y-76405000D02*
X119325000Y-77040000D01*
X119960000Y-76405000D02*
X120595000Y-77040000D01*
X121865000Y-77040000D02*
X120595000Y-77040000D01*
X122500000Y-76405000D02*
X121865000Y-77040000D01*
X122500000Y-76405000D02*
X123135000Y-77040000D01*
X124405000Y-77040000D02*
X123135000Y-77040000D01*
X125040000Y-76405000D02*
X124405000Y-77040000D01*
X125040000Y-76405000D02*
X125675000Y-77040000D01*
X126945000Y-77040000D02*
X125675000Y-77040000D01*
X127580000Y-76405000D02*
X126945000Y-77040000D01*
X127580000Y-76405000D02*
X128215000Y-77040000D01*
X129485000Y-77040000D02*
X128215000Y-77040000D01*
X130120000Y-76405000D02*
X129485000Y-77040000D01*
X130120000Y-76405000D02*
X130755000Y-77040000D01*
X132025000Y-77040000D02*
X130755000Y-77040000D01*
X132660000Y-76405000D02*
X132025000Y-77040000D01*
X133295000Y-77040000D02*
X132660000Y-76405000D01*
X133295000Y-77040000D02*
X134565000Y-77040000D01*
X135200000Y-76405000D02*
X134565000Y-77040000D01*
X135835000Y-77040000D02*
X135200000Y-76405000D01*
X135835000Y-77040000D02*
X137105000Y-77040000D01*
X137740000Y-76405000D02*
X137105000Y-77040000D01*
X137740000Y-76405000D02*
X138375000Y-77040000D01*
X139645000Y-77040000D02*
X138375000Y-77040000D01*
X140280000Y-76405000D02*
X139645000Y-77040000D01*
X140280000Y-76405000D02*
X140915000Y-77040000D01*
X142185000Y-77040000D02*
X140915000Y-77040000D01*
X142820000Y-76405000D02*
X142185000Y-77040000D01*
X142820000Y-76405000D02*
X143455000Y-77040000D01*
X144725000Y-77040000D02*
X143455000Y-77040000D01*
X145360000Y-76405000D02*
X144725000Y-77040000D01*
X144725000Y-71960000D02*
X145360000Y-72595000D01*
X144725000Y-71960000D02*
X143455000Y-71960000D01*
X142820000Y-72595000D02*
X143455000Y-71960000D01*
X142185000Y-71960000D02*
X142820000Y-72595000D01*
X142185000Y-71960000D02*
X140915000Y-71960000D01*
X140280000Y-72595000D02*
X140915000Y-71960000D01*
X139645000Y-71960000D02*
X140280000Y-72595000D01*
X139645000Y-71960000D02*
X138375000Y-71960000D01*
X137740000Y-72595000D02*
X138375000Y-71960000D01*
X137105000Y-71960000D02*
X137740000Y-72595000D01*
X137105000Y-71960000D02*
X135835000Y-71960000D01*
X135200000Y-72595000D02*
X135835000Y-71960000D01*
X134565000Y-71960000D02*
X135200000Y-72595000D01*
X134565000Y-71960000D02*
X133295000Y-71960000D01*
X132660000Y-72595000D02*
X133295000Y-71960000D01*
X132025000Y-71960000D02*
X132660000Y-72595000D01*
X132025000Y-71960000D02*
X130755000Y-71960000D01*
X130120000Y-72595000D02*
X130755000Y-71960000D01*
X129485000Y-71960000D02*
X130120000Y-72595000D01*
X129485000Y-71960000D02*
X128215000Y-71960000D01*
X127580000Y-72595000D02*
X128215000Y-71960000D01*
X127580000Y-72595000D02*
X126945000Y-71960000D01*
X125675000Y-71960000D02*
X126945000Y-71960000D01*
X125040000Y-72595000D02*
X125675000Y-71960000D01*
X124405000Y-71960000D02*
X125040000Y-72595000D01*
X123135000Y-71960000D02*
X124405000Y-71960000D01*
X122500000Y-72595000D02*
X123135000Y-71960000D01*
X121865000Y-71960000D02*
X122500000Y-72595000D01*
X120595000Y-71960000D02*
X121865000Y-71960000D01*
X119960000Y-72595000D02*
X120595000Y-71960000D01*
X119325000Y-71960000D02*
X119960000Y-72595000D01*
X118055000Y-71960000D02*
X119325000Y-71960000D01*
X117420000Y-72595000D02*
X118055000Y-71960000D01*
X116785000Y-71960000D02*
X117420000Y-72595000D01*
X115515000Y-71960000D02*
X116785000Y-71960000D01*
X114880000Y-72595000D02*
X115515000Y-71960000D01*
X114245000Y-71960000D02*
X114880000Y-72595000D01*
X112975000Y-71960000D02*
X114245000Y-71960000D01*
X112340000Y-72595000D02*
X112975000Y-71960000D01*
X111705000Y-71960000D02*
X112340000Y-72595000D01*
X110435000Y-71960000D02*
X111705000Y-71960000D01*
X109800000Y-72595000D02*
X110435000Y-71960000D01*
X109165000Y-71960000D02*
X109800000Y-72595000D01*
X107895000Y-71960000D02*
X109165000Y-71960000D01*
X107260000Y-72595000D02*
X107895000Y-71960000D01*
X106625000Y-71960000D02*
X107260000Y-72595000D01*
X105355000Y-71960000D02*
X106625000Y-71960000D01*
X104720000Y-72595000D02*
X105355000Y-71960000D01*
X104085000Y-71960000D02*
X104720000Y-72595000D01*
X102815000Y-71960000D02*
X104085000Y-71960000D01*
X102180000Y-72595000D02*
X102815000Y-71960000D01*
X101545000Y-71960000D02*
X102180000Y-72595000D01*
X100275000Y-71960000D02*
X101545000Y-71960000D01*
X99640000Y-72595000D02*
X100275000Y-71960000D01*
X99005000Y-71960000D02*
X99640000Y-72595000D01*
X97735000Y-71960000D02*
X99005000Y-71960000D01*
X97100000Y-72595000D02*
X97735000Y-71960000D01*
X97100000Y-76405000D02*
X97100000Y-72595000D01*
X111705000Y-77040000D02*
X112340000Y-76405000D01*
X110435000Y-77040000D02*
X111705000Y-77040000D01*
X109800000Y-76405000D02*
X110435000Y-77040000D01*
X109165000Y-77040000D02*
X109800000Y-76405000D01*
X107895000Y-77040000D02*
X109165000Y-77040000D01*
X107260000Y-76405000D02*
X107895000Y-77040000D01*
X106625000Y-77040000D02*
X107260000Y-76405000D01*
X105355000Y-77040000D02*
X106625000Y-77040000D01*
X104720000Y-76405000D02*
X105355000Y-77040000D01*
X104085000Y-77040000D02*
X104720000Y-76405000D01*
X102815000Y-77040000D02*
X104085000Y-77040000D01*
X102180000Y-76405000D02*
X102815000Y-77040000D01*
X101545000Y-77040000D02*
X102180000Y-76405000D01*
X100275000Y-77040000D02*
X101545000Y-77040000D01*
X99640000Y-76405000D02*
X100275000Y-77040000D01*
X99005000Y-77040000D02*
X99640000Y-76405000D01*
X97735000Y-77040000D02*
X99005000Y-77040000D01*
X97100000Y-76405000D02*
X97735000Y-77040000D01*
D11*
%TO.C,J3*%
X110915000Y-117457000D02*
X110915000Y-119743000D01*
X110915000Y-119743000D02*
X112185000Y-119743000D01*
X112185000Y-119743000D02*
X112185000Y-117457000D01*
X112185000Y-117457000D02*
X110915000Y-117457000D01*
%TO.C,J4*%
X109885000Y-117557000D02*
X108615000Y-117557000D01*
X109885000Y-119843000D02*
X109885000Y-117557000D01*
X108615000Y-119843000D02*
X109885000Y-119843000D01*
X108615000Y-117557000D02*
X108615000Y-119843000D01*
D10*
%TO.C,C35*%
X93650000Y-80050000D02*
X94650000Y-80050000D01*
X94650000Y-81750000D02*
X93650000Y-81750000D01*
%TO.C,C22*%
D13*
X122857142Y-90907142D02*
X122904761Y-90859523D01*
X122952380Y-90716666D01*
X122952380Y-90621428D01*
X122904761Y-90478571D01*
X122809523Y-90383333D01*
X122714285Y-90335714D01*
X122523809Y-90288095D01*
X122380952Y-90288095D01*
X122190476Y-90335714D01*
X122095238Y-90383333D01*
X122000000Y-90478571D01*
X121952380Y-90621428D01*
X121952380Y-90716666D01*
X122000000Y-90859523D01*
X122047619Y-90907142D01*
X122047619Y-91288095D02*
X122000000Y-91335714D01*
X121952380Y-91430952D01*
X121952380Y-91669047D01*
X122000000Y-91764285D01*
X122047619Y-91811904D01*
X122142857Y-91859523D01*
X122238095Y-91859523D01*
X122380952Y-91811904D01*
X122952380Y-91240476D01*
X122952380Y-91859523D01*
X122047619Y-92240476D02*
X122000000Y-92288095D01*
X121952380Y-92383333D01*
X121952380Y-92621428D01*
X122000000Y-92716666D01*
X122047619Y-92764285D01*
X122142857Y-92811904D01*
X122238095Y-92811904D01*
X122380952Y-92764285D01*
X122952380Y-92192857D01*
X122952380Y-92811904D01*
%TO.C,J3*%
D11*
X111111904Y-118333333D02*
X111683333Y-118333333D01*
X111797619Y-118295238D01*
X111873809Y-118219047D01*
X111911904Y-118104761D01*
X111911904Y-118028571D01*
X111111904Y-118638095D02*
X111111904Y-119133333D01*
X111416666Y-118866666D01*
X111416666Y-118980952D01*
X111454761Y-119057142D01*
X111492857Y-119095238D01*
X111569047Y-119133333D01*
X111759523Y-119133333D01*
X111835714Y-119095238D01*
X111873809Y-119057142D01*
X111911904Y-118980952D01*
X111911904Y-118752380D01*
X111873809Y-118676190D01*
X111835714Y-118638095D01*
%TO.C,J4*%
X108811904Y-118433333D02*
X109383333Y-118433333D01*
X109497619Y-118395238D01*
X109573809Y-118319047D01*
X109611904Y-118204761D01*
X109611904Y-118128571D01*
X109078571Y-119157142D02*
X109611904Y-119157142D01*
X108773809Y-118966666D02*
X109345238Y-118776190D01*
X109345238Y-119271428D01*
%TO.C,C35*%
D13*
X94792857Y-79507142D02*
X94840476Y-79554761D01*
X94983333Y-79602380D01*
X95078571Y-79602380D01*
X95221428Y-79554761D01*
X95316666Y-79459523D01*
X95364285Y-79364285D01*
X95411904Y-79173809D01*
X95411904Y-79030952D01*
X95364285Y-78840476D01*
X95316666Y-78745238D01*
X95221428Y-78650000D01*
X95078571Y-78602380D01*
X94983333Y-78602380D01*
X94840476Y-78650000D01*
X94792857Y-78697619D01*
X94459523Y-78602380D02*
X93840476Y-78602380D01*
X94173809Y-78983333D01*
X94030952Y-78983333D01*
X93935714Y-79030952D01*
X93888095Y-79078571D01*
X93840476Y-79173809D01*
X93840476Y-79411904D01*
X93888095Y-79507142D01*
X93935714Y-79554761D01*
X94030952Y-79602380D01*
X94316666Y-79602380D01*
X94411904Y-79554761D01*
X94459523Y-79507142D01*
X92935714Y-78602380D02*
X93411904Y-78602380D01*
X93459523Y-79078571D01*
X93411904Y-79030952D01*
X93316666Y-78983333D01*
X93078571Y-78983333D01*
X92983333Y-79030952D01*
X92935714Y-79078571D01*
X92888095Y-79173809D01*
X92888095Y-79411904D01*
X92935714Y-79507142D01*
X92983333Y-79554761D01*
X93078571Y-79602380D01*
X93316666Y-79602380D01*
X93411904Y-79554761D01*
X93459523Y-79507142D01*
%TD*%
M02*
