%TF.GenerationSoftware,KiCad,Pcbnew,(5.1.8)-1*%
%TF.CreationDate,2021-11-18T21:11:29+01:00*%
%TF.ProjectId,radioberry-juice,72616469-6f62-4657-9272-792d6a756963,rev?*%
%TF.SameCoordinates,Original*%
%TF.FileFunction,Soldermask,Top*%
%TF.FilePolarity,Negative*%
%FSLAX46Y46*%
G04 Gerber Fmt 4.6, Leading zero omitted, Abs format (unit mm)*
G04 Created by KiCad (PCBNEW (5.1.8)-1) date 2021-11-18 21:11:29*
%MOMM*%
%LPD*%
G01*
G04 APERTURE LIST*
%ADD10R,1.143000X0.635000*%
%ADD11R,1.500000X1.250000*%
%ADD12R,3.750000X2.700000*%
%ADD13R,0.650000X1.560000*%
%ADD14R,1.200000X0.900000*%
%ADD15R,1.200000X0.750000*%
%ADD16R,0.890000X3.060000*%
%ADD17R,5.350000X8.540000*%
%ADD18R,0.750000X1.200000*%
%ADD19R,1.250000X1.500000*%
%ADD20C,1.850000*%
%ADD21R,1.850000X1.850000*%
%ADD22R,1.000000X0.250000*%
%ADD23R,0.250000X1.000000*%
%ADD24C,1.524000*%
%ADD25C,2.200000*%
%ADD26C,2.600000*%
%ADD27C,3.000000*%
%ADD28R,1.100000X1.600000*%
%ADD29R,0.900000X1.200000*%
%ADD30R,1.900000X2.600000*%
%ADD31R,2.000000X1.500000*%
%ADD32R,2.000000X3.800000*%
%ADD33R,0.635000X1.143000*%
%ADD34R,2.100000X2.000000*%
%ADD35R,0.900000X0.800000*%
%ADD36C,0.670000*%
%ADD37R,1.450000X0.300000*%
%ADD38R,1.500000X2.000000*%
%ADD39R,3.800000X2.000000*%
%ADD40C,5.300000*%
%ADD41R,5.600000X2.300000*%
%ADD42C,1.800000*%
G04 APERTURE END LIST*
D10*
%TO.C,FB4*%
X113350000Y-109087000D03*
X113350000Y-107563000D03*
%TD*%
D11*
%TO.C,C37*%
X131350000Y-113900000D03*
X128850000Y-113900000D03*
%TD*%
D12*
%TO.C,C6*%
X130150000Y-110025000D03*
X137700000Y-110025000D03*
%TD*%
D13*
%TO.C,U4*%
X127700000Y-104400000D03*
X128650000Y-104400000D03*
X129600000Y-104400000D03*
X129600000Y-101700000D03*
X127700000Y-101700000D03*
X128650000Y-101700000D03*
%TD*%
D14*
%TO.C,R13*%
X129650000Y-99700000D03*
X127450000Y-99700000D03*
%TD*%
D15*
%TO.C,C18*%
X135600000Y-101800000D03*
X133700000Y-101800000D03*
%TD*%
D16*
%TO.C,VR1*%
X118340000Y-110745000D03*
X119610000Y-110745000D03*
X120880000Y-110745000D03*
X122150000Y-110745000D03*
X123420000Y-110745000D03*
X124690000Y-110745000D03*
X125960000Y-110745000D03*
D17*
X122150000Y-118050000D03*
%TD*%
D15*
%TO.C,C25*%
X118750000Y-97750000D03*
X116850000Y-97750000D03*
%TD*%
D11*
%TO.C,C10*%
X121400000Y-82100000D03*
X118900000Y-82100000D03*
%TD*%
D18*
%TO.C,C9*%
X131950000Y-98300000D03*
X131950000Y-100200000D03*
%TD*%
D11*
%TO.C,C8*%
X118650000Y-96150000D03*
X116150000Y-96150000D03*
%TD*%
D15*
%TO.C,C20*%
X140900000Y-86000000D03*
X142800000Y-86000000D03*
%TD*%
D19*
%TO.C,C29*%
X144600000Y-84950000D03*
X144600000Y-87450000D03*
%TD*%
D15*
%TO.C,C19*%
X137600000Y-101800000D03*
X139500000Y-101800000D03*
%TD*%
%TO.C,C16*%
X108250000Y-99050000D03*
X106350000Y-99050000D03*
%TD*%
%TO.C,C12*%
X98450000Y-78900000D03*
X100350000Y-78900000D03*
%TD*%
D19*
%TO.C,C11*%
X100250000Y-106050000D03*
X100250000Y-103550000D03*
%TD*%
D15*
%TO.C,C21*%
X117400000Y-90950000D03*
X115500000Y-90950000D03*
%TD*%
D20*
%TO.C,DB1*%
X101590000Y-124690000D03*
X101590000Y-122150000D03*
X104130000Y-124690000D03*
X104130000Y-122150000D03*
X106670000Y-124690000D03*
X106670000Y-122150000D03*
X109210000Y-124690000D03*
X109210000Y-122150000D03*
X111750000Y-124690000D03*
D21*
X111750000Y-122150000D03*
%TD*%
D22*
%TO.C,U3*%
X132050000Y-93950000D03*
X132050000Y-93450000D03*
X132050000Y-92950000D03*
X132050000Y-92450000D03*
X132050000Y-91950000D03*
X132050000Y-91450000D03*
X132050000Y-90950000D03*
X132050000Y-90450000D03*
X132050000Y-89950000D03*
X132050000Y-89450000D03*
X132050000Y-88950000D03*
X132050000Y-88450000D03*
X132050000Y-87950000D03*
X132050000Y-87450000D03*
X132050000Y-86950000D03*
X132050000Y-86450000D03*
D23*
X130100000Y-84500000D03*
X129600000Y-84500000D03*
X129100000Y-84500000D03*
X128600000Y-84500000D03*
X128100000Y-84500000D03*
X127600000Y-84500000D03*
X127100000Y-84500000D03*
X126600000Y-84500000D03*
X126100000Y-84500000D03*
X125600000Y-84500000D03*
X125100000Y-84500000D03*
X124600000Y-84500000D03*
X124100000Y-84500000D03*
X123600000Y-84500000D03*
X123100000Y-84500000D03*
X122600000Y-84500000D03*
D22*
X120650000Y-86450000D03*
X120650000Y-86950000D03*
X120650000Y-87450000D03*
X120650000Y-87950000D03*
X120650000Y-88450000D03*
X120650000Y-88950000D03*
X120650000Y-89450000D03*
X120650000Y-89950000D03*
X120650000Y-90450000D03*
X120650000Y-90950000D03*
X120650000Y-91450000D03*
X120650000Y-91950000D03*
X120650000Y-92450000D03*
X120650000Y-92950000D03*
X120650000Y-93450000D03*
X120650000Y-93950000D03*
D23*
X122600000Y-95900000D03*
X123100000Y-95900000D03*
X123600000Y-95900000D03*
X124100000Y-95900000D03*
X124600000Y-95900000D03*
X125100000Y-95900000D03*
X125600000Y-95900000D03*
X126100000Y-95900000D03*
X126600000Y-95900000D03*
X127100000Y-95900000D03*
X127600000Y-95900000D03*
X128100000Y-95900000D03*
X128600000Y-95900000D03*
X129100000Y-95900000D03*
X129600000Y-95900000D03*
X130100000Y-95900000D03*
%TD*%
D24*
%TO.C,J5*%
X146630000Y-73230000D03*
X146630000Y-75770000D03*
X144090000Y-73230000D03*
X144090000Y-75770000D03*
X141550000Y-73230000D03*
X141550000Y-75770000D03*
X139010000Y-73230000D03*
X139010000Y-75770000D03*
X136470000Y-73230000D03*
X136470000Y-75770000D03*
X133930000Y-73230000D03*
X133930000Y-75770000D03*
X131390000Y-73230000D03*
X131390000Y-75770000D03*
X128850000Y-73230000D03*
X128850000Y-75770000D03*
X126310000Y-73230000D03*
X126310000Y-75770000D03*
X123770000Y-73230000D03*
X123770000Y-75770000D03*
X121230000Y-73230000D03*
X121230000Y-75770000D03*
X118690000Y-73230000D03*
X118690000Y-75770000D03*
X116150000Y-73230000D03*
X116150000Y-75770000D03*
X113610000Y-73230000D03*
X113610000Y-75770000D03*
X111070000Y-73230000D03*
X111070000Y-75770000D03*
X108530000Y-73230000D03*
X108530000Y-75770000D03*
X105990000Y-73230000D03*
X105990000Y-75770000D03*
X103450000Y-73230000D03*
X103450000Y-75770000D03*
X100910000Y-73230000D03*
X100910000Y-75770000D03*
X98370000Y-73230000D03*
X98370000Y-75770000D03*
%TD*%
D25*
%TO.C,CN1*%
X149400000Y-114100000D03*
X144400000Y-114100000D03*
D26*
X144300000Y-109400000D03*
X147450000Y-114100000D03*
D27*
X141300000Y-114100000D03*
%TD*%
D11*
%TO.C,C33*%
X137150000Y-89100000D03*
X139650000Y-89100000D03*
%TD*%
%TO.C,C31*%
X135600000Y-93650000D03*
X138100000Y-93650000D03*
%TD*%
D19*
%TO.C,C27*%
X141800000Y-83000000D03*
X141800000Y-80500000D03*
%TD*%
%TO.C,C15*%
X111200000Y-107800000D03*
X111200000Y-105300000D03*
%TD*%
D28*
%TO.C,D5*%
X153800000Y-90100000D03*
X153800000Y-92600000D03*
%TD*%
D14*
%TO.C,R3*%
X93800000Y-118700000D03*
X91600000Y-118700000D03*
%TD*%
D29*
%TO.C,R20*%
X153800000Y-85700000D03*
X153800000Y-87900000D03*
%TD*%
D28*
%TO.C,D2*%
X91300000Y-116050000D03*
X91300000Y-113550000D03*
%TD*%
D30*
%TO.C,Y1*%
X139250000Y-98300000D03*
X134950000Y-98300000D03*
%TD*%
D31*
%TO.C,U5*%
X146600000Y-79900000D03*
X146600000Y-82200000D03*
X146600000Y-84500001D03*
D32*
X152900001Y-82200000D03*
%TD*%
D33*
%TO.C,D4*%
X144000000Y-97000000D03*
X145524000Y-97000000D03*
%TD*%
%TO.C,D3*%
X145000000Y-102500000D03*
X143476000Y-102500000D03*
%TD*%
D34*
%TO.C,D1*%
X143350000Y-124680000D03*
X143350000Y-120720000D03*
%TD*%
D35*
%TO.C,Q1*%
X131000000Y-117950000D03*
X129000000Y-118900000D03*
X131000000Y-119850000D03*
%TD*%
D14*
%TO.C,R11*%
X151600000Y-92900000D03*
X149400000Y-92900000D03*
%TD*%
D29*
%TO.C,R5*%
X146500000Y-105200000D03*
X146500000Y-103000000D03*
%TD*%
%TO.C,R4*%
X145300000Y-92500000D03*
X145300000Y-94700000D03*
%TD*%
D18*
%TO.C,C14*%
X107350000Y-110650000D03*
X107350000Y-112550000D03*
%TD*%
D36*
%TO.C,J2*%
X149850000Y-96100000D03*
X149850000Y-101900000D03*
D37*
X148400000Y-102400000D03*
X148400000Y-101600000D03*
X148400000Y-100750000D03*
G36*
G01*
X153800000Y-103820000D02*
X153200000Y-103820000D01*
G75*
G02*
X152700000Y-103320000I0J500000D01*
G01*
X152700000Y-103320000D01*
G75*
G02*
X153200000Y-102820000I500000J0D01*
G01*
X153800000Y-102820000D01*
G75*
G02*
X154300000Y-103320000I0J-500000D01*
G01*
X154300000Y-103320000D01*
G75*
G02*
X153800000Y-103820000I-500000J0D01*
G01*
G37*
G36*
G01*
X153800000Y-95180000D02*
X153200000Y-95180000D01*
G75*
G02*
X152700000Y-94680000I0J500000D01*
G01*
X152700000Y-94680000D01*
G75*
G02*
X153200000Y-94180000I500000J0D01*
G01*
X153800000Y-94180000D01*
G75*
G02*
X154300000Y-94680000I0J-500000D01*
G01*
X154300000Y-94680000D01*
G75*
G02*
X153800000Y-95180000I-500000J0D01*
G01*
G37*
G36*
G01*
X149620000Y-95180000D02*
X149020000Y-95180000D01*
G75*
G02*
X148520000Y-94680000I0J500000D01*
G01*
X148520000Y-94680000D01*
G75*
G02*
X149020000Y-94180000I500000J0D01*
G01*
X149620000Y-94180000D01*
G75*
G02*
X150120000Y-94680000I0J-500000D01*
G01*
X150120000Y-94680000D01*
G75*
G02*
X149620000Y-95180000I-500000J0D01*
G01*
G37*
G36*
G01*
X149620000Y-103820000D02*
X149020000Y-103820000D01*
G75*
G02*
X148520000Y-103320000I0J500000D01*
G01*
X148520000Y-103320000D01*
G75*
G02*
X149020000Y-102820000I500000J0D01*
G01*
X149620000Y-102820000D01*
G75*
G02*
X150120000Y-103320000I0J-500000D01*
G01*
X150120000Y-103320000D01*
G75*
G02*
X149620000Y-103820000I-500000J0D01*
G01*
G37*
X148400000Y-102100000D03*
X148400000Y-101300000D03*
X148400000Y-100250000D03*
X148400000Y-97250000D03*
X148400000Y-96400000D03*
X148400000Y-95600000D03*
X148400000Y-95900000D03*
X148400000Y-96700000D03*
X148400000Y-97750000D03*
X148400000Y-98250000D03*
X148400000Y-98750000D03*
X148400000Y-99250000D03*
X148400000Y-99750000D03*
%TD*%
D38*
%TO.C,U2*%
X102700000Y-108350000D03*
X105000000Y-108350000D03*
X107300001Y-108350000D03*
D39*
X105000000Y-102049999D03*
%TD*%
D14*
%TO.C,R12*%
X129650000Y-98250000D03*
X127450000Y-98250000D03*
%TD*%
D40*
%TO.C,J9*%
X151500000Y-123500000D03*
%TD*%
%TO.C,J8*%
X93500000Y-123500000D03*
%TD*%
%TO.C,J7*%
X151500000Y-74500000D03*
%TD*%
%TO.C,J6*%
X93500000Y-74500000D03*
%TD*%
D41*
%TO.C,F1*%
X135250000Y-116600000D03*
X135250000Y-124000000D03*
%TD*%
D14*
%TO.C,R15*%
X129500000Y-106400000D03*
X127300000Y-106400000D03*
%TD*%
D29*
%TO.C,R14*%
X125700000Y-103650000D03*
X125700000Y-101450000D03*
%TD*%
D14*
%TO.C,R10*%
X139800000Y-84150000D03*
X137600000Y-84150000D03*
%TD*%
%TO.C,R9*%
X108400000Y-79000000D03*
X106200000Y-79000000D03*
%TD*%
%TO.C,R8*%
X137650000Y-92000000D03*
X135450000Y-92000000D03*
%TD*%
%TO.C,R7*%
X143300000Y-99000000D03*
X145500000Y-99000000D03*
%TD*%
%TO.C,R6*%
X143300000Y-100500000D03*
X145500000Y-100500000D03*
%TD*%
D33*
%TO.C,FB3*%
X141588000Y-91250000D03*
X143112000Y-91250000D03*
%TD*%
%TO.C,FB2*%
X139312000Y-85700000D03*
X137788000Y-85700000D03*
%TD*%
D10*
%TO.C,FB1*%
X151600000Y-90500000D03*
X151600000Y-88976000D03*
%TD*%
D15*
%TO.C,C34*%
X137150000Y-87350000D03*
X139050000Y-87350000D03*
%TD*%
D18*
%TO.C,C32*%
X143000000Y-89500000D03*
X143000000Y-87600000D03*
%TD*%
D15*
%TO.C,C30*%
X149800000Y-88900000D03*
X147900000Y-88900000D03*
%TD*%
D18*
%TO.C,C28*%
X143800000Y-82750000D03*
X143800000Y-80850000D03*
%TD*%
D15*
%TO.C,C26*%
X117300000Y-88450000D03*
X115400000Y-88450000D03*
%TD*%
D18*
%TO.C,C24*%
X135400000Y-87100000D03*
X135400000Y-89000000D03*
%TD*%
%TO.C,C23*%
X123600000Y-100500000D03*
X123600000Y-98600000D03*
%TD*%
D15*
%TO.C,C17*%
X149800000Y-90400000D03*
X147900000Y-90400000D03*
%TD*%
D18*
%TO.C,C13*%
X109450000Y-106050000D03*
X109450000Y-107950000D03*
%TD*%
D29*
%TO.C,R1*%
X120800000Y-107650000D03*
X120800000Y-105450000D03*
%TD*%
D14*
%TO.C,R2*%
X122600000Y-107800000D03*
X124800000Y-107800000D03*
%TD*%
D29*
%TO.C,R16*%
X104150000Y-117150000D03*
X104150000Y-119350000D03*
%TD*%
%TO.C,R17*%
X111650000Y-119300000D03*
X111650000Y-117100000D03*
%TD*%
%TO.C,R18*%
X109300000Y-117100000D03*
X109300000Y-119300000D03*
%TD*%
%TO.C,R19*%
X106700000Y-119300000D03*
X106700000Y-117100000D03*
%TD*%
D11*
%TO.C,C36*%
X95350000Y-80900000D03*
X92850000Y-80900000D03*
%TD*%
D42*
%TO.C,J1*%
X123050000Y-125000000D03*
X120510000Y-125000000D03*
%TD*%
D29*
%TO.C,R21*%
X119100000Y-103150000D03*
X119100000Y-105350000D03*
%TD*%
D19*
%TO.C,C2*%
X115500000Y-113250000D03*
X115500000Y-110750000D03*
%TD*%
%TO.C,C3*%
X113350000Y-110750000D03*
X113350000Y-113250000D03*
%TD*%
%TO.C,C4*%
X111200000Y-113250000D03*
X111200000Y-110750000D03*
%TD*%
D11*
%TO.C,C5*%
X116350000Y-107650000D03*
X118850000Y-107650000D03*
%TD*%
D19*
%TO.C,C7*%
X109100000Y-110750000D03*
X109100000Y-113250000D03*
%TD*%
D29*
%TO.C,R22*%
X117450000Y-105350000D03*
X117450000Y-103150000D03*
%TD*%
D19*
%TO.C,C1*%
X139700000Y-125000000D03*
X139700000Y-122500000D03*
%TD*%
M02*
