%TF.GenerationSoftware,KiCad,Pcbnew,(5.1.8)-1*%
%TF.CreationDate,2021-11-16T20:14:35+01:00*%
%TF.ProjectId,radioberry-juice,72616469-6f62-4657-9272-792d6a756963,rev?*%
%TF.SameCoordinates,Original*%
%TF.FileFunction,Soldermask,Bot*%
%TF.FilePolarity,Negative*%
%FSLAX46Y46*%
G04 Gerber Fmt 4.6, Leading zero omitted, Abs format (unit mm)*
G04 Created by KiCad (PCBNEW (5.1.8)-1) date 2021-11-16 20:14:35*
%MOMM*%
%LPD*%
G01*
G04 APERTURE LIST*
%ADD10R,0.750000X1.200000*%
%ADD11C,1.850000*%
%ADD12R,1.850000X1.850000*%
%ADD13C,1.524000*%
%ADD14C,2.200000*%
%ADD15C,2.600000*%
%ADD16C,3.000000*%
%ADD17C,0.670000*%
%ADD18C,5.300000*%
%ADD19R,1.143000X0.635000*%
%ADD20R,1.500000X1.250000*%
%ADD21C,1.800000*%
G04 APERTURE END LIST*
D10*
%TO.C,C22*%
X121250000Y-92500000D03*
X121250000Y-90600000D03*
%TD*%
D11*
%TO.C,DB1*%
X101590000Y-124690000D03*
X101590000Y-122150000D03*
X104130000Y-124690000D03*
X104130000Y-122150000D03*
X106670000Y-124690000D03*
X106670000Y-122150000D03*
X109210000Y-124690000D03*
X109210000Y-122150000D03*
X111750000Y-124690000D03*
D12*
X111750000Y-122150000D03*
%TD*%
D13*
%TO.C,J5*%
X146630000Y-73230000D03*
X146630000Y-75770000D03*
X144090000Y-73230000D03*
X144090000Y-75770000D03*
X141550000Y-73230000D03*
X141550000Y-75770000D03*
X139010000Y-73230000D03*
X139010000Y-75770000D03*
X136470000Y-73230000D03*
X136470000Y-75770000D03*
X133930000Y-73230000D03*
X133930000Y-75770000D03*
X131390000Y-73230000D03*
X131390000Y-75770000D03*
X128850000Y-73230000D03*
X128850000Y-75770000D03*
X126310000Y-73230000D03*
X126310000Y-75770000D03*
X123770000Y-73230000D03*
X123770000Y-75770000D03*
X121230000Y-73230000D03*
X121230000Y-75770000D03*
X118690000Y-73230000D03*
X118690000Y-75770000D03*
X116150000Y-73230000D03*
X116150000Y-75770000D03*
X113610000Y-73230000D03*
X113610000Y-75770000D03*
X111070000Y-73230000D03*
X111070000Y-75770000D03*
X108530000Y-73230000D03*
X108530000Y-75770000D03*
X105990000Y-73230000D03*
X105990000Y-75770000D03*
X103450000Y-73230000D03*
X103450000Y-75770000D03*
X100910000Y-73230000D03*
X100910000Y-75770000D03*
X98370000Y-73230000D03*
X98370000Y-75770000D03*
%TD*%
D14*
%TO.C,CN1*%
X149400000Y-114100000D03*
X144400000Y-114100000D03*
D15*
X144300000Y-109400000D03*
X147450000Y-114100000D03*
D16*
X141300000Y-114100000D03*
%TD*%
D17*
%TO.C,J2*%
X149850000Y-96100000D03*
X149850000Y-101900000D03*
G36*
G01*
X153800000Y-103820000D02*
X153200000Y-103820000D01*
G75*
G02*
X152700000Y-103320000I0J500000D01*
G01*
X152700000Y-103320000D01*
G75*
G02*
X153200000Y-102820000I500000J0D01*
G01*
X153800000Y-102820000D01*
G75*
G02*
X154300000Y-103320000I0J-500000D01*
G01*
X154300000Y-103320000D01*
G75*
G02*
X153800000Y-103820000I-500000J0D01*
G01*
G37*
G36*
G01*
X153800000Y-95180000D02*
X153200000Y-95180000D01*
G75*
G02*
X152700000Y-94680000I0J500000D01*
G01*
X152700000Y-94680000D01*
G75*
G02*
X153200000Y-94180000I500000J0D01*
G01*
X153800000Y-94180000D01*
G75*
G02*
X154300000Y-94680000I0J-500000D01*
G01*
X154300000Y-94680000D01*
G75*
G02*
X153800000Y-95180000I-500000J0D01*
G01*
G37*
G36*
G01*
X149620000Y-95180000D02*
X149020000Y-95180000D01*
G75*
G02*
X148520000Y-94680000I0J500000D01*
G01*
X148520000Y-94680000D01*
G75*
G02*
X149020000Y-94180000I500000J0D01*
G01*
X149620000Y-94180000D01*
G75*
G02*
X150120000Y-94680000I0J-500000D01*
G01*
X150120000Y-94680000D01*
G75*
G02*
X149620000Y-95180000I-500000J0D01*
G01*
G37*
G36*
G01*
X149620000Y-103820000D02*
X149020000Y-103820000D01*
G75*
G02*
X148520000Y-103320000I0J500000D01*
G01*
X148520000Y-103320000D01*
G75*
G02*
X149020000Y-102820000I500000J0D01*
G01*
X149620000Y-102820000D01*
G75*
G02*
X150120000Y-103320000I0J-500000D01*
G01*
X150120000Y-103320000D01*
G75*
G02*
X149620000Y-103820000I-500000J0D01*
G01*
G37*
%TD*%
D18*
%TO.C,J9*%
X151500000Y-123500000D03*
%TD*%
%TO.C,J8*%
X93500000Y-123500000D03*
%TD*%
%TO.C,J7*%
X151500000Y-74500000D03*
%TD*%
%TO.C,J6*%
X93500000Y-74500000D03*
%TD*%
D19*
%TO.C,J3*%
X111550000Y-119362000D03*
X111550000Y-117838000D03*
%TD*%
%TO.C,J4*%
X109250000Y-117938000D03*
X109250000Y-119462000D03*
%TD*%
D20*
%TO.C,C35*%
X92900000Y-80900000D03*
X95400000Y-80900000D03*
%TD*%
D21*
%TO.C,J1*%
X123050000Y-125000000D03*
X120510000Y-125000000D03*
%TD*%
M02*
