%TF.GenerationSoftware,KiCad,Pcbnew,(5.1.8)-1*%
%TF.CreationDate,2021-11-18T21:11:29+01:00*%
%TF.ProjectId,radioberry-juice,72616469-6f62-4657-9272-792d6a756963,rev?*%
%TF.SameCoordinates,Original*%
%TF.FileFunction,Legend,Top*%
%TF.FilePolarity,Positive*%
%FSLAX46Y46*%
G04 Gerber Fmt 4.6, Leading zero omitted, Abs format (unit mm)*
G04 Created by KiCad (PCBNEW (5.1.8)-1) date 2021-11-18 21:11:29*
%MOMM*%
%LPD*%
G01*
G04 APERTURE LIST*
%ADD10C,0.300000*%
%ADD11C,0.100000*%
%ADD12C,0.120000*%
%ADD13C,0.200000*%
%ADD14C,0.127000*%
%ADD15C,0.150000*%
%ADD16C,0.250000*%
%ADD17C,0.203200*%
%ADD18C,0.020000*%
%ADD19C,0.101600*%
%ADD20C,0.254000*%
G04 APERTURE END LIST*
D10*
X95864285Y-93478571D02*
X96221428Y-94978571D01*
X96507142Y-93907142D01*
X96792857Y-94978571D01*
X97150000Y-93478571D01*
X97578571Y-93478571D02*
X97935714Y-94978571D01*
X98221428Y-93907142D01*
X98507142Y-94978571D01*
X98864285Y-93478571D01*
X99292857Y-93478571D02*
X99650000Y-94978571D01*
X99935714Y-93907142D01*
X100221428Y-94978571D01*
X100578571Y-93478571D01*
X101150000Y-94835714D02*
X101221428Y-94907142D01*
X101150000Y-94978571D01*
X101078571Y-94907142D01*
X101150000Y-94835714D01*
X101150000Y-94978571D01*
X101864285Y-94978571D02*
X101864285Y-93478571D01*
X102435714Y-93478571D01*
X102578571Y-93550000D01*
X102650000Y-93621428D01*
X102721428Y-93764285D01*
X102721428Y-93978571D01*
X102650000Y-94121428D01*
X102578571Y-94192857D01*
X102435714Y-94264285D01*
X101864285Y-94264285D01*
X103292857Y-94550000D02*
X104007142Y-94550000D01*
X103150000Y-94978571D02*
X103650000Y-93478571D01*
X104150000Y-94978571D01*
X104507142Y-93478571D02*
X105435714Y-93478571D01*
X104935714Y-94050000D01*
X105150000Y-94050000D01*
X105292857Y-94121428D01*
X105364285Y-94192857D01*
X105435714Y-94335714D01*
X105435714Y-94692857D01*
X105364285Y-94835714D01*
X105292857Y-94907142D01*
X105150000Y-94978571D01*
X104721428Y-94978571D01*
X104578571Y-94907142D01*
X104507142Y-94835714D01*
X106864285Y-93550000D02*
X106721428Y-93478571D01*
X106507142Y-93478571D01*
X106292857Y-93550000D01*
X106150000Y-93692857D01*
X106078571Y-93835714D01*
X106007142Y-94121428D01*
X106007142Y-94335714D01*
X106078571Y-94621428D01*
X106150000Y-94764285D01*
X106292857Y-94907142D01*
X106507142Y-94978571D01*
X106650000Y-94978571D01*
X106864285Y-94907142D01*
X106935714Y-94835714D01*
X106935714Y-94335714D01*
X106650000Y-94335714D01*
X107507142Y-94907142D02*
X107721428Y-94978571D01*
X108078571Y-94978571D01*
X108221428Y-94907142D01*
X108292857Y-94835714D01*
X108364285Y-94692857D01*
X108364285Y-94550000D01*
X108292857Y-94407142D01*
X108221428Y-94335714D01*
X108078571Y-94264285D01*
X107792857Y-94192857D01*
X107650000Y-94121428D01*
X107578571Y-94050000D01*
X107507142Y-93907142D01*
X107507142Y-93764285D01*
X107578571Y-93621428D01*
X107650000Y-93550000D01*
X107792857Y-93478571D01*
X108150000Y-93478571D01*
X108364285Y-93550000D01*
X109507142Y-94192857D02*
X109721428Y-94264285D01*
X109792857Y-94335714D01*
X109864285Y-94478571D01*
X109864285Y-94692857D01*
X109792857Y-94835714D01*
X109721428Y-94907142D01*
X109578571Y-94978571D01*
X109007142Y-94978571D01*
X109007142Y-93478571D01*
X109507142Y-93478571D01*
X109650000Y-93550000D01*
X109721428Y-93621428D01*
X109792857Y-93764285D01*
X109792857Y-93907142D01*
X109721428Y-94050000D01*
X109650000Y-94121428D01*
X109507142Y-94192857D01*
X109007142Y-94192857D01*
X110507142Y-94835714D02*
X110578571Y-94907142D01*
X110507142Y-94978571D01*
X110435714Y-94907142D01*
X110507142Y-94835714D01*
X110507142Y-94978571D01*
X111221428Y-94978571D02*
X111221428Y-93478571D01*
X112078571Y-94978571D01*
X112078571Y-93478571D01*
X113507142Y-94978571D02*
X112792857Y-94978571D01*
X112792857Y-93478571D01*
X93171428Y-109742857D02*
X94671428Y-109742857D01*
X94100000Y-109742857D02*
X94171428Y-109885714D01*
X94171428Y-110171428D01*
X94100000Y-110314285D01*
X94028571Y-110385714D01*
X93885714Y-110457142D01*
X93457142Y-110457142D01*
X93314285Y-110385714D01*
X93242857Y-110314285D01*
X93171428Y-110171428D01*
X93171428Y-109885714D01*
X93242857Y-109742857D01*
X93242857Y-111671428D02*
X93171428Y-111528571D01*
X93171428Y-111242857D01*
X93242857Y-111100000D01*
X93385714Y-111028571D01*
X93957142Y-111028571D01*
X94100000Y-111100000D01*
X94171428Y-111242857D01*
X94171428Y-111528571D01*
X94100000Y-111671428D01*
X93957142Y-111742857D01*
X93814285Y-111742857D01*
X93671428Y-111028571D01*
X94171428Y-112171428D02*
X94171428Y-112742857D01*
X94671428Y-112385714D02*
X93385714Y-112385714D01*
X93242857Y-112457142D01*
X93171428Y-112600000D01*
X93171428Y-112742857D01*
X93171428Y-113885714D02*
X93957142Y-113885714D01*
X94100000Y-113814285D01*
X94171428Y-113671428D01*
X94171428Y-113385714D01*
X94100000Y-113242857D01*
X93242857Y-113885714D02*
X93171428Y-113742857D01*
X93171428Y-113385714D01*
X93242857Y-113242857D01*
X93385714Y-113171428D01*
X93528571Y-113171428D01*
X93671428Y-113242857D01*
X93742857Y-113385714D01*
X93742857Y-113742857D01*
X93814285Y-113885714D01*
X94528571Y-115671428D02*
X94600000Y-115742857D01*
X94671428Y-115885714D01*
X94671428Y-116242857D01*
X94600000Y-116385714D01*
X94528571Y-116457142D01*
X94385714Y-116528571D01*
X94242857Y-116528571D01*
X94028571Y-116457142D01*
X93171428Y-115600000D01*
X93171428Y-116528571D01*
X91745238Y-84847619D02*
X92697619Y-84180952D01*
X91745238Y-83704761D02*
X93745238Y-83704761D01*
X93745238Y-84466666D01*
X93650000Y-84657142D01*
X93554761Y-84752380D01*
X93364285Y-84847619D01*
X93078571Y-84847619D01*
X92888095Y-84752380D01*
X92792857Y-84657142D01*
X92697619Y-84466666D01*
X92697619Y-83704761D01*
X91745238Y-86561904D02*
X92792857Y-86561904D01*
X92983333Y-86466666D01*
X93078571Y-86276190D01*
X93078571Y-85895238D01*
X92983333Y-85704761D01*
X91840476Y-86561904D02*
X91745238Y-86371428D01*
X91745238Y-85895238D01*
X91840476Y-85704761D01*
X92030952Y-85609523D01*
X92221428Y-85609523D01*
X92411904Y-85704761D01*
X92507142Y-85895238D01*
X92507142Y-86371428D01*
X92602380Y-86561904D01*
X91745238Y-88371428D02*
X93745238Y-88371428D01*
X91840476Y-88371428D02*
X91745238Y-88180952D01*
X91745238Y-87800000D01*
X91840476Y-87609523D01*
X91935714Y-87514285D01*
X92126190Y-87419047D01*
X92697619Y-87419047D01*
X92888095Y-87514285D01*
X92983333Y-87609523D01*
X93078571Y-87800000D01*
X93078571Y-88180952D01*
X92983333Y-88371428D01*
X91745238Y-89323809D02*
X93078571Y-89323809D01*
X93745238Y-89323809D02*
X93650000Y-89228571D01*
X93554761Y-89323809D01*
X93650000Y-89419047D01*
X93745238Y-89323809D01*
X93554761Y-89323809D01*
X91745238Y-90561904D02*
X91840476Y-90371428D01*
X91935714Y-90276190D01*
X92126190Y-90180952D01*
X92697619Y-90180952D01*
X92888095Y-90276190D01*
X92983333Y-90371428D01*
X93078571Y-90561904D01*
X93078571Y-90847619D01*
X92983333Y-91038095D01*
X92888095Y-91133333D01*
X92697619Y-91228571D01*
X92126190Y-91228571D01*
X91935714Y-91133333D01*
X91840476Y-91038095D01*
X91745238Y-90847619D01*
X91745238Y-90561904D01*
X91745238Y-92085714D02*
X93745238Y-92085714D01*
X92983333Y-92085714D02*
X93078571Y-92276190D01*
X93078571Y-92657142D01*
X92983333Y-92847619D01*
X92888095Y-92942857D01*
X92697619Y-93038095D01*
X92126190Y-93038095D01*
X91935714Y-92942857D01*
X91840476Y-92847619D01*
X91745238Y-92657142D01*
X91745238Y-92276190D01*
X91840476Y-92085714D01*
X91840476Y-94657142D02*
X91745238Y-94466666D01*
X91745238Y-94085714D01*
X91840476Y-93895238D01*
X92030952Y-93800000D01*
X92792857Y-93800000D01*
X92983333Y-93895238D01*
X93078571Y-94085714D01*
X93078571Y-94466666D01*
X92983333Y-94657142D01*
X92792857Y-94752380D01*
X92602380Y-94752380D01*
X92411904Y-93800000D01*
X91745238Y-95609523D02*
X93078571Y-95609523D01*
X92697619Y-95609523D02*
X92888095Y-95704761D01*
X92983333Y-95800000D01*
X93078571Y-95990476D01*
X93078571Y-96180952D01*
X91745238Y-96847619D02*
X93078571Y-96847619D01*
X92697619Y-96847619D02*
X92888095Y-96942857D01*
X92983333Y-97038095D01*
X93078571Y-97228571D01*
X93078571Y-97419047D01*
X93078571Y-97895238D02*
X91745238Y-98371428D01*
X93078571Y-98847619D02*
X91745238Y-98371428D01*
X91269047Y-98180952D01*
X91173809Y-98085714D01*
X91078571Y-97895238D01*
X93745238Y-101704761D02*
X92316666Y-101704761D01*
X92030952Y-101609523D01*
X91840476Y-101419047D01*
X91745238Y-101133333D01*
X91745238Y-100942857D01*
X93078571Y-103514285D02*
X91745238Y-103514285D01*
X93078571Y-102657142D02*
X92030952Y-102657142D01*
X91840476Y-102752380D01*
X91745238Y-102942857D01*
X91745238Y-103228571D01*
X91840476Y-103419047D01*
X91935714Y-103514285D01*
X91745238Y-104466666D02*
X93078571Y-104466666D01*
X93745238Y-104466666D02*
X93650000Y-104371428D01*
X93554761Y-104466666D01*
X93650000Y-104561904D01*
X93745238Y-104466666D01*
X93554761Y-104466666D01*
X91840476Y-106276190D02*
X91745238Y-106085714D01*
X91745238Y-105704761D01*
X91840476Y-105514285D01*
X91935714Y-105419047D01*
X92126190Y-105323809D01*
X92697619Y-105323809D01*
X92888095Y-105419047D01*
X92983333Y-105514285D01*
X93078571Y-105704761D01*
X93078571Y-106085714D01*
X92983333Y-106276190D01*
X91840476Y-107895238D02*
X91745238Y-107704761D01*
X91745238Y-107323809D01*
X91840476Y-107133333D01*
X92030952Y-107038095D01*
X92792857Y-107038095D01*
X92983333Y-107133333D01*
X93078571Y-107323809D01*
X93078571Y-107704761D01*
X92983333Y-107895238D01*
X92792857Y-107990476D01*
X92602380Y-107990476D01*
X92411904Y-107038095D01*
D11*
%TO.C,FB4*%
X112715000Y-107182000D02*
X113985000Y-107182000D01*
X112715000Y-109468000D02*
X112715000Y-107182000D01*
X113985000Y-109468000D02*
X112715000Y-109468000D01*
X113985000Y-107182000D02*
X113985000Y-109468000D01*
D12*
%TO.C,C37*%
X129600000Y-114750000D02*
X130600000Y-114750000D01*
X130600000Y-113050000D02*
X129600000Y-113050000D01*
%TO.C,C6*%
X127975000Y-107625000D02*
X137575000Y-107625000D01*
X127975000Y-112425000D02*
X137575000Y-112425000D01*
X127975000Y-107625000D02*
X127975000Y-112425000D01*
%TO.C,U4*%
X130260000Y-103950000D02*
X130260000Y-102150000D01*
X127040000Y-102150000D02*
X127040000Y-105100000D01*
%TO.C,R13*%
X128050000Y-99020000D02*
X129050000Y-99020000D01*
X129050000Y-100380000D02*
X128050000Y-100380000D01*
%TO.C,C18*%
X135000000Y-102400000D02*
X134300000Y-102400000D01*
X134300000Y-101200000D02*
X135000000Y-101200000D01*
D13*
%TO.C,VR1*%
X126060000Y-108665000D02*
G75*
G03*
X126060000Y-108665000I-100000J0D01*
G01*
D14*
X119150000Y-113480000D02*
X116945000Y-113480000D01*
X127355000Y-113480000D02*
X125150000Y-113480000D01*
X116945000Y-123580000D02*
X116945000Y-113480000D01*
X127355000Y-123580000D02*
X116945000Y-123580000D01*
X127355000Y-113480000D02*
X127355000Y-123580000D01*
D12*
%TO.C,C25*%
X117450000Y-97150000D02*
X118150000Y-97150000D01*
X118150000Y-98350000D02*
X117450000Y-98350000D01*
%TO.C,C10*%
X120650000Y-81250000D02*
X119650000Y-81250000D01*
X119650000Y-82950000D02*
X120650000Y-82950000D01*
%TO.C,C9*%
X131350000Y-99600000D02*
X131350000Y-98900000D01*
X132550000Y-98900000D02*
X132550000Y-99600000D01*
%TO.C,C8*%
X117900000Y-95300000D02*
X116900000Y-95300000D01*
X116900000Y-97000000D02*
X117900000Y-97000000D01*
%TO.C,C20*%
X142200000Y-86600000D02*
X141500000Y-86600000D01*
X141500000Y-85400000D02*
X142200000Y-85400000D01*
%TO.C,C29*%
X143750000Y-85700000D02*
X143750000Y-86700000D01*
X145450000Y-86700000D02*
X145450000Y-85700000D01*
%TO.C,C19*%
X138900000Y-102400000D02*
X138200000Y-102400000D01*
X138200000Y-101200000D02*
X138900000Y-101200000D01*
%TO.C,C16*%
X106950000Y-98450000D02*
X107650000Y-98450000D01*
X107650000Y-99650000D02*
X106950000Y-99650000D01*
%TO.C,C12*%
X99750000Y-79500000D02*
X99050000Y-79500000D01*
X99050000Y-78300000D02*
X99750000Y-78300000D01*
%TO.C,C11*%
X101100000Y-105300000D02*
X101100000Y-104300000D01*
X99400000Y-104300000D02*
X99400000Y-105300000D01*
%TO.C,C21*%
X116100000Y-90350000D02*
X116800000Y-90350000D01*
X116800000Y-91550000D02*
X116100000Y-91550000D01*
D11*
%TO.C,DB1*%
X113650000Y-121550000D02*
G75*
G03*
X113650000Y-121550000I-300000J0D01*
G01*
X113020000Y-122150000D02*
X113020000Y-120880000D01*
X100320000Y-122150000D02*
X100320000Y-120880000D01*
X101590000Y-125960000D02*
X100320000Y-125960000D01*
X100320000Y-125960000D02*
X100320000Y-124690000D01*
X111750000Y-125960000D02*
X113020000Y-125960000D01*
X113020000Y-125960000D02*
X113020000Y-124690000D01*
D15*
%TO.C,U3*%
X131525000Y-95375000D02*
X131525000Y-94375000D01*
X121175000Y-95375000D02*
X121175000Y-94300000D01*
X121175000Y-85025000D02*
X121175000Y-86100000D01*
X131525000Y-85025000D02*
X131525000Y-86100000D01*
X131525000Y-95375000D02*
X130450000Y-95375000D01*
X131525000Y-85025000D02*
X130450000Y-85025000D01*
X121175000Y-85025000D02*
X122250000Y-85025000D01*
X121175000Y-95375000D02*
X122250000Y-95375000D01*
X131525000Y-94375000D02*
X132550000Y-94375000D01*
D11*
%TO.C,CN1*%
X154900000Y-118100000D02*
X154900000Y-118600000D01*
X154900000Y-118600000D02*
X154400000Y-118600000D01*
X154900000Y-110100000D02*
X154900000Y-109600000D01*
X154900000Y-109600000D02*
X154400000Y-109600000D01*
X140700000Y-118600000D02*
X141700000Y-118600000D01*
X141300000Y-109600000D02*
X140700000Y-109600000D01*
X140700000Y-109600000D02*
X140700000Y-111100000D01*
X140700000Y-118600000D02*
X140700000Y-117100000D01*
D12*
%TO.C,C33*%
X137900000Y-89950000D02*
X138900000Y-89950000D01*
X138900000Y-88250000D02*
X137900000Y-88250000D01*
%TO.C,C31*%
X136350000Y-94500000D02*
X137350000Y-94500000D01*
X137350000Y-92800000D02*
X136350000Y-92800000D01*
%TO.C,C27*%
X142650000Y-82250000D02*
X142650000Y-81250000D01*
X140950000Y-81250000D02*
X140950000Y-82250000D01*
%TO.C,C15*%
X112050000Y-107050000D02*
X112050000Y-106050000D01*
X110350000Y-106050000D02*
X110350000Y-107050000D01*
D11*
%TO.C,D5*%
X153100000Y-88850000D02*
X154400000Y-88850000D01*
X153100000Y-88950000D02*
X154400000Y-88950000D01*
X153100000Y-89050000D02*
X154400000Y-89050000D01*
X153100000Y-93550000D02*
X154400000Y-93550000D01*
X154400000Y-93550000D02*
X154600000Y-92950000D01*
X154600000Y-92950000D02*
X154600000Y-89750000D01*
X154600000Y-89750000D02*
X154400000Y-89150000D01*
X154400000Y-89150000D02*
X153100000Y-89150000D01*
D12*
%TO.C,R3*%
X93200000Y-119380000D02*
X92200000Y-119380000D01*
X92200000Y-118020000D02*
X93200000Y-118020000D01*
%TO.C,R20*%
X154480000Y-86300000D02*
X154480000Y-87300000D01*
X153120000Y-87300000D02*
X153120000Y-86300000D01*
D11*
%TO.C,D2*%
X92000000Y-117300000D02*
X90700000Y-117300000D01*
X92000000Y-117200000D02*
X90700000Y-117200000D01*
X92000000Y-117100000D02*
X90700000Y-117100000D01*
X92000000Y-112600000D02*
X90700000Y-112600000D01*
X90700000Y-112600000D02*
X90500000Y-113200000D01*
X90500000Y-113200000D02*
X90500000Y-116400000D01*
X90500000Y-116400000D02*
X90700000Y-117000000D01*
X90700000Y-117000000D02*
X92000000Y-117000000D01*
D16*
%TO.C,Y1*%
X140100000Y-100050000D02*
X134100000Y-100050000D01*
X134100000Y-96550000D02*
X140100000Y-96550000D01*
D17*
%TO.C,U5*%
X151528063Y-85477063D02*
X147972063Y-85477063D01*
X147972063Y-85477063D02*
X147972063Y-78923063D01*
X147972063Y-78923063D02*
X151528063Y-78923063D01*
X151528063Y-78923063D02*
X151528063Y-85477063D01*
D11*
%TO.C,D4*%
X145905000Y-97635000D02*
X143619000Y-97635000D01*
X143619000Y-97635000D02*
X143619000Y-96365000D01*
X143619000Y-96365000D02*
X145905000Y-96365000D01*
X145905000Y-96365000D02*
X145905000Y-97635000D01*
%TO.C,D3*%
X143095000Y-101865000D02*
X145381000Y-101865000D01*
X145381000Y-101865000D02*
X145381000Y-103135000D01*
X145381000Y-103135000D02*
X143095000Y-103135000D01*
X143095000Y-103135000D02*
X143095000Y-101865000D01*
D15*
%TO.C,D1*%
X142150000Y-120500000D02*
X141350000Y-120500000D01*
X141350000Y-120500000D02*
X141350000Y-124900000D01*
X141350000Y-124900000D02*
X142150000Y-124900000D01*
X144550000Y-120500000D02*
X145350000Y-120500000D01*
X145350000Y-120500000D02*
X145350000Y-124900000D01*
X145350000Y-124900000D02*
X144550000Y-124900000D01*
D11*
%TO.C,Q1*%
X128400000Y-117300000D02*
X128400000Y-120500000D01*
X128400000Y-120500000D02*
X131600000Y-120500000D01*
X131600000Y-120500000D02*
X131600000Y-117300000D01*
X131600000Y-117300000D02*
X128400000Y-117300000D01*
D12*
%TO.C,R11*%
X150000000Y-92220000D02*
X151000000Y-92220000D01*
X151000000Y-93580000D02*
X150000000Y-93580000D01*
%TO.C,R5*%
X147180000Y-103600000D02*
X147180000Y-104600000D01*
X145820000Y-104600000D02*
X145820000Y-103600000D01*
%TO.C,R4*%
X144620000Y-94100000D02*
X144620000Y-93100000D01*
X145980000Y-93100000D02*
X145980000Y-94100000D01*
%TO.C,C14*%
X107950000Y-111250000D02*
X107950000Y-111950000D01*
X106750000Y-111950000D02*
X106750000Y-111250000D01*
D18*
%TO.C,J2*%
X149480000Y-99000000D02*
X155800000Y-99000000D01*
D11*
X155000000Y-94800000D02*
X155000000Y-103200000D01*
X149000000Y-103400000D02*
X149000000Y-94600000D01*
X156100000Y-94600000D02*
X156100000Y-103400000D01*
X149000000Y-94600000D02*
X156100000Y-94600000D01*
X149000000Y-103400000D02*
X156100000Y-103400000D01*
D17*
%TO.C,U2*%
X101723063Y-103421937D02*
X108277063Y-103421937D01*
X101723063Y-106977937D02*
X101723063Y-103421937D01*
X108277063Y-106977937D02*
X101723063Y-106977937D01*
X108277063Y-103421937D02*
X108277063Y-106977937D01*
D12*
%TO.C,R12*%
X128050000Y-97570000D02*
X129050000Y-97570000D01*
X129050000Y-98930000D02*
X128050000Y-98930000D01*
D11*
%TO.C,F1*%
X132250000Y-125400000D02*
X132250000Y-115300000D01*
X132250000Y-115300000D02*
X138250000Y-115300000D01*
X138250000Y-115300000D02*
X138250000Y-125400000D01*
X138250000Y-125400000D02*
X132250000Y-125400000D01*
D12*
%TO.C,R15*%
X127900000Y-105720000D02*
X128900000Y-105720000D01*
X128900000Y-107080000D02*
X127900000Y-107080000D01*
%TO.C,R14*%
X126380000Y-102050000D02*
X126380000Y-103050000D01*
X125020000Y-103050000D02*
X125020000Y-102050000D01*
%TO.C,R10*%
X138200000Y-83470000D02*
X139200000Y-83470000D01*
X139200000Y-84830000D02*
X138200000Y-84830000D01*
%TO.C,R9*%
X106800000Y-78320000D02*
X107800000Y-78320000D01*
X107800000Y-79680000D02*
X106800000Y-79680000D01*
%TO.C,R8*%
X136050000Y-91320000D02*
X137050000Y-91320000D01*
X137050000Y-92680000D02*
X136050000Y-92680000D01*
%TO.C,R7*%
X144900000Y-99680000D02*
X143900000Y-99680000D01*
X143900000Y-98320000D02*
X144900000Y-98320000D01*
%TO.C,R6*%
X144900000Y-101180000D02*
X143900000Y-101180000D01*
X143900000Y-99820000D02*
X144900000Y-99820000D01*
D11*
%TO.C,FB3*%
X143493000Y-90615000D02*
X143493000Y-91885000D01*
X141207000Y-90615000D02*
X143493000Y-90615000D01*
X141207000Y-91885000D02*
X141207000Y-90615000D01*
X143493000Y-91885000D02*
X141207000Y-91885000D01*
%TO.C,FB2*%
X137407000Y-86335000D02*
X137407000Y-85065000D01*
X139693000Y-86335000D02*
X137407000Y-86335000D01*
X139693000Y-85065000D02*
X139693000Y-86335000D01*
X137407000Y-85065000D02*
X139693000Y-85065000D01*
%TO.C,FB1*%
X150965000Y-88595000D02*
X152235000Y-88595000D01*
X150965000Y-90881000D02*
X150965000Y-88595000D01*
X152235000Y-90881000D02*
X150965000Y-90881000D01*
X152235000Y-88595000D02*
X152235000Y-90881000D01*
D12*
%TO.C,C34*%
X137750000Y-86750000D02*
X138450000Y-86750000D01*
X138450000Y-87950000D02*
X137750000Y-87950000D01*
%TO.C,C32*%
X142400000Y-88900000D02*
X142400000Y-88200000D01*
X143600000Y-88200000D02*
X143600000Y-88900000D01*
%TO.C,C30*%
X149200000Y-89500000D02*
X148500000Y-89500000D01*
X148500000Y-88300000D02*
X149200000Y-88300000D01*
%TO.C,C28*%
X143200000Y-82150000D02*
X143200000Y-81450000D01*
X144400000Y-81450000D02*
X144400000Y-82150000D01*
%TO.C,C26*%
X116700000Y-89050000D02*
X116000000Y-89050000D01*
X116000000Y-87850000D02*
X116700000Y-87850000D01*
%TO.C,C24*%
X136000000Y-87700000D02*
X136000000Y-88400000D01*
X134800000Y-88400000D02*
X134800000Y-87700000D01*
%TO.C,C23*%
X123000000Y-99900000D02*
X123000000Y-99200000D01*
X124200000Y-99200000D02*
X124200000Y-99900000D01*
%TO.C,C17*%
X149200000Y-91000000D02*
X148500000Y-91000000D01*
X148500000Y-89800000D02*
X149200000Y-89800000D01*
%TO.C,C13*%
X108850000Y-107350000D02*
X108850000Y-106650000D01*
X110050000Y-106650000D02*
X110050000Y-107350000D01*
%TO.C,R1*%
X120120000Y-107050000D02*
X120120000Y-106050000D01*
X121480000Y-106050000D02*
X121480000Y-107050000D01*
%TO.C,R2*%
X123200000Y-107120000D02*
X124200000Y-107120000D01*
X124200000Y-108480000D02*
X123200000Y-108480000D01*
%TO.C,R16*%
X104830000Y-117750000D02*
X104830000Y-118750000D01*
X103470000Y-118750000D02*
X103470000Y-117750000D01*
%TO.C,R17*%
X110970000Y-118700000D02*
X110970000Y-117700000D01*
X112330000Y-117700000D02*
X112330000Y-118700000D01*
%TO.C,R18*%
X109980000Y-117700000D02*
X109980000Y-118700000D01*
X108620000Y-118700000D02*
X108620000Y-117700000D01*
%TO.C,R19*%
X106020000Y-118700000D02*
X106020000Y-117700000D01*
X107380000Y-117700000D02*
X107380000Y-118700000D01*
%TO.C,C36*%
X94600000Y-80050000D02*
X93600000Y-80050000D01*
X93600000Y-81750000D02*
X94600000Y-81750000D01*
D11*
%TO.C,J1*%
X119350000Y-123800000D02*
X119350000Y-126200000D01*
X124250000Y-123800000D02*
X119350000Y-123800000D01*
X124250000Y-126200000D02*
X124250000Y-123800000D01*
X119350000Y-126200000D02*
X124250000Y-126200000D01*
D12*
%TO.C,R21*%
X119780000Y-103750000D02*
X119780000Y-104750000D01*
X118420000Y-104750000D02*
X118420000Y-103750000D01*
%TO.C,C2*%
X116350000Y-112500000D02*
X116350000Y-111500000D01*
X114650000Y-111500000D02*
X114650000Y-112500000D01*
%TO.C,C3*%
X112500000Y-111500000D02*
X112500000Y-112500000D01*
X114200000Y-112500000D02*
X114200000Y-111500000D01*
%TO.C,C4*%
X112050000Y-112500000D02*
X112050000Y-111500000D01*
X110350000Y-111500000D02*
X110350000Y-112500000D01*
%TO.C,C5*%
X117100000Y-108500000D02*
X118100000Y-108500000D01*
X118100000Y-106800000D02*
X117100000Y-106800000D01*
%TO.C,C7*%
X108250000Y-111500000D02*
X108250000Y-112500000D01*
X109950000Y-112500000D02*
X109950000Y-111500000D01*
%TO.C,R22*%
X116770000Y-104750000D02*
X116770000Y-103750000D01*
X118130000Y-103750000D02*
X118130000Y-104750000D01*
%TO.C,C1*%
X138850000Y-123250000D02*
X138850000Y-124250000D01*
X140550000Y-124250000D02*
X140550000Y-123250000D01*
%TO.C,FB4*%
D11*
X113292857Y-108991666D02*
X113292857Y-109258333D01*
X113711904Y-109258333D02*
X112911904Y-109258333D01*
X112911904Y-108877380D01*
X113292857Y-108305952D02*
X113330952Y-108191666D01*
X113369047Y-108153571D01*
X113445238Y-108115476D01*
X113559523Y-108115476D01*
X113635714Y-108153571D01*
X113673809Y-108191666D01*
X113711904Y-108267857D01*
X113711904Y-108572619D01*
X112911904Y-108572619D01*
X112911904Y-108305952D01*
X112950000Y-108229761D01*
X112988095Y-108191666D01*
X113064285Y-108153571D01*
X113140476Y-108153571D01*
X113216666Y-108191666D01*
X113254761Y-108229761D01*
X113292857Y-108305952D01*
X113292857Y-108572619D01*
X113178571Y-107429761D02*
X113711904Y-107429761D01*
X112873809Y-107620238D02*
X113445238Y-107810714D01*
X113445238Y-107315476D01*
%TO.C,C37*%
D15*
X129457142Y-116007142D02*
X129409523Y-116054761D01*
X129266666Y-116102380D01*
X129171428Y-116102380D01*
X129028571Y-116054761D01*
X128933333Y-115959523D01*
X128885714Y-115864285D01*
X128838095Y-115673809D01*
X128838095Y-115530952D01*
X128885714Y-115340476D01*
X128933333Y-115245238D01*
X129028571Y-115150000D01*
X129171428Y-115102380D01*
X129266666Y-115102380D01*
X129409523Y-115150000D01*
X129457142Y-115197619D01*
X129790476Y-115102380D02*
X130409523Y-115102380D01*
X130076190Y-115483333D01*
X130219047Y-115483333D01*
X130314285Y-115530952D01*
X130361904Y-115578571D01*
X130409523Y-115673809D01*
X130409523Y-115911904D01*
X130361904Y-116007142D01*
X130314285Y-116054761D01*
X130219047Y-116102380D01*
X129933333Y-116102380D01*
X129838095Y-116054761D01*
X129790476Y-116007142D01*
X130742857Y-115102380D02*
X131409523Y-115102380D01*
X130980952Y-116102380D01*
%TO.C,C6*%
X138008333Y-107032142D02*
X137960714Y-107079761D01*
X137817857Y-107127380D01*
X137722619Y-107127380D01*
X137579761Y-107079761D01*
X137484523Y-106984523D01*
X137436904Y-106889285D01*
X137389285Y-106698809D01*
X137389285Y-106555952D01*
X137436904Y-106365476D01*
X137484523Y-106270238D01*
X137579761Y-106175000D01*
X137722619Y-106127380D01*
X137817857Y-106127380D01*
X137960714Y-106175000D01*
X138008333Y-106222619D01*
X138865476Y-106127380D02*
X138675000Y-106127380D01*
X138579761Y-106175000D01*
X138532142Y-106222619D01*
X138436904Y-106365476D01*
X138389285Y-106555952D01*
X138389285Y-106936904D01*
X138436904Y-107032142D01*
X138484523Y-107079761D01*
X138579761Y-107127380D01*
X138770238Y-107127380D01*
X138865476Y-107079761D01*
X138913095Y-107032142D01*
X138960714Y-106936904D01*
X138960714Y-106698809D01*
X138913095Y-106603571D01*
X138865476Y-106555952D01*
X138770238Y-106508333D01*
X138579761Y-106508333D01*
X138484523Y-106555952D01*
X138436904Y-106603571D01*
X138389285Y-106698809D01*
%TO.C,U4*%
X130863095Y-102727380D02*
X130863095Y-103536904D01*
X130910714Y-103632142D01*
X130958333Y-103679761D01*
X131053571Y-103727380D01*
X131244047Y-103727380D01*
X131339285Y-103679761D01*
X131386904Y-103632142D01*
X131434523Y-103536904D01*
X131434523Y-102727380D01*
X132339285Y-103060714D02*
X132339285Y-103727380D01*
X132101190Y-102679761D02*
X131863095Y-103394047D01*
X132482142Y-103394047D01*
%TO.C,R13*%
X124757142Y-100327380D02*
X124423809Y-99851190D01*
X124185714Y-100327380D02*
X124185714Y-99327380D01*
X124566666Y-99327380D01*
X124661904Y-99375000D01*
X124709523Y-99422619D01*
X124757142Y-99517857D01*
X124757142Y-99660714D01*
X124709523Y-99755952D01*
X124661904Y-99803571D01*
X124566666Y-99851190D01*
X124185714Y-99851190D01*
X125709523Y-100327380D02*
X125138095Y-100327380D01*
X125423809Y-100327380D02*
X125423809Y-99327380D01*
X125328571Y-99470238D01*
X125233333Y-99565476D01*
X125138095Y-99613095D01*
X126042857Y-99327380D02*
X126661904Y-99327380D01*
X126328571Y-99708333D01*
X126471428Y-99708333D01*
X126566666Y-99755952D01*
X126614285Y-99803571D01*
X126661904Y-99898809D01*
X126661904Y-100136904D01*
X126614285Y-100232142D01*
X126566666Y-100279761D01*
X126471428Y-100327380D01*
X126185714Y-100327380D01*
X126090476Y-100279761D01*
X126042857Y-100232142D01*
%TO.C,C18*%
X134007142Y-103407142D02*
X133959523Y-103454761D01*
X133816666Y-103502380D01*
X133721428Y-103502380D01*
X133578571Y-103454761D01*
X133483333Y-103359523D01*
X133435714Y-103264285D01*
X133388095Y-103073809D01*
X133388095Y-102930952D01*
X133435714Y-102740476D01*
X133483333Y-102645238D01*
X133578571Y-102550000D01*
X133721428Y-102502380D01*
X133816666Y-102502380D01*
X133959523Y-102550000D01*
X134007142Y-102597619D01*
X134959523Y-103502380D02*
X134388095Y-103502380D01*
X134673809Y-103502380D02*
X134673809Y-102502380D01*
X134578571Y-102645238D01*
X134483333Y-102740476D01*
X134388095Y-102788095D01*
X135530952Y-102930952D02*
X135435714Y-102883333D01*
X135388095Y-102835714D01*
X135340476Y-102740476D01*
X135340476Y-102692857D01*
X135388095Y-102597619D01*
X135435714Y-102550000D01*
X135530952Y-102502380D01*
X135721428Y-102502380D01*
X135816666Y-102550000D01*
X135864285Y-102597619D01*
X135911904Y-102692857D01*
X135911904Y-102740476D01*
X135864285Y-102835714D01*
X135816666Y-102883333D01*
X135721428Y-102930952D01*
X135530952Y-102930952D01*
X135435714Y-102978571D01*
X135388095Y-103026190D01*
X135340476Y-103121428D01*
X135340476Y-103311904D01*
X135388095Y-103407142D01*
X135435714Y-103454761D01*
X135530952Y-103502380D01*
X135721428Y-103502380D01*
X135816666Y-103454761D01*
X135864285Y-103407142D01*
X135911904Y-103311904D01*
X135911904Y-103121428D01*
X135864285Y-103026190D01*
X135816666Y-102978571D01*
X135721428Y-102930952D01*
%TO.C,VR1*%
X116240476Y-121852380D02*
X116573809Y-122852380D01*
X116907142Y-121852380D01*
X117811904Y-122852380D02*
X117478571Y-122376190D01*
X117240476Y-122852380D02*
X117240476Y-121852380D01*
X117621428Y-121852380D01*
X117716666Y-121900000D01*
X117764285Y-121947619D01*
X117811904Y-122042857D01*
X117811904Y-122185714D01*
X117764285Y-122280952D01*
X117716666Y-122328571D01*
X117621428Y-122376190D01*
X117240476Y-122376190D01*
X118764285Y-122852380D02*
X118192857Y-122852380D01*
X118478571Y-122852380D02*
X118478571Y-121852380D01*
X118383333Y-121995238D01*
X118288095Y-122090476D01*
X118192857Y-122138095D01*
%TO.C,C25*%
X117157142Y-99357142D02*
X117109523Y-99404761D01*
X116966666Y-99452380D01*
X116871428Y-99452380D01*
X116728571Y-99404761D01*
X116633333Y-99309523D01*
X116585714Y-99214285D01*
X116538095Y-99023809D01*
X116538095Y-98880952D01*
X116585714Y-98690476D01*
X116633333Y-98595238D01*
X116728571Y-98500000D01*
X116871428Y-98452380D01*
X116966666Y-98452380D01*
X117109523Y-98500000D01*
X117157142Y-98547619D01*
X117538095Y-98547619D02*
X117585714Y-98500000D01*
X117680952Y-98452380D01*
X117919047Y-98452380D01*
X118014285Y-98500000D01*
X118061904Y-98547619D01*
X118109523Y-98642857D01*
X118109523Y-98738095D01*
X118061904Y-98880952D01*
X117490476Y-99452380D01*
X118109523Y-99452380D01*
X119014285Y-98452380D02*
X118538095Y-98452380D01*
X118490476Y-98928571D01*
X118538095Y-98880952D01*
X118633333Y-98833333D01*
X118871428Y-98833333D01*
X118966666Y-98880952D01*
X119014285Y-98928571D01*
X119061904Y-99023809D01*
X119061904Y-99261904D01*
X119014285Y-99357142D01*
X118966666Y-99404761D01*
X118871428Y-99452380D01*
X118633333Y-99452380D01*
X118538095Y-99404761D01*
X118490476Y-99357142D01*
%TO.C,C10*%
X119507142Y-84207142D02*
X119459523Y-84254761D01*
X119316666Y-84302380D01*
X119221428Y-84302380D01*
X119078571Y-84254761D01*
X118983333Y-84159523D01*
X118935714Y-84064285D01*
X118888095Y-83873809D01*
X118888095Y-83730952D01*
X118935714Y-83540476D01*
X118983333Y-83445238D01*
X119078571Y-83350000D01*
X119221428Y-83302380D01*
X119316666Y-83302380D01*
X119459523Y-83350000D01*
X119507142Y-83397619D01*
X120459523Y-84302380D02*
X119888095Y-84302380D01*
X120173809Y-84302380D02*
X120173809Y-83302380D01*
X120078571Y-83445238D01*
X119983333Y-83540476D01*
X119888095Y-83588095D01*
X121078571Y-83302380D02*
X121173809Y-83302380D01*
X121269047Y-83350000D01*
X121316666Y-83397619D01*
X121364285Y-83492857D01*
X121411904Y-83683333D01*
X121411904Y-83921428D01*
X121364285Y-84111904D01*
X121316666Y-84207142D01*
X121269047Y-84254761D01*
X121173809Y-84302380D01*
X121078571Y-84302380D01*
X120983333Y-84254761D01*
X120935714Y-84207142D01*
X120888095Y-84111904D01*
X120840476Y-83921428D01*
X120840476Y-83683333D01*
X120888095Y-83492857D01*
X120935714Y-83397619D01*
X120983333Y-83350000D01*
X121078571Y-83302380D01*
%TO.C,C9*%
X131958333Y-97107142D02*
X131910714Y-97154761D01*
X131767857Y-97202380D01*
X131672619Y-97202380D01*
X131529761Y-97154761D01*
X131434523Y-97059523D01*
X131386904Y-96964285D01*
X131339285Y-96773809D01*
X131339285Y-96630952D01*
X131386904Y-96440476D01*
X131434523Y-96345238D01*
X131529761Y-96250000D01*
X131672619Y-96202380D01*
X131767857Y-96202380D01*
X131910714Y-96250000D01*
X131958333Y-96297619D01*
X132434523Y-97202380D02*
X132625000Y-97202380D01*
X132720238Y-97154761D01*
X132767857Y-97107142D01*
X132863095Y-96964285D01*
X132910714Y-96773809D01*
X132910714Y-96392857D01*
X132863095Y-96297619D01*
X132815476Y-96250000D01*
X132720238Y-96202380D01*
X132529761Y-96202380D01*
X132434523Y-96250000D01*
X132386904Y-96297619D01*
X132339285Y-96392857D01*
X132339285Y-96630952D01*
X132386904Y-96726190D01*
X132434523Y-96773809D01*
X132529761Y-96821428D01*
X132720238Y-96821428D01*
X132815476Y-96773809D01*
X132863095Y-96726190D01*
X132910714Y-96630952D01*
%TO.C,C8*%
X117233333Y-94782142D02*
X117185714Y-94829761D01*
X117042857Y-94877380D01*
X116947619Y-94877380D01*
X116804761Y-94829761D01*
X116709523Y-94734523D01*
X116661904Y-94639285D01*
X116614285Y-94448809D01*
X116614285Y-94305952D01*
X116661904Y-94115476D01*
X116709523Y-94020238D01*
X116804761Y-93925000D01*
X116947619Y-93877380D01*
X117042857Y-93877380D01*
X117185714Y-93925000D01*
X117233333Y-93972619D01*
X117804761Y-94305952D02*
X117709523Y-94258333D01*
X117661904Y-94210714D01*
X117614285Y-94115476D01*
X117614285Y-94067857D01*
X117661904Y-93972619D01*
X117709523Y-93925000D01*
X117804761Y-93877380D01*
X117995238Y-93877380D01*
X118090476Y-93925000D01*
X118138095Y-93972619D01*
X118185714Y-94067857D01*
X118185714Y-94115476D01*
X118138095Y-94210714D01*
X118090476Y-94258333D01*
X117995238Y-94305952D01*
X117804761Y-94305952D01*
X117709523Y-94353571D01*
X117661904Y-94401190D01*
X117614285Y-94496428D01*
X117614285Y-94686904D01*
X117661904Y-94782142D01*
X117709523Y-94829761D01*
X117804761Y-94877380D01*
X117995238Y-94877380D01*
X118090476Y-94829761D01*
X118138095Y-94782142D01*
X118185714Y-94686904D01*
X118185714Y-94496428D01*
X118138095Y-94401190D01*
X118090476Y-94353571D01*
X117995238Y-94305952D01*
%TO.C,C20*%
X141207142Y-85107142D02*
X141159523Y-85154761D01*
X141016666Y-85202380D01*
X140921428Y-85202380D01*
X140778571Y-85154761D01*
X140683333Y-85059523D01*
X140635714Y-84964285D01*
X140588095Y-84773809D01*
X140588095Y-84630952D01*
X140635714Y-84440476D01*
X140683333Y-84345238D01*
X140778571Y-84250000D01*
X140921428Y-84202380D01*
X141016666Y-84202380D01*
X141159523Y-84250000D01*
X141207142Y-84297619D01*
X141588095Y-84297619D02*
X141635714Y-84250000D01*
X141730952Y-84202380D01*
X141969047Y-84202380D01*
X142064285Y-84250000D01*
X142111904Y-84297619D01*
X142159523Y-84392857D01*
X142159523Y-84488095D01*
X142111904Y-84630952D01*
X141540476Y-85202380D01*
X142159523Y-85202380D01*
X142778571Y-84202380D02*
X142873809Y-84202380D01*
X142969047Y-84250000D01*
X143016666Y-84297619D01*
X143064285Y-84392857D01*
X143111904Y-84583333D01*
X143111904Y-84821428D01*
X143064285Y-85011904D01*
X143016666Y-85107142D01*
X142969047Y-85154761D01*
X142873809Y-85202380D01*
X142778571Y-85202380D01*
X142683333Y-85154761D01*
X142635714Y-85107142D01*
X142588095Y-85011904D01*
X142540476Y-84821428D01*
X142540476Y-84583333D01*
X142588095Y-84392857D01*
X142635714Y-84297619D01*
X142683333Y-84250000D01*
X142778571Y-84202380D01*
%TO.C,C29*%
X146057142Y-86632142D02*
X146009523Y-86679761D01*
X145866666Y-86727380D01*
X145771428Y-86727380D01*
X145628571Y-86679761D01*
X145533333Y-86584523D01*
X145485714Y-86489285D01*
X145438095Y-86298809D01*
X145438095Y-86155952D01*
X145485714Y-85965476D01*
X145533333Y-85870238D01*
X145628571Y-85775000D01*
X145771428Y-85727380D01*
X145866666Y-85727380D01*
X146009523Y-85775000D01*
X146057142Y-85822619D01*
X146438095Y-85822619D02*
X146485714Y-85775000D01*
X146580952Y-85727380D01*
X146819047Y-85727380D01*
X146914285Y-85775000D01*
X146961904Y-85822619D01*
X147009523Y-85917857D01*
X147009523Y-86013095D01*
X146961904Y-86155952D01*
X146390476Y-86727380D01*
X147009523Y-86727380D01*
X147485714Y-86727380D02*
X147676190Y-86727380D01*
X147771428Y-86679761D01*
X147819047Y-86632142D01*
X147914285Y-86489285D01*
X147961904Y-86298809D01*
X147961904Y-85917857D01*
X147914285Y-85822619D01*
X147866666Y-85775000D01*
X147771428Y-85727380D01*
X147580952Y-85727380D01*
X147485714Y-85775000D01*
X147438095Y-85822619D01*
X147390476Y-85917857D01*
X147390476Y-86155952D01*
X147438095Y-86251190D01*
X147485714Y-86298809D01*
X147580952Y-86346428D01*
X147771428Y-86346428D01*
X147866666Y-86298809D01*
X147914285Y-86251190D01*
X147961904Y-86155952D01*
%TO.C,C19*%
X137882142Y-103507142D02*
X137834523Y-103554761D01*
X137691666Y-103602380D01*
X137596428Y-103602380D01*
X137453571Y-103554761D01*
X137358333Y-103459523D01*
X137310714Y-103364285D01*
X137263095Y-103173809D01*
X137263095Y-103030952D01*
X137310714Y-102840476D01*
X137358333Y-102745238D01*
X137453571Y-102650000D01*
X137596428Y-102602380D01*
X137691666Y-102602380D01*
X137834523Y-102650000D01*
X137882142Y-102697619D01*
X138834523Y-103602380D02*
X138263095Y-103602380D01*
X138548809Y-103602380D02*
X138548809Y-102602380D01*
X138453571Y-102745238D01*
X138358333Y-102840476D01*
X138263095Y-102888095D01*
X139310714Y-103602380D02*
X139501190Y-103602380D01*
X139596428Y-103554761D01*
X139644047Y-103507142D01*
X139739285Y-103364285D01*
X139786904Y-103173809D01*
X139786904Y-102792857D01*
X139739285Y-102697619D01*
X139691666Y-102650000D01*
X139596428Y-102602380D01*
X139405952Y-102602380D01*
X139310714Y-102650000D01*
X139263095Y-102697619D01*
X139215476Y-102792857D01*
X139215476Y-103030952D01*
X139263095Y-103126190D01*
X139310714Y-103173809D01*
X139405952Y-103221428D01*
X139596428Y-103221428D01*
X139691666Y-103173809D01*
X139739285Y-103126190D01*
X139786904Y-103030952D01*
%TO.C,C16*%
X107832142Y-97532142D02*
X107784523Y-97579761D01*
X107641666Y-97627380D01*
X107546428Y-97627380D01*
X107403571Y-97579761D01*
X107308333Y-97484523D01*
X107260714Y-97389285D01*
X107213095Y-97198809D01*
X107213095Y-97055952D01*
X107260714Y-96865476D01*
X107308333Y-96770238D01*
X107403571Y-96675000D01*
X107546428Y-96627380D01*
X107641666Y-96627380D01*
X107784523Y-96675000D01*
X107832142Y-96722619D01*
X108784523Y-97627380D02*
X108213095Y-97627380D01*
X108498809Y-97627380D02*
X108498809Y-96627380D01*
X108403571Y-96770238D01*
X108308333Y-96865476D01*
X108213095Y-96913095D01*
X109641666Y-96627380D02*
X109451190Y-96627380D01*
X109355952Y-96675000D01*
X109308333Y-96722619D01*
X109213095Y-96865476D01*
X109165476Y-97055952D01*
X109165476Y-97436904D01*
X109213095Y-97532142D01*
X109260714Y-97579761D01*
X109355952Y-97627380D01*
X109546428Y-97627380D01*
X109641666Y-97579761D01*
X109689285Y-97532142D01*
X109736904Y-97436904D01*
X109736904Y-97198809D01*
X109689285Y-97103571D01*
X109641666Y-97055952D01*
X109546428Y-97008333D01*
X109355952Y-97008333D01*
X109260714Y-97055952D01*
X109213095Y-97103571D01*
X109165476Y-97198809D01*
%TO.C,C12*%
X99482142Y-81232142D02*
X99434523Y-81279761D01*
X99291666Y-81327380D01*
X99196428Y-81327380D01*
X99053571Y-81279761D01*
X98958333Y-81184523D01*
X98910714Y-81089285D01*
X98863095Y-80898809D01*
X98863095Y-80755952D01*
X98910714Y-80565476D01*
X98958333Y-80470238D01*
X99053571Y-80375000D01*
X99196428Y-80327380D01*
X99291666Y-80327380D01*
X99434523Y-80375000D01*
X99482142Y-80422619D01*
X100434523Y-81327380D02*
X99863095Y-81327380D01*
X100148809Y-81327380D02*
X100148809Y-80327380D01*
X100053571Y-80470238D01*
X99958333Y-80565476D01*
X99863095Y-80613095D01*
X100815476Y-80422619D02*
X100863095Y-80375000D01*
X100958333Y-80327380D01*
X101196428Y-80327380D01*
X101291666Y-80375000D01*
X101339285Y-80422619D01*
X101386904Y-80517857D01*
X101386904Y-80613095D01*
X101339285Y-80755952D01*
X100767857Y-81327380D01*
X101386904Y-81327380D01*
%TO.C,C11*%
X97932142Y-102132142D02*
X97884523Y-102179761D01*
X97741666Y-102227380D01*
X97646428Y-102227380D01*
X97503571Y-102179761D01*
X97408333Y-102084523D01*
X97360714Y-101989285D01*
X97313095Y-101798809D01*
X97313095Y-101655952D01*
X97360714Y-101465476D01*
X97408333Y-101370238D01*
X97503571Y-101275000D01*
X97646428Y-101227380D01*
X97741666Y-101227380D01*
X97884523Y-101275000D01*
X97932142Y-101322619D01*
X98884523Y-102227380D02*
X98313095Y-102227380D01*
X98598809Y-102227380D02*
X98598809Y-101227380D01*
X98503571Y-101370238D01*
X98408333Y-101465476D01*
X98313095Y-101513095D01*
X99836904Y-102227380D02*
X99265476Y-102227380D01*
X99551190Y-102227380D02*
X99551190Y-101227380D01*
X99455952Y-101370238D01*
X99360714Y-101465476D01*
X99265476Y-101513095D01*
%TO.C,C21*%
X115807142Y-92557142D02*
X115759523Y-92604761D01*
X115616666Y-92652380D01*
X115521428Y-92652380D01*
X115378571Y-92604761D01*
X115283333Y-92509523D01*
X115235714Y-92414285D01*
X115188095Y-92223809D01*
X115188095Y-92080952D01*
X115235714Y-91890476D01*
X115283333Y-91795238D01*
X115378571Y-91700000D01*
X115521428Y-91652380D01*
X115616666Y-91652380D01*
X115759523Y-91700000D01*
X115807142Y-91747619D01*
X116188095Y-91747619D02*
X116235714Y-91700000D01*
X116330952Y-91652380D01*
X116569047Y-91652380D01*
X116664285Y-91700000D01*
X116711904Y-91747619D01*
X116759523Y-91842857D01*
X116759523Y-91938095D01*
X116711904Y-92080952D01*
X116140476Y-92652380D01*
X116759523Y-92652380D01*
X117711904Y-92652380D02*
X117140476Y-92652380D01*
X117426190Y-92652380D02*
X117426190Y-91652380D01*
X117330952Y-91795238D01*
X117235714Y-91890476D01*
X117140476Y-91938095D01*
%TO.C,DB1*%
D11*
X113659523Y-125511904D02*
X113659523Y-124711904D01*
X113850000Y-124711904D01*
X113964285Y-124750000D01*
X114040476Y-124826190D01*
X114078571Y-124902380D01*
X114116666Y-125054761D01*
X114116666Y-125169047D01*
X114078571Y-125321428D01*
X114040476Y-125397619D01*
X113964285Y-125473809D01*
X113850000Y-125511904D01*
X113659523Y-125511904D01*
X114726190Y-125092857D02*
X114840476Y-125130952D01*
X114878571Y-125169047D01*
X114916666Y-125245238D01*
X114916666Y-125359523D01*
X114878571Y-125435714D01*
X114840476Y-125473809D01*
X114764285Y-125511904D01*
X114459523Y-125511904D01*
X114459523Y-124711904D01*
X114726190Y-124711904D01*
X114802380Y-124750000D01*
X114840476Y-124788095D01*
X114878571Y-124864285D01*
X114878571Y-124940476D01*
X114840476Y-125016666D01*
X114802380Y-125054761D01*
X114726190Y-125092857D01*
X114459523Y-125092857D01*
X115678571Y-125511904D02*
X115221428Y-125511904D01*
X115450000Y-125511904D02*
X115450000Y-124711904D01*
X115373809Y-124826190D01*
X115297619Y-124902380D01*
X115221428Y-124940476D01*
%TO.C,U3*%
D15*
X127788095Y-81677380D02*
X127788095Y-82486904D01*
X127835714Y-82582142D01*
X127883333Y-82629761D01*
X127978571Y-82677380D01*
X128169047Y-82677380D01*
X128264285Y-82629761D01*
X128311904Y-82582142D01*
X128359523Y-82486904D01*
X128359523Y-81677380D01*
X128740476Y-81677380D02*
X129359523Y-81677380D01*
X129026190Y-82058333D01*
X129169047Y-82058333D01*
X129264285Y-82105952D01*
X129311904Y-82153571D01*
X129359523Y-82248809D01*
X129359523Y-82486904D01*
X129311904Y-82582142D01*
X129264285Y-82629761D01*
X129169047Y-82677380D01*
X128883333Y-82677380D01*
X128788095Y-82629761D01*
X128740476Y-82582142D01*
%TO.C,J5*%
D14*
X122714526Y-77436047D02*
X122714526Y-78297833D01*
X122657073Y-78470190D01*
X122542169Y-78585095D01*
X122369811Y-78642547D01*
X122254907Y-78642547D01*
X123863573Y-77436047D02*
X123289050Y-77436047D01*
X123231597Y-78010571D01*
X123289050Y-77953119D01*
X123403954Y-77895666D01*
X123691216Y-77895666D01*
X123806121Y-77953119D01*
X123863573Y-78010571D01*
X123921026Y-78125476D01*
X123921026Y-78412738D01*
X123863573Y-78527642D01*
X123806121Y-78585095D01*
X123691216Y-78642547D01*
X123403954Y-78642547D01*
X123289050Y-78585095D01*
X123231597Y-78527642D01*
D19*
X121520849Y-68100952D02*
X121578301Y-68043500D01*
X121693206Y-67986047D01*
X121980468Y-67986047D01*
X122095373Y-68043500D01*
X122152825Y-68100952D01*
X122210278Y-68215857D01*
X122210278Y-68330761D01*
X122152825Y-68503119D01*
X121463397Y-69192547D01*
X122210278Y-69192547D01*
X122612444Y-69192547D02*
X123244420Y-68388214D01*
X122612444Y-68388214D02*
X123244420Y-69192547D01*
X123646587Y-68100952D02*
X123704040Y-68043500D01*
X123818944Y-67986047D01*
X124106206Y-67986047D01*
X124221111Y-68043500D01*
X124278563Y-68100952D01*
X124336016Y-68215857D01*
X124336016Y-68330761D01*
X124278563Y-68503119D01*
X123589135Y-69192547D01*
X124336016Y-69192547D01*
X125082897Y-67986047D02*
X125197801Y-67986047D01*
X125312706Y-68043500D01*
X125370159Y-68100952D01*
X125427611Y-68215857D01*
X125485063Y-68445666D01*
X125485063Y-68732928D01*
X125427611Y-68962738D01*
X125370159Y-69077642D01*
X125312706Y-69135095D01*
X125197801Y-69192547D01*
X125082897Y-69192547D01*
X124967992Y-69135095D01*
X124910540Y-69077642D01*
X124853087Y-68962738D01*
X124795635Y-68732928D01*
X124795635Y-68445666D01*
X124853087Y-68215857D01*
X124910540Y-68100952D01*
X124967992Y-68043500D01*
X125082897Y-67986047D01*
%TO.C,CN1*%
D15*
X151209523Y-108657142D02*
X151161904Y-108704761D01*
X151019047Y-108752380D01*
X150923809Y-108752380D01*
X150780952Y-108704761D01*
X150685714Y-108609523D01*
X150638095Y-108514285D01*
X150590476Y-108323809D01*
X150590476Y-108180952D01*
X150638095Y-107990476D01*
X150685714Y-107895238D01*
X150780952Y-107800000D01*
X150923809Y-107752380D01*
X151019047Y-107752380D01*
X151161904Y-107800000D01*
X151209523Y-107847619D01*
X151638095Y-108752380D02*
X151638095Y-107752380D01*
X152209523Y-108752380D01*
X152209523Y-107752380D01*
X153209523Y-108752380D02*
X152638095Y-108752380D01*
X152923809Y-108752380D02*
X152923809Y-107752380D01*
X152828571Y-107895238D01*
X152733333Y-107990476D01*
X152638095Y-108038095D01*
%TO.C,C33*%
X138232142Y-91157142D02*
X138184523Y-91204761D01*
X138041666Y-91252380D01*
X137946428Y-91252380D01*
X137803571Y-91204761D01*
X137708333Y-91109523D01*
X137660714Y-91014285D01*
X137613095Y-90823809D01*
X137613095Y-90680952D01*
X137660714Y-90490476D01*
X137708333Y-90395238D01*
X137803571Y-90300000D01*
X137946428Y-90252380D01*
X138041666Y-90252380D01*
X138184523Y-90300000D01*
X138232142Y-90347619D01*
X138565476Y-90252380D02*
X139184523Y-90252380D01*
X138851190Y-90633333D01*
X138994047Y-90633333D01*
X139089285Y-90680952D01*
X139136904Y-90728571D01*
X139184523Y-90823809D01*
X139184523Y-91061904D01*
X139136904Y-91157142D01*
X139089285Y-91204761D01*
X138994047Y-91252380D01*
X138708333Y-91252380D01*
X138613095Y-91204761D01*
X138565476Y-91157142D01*
X139517857Y-90252380D02*
X140136904Y-90252380D01*
X139803571Y-90633333D01*
X139946428Y-90633333D01*
X140041666Y-90680952D01*
X140089285Y-90728571D01*
X140136904Y-90823809D01*
X140136904Y-91061904D01*
X140089285Y-91157142D01*
X140041666Y-91204761D01*
X139946428Y-91252380D01*
X139660714Y-91252380D01*
X139565476Y-91204761D01*
X139517857Y-91157142D01*
%TO.C,C31*%
X139807142Y-95157142D02*
X139759523Y-95204761D01*
X139616666Y-95252380D01*
X139521428Y-95252380D01*
X139378571Y-95204761D01*
X139283333Y-95109523D01*
X139235714Y-95014285D01*
X139188095Y-94823809D01*
X139188095Y-94680952D01*
X139235714Y-94490476D01*
X139283333Y-94395238D01*
X139378571Y-94300000D01*
X139521428Y-94252380D01*
X139616666Y-94252380D01*
X139759523Y-94300000D01*
X139807142Y-94347619D01*
X140140476Y-94252380D02*
X140759523Y-94252380D01*
X140426190Y-94633333D01*
X140569047Y-94633333D01*
X140664285Y-94680952D01*
X140711904Y-94728571D01*
X140759523Y-94823809D01*
X140759523Y-95061904D01*
X140711904Y-95157142D01*
X140664285Y-95204761D01*
X140569047Y-95252380D01*
X140283333Y-95252380D01*
X140188095Y-95204761D01*
X140140476Y-95157142D01*
X141711904Y-95252380D02*
X141140476Y-95252380D01*
X141426190Y-95252380D02*
X141426190Y-94252380D01*
X141330952Y-94395238D01*
X141235714Y-94490476D01*
X141140476Y-94538095D01*
%TO.C,C27*%
X139507142Y-79182142D02*
X139459523Y-79229761D01*
X139316666Y-79277380D01*
X139221428Y-79277380D01*
X139078571Y-79229761D01*
X138983333Y-79134523D01*
X138935714Y-79039285D01*
X138888095Y-78848809D01*
X138888095Y-78705952D01*
X138935714Y-78515476D01*
X138983333Y-78420238D01*
X139078571Y-78325000D01*
X139221428Y-78277380D01*
X139316666Y-78277380D01*
X139459523Y-78325000D01*
X139507142Y-78372619D01*
X139888095Y-78372619D02*
X139935714Y-78325000D01*
X140030952Y-78277380D01*
X140269047Y-78277380D01*
X140364285Y-78325000D01*
X140411904Y-78372619D01*
X140459523Y-78467857D01*
X140459523Y-78563095D01*
X140411904Y-78705952D01*
X139840476Y-79277380D01*
X140459523Y-79277380D01*
X140792857Y-78277380D02*
X141459523Y-78277380D01*
X141030952Y-79277380D01*
%TO.C,C15*%
X109707142Y-103667857D02*
X109754761Y-103715476D01*
X109802380Y-103858333D01*
X109802380Y-103953571D01*
X109754761Y-104096428D01*
X109659523Y-104191666D01*
X109564285Y-104239285D01*
X109373809Y-104286904D01*
X109230952Y-104286904D01*
X109040476Y-104239285D01*
X108945238Y-104191666D01*
X108850000Y-104096428D01*
X108802380Y-103953571D01*
X108802380Y-103858333D01*
X108850000Y-103715476D01*
X108897619Y-103667857D01*
X109802380Y-102715476D02*
X109802380Y-103286904D01*
X109802380Y-103001190D02*
X108802380Y-103001190D01*
X108945238Y-103096428D01*
X109040476Y-103191666D01*
X109088095Y-103286904D01*
X108802380Y-101810714D02*
X108802380Y-102286904D01*
X109278571Y-102334523D01*
X109230952Y-102286904D01*
X109183333Y-102191666D01*
X109183333Y-101953571D01*
X109230952Y-101858333D01*
X109278571Y-101810714D01*
X109373809Y-101763095D01*
X109611904Y-101763095D01*
X109707142Y-101810714D01*
X109754761Y-101858333D01*
X109802380Y-101953571D01*
X109802380Y-102191666D01*
X109754761Y-102286904D01*
X109707142Y-102334523D01*
%TO.C,D5*%
D11*
X151859523Y-92186904D02*
X151859523Y-91386904D01*
X152050000Y-91386904D01*
X152164285Y-91425000D01*
X152240476Y-91501190D01*
X152278571Y-91577380D01*
X152316666Y-91729761D01*
X152316666Y-91844047D01*
X152278571Y-91996428D01*
X152240476Y-92072619D01*
X152164285Y-92148809D01*
X152050000Y-92186904D01*
X151859523Y-92186904D01*
X153040476Y-91386904D02*
X152659523Y-91386904D01*
X152621428Y-91767857D01*
X152659523Y-91729761D01*
X152735714Y-91691666D01*
X152926190Y-91691666D01*
X153002380Y-91729761D01*
X153040476Y-91767857D01*
X153078571Y-91844047D01*
X153078571Y-92034523D01*
X153040476Y-92110714D01*
X153002380Y-92148809D01*
X152926190Y-92186904D01*
X152735714Y-92186904D01*
X152659523Y-92148809D01*
X152621428Y-92110714D01*
%TO.C,R3*%
D15*
X95958333Y-119077380D02*
X95625000Y-118601190D01*
X95386904Y-119077380D02*
X95386904Y-118077380D01*
X95767857Y-118077380D01*
X95863095Y-118125000D01*
X95910714Y-118172619D01*
X95958333Y-118267857D01*
X95958333Y-118410714D01*
X95910714Y-118505952D01*
X95863095Y-118553571D01*
X95767857Y-118601190D01*
X95386904Y-118601190D01*
X96291666Y-118077380D02*
X96910714Y-118077380D01*
X96577380Y-118458333D01*
X96720238Y-118458333D01*
X96815476Y-118505952D01*
X96863095Y-118553571D01*
X96910714Y-118648809D01*
X96910714Y-118886904D01*
X96863095Y-118982142D01*
X96815476Y-119029761D01*
X96720238Y-119077380D01*
X96434523Y-119077380D01*
X96339285Y-119029761D01*
X96291666Y-118982142D01*
%TO.C,R20*%
X151182142Y-86677380D02*
X150848809Y-86201190D01*
X150610714Y-86677380D02*
X150610714Y-85677380D01*
X150991666Y-85677380D01*
X151086904Y-85725000D01*
X151134523Y-85772619D01*
X151182142Y-85867857D01*
X151182142Y-86010714D01*
X151134523Y-86105952D01*
X151086904Y-86153571D01*
X150991666Y-86201190D01*
X150610714Y-86201190D01*
X151563095Y-85772619D02*
X151610714Y-85725000D01*
X151705952Y-85677380D01*
X151944047Y-85677380D01*
X152039285Y-85725000D01*
X152086904Y-85772619D01*
X152134523Y-85867857D01*
X152134523Y-85963095D01*
X152086904Y-86105952D01*
X151515476Y-86677380D01*
X152134523Y-86677380D01*
X152753571Y-85677380D02*
X152848809Y-85677380D01*
X152944047Y-85725000D01*
X152991666Y-85772619D01*
X153039285Y-85867857D01*
X153086904Y-86058333D01*
X153086904Y-86296428D01*
X153039285Y-86486904D01*
X152991666Y-86582142D01*
X152944047Y-86629761D01*
X152848809Y-86677380D01*
X152753571Y-86677380D01*
X152658333Y-86629761D01*
X152610714Y-86582142D01*
X152563095Y-86486904D01*
X152515476Y-86296428D01*
X152515476Y-86058333D01*
X152563095Y-85867857D01*
X152610714Y-85772619D01*
X152658333Y-85725000D01*
X152753571Y-85677380D01*
%TO.C,D2*%
D11*
X90959523Y-111411904D02*
X90959523Y-110611904D01*
X91150000Y-110611904D01*
X91264285Y-110650000D01*
X91340476Y-110726190D01*
X91378571Y-110802380D01*
X91416666Y-110954761D01*
X91416666Y-111069047D01*
X91378571Y-111221428D01*
X91340476Y-111297619D01*
X91264285Y-111373809D01*
X91150000Y-111411904D01*
X90959523Y-111411904D01*
X91721428Y-110688095D02*
X91759523Y-110650000D01*
X91835714Y-110611904D01*
X92026190Y-110611904D01*
X92102380Y-110650000D01*
X92140476Y-110688095D01*
X92178571Y-110764285D01*
X92178571Y-110840476D01*
X92140476Y-110954761D01*
X91683333Y-111411904D01*
X92178571Y-111411904D01*
%TO.C,Y1*%
D20*
X136495238Y-95844761D02*
X136495238Y-96449523D01*
X136071904Y-95179523D02*
X136495238Y-95844761D01*
X136918571Y-95179523D01*
X138007142Y-96449523D02*
X137281428Y-96449523D01*
X137644285Y-96449523D02*
X137644285Y-95179523D01*
X137523333Y-95360952D01*
X137402380Y-95481904D01*
X137281428Y-95542380D01*
%TO.C,U5*%
D19*
X149661047Y-83491778D02*
X150637738Y-83491778D01*
X150752642Y-83434325D01*
X150810095Y-83376873D01*
X150867547Y-83261968D01*
X150867547Y-83032159D01*
X150810095Y-82917254D01*
X150752642Y-82859801D01*
X150637738Y-82802349D01*
X149661047Y-82802349D01*
X149661047Y-81653301D02*
X149661047Y-82227825D01*
X150235571Y-82285278D01*
X150178119Y-82227825D01*
X150120666Y-82112920D01*
X150120666Y-81825659D01*
X150178119Y-81710754D01*
X150235571Y-81653301D01*
X150350476Y-81595849D01*
X150637738Y-81595849D01*
X150752642Y-81653301D01*
X150810095Y-81710754D01*
X150867547Y-81825659D01*
X150867547Y-82112920D01*
X150810095Y-82227825D01*
X150752642Y-82285278D01*
X148821491Y-85080388D02*
X148821491Y-85366103D01*
X148221491Y-85366103D01*
X148821491Y-84880388D02*
X148221491Y-84880388D01*
X148221491Y-84737531D01*
X148250063Y-84651817D01*
X148307205Y-84594674D01*
X148364348Y-84566103D01*
X148478634Y-84537531D01*
X148564348Y-84537531D01*
X148678634Y-84566103D01*
X148735777Y-84594674D01*
X148792920Y-84651817D01*
X148821491Y-84737531D01*
X148821491Y-84880388D01*
X148821491Y-83966103D02*
X148821491Y-84308960D01*
X148821491Y-84137531D02*
X148221491Y-84137531D01*
X148307205Y-84194674D01*
X148364348Y-84251817D01*
X148392920Y-84308960D01*
X148821491Y-83394674D02*
X148821491Y-83737531D01*
X148821491Y-83566103D02*
X148221491Y-83566103D01*
X148307205Y-83623245D01*
X148364348Y-83680388D01*
X148392920Y-83737531D01*
X148821491Y-82823245D02*
X148821491Y-83166103D01*
X148821491Y-82994674D02*
X148221491Y-82994674D01*
X148307205Y-83051817D01*
X148364348Y-83108960D01*
X148392920Y-83166103D01*
X148221491Y-82623245D02*
X148221491Y-82223245D01*
X148821491Y-82480388D01*
X148792920Y-82023245D02*
X148821491Y-81937531D01*
X148821491Y-81794674D01*
X148792920Y-81737531D01*
X148764348Y-81708960D01*
X148707205Y-81680388D01*
X148650063Y-81680388D01*
X148592920Y-81708960D01*
X148564348Y-81737531D01*
X148535777Y-81794674D01*
X148507205Y-81908960D01*
X148478634Y-81966103D01*
X148450063Y-81994674D01*
X148392920Y-82023245D01*
X148335777Y-82023245D01*
X148278634Y-81994674D01*
X148250063Y-81966103D01*
X148221491Y-81908960D01*
X148221491Y-81766103D01*
X148250063Y-81680388D01*
X148221491Y-81480388D02*
X148221491Y-81108960D01*
X148450063Y-81308960D01*
X148450063Y-81223245D01*
X148478634Y-81166103D01*
X148507205Y-81137531D01*
X148564348Y-81108960D01*
X148707205Y-81108960D01*
X148764348Y-81137531D01*
X148792920Y-81166103D01*
X148821491Y-81223245D01*
X148821491Y-81394674D01*
X148792920Y-81451817D01*
X148764348Y-81480388D01*
X148221491Y-80908960D02*
X148221491Y-80537531D01*
X148450063Y-80737531D01*
X148450063Y-80651817D01*
X148478634Y-80594674D01*
X148507205Y-80566103D01*
X148564348Y-80537531D01*
X148707205Y-80537531D01*
X148764348Y-80566103D01*
X148792920Y-80594674D01*
X148821491Y-80651817D01*
X148821491Y-80823245D01*
X148792920Y-80880388D01*
X148764348Y-80908960D01*
X148221491Y-80366103D02*
X148221491Y-80023245D01*
X148821491Y-80194674D02*
X148221491Y-80194674D01*
X148821491Y-79480388D02*
X148535777Y-79680388D01*
X148821491Y-79823245D02*
X148221491Y-79823245D01*
X148221491Y-79594674D01*
X148250063Y-79537531D01*
X148278634Y-79508960D01*
X148335777Y-79480388D01*
X148421491Y-79480388D01*
X148478634Y-79508960D01*
X148507205Y-79537531D01*
X148535777Y-79594674D01*
X148535777Y-79823245D01*
%TO.C,D4*%
D11*
X144171523Y-97361904D02*
X144171523Y-96561904D01*
X144362000Y-96561904D01*
X144476285Y-96600000D01*
X144552476Y-96676190D01*
X144590571Y-96752380D01*
X144628666Y-96904761D01*
X144628666Y-97019047D01*
X144590571Y-97171428D01*
X144552476Y-97247619D01*
X144476285Y-97323809D01*
X144362000Y-97361904D01*
X144171523Y-97361904D01*
X145314380Y-96828571D02*
X145314380Y-97361904D01*
X145123904Y-96523809D02*
X144933428Y-97095238D01*
X145428666Y-97095238D01*
%TO.C,D3*%
X142784523Y-104061904D02*
X142784523Y-103261904D01*
X142975000Y-103261904D01*
X143089285Y-103300000D01*
X143165476Y-103376190D01*
X143203571Y-103452380D01*
X143241666Y-103604761D01*
X143241666Y-103719047D01*
X143203571Y-103871428D01*
X143165476Y-103947619D01*
X143089285Y-104023809D01*
X142975000Y-104061904D01*
X142784523Y-104061904D01*
X143508333Y-103261904D02*
X144003571Y-103261904D01*
X143736904Y-103566666D01*
X143851190Y-103566666D01*
X143927380Y-103604761D01*
X143965476Y-103642857D01*
X144003571Y-103719047D01*
X144003571Y-103909523D01*
X143965476Y-103985714D01*
X143927380Y-104023809D01*
X143851190Y-104061904D01*
X143622619Y-104061904D01*
X143546428Y-104023809D01*
X143508333Y-103985714D01*
%TO.C,D1*%
D15*
X145611904Y-120577380D02*
X145611904Y-119577380D01*
X145850000Y-119577380D01*
X145992857Y-119625000D01*
X146088095Y-119720238D01*
X146135714Y-119815476D01*
X146183333Y-120005952D01*
X146183333Y-120148809D01*
X146135714Y-120339285D01*
X146088095Y-120434523D01*
X145992857Y-120529761D01*
X145850000Y-120577380D01*
X145611904Y-120577380D01*
X147135714Y-120577380D02*
X146564285Y-120577380D01*
X146850000Y-120577380D02*
X146850000Y-119577380D01*
X146754761Y-119720238D01*
X146659523Y-119815476D01*
X146564285Y-119863095D01*
%TO.C,Q1*%
D11*
X129623809Y-122063095D02*
X129547619Y-122025000D01*
X129471428Y-121948809D01*
X129357142Y-121834523D01*
X129280952Y-121796428D01*
X129204761Y-121796428D01*
X129242857Y-121986904D02*
X129166666Y-121948809D01*
X129090476Y-121872619D01*
X129052380Y-121720238D01*
X129052380Y-121453571D01*
X129090476Y-121301190D01*
X129166666Y-121225000D01*
X129242857Y-121186904D01*
X129395238Y-121186904D01*
X129471428Y-121225000D01*
X129547619Y-121301190D01*
X129585714Y-121453571D01*
X129585714Y-121720238D01*
X129547619Y-121872619D01*
X129471428Y-121948809D01*
X129395238Y-121986904D01*
X129242857Y-121986904D01*
X130347619Y-121986904D02*
X129890476Y-121986904D01*
X130119047Y-121986904D02*
X130119047Y-121186904D01*
X130042857Y-121301190D01*
X129966666Y-121377380D01*
X129890476Y-121415476D01*
%TO.C,R11*%
D15*
X146957142Y-93627380D02*
X146623809Y-93151190D01*
X146385714Y-93627380D02*
X146385714Y-92627380D01*
X146766666Y-92627380D01*
X146861904Y-92675000D01*
X146909523Y-92722619D01*
X146957142Y-92817857D01*
X146957142Y-92960714D01*
X146909523Y-93055952D01*
X146861904Y-93103571D01*
X146766666Y-93151190D01*
X146385714Y-93151190D01*
X147909523Y-93627380D02*
X147338095Y-93627380D01*
X147623809Y-93627380D02*
X147623809Y-92627380D01*
X147528571Y-92770238D01*
X147433333Y-92865476D01*
X147338095Y-92913095D01*
X148861904Y-93627380D02*
X148290476Y-93627380D01*
X148576190Y-93627380D02*
X148576190Y-92627380D01*
X148480952Y-92770238D01*
X148385714Y-92865476D01*
X148290476Y-92913095D01*
%TO.C,R5*%
X144558333Y-106452380D02*
X144225000Y-105976190D01*
X143986904Y-106452380D02*
X143986904Y-105452380D01*
X144367857Y-105452380D01*
X144463095Y-105500000D01*
X144510714Y-105547619D01*
X144558333Y-105642857D01*
X144558333Y-105785714D01*
X144510714Y-105880952D01*
X144463095Y-105928571D01*
X144367857Y-105976190D01*
X143986904Y-105976190D01*
X145463095Y-105452380D02*
X144986904Y-105452380D01*
X144939285Y-105928571D01*
X144986904Y-105880952D01*
X145082142Y-105833333D01*
X145320238Y-105833333D01*
X145415476Y-105880952D01*
X145463095Y-105928571D01*
X145510714Y-106023809D01*
X145510714Y-106261904D01*
X145463095Y-106357142D01*
X145415476Y-106404761D01*
X145320238Y-106452380D01*
X145082142Y-106452380D01*
X144986904Y-106404761D01*
X144939285Y-106357142D01*
%TO.C,R4*%
X143233333Y-95052380D02*
X142900000Y-94576190D01*
X142661904Y-95052380D02*
X142661904Y-94052380D01*
X143042857Y-94052380D01*
X143138095Y-94100000D01*
X143185714Y-94147619D01*
X143233333Y-94242857D01*
X143233333Y-94385714D01*
X143185714Y-94480952D01*
X143138095Y-94528571D01*
X143042857Y-94576190D01*
X142661904Y-94576190D01*
X144090476Y-94385714D02*
X144090476Y-95052380D01*
X143852380Y-94004761D02*
X143614285Y-94719047D01*
X144233333Y-94719047D01*
%TO.C,C14*%
X103857142Y-112207142D02*
X103809523Y-112254761D01*
X103666666Y-112302380D01*
X103571428Y-112302380D01*
X103428571Y-112254761D01*
X103333333Y-112159523D01*
X103285714Y-112064285D01*
X103238095Y-111873809D01*
X103238095Y-111730952D01*
X103285714Y-111540476D01*
X103333333Y-111445238D01*
X103428571Y-111350000D01*
X103571428Y-111302380D01*
X103666666Y-111302380D01*
X103809523Y-111350000D01*
X103857142Y-111397619D01*
X104809523Y-112302380D02*
X104238095Y-112302380D01*
X104523809Y-112302380D02*
X104523809Y-111302380D01*
X104428571Y-111445238D01*
X104333333Y-111540476D01*
X104238095Y-111588095D01*
X105666666Y-111635714D02*
X105666666Y-112302380D01*
X105428571Y-111254761D02*
X105190476Y-111969047D01*
X105809523Y-111969047D01*
%TO.C,J2*%
D11*
X150911904Y-99266666D02*
X151483333Y-99266666D01*
X151597619Y-99304761D01*
X151673809Y-99380952D01*
X151711904Y-99495238D01*
X151711904Y-99571428D01*
X150988095Y-98923809D02*
X150950000Y-98885714D01*
X150911904Y-98809523D01*
X150911904Y-98619047D01*
X150950000Y-98542857D01*
X150988095Y-98504761D01*
X151064285Y-98466666D01*
X151140476Y-98466666D01*
X151254761Y-98504761D01*
X151711904Y-98961904D01*
X151711904Y-98466666D01*
%TO.C,U2*%
D19*
X104303301Y-103736047D02*
X104303301Y-104712738D01*
X104360754Y-104827642D01*
X104418206Y-104885095D01*
X104533111Y-104942547D01*
X104762920Y-104942547D01*
X104877825Y-104885095D01*
X104935278Y-104827642D01*
X104992730Y-104712738D01*
X104992730Y-103736047D01*
X105509801Y-103850952D02*
X105567254Y-103793500D01*
X105682159Y-103736047D01*
X105969420Y-103736047D01*
X106084325Y-103793500D01*
X106141778Y-103850952D01*
X106199230Y-103965857D01*
X106199230Y-104080761D01*
X106141778Y-104253119D01*
X105452349Y-104942547D01*
X106199230Y-104942547D01*
X102954674Y-106492165D02*
X102668960Y-106492165D01*
X102668960Y-105892165D01*
X103154674Y-106492165D02*
X103154674Y-105892165D01*
X103297531Y-105892165D01*
X103383245Y-105920737D01*
X103440388Y-105977879D01*
X103468960Y-106035022D01*
X103497531Y-106149308D01*
X103497531Y-106235022D01*
X103468960Y-106349308D01*
X103440388Y-106406451D01*
X103383245Y-106463594D01*
X103297531Y-106492165D01*
X103154674Y-106492165D01*
X104068960Y-106492165D02*
X103726103Y-106492165D01*
X103897531Y-106492165D02*
X103897531Y-105892165D01*
X103840388Y-105977879D01*
X103783245Y-106035022D01*
X103726103Y-106063594D01*
X104640388Y-106492165D02*
X104297531Y-106492165D01*
X104468960Y-106492165D02*
X104468960Y-105892165D01*
X104411817Y-105977879D01*
X104354674Y-106035022D01*
X104297531Y-106063594D01*
X105211817Y-106492165D02*
X104868960Y-106492165D01*
X105040388Y-106492165D02*
X105040388Y-105892165D01*
X104983245Y-105977879D01*
X104926103Y-106035022D01*
X104868960Y-106063594D01*
X105411817Y-105892165D02*
X105811817Y-105892165D01*
X105554674Y-106492165D01*
X106011817Y-106463594D02*
X106097531Y-106492165D01*
X106240388Y-106492165D01*
X106297531Y-106463594D01*
X106326103Y-106435022D01*
X106354674Y-106377879D01*
X106354674Y-106320737D01*
X106326103Y-106263594D01*
X106297531Y-106235022D01*
X106240388Y-106206451D01*
X106126103Y-106177879D01*
X106068960Y-106149308D01*
X106040388Y-106120737D01*
X106011817Y-106063594D01*
X106011817Y-106006451D01*
X106040388Y-105949308D01*
X106068960Y-105920737D01*
X106126103Y-105892165D01*
X106268960Y-105892165D01*
X106354674Y-105920737D01*
X106554674Y-105892165D02*
X106926103Y-105892165D01*
X106726103Y-106120737D01*
X106811817Y-106120737D01*
X106868960Y-106149308D01*
X106897531Y-106177879D01*
X106926103Y-106235022D01*
X106926103Y-106377879D01*
X106897531Y-106435022D01*
X106868960Y-106463594D01*
X106811817Y-106492165D01*
X106640388Y-106492165D01*
X106583245Y-106463594D01*
X106554674Y-106435022D01*
X107126103Y-105892165D02*
X107497531Y-105892165D01*
X107297531Y-106120737D01*
X107383245Y-106120737D01*
X107440388Y-106149308D01*
X107468960Y-106177879D01*
X107497531Y-106235022D01*
X107497531Y-106377879D01*
X107468960Y-106435022D01*
X107440388Y-106463594D01*
X107383245Y-106492165D01*
X107211817Y-106492165D01*
X107154674Y-106463594D01*
X107126103Y-106435022D01*
X107668960Y-105892165D02*
X108011817Y-105892165D01*
X107840388Y-106492165D02*
X107840388Y-105892165D01*
X108554674Y-106492165D02*
X108354674Y-106206451D01*
X108211817Y-106492165D02*
X108211817Y-105892165D01*
X108440388Y-105892165D01*
X108497531Y-105920737D01*
X108526103Y-105949308D01*
X108554674Y-106006451D01*
X108554674Y-106092165D01*
X108526103Y-106149308D01*
X108497531Y-106177879D01*
X108440388Y-106206451D01*
X108211817Y-106206451D01*
%TO.C,R12*%
D15*
X124907142Y-98427380D02*
X124573809Y-97951190D01*
X124335714Y-98427380D02*
X124335714Y-97427380D01*
X124716666Y-97427380D01*
X124811904Y-97475000D01*
X124859523Y-97522619D01*
X124907142Y-97617857D01*
X124907142Y-97760714D01*
X124859523Y-97855952D01*
X124811904Y-97903571D01*
X124716666Y-97951190D01*
X124335714Y-97951190D01*
X125859523Y-98427380D02*
X125288095Y-98427380D01*
X125573809Y-98427380D02*
X125573809Y-97427380D01*
X125478571Y-97570238D01*
X125383333Y-97665476D01*
X125288095Y-97713095D01*
X126240476Y-97522619D02*
X126288095Y-97475000D01*
X126383333Y-97427380D01*
X126621428Y-97427380D01*
X126716666Y-97475000D01*
X126764285Y-97522619D01*
X126811904Y-97617857D01*
X126811904Y-97713095D01*
X126764285Y-97855952D01*
X126192857Y-98427380D01*
X126811904Y-98427380D01*
%TO.C,F1*%
D11*
X130858333Y-124517857D02*
X130591666Y-124517857D01*
X130591666Y-124936904D02*
X130591666Y-124136904D01*
X130972619Y-124136904D01*
X131696428Y-124936904D02*
X131239285Y-124936904D01*
X131467857Y-124936904D02*
X131467857Y-124136904D01*
X131391666Y-124251190D01*
X131315476Y-124327380D01*
X131239285Y-124365476D01*
%TO.C,R15*%
D15*
X131782142Y-106877380D02*
X131448809Y-106401190D01*
X131210714Y-106877380D02*
X131210714Y-105877380D01*
X131591666Y-105877380D01*
X131686904Y-105925000D01*
X131734523Y-105972619D01*
X131782142Y-106067857D01*
X131782142Y-106210714D01*
X131734523Y-106305952D01*
X131686904Y-106353571D01*
X131591666Y-106401190D01*
X131210714Y-106401190D01*
X132734523Y-106877380D02*
X132163095Y-106877380D01*
X132448809Y-106877380D02*
X132448809Y-105877380D01*
X132353571Y-106020238D01*
X132258333Y-106115476D01*
X132163095Y-106163095D01*
X133639285Y-105877380D02*
X133163095Y-105877380D01*
X133115476Y-106353571D01*
X133163095Y-106305952D01*
X133258333Y-106258333D01*
X133496428Y-106258333D01*
X133591666Y-106305952D01*
X133639285Y-106353571D01*
X133686904Y-106448809D01*
X133686904Y-106686904D01*
X133639285Y-106782142D01*
X133591666Y-106829761D01*
X133496428Y-106877380D01*
X133258333Y-106877380D01*
X133163095Y-106829761D01*
X133115476Y-106782142D01*
%TO.C,R14*%
X122407142Y-103227380D02*
X122073809Y-102751190D01*
X121835714Y-103227380D02*
X121835714Y-102227380D01*
X122216666Y-102227380D01*
X122311904Y-102275000D01*
X122359523Y-102322619D01*
X122407142Y-102417857D01*
X122407142Y-102560714D01*
X122359523Y-102655952D01*
X122311904Y-102703571D01*
X122216666Y-102751190D01*
X121835714Y-102751190D01*
X123359523Y-103227380D02*
X122788095Y-103227380D01*
X123073809Y-103227380D02*
X123073809Y-102227380D01*
X122978571Y-102370238D01*
X122883333Y-102465476D01*
X122788095Y-102513095D01*
X124216666Y-102560714D02*
X124216666Y-103227380D01*
X123978571Y-102179761D02*
X123740476Y-102894047D01*
X124359523Y-102894047D01*
%TO.C,R10*%
X138307142Y-82702380D02*
X137973809Y-82226190D01*
X137735714Y-82702380D02*
X137735714Y-81702380D01*
X138116666Y-81702380D01*
X138211904Y-81750000D01*
X138259523Y-81797619D01*
X138307142Y-81892857D01*
X138307142Y-82035714D01*
X138259523Y-82130952D01*
X138211904Y-82178571D01*
X138116666Y-82226190D01*
X137735714Y-82226190D01*
X139259523Y-82702380D02*
X138688095Y-82702380D01*
X138973809Y-82702380D02*
X138973809Y-81702380D01*
X138878571Y-81845238D01*
X138783333Y-81940476D01*
X138688095Y-81988095D01*
X139878571Y-81702380D02*
X139973809Y-81702380D01*
X140069047Y-81750000D01*
X140116666Y-81797619D01*
X140164285Y-81892857D01*
X140211904Y-82083333D01*
X140211904Y-82321428D01*
X140164285Y-82511904D01*
X140116666Y-82607142D01*
X140069047Y-82654761D01*
X139973809Y-82702380D01*
X139878571Y-82702380D01*
X139783333Y-82654761D01*
X139735714Y-82607142D01*
X139688095Y-82511904D01*
X139640476Y-82321428D01*
X139640476Y-82083333D01*
X139688095Y-81892857D01*
X139735714Y-81797619D01*
X139783333Y-81750000D01*
X139878571Y-81702380D01*
%TO.C,R9*%
X106408333Y-81552380D02*
X106075000Y-81076190D01*
X105836904Y-81552380D02*
X105836904Y-80552380D01*
X106217857Y-80552380D01*
X106313095Y-80600000D01*
X106360714Y-80647619D01*
X106408333Y-80742857D01*
X106408333Y-80885714D01*
X106360714Y-80980952D01*
X106313095Y-81028571D01*
X106217857Y-81076190D01*
X105836904Y-81076190D01*
X106884523Y-81552380D02*
X107075000Y-81552380D01*
X107170238Y-81504761D01*
X107217857Y-81457142D01*
X107313095Y-81314285D01*
X107360714Y-81123809D01*
X107360714Y-80742857D01*
X107313095Y-80647619D01*
X107265476Y-80600000D01*
X107170238Y-80552380D01*
X106979761Y-80552380D01*
X106884523Y-80600000D01*
X106836904Y-80647619D01*
X106789285Y-80742857D01*
X106789285Y-80980952D01*
X106836904Y-81076190D01*
X106884523Y-81123809D01*
X106979761Y-81171428D01*
X107170238Y-81171428D01*
X107265476Y-81123809D01*
X107313095Y-81076190D01*
X107360714Y-80980952D01*
%TO.C,R8*%
X134558333Y-91227380D02*
X134225000Y-90751190D01*
X133986904Y-91227380D02*
X133986904Y-90227380D01*
X134367857Y-90227380D01*
X134463095Y-90275000D01*
X134510714Y-90322619D01*
X134558333Y-90417857D01*
X134558333Y-90560714D01*
X134510714Y-90655952D01*
X134463095Y-90703571D01*
X134367857Y-90751190D01*
X133986904Y-90751190D01*
X135129761Y-90655952D02*
X135034523Y-90608333D01*
X134986904Y-90560714D01*
X134939285Y-90465476D01*
X134939285Y-90417857D01*
X134986904Y-90322619D01*
X135034523Y-90275000D01*
X135129761Y-90227380D01*
X135320238Y-90227380D01*
X135415476Y-90275000D01*
X135463095Y-90322619D01*
X135510714Y-90417857D01*
X135510714Y-90465476D01*
X135463095Y-90560714D01*
X135415476Y-90608333D01*
X135320238Y-90655952D01*
X135129761Y-90655952D01*
X135034523Y-90703571D01*
X134986904Y-90751190D01*
X134939285Y-90846428D01*
X134939285Y-91036904D01*
X134986904Y-91132142D01*
X135034523Y-91179761D01*
X135129761Y-91227380D01*
X135320238Y-91227380D01*
X135415476Y-91179761D01*
X135463095Y-91132142D01*
X135510714Y-91036904D01*
X135510714Y-90846428D01*
X135463095Y-90751190D01*
X135415476Y-90703571D01*
X135320238Y-90655952D01*
%TO.C,R7*%
X141383333Y-98902380D02*
X141050000Y-98426190D01*
X140811904Y-98902380D02*
X140811904Y-97902380D01*
X141192857Y-97902380D01*
X141288095Y-97950000D01*
X141335714Y-97997619D01*
X141383333Y-98092857D01*
X141383333Y-98235714D01*
X141335714Y-98330952D01*
X141288095Y-98378571D01*
X141192857Y-98426190D01*
X140811904Y-98426190D01*
X141716666Y-97902380D02*
X142383333Y-97902380D01*
X141954761Y-98902380D01*
%TO.C,R6*%
X141258333Y-101127380D02*
X140925000Y-100651190D01*
X140686904Y-101127380D02*
X140686904Y-100127380D01*
X141067857Y-100127380D01*
X141163095Y-100175000D01*
X141210714Y-100222619D01*
X141258333Y-100317857D01*
X141258333Y-100460714D01*
X141210714Y-100555952D01*
X141163095Y-100603571D01*
X141067857Y-100651190D01*
X140686904Y-100651190D01*
X142115476Y-100127380D02*
X141925000Y-100127380D01*
X141829761Y-100175000D01*
X141782142Y-100222619D01*
X141686904Y-100365476D01*
X141639285Y-100555952D01*
X141639285Y-100936904D01*
X141686904Y-101032142D01*
X141734523Y-101079761D01*
X141829761Y-101127380D01*
X142020238Y-101127380D01*
X142115476Y-101079761D01*
X142163095Y-101032142D01*
X142210714Y-100936904D01*
X142210714Y-100698809D01*
X142163095Y-100603571D01*
X142115476Y-100555952D01*
X142020238Y-100508333D01*
X141829761Y-100508333D01*
X141734523Y-100555952D01*
X141686904Y-100603571D01*
X141639285Y-100698809D01*
%TO.C,FB3*%
D11*
X141433333Y-92642857D02*
X141166666Y-92642857D01*
X141166666Y-93061904D02*
X141166666Y-92261904D01*
X141547619Y-92261904D01*
X142119047Y-92642857D02*
X142233333Y-92680952D01*
X142271428Y-92719047D01*
X142309523Y-92795238D01*
X142309523Y-92909523D01*
X142271428Y-92985714D01*
X142233333Y-93023809D01*
X142157142Y-93061904D01*
X141852380Y-93061904D01*
X141852380Y-92261904D01*
X142119047Y-92261904D01*
X142195238Y-92300000D01*
X142233333Y-92338095D01*
X142271428Y-92414285D01*
X142271428Y-92490476D01*
X142233333Y-92566666D01*
X142195238Y-92604761D01*
X142119047Y-92642857D01*
X141852380Y-92642857D01*
X142576190Y-92261904D02*
X143071428Y-92261904D01*
X142804761Y-92566666D01*
X142919047Y-92566666D01*
X142995238Y-92604761D01*
X143033333Y-92642857D01*
X143071428Y-92719047D01*
X143071428Y-92909523D01*
X143033333Y-92985714D01*
X142995238Y-93023809D01*
X142919047Y-93061904D01*
X142690476Y-93061904D01*
X142614285Y-93023809D01*
X142576190Y-92985714D01*
%TO.C,FB2*%
X137845333Y-84242857D02*
X137578666Y-84242857D01*
X137578666Y-84661904D02*
X137578666Y-83861904D01*
X137959619Y-83861904D01*
X138531047Y-84242857D02*
X138645333Y-84280952D01*
X138683428Y-84319047D01*
X138721523Y-84395238D01*
X138721523Y-84509523D01*
X138683428Y-84585714D01*
X138645333Y-84623809D01*
X138569142Y-84661904D01*
X138264380Y-84661904D01*
X138264380Y-83861904D01*
X138531047Y-83861904D01*
X138607238Y-83900000D01*
X138645333Y-83938095D01*
X138683428Y-84014285D01*
X138683428Y-84090476D01*
X138645333Y-84166666D01*
X138607238Y-84204761D01*
X138531047Y-84242857D01*
X138264380Y-84242857D01*
X139026285Y-83938095D02*
X139064380Y-83900000D01*
X139140571Y-83861904D01*
X139331047Y-83861904D01*
X139407238Y-83900000D01*
X139445333Y-83938095D01*
X139483428Y-84014285D01*
X139483428Y-84090476D01*
X139445333Y-84204761D01*
X138988190Y-84661904D01*
X139483428Y-84661904D01*
%TO.C,FB1*%
X151158333Y-87542857D02*
X150891666Y-87542857D01*
X150891666Y-87961904D02*
X150891666Y-87161904D01*
X151272619Y-87161904D01*
X151844047Y-87542857D02*
X151958333Y-87580952D01*
X151996428Y-87619047D01*
X152034523Y-87695238D01*
X152034523Y-87809523D01*
X151996428Y-87885714D01*
X151958333Y-87923809D01*
X151882142Y-87961904D01*
X151577380Y-87961904D01*
X151577380Y-87161904D01*
X151844047Y-87161904D01*
X151920238Y-87200000D01*
X151958333Y-87238095D01*
X151996428Y-87314285D01*
X151996428Y-87390476D01*
X151958333Y-87466666D01*
X151920238Y-87504761D01*
X151844047Y-87542857D01*
X151577380Y-87542857D01*
X152796428Y-87961904D02*
X152339285Y-87961904D01*
X152567857Y-87961904D02*
X152567857Y-87161904D01*
X152491666Y-87276190D01*
X152415476Y-87352380D01*
X152339285Y-87390476D01*
%TO.C,C34*%
D15*
X140507142Y-87957142D02*
X140459523Y-88004761D01*
X140316666Y-88052380D01*
X140221428Y-88052380D01*
X140078571Y-88004761D01*
X139983333Y-87909523D01*
X139935714Y-87814285D01*
X139888095Y-87623809D01*
X139888095Y-87480952D01*
X139935714Y-87290476D01*
X139983333Y-87195238D01*
X140078571Y-87100000D01*
X140221428Y-87052380D01*
X140316666Y-87052380D01*
X140459523Y-87100000D01*
X140507142Y-87147619D01*
X140840476Y-87052380D02*
X141459523Y-87052380D01*
X141126190Y-87433333D01*
X141269047Y-87433333D01*
X141364285Y-87480952D01*
X141411904Y-87528571D01*
X141459523Y-87623809D01*
X141459523Y-87861904D01*
X141411904Y-87957142D01*
X141364285Y-88004761D01*
X141269047Y-88052380D01*
X140983333Y-88052380D01*
X140888095Y-88004761D01*
X140840476Y-87957142D01*
X142316666Y-87385714D02*
X142316666Y-88052380D01*
X142078571Y-87004761D02*
X141840476Y-87719047D01*
X142459523Y-87719047D01*
%TO.C,C32*%
X144282142Y-89482142D02*
X144234523Y-89529761D01*
X144091666Y-89577380D01*
X143996428Y-89577380D01*
X143853571Y-89529761D01*
X143758333Y-89434523D01*
X143710714Y-89339285D01*
X143663095Y-89148809D01*
X143663095Y-89005952D01*
X143710714Y-88815476D01*
X143758333Y-88720238D01*
X143853571Y-88625000D01*
X143996428Y-88577380D01*
X144091666Y-88577380D01*
X144234523Y-88625000D01*
X144282142Y-88672619D01*
X144615476Y-88577380D02*
X145234523Y-88577380D01*
X144901190Y-88958333D01*
X145044047Y-88958333D01*
X145139285Y-89005952D01*
X145186904Y-89053571D01*
X145234523Y-89148809D01*
X145234523Y-89386904D01*
X145186904Y-89482142D01*
X145139285Y-89529761D01*
X145044047Y-89577380D01*
X144758333Y-89577380D01*
X144663095Y-89529761D01*
X144615476Y-89482142D01*
X145615476Y-88672619D02*
X145663095Y-88625000D01*
X145758333Y-88577380D01*
X145996428Y-88577380D01*
X146091666Y-88625000D01*
X146139285Y-88672619D01*
X146186904Y-88767857D01*
X146186904Y-88863095D01*
X146139285Y-89005952D01*
X145567857Y-89577380D01*
X146186904Y-89577380D01*
%TO.C,C30*%
X148207142Y-87982142D02*
X148159523Y-88029761D01*
X148016666Y-88077380D01*
X147921428Y-88077380D01*
X147778571Y-88029761D01*
X147683333Y-87934523D01*
X147635714Y-87839285D01*
X147588095Y-87648809D01*
X147588095Y-87505952D01*
X147635714Y-87315476D01*
X147683333Y-87220238D01*
X147778571Y-87125000D01*
X147921428Y-87077380D01*
X148016666Y-87077380D01*
X148159523Y-87125000D01*
X148207142Y-87172619D01*
X148540476Y-87077380D02*
X149159523Y-87077380D01*
X148826190Y-87458333D01*
X148969047Y-87458333D01*
X149064285Y-87505952D01*
X149111904Y-87553571D01*
X149159523Y-87648809D01*
X149159523Y-87886904D01*
X149111904Y-87982142D01*
X149064285Y-88029761D01*
X148969047Y-88077380D01*
X148683333Y-88077380D01*
X148588095Y-88029761D01*
X148540476Y-87982142D01*
X149778571Y-87077380D02*
X149873809Y-87077380D01*
X149969047Y-87125000D01*
X150016666Y-87172619D01*
X150064285Y-87267857D01*
X150111904Y-87458333D01*
X150111904Y-87696428D01*
X150064285Y-87886904D01*
X150016666Y-87982142D01*
X149969047Y-88029761D01*
X149873809Y-88077380D01*
X149778571Y-88077380D01*
X149683333Y-88029761D01*
X149635714Y-87982142D01*
X149588095Y-87886904D01*
X149540476Y-87696428D01*
X149540476Y-87458333D01*
X149588095Y-87267857D01*
X149635714Y-87172619D01*
X149683333Y-87125000D01*
X149778571Y-87077380D01*
%TO.C,C28*%
X143282142Y-79232142D02*
X143234523Y-79279761D01*
X143091666Y-79327380D01*
X142996428Y-79327380D01*
X142853571Y-79279761D01*
X142758333Y-79184523D01*
X142710714Y-79089285D01*
X142663095Y-78898809D01*
X142663095Y-78755952D01*
X142710714Y-78565476D01*
X142758333Y-78470238D01*
X142853571Y-78375000D01*
X142996428Y-78327380D01*
X143091666Y-78327380D01*
X143234523Y-78375000D01*
X143282142Y-78422619D01*
X143663095Y-78422619D02*
X143710714Y-78375000D01*
X143805952Y-78327380D01*
X144044047Y-78327380D01*
X144139285Y-78375000D01*
X144186904Y-78422619D01*
X144234523Y-78517857D01*
X144234523Y-78613095D01*
X144186904Y-78755952D01*
X143615476Y-79327380D01*
X144234523Y-79327380D01*
X144805952Y-78755952D02*
X144710714Y-78708333D01*
X144663095Y-78660714D01*
X144615476Y-78565476D01*
X144615476Y-78517857D01*
X144663095Y-78422619D01*
X144710714Y-78375000D01*
X144805952Y-78327380D01*
X144996428Y-78327380D01*
X145091666Y-78375000D01*
X145139285Y-78422619D01*
X145186904Y-78517857D01*
X145186904Y-78565476D01*
X145139285Y-78660714D01*
X145091666Y-78708333D01*
X144996428Y-78755952D01*
X144805952Y-78755952D01*
X144710714Y-78803571D01*
X144663095Y-78851190D01*
X144615476Y-78946428D01*
X144615476Y-79136904D01*
X144663095Y-79232142D01*
X144710714Y-79279761D01*
X144805952Y-79327380D01*
X144996428Y-79327380D01*
X145091666Y-79279761D01*
X145139285Y-79232142D01*
X145186904Y-79136904D01*
X145186904Y-78946428D01*
X145139285Y-78851190D01*
X145091666Y-78803571D01*
X144996428Y-78755952D01*
%TO.C,C26*%
X112257142Y-88607142D02*
X112209523Y-88654761D01*
X112066666Y-88702380D01*
X111971428Y-88702380D01*
X111828571Y-88654761D01*
X111733333Y-88559523D01*
X111685714Y-88464285D01*
X111638095Y-88273809D01*
X111638095Y-88130952D01*
X111685714Y-87940476D01*
X111733333Y-87845238D01*
X111828571Y-87750000D01*
X111971428Y-87702380D01*
X112066666Y-87702380D01*
X112209523Y-87750000D01*
X112257142Y-87797619D01*
X112638095Y-87797619D02*
X112685714Y-87750000D01*
X112780952Y-87702380D01*
X113019047Y-87702380D01*
X113114285Y-87750000D01*
X113161904Y-87797619D01*
X113209523Y-87892857D01*
X113209523Y-87988095D01*
X113161904Y-88130952D01*
X112590476Y-88702380D01*
X113209523Y-88702380D01*
X114066666Y-87702380D02*
X113876190Y-87702380D01*
X113780952Y-87750000D01*
X113733333Y-87797619D01*
X113638095Y-87940476D01*
X113590476Y-88130952D01*
X113590476Y-88511904D01*
X113638095Y-88607142D01*
X113685714Y-88654761D01*
X113780952Y-88702380D01*
X113971428Y-88702380D01*
X114066666Y-88654761D01*
X114114285Y-88607142D01*
X114161904Y-88511904D01*
X114161904Y-88273809D01*
X114114285Y-88178571D01*
X114066666Y-88130952D01*
X113971428Y-88083333D01*
X113780952Y-88083333D01*
X113685714Y-88130952D01*
X113638095Y-88178571D01*
X113590476Y-88273809D01*
%TO.C,C24*%
X133682142Y-86132142D02*
X133634523Y-86179761D01*
X133491666Y-86227380D01*
X133396428Y-86227380D01*
X133253571Y-86179761D01*
X133158333Y-86084523D01*
X133110714Y-85989285D01*
X133063095Y-85798809D01*
X133063095Y-85655952D01*
X133110714Y-85465476D01*
X133158333Y-85370238D01*
X133253571Y-85275000D01*
X133396428Y-85227380D01*
X133491666Y-85227380D01*
X133634523Y-85275000D01*
X133682142Y-85322619D01*
X134063095Y-85322619D02*
X134110714Y-85275000D01*
X134205952Y-85227380D01*
X134444047Y-85227380D01*
X134539285Y-85275000D01*
X134586904Y-85322619D01*
X134634523Y-85417857D01*
X134634523Y-85513095D01*
X134586904Y-85655952D01*
X134015476Y-86227380D01*
X134634523Y-86227380D01*
X135491666Y-85560714D02*
X135491666Y-86227380D01*
X135253571Y-85179761D02*
X135015476Y-85894047D01*
X135634523Y-85894047D01*
%TO.C,C23*%
X120557142Y-98657142D02*
X120509523Y-98704761D01*
X120366666Y-98752380D01*
X120271428Y-98752380D01*
X120128571Y-98704761D01*
X120033333Y-98609523D01*
X119985714Y-98514285D01*
X119938095Y-98323809D01*
X119938095Y-98180952D01*
X119985714Y-97990476D01*
X120033333Y-97895238D01*
X120128571Y-97800000D01*
X120271428Y-97752380D01*
X120366666Y-97752380D01*
X120509523Y-97800000D01*
X120557142Y-97847619D01*
X120938095Y-97847619D02*
X120985714Y-97800000D01*
X121080952Y-97752380D01*
X121319047Y-97752380D01*
X121414285Y-97800000D01*
X121461904Y-97847619D01*
X121509523Y-97942857D01*
X121509523Y-98038095D01*
X121461904Y-98180952D01*
X120890476Y-98752380D01*
X121509523Y-98752380D01*
X121842857Y-97752380D02*
X122461904Y-97752380D01*
X122128571Y-98133333D01*
X122271428Y-98133333D01*
X122366666Y-98180952D01*
X122414285Y-98228571D01*
X122461904Y-98323809D01*
X122461904Y-98561904D01*
X122414285Y-98657142D01*
X122366666Y-98704761D01*
X122271428Y-98752380D01*
X121985714Y-98752380D01*
X121890476Y-98704761D01*
X121842857Y-98657142D01*
%TO.C,C17*%
X145207142Y-90832142D02*
X145159523Y-90879761D01*
X145016666Y-90927380D01*
X144921428Y-90927380D01*
X144778571Y-90879761D01*
X144683333Y-90784523D01*
X144635714Y-90689285D01*
X144588095Y-90498809D01*
X144588095Y-90355952D01*
X144635714Y-90165476D01*
X144683333Y-90070238D01*
X144778571Y-89975000D01*
X144921428Y-89927380D01*
X145016666Y-89927380D01*
X145159523Y-89975000D01*
X145207142Y-90022619D01*
X146159523Y-90927380D02*
X145588095Y-90927380D01*
X145873809Y-90927380D02*
X145873809Y-89927380D01*
X145778571Y-90070238D01*
X145683333Y-90165476D01*
X145588095Y-90213095D01*
X146492857Y-89927380D02*
X147159523Y-89927380D01*
X146730952Y-90927380D01*
%TO.C,C13*%
X111582142Y-103017857D02*
X111629761Y-103065476D01*
X111677380Y-103208333D01*
X111677380Y-103303571D01*
X111629761Y-103446428D01*
X111534523Y-103541666D01*
X111439285Y-103589285D01*
X111248809Y-103636904D01*
X111105952Y-103636904D01*
X110915476Y-103589285D01*
X110820238Y-103541666D01*
X110725000Y-103446428D01*
X110677380Y-103303571D01*
X110677380Y-103208333D01*
X110725000Y-103065476D01*
X110772619Y-103017857D01*
X111677380Y-102065476D02*
X111677380Y-102636904D01*
X111677380Y-102351190D02*
X110677380Y-102351190D01*
X110820238Y-102446428D01*
X110915476Y-102541666D01*
X110963095Y-102636904D01*
X110677380Y-101732142D02*
X110677380Y-101113095D01*
X111058333Y-101446428D01*
X111058333Y-101303571D01*
X111105952Y-101208333D01*
X111153571Y-101160714D01*
X111248809Y-101113095D01*
X111486904Y-101113095D01*
X111582142Y-101160714D01*
X111629761Y-101208333D01*
X111677380Y-101303571D01*
X111677380Y-101589285D01*
X111629761Y-101684523D01*
X111582142Y-101732142D01*
%TO.C,R1*%
X121358333Y-104602380D02*
X121025000Y-104126190D01*
X120786904Y-104602380D02*
X120786904Y-103602380D01*
X121167857Y-103602380D01*
X121263095Y-103650000D01*
X121310714Y-103697619D01*
X121358333Y-103792857D01*
X121358333Y-103935714D01*
X121310714Y-104030952D01*
X121263095Y-104078571D01*
X121167857Y-104126190D01*
X120786904Y-104126190D01*
X122310714Y-104602380D02*
X121739285Y-104602380D01*
X122025000Y-104602380D02*
X122025000Y-103602380D01*
X121929761Y-103745238D01*
X121834523Y-103840476D01*
X121739285Y-103888095D01*
%TO.C,R2*%
X123658333Y-106452380D02*
X123325000Y-105976190D01*
X123086904Y-106452380D02*
X123086904Y-105452380D01*
X123467857Y-105452380D01*
X123563095Y-105500000D01*
X123610714Y-105547619D01*
X123658333Y-105642857D01*
X123658333Y-105785714D01*
X123610714Y-105880952D01*
X123563095Y-105928571D01*
X123467857Y-105976190D01*
X123086904Y-105976190D01*
X124039285Y-105547619D02*
X124086904Y-105500000D01*
X124182142Y-105452380D01*
X124420238Y-105452380D01*
X124515476Y-105500000D01*
X124563095Y-105547619D01*
X124610714Y-105642857D01*
X124610714Y-105738095D01*
X124563095Y-105880952D01*
X123991666Y-106452380D01*
X124610714Y-106452380D01*
%TO.C,R16*%
X101457142Y-116002380D02*
X101123809Y-115526190D01*
X100885714Y-116002380D02*
X100885714Y-115002380D01*
X101266666Y-115002380D01*
X101361904Y-115050000D01*
X101409523Y-115097619D01*
X101457142Y-115192857D01*
X101457142Y-115335714D01*
X101409523Y-115430952D01*
X101361904Y-115478571D01*
X101266666Y-115526190D01*
X100885714Y-115526190D01*
X102409523Y-116002380D02*
X101838095Y-116002380D01*
X102123809Y-116002380D02*
X102123809Y-115002380D01*
X102028571Y-115145238D01*
X101933333Y-115240476D01*
X101838095Y-115288095D01*
X103266666Y-115002380D02*
X103076190Y-115002380D01*
X102980952Y-115050000D01*
X102933333Y-115097619D01*
X102838095Y-115240476D01*
X102790476Y-115430952D01*
X102790476Y-115811904D01*
X102838095Y-115907142D01*
X102885714Y-115954761D01*
X102980952Y-116002380D01*
X103171428Y-116002380D01*
X103266666Y-115954761D01*
X103314285Y-115907142D01*
X103361904Y-115811904D01*
X103361904Y-115573809D01*
X103314285Y-115478571D01*
X103266666Y-115430952D01*
X103171428Y-115383333D01*
X102980952Y-115383333D01*
X102885714Y-115430952D01*
X102838095Y-115478571D01*
X102790476Y-115573809D01*
%TO.C,R17*%
X113807142Y-119602380D02*
X113473809Y-119126190D01*
X113235714Y-119602380D02*
X113235714Y-118602380D01*
X113616666Y-118602380D01*
X113711904Y-118650000D01*
X113759523Y-118697619D01*
X113807142Y-118792857D01*
X113807142Y-118935714D01*
X113759523Y-119030952D01*
X113711904Y-119078571D01*
X113616666Y-119126190D01*
X113235714Y-119126190D01*
X114759523Y-119602380D02*
X114188095Y-119602380D01*
X114473809Y-119602380D02*
X114473809Y-118602380D01*
X114378571Y-118745238D01*
X114283333Y-118840476D01*
X114188095Y-118888095D01*
X115092857Y-118602380D02*
X115759523Y-118602380D01*
X115330952Y-119602380D01*
%TO.C,R18*%
X108707142Y-120902380D02*
X108373809Y-120426190D01*
X108135714Y-120902380D02*
X108135714Y-119902380D01*
X108516666Y-119902380D01*
X108611904Y-119950000D01*
X108659523Y-119997619D01*
X108707142Y-120092857D01*
X108707142Y-120235714D01*
X108659523Y-120330952D01*
X108611904Y-120378571D01*
X108516666Y-120426190D01*
X108135714Y-120426190D01*
X109659523Y-120902380D02*
X109088095Y-120902380D01*
X109373809Y-120902380D02*
X109373809Y-119902380D01*
X109278571Y-120045238D01*
X109183333Y-120140476D01*
X109088095Y-120188095D01*
X110230952Y-120330952D02*
X110135714Y-120283333D01*
X110088095Y-120235714D01*
X110040476Y-120140476D01*
X110040476Y-120092857D01*
X110088095Y-119997619D01*
X110135714Y-119950000D01*
X110230952Y-119902380D01*
X110421428Y-119902380D01*
X110516666Y-119950000D01*
X110564285Y-119997619D01*
X110611904Y-120092857D01*
X110611904Y-120140476D01*
X110564285Y-120235714D01*
X110516666Y-120283333D01*
X110421428Y-120330952D01*
X110230952Y-120330952D01*
X110135714Y-120378571D01*
X110088095Y-120426190D01*
X110040476Y-120521428D01*
X110040476Y-120711904D01*
X110088095Y-120807142D01*
X110135714Y-120854761D01*
X110230952Y-120902380D01*
X110421428Y-120902380D01*
X110516666Y-120854761D01*
X110564285Y-120807142D01*
X110611904Y-120711904D01*
X110611904Y-120521428D01*
X110564285Y-120426190D01*
X110516666Y-120378571D01*
X110421428Y-120330952D01*
%TO.C,R19*%
X105457142Y-115852380D02*
X105123809Y-115376190D01*
X104885714Y-115852380D02*
X104885714Y-114852380D01*
X105266666Y-114852380D01*
X105361904Y-114900000D01*
X105409523Y-114947619D01*
X105457142Y-115042857D01*
X105457142Y-115185714D01*
X105409523Y-115280952D01*
X105361904Y-115328571D01*
X105266666Y-115376190D01*
X104885714Y-115376190D01*
X106409523Y-115852380D02*
X105838095Y-115852380D01*
X106123809Y-115852380D02*
X106123809Y-114852380D01*
X106028571Y-114995238D01*
X105933333Y-115090476D01*
X105838095Y-115138095D01*
X106885714Y-115852380D02*
X107076190Y-115852380D01*
X107171428Y-115804761D01*
X107219047Y-115757142D01*
X107314285Y-115614285D01*
X107361904Y-115423809D01*
X107361904Y-115042857D01*
X107314285Y-114947619D01*
X107266666Y-114900000D01*
X107171428Y-114852380D01*
X106980952Y-114852380D01*
X106885714Y-114900000D01*
X106838095Y-114947619D01*
X106790476Y-115042857D01*
X106790476Y-115280952D01*
X106838095Y-115376190D01*
X106885714Y-115423809D01*
X106980952Y-115471428D01*
X107171428Y-115471428D01*
X107266666Y-115423809D01*
X107314285Y-115376190D01*
X107361904Y-115280952D01*
%TO.C,C36*%
X93482142Y-79332142D02*
X93434523Y-79379761D01*
X93291666Y-79427380D01*
X93196428Y-79427380D01*
X93053571Y-79379761D01*
X92958333Y-79284523D01*
X92910714Y-79189285D01*
X92863095Y-78998809D01*
X92863095Y-78855952D01*
X92910714Y-78665476D01*
X92958333Y-78570238D01*
X93053571Y-78475000D01*
X93196428Y-78427380D01*
X93291666Y-78427380D01*
X93434523Y-78475000D01*
X93482142Y-78522619D01*
X93815476Y-78427380D02*
X94434523Y-78427380D01*
X94101190Y-78808333D01*
X94244047Y-78808333D01*
X94339285Y-78855952D01*
X94386904Y-78903571D01*
X94434523Y-78998809D01*
X94434523Y-79236904D01*
X94386904Y-79332142D01*
X94339285Y-79379761D01*
X94244047Y-79427380D01*
X93958333Y-79427380D01*
X93863095Y-79379761D01*
X93815476Y-79332142D01*
X95291666Y-78427380D02*
X95101190Y-78427380D01*
X95005952Y-78475000D01*
X94958333Y-78522619D01*
X94863095Y-78665476D01*
X94815476Y-78855952D01*
X94815476Y-79236904D01*
X94863095Y-79332142D01*
X94910714Y-79379761D01*
X95005952Y-79427380D01*
X95196428Y-79427380D01*
X95291666Y-79379761D01*
X95339285Y-79332142D01*
X95386904Y-79236904D01*
X95386904Y-78998809D01*
X95339285Y-78903571D01*
X95291666Y-78855952D01*
X95196428Y-78808333D01*
X95005952Y-78808333D01*
X94910714Y-78855952D01*
X94863095Y-78903571D01*
X94815476Y-78998809D01*
%TO.C,J1*%
D11*
X125542857Y-124911904D02*
X125695238Y-124911904D01*
X125771428Y-124950000D01*
X125847619Y-125026190D01*
X125885714Y-125178571D01*
X125885714Y-125445238D01*
X125847619Y-125597619D01*
X125771428Y-125673809D01*
X125695238Y-125711904D01*
X125542857Y-125711904D01*
X125466666Y-125673809D01*
X125390476Y-125597619D01*
X125352380Y-125445238D01*
X125352380Y-125178571D01*
X125390476Y-125026190D01*
X125466666Y-124950000D01*
X125542857Y-124911904D01*
X126228571Y-125711904D02*
X126228571Y-124911904D01*
X126533333Y-124911904D01*
X126609523Y-124950000D01*
X126647619Y-124988095D01*
X126685714Y-125064285D01*
X126685714Y-125178571D01*
X126647619Y-125254761D01*
X126609523Y-125292857D01*
X126533333Y-125330952D01*
X126228571Y-125330952D01*
X127028571Y-125292857D02*
X127295238Y-125292857D01*
X127409523Y-125711904D02*
X127028571Y-125711904D01*
X127028571Y-124911904D01*
X127409523Y-124911904D01*
X127752380Y-125711904D02*
X127752380Y-124911904D01*
X128209523Y-125711904D01*
X128209523Y-124911904D01*
%TO.C,R21*%
D15*
X119507142Y-102052380D02*
X119173809Y-101576190D01*
X118935714Y-102052380D02*
X118935714Y-101052380D01*
X119316666Y-101052380D01*
X119411904Y-101100000D01*
X119459523Y-101147619D01*
X119507142Y-101242857D01*
X119507142Y-101385714D01*
X119459523Y-101480952D01*
X119411904Y-101528571D01*
X119316666Y-101576190D01*
X118935714Y-101576190D01*
X119888095Y-101147619D02*
X119935714Y-101100000D01*
X120030952Y-101052380D01*
X120269047Y-101052380D01*
X120364285Y-101100000D01*
X120411904Y-101147619D01*
X120459523Y-101242857D01*
X120459523Y-101338095D01*
X120411904Y-101480952D01*
X119840476Y-102052380D01*
X120459523Y-102052380D01*
X121411904Y-102052380D02*
X120840476Y-102052380D01*
X121126190Y-102052380D02*
X121126190Y-101052380D01*
X121030952Y-101195238D01*
X120935714Y-101290476D01*
X120840476Y-101338095D01*
%TO.C,C2*%
X115583333Y-115257142D02*
X115535714Y-115304761D01*
X115392857Y-115352380D01*
X115297619Y-115352380D01*
X115154761Y-115304761D01*
X115059523Y-115209523D01*
X115011904Y-115114285D01*
X114964285Y-114923809D01*
X114964285Y-114780952D01*
X115011904Y-114590476D01*
X115059523Y-114495238D01*
X115154761Y-114400000D01*
X115297619Y-114352380D01*
X115392857Y-114352380D01*
X115535714Y-114400000D01*
X115583333Y-114447619D01*
X115964285Y-114447619D02*
X116011904Y-114400000D01*
X116107142Y-114352380D01*
X116345238Y-114352380D01*
X116440476Y-114400000D01*
X116488095Y-114447619D01*
X116535714Y-114542857D01*
X116535714Y-114638095D01*
X116488095Y-114780952D01*
X115916666Y-115352380D01*
X116535714Y-115352380D01*
%TO.C,C3*%
X113333333Y-115307142D02*
X113285714Y-115354761D01*
X113142857Y-115402380D01*
X113047619Y-115402380D01*
X112904761Y-115354761D01*
X112809523Y-115259523D01*
X112761904Y-115164285D01*
X112714285Y-114973809D01*
X112714285Y-114830952D01*
X112761904Y-114640476D01*
X112809523Y-114545238D01*
X112904761Y-114450000D01*
X113047619Y-114402380D01*
X113142857Y-114402380D01*
X113285714Y-114450000D01*
X113333333Y-114497619D01*
X113666666Y-114402380D02*
X114285714Y-114402380D01*
X113952380Y-114783333D01*
X114095238Y-114783333D01*
X114190476Y-114830952D01*
X114238095Y-114878571D01*
X114285714Y-114973809D01*
X114285714Y-115211904D01*
X114238095Y-115307142D01*
X114190476Y-115354761D01*
X114095238Y-115402380D01*
X113809523Y-115402380D01*
X113714285Y-115354761D01*
X113666666Y-115307142D01*
%TO.C,C4*%
X110983333Y-115307142D02*
X110935714Y-115354761D01*
X110792857Y-115402380D01*
X110697619Y-115402380D01*
X110554761Y-115354761D01*
X110459523Y-115259523D01*
X110411904Y-115164285D01*
X110364285Y-114973809D01*
X110364285Y-114830952D01*
X110411904Y-114640476D01*
X110459523Y-114545238D01*
X110554761Y-114450000D01*
X110697619Y-114402380D01*
X110792857Y-114402380D01*
X110935714Y-114450000D01*
X110983333Y-114497619D01*
X111840476Y-114735714D02*
X111840476Y-115402380D01*
X111602380Y-114354761D02*
X111364285Y-115069047D01*
X111983333Y-115069047D01*
%TO.C,C5*%
X115733333Y-109757142D02*
X115685714Y-109804761D01*
X115542857Y-109852380D01*
X115447619Y-109852380D01*
X115304761Y-109804761D01*
X115209523Y-109709523D01*
X115161904Y-109614285D01*
X115114285Y-109423809D01*
X115114285Y-109280952D01*
X115161904Y-109090476D01*
X115209523Y-108995238D01*
X115304761Y-108900000D01*
X115447619Y-108852380D01*
X115542857Y-108852380D01*
X115685714Y-108900000D01*
X115733333Y-108947619D01*
X116638095Y-108852380D02*
X116161904Y-108852380D01*
X116114285Y-109328571D01*
X116161904Y-109280952D01*
X116257142Y-109233333D01*
X116495238Y-109233333D01*
X116590476Y-109280952D01*
X116638095Y-109328571D01*
X116685714Y-109423809D01*
X116685714Y-109661904D01*
X116638095Y-109757142D01*
X116590476Y-109804761D01*
X116495238Y-109852380D01*
X116257142Y-109852380D01*
X116161904Y-109804761D01*
X116114285Y-109757142D01*
%TO.C,C7*%
X108633333Y-115307142D02*
X108585714Y-115354761D01*
X108442857Y-115402380D01*
X108347619Y-115402380D01*
X108204761Y-115354761D01*
X108109523Y-115259523D01*
X108061904Y-115164285D01*
X108014285Y-114973809D01*
X108014285Y-114830952D01*
X108061904Y-114640476D01*
X108109523Y-114545238D01*
X108204761Y-114450000D01*
X108347619Y-114402380D01*
X108442857Y-114402380D01*
X108585714Y-114450000D01*
X108633333Y-114497619D01*
X108966666Y-114402380D02*
X109633333Y-114402380D01*
X109204761Y-115402380D01*
%TO.C,R22*%
X115382142Y-101977380D02*
X115048809Y-101501190D01*
X114810714Y-101977380D02*
X114810714Y-100977380D01*
X115191666Y-100977380D01*
X115286904Y-101025000D01*
X115334523Y-101072619D01*
X115382142Y-101167857D01*
X115382142Y-101310714D01*
X115334523Y-101405952D01*
X115286904Y-101453571D01*
X115191666Y-101501190D01*
X114810714Y-101501190D01*
X115763095Y-101072619D02*
X115810714Y-101025000D01*
X115905952Y-100977380D01*
X116144047Y-100977380D01*
X116239285Y-101025000D01*
X116286904Y-101072619D01*
X116334523Y-101167857D01*
X116334523Y-101263095D01*
X116286904Y-101405952D01*
X115715476Y-101977380D01*
X116334523Y-101977380D01*
X116715476Y-101072619D02*
X116763095Y-101025000D01*
X116858333Y-100977380D01*
X117096428Y-100977380D01*
X117191666Y-101025000D01*
X117239285Y-101072619D01*
X117286904Y-101167857D01*
X117286904Y-101263095D01*
X117239285Y-101405952D01*
X116667857Y-101977380D01*
X117286904Y-101977380D01*
%TO.C,C1*%
X141807142Y-123916666D02*
X141854761Y-123964285D01*
X141902380Y-124107142D01*
X141902380Y-124202380D01*
X141854761Y-124345238D01*
X141759523Y-124440476D01*
X141664285Y-124488095D01*
X141473809Y-124535714D01*
X141330952Y-124535714D01*
X141140476Y-124488095D01*
X141045238Y-124440476D01*
X140950000Y-124345238D01*
X140902380Y-124202380D01*
X140902380Y-124107142D01*
X140950000Y-123964285D01*
X140997619Y-123916666D01*
X141902380Y-122964285D02*
X141902380Y-123535714D01*
X141902380Y-123250000D02*
X140902380Y-123250000D01*
X141045238Y-123345238D01*
X141140476Y-123440476D01*
X141188095Y-123535714D01*
%TD*%
M02*
