G04 #@! TF.FileFunction,Copper,L4,Bot,Signal*
%FSLAX46Y46*%
G04 Gerber Fmt 4.6, Leading zero omitted, Abs format (unit mm)*
G04 Created by KiCad (PCBNEW 4.0.6) date 10/22/17 14:56:47*
%MOMM*%
%LPD*%
G01*
G04 APERTURE LIST*
%ADD10C,0.100000*%
%ADD11C,0.500000*%
%ADD12C,4.000000*%
%ADD13C,3.000000*%
%ADD14R,0.635000X1.143000*%
%ADD15R,1.143000X0.635000*%
%ADD16C,1.524000*%
%ADD17C,1.905000*%
%ADD18C,2.667000*%
%ADD19C,5.300000*%
%ADD20C,0.600000*%
%ADD21C,0.500000*%
%ADD22C,0.250000*%
%ADD23C,0.200000*%
%ADD24C,0.254000*%
G04 APERTURE END LIST*
D10*
D11*
X136120000Y-97560000D03*
X134620000Y-100560000D03*
X134620000Y-99060000D03*
X133120000Y-99060000D03*
X136120000Y-99060000D03*
X133120000Y-97560000D03*
X134620000Y-97560000D03*
D12*
X136720000Y-101160000D03*
D11*
X133120000Y-100560000D03*
D13*
X113633000Y-101695000D03*
D11*
X108633000Y-102695000D03*
X110133000Y-102695000D03*
X108633000Y-101195000D03*
X110133000Y-101195000D03*
X108633000Y-96695000D03*
X108633000Y-98195000D03*
X114633000Y-98195000D03*
X114633000Y-96695000D03*
X113133000Y-96695000D03*
X113133000Y-98195000D03*
X110133000Y-98195000D03*
X110133000Y-96695000D03*
X111633000Y-96695000D03*
X111633000Y-98195000D03*
X111633000Y-102695000D03*
X111633000Y-101195000D03*
X114633000Y-99695000D03*
X113133000Y-99695000D03*
X108633000Y-99695000D03*
X110133000Y-99695000D03*
X111633000Y-99695000D03*
D14*
X127254000Y-101092000D03*
X128778000Y-101092000D03*
D15*
X134874000Y-90678000D03*
X134874000Y-92202000D03*
X134112000Y-106934000D03*
X134112000Y-105410000D03*
D14*
X127254000Y-97028000D03*
X128778000Y-97028000D03*
D15*
X131826000Y-106934000D03*
X131826000Y-105410000D03*
D14*
X141732000Y-102870000D03*
X140208000Y-102870000D03*
X141224000Y-90424000D03*
X142748000Y-90424000D03*
X150372000Y-94660000D03*
X148848000Y-94660000D03*
X141732000Y-98806000D03*
X140208000Y-98806000D03*
X149078000Y-101380000D03*
X150602000Y-101380000D03*
X141732000Y-100838000D03*
X140208000Y-100838000D03*
X120602000Y-90220000D03*
X119078000Y-90220000D03*
X119058000Y-107430000D03*
X120582000Y-107430000D03*
X128270000Y-107950000D03*
X126746000Y-107950000D03*
X127254000Y-103124000D03*
X128778000Y-103124000D03*
D15*
X138684000Y-106934000D03*
X138684000Y-105410000D03*
D14*
X141732000Y-96774000D03*
X140208000Y-96774000D03*
X149108000Y-103360000D03*
X150632000Y-103360000D03*
X150632000Y-105250000D03*
X149108000Y-105250000D03*
X140970000Y-107696000D03*
X142494000Y-107696000D03*
X127254000Y-99060000D03*
X128778000Y-99060000D03*
D15*
X136906000Y-90678000D03*
X136906000Y-92202000D03*
X136398000Y-106934000D03*
X136398000Y-105410000D03*
D14*
X120622000Y-109160000D03*
X119098000Y-109160000D03*
X119098000Y-88250000D03*
X120622000Y-88250000D03*
D15*
X124040000Y-87138000D03*
X124040000Y-88662000D03*
D14*
X148848000Y-92790000D03*
X150372000Y-92790000D03*
D15*
X129830000Y-110388000D03*
X129830000Y-111912000D03*
X138880000Y-110338000D03*
X138880000Y-111862000D03*
X139700000Y-85598000D03*
X139700000Y-87122000D03*
X132080000Y-85598000D03*
X132080000Y-87122000D03*
D14*
X123672000Y-94400000D03*
X122148000Y-94400000D03*
X123992000Y-100470000D03*
X122468000Y-100470000D03*
X145288000Y-100330000D03*
X146812000Y-100330000D03*
X145288000Y-95250000D03*
X146812000Y-95250000D03*
D15*
X135890000Y-85598000D03*
X135890000Y-87122000D03*
X129540000Y-85598000D03*
X129540000Y-87122000D03*
X136210000Y-110378000D03*
X136210000Y-111902000D03*
X140890000Y-110308000D03*
X140890000Y-111832000D03*
D14*
X104668000Y-88950000D03*
X106192000Y-88950000D03*
X104678000Y-90610000D03*
X106202000Y-90610000D03*
X104678000Y-94020000D03*
X106202000Y-94020000D03*
X104658000Y-87330000D03*
X106182000Y-87330000D03*
X104668000Y-92260000D03*
X106192000Y-92260000D03*
D16*
X143430000Y-122730000D03*
X143430000Y-125270000D03*
X140890000Y-122730000D03*
X140890000Y-125270000D03*
X138350000Y-122730000D03*
X138350000Y-125270000D03*
X135810000Y-122730000D03*
X135810000Y-125270000D03*
X133270000Y-122730000D03*
X133270000Y-125270000D03*
X130730000Y-122730000D03*
X130730000Y-125270000D03*
X128190000Y-122730000D03*
X128190000Y-125270000D03*
X125650000Y-122730000D03*
X125650000Y-125270000D03*
X123110000Y-122730000D03*
X123110000Y-125270000D03*
X120570000Y-122730000D03*
X120570000Y-125270000D03*
D14*
X119068000Y-92090000D03*
X120592000Y-92090000D03*
X145388000Y-106510000D03*
X146912000Y-106510000D03*
X119008000Y-105700000D03*
X120532000Y-105700000D03*
X150342000Y-90290000D03*
X148818000Y-90290000D03*
D15*
X128240000Y-90818000D03*
X128240000Y-92342000D03*
D14*
X146862000Y-109650000D03*
X145338000Y-109650000D03*
X122338000Y-109650000D03*
X123862000Y-109650000D03*
X146762000Y-88450000D03*
X145238000Y-88450000D03*
D15*
X103510000Y-95408000D03*
X103510000Y-96932000D03*
D14*
X115952000Y-79000000D03*
X114428000Y-79000000D03*
X143222000Y-78440000D03*
X141698000Y-78440000D03*
D17*
X94500000Y-83500000D03*
D18*
X97049900Y-86049900D03*
X91950100Y-86049900D03*
X91950100Y-80950100D03*
X97049900Y-80950100D03*
D17*
X94400000Y-115700000D03*
D18*
X96949900Y-118249900D03*
X91850100Y-118249900D03*
X91850100Y-113150100D03*
X96949900Y-113150100D03*
D19*
X93500000Y-74500000D03*
X93500000Y-123500000D03*
X151500000Y-74500000D03*
X151500000Y-123500000D03*
D15*
X127530000Y-120362000D03*
X127530000Y-118838000D03*
X125760000Y-120362000D03*
X125760000Y-118838000D03*
X132070000Y-120172000D03*
X132070000Y-118648000D03*
X134120000Y-120172000D03*
X134120000Y-118648000D03*
D16*
X98370000Y-75770000D03*
X98370000Y-73230000D03*
X100910000Y-75770000D03*
X100910000Y-73230000D03*
X103450000Y-75770000D03*
X103450000Y-73230000D03*
X105990000Y-75770000D03*
X105990000Y-73230000D03*
X108530000Y-75770000D03*
X108530000Y-73230000D03*
X111070000Y-75770000D03*
X111070000Y-73230000D03*
X113610000Y-75770000D03*
X113610000Y-73230000D03*
X116150000Y-75770000D03*
X116150000Y-73230000D03*
X118690000Y-75770000D03*
X118690000Y-73230000D03*
X121230000Y-75770000D03*
X121230000Y-73230000D03*
X123770000Y-75770000D03*
X123770000Y-73230000D03*
X126310000Y-75770000D03*
X126310000Y-73230000D03*
X128850000Y-75770000D03*
X128850000Y-73230000D03*
X131390000Y-75770000D03*
X131390000Y-73230000D03*
X133930000Y-75770000D03*
X133930000Y-73230000D03*
X136470000Y-75770000D03*
X136470000Y-73230000D03*
X139010000Y-75770000D03*
X139010000Y-73230000D03*
X141550000Y-75770000D03*
X141550000Y-73230000D03*
X144090000Y-75770000D03*
X144090000Y-73230000D03*
X146630000Y-75770000D03*
X146630000Y-73230000D03*
D20*
X154000000Y-108910000D03*
X103340000Y-80390000D03*
X115480000Y-124360000D03*
X140462000Y-92202000D03*
X121390000Y-100650000D03*
X122230000Y-90380000D03*
X147750000Y-95840000D03*
X140920000Y-112890000D03*
X109320000Y-91060000D03*
X125470000Y-112460000D03*
X152340000Y-105310000D03*
X119080000Y-110650000D03*
X147860000Y-98790000D03*
X136210000Y-112810000D03*
X129850000Y-112880000D03*
X148710000Y-108430000D03*
X150460000Y-79770000D03*
X113870000Y-121070000D03*
X106950000Y-114110000D03*
X123930000Y-118020000D03*
X132930000Y-112050000D03*
X144430000Y-111940000D03*
X116920000Y-85620000D03*
X143560000Y-99840000D03*
X143620000Y-95320000D03*
X138210000Y-86340000D03*
X130910000Y-89980000D03*
X130670000Y-86470000D03*
X133550000Y-86280000D03*
X142330000Y-85570000D03*
X141050000Y-108980000D03*
X136400000Y-108800000D03*
X130580000Y-108550000D03*
X124960000Y-100300000D03*
X125770000Y-94390000D03*
X128230000Y-89900000D03*
X147940000Y-88470000D03*
X141860000Y-94310000D03*
X139590000Y-108450000D03*
X130250000Y-106950000D03*
X142550000Y-105810000D03*
X133450000Y-108270000D03*
X127140000Y-104810000D03*
X126950000Y-95820000D03*
X139360000Y-90550000D03*
X142748000Y-89408000D03*
X147270000Y-91170000D03*
X125660000Y-91760000D03*
X121810000Y-107670000D03*
X125170000Y-108590000D03*
X149150000Y-106500000D03*
X143780000Y-107810000D03*
X125940000Y-89720000D03*
X126120000Y-115270000D03*
X143490000Y-92180000D03*
X143330000Y-85460000D03*
X143250000Y-102570000D03*
X147920000Y-92660000D03*
X135880000Y-83580000D03*
X136320000Y-81920000D03*
X148000000Y-91790000D03*
X152090000Y-101810000D03*
X143280000Y-101340000D03*
X120290000Y-115570000D03*
X105790000Y-107410000D03*
X117990000Y-79460000D03*
X121220000Y-99430000D03*
X152270000Y-103800000D03*
X116970000Y-105090000D03*
X116960000Y-94220000D03*
X104820000Y-99240000D03*
X104750000Y-96240000D03*
X98650000Y-102660000D03*
X100480000Y-106790000D03*
D21*
X142205000Y-119845000D02*
X137015000Y-119845000D01*
X137015000Y-119845000D02*
X134140000Y-116970000D01*
X134140000Y-116970000D02*
X123850000Y-116970000D01*
X123850000Y-116970000D02*
X121000000Y-119820000D01*
X121000000Y-119820000D02*
X120020000Y-119820000D01*
X120020000Y-119820000D02*
X115480000Y-124360000D01*
X143430000Y-122730000D02*
X143430000Y-121070000D01*
X143430000Y-121070000D02*
X142205000Y-119845000D01*
D22*
X142205000Y-119845000D02*
X142180000Y-119820000D01*
D21*
X143430000Y-122730000D02*
X143430000Y-118250000D01*
X154000000Y-110680000D02*
X154000000Y-108910000D01*
X151970000Y-112710000D02*
X154000000Y-110680000D01*
X148970000Y-112710000D02*
X151970000Y-112710000D01*
X143430000Y-118250000D02*
X148970000Y-112710000D01*
X103340000Y-80390000D02*
X101880000Y-81850000D01*
X101880000Y-81850000D02*
X101880000Y-122450000D01*
X101880000Y-122450000D02*
X104930000Y-125500000D01*
X104930000Y-125500000D02*
X114300000Y-125500000D01*
X114300000Y-125500000D02*
X115440000Y-124360000D01*
X115440000Y-124360000D02*
X115480000Y-124360000D01*
X141224000Y-90424000D02*
X141224000Y-91440000D01*
D23*
X141224000Y-91440000D02*
X140462000Y-92202000D01*
D21*
X119078000Y-90220000D02*
X119078000Y-88270000D01*
D23*
X119078000Y-88270000D02*
X119098000Y-88250000D01*
D21*
X121390000Y-100650000D02*
X121570000Y-100470000D01*
X121570000Y-100470000D02*
X122468000Y-100470000D01*
X122230000Y-90380000D02*
X122120000Y-90270000D01*
X122120000Y-90270000D02*
X122120000Y-86700000D01*
X106202000Y-94020000D02*
X106202000Y-95872000D01*
X106202000Y-95872000D02*
X107025000Y-96695000D01*
X107025000Y-96695000D02*
X108633000Y-96695000D01*
X124040000Y-87138000D02*
X123318000Y-87138000D01*
X123318000Y-87138000D02*
X122880000Y-86700000D01*
X122880000Y-86700000D02*
X122120000Y-86700000D01*
X119098000Y-86882000D02*
X119098000Y-88250000D01*
X122120000Y-86700000D02*
X119280000Y-86700000D01*
X119280000Y-86700000D02*
X119098000Y-86882000D01*
X146812000Y-95250000D02*
X147160000Y-95250000D01*
X147160000Y-95250000D02*
X147750000Y-95840000D01*
X146812000Y-95250000D02*
X147170000Y-95250000D01*
X147170000Y-95250000D02*
X148070000Y-96150000D01*
X148070000Y-96150000D02*
X150240000Y-96150000D01*
X124040000Y-87138000D02*
X129524000Y-87138000D01*
D23*
X129524000Y-87138000D02*
X129540000Y-87122000D01*
X140890000Y-112860000D02*
X140890000Y-111832000D01*
X140920000Y-112890000D02*
X140890000Y-112860000D01*
D21*
X106540000Y-90660000D02*
X108920000Y-90660000D01*
X108920000Y-90660000D02*
X109320000Y-91060000D01*
X106192000Y-88950000D02*
X106192000Y-87340000D01*
D23*
X106192000Y-87340000D02*
X106182000Y-87330000D01*
D21*
X106202000Y-90610000D02*
X106202000Y-88960000D01*
D23*
X106202000Y-88960000D02*
X106192000Y-88950000D01*
D21*
X106192000Y-92260000D02*
X106192000Y-94010000D01*
D23*
X106192000Y-94010000D02*
X106202000Y-94020000D01*
D21*
X106202000Y-90610000D02*
X106202000Y-92250000D01*
D23*
X106202000Y-92250000D02*
X106192000Y-92260000D01*
D21*
X129830000Y-111912000D02*
X126018000Y-111912000D01*
X126018000Y-111912000D02*
X125470000Y-112460000D01*
X103450000Y-73230000D02*
X103450000Y-72390000D01*
X103450000Y-72390000D02*
X104160000Y-71680000D01*
X104160000Y-71680000D02*
X114450000Y-71680000D01*
X113610000Y-73230000D02*
X113610000Y-72520000D01*
X113610000Y-72520000D02*
X114450000Y-71680000D01*
X114450000Y-71680000D02*
X122110000Y-71680000D01*
X121230000Y-73230000D02*
X121230000Y-72560000D01*
X121230000Y-72560000D02*
X122110000Y-71680000D01*
X122110000Y-71680000D02*
X130800000Y-71680000D01*
X132380000Y-71680000D02*
X133930000Y-73230000D01*
X130800000Y-71680000D02*
X132380000Y-71680000D01*
X122468000Y-100470000D02*
X122468000Y-95898000D01*
X122148000Y-95578000D02*
X122148000Y-94400000D01*
X122468000Y-95898000D02*
X122148000Y-95578000D01*
X150632000Y-105250000D02*
X152280000Y-105250000D01*
D22*
X152280000Y-105250000D02*
X152340000Y-105310000D01*
D21*
X119098000Y-109160000D02*
X119098000Y-110632000D01*
D22*
X119098000Y-110632000D02*
X119080000Y-110650000D01*
D21*
X96949900Y-118249900D02*
X91850100Y-118249900D01*
X93500000Y-123500000D02*
X93500000Y-122420000D01*
X93500000Y-122420000D02*
X91850100Y-120770100D01*
X91850100Y-120770100D02*
X91850100Y-118249900D01*
X91850100Y-118249900D02*
X91850100Y-113150100D01*
X91850100Y-113150100D02*
X96949900Y-113150100D01*
X147860000Y-98790000D02*
X147880000Y-98810000D01*
X147880000Y-98810000D02*
X147880000Y-99262000D01*
X147880000Y-99262000D02*
X146812000Y-100330000D01*
X91950100Y-80950100D02*
X91950100Y-76049900D01*
X91950100Y-76049900D02*
X93500000Y-74500000D01*
D22*
X140890000Y-111832000D02*
X138910000Y-111832000D01*
X138910000Y-111832000D02*
X138880000Y-111862000D01*
X136210000Y-111902000D02*
X138840000Y-111902000D01*
X138840000Y-111902000D02*
X138880000Y-111862000D01*
X136210000Y-112810000D02*
X136210000Y-111902000D01*
D21*
X129830000Y-112860000D02*
X129830000Y-111912000D01*
D22*
X129850000Y-112880000D02*
X129830000Y-112860000D01*
D21*
X119058000Y-107430000D02*
X119058000Y-109120000D01*
D22*
X119058000Y-109120000D02*
X119098000Y-109160000D01*
D21*
X150602000Y-101380000D02*
X150602000Y-96362000D01*
X150602000Y-96362000D02*
X150372000Y-96132000D01*
X150372000Y-96132000D02*
X150372000Y-94660000D01*
X146812000Y-95250000D02*
X146812000Y-100330000D01*
X150372000Y-94660000D02*
X150372000Y-92790000D01*
X150632000Y-103360000D02*
X150632000Y-101410000D01*
D22*
X150632000Y-101410000D02*
X150602000Y-101380000D01*
D21*
X150632000Y-105250000D02*
X150632000Y-103360000D01*
D22*
X128270000Y-107950000D02*
X128270000Y-106960000D01*
X128778000Y-106452000D02*
X128778000Y-103124000D01*
X128270000Y-106960000D02*
X128778000Y-106452000D01*
X140970000Y-107696000D02*
X140970000Y-105890000D01*
X140490000Y-105410000D02*
X138684000Y-105410000D01*
X140970000Y-105890000D02*
X140490000Y-105410000D01*
D21*
X139700000Y-87122000D02*
X135890000Y-87122000D01*
X135890000Y-87122000D02*
X132080000Y-87122000D01*
D22*
X129540000Y-87122000D02*
X132080000Y-87122000D01*
D21*
X134874000Y-92202000D02*
X136906000Y-92202000D01*
X136906000Y-92202000D02*
X140462000Y-92202000D01*
X140462000Y-92202000D02*
X141224000Y-91440000D01*
D22*
X138684000Y-105410000D02*
X138684000Y-103124000D01*
X138684000Y-103124000D02*
X136720000Y-101160000D01*
D21*
X140208000Y-100838000D02*
X137042000Y-100838000D01*
D22*
X137042000Y-100838000D02*
X136720000Y-101160000D01*
X140208000Y-98806000D02*
X140208000Y-96774000D01*
D21*
X140208000Y-100838000D02*
X140208000Y-98806000D01*
X140208000Y-102870000D02*
X140208000Y-100838000D01*
D22*
X136398000Y-105410000D02*
X138684000Y-105410000D01*
X134112000Y-105410000D02*
X136398000Y-105410000D01*
X131826000Y-105410000D02*
X134112000Y-105410000D01*
D21*
X128778000Y-99060000D02*
X133120000Y-99060000D01*
D22*
X128778000Y-101092000D02*
X128778000Y-103124000D01*
X128778000Y-99060000D02*
X128778000Y-101092000D01*
D21*
X128778000Y-97028000D02*
X128778000Y-99060000D01*
X97049900Y-80950100D02*
X91950100Y-80950100D01*
X91950100Y-80950100D02*
X91950100Y-86049900D01*
X150342000Y-90290000D02*
X152110000Y-90290000D01*
X152110000Y-90290000D02*
X153760000Y-91940000D01*
X153760000Y-91940000D02*
X153760000Y-92800000D01*
X151080000Y-108430000D02*
X148710000Y-108430000D01*
X153760000Y-105750000D02*
X151080000Y-108430000D01*
X153760000Y-92800000D02*
X153760000Y-105750000D01*
X119008000Y-105700000D02*
X118510000Y-105700000D01*
X118510000Y-105700000D02*
X117880000Y-106330000D01*
X117880000Y-106330000D02*
X117880000Y-111430000D01*
X117880000Y-111430000D02*
X118815000Y-112365000D01*
X148220000Y-112010000D02*
X148220000Y-108430000D01*
X144000000Y-116230000D02*
X148220000Y-112010000D01*
X122680000Y-116230000D02*
X144000000Y-116230000D01*
X118815000Y-112365000D02*
X122680000Y-116230000D01*
X119068000Y-92090000D02*
X119068000Y-105640000D01*
D23*
X119068000Y-105640000D02*
X119008000Y-105700000D01*
D21*
X145388000Y-106510000D02*
X145388000Y-108018000D01*
X145800000Y-108430000D02*
X148220000Y-108430000D01*
X145388000Y-108018000D02*
X145800000Y-108430000D01*
X148220000Y-108430000D02*
X148710000Y-108430000D01*
X103510000Y-96932000D02*
X103510000Y-110670000D01*
X103510000Y-110670000D02*
X106950000Y-114110000D01*
X125760000Y-118838000D02*
X124748000Y-118838000D01*
X124748000Y-118838000D02*
X123930000Y-118020000D01*
X127530000Y-118838000D02*
X125760000Y-118838000D01*
X124960000Y-100300000D02*
X124960000Y-99370000D01*
X124960000Y-99370000D02*
X123672000Y-98082000D01*
X123672000Y-98082000D02*
X123672000Y-94400000D01*
X132970000Y-112010000D02*
X132970000Y-110388000D01*
D23*
X132930000Y-112050000D02*
X132970000Y-112010000D01*
D21*
X114468000Y-78540000D02*
X114468000Y-83968000D01*
X114468000Y-83968000D02*
X116120000Y-85620000D01*
X116120000Y-85620000D02*
X116920000Y-85620000D01*
X141708000Y-78230000D02*
X141708000Y-84948000D01*
X141708000Y-84948000D02*
X142330000Y-85570000D01*
X144430000Y-111940000D02*
X142720000Y-110230000D01*
X142720000Y-110230000D02*
X140968000Y-110230000D01*
D22*
X140968000Y-110230000D02*
X140890000Y-110308000D01*
D21*
X116942000Y-85598000D02*
X129540000Y-85598000D01*
X116920000Y-85620000D02*
X116942000Y-85598000D01*
X143560000Y-99840000D02*
X143560000Y-95380000D01*
X143560000Y-95380000D02*
X143620000Y-95320000D01*
X145288000Y-100330000D02*
X144050000Y-100330000D01*
X144050000Y-100330000D02*
X143560000Y-99840000D01*
D22*
X145288000Y-95250000D02*
X143690000Y-95250000D01*
X143690000Y-95250000D02*
X143620000Y-95320000D01*
D21*
X129830000Y-110388000D02*
X132970000Y-110388000D01*
X132970000Y-110388000D02*
X136200000Y-110388000D01*
D22*
X136200000Y-110388000D02*
X136210000Y-110378000D01*
D21*
X138240000Y-86310000D02*
X138240000Y-85598000D01*
D22*
X138210000Y-86340000D02*
X138240000Y-86310000D01*
D21*
X130910000Y-89980000D02*
X130900000Y-89990000D01*
X130900000Y-89990000D02*
X130900000Y-92570000D01*
X130900000Y-92570000D02*
X129080000Y-94390000D01*
X129080000Y-94390000D02*
X125770000Y-94390000D01*
X130670000Y-86470000D02*
X130820000Y-86320000D01*
X130820000Y-86320000D02*
X130820000Y-85598000D01*
X133550000Y-86280000D02*
X133560000Y-86270000D01*
X133560000Y-86270000D02*
X133560000Y-85598000D01*
X142312000Y-85588000D02*
X139700000Y-85598000D01*
X142330000Y-85570000D02*
X142312000Y-85588000D01*
X140890000Y-109140000D02*
X140890000Y-110308000D01*
X141050000Y-108980000D02*
X140890000Y-109140000D01*
D22*
X138880000Y-110338000D02*
X140860000Y-110338000D01*
X140860000Y-110338000D02*
X140890000Y-110308000D01*
X136210000Y-110378000D02*
X138840000Y-110378000D01*
X138840000Y-110378000D02*
X138880000Y-110338000D01*
D21*
X136210000Y-110378000D02*
X136210000Y-108990000D01*
X136210000Y-108990000D02*
X136400000Y-108800000D01*
X129830000Y-110388000D02*
X129830000Y-109300000D01*
X129830000Y-109300000D02*
X130580000Y-108550000D01*
X123992000Y-100470000D02*
X124790000Y-100470000D01*
X124790000Y-100470000D02*
X124960000Y-100300000D01*
X123672000Y-94400000D02*
X125760000Y-94400000D01*
X125760000Y-94400000D02*
X125770000Y-94390000D01*
X135890000Y-85598000D02*
X138240000Y-85598000D01*
X138240000Y-85598000D02*
X139700000Y-85598000D01*
X129540000Y-85598000D02*
X130820000Y-85598000D01*
X130820000Y-85598000D02*
X132080000Y-85598000D01*
X132080000Y-85598000D02*
X133560000Y-85598000D01*
X133560000Y-85598000D02*
X135890000Y-85598000D01*
X128870000Y-89260000D02*
X128870000Y-89230000D01*
X128230000Y-89900000D02*
X128870000Y-89260000D01*
X133760000Y-88800000D02*
X134230000Y-89270000D01*
X129300000Y-88800000D02*
X133760000Y-88800000D01*
X128870000Y-89230000D02*
X129300000Y-88800000D01*
X134230000Y-89270000D02*
X134874000Y-89914000D01*
X134874000Y-90678000D02*
X134874000Y-89914000D01*
X134220000Y-89260000D02*
X134230000Y-89270000D01*
D23*
X128240000Y-90818000D02*
X128240000Y-90380000D01*
X128240000Y-90380000D02*
X128230000Y-90370000D01*
X128230000Y-90370000D02*
X128230000Y-89900000D01*
D21*
X141860000Y-94310000D02*
X134770000Y-94310000D01*
X133460000Y-92092000D02*
X134874000Y-90678000D01*
X133460000Y-93000000D02*
X133460000Y-92092000D01*
X134770000Y-94310000D02*
X133460000Y-93000000D01*
X130250000Y-106950000D02*
X129510000Y-106950000D01*
X129510000Y-106950000D02*
X129150000Y-107310000D01*
X129150000Y-107310000D02*
X129150000Y-108650000D01*
X129150000Y-108650000D02*
X126870000Y-110930000D01*
X126870000Y-110930000D02*
X123618000Y-110930000D01*
X123618000Y-110930000D02*
X122338000Y-109650000D01*
D22*
X122338000Y-109650000D02*
X122338000Y-109182000D01*
X122338000Y-109182000D02*
X122960000Y-108560000D01*
X125830000Y-106120000D02*
X127140000Y-104810000D01*
X125830000Y-106910000D02*
X125830000Y-106120000D01*
X124180000Y-108560000D02*
X125830000Y-106910000D01*
X122960000Y-108560000D02*
X124180000Y-108560000D01*
D21*
X146862000Y-109650000D02*
X146862000Y-111358000D01*
X146862000Y-111358000D02*
X144090000Y-114130000D01*
X144090000Y-114130000D02*
X124660000Y-114130000D01*
X124660000Y-114130000D02*
X122338000Y-111808000D01*
X122338000Y-111808000D02*
X122338000Y-109650000D01*
X149078000Y-101380000D02*
X148220000Y-101380000D01*
X148220000Y-101380000D02*
X147840000Y-101760000D01*
X147840000Y-101760000D02*
X147840000Y-102930000D01*
X147840000Y-102930000D02*
X147300000Y-103470000D01*
X147300000Y-103470000D02*
X142332000Y-103470000D01*
X142332000Y-103470000D02*
X141732000Y-102870000D01*
X139360000Y-90550000D02*
X139360000Y-88920000D01*
X146762000Y-87512000D02*
X146762000Y-88450000D01*
X146350000Y-87100000D02*
X146762000Y-87512000D01*
X143950000Y-87100000D02*
X146350000Y-87100000D01*
X142840000Y-88210000D02*
X143950000Y-87100000D01*
X140070000Y-88210000D02*
X142840000Y-88210000D01*
X139360000Y-88920000D02*
X140070000Y-88210000D01*
X147920000Y-88450000D02*
X146762000Y-88450000D01*
X147940000Y-88470000D02*
X147920000Y-88450000D01*
X141732000Y-94438000D02*
X141732000Y-96774000D01*
X141860000Y-94310000D02*
X141732000Y-94438000D01*
X138684000Y-106934000D02*
X138684000Y-107564000D01*
X138684000Y-107564000D02*
X139570000Y-108450000D01*
X139570000Y-108450000D02*
X139590000Y-108450000D01*
D22*
X130266000Y-106934000D02*
X131826000Y-106934000D01*
X130250000Y-106950000D02*
X130266000Y-106934000D01*
D21*
X141732000Y-102870000D02*
X141732000Y-104992000D01*
X141732000Y-104992000D02*
X142550000Y-105810000D01*
X141732000Y-100838000D02*
X141732000Y-102870000D01*
X141732000Y-98806000D02*
X141732000Y-100838000D01*
X141732000Y-96774000D02*
X141732000Y-98806000D01*
D22*
X136398000Y-106934000D02*
X138684000Y-106934000D01*
X134112000Y-106934000D02*
X136398000Y-106934000D01*
X131826000Y-106934000D02*
X134112000Y-106934000D01*
D21*
X134112000Y-106934000D02*
X134112000Y-107608000D01*
X134112000Y-107608000D02*
X133450000Y-108270000D01*
D22*
X127254000Y-103124000D02*
X127254000Y-104696000D01*
X127254000Y-104696000D02*
X127140000Y-104810000D01*
X127254000Y-101092000D02*
X127254000Y-103124000D01*
X127254000Y-99060000D02*
X127254000Y-101092000D01*
X127254000Y-97028000D02*
X127254000Y-96124000D01*
X127254000Y-96124000D02*
X126950000Y-95820000D01*
X127254000Y-99060000D02*
X127254000Y-97028000D01*
D21*
X136906000Y-90678000D02*
X139232000Y-90678000D01*
X139232000Y-90678000D02*
X139360000Y-90550000D01*
X134874000Y-90678000D02*
X136906000Y-90678000D01*
D22*
X142748000Y-89408000D02*
X142748000Y-90424000D01*
D21*
X145238000Y-88450000D02*
X145238000Y-88950000D01*
X145238000Y-88950000D02*
X144526000Y-89662000D01*
X143256000Y-90424000D02*
X142748000Y-90424000D01*
X144018000Y-89662000D02*
X143256000Y-90424000D01*
X144526000Y-89662000D02*
X144018000Y-89662000D01*
X148848000Y-92790000D02*
X148848000Y-90320000D01*
D23*
X148848000Y-90320000D02*
X148818000Y-90290000D01*
D21*
X147270000Y-91170000D02*
X148150000Y-90290000D01*
X148150000Y-90290000D02*
X148818000Y-90290000D01*
X148848000Y-94660000D02*
X148848000Y-92790000D01*
X120592000Y-92090000D02*
X125330000Y-92090000D01*
X125330000Y-92090000D02*
X125660000Y-91760000D01*
X120602000Y-90220000D02*
X120602000Y-92080000D01*
D23*
X120602000Y-92080000D02*
X120592000Y-92090000D01*
X120580000Y-90242000D02*
X120602000Y-90220000D01*
X125660000Y-91760000D02*
X125588000Y-91688000D01*
D21*
X120602000Y-90220000D02*
X120602000Y-88270000D01*
D22*
X120602000Y-88270000D02*
X120622000Y-88250000D01*
X120602000Y-88270000D02*
X120622000Y-88250000D01*
D21*
X120582000Y-107430000D02*
X120582000Y-105750000D01*
D23*
X120582000Y-105750000D02*
X120532000Y-105700000D01*
D21*
X121810000Y-107670000D02*
X121570000Y-107430000D01*
X121570000Y-107430000D02*
X120582000Y-107430000D01*
X120622000Y-109160000D02*
X120622000Y-108230000D01*
X120622000Y-108230000D02*
X120622000Y-107470000D01*
D22*
X120622000Y-107470000D02*
X120582000Y-107430000D01*
X123862000Y-109650000D02*
X124110000Y-109650000D01*
D21*
X124110000Y-109650000D02*
X125170000Y-108590000D01*
X125810000Y-107950000D02*
X126746000Y-107950000D01*
X125170000Y-108590000D02*
X125810000Y-107950000D01*
X149150000Y-106500000D02*
X149108000Y-106458000D01*
X149108000Y-106458000D02*
X149108000Y-105250000D01*
X149108000Y-105250000D02*
X149108000Y-103360000D01*
D22*
X146912000Y-106510000D02*
X146920000Y-106510000D01*
D21*
X146920000Y-106510000D02*
X148180000Y-105250000D01*
X148180000Y-105250000D02*
X149108000Y-105250000D01*
X145338000Y-109650000D02*
X144040000Y-109650000D01*
X144040000Y-109650000D02*
X143780000Y-109390000D01*
X143780000Y-109390000D02*
X143780000Y-107810000D01*
X143666000Y-107696000D02*
X142494000Y-107696000D01*
X143780000Y-107810000D02*
X143666000Y-107696000D01*
X126590000Y-90370000D02*
X126590000Y-91370000D01*
X126590000Y-91370000D02*
X127562000Y-92342000D01*
X127562000Y-92342000D02*
X128240000Y-92342000D01*
X124040000Y-88662000D02*
X124882000Y-88662000D01*
X124882000Y-88662000D02*
X125940000Y-89720000D01*
X125940000Y-89720000D02*
X126590000Y-90370000D01*
D23*
X126590000Y-90370000D02*
X126612000Y-90392000D01*
X125000000Y-74540000D02*
X126310000Y-73230000D01*
X125000000Y-78040000D02*
X125000000Y-74540000D01*
X126760000Y-79800000D02*
X125000000Y-78040000D01*
X132100000Y-79800000D02*
X126760000Y-79800000D01*
X135880000Y-83580000D02*
X132100000Y-79800000D01*
X130100000Y-74480000D02*
X128850000Y-73230000D01*
X130100000Y-77460000D02*
X130100000Y-74480000D01*
X130900000Y-78260000D02*
X130100000Y-77460000D01*
X132660000Y-78260000D02*
X130900000Y-78260000D01*
X136320000Y-81920000D02*
X132660000Y-78260000D01*
D21*
X120290000Y-115570000D02*
X112130000Y-107410000D01*
X112130000Y-107410000D02*
X105790000Y-107410000D01*
X116150000Y-75770000D02*
X116150000Y-78802000D01*
D23*
X116150000Y-78802000D02*
X115952000Y-79000000D01*
D21*
X115992000Y-78540000D02*
X117070000Y-78540000D01*
X117070000Y-78540000D02*
X117990000Y-79460000D01*
X144090000Y-75770000D02*
X144090000Y-77372000D01*
X144090000Y-77372000D02*
X143232000Y-78230000D01*
X116960000Y-94220000D02*
X116960000Y-105080000D01*
X116960000Y-105080000D02*
X116970000Y-105090000D01*
D22*
X117000000Y-94260000D02*
X116960000Y-94220000D01*
X116970000Y-105090000D02*
X117000000Y-105060000D01*
D21*
X103510000Y-95408000D02*
X104498000Y-95408000D01*
X104498000Y-95408000D02*
X104750000Y-95660000D01*
X104750000Y-95660000D02*
X104750000Y-96240000D01*
X103510000Y-95408000D02*
X103510000Y-94440000D01*
X103510000Y-94440000D02*
X103930000Y-94020000D01*
X103930000Y-94020000D02*
X104678000Y-94020000D01*
X104668000Y-92260000D02*
X104668000Y-94010000D01*
D22*
X104668000Y-94010000D02*
X104678000Y-94020000D01*
D21*
X104678000Y-90610000D02*
X104678000Y-92250000D01*
D22*
X104678000Y-92250000D02*
X104668000Y-92260000D01*
D21*
X104668000Y-88950000D02*
X104668000Y-90600000D01*
D22*
X104668000Y-90600000D02*
X104678000Y-90610000D01*
D21*
X104658000Y-87330000D02*
X104658000Y-88940000D01*
D22*
X104658000Y-88940000D02*
X104668000Y-88950000D01*
D21*
X104750000Y-99170000D02*
X104750000Y-96240000D01*
X104820000Y-99240000D02*
X104750000Y-99170000D01*
X100000000Y-104010000D02*
X98650000Y-102660000D01*
X100000000Y-106310000D02*
X100000000Y-104010000D01*
X100480000Y-106790000D02*
X100000000Y-106310000D01*
X125760000Y-120362000D02*
X125760000Y-122620000D01*
D23*
X125760000Y-122620000D02*
X125650000Y-122730000D01*
X127530000Y-120362000D02*
X127530000Y-120770000D01*
X126950000Y-123970000D02*
X125650000Y-125270000D01*
X126950000Y-121350000D02*
X126950000Y-123970000D01*
X127530000Y-120770000D02*
X126950000Y-121350000D01*
X134120000Y-118648000D02*
X134120000Y-118910000D01*
X134120000Y-118910000D02*
X133830000Y-119200000D01*
X133830000Y-119200000D02*
X133430000Y-119200000D01*
X133430000Y-119200000D02*
X133090000Y-119540000D01*
X133090000Y-119540000D02*
X133090000Y-122550000D01*
X133090000Y-122550000D02*
X133270000Y-122730000D01*
X134120000Y-120172000D02*
X134120000Y-121110000D01*
X134510000Y-124030000D02*
X133270000Y-125270000D01*
X134510000Y-121500000D02*
X134510000Y-124030000D01*
X134120000Y-121110000D02*
X134510000Y-121500000D01*
X132070000Y-118648000D02*
X131522000Y-118648000D01*
X131522000Y-118648000D02*
X130730000Y-119440000D01*
X130730000Y-119440000D02*
X130730000Y-122730000D01*
X130730000Y-125270000D02*
X130730000Y-125240000D01*
X130730000Y-125240000D02*
X131990000Y-123980000D01*
X131990000Y-123980000D02*
X131990000Y-120252000D01*
X131990000Y-120252000D02*
X132070000Y-120172000D01*
D24*
G36*
X154315000Y-125932534D02*
X154278624Y-126115410D01*
X154213250Y-126213249D01*
X154115409Y-126278624D01*
X153932534Y-126315000D01*
X144360558Y-126315000D01*
X144613629Y-126062370D01*
X144826757Y-125549100D01*
X144827242Y-124993339D01*
X144615010Y-124479697D01*
X144222370Y-124086371D01*
X144014488Y-124000051D01*
X144220303Y-123915010D01*
X144613629Y-123522370D01*
X144826757Y-123009100D01*
X144827242Y-122453339D01*
X144615010Y-121939697D01*
X144315000Y-121639163D01*
X144315000Y-121070005D01*
X144315001Y-121070000D01*
X144315000Y-121069995D01*
X144315000Y-118616580D01*
X149336579Y-113595000D01*
X151969995Y-113595000D01*
X151970000Y-113595001D01*
X152252484Y-113538810D01*
X152308675Y-113527633D01*
X152595790Y-113335790D01*
X154315000Y-111616579D01*
X154315000Y-125932534D01*
X154315000Y-125932534D01*
G37*
X154315000Y-125932534D02*
X154278624Y-126115410D01*
X154213250Y-126213249D01*
X154115409Y-126278624D01*
X153932534Y-126315000D01*
X144360558Y-126315000D01*
X144613629Y-126062370D01*
X144826757Y-125549100D01*
X144827242Y-124993339D01*
X144615010Y-124479697D01*
X144222370Y-124086371D01*
X144014488Y-124000051D01*
X144220303Y-123915010D01*
X144613629Y-123522370D01*
X144826757Y-123009100D01*
X144827242Y-122453339D01*
X144615010Y-121939697D01*
X144315000Y-121639163D01*
X144315000Y-121070005D01*
X144315001Y-121070000D01*
X144315000Y-121069995D01*
X144315000Y-118616580D01*
X149336579Y-113595000D01*
X151969995Y-113595000D01*
X151970000Y-113595001D01*
X152252484Y-113538810D01*
X152308675Y-113527633D01*
X152595790Y-113335790D01*
X154315000Y-111616579D01*
X154315000Y-125932534D01*
G36*
X123399673Y-118812192D02*
X123520986Y-118862566D01*
X124122208Y-119463787D01*
X124122210Y-119463790D01*
X124409325Y-119655633D01*
X124465516Y-119666810D01*
X124652597Y-119704024D01*
X124592069Y-119792610D01*
X124541060Y-120044500D01*
X124541060Y-120679500D01*
X124585338Y-120914817D01*
X124724410Y-121130941D01*
X124875000Y-121233835D01*
X124875000Y-121538667D01*
X124859697Y-121544990D01*
X124466371Y-121937630D01*
X124380051Y-122145512D01*
X124295010Y-121939697D01*
X123902370Y-121546371D01*
X123389100Y-121333243D01*
X122833339Y-121332758D01*
X122319697Y-121544990D01*
X121926371Y-121937630D01*
X121846605Y-122129727D01*
X121792397Y-121998857D01*
X121550213Y-121929392D01*
X120749605Y-122730000D01*
X121550213Y-123530608D01*
X121792397Y-123461143D01*
X121842509Y-123320682D01*
X121924990Y-123520303D01*
X122317630Y-123913629D01*
X122525512Y-123999949D01*
X122319697Y-124084990D01*
X121926371Y-124477630D01*
X121846605Y-124669727D01*
X121792397Y-124538857D01*
X121550213Y-124469392D01*
X120749605Y-125270000D01*
X121550213Y-126070608D01*
X121792397Y-126001143D01*
X121842509Y-125860682D01*
X121924990Y-126060303D01*
X122179243Y-126315000D01*
X121352025Y-126315000D01*
X121370608Y-126250213D01*
X120570000Y-125449605D01*
X119769392Y-126250213D01*
X119787975Y-126315000D01*
X114642616Y-126315000D01*
X114925790Y-126125790D01*
X114925791Y-126125789D01*
X115820669Y-125230910D01*
X116008943Y-125153117D01*
X116099916Y-125062302D01*
X119160856Y-125062302D01*
X119188638Y-125617368D01*
X119347603Y-126001143D01*
X119589787Y-126070608D01*
X120390395Y-125270000D01*
X119589787Y-124469392D01*
X119347603Y-124538857D01*
X119160856Y-125062302D01*
X116099916Y-125062302D01*
X116272192Y-124890327D01*
X116322566Y-124769014D01*
X117381366Y-123710213D01*
X119769392Y-123710213D01*
X119838857Y-123952397D01*
X119962344Y-123996453D01*
X119838857Y-124047603D01*
X119769392Y-124289787D01*
X120570000Y-125090395D01*
X121370608Y-124289787D01*
X121301143Y-124047603D01*
X121177656Y-124003547D01*
X121301143Y-123952397D01*
X121370608Y-123710213D01*
X120570000Y-122909605D01*
X119769392Y-123710213D01*
X117381366Y-123710213D01*
X118569277Y-122522302D01*
X119160856Y-122522302D01*
X119188638Y-123077368D01*
X119347603Y-123461143D01*
X119589787Y-123530608D01*
X120390395Y-122730000D01*
X119589787Y-121929392D01*
X119347603Y-121998857D01*
X119160856Y-122522302D01*
X118569277Y-122522302D01*
X119341792Y-121749787D01*
X119769392Y-121749787D01*
X120570000Y-122550395D01*
X121370608Y-121749787D01*
X121301143Y-121507603D01*
X120777698Y-121320856D01*
X120222632Y-121348638D01*
X119838857Y-121507603D01*
X119769392Y-121749787D01*
X119341792Y-121749787D01*
X120386579Y-120705000D01*
X120999995Y-120705000D01*
X121000000Y-120705001D01*
X121282484Y-120648810D01*
X121338675Y-120637633D01*
X121625790Y-120445790D01*
X121625791Y-120445789D01*
X123329591Y-118741988D01*
X123399673Y-118812192D01*
X123399673Y-118812192D01*
G37*
X123399673Y-118812192D02*
X123520986Y-118862566D01*
X124122208Y-119463787D01*
X124122210Y-119463790D01*
X124409325Y-119655633D01*
X124465516Y-119666810D01*
X124652597Y-119704024D01*
X124592069Y-119792610D01*
X124541060Y-120044500D01*
X124541060Y-120679500D01*
X124585338Y-120914817D01*
X124724410Y-121130941D01*
X124875000Y-121233835D01*
X124875000Y-121538667D01*
X124859697Y-121544990D01*
X124466371Y-121937630D01*
X124380051Y-122145512D01*
X124295010Y-121939697D01*
X123902370Y-121546371D01*
X123389100Y-121333243D01*
X122833339Y-121332758D01*
X122319697Y-121544990D01*
X121926371Y-121937630D01*
X121846605Y-122129727D01*
X121792397Y-121998857D01*
X121550213Y-121929392D01*
X120749605Y-122730000D01*
X121550213Y-123530608D01*
X121792397Y-123461143D01*
X121842509Y-123320682D01*
X121924990Y-123520303D01*
X122317630Y-123913629D01*
X122525512Y-123999949D01*
X122319697Y-124084990D01*
X121926371Y-124477630D01*
X121846605Y-124669727D01*
X121792397Y-124538857D01*
X121550213Y-124469392D01*
X120749605Y-125270000D01*
X121550213Y-126070608D01*
X121792397Y-126001143D01*
X121842509Y-125860682D01*
X121924990Y-126060303D01*
X122179243Y-126315000D01*
X121352025Y-126315000D01*
X121370608Y-126250213D01*
X120570000Y-125449605D01*
X119769392Y-126250213D01*
X119787975Y-126315000D01*
X114642616Y-126315000D01*
X114925790Y-126125790D01*
X114925791Y-126125789D01*
X115820669Y-125230910D01*
X116008943Y-125153117D01*
X116099916Y-125062302D01*
X119160856Y-125062302D01*
X119188638Y-125617368D01*
X119347603Y-126001143D01*
X119589787Y-126070608D01*
X120390395Y-125270000D01*
X119589787Y-124469392D01*
X119347603Y-124538857D01*
X119160856Y-125062302D01*
X116099916Y-125062302D01*
X116272192Y-124890327D01*
X116322566Y-124769014D01*
X117381366Y-123710213D01*
X119769392Y-123710213D01*
X119838857Y-123952397D01*
X119962344Y-123996453D01*
X119838857Y-124047603D01*
X119769392Y-124289787D01*
X120570000Y-125090395D01*
X121370608Y-124289787D01*
X121301143Y-124047603D01*
X121177656Y-124003547D01*
X121301143Y-123952397D01*
X121370608Y-123710213D01*
X120570000Y-122909605D01*
X119769392Y-123710213D01*
X117381366Y-123710213D01*
X118569277Y-122522302D01*
X119160856Y-122522302D01*
X119188638Y-123077368D01*
X119347603Y-123461143D01*
X119589787Y-123530608D01*
X120390395Y-122730000D01*
X119589787Y-121929392D01*
X119347603Y-121998857D01*
X119160856Y-122522302D01*
X118569277Y-122522302D01*
X119341792Y-121749787D01*
X119769392Y-121749787D01*
X120570000Y-122550395D01*
X121370608Y-121749787D01*
X121301143Y-121507603D01*
X120777698Y-121320856D01*
X120222632Y-121348638D01*
X119838857Y-121507603D01*
X119769392Y-121749787D01*
X119341792Y-121749787D01*
X120386579Y-120705000D01*
X120999995Y-120705000D01*
X121000000Y-120705001D01*
X121282484Y-120648810D01*
X121338675Y-120637633D01*
X121625790Y-120445790D01*
X121625791Y-120445789D01*
X123329591Y-118741988D01*
X123399673Y-118812192D01*
G36*
X154115409Y-71721376D02*
X154213250Y-71786751D01*
X154278624Y-71884590D01*
X154315000Y-72067466D01*
X154315000Y-91243421D01*
X152735790Y-89664210D01*
X152712278Y-89648500D01*
X152448675Y-89472367D01*
X152368907Y-89456500D01*
X152110000Y-89404999D01*
X152109995Y-89405000D01*
X151212353Y-89405000D01*
X151123590Y-89267059D01*
X150911390Y-89122069D01*
X150659500Y-89071060D01*
X150024500Y-89071060D01*
X149789183Y-89115338D01*
X149577189Y-89251753D01*
X149387390Y-89122069D01*
X149135500Y-89071060D01*
X148661335Y-89071060D01*
X148732192Y-89000327D01*
X148874838Y-88656799D01*
X148875162Y-88284833D01*
X148733117Y-87941057D01*
X148470327Y-87677808D01*
X148126799Y-87535162D01*
X147754833Y-87534838D01*
X147681835Y-87565000D01*
X147647000Y-87565000D01*
X147647000Y-87512005D01*
X147647001Y-87512000D01*
X147587805Y-87214410D01*
X147579633Y-87173325D01*
X147387790Y-86886210D01*
X147387787Y-86886208D01*
X146975790Y-86474210D01*
X146955723Y-86460802D01*
X146688675Y-86282367D01*
X146607263Y-86266173D01*
X146350000Y-86214999D01*
X146349995Y-86215000D01*
X143950005Y-86215000D01*
X143950000Y-86214999D01*
X143883970Y-86228133D01*
X144122192Y-85990327D01*
X144264838Y-85646799D01*
X144265162Y-85274833D01*
X144123117Y-84931057D01*
X143860327Y-84667808D01*
X143516799Y-84525162D01*
X143144833Y-84524838D01*
X142801057Y-84666883D01*
X142739993Y-84727841D01*
X142739013Y-84727434D01*
X142593000Y-84581420D01*
X142593000Y-79955167D01*
X149524838Y-79955167D01*
X149666883Y-80298943D01*
X149929673Y-80562192D01*
X150273201Y-80704838D01*
X150645167Y-80705162D01*
X150988943Y-80563117D01*
X151252192Y-80300327D01*
X151394838Y-79956799D01*
X151395162Y-79584833D01*
X151253117Y-79241057D01*
X150990327Y-78977808D01*
X150646799Y-78835162D01*
X150274833Y-78834838D01*
X149931057Y-78976883D01*
X149667808Y-79239673D01*
X149525162Y-79583201D01*
X149524838Y-79955167D01*
X142593000Y-79955167D01*
X142593000Y-79567201D01*
X142652610Y-79607931D01*
X142904500Y-79658940D01*
X143539500Y-79658940D01*
X143774817Y-79614662D01*
X143990941Y-79475590D01*
X144135931Y-79263390D01*
X144186940Y-79011500D01*
X144186940Y-78526640D01*
X144715787Y-77997792D01*
X144715790Y-77997790D01*
X144907633Y-77710675D01*
X144926344Y-77616610D01*
X144975001Y-77372000D01*
X144975000Y-77371995D01*
X144975000Y-76860478D01*
X145085457Y-76750213D01*
X145829392Y-76750213D01*
X145898857Y-76992397D01*
X146422302Y-77179144D01*
X146977368Y-77151362D01*
X147361143Y-76992397D01*
X147430608Y-76750213D01*
X146630000Y-75949605D01*
X145829392Y-76750213D01*
X145085457Y-76750213D01*
X145273629Y-76562370D01*
X145353395Y-76370273D01*
X145407603Y-76501143D01*
X145649787Y-76570608D01*
X146450395Y-75770000D01*
X146809605Y-75770000D01*
X147610213Y-76570608D01*
X147852397Y-76501143D01*
X148039144Y-75977698D01*
X148011362Y-75422632D01*
X147852397Y-75038857D01*
X147610213Y-74969392D01*
X146809605Y-75770000D01*
X146450395Y-75770000D01*
X145649787Y-74969392D01*
X145407603Y-75038857D01*
X145357491Y-75179318D01*
X145275010Y-74979697D01*
X144882370Y-74586371D01*
X144674488Y-74500051D01*
X144880303Y-74415010D01*
X145273629Y-74022370D01*
X145359949Y-73814488D01*
X145444990Y-74020303D01*
X145837630Y-74413629D01*
X146029727Y-74493395D01*
X145898857Y-74547603D01*
X145829392Y-74789787D01*
X146630000Y-75590395D01*
X147430608Y-74789787D01*
X147361143Y-74547603D01*
X147220682Y-74497491D01*
X147420303Y-74415010D01*
X147813629Y-74022370D01*
X148026757Y-73509100D01*
X148027242Y-72953339D01*
X147815010Y-72439697D01*
X147422370Y-72046371D01*
X146909100Y-71833243D01*
X146353339Y-71832758D01*
X145839697Y-72044990D01*
X145446371Y-72437630D01*
X145360051Y-72645512D01*
X145275010Y-72439697D01*
X144882370Y-72046371D01*
X144369100Y-71833243D01*
X143813339Y-71832758D01*
X143299697Y-72044990D01*
X142906371Y-72437630D01*
X142820051Y-72645512D01*
X142735010Y-72439697D01*
X142342370Y-72046371D01*
X141829100Y-71833243D01*
X141273339Y-71832758D01*
X140759697Y-72044990D01*
X140366371Y-72437630D01*
X140286605Y-72629727D01*
X140232397Y-72498857D01*
X139990213Y-72429392D01*
X139189605Y-73230000D01*
X139990213Y-74030608D01*
X140232397Y-73961143D01*
X140282509Y-73820682D01*
X140364990Y-74020303D01*
X140757630Y-74413629D01*
X140965512Y-74499949D01*
X140759697Y-74584990D01*
X140366371Y-74977630D01*
X140280051Y-75185512D01*
X140195010Y-74979697D01*
X139802370Y-74586371D01*
X139610273Y-74506605D01*
X139741143Y-74452397D01*
X139810608Y-74210213D01*
X139010000Y-73409605D01*
X138209392Y-74210213D01*
X138278857Y-74452397D01*
X138419318Y-74502509D01*
X138219697Y-74584990D01*
X137826371Y-74977630D01*
X137740051Y-75185512D01*
X137655010Y-74979697D01*
X137262370Y-74586371D01*
X137054488Y-74500051D01*
X137260303Y-74415010D01*
X137653629Y-74022370D01*
X137733395Y-73830273D01*
X137787603Y-73961143D01*
X138029787Y-74030608D01*
X138830395Y-73230000D01*
X138029787Y-72429392D01*
X137787603Y-72498857D01*
X137737491Y-72639318D01*
X137655010Y-72439697D01*
X137465432Y-72249787D01*
X138209392Y-72249787D01*
X139010000Y-73050395D01*
X139810608Y-72249787D01*
X139741143Y-72007603D01*
X139217698Y-71820856D01*
X138662632Y-71848638D01*
X138278857Y-72007603D01*
X138209392Y-72249787D01*
X137465432Y-72249787D01*
X137262370Y-72046371D01*
X136749100Y-71833243D01*
X136193339Y-71832758D01*
X135679697Y-72044990D01*
X135286371Y-72437630D01*
X135206605Y-72629727D01*
X135152397Y-72498857D01*
X134910213Y-72429392D01*
X134109605Y-73230000D01*
X134910213Y-74030608D01*
X135152397Y-73961143D01*
X135202509Y-73820682D01*
X135284990Y-74020303D01*
X135677630Y-74413629D01*
X135885512Y-74499949D01*
X135679697Y-74584990D01*
X135286371Y-74977630D01*
X135200051Y-75185512D01*
X135115010Y-74979697D01*
X134722370Y-74586371D01*
X134530273Y-74506605D01*
X134661143Y-74452397D01*
X134730608Y-74210213D01*
X133930000Y-73409605D01*
X133129392Y-74210213D01*
X133198857Y-74452397D01*
X133339318Y-74502509D01*
X133139697Y-74584990D01*
X132746371Y-74977630D01*
X132660051Y-75185512D01*
X132575010Y-74979697D01*
X132182370Y-74586371D01*
X131974488Y-74500051D01*
X132180303Y-74415010D01*
X132573629Y-74022370D01*
X132653395Y-73830273D01*
X132707603Y-73961143D01*
X132949787Y-74030608D01*
X133750395Y-73230000D01*
X132949787Y-72429392D01*
X132707603Y-72498857D01*
X132657491Y-72639318D01*
X132575010Y-72439697D01*
X132385432Y-72249787D01*
X133129392Y-72249787D01*
X133930000Y-73050395D01*
X134730608Y-72249787D01*
X134661143Y-72007603D01*
X134137698Y-71820856D01*
X133582632Y-71848638D01*
X133198857Y-72007603D01*
X133129392Y-72249787D01*
X132385432Y-72249787D01*
X132182370Y-72046371D01*
X131669100Y-71833243D01*
X131113339Y-71832758D01*
X130599697Y-72044990D01*
X130206371Y-72437630D01*
X130120051Y-72645512D01*
X130035010Y-72439697D01*
X129642370Y-72046371D01*
X129129100Y-71833243D01*
X128573339Y-71832758D01*
X128059697Y-72044990D01*
X127666371Y-72437630D01*
X127580051Y-72645512D01*
X127495010Y-72439697D01*
X127102370Y-72046371D01*
X126589100Y-71833243D01*
X126033339Y-71832758D01*
X125519697Y-72044990D01*
X125126371Y-72437630D01*
X125040051Y-72645512D01*
X124955010Y-72439697D01*
X124562370Y-72046371D01*
X124049100Y-71833243D01*
X123493339Y-71832758D01*
X122979697Y-72044990D01*
X122586371Y-72437630D01*
X122506605Y-72629727D01*
X122452397Y-72498857D01*
X122210213Y-72429392D01*
X121409605Y-73230000D01*
X122210213Y-74030608D01*
X122452397Y-73961143D01*
X122502509Y-73820682D01*
X122584990Y-74020303D01*
X122977630Y-74413629D01*
X123185512Y-74499949D01*
X122979697Y-74584990D01*
X122586371Y-74977630D01*
X122500051Y-75185512D01*
X122415010Y-74979697D01*
X122022370Y-74586371D01*
X121830273Y-74506605D01*
X121961143Y-74452397D01*
X122030608Y-74210213D01*
X121230000Y-73409605D01*
X120429392Y-74210213D01*
X120498857Y-74452397D01*
X120639318Y-74502509D01*
X120439697Y-74584990D01*
X120046371Y-74977630D01*
X119960051Y-75185512D01*
X119875010Y-74979697D01*
X119482370Y-74586371D01*
X119274488Y-74500051D01*
X119480303Y-74415010D01*
X119873629Y-74022370D01*
X119953395Y-73830273D01*
X120007603Y-73961143D01*
X120249787Y-74030608D01*
X121050395Y-73230000D01*
X120249787Y-72429392D01*
X120007603Y-72498857D01*
X119957491Y-72639318D01*
X119875010Y-72439697D01*
X119685432Y-72249787D01*
X120429392Y-72249787D01*
X121230000Y-73050395D01*
X122030608Y-72249787D01*
X121961143Y-72007603D01*
X121437698Y-71820856D01*
X120882632Y-71848638D01*
X120498857Y-72007603D01*
X120429392Y-72249787D01*
X119685432Y-72249787D01*
X119482370Y-72046371D01*
X118969100Y-71833243D01*
X118413339Y-71832758D01*
X117899697Y-72044990D01*
X117506371Y-72437630D01*
X117420051Y-72645512D01*
X117335010Y-72439697D01*
X116942370Y-72046371D01*
X116429100Y-71833243D01*
X115873339Y-71832758D01*
X115359697Y-72044990D01*
X114966371Y-72437630D01*
X114886605Y-72629727D01*
X114832397Y-72498857D01*
X114590213Y-72429392D01*
X113789605Y-73230000D01*
X114590213Y-74030608D01*
X114832397Y-73961143D01*
X114882509Y-73820682D01*
X114964990Y-74020303D01*
X115357630Y-74413629D01*
X115565512Y-74499949D01*
X115359697Y-74584990D01*
X114966371Y-74977630D01*
X114880051Y-75185512D01*
X114795010Y-74979697D01*
X114402370Y-74586371D01*
X114210273Y-74506605D01*
X114341143Y-74452397D01*
X114410608Y-74210213D01*
X113610000Y-73409605D01*
X112809392Y-74210213D01*
X112878857Y-74452397D01*
X113019318Y-74502509D01*
X112819697Y-74584990D01*
X112426371Y-74977630D01*
X112340051Y-75185512D01*
X112255010Y-74979697D01*
X111862370Y-74586371D01*
X111654488Y-74500051D01*
X111860303Y-74415010D01*
X112253629Y-74022370D01*
X112333395Y-73830273D01*
X112387603Y-73961143D01*
X112629787Y-74030608D01*
X113430395Y-73230000D01*
X112629787Y-72429392D01*
X112387603Y-72498857D01*
X112337491Y-72639318D01*
X112255010Y-72439697D01*
X112065432Y-72249787D01*
X112809392Y-72249787D01*
X113610000Y-73050395D01*
X114410608Y-72249787D01*
X114341143Y-72007603D01*
X113817698Y-71820856D01*
X113262632Y-71848638D01*
X112878857Y-72007603D01*
X112809392Y-72249787D01*
X112065432Y-72249787D01*
X111862370Y-72046371D01*
X111349100Y-71833243D01*
X110793339Y-71832758D01*
X110279697Y-72044990D01*
X109886371Y-72437630D01*
X109800051Y-72645512D01*
X109715010Y-72439697D01*
X109322370Y-72046371D01*
X108809100Y-71833243D01*
X108253339Y-71832758D01*
X107739697Y-72044990D01*
X107346371Y-72437630D01*
X107260051Y-72645512D01*
X107175010Y-72439697D01*
X106782370Y-72046371D01*
X106269100Y-71833243D01*
X105713339Y-71832758D01*
X105199697Y-72044990D01*
X104806371Y-72437630D01*
X104726605Y-72629727D01*
X104672397Y-72498857D01*
X104430213Y-72429392D01*
X103629605Y-73230000D01*
X104430213Y-74030608D01*
X104672397Y-73961143D01*
X104722509Y-73820682D01*
X104804990Y-74020303D01*
X105197630Y-74413629D01*
X105405512Y-74499949D01*
X105199697Y-74584990D01*
X104806371Y-74977630D01*
X104720051Y-75185512D01*
X104635010Y-74979697D01*
X104242370Y-74586371D01*
X104050273Y-74506605D01*
X104181143Y-74452397D01*
X104250608Y-74210213D01*
X103450000Y-73409605D01*
X102649392Y-74210213D01*
X102718857Y-74452397D01*
X102859318Y-74502509D01*
X102659697Y-74584990D01*
X102266371Y-74977630D01*
X102180051Y-75185512D01*
X102095010Y-74979697D01*
X101702370Y-74586371D01*
X101494488Y-74500051D01*
X101700303Y-74415010D01*
X102093629Y-74022370D01*
X102173395Y-73830273D01*
X102227603Y-73961143D01*
X102469787Y-74030608D01*
X103270395Y-73230000D01*
X102469787Y-72429392D01*
X102227603Y-72498857D01*
X102177491Y-72639318D01*
X102095010Y-72439697D01*
X101905432Y-72249787D01*
X102649392Y-72249787D01*
X103450000Y-73050395D01*
X104250608Y-72249787D01*
X104181143Y-72007603D01*
X103657698Y-71820856D01*
X103102632Y-71848638D01*
X102718857Y-72007603D01*
X102649392Y-72249787D01*
X101905432Y-72249787D01*
X101702370Y-72046371D01*
X101189100Y-71833243D01*
X100633339Y-71832758D01*
X100119697Y-72044990D01*
X99726371Y-72437630D01*
X99640051Y-72645512D01*
X99555010Y-72439697D01*
X99162370Y-72046371D01*
X98649100Y-71833243D01*
X98093339Y-71832758D01*
X97579697Y-72044990D01*
X97186371Y-72437630D01*
X96973243Y-72950900D01*
X96972758Y-73506661D01*
X97184990Y-74020303D01*
X97577630Y-74413629D01*
X97785512Y-74499949D01*
X97579697Y-74584990D01*
X97186371Y-74977630D01*
X96973243Y-75490900D01*
X96972758Y-76046661D01*
X97184990Y-76560303D01*
X97577630Y-76953629D01*
X98090900Y-77166757D01*
X98646661Y-77167242D01*
X99160303Y-76955010D01*
X99553629Y-76562370D01*
X99639949Y-76354488D01*
X99724990Y-76560303D01*
X100117630Y-76953629D01*
X100630900Y-77166757D01*
X101186661Y-77167242D01*
X101700303Y-76955010D01*
X102093629Y-76562370D01*
X102179949Y-76354488D01*
X102264990Y-76560303D01*
X102657630Y-76953629D01*
X103170900Y-77166757D01*
X103726661Y-77167242D01*
X104240303Y-76955010D01*
X104633629Y-76562370D01*
X104719949Y-76354488D01*
X104804990Y-76560303D01*
X105197630Y-76953629D01*
X105710900Y-77166757D01*
X106266661Y-77167242D01*
X106780303Y-76955010D01*
X107173629Y-76562370D01*
X107259949Y-76354488D01*
X107344990Y-76560303D01*
X107737630Y-76953629D01*
X108250900Y-77166757D01*
X108806661Y-77167242D01*
X109320303Y-76955010D01*
X109713629Y-76562370D01*
X109799949Y-76354488D01*
X109884990Y-76560303D01*
X110277630Y-76953629D01*
X110790900Y-77166757D01*
X111346661Y-77167242D01*
X111860303Y-76955010D01*
X112253629Y-76562370D01*
X112339949Y-76354488D01*
X112424990Y-76560303D01*
X112817630Y-76953629D01*
X113330900Y-77166757D01*
X113886661Y-77167242D01*
X114400303Y-76955010D01*
X114793629Y-76562370D01*
X114879949Y-76354488D01*
X114964990Y-76560303D01*
X115265000Y-76860837D01*
X115265000Y-77911682D01*
X115187189Y-77961753D01*
X114997390Y-77832069D01*
X114959318Y-77824359D01*
X114806675Y-77722367D01*
X114468000Y-77655000D01*
X114129325Y-77722367D01*
X114014430Y-77799137D01*
X113875183Y-77825338D01*
X113659059Y-77964410D01*
X113514069Y-78176610D01*
X113463060Y-78428500D01*
X113463060Y-79571500D01*
X113507338Y-79806817D01*
X113583000Y-79924399D01*
X113583000Y-83967995D01*
X113582999Y-83968000D01*
X113615297Y-84130367D01*
X113650367Y-84306675D01*
X113713006Y-84400421D01*
X113842210Y-84593790D01*
X115494208Y-86245787D01*
X115494210Y-86245790D01*
X115781325Y-86437633D01*
X115837516Y-86448810D01*
X116120000Y-86505001D01*
X116120005Y-86505000D01*
X116613178Y-86505000D01*
X116733201Y-86554838D01*
X117105167Y-86555162D01*
X117279813Y-86483000D01*
X122920978Y-86483000D01*
X122833500Y-86694191D01*
X122833500Y-86852250D01*
X122992250Y-87011000D01*
X123913000Y-87011000D01*
X123913000Y-86991000D01*
X124167000Y-86991000D01*
X124167000Y-87011000D01*
X125087750Y-87011000D01*
X125246500Y-86852250D01*
X125246500Y-86694191D01*
X125159022Y-86483000D01*
X128414351Y-86483000D01*
X128333500Y-86678191D01*
X128333500Y-86836250D01*
X128492250Y-86995000D01*
X129413000Y-86995000D01*
X129413000Y-86975000D01*
X129667000Y-86975000D01*
X129667000Y-86995000D01*
X129687000Y-86995000D01*
X129687000Y-87249000D01*
X129667000Y-87249000D01*
X129667000Y-87269000D01*
X129413000Y-87269000D01*
X129413000Y-87249000D01*
X128492250Y-87249000D01*
X128333500Y-87407750D01*
X128333500Y-87565809D01*
X128430173Y-87799198D01*
X128608801Y-87977827D01*
X128830614Y-88069705D01*
X128674210Y-88174210D01*
X128674208Y-88174213D01*
X128244210Y-88604210D01*
X128183799Y-88694622D01*
X127821165Y-89057256D01*
X127701057Y-89106883D01*
X127437808Y-89369673D01*
X127295162Y-89713201D01*
X127295032Y-89862804D01*
X127215790Y-89744210D01*
X127215787Y-89744208D01*
X126782744Y-89311165D01*
X126733117Y-89191057D01*
X126470327Y-88927808D01*
X126349013Y-88877434D01*
X125507790Y-88036210D01*
X125481735Y-88018801D01*
X125220675Y-87844367D01*
X125164484Y-87833190D01*
X125137252Y-87827773D01*
X125149827Y-87815198D01*
X125246500Y-87581809D01*
X125246500Y-87423750D01*
X125087750Y-87265000D01*
X124167000Y-87265000D01*
X124167000Y-87285000D01*
X123913000Y-87285000D01*
X123913000Y-87265000D01*
X122992250Y-87265000D01*
X122833500Y-87423750D01*
X122833500Y-87581809D01*
X122930173Y-87815198D01*
X123008261Y-87893286D01*
X122872069Y-88092610D01*
X122821060Y-88344500D01*
X122821060Y-88979500D01*
X122865338Y-89214817D01*
X123004410Y-89430941D01*
X123216610Y-89575931D01*
X123468500Y-89626940D01*
X124595360Y-89626940D01*
X125097255Y-90128835D01*
X125146883Y-90248943D01*
X125409673Y-90512192D01*
X125530986Y-90562566D01*
X125705000Y-90736579D01*
X125705000Y-90825038D01*
X125474833Y-90824838D01*
X125131057Y-90966883D01*
X124892524Y-91205000D01*
X121487000Y-91205000D01*
X121487000Y-91085732D01*
X121515931Y-91043390D01*
X121566940Y-90791500D01*
X121566940Y-89648500D01*
X121522662Y-89413183D01*
X121487000Y-89357763D01*
X121487000Y-89145003D01*
X121535931Y-89073390D01*
X121586940Y-88821500D01*
X121586940Y-87678500D01*
X121542662Y-87443183D01*
X121403590Y-87227059D01*
X121191390Y-87082069D01*
X120939500Y-87031060D01*
X120304500Y-87031060D01*
X120069183Y-87075338D01*
X119853059Y-87214410D01*
X119851588Y-87216563D01*
X119775198Y-87140173D01*
X119541809Y-87043500D01*
X119383750Y-87043500D01*
X119225000Y-87202250D01*
X119225000Y-88123000D01*
X119245000Y-88123000D01*
X119245000Y-88377000D01*
X119225000Y-88377000D01*
X119225000Y-89152250D01*
X119205000Y-89172250D01*
X119205000Y-90093000D01*
X119225000Y-90093000D01*
X119225000Y-90347000D01*
X119205000Y-90347000D01*
X119205000Y-90367000D01*
X118951000Y-90367000D01*
X118951000Y-90347000D01*
X118284250Y-90347000D01*
X118125500Y-90505750D01*
X118125500Y-90917810D01*
X118222173Y-91151199D01*
X118228561Y-91157587D01*
X118154069Y-91266610D01*
X118103060Y-91518500D01*
X118103060Y-92661500D01*
X118147338Y-92896817D01*
X118183000Y-92952237D01*
X118183000Y-104746455D01*
X118094069Y-104876610D01*
X118080632Y-104942966D01*
X117905027Y-105060301D01*
X117905162Y-104904833D01*
X117845000Y-104759229D01*
X117845000Y-94526822D01*
X117894838Y-94406799D01*
X117895162Y-94034833D01*
X117753117Y-93691057D01*
X117490327Y-93427808D01*
X117146799Y-93285162D01*
X116774833Y-93284838D01*
X116431057Y-93426883D01*
X116167808Y-93689673D01*
X116025162Y-94033201D01*
X116024838Y-94405167D01*
X116075000Y-94526569D01*
X116075000Y-104807261D01*
X116035162Y-104903201D01*
X116034838Y-105275167D01*
X116176883Y-105618943D01*
X116439673Y-105882192D01*
X116783201Y-106024838D01*
X117055654Y-106025075D01*
X116994999Y-106330000D01*
X116995000Y-106330005D01*
X116995000Y-111023421D01*
X112755790Y-106784210D01*
X112724348Y-106763201D01*
X112468675Y-106592367D01*
X112412484Y-106581190D01*
X112130000Y-106524999D01*
X112129995Y-106525000D01*
X106096822Y-106525000D01*
X105976799Y-106475162D01*
X105604833Y-106474838D01*
X105261057Y-106616883D01*
X104997808Y-106879673D01*
X104855162Y-107223201D01*
X104854838Y-107595167D01*
X104996883Y-107938943D01*
X105259673Y-108202192D01*
X105603201Y-108344838D01*
X105975167Y-108345162D01*
X106096569Y-108295000D01*
X111763420Y-108295000D01*
X119447255Y-115978834D01*
X119496883Y-116098943D01*
X119759673Y-116362192D01*
X120103201Y-116504838D01*
X120475167Y-116505162D01*
X120818943Y-116363117D01*
X121082192Y-116100327D01*
X121145731Y-115947310D01*
X122054208Y-116855787D01*
X122054210Y-116855790D01*
X122323668Y-117035835D01*
X122341325Y-117047633D01*
X122491013Y-117077408D01*
X120633420Y-118935000D01*
X120020005Y-118935000D01*
X120020000Y-118934999D01*
X119681326Y-119002366D01*
X119595071Y-119060000D01*
X119394210Y-119194210D01*
X119394208Y-119194213D01*
X115071164Y-123517256D01*
X114951057Y-123566883D01*
X114687808Y-123829673D01*
X114665838Y-123882583D01*
X113933420Y-124615000D01*
X105296579Y-124615000D01*
X102765000Y-122083420D01*
X102765000Y-121255167D01*
X112934838Y-121255167D01*
X113076883Y-121598943D01*
X113339673Y-121862192D01*
X113683201Y-122004838D01*
X114055167Y-122005162D01*
X114398943Y-121863117D01*
X114662192Y-121600327D01*
X114804838Y-121256799D01*
X114805162Y-120884833D01*
X114663117Y-120541057D01*
X114400327Y-120277808D01*
X114056799Y-120135162D01*
X113684833Y-120134838D01*
X113341057Y-120276883D01*
X113077808Y-120539673D01*
X112935162Y-120883201D01*
X112934838Y-121255167D01*
X102765000Y-121255167D01*
X102765000Y-111117379D01*
X102868942Y-111272940D01*
X102884210Y-111295790D01*
X106107255Y-114518834D01*
X106156883Y-114638943D01*
X106419673Y-114902192D01*
X106763201Y-115044838D01*
X107135167Y-115045162D01*
X107478943Y-114903117D01*
X107742192Y-114640327D01*
X107884838Y-114296799D01*
X107885162Y-113924833D01*
X107743117Y-113581057D01*
X107480327Y-113317808D01*
X107359013Y-113267434D01*
X104395000Y-110303420D01*
X104395000Y-100075928D01*
X104633201Y-100174838D01*
X105005167Y-100175162D01*
X105348943Y-100033117D01*
X105612192Y-99770327D01*
X105754838Y-99426799D01*
X105755162Y-99054833D01*
X105635000Y-98764018D01*
X105635000Y-96546822D01*
X105684838Y-96426799D01*
X105685162Y-96054833D01*
X105635000Y-95933431D01*
X105635000Y-95660005D01*
X105635001Y-95660000D01*
X105567633Y-95321326D01*
X105567633Y-95321325D01*
X105407174Y-95081179D01*
X105446941Y-95055590D01*
X105448412Y-95053437D01*
X105524802Y-95129827D01*
X105758191Y-95226500D01*
X105916250Y-95226500D01*
X106075000Y-95067750D01*
X106075000Y-94147000D01*
X106329000Y-94147000D01*
X106329000Y-95067750D01*
X106487750Y-95226500D01*
X106645809Y-95226500D01*
X106879198Y-95129827D01*
X107057827Y-94951199D01*
X107154500Y-94717810D01*
X107154500Y-94305750D01*
X106995750Y-94147000D01*
X106329000Y-94147000D01*
X106075000Y-94147000D01*
X106055000Y-94147000D01*
X106055000Y-93893000D01*
X106075000Y-93893000D01*
X106075000Y-92972250D01*
X106065000Y-92962250D01*
X106065000Y-92387000D01*
X106319000Y-92387000D01*
X106319000Y-93307750D01*
X106329000Y-93317750D01*
X106329000Y-93893000D01*
X106995750Y-93893000D01*
X107154500Y-93734250D01*
X107154500Y-93322190D01*
X107074034Y-93127929D01*
X107144500Y-92957810D01*
X107144500Y-92545750D01*
X106985750Y-92387000D01*
X106319000Y-92387000D01*
X106065000Y-92387000D01*
X106045000Y-92387000D01*
X106045000Y-92133000D01*
X106065000Y-92133000D01*
X106065000Y-91667750D01*
X106075000Y-91657750D01*
X106075000Y-91212250D01*
X106319000Y-91212250D01*
X106319000Y-92133000D01*
X106985750Y-92133000D01*
X107144500Y-91974250D01*
X107144500Y-91562190D01*
X107096816Y-91447071D01*
X107154500Y-91307810D01*
X107154500Y-90895750D01*
X106995750Y-90737000D01*
X106329000Y-90737000D01*
X106329000Y-91202250D01*
X106319000Y-91212250D01*
X106075000Y-91212250D01*
X106075000Y-90737000D01*
X106055000Y-90737000D01*
X106055000Y-90483000D01*
X106075000Y-90483000D01*
X106075000Y-89562250D01*
X106065000Y-89552250D01*
X106065000Y-89077000D01*
X106319000Y-89077000D01*
X106319000Y-89997750D01*
X106329000Y-90007750D01*
X106329000Y-90483000D01*
X106995750Y-90483000D01*
X107154500Y-90324250D01*
X107154500Y-89912190D01*
X107094745Y-89767929D01*
X107144500Y-89647810D01*
X107144500Y-89522190D01*
X118125500Y-89522190D01*
X118125500Y-89934250D01*
X118284250Y-90093000D01*
X118951000Y-90093000D01*
X118951000Y-89317750D01*
X118971000Y-89297750D01*
X118971000Y-88377000D01*
X118304250Y-88377000D01*
X118145500Y-88535750D01*
X118145500Y-88947810D01*
X118242173Y-89181199D01*
X118285974Y-89225000D01*
X118222173Y-89288801D01*
X118125500Y-89522190D01*
X107144500Y-89522190D01*
X107144500Y-89235750D01*
X106985750Y-89077000D01*
X106319000Y-89077000D01*
X106065000Y-89077000D01*
X106045000Y-89077000D01*
X106045000Y-88823000D01*
X106065000Y-88823000D01*
X106065000Y-87902250D01*
X106055000Y-87892250D01*
X106055000Y-87457000D01*
X106309000Y-87457000D01*
X106309000Y-88377750D01*
X106319000Y-88387750D01*
X106319000Y-88823000D01*
X106985750Y-88823000D01*
X107144500Y-88664250D01*
X107144500Y-88252190D01*
X107093029Y-88127929D01*
X107134500Y-88027810D01*
X107134500Y-87615750D01*
X107070940Y-87552190D01*
X118145500Y-87552190D01*
X118145500Y-87964250D01*
X118304250Y-88123000D01*
X118971000Y-88123000D01*
X118971000Y-87202250D01*
X118812250Y-87043500D01*
X118654191Y-87043500D01*
X118420802Y-87140173D01*
X118242173Y-87318801D01*
X118145500Y-87552190D01*
X107070940Y-87552190D01*
X106975750Y-87457000D01*
X106309000Y-87457000D01*
X106055000Y-87457000D01*
X106035000Y-87457000D01*
X106035000Y-87203000D01*
X106055000Y-87203000D01*
X106055000Y-86282250D01*
X106309000Y-86282250D01*
X106309000Y-87203000D01*
X106975750Y-87203000D01*
X107134500Y-87044250D01*
X107134500Y-86632190D01*
X107037827Y-86398801D01*
X106859198Y-86220173D01*
X106625809Y-86123500D01*
X106467750Y-86123500D01*
X106309000Y-86282250D01*
X106055000Y-86282250D01*
X105896250Y-86123500D01*
X105738191Y-86123500D01*
X105504802Y-86220173D01*
X105426714Y-86298261D01*
X105227390Y-86162069D01*
X104975500Y-86111060D01*
X104340500Y-86111060D01*
X104105183Y-86155338D01*
X103889059Y-86294410D01*
X103744069Y-86506610D01*
X103693060Y-86758500D01*
X103693060Y-87901500D01*
X103737338Y-88136817D01*
X103748492Y-88154151D01*
X103703060Y-88378500D01*
X103703060Y-89521500D01*
X103747338Y-89756817D01*
X103765326Y-89784771D01*
X103764069Y-89786610D01*
X103713060Y-90038500D01*
X103713060Y-91181500D01*
X103757338Y-91416817D01*
X103762312Y-91424546D01*
X103754069Y-91436610D01*
X103703060Y-91688500D01*
X103703060Y-92831500D01*
X103747338Y-93066817D01*
X103783000Y-93122237D01*
X103783000Y-93164240D01*
X103651854Y-93190327D01*
X103591325Y-93202367D01*
X103304210Y-93394210D01*
X103304208Y-93394213D01*
X102884210Y-93814210D01*
X102765000Y-93992621D01*
X102765000Y-82216580D01*
X103748834Y-81232745D01*
X103868943Y-81183117D01*
X104132192Y-80920327D01*
X104274838Y-80576799D01*
X104275162Y-80204833D01*
X104133117Y-79861057D01*
X103870327Y-79597808D01*
X103526799Y-79455162D01*
X103154833Y-79454838D01*
X102811057Y-79596883D01*
X102547808Y-79859673D01*
X102497434Y-79980987D01*
X101254210Y-81224210D01*
X101062367Y-81511325D01*
X101062367Y-81511326D01*
X100994999Y-81850000D01*
X100995000Y-81850005D01*
X100995000Y-105991444D01*
X100889013Y-105947434D01*
X100885000Y-105943421D01*
X100885000Y-104010000D01*
X100817633Y-103671325D01*
X100625790Y-103384210D01*
X100625787Y-103384208D01*
X99492744Y-102251164D01*
X99443117Y-102131057D01*
X99180327Y-101867808D01*
X98836799Y-101725162D01*
X98464833Y-101724838D01*
X98121057Y-101866883D01*
X97857808Y-102129673D01*
X97715162Y-102473201D01*
X97714838Y-102845167D01*
X97856883Y-103188943D01*
X98119673Y-103452192D01*
X98240986Y-103502566D01*
X99115000Y-104376579D01*
X99115000Y-106309995D01*
X99114999Y-106310000D01*
X99171167Y-106592367D01*
X99182367Y-106648675D01*
X99336714Y-106879673D01*
X99374210Y-106935790D01*
X99637255Y-107198835D01*
X99686883Y-107318943D01*
X99949673Y-107582192D01*
X100293201Y-107724838D01*
X100665167Y-107725162D01*
X100995000Y-107588878D01*
X100995000Y-122449995D01*
X100994999Y-122450000D01*
X101028815Y-122620000D01*
X101062367Y-122788675D01*
X101211101Y-123011272D01*
X101254210Y-123075790D01*
X104304208Y-126125787D01*
X104304210Y-126125790D01*
X104587384Y-126315000D01*
X91067466Y-126315000D01*
X90884590Y-126278624D01*
X90786751Y-126213250D01*
X90721376Y-126115409D01*
X90685000Y-125932534D01*
X90685000Y-119749426D01*
X90775486Y-119945044D01*
X91505989Y-120227246D01*
X92288880Y-120208415D01*
X92924714Y-119945044D01*
X93064165Y-119643570D01*
X95735835Y-119643570D01*
X95875286Y-119945044D01*
X96605789Y-120227246D01*
X97388680Y-120208415D01*
X98024514Y-119945044D01*
X98163965Y-119643570D01*
X96949900Y-118429505D01*
X95735835Y-119643570D01*
X93064165Y-119643570D01*
X91850100Y-118429505D01*
X91835958Y-118443648D01*
X91656353Y-118264043D01*
X91670495Y-118249900D01*
X92029705Y-118249900D01*
X93243770Y-119463965D01*
X93545244Y-119324514D01*
X93827446Y-118594011D01*
X93810893Y-117905789D01*
X94972554Y-117905789D01*
X94991385Y-118688680D01*
X95254756Y-119324514D01*
X95556230Y-119463965D01*
X96770295Y-118249900D01*
X97129505Y-118249900D01*
X98343570Y-119463965D01*
X98645044Y-119324514D01*
X98927246Y-118594011D01*
X98908415Y-117811120D01*
X98645044Y-117175286D01*
X98343570Y-117035835D01*
X97129505Y-118249900D01*
X96770295Y-118249900D01*
X95556230Y-117035835D01*
X95254756Y-117175286D01*
X94972554Y-117905789D01*
X93810893Y-117905789D01*
X93808615Y-117811120D01*
X93545244Y-117175286D01*
X93243770Y-117035835D01*
X92029705Y-118249900D01*
X91670495Y-118249900D01*
X91656353Y-118235758D01*
X91835958Y-118056153D01*
X91850100Y-118070295D01*
X93064165Y-116856230D01*
X92924714Y-116554756D01*
X92194211Y-116272554D01*
X91411320Y-116291385D01*
X90775486Y-116554756D01*
X90685000Y-116750374D01*
X90685000Y-116014388D01*
X92812225Y-116014388D01*
X93053398Y-116598072D01*
X93499579Y-117045032D01*
X94082841Y-117287224D01*
X94714388Y-117287775D01*
X95298072Y-117046602D01*
X95488776Y-116856230D01*
X95735835Y-116856230D01*
X96949900Y-118070295D01*
X98163965Y-116856230D01*
X98024514Y-116554756D01*
X97294011Y-116272554D01*
X96511120Y-116291385D01*
X95875286Y-116554756D01*
X95735835Y-116856230D01*
X95488776Y-116856230D01*
X95745032Y-116600421D01*
X95987224Y-116017159D01*
X95987775Y-115385612D01*
X95746602Y-114801928D01*
X95488894Y-114543770D01*
X95735835Y-114543770D01*
X95875286Y-114845244D01*
X96605789Y-115127446D01*
X97388680Y-115108615D01*
X98024514Y-114845244D01*
X98163965Y-114543770D01*
X96949900Y-113329705D01*
X95735835Y-114543770D01*
X95488894Y-114543770D01*
X95300421Y-114354968D01*
X94717159Y-114112776D01*
X94085612Y-114112225D01*
X93501928Y-114353398D01*
X93054968Y-114799579D01*
X92812776Y-115382841D01*
X92812225Y-116014388D01*
X90685000Y-116014388D01*
X90685000Y-114649626D01*
X90775486Y-114845244D01*
X91505989Y-115127446D01*
X92288880Y-115108615D01*
X92924714Y-114845244D01*
X93064165Y-114543770D01*
X91850100Y-113329705D01*
X91835958Y-113343848D01*
X91656353Y-113164243D01*
X91670495Y-113150100D01*
X92029705Y-113150100D01*
X93243770Y-114364165D01*
X93545244Y-114224714D01*
X93827446Y-113494211D01*
X93810893Y-112805989D01*
X94972554Y-112805989D01*
X94991385Y-113588880D01*
X95254756Y-114224714D01*
X95556230Y-114364165D01*
X96770295Y-113150100D01*
X97129505Y-113150100D01*
X98343570Y-114364165D01*
X98645044Y-114224714D01*
X98927246Y-113494211D01*
X98908415Y-112711320D01*
X98645044Y-112075486D01*
X98343570Y-111936035D01*
X97129505Y-113150100D01*
X96770295Y-113150100D01*
X95556230Y-111936035D01*
X95254756Y-112075486D01*
X94972554Y-112805989D01*
X93810893Y-112805989D01*
X93808615Y-112711320D01*
X93545244Y-112075486D01*
X93243770Y-111936035D01*
X92029705Y-113150100D01*
X91670495Y-113150100D01*
X91656353Y-113135958D01*
X91835958Y-112956353D01*
X91850100Y-112970495D01*
X93064165Y-111756430D01*
X95735835Y-111756430D01*
X96949900Y-112970495D01*
X98163965Y-111756430D01*
X98024514Y-111454956D01*
X97294011Y-111172754D01*
X96511120Y-111191585D01*
X95875286Y-111454956D01*
X95735835Y-111756430D01*
X93064165Y-111756430D01*
X92924714Y-111454956D01*
X92194211Y-111172754D01*
X91411320Y-111191585D01*
X90775486Y-111454956D01*
X90685000Y-111650574D01*
X90685000Y-87494608D01*
X90736036Y-87443572D01*
X90875486Y-87745044D01*
X91605989Y-88027246D01*
X92388880Y-88008415D01*
X93024714Y-87745044D01*
X93164165Y-87443570D01*
X95835835Y-87443570D01*
X95975286Y-87745044D01*
X96705789Y-88027246D01*
X97488680Y-88008415D01*
X98124514Y-87745044D01*
X98263965Y-87443570D01*
X97049900Y-86229505D01*
X95835835Y-87443570D01*
X93164165Y-87443570D01*
X91950100Y-86229505D01*
X91935958Y-86243648D01*
X91756353Y-86064043D01*
X91770495Y-86049900D01*
X92129705Y-86049900D01*
X93343770Y-87263965D01*
X93645244Y-87124514D01*
X93927446Y-86394011D01*
X93910893Y-85705789D01*
X95072554Y-85705789D01*
X95091385Y-86488680D01*
X95354756Y-87124514D01*
X95656230Y-87263965D01*
X96870295Y-86049900D01*
X97229505Y-86049900D01*
X98443570Y-87263965D01*
X98745044Y-87124514D01*
X99027246Y-86394011D01*
X99008415Y-85611120D01*
X98745044Y-84975286D01*
X98443570Y-84835835D01*
X97229505Y-86049900D01*
X96870295Y-86049900D01*
X95656230Y-84835835D01*
X95354756Y-84975286D01*
X95072554Y-85705789D01*
X93910893Y-85705789D01*
X93908615Y-85611120D01*
X93645244Y-84975286D01*
X93343770Y-84835835D01*
X92129705Y-86049900D01*
X91770495Y-86049900D01*
X91756353Y-86035758D01*
X91935958Y-85856153D01*
X91950100Y-85870295D01*
X93164165Y-84656230D01*
X93024714Y-84354756D01*
X92294211Y-84072554D01*
X91511320Y-84091385D01*
X90875486Y-84354756D01*
X90736036Y-84656228D01*
X90685000Y-84605192D01*
X90685000Y-83814388D01*
X92912225Y-83814388D01*
X93153398Y-84398072D01*
X93599579Y-84845032D01*
X94182841Y-85087224D01*
X94814388Y-85087775D01*
X95398072Y-84846602D01*
X95588776Y-84656230D01*
X95835835Y-84656230D01*
X97049900Y-85870295D01*
X98263965Y-84656230D01*
X98124514Y-84354756D01*
X97394011Y-84072554D01*
X96611120Y-84091385D01*
X95975286Y-84354756D01*
X95835835Y-84656230D01*
X95588776Y-84656230D01*
X95845032Y-84400421D01*
X96087224Y-83817159D01*
X96087775Y-83185612D01*
X95846602Y-82601928D01*
X95588894Y-82343770D01*
X95835835Y-82343770D01*
X95975286Y-82645244D01*
X96705789Y-82927446D01*
X97488680Y-82908615D01*
X98124514Y-82645244D01*
X98263965Y-82343770D01*
X97049900Y-81129705D01*
X95835835Y-82343770D01*
X95588894Y-82343770D01*
X95400421Y-82154968D01*
X94817159Y-81912776D01*
X94185612Y-81912225D01*
X93601928Y-82153398D01*
X93154968Y-82599579D01*
X92912776Y-83182841D01*
X92912225Y-83814388D01*
X90685000Y-83814388D01*
X90685000Y-82394808D01*
X90736036Y-82343772D01*
X90875486Y-82645244D01*
X91605989Y-82927446D01*
X92388880Y-82908615D01*
X93024714Y-82645244D01*
X93164165Y-82343770D01*
X91950100Y-81129705D01*
X91935958Y-81143848D01*
X91756353Y-80964243D01*
X91770495Y-80950100D01*
X92129705Y-80950100D01*
X93343770Y-82164165D01*
X93645244Y-82024714D01*
X93927446Y-81294211D01*
X93910893Y-80605989D01*
X95072554Y-80605989D01*
X95091385Y-81388880D01*
X95354756Y-82024714D01*
X95656230Y-82164165D01*
X96870295Y-80950100D01*
X97229505Y-80950100D01*
X98443570Y-82164165D01*
X98745044Y-82024714D01*
X99027246Y-81294211D01*
X99008415Y-80511320D01*
X98745044Y-79875486D01*
X98443570Y-79736035D01*
X97229505Y-80950100D01*
X96870295Y-80950100D01*
X95656230Y-79736035D01*
X95354756Y-79875486D01*
X95072554Y-80605989D01*
X93910893Y-80605989D01*
X93908615Y-80511320D01*
X93645244Y-79875486D01*
X93343770Y-79736035D01*
X92129705Y-80950100D01*
X91770495Y-80950100D01*
X91756353Y-80935958D01*
X91935958Y-80756353D01*
X91950100Y-80770495D01*
X93164165Y-79556430D01*
X95835835Y-79556430D01*
X97049900Y-80770495D01*
X98263965Y-79556430D01*
X98124514Y-79254956D01*
X97394011Y-78972754D01*
X96611120Y-78991585D01*
X95975286Y-79254956D01*
X95835835Y-79556430D01*
X93164165Y-79556430D01*
X93024714Y-79254956D01*
X92294211Y-78972754D01*
X91511320Y-78991585D01*
X90875486Y-79254956D01*
X90736036Y-79556428D01*
X90685000Y-79505392D01*
X90685000Y-72067466D01*
X90721376Y-71884591D01*
X90786751Y-71786750D01*
X90884590Y-71721376D01*
X91067466Y-71685000D01*
X153932534Y-71685000D01*
X154115409Y-71721376D01*
X154115409Y-71721376D01*
G37*
X154115409Y-71721376D02*
X154213250Y-71786751D01*
X154278624Y-71884590D01*
X154315000Y-72067466D01*
X154315000Y-91243421D01*
X152735790Y-89664210D01*
X152712278Y-89648500D01*
X152448675Y-89472367D01*
X152368907Y-89456500D01*
X152110000Y-89404999D01*
X152109995Y-89405000D01*
X151212353Y-89405000D01*
X151123590Y-89267059D01*
X150911390Y-89122069D01*
X150659500Y-89071060D01*
X150024500Y-89071060D01*
X149789183Y-89115338D01*
X149577189Y-89251753D01*
X149387390Y-89122069D01*
X149135500Y-89071060D01*
X148661335Y-89071060D01*
X148732192Y-89000327D01*
X148874838Y-88656799D01*
X148875162Y-88284833D01*
X148733117Y-87941057D01*
X148470327Y-87677808D01*
X148126799Y-87535162D01*
X147754833Y-87534838D01*
X147681835Y-87565000D01*
X147647000Y-87565000D01*
X147647000Y-87512005D01*
X147647001Y-87512000D01*
X147587805Y-87214410D01*
X147579633Y-87173325D01*
X147387790Y-86886210D01*
X147387787Y-86886208D01*
X146975790Y-86474210D01*
X146955723Y-86460802D01*
X146688675Y-86282367D01*
X146607263Y-86266173D01*
X146350000Y-86214999D01*
X146349995Y-86215000D01*
X143950005Y-86215000D01*
X143950000Y-86214999D01*
X143883970Y-86228133D01*
X144122192Y-85990327D01*
X144264838Y-85646799D01*
X144265162Y-85274833D01*
X144123117Y-84931057D01*
X143860327Y-84667808D01*
X143516799Y-84525162D01*
X143144833Y-84524838D01*
X142801057Y-84666883D01*
X142739993Y-84727841D01*
X142739013Y-84727434D01*
X142593000Y-84581420D01*
X142593000Y-79955167D01*
X149524838Y-79955167D01*
X149666883Y-80298943D01*
X149929673Y-80562192D01*
X150273201Y-80704838D01*
X150645167Y-80705162D01*
X150988943Y-80563117D01*
X151252192Y-80300327D01*
X151394838Y-79956799D01*
X151395162Y-79584833D01*
X151253117Y-79241057D01*
X150990327Y-78977808D01*
X150646799Y-78835162D01*
X150274833Y-78834838D01*
X149931057Y-78976883D01*
X149667808Y-79239673D01*
X149525162Y-79583201D01*
X149524838Y-79955167D01*
X142593000Y-79955167D01*
X142593000Y-79567201D01*
X142652610Y-79607931D01*
X142904500Y-79658940D01*
X143539500Y-79658940D01*
X143774817Y-79614662D01*
X143990941Y-79475590D01*
X144135931Y-79263390D01*
X144186940Y-79011500D01*
X144186940Y-78526640D01*
X144715787Y-77997792D01*
X144715790Y-77997790D01*
X144907633Y-77710675D01*
X144926344Y-77616610D01*
X144975001Y-77372000D01*
X144975000Y-77371995D01*
X144975000Y-76860478D01*
X145085457Y-76750213D01*
X145829392Y-76750213D01*
X145898857Y-76992397D01*
X146422302Y-77179144D01*
X146977368Y-77151362D01*
X147361143Y-76992397D01*
X147430608Y-76750213D01*
X146630000Y-75949605D01*
X145829392Y-76750213D01*
X145085457Y-76750213D01*
X145273629Y-76562370D01*
X145353395Y-76370273D01*
X145407603Y-76501143D01*
X145649787Y-76570608D01*
X146450395Y-75770000D01*
X146809605Y-75770000D01*
X147610213Y-76570608D01*
X147852397Y-76501143D01*
X148039144Y-75977698D01*
X148011362Y-75422632D01*
X147852397Y-75038857D01*
X147610213Y-74969392D01*
X146809605Y-75770000D01*
X146450395Y-75770000D01*
X145649787Y-74969392D01*
X145407603Y-75038857D01*
X145357491Y-75179318D01*
X145275010Y-74979697D01*
X144882370Y-74586371D01*
X144674488Y-74500051D01*
X144880303Y-74415010D01*
X145273629Y-74022370D01*
X145359949Y-73814488D01*
X145444990Y-74020303D01*
X145837630Y-74413629D01*
X146029727Y-74493395D01*
X145898857Y-74547603D01*
X145829392Y-74789787D01*
X146630000Y-75590395D01*
X147430608Y-74789787D01*
X147361143Y-74547603D01*
X147220682Y-74497491D01*
X147420303Y-74415010D01*
X147813629Y-74022370D01*
X148026757Y-73509100D01*
X148027242Y-72953339D01*
X147815010Y-72439697D01*
X147422370Y-72046371D01*
X146909100Y-71833243D01*
X146353339Y-71832758D01*
X145839697Y-72044990D01*
X145446371Y-72437630D01*
X145360051Y-72645512D01*
X145275010Y-72439697D01*
X144882370Y-72046371D01*
X144369100Y-71833243D01*
X143813339Y-71832758D01*
X143299697Y-72044990D01*
X142906371Y-72437630D01*
X142820051Y-72645512D01*
X142735010Y-72439697D01*
X142342370Y-72046371D01*
X141829100Y-71833243D01*
X141273339Y-71832758D01*
X140759697Y-72044990D01*
X140366371Y-72437630D01*
X140286605Y-72629727D01*
X140232397Y-72498857D01*
X139990213Y-72429392D01*
X139189605Y-73230000D01*
X139990213Y-74030608D01*
X140232397Y-73961143D01*
X140282509Y-73820682D01*
X140364990Y-74020303D01*
X140757630Y-74413629D01*
X140965512Y-74499949D01*
X140759697Y-74584990D01*
X140366371Y-74977630D01*
X140280051Y-75185512D01*
X140195010Y-74979697D01*
X139802370Y-74586371D01*
X139610273Y-74506605D01*
X139741143Y-74452397D01*
X139810608Y-74210213D01*
X139010000Y-73409605D01*
X138209392Y-74210213D01*
X138278857Y-74452397D01*
X138419318Y-74502509D01*
X138219697Y-74584990D01*
X137826371Y-74977630D01*
X137740051Y-75185512D01*
X137655010Y-74979697D01*
X137262370Y-74586371D01*
X137054488Y-74500051D01*
X137260303Y-74415010D01*
X137653629Y-74022370D01*
X137733395Y-73830273D01*
X137787603Y-73961143D01*
X138029787Y-74030608D01*
X138830395Y-73230000D01*
X138029787Y-72429392D01*
X137787603Y-72498857D01*
X137737491Y-72639318D01*
X137655010Y-72439697D01*
X137465432Y-72249787D01*
X138209392Y-72249787D01*
X139010000Y-73050395D01*
X139810608Y-72249787D01*
X139741143Y-72007603D01*
X139217698Y-71820856D01*
X138662632Y-71848638D01*
X138278857Y-72007603D01*
X138209392Y-72249787D01*
X137465432Y-72249787D01*
X137262370Y-72046371D01*
X136749100Y-71833243D01*
X136193339Y-71832758D01*
X135679697Y-72044990D01*
X135286371Y-72437630D01*
X135206605Y-72629727D01*
X135152397Y-72498857D01*
X134910213Y-72429392D01*
X134109605Y-73230000D01*
X134910213Y-74030608D01*
X135152397Y-73961143D01*
X135202509Y-73820682D01*
X135284990Y-74020303D01*
X135677630Y-74413629D01*
X135885512Y-74499949D01*
X135679697Y-74584990D01*
X135286371Y-74977630D01*
X135200051Y-75185512D01*
X135115010Y-74979697D01*
X134722370Y-74586371D01*
X134530273Y-74506605D01*
X134661143Y-74452397D01*
X134730608Y-74210213D01*
X133930000Y-73409605D01*
X133129392Y-74210213D01*
X133198857Y-74452397D01*
X133339318Y-74502509D01*
X133139697Y-74584990D01*
X132746371Y-74977630D01*
X132660051Y-75185512D01*
X132575010Y-74979697D01*
X132182370Y-74586371D01*
X131974488Y-74500051D01*
X132180303Y-74415010D01*
X132573629Y-74022370D01*
X132653395Y-73830273D01*
X132707603Y-73961143D01*
X132949787Y-74030608D01*
X133750395Y-73230000D01*
X132949787Y-72429392D01*
X132707603Y-72498857D01*
X132657491Y-72639318D01*
X132575010Y-72439697D01*
X132385432Y-72249787D01*
X133129392Y-72249787D01*
X133930000Y-73050395D01*
X134730608Y-72249787D01*
X134661143Y-72007603D01*
X134137698Y-71820856D01*
X133582632Y-71848638D01*
X133198857Y-72007603D01*
X133129392Y-72249787D01*
X132385432Y-72249787D01*
X132182370Y-72046371D01*
X131669100Y-71833243D01*
X131113339Y-71832758D01*
X130599697Y-72044990D01*
X130206371Y-72437630D01*
X130120051Y-72645512D01*
X130035010Y-72439697D01*
X129642370Y-72046371D01*
X129129100Y-71833243D01*
X128573339Y-71832758D01*
X128059697Y-72044990D01*
X127666371Y-72437630D01*
X127580051Y-72645512D01*
X127495010Y-72439697D01*
X127102370Y-72046371D01*
X126589100Y-71833243D01*
X126033339Y-71832758D01*
X125519697Y-72044990D01*
X125126371Y-72437630D01*
X125040051Y-72645512D01*
X124955010Y-72439697D01*
X124562370Y-72046371D01*
X124049100Y-71833243D01*
X123493339Y-71832758D01*
X122979697Y-72044990D01*
X122586371Y-72437630D01*
X122506605Y-72629727D01*
X122452397Y-72498857D01*
X122210213Y-72429392D01*
X121409605Y-73230000D01*
X122210213Y-74030608D01*
X122452397Y-73961143D01*
X122502509Y-73820682D01*
X122584990Y-74020303D01*
X122977630Y-74413629D01*
X123185512Y-74499949D01*
X122979697Y-74584990D01*
X122586371Y-74977630D01*
X122500051Y-75185512D01*
X122415010Y-74979697D01*
X122022370Y-74586371D01*
X121830273Y-74506605D01*
X121961143Y-74452397D01*
X122030608Y-74210213D01*
X121230000Y-73409605D01*
X120429392Y-74210213D01*
X120498857Y-74452397D01*
X120639318Y-74502509D01*
X120439697Y-74584990D01*
X120046371Y-74977630D01*
X119960051Y-75185512D01*
X119875010Y-74979697D01*
X119482370Y-74586371D01*
X119274488Y-74500051D01*
X119480303Y-74415010D01*
X119873629Y-74022370D01*
X119953395Y-73830273D01*
X120007603Y-73961143D01*
X120249787Y-74030608D01*
X121050395Y-73230000D01*
X120249787Y-72429392D01*
X120007603Y-72498857D01*
X119957491Y-72639318D01*
X119875010Y-72439697D01*
X119685432Y-72249787D01*
X120429392Y-72249787D01*
X121230000Y-73050395D01*
X122030608Y-72249787D01*
X121961143Y-72007603D01*
X121437698Y-71820856D01*
X120882632Y-71848638D01*
X120498857Y-72007603D01*
X120429392Y-72249787D01*
X119685432Y-72249787D01*
X119482370Y-72046371D01*
X118969100Y-71833243D01*
X118413339Y-71832758D01*
X117899697Y-72044990D01*
X117506371Y-72437630D01*
X117420051Y-72645512D01*
X117335010Y-72439697D01*
X116942370Y-72046371D01*
X116429100Y-71833243D01*
X115873339Y-71832758D01*
X115359697Y-72044990D01*
X114966371Y-72437630D01*
X114886605Y-72629727D01*
X114832397Y-72498857D01*
X114590213Y-72429392D01*
X113789605Y-73230000D01*
X114590213Y-74030608D01*
X114832397Y-73961143D01*
X114882509Y-73820682D01*
X114964990Y-74020303D01*
X115357630Y-74413629D01*
X115565512Y-74499949D01*
X115359697Y-74584990D01*
X114966371Y-74977630D01*
X114880051Y-75185512D01*
X114795010Y-74979697D01*
X114402370Y-74586371D01*
X114210273Y-74506605D01*
X114341143Y-74452397D01*
X114410608Y-74210213D01*
X113610000Y-73409605D01*
X112809392Y-74210213D01*
X112878857Y-74452397D01*
X113019318Y-74502509D01*
X112819697Y-74584990D01*
X112426371Y-74977630D01*
X112340051Y-75185512D01*
X112255010Y-74979697D01*
X111862370Y-74586371D01*
X111654488Y-74500051D01*
X111860303Y-74415010D01*
X112253629Y-74022370D01*
X112333395Y-73830273D01*
X112387603Y-73961143D01*
X112629787Y-74030608D01*
X113430395Y-73230000D01*
X112629787Y-72429392D01*
X112387603Y-72498857D01*
X112337491Y-72639318D01*
X112255010Y-72439697D01*
X112065432Y-72249787D01*
X112809392Y-72249787D01*
X113610000Y-73050395D01*
X114410608Y-72249787D01*
X114341143Y-72007603D01*
X113817698Y-71820856D01*
X113262632Y-71848638D01*
X112878857Y-72007603D01*
X112809392Y-72249787D01*
X112065432Y-72249787D01*
X111862370Y-72046371D01*
X111349100Y-71833243D01*
X110793339Y-71832758D01*
X110279697Y-72044990D01*
X109886371Y-72437630D01*
X109800051Y-72645512D01*
X109715010Y-72439697D01*
X109322370Y-72046371D01*
X108809100Y-71833243D01*
X108253339Y-71832758D01*
X107739697Y-72044990D01*
X107346371Y-72437630D01*
X107260051Y-72645512D01*
X107175010Y-72439697D01*
X106782370Y-72046371D01*
X106269100Y-71833243D01*
X105713339Y-71832758D01*
X105199697Y-72044990D01*
X104806371Y-72437630D01*
X104726605Y-72629727D01*
X104672397Y-72498857D01*
X104430213Y-72429392D01*
X103629605Y-73230000D01*
X104430213Y-74030608D01*
X104672397Y-73961143D01*
X104722509Y-73820682D01*
X104804990Y-74020303D01*
X105197630Y-74413629D01*
X105405512Y-74499949D01*
X105199697Y-74584990D01*
X104806371Y-74977630D01*
X104720051Y-75185512D01*
X104635010Y-74979697D01*
X104242370Y-74586371D01*
X104050273Y-74506605D01*
X104181143Y-74452397D01*
X104250608Y-74210213D01*
X103450000Y-73409605D01*
X102649392Y-74210213D01*
X102718857Y-74452397D01*
X102859318Y-74502509D01*
X102659697Y-74584990D01*
X102266371Y-74977630D01*
X102180051Y-75185512D01*
X102095010Y-74979697D01*
X101702370Y-74586371D01*
X101494488Y-74500051D01*
X101700303Y-74415010D01*
X102093629Y-74022370D01*
X102173395Y-73830273D01*
X102227603Y-73961143D01*
X102469787Y-74030608D01*
X103270395Y-73230000D01*
X102469787Y-72429392D01*
X102227603Y-72498857D01*
X102177491Y-72639318D01*
X102095010Y-72439697D01*
X101905432Y-72249787D01*
X102649392Y-72249787D01*
X103450000Y-73050395D01*
X104250608Y-72249787D01*
X104181143Y-72007603D01*
X103657698Y-71820856D01*
X103102632Y-71848638D01*
X102718857Y-72007603D01*
X102649392Y-72249787D01*
X101905432Y-72249787D01*
X101702370Y-72046371D01*
X101189100Y-71833243D01*
X100633339Y-71832758D01*
X100119697Y-72044990D01*
X99726371Y-72437630D01*
X99640051Y-72645512D01*
X99555010Y-72439697D01*
X99162370Y-72046371D01*
X98649100Y-71833243D01*
X98093339Y-71832758D01*
X97579697Y-72044990D01*
X97186371Y-72437630D01*
X96973243Y-72950900D01*
X96972758Y-73506661D01*
X97184990Y-74020303D01*
X97577630Y-74413629D01*
X97785512Y-74499949D01*
X97579697Y-74584990D01*
X97186371Y-74977630D01*
X96973243Y-75490900D01*
X96972758Y-76046661D01*
X97184990Y-76560303D01*
X97577630Y-76953629D01*
X98090900Y-77166757D01*
X98646661Y-77167242D01*
X99160303Y-76955010D01*
X99553629Y-76562370D01*
X99639949Y-76354488D01*
X99724990Y-76560303D01*
X100117630Y-76953629D01*
X100630900Y-77166757D01*
X101186661Y-77167242D01*
X101700303Y-76955010D01*
X102093629Y-76562370D01*
X102179949Y-76354488D01*
X102264990Y-76560303D01*
X102657630Y-76953629D01*
X103170900Y-77166757D01*
X103726661Y-77167242D01*
X104240303Y-76955010D01*
X104633629Y-76562370D01*
X104719949Y-76354488D01*
X104804990Y-76560303D01*
X105197630Y-76953629D01*
X105710900Y-77166757D01*
X106266661Y-77167242D01*
X106780303Y-76955010D01*
X107173629Y-76562370D01*
X107259949Y-76354488D01*
X107344990Y-76560303D01*
X107737630Y-76953629D01*
X108250900Y-77166757D01*
X108806661Y-77167242D01*
X109320303Y-76955010D01*
X109713629Y-76562370D01*
X109799949Y-76354488D01*
X109884990Y-76560303D01*
X110277630Y-76953629D01*
X110790900Y-77166757D01*
X111346661Y-77167242D01*
X111860303Y-76955010D01*
X112253629Y-76562370D01*
X112339949Y-76354488D01*
X112424990Y-76560303D01*
X112817630Y-76953629D01*
X113330900Y-77166757D01*
X113886661Y-77167242D01*
X114400303Y-76955010D01*
X114793629Y-76562370D01*
X114879949Y-76354488D01*
X114964990Y-76560303D01*
X115265000Y-76860837D01*
X115265000Y-77911682D01*
X115187189Y-77961753D01*
X114997390Y-77832069D01*
X114959318Y-77824359D01*
X114806675Y-77722367D01*
X114468000Y-77655000D01*
X114129325Y-77722367D01*
X114014430Y-77799137D01*
X113875183Y-77825338D01*
X113659059Y-77964410D01*
X113514069Y-78176610D01*
X113463060Y-78428500D01*
X113463060Y-79571500D01*
X113507338Y-79806817D01*
X113583000Y-79924399D01*
X113583000Y-83967995D01*
X113582999Y-83968000D01*
X113615297Y-84130367D01*
X113650367Y-84306675D01*
X113713006Y-84400421D01*
X113842210Y-84593790D01*
X115494208Y-86245787D01*
X115494210Y-86245790D01*
X115781325Y-86437633D01*
X115837516Y-86448810D01*
X116120000Y-86505001D01*
X116120005Y-86505000D01*
X116613178Y-86505000D01*
X116733201Y-86554838D01*
X117105167Y-86555162D01*
X117279813Y-86483000D01*
X122920978Y-86483000D01*
X122833500Y-86694191D01*
X122833500Y-86852250D01*
X122992250Y-87011000D01*
X123913000Y-87011000D01*
X123913000Y-86991000D01*
X124167000Y-86991000D01*
X124167000Y-87011000D01*
X125087750Y-87011000D01*
X125246500Y-86852250D01*
X125246500Y-86694191D01*
X125159022Y-86483000D01*
X128414351Y-86483000D01*
X128333500Y-86678191D01*
X128333500Y-86836250D01*
X128492250Y-86995000D01*
X129413000Y-86995000D01*
X129413000Y-86975000D01*
X129667000Y-86975000D01*
X129667000Y-86995000D01*
X129687000Y-86995000D01*
X129687000Y-87249000D01*
X129667000Y-87249000D01*
X129667000Y-87269000D01*
X129413000Y-87269000D01*
X129413000Y-87249000D01*
X128492250Y-87249000D01*
X128333500Y-87407750D01*
X128333500Y-87565809D01*
X128430173Y-87799198D01*
X128608801Y-87977827D01*
X128830614Y-88069705D01*
X128674210Y-88174210D01*
X128674208Y-88174213D01*
X128244210Y-88604210D01*
X128183799Y-88694622D01*
X127821165Y-89057256D01*
X127701057Y-89106883D01*
X127437808Y-89369673D01*
X127295162Y-89713201D01*
X127295032Y-89862804D01*
X127215790Y-89744210D01*
X127215787Y-89744208D01*
X126782744Y-89311165D01*
X126733117Y-89191057D01*
X126470327Y-88927808D01*
X126349013Y-88877434D01*
X125507790Y-88036210D01*
X125481735Y-88018801D01*
X125220675Y-87844367D01*
X125164484Y-87833190D01*
X125137252Y-87827773D01*
X125149827Y-87815198D01*
X125246500Y-87581809D01*
X125246500Y-87423750D01*
X125087750Y-87265000D01*
X124167000Y-87265000D01*
X124167000Y-87285000D01*
X123913000Y-87285000D01*
X123913000Y-87265000D01*
X122992250Y-87265000D01*
X122833500Y-87423750D01*
X122833500Y-87581809D01*
X122930173Y-87815198D01*
X123008261Y-87893286D01*
X122872069Y-88092610D01*
X122821060Y-88344500D01*
X122821060Y-88979500D01*
X122865338Y-89214817D01*
X123004410Y-89430941D01*
X123216610Y-89575931D01*
X123468500Y-89626940D01*
X124595360Y-89626940D01*
X125097255Y-90128835D01*
X125146883Y-90248943D01*
X125409673Y-90512192D01*
X125530986Y-90562566D01*
X125705000Y-90736579D01*
X125705000Y-90825038D01*
X125474833Y-90824838D01*
X125131057Y-90966883D01*
X124892524Y-91205000D01*
X121487000Y-91205000D01*
X121487000Y-91085732D01*
X121515931Y-91043390D01*
X121566940Y-90791500D01*
X121566940Y-89648500D01*
X121522662Y-89413183D01*
X121487000Y-89357763D01*
X121487000Y-89145003D01*
X121535931Y-89073390D01*
X121586940Y-88821500D01*
X121586940Y-87678500D01*
X121542662Y-87443183D01*
X121403590Y-87227059D01*
X121191390Y-87082069D01*
X120939500Y-87031060D01*
X120304500Y-87031060D01*
X120069183Y-87075338D01*
X119853059Y-87214410D01*
X119851588Y-87216563D01*
X119775198Y-87140173D01*
X119541809Y-87043500D01*
X119383750Y-87043500D01*
X119225000Y-87202250D01*
X119225000Y-88123000D01*
X119245000Y-88123000D01*
X119245000Y-88377000D01*
X119225000Y-88377000D01*
X119225000Y-89152250D01*
X119205000Y-89172250D01*
X119205000Y-90093000D01*
X119225000Y-90093000D01*
X119225000Y-90347000D01*
X119205000Y-90347000D01*
X119205000Y-90367000D01*
X118951000Y-90367000D01*
X118951000Y-90347000D01*
X118284250Y-90347000D01*
X118125500Y-90505750D01*
X118125500Y-90917810D01*
X118222173Y-91151199D01*
X118228561Y-91157587D01*
X118154069Y-91266610D01*
X118103060Y-91518500D01*
X118103060Y-92661500D01*
X118147338Y-92896817D01*
X118183000Y-92952237D01*
X118183000Y-104746455D01*
X118094069Y-104876610D01*
X118080632Y-104942966D01*
X117905027Y-105060301D01*
X117905162Y-104904833D01*
X117845000Y-104759229D01*
X117845000Y-94526822D01*
X117894838Y-94406799D01*
X117895162Y-94034833D01*
X117753117Y-93691057D01*
X117490327Y-93427808D01*
X117146799Y-93285162D01*
X116774833Y-93284838D01*
X116431057Y-93426883D01*
X116167808Y-93689673D01*
X116025162Y-94033201D01*
X116024838Y-94405167D01*
X116075000Y-94526569D01*
X116075000Y-104807261D01*
X116035162Y-104903201D01*
X116034838Y-105275167D01*
X116176883Y-105618943D01*
X116439673Y-105882192D01*
X116783201Y-106024838D01*
X117055654Y-106025075D01*
X116994999Y-106330000D01*
X116995000Y-106330005D01*
X116995000Y-111023421D01*
X112755790Y-106784210D01*
X112724348Y-106763201D01*
X112468675Y-106592367D01*
X112412484Y-106581190D01*
X112130000Y-106524999D01*
X112129995Y-106525000D01*
X106096822Y-106525000D01*
X105976799Y-106475162D01*
X105604833Y-106474838D01*
X105261057Y-106616883D01*
X104997808Y-106879673D01*
X104855162Y-107223201D01*
X104854838Y-107595167D01*
X104996883Y-107938943D01*
X105259673Y-108202192D01*
X105603201Y-108344838D01*
X105975167Y-108345162D01*
X106096569Y-108295000D01*
X111763420Y-108295000D01*
X119447255Y-115978834D01*
X119496883Y-116098943D01*
X119759673Y-116362192D01*
X120103201Y-116504838D01*
X120475167Y-116505162D01*
X120818943Y-116363117D01*
X121082192Y-116100327D01*
X121145731Y-115947310D01*
X122054208Y-116855787D01*
X122054210Y-116855790D01*
X122323668Y-117035835D01*
X122341325Y-117047633D01*
X122491013Y-117077408D01*
X120633420Y-118935000D01*
X120020005Y-118935000D01*
X120020000Y-118934999D01*
X119681326Y-119002366D01*
X119595071Y-119060000D01*
X119394210Y-119194210D01*
X119394208Y-119194213D01*
X115071164Y-123517256D01*
X114951057Y-123566883D01*
X114687808Y-123829673D01*
X114665838Y-123882583D01*
X113933420Y-124615000D01*
X105296579Y-124615000D01*
X102765000Y-122083420D01*
X102765000Y-121255167D01*
X112934838Y-121255167D01*
X113076883Y-121598943D01*
X113339673Y-121862192D01*
X113683201Y-122004838D01*
X114055167Y-122005162D01*
X114398943Y-121863117D01*
X114662192Y-121600327D01*
X114804838Y-121256799D01*
X114805162Y-120884833D01*
X114663117Y-120541057D01*
X114400327Y-120277808D01*
X114056799Y-120135162D01*
X113684833Y-120134838D01*
X113341057Y-120276883D01*
X113077808Y-120539673D01*
X112935162Y-120883201D01*
X112934838Y-121255167D01*
X102765000Y-121255167D01*
X102765000Y-111117379D01*
X102868942Y-111272940D01*
X102884210Y-111295790D01*
X106107255Y-114518834D01*
X106156883Y-114638943D01*
X106419673Y-114902192D01*
X106763201Y-115044838D01*
X107135167Y-115045162D01*
X107478943Y-114903117D01*
X107742192Y-114640327D01*
X107884838Y-114296799D01*
X107885162Y-113924833D01*
X107743117Y-113581057D01*
X107480327Y-113317808D01*
X107359013Y-113267434D01*
X104395000Y-110303420D01*
X104395000Y-100075928D01*
X104633201Y-100174838D01*
X105005167Y-100175162D01*
X105348943Y-100033117D01*
X105612192Y-99770327D01*
X105754838Y-99426799D01*
X105755162Y-99054833D01*
X105635000Y-98764018D01*
X105635000Y-96546822D01*
X105684838Y-96426799D01*
X105685162Y-96054833D01*
X105635000Y-95933431D01*
X105635000Y-95660005D01*
X105635001Y-95660000D01*
X105567633Y-95321326D01*
X105567633Y-95321325D01*
X105407174Y-95081179D01*
X105446941Y-95055590D01*
X105448412Y-95053437D01*
X105524802Y-95129827D01*
X105758191Y-95226500D01*
X105916250Y-95226500D01*
X106075000Y-95067750D01*
X106075000Y-94147000D01*
X106329000Y-94147000D01*
X106329000Y-95067750D01*
X106487750Y-95226500D01*
X106645809Y-95226500D01*
X106879198Y-95129827D01*
X107057827Y-94951199D01*
X107154500Y-94717810D01*
X107154500Y-94305750D01*
X106995750Y-94147000D01*
X106329000Y-94147000D01*
X106075000Y-94147000D01*
X106055000Y-94147000D01*
X106055000Y-93893000D01*
X106075000Y-93893000D01*
X106075000Y-92972250D01*
X106065000Y-92962250D01*
X106065000Y-92387000D01*
X106319000Y-92387000D01*
X106319000Y-93307750D01*
X106329000Y-93317750D01*
X106329000Y-93893000D01*
X106995750Y-93893000D01*
X107154500Y-93734250D01*
X107154500Y-93322190D01*
X107074034Y-93127929D01*
X107144500Y-92957810D01*
X107144500Y-92545750D01*
X106985750Y-92387000D01*
X106319000Y-92387000D01*
X106065000Y-92387000D01*
X106045000Y-92387000D01*
X106045000Y-92133000D01*
X106065000Y-92133000D01*
X106065000Y-91667750D01*
X106075000Y-91657750D01*
X106075000Y-91212250D01*
X106319000Y-91212250D01*
X106319000Y-92133000D01*
X106985750Y-92133000D01*
X107144500Y-91974250D01*
X107144500Y-91562190D01*
X107096816Y-91447071D01*
X107154500Y-91307810D01*
X107154500Y-90895750D01*
X106995750Y-90737000D01*
X106329000Y-90737000D01*
X106329000Y-91202250D01*
X106319000Y-91212250D01*
X106075000Y-91212250D01*
X106075000Y-90737000D01*
X106055000Y-90737000D01*
X106055000Y-90483000D01*
X106075000Y-90483000D01*
X106075000Y-89562250D01*
X106065000Y-89552250D01*
X106065000Y-89077000D01*
X106319000Y-89077000D01*
X106319000Y-89997750D01*
X106329000Y-90007750D01*
X106329000Y-90483000D01*
X106995750Y-90483000D01*
X107154500Y-90324250D01*
X107154500Y-89912190D01*
X107094745Y-89767929D01*
X107144500Y-89647810D01*
X107144500Y-89522190D01*
X118125500Y-89522190D01*
X118125500Y-89934250D01*
X118284250Y-90093000D01*
X118951000Y-90093000D01*
X118951000Y-89317750D01*
X118971000Y-89297750D01*
X118971000Y-88377000D01*
X118304250Y-88377000D01*
X118145500Y-88535750D01*
X118145500Y-88947810D01*
X118242173Y-89181199D01*
X118285974Y-89225000D01*
X118222173Y-89288801D01*
X118125500Y-89522190D01*
X107144500Y-89522190D01*
X107144500Y-89235750D01*
X106985750Y-89077000D01*
X106319000Y-89077000D01*
X106065000Y-89077000D01*
X106045000Y-89077000D01*
X106045000Y-88823000D01*
X106065000Y-88823000D01*
X106065000Y-87902250D01*
X106055000Y-87892250D01*
X106055000Y-87457000D01*
X106309000Y-87457000D01*
X106309000Y-88377750D01*
X106319000Y-88387750D01*
X106319000Y-88823000D01*
X106985750Y-88823000D01*
X107144500Y-88664250D01*
X107144500Y-88252190D01*
X107093029Y-88127929D01*
X107134500Y-88027810D01*
X107134500Y-87615750D01*
X107070940Y-87552190D01*
X118145500Y-87552190D01*
X118145500Y-87964250D01*
X118304250Y-88123000D01*
X118971000Y-88123000D01*
X118971000Y-87202250D01*
X118812250Y-87043500D01*
X118654191Y-87043500D01*
X118420802Y-87140173D01*
X118242173Y-87318801D01*
X118145500Y-87552190D01*
X107070940Y-87552190D01*
X106975750Y-87457000D01*
X106309000Y-87457000D01*
X106055000Y-87457000D01*
X106035000Y-87457000D01*
X106035000Y-87203000D01*
X106055000Y-87203000D01*
X106055000Y-86282250D01*
X106309000Y-86282250D01*
X106309000Y-87203000D01*
X106975750Y-87203000D01*
X107134500Y-87044250D01*
X107134500Y-86632190D01*
X107037827Y-86398801D01*
X106859198Y-86220173D01*
X106625809Y-86123500D01*
X106467750Y-86123500D01*
X106309000Y-86282250D01*
X106055000Y-86282250D01*
X105896250Y-86123500D01*
X105738191Y-86123500D01*
X105504802Y-86220173D01*
X105426714Y-86298261D01*
X105227390Y-86162069D01*
X104975500Y-86111060D01*
X104340500Y-86111060D01*
X104105183Y-86155338D01*
X103889059Y-86294410D01*
X103744069Y-86506610D01*
X103693060Y-86758500D01*
X103693060Y-87901500D01*
X103737338Y-88136817D01*
X103748492Y-88154151D01*
X103703060Y-88378500D01*
X103703060Y-89521500D01*
X103747338Y-89756817D01*
X103765326Y-89784771D01*
X103764069Y-89786610D01*
X103713060Y-90038500D01*
X103713060Y-91181500D01*
X103757338Y-91416817D01*
X103762312Y-91424546D01*
X103754069Y-91436610D01*
X103703060Y-91688500D01*
X103703060Y-92831500D01*
X103747338Y-93066817D01*
X103783000Y-93122237D01*
X103783000Y-93164240D01*
X103651854Y-93190327D01*
X103591325Y-93202367D01*
X103304210Y-93394210D01*
X103304208Y-93394213D01*
X102884210Y-93814210D01*
X102765000Y-93992621D01*
X102765000Y-82216580D01*
X103748834Y-81232745D01*
X103868943Y-81183117D01*
X104132192Y-80920327D01*
X104274838Y-80576799D01*
X104275162Y-80204833D01*
X104133117Y-79861057D01*
X103870327Y-79597808D01*
X103526799Y-79455162D01*
X103154833Y-79454838D01*
X102811057Y-79596883D01*
X102547808Y-79859673D01*
X102497434Y-79980987D01*
X101254210Y-81224210D01*
X101062367Y-81511325D01*
X101062367Y-81511326D01*
X100994999Y-81850000D01*
X100995000Y-81850005D01*
X100995000Y-105991444D01*
X100889013Y-105947434D01*
X100885000Y-105943421D01*
X100885000Y-104010000D01*
X100817633Y-103671325D01*
X100625790Y-103384210D01*
X100625787Y-103384208D01*
X99492744Y-102251164D01*
X99443117Y-102131057D01*
X99180327Y-101867808D01*
X98836799Y-101725162D01*
X98464833Y-101724838D01*
X98121057Y-101866883D01*
X97857808Y-102129673D01*
X97715162Y-102473201D01*
X97714838Y-102845167D01*
X97856883Y-103188943D01*
X98119673Y-103452192D01*
X98240986Y-103502566D01*
X99115000Y-104376579D01*
X99115000Y-106309995D01*
X99114999Y-106310000D01*
X99171167Y-106592367D01*
X99182367Y-106648675D01*
X99336714Y-106879673D01*
X99374210Y-106935790D01*
X99637255Y-107198835D01*
X99686883Y-107318943D01*
X99949673Y-107582192D01*
X100293201Y-107724838D01*
X100665167Y-107725162D01*
X100995000Y-107588878D01*
X100995000Y-122449995D01*
X100994999Y-122450000D01*
X101028815Y-122620000D01*
X101062367Y-122788675D01*
X101211101Y-123011272D01*
X101254210Y-123075790D01*
X104304208Y-126125787D01*
X104304210Y-126125790D01*
X104587384Y-126315000D01*
X91067466Y-126315000D01*
X90884590Y-126278624D01*
X90786751Y-126213250D01*
X90721376Y-126115409D01*
X90685000Y-125932534D01*
X90685000Y-119749426D01*
X90775486Y-119945044D01*
X91505989Y-120227246D01*
X92288880Y-120208415D01*
X92924714Y-119945044D01*
X93064165Y-119643570D01*
X95735835Y-119643570D01*
X95875286Y-119945044D01*
X96605789Y-120227246D01*
X97388680Y-120208415D01*
X98024514Y-119945044D01*
X98163965Y-119643570D01*
X96949900Y-118429505D01*
X95735835Y-119643570D01*
X93064165Y-119643570D01*
X91850100Y-118429505D01*
X91835958Y-118443648D01*
X91656353Y-118264043D01*
X91670495Y-118249900D01*
X92029705Y-118249900D01*
X93243770Y-119463965D01*
X93545244Y-119324514D01*
X93827446Y-118594011D01*
X93810893Y-117905789D01*
X94972554Y-117905789D01*
X94991385Y-118688680D01*
X95254756Y-119324514D01*
X95556230Y-119463965D01*
X96770295Y-118249900D01*
X97129505Y-118249900D01*
X98343570Y-119463965D01*
X98645044Y-119324514D01*
X98927246Y-118594011D01*
X98908415Y-117811120D01*
X98645044Y-117175286D01*
X98343570Y-117035835D01*
X97129505Y-118249900D01*
X96770295Y-118249900D01*
X95556230Y-117035835D01*
X95254756Y-117175286D01*
X94972554Y-117905789D01*
X93810893Y-117905789D01*
X93808615Y-117811120D01*
X93545244Y-117175286D01*
X93243770Y-117035835D01*
X92029705Y-118249900D01*
X91670495Y-118249900D01*
X91656353Y-118235758D01*
X91835958Y-118056153D01*
X91850100Y-118070295D01*
X93064165Y-116856230D01*
X92924714Y-116554756D01*
X92194211Y-116272554D01*
X91411320Y-116291385D01*
X90775486Y-116554756D01*
X90685000Y-116750374D01*
X90685000Y-116014388D01*
X92812225Y-116014388D01*
X93053398Y-116598072D01*
X93499579Y-117045032D01*
X94082841Y-117287224D01*
X94714388Y-117287775D01*
X95298072Y-117046602D01*
X95488776Y-116856230D01*
X95735835Y-116856230D01*
X96949900Y-118070295D01*
X98163965Y-116856230D01*
X98024514Y-116554756D01*
X97294011Y-116272554D01*
X96511120Y-116291385D01*
X95875286Y-116554756D01*
X95735835Y-116856230D01*
X95488776Y-116856230D01*
X95745032Y-116600421D01*
X95987224Y-116017159D01*
X95987775Y-115385612D01*
X95746602Y-114801928D01*
X95488894Y-114543770D01*
X95735835Y-114543770D01*
X95875286Y-114845244D01*
X96605789Y-115127446D01*
X97388680Y-115108615D01*
X98024514Y-114845244D01*
X98163965Y-114543770D01*
X96949900Y-113329705D01*
X95735835Y-114543770D01*
X95488894Y-114543770D01*
X95300421Y-114354968D01*
X94717159Y-114112776D01*
X94085612Y-114112225D01*
X93501928Y-114353398D01*
X93054968Y-114799579D01*
X92812776Y-115382841D01*
X92812225Y-116014388D01*
X90685000Y-116014388D01*
X90685000Y-114649626D01*
X90775486Y-114845244D01*
X91505989Y-115127446D01*
X92288880Y-115108615D01*
X92924714Y-114845244D01*
X93064165Y-114543770D01*
X91850100Y-113329705D01*
X91835958Y-113343848D01*
X91656353Y-113164243D01*
X91670495Y-113150100D01*
X92029705Y-113150100D01*
X93243770Y-114364165D01*
X93545244Y-114224714D01*
X93827446Y-113494211D01*
X93810893Y-112805989D01*
X94972554Y-112805989D01*
X94991385Y-113588880D01*
X95254756Y-114224714D01*
X95556230Y-114364165D01*
X96770295Y-113150100D01*
X97129505Y-113150100D01*
X98343570Y-114364165D01*
X98645044Y-114224714D01*
X98927246Y-113494211D01*
X98908415Y-112711320D01*
X98645044Y-112075486D01*
X98343570Y-111936035D01*
X97129505Y-113150100D01*
X96770295Y-113150100D01*
X95556230Y-111936035D01*
X95254756Y-112075486D01*
X94972554Y-112805989D01*
X93810893Y-112805989D01*
X93808615Y-112711320D01*
X93545244Y-112075486D01*
X93243770Y-111936035D01*
X92029705Y-113150100D01*
X91670495Y-113150100D01*
X91656353Y-113135958D01*
X91835958Y-112956353D01*
X91850100Y-112970495D01*
X93064165Y-111756430D01*
X95735835Y-111756430D01*
X96949900Y-112970495D01*
X98163965Y-111756430D01*
X98024514Y-111454956D01*
X97294011Y-111172754D01*
X96511120Y-111191585D01*
X95875286Y-111454956D01*
X95735835Y-111756430D01*
X93064165Y-111756430D01*
X92924714Y-111454956D01*
X92194211Y-111172754D01*
X91411320Y-111191585D01*
X90775486Y-111454956D01*
X90685000Y-111650574D01*
X90685000Y-87494608D01*
X90736036Y-87443572D01*
X90875486Y-87745044D01*
X91605989Y-88027246D01*
X92388880Y-88008415D01*
X93024714Y-87745044D01*
X93164165Y-87443570D01*
X95835835Y-87443570D01*
X95975286Y-87745044D01*
X96705789Y-88027246D01*
X97488680Y-88008415D01*
X98124514Y-87745044D01*
X98263965Y-87443570D01*
X97049900Y-86229505D01*
X95835835Y-87443570D01*
X93164165Y-87443570D01*
X91950100Y-86229505D01*
X91935958Y-86243648D01*
X91756353Y-86064043D01*
X91770495Y-86049900D01*
X92129705Y-86049900D01*
X93343770Y-87263965D01*
X93645244Y-87124514D01*
X93927446Y-86394011D01*
X93910893Y-85705789D01*
X95072554Y-85705789D01*
X95091385Y-86488680D01*
X95354756Y-87124514D01*
X95656230Y-87263965D01*
X96870295Y-86049900D01*
X97229505Y-86049900D01*
X98443570Y-87263965D01*
X98745044Y-87124514D01*
X99027246Y-86394011D01*
X99008415Y-85611120D01*
X98745044Y-84975286D01*
X98443570Y-84835835D01*
X97229505Y-86049900D01*
X96870295Y-86049900D01*
X95656230Y-84835835D01*
X95354756Y-84975286D01*
X95072554Y-85705789D01*
X93910893Y-85705789D01*
X93908615Y-85611120D01*
X93645244Y-84975286D01*
X93343770Y-84835835D01*
X92129705Y-86049900D01*
X91770495Y-86049900D01*
X91756353Y-86035758D01*
X91935958Y-85856153D01*
X91950100Y-85870295D01*
X93164165Y-84656230D01*
X93024714Y-84354756D01*
X92294211Y-84072554D01*
X91511320Y-84091385D01*
X90875486Y-84354756D01*
X90736036Y-84656228D01*
X90685000Y-84605192D01*
X90685000Y-83814388D01*
X92912225Y-83814388D01*
X93153398Y-84398072D01*
X93599579Y-84845032D01*
X94182841Y-85087224D01*
X94814388Y-85087775D01*
X95398072Y-84846602D01*
X95588776Y-84656230D01*
X95835835Y-84656230D01*
X97049900Y-85870295D01*
X98263965Y-84656230D01*
X98124514Y-84354756D01*
X97394011Y-84072554D01*
X96611120Y-84091385D01*
X95975286Y-84354756D01*
X95835835Y-84656230D01*
X95588776Y-84656230D01*
X95845032Y-84400421D01*
X96087224Y-83817159D01*
X96087775Y-83185612D01*
X95846602Y-82601928D01*
X95588894Y-82343770D01*
X95835835Y-82343770D01*
X95975286Y-82645244D01*
X96705789Y-82927446D01*
X97488680Y-82908615D01*
X98124514Y-82645244D01*
X98263965Y-82343770D01*
X97049900Y-81129705D01*
X95835835Y-82343770D01*
X95588894Y-82343770D01*
X95400421Y-82154968D01*
X94817159Y-81912776D01*
X94185612Y-81912225D01*
X93601928Y-82153398D01*
X93154968Y-82599579D01*
X92912776Y-83182841D01*
X92912225Y-83814388D01*
X90685000Y-83814388D01*
X90685000Y-82394808D01*
X90736036Y-82343772D01*
X90875486Y-82645244D01*
X91605989Y-82927446D01*
X92388880Y-82908615D01*
X93024714Y-82645244D01*
X93164165Y-82343770D01*
X91950100Y-81129705D01*
X91935958Y-81143848D01*
X91756353Y-80964243D01*
X91770495Y-80950100D01*
X92129705Y-80950100D01*
X93343770Y-82164165D01*
X93645244Y-82024714D01*
X93927446Y-81294211D01*
X93910893Y-80605989D01*
X95072554Y-80605989D01*
X95091385Y-81388880D01*
X95354756Y-82024714D01*
X95656230Y-82164165D01*
X96870295Y-80950100D01*
X97229505Y-80950100D01*
X98443570Y-82164165D01*
X98745044Y-82024714D01*
X99027246Y-81294211D01*
X99008415Y-80511320D01*
X98745044Y-79875486D01*
X98443570Y-79736035D01*
X97229505Y-80950100D01*
X96870295Y-80950100D01*
X95656230Y-79736035D01*
X95354756Y-79875486D01*
X95072554Y-80605989D01*
X93910893Y-80605989D01*
X93908615Y-80511320D01*
X93645244Y-79875486D01*
X93343770Y-79736035D01*
X92129705Y-80950100D01*
X91770495Y-80950100D01*
X91756353Y-80935958D01*
X91935958Y-80756353D01*
X91950100Y-80770495D01*
X93164165Y-79556430D01*
X95835835Y-79556430D01*
X97049900Y-80770495D01*
X98263965Y-79556430D01*
X98124514Y-79254956D01*
X97394011Y-78972754D01*
X96611120Y-78991585D01*
X95975286Y-79254956D01*
X95835835Y-79556430D01*
X93164165Y-79556430D01*
X93024714Y-79254956D01*
X92294211Y-78972754D01*
X91511320Y-78991585D01*
X90875486Y-79254956D01*
X90736036Y-79556428D01*
X90685000Y-79505392D01*
X90685000Y-72067466D01*
X90721376Y-71884591D01*
X90786751Y-71786750D01*
X90884590Y-71721376D01*
X91067466Y-71685000D01*
X153932534Y-71685000D01*
X154115409Y-71721376D01*
G36*
X119185000Y-107303000D02*
X119205000Y-107303000D01*
X119205000Y-107557000D01*
X119185000Y-107557000D01*
X119185000Y-108477750D01*
X119225000Y-108517750D01*
X119225000Y-109033000D01*
X119245000Y-109033000D01*
X119245000Y-109287000D01*
X119225000Y-109287000D01*
X119225000Y-110207750D01*
X119383750Y-110366500D01*
X119541809Y-110366500D01*
X119775198Y-110269827D01*
X119853286Y-110191739D01*
X120052610Y-110327931D01*
X120304500Y-110378940D01*
X120939500Y-110378940D01*
X121174817Y-110334662D01*
X121373060Y-110207096D01*
X121373060Y-110221500D01*
X121417338Y-110456817D01*
X121453000Y-110512237D01*
X121453000Y-111807995D01*
X121452999Y-111808000D01*
X121507942Y-112084210D01*
X121520367Y-112146675D01*
X121670473Y-112371326D01*
X121712210Y-112433790D01*
X124034208Y-114755787D01*
X124034210Y-114755790D01*
X124321325Y-114947633D01*
X124377516Y-114958810D01*
X124660000Y-115015001D01*
X124660005Y-115015000D01*
X125213482Y-115015000D01*
X125185162Y-115083201D01*
X125184934Y-115345000D01*
X123046579Y-115345000D01*
X119440790Y-111739210D01*
X119440787Y-111739208D01*
X118765000Y-111063420D01*
X118765000Y-110366500D01*
X118812250Y-110366500D01*
X118971000Y-110207750D01*
X118971000Y-109287000D01*
X118951000Y-109287000D01*
X118951000Y-109033000D01*
X118971000Y-109033000D01*
X118971000Y-108112250D01*
X118931000Y-108072250D01*
X118931000Y-107557000D01*
X118911000Y-107557000D01*
X118911000Y-107303000D01*
X118931000Y-107303000D01*
X118931000Y-107283000D01*
X119185000Y-107283000D01*
X119185000Y-107303000D01*
X119185000Y-107303000D01*
G37*
X119185000Y-107303000D02*
X119205000Y-107303000D01*
X119205000Y-107557000D01*
X119185000Y-107557000D01*
X119185000Y-108477750D01*
X119225000Y-108517750D01*
X119225000Y-109033000D01*
X119245000Y-109033000D01*
X119245000Y-109287000D01*
X119225000Y-109287000D01*
X119225000Y-110207750D01*
X119383750Y-110366500D01*
X119541809Y-110366500D01*
X119775198Y-110269827D01*
X119853286Y-110191739D01*
X120052610Y-110327931D01*
X120304500Y-110378940D01*
X120939500Y-110378940D01*
X121174817Y-110334662D01*
X121373060Y-110207096D01*
X121373060Y-110221500D01*
X121417338Y-110456817D01*
X121453000Y-110512237D01*
X121453000Y-111807995D01*
X121452999Y-111808000D01*
X121507942Y-112084210D01*
X121520367Y-112146675D01*
X121670473Y-112371326D01*
X121712210Y-112433790D01*
X124034208Y-114755787D01*
X124034210Y-114755790D01*
X124321325Y-114947633D01*
X124377516Y-114958810D01*
X124660000Y-115015001D01*
X124660005Y-115015000D01*
X125213482Y-115015000D01*
X125185162Y-115083201D01*
X125184934Y-115345000D01*
X123046579Y-115345000D01*
X119440790Y-111739210D01*
X119440787Y-111739208D01*
X118765000Y-111063420D01*
X118765000Y-110366500D01*
X118812250Y-110366500D01*
X118971000Y-110207750D01*
X118971000Y-109287000D01*
X118951000Y-109287000D01*
X118951000Y-109033000D01*
X118971000Y-109033000D01*
X118971000Y-108112250D01*
X118931000Y-108072250D01*
X118931000Y-107557000D01*
X118911000Y-107557000D01*
X118911000Y-107303000D01*
X118931000Y-107303000D01*
X118931000Y-107283000D01*
X119185000Y-107283000D01*
X119185000Y-107303000D01*
G36*
X128611060Y-110705500D02*
X128655338Y-110940817D01*
X128794410Y-111156941D01*
X128796563Y-111158412D01*
X128720173Y-111234802D01*
X128623500Y-111468191D01*
X128623500Y-111626250D01*
X128782250Y-111785000D01*
X129703000Y-111785000D01*
X129703000Y-111765000D01*
X129957000Y-111765000D01*
X129957000Y-111785000D01*
X130877750Y-111785000D01*
X131036500Y-111626250D01*
X131036500Y-111468191D01*
X130955649Y-111273000D01*
X132085000Y-111273000D01*
X132085000Y-111646848D01*
X131995162Y-111863201D01*
X131994838Y-112235167D01*
X132136883Y-112578943D01*
X132399673Y-112842192D01*
X132743201Y-112984838D01*
X133115167Y-112985162D01*
X133458943Y-112843117D01*
X133722192Y-112580327D01*
X133864838Y-112236799D01*
X133864880Y-112187750D01*
X135003500Y-112187750D01*
X135003500Y-112345809D01*
X135100173Y-112579198D01*
X135278801Y-112757827D01*
X135512190Y-112854500D01*
X135924250Y-112854500D01*
X136083000Y-112695750D01*
X136083000Y-112029000D01*
X136337000Y-112029000D01*
X136337000Y-112695750D01*
X136495750Y-112854500D01*
X136907810Y-112854500D01*
X137141199Y-112757827D01*
X137319827Y-112579198D01*
X137416500Y-112345809D01*
X137416500Y-112187750D01*
X137376500Y-112147750D01*
X137673500Y-112147750D01*
X137673500Y-112305809D01*
X137770173Y-112539198D01*
X137948801Y-112717827D01*
X138182190Y-112814500D01*
X138594250Y-112814500D01*
X138753000Y-112655750D01*
X138753000Y-111989000D01*
X139007000Y-111989000D01*
X139007000Y-112655750D01*
X139165750Y-112814500D01*
X139577810Y-112814500D01*
X139811199Y-112717827D01*
X139900000Y-112629026D01*
X139958801Y-112687827D01*
X140192190Y-112784500D01*
X140604250Y-112784500D01*
X140763000Y-112625750D01*
X140763000Y-111959000D01*
X141017000Y-111959000D01*
X141017000Y-112625750D01*
X141175750Y-112784500D01*
X141587810Y-112784500D01*
X141821199Y-112687827D01*
X141999827Y-112509198D01*
X142096500Y-112275809D01*
X142096500Y-112117750D01*
X141937750Y-111959000D01*
X141017000Y-111959000D01*
X140763000Y-111959000D01*
X139842250Y-111959000D01*
X139812250Y-111989000D01*
X139007000Y-111989000D01*
X138753000Y-111989000D01*
X137832250Y-111989000D01*
X137673500Y-112147750D01*
X137376500Y-112147750D01*
X137257750Y-112029000D01*
X136337000Y-112029000D01*
X136083000Y-112029000D01*
X135162250Y-112029000D01*
X135003500Y-112187750D01*
X133864880Y-112187750D01*
X133865162Y-111864833D01*
X133855000Y-111840239D01*
X133855000Y-111273000D01*
X135080209Y-111273000D01*
X135003500Y-111458191D01*
X135003500Y-111616250D01*
X135162250Y-111775000D01*
X136083000Y-111775000D01*
X136083000Y-111755000D01*
X136337000Y-111755000D01*
X136337000Y-111775000D01*
X137257750Y-111775000D01*
X137416500Y-111616250D01*
X137416500Y-111458191D01*
X137319827Y-111224802D01*
X137241739Y-111146714D01*
X137247693Y-111138000D01*
X137816975Y-111138000D01*
X137770173Y-111184802D01*
X137673500Y-111418191D01*
X137673500Y-111576250D01*
X137832250Y-111735000D01*
X138753000Y-111735000D01*
X138753000Y-111715000D01*
X139007000Y-111715000D01*
X139007000Y-111735000D01*
X139927750Y-111735000D01*
X139957750Y-111705000D01*
X140763000Y-111705000D01*
X140763000Y-111685000D01*
X141017000Y-111685000D01*
X141017000Y-111705000D01*
X141937750Y-111705000D01*
X142096500Y-111546250D01*
X142096500Y-111388191D01*
X141999827Y-111154802D01*
X141960025Y-111115000D01*
X142353420Y-111115000D01*
X143587255Y-112348834D01*
X143636883Y-112468943D01*
X143899673Y-112732192D01*
X144137481Y-112830939D01*
X143723420Y-113245000D01*
X125026579Y-113245000D01*
X123979330Y-112197750D01*
X128623500Y-112197750D01*
X128623500Y-112355809D01*
X128720173Y-112589198D01*
X128898801Y-112767827D01*
X129132190Y-112864500D01*
X129544250Y-112864500D01*
X129703000Y-112705750D01*
X129703000Y-112039000D01*
X129957000Y-112039000D01*
X129957000Y-112705750D01*
X130115750Y-112864500D01*
X130527810Y-112864500D01*
X130761199Y-112767827D01*
X130939827Y-112589198D01*
X131036500Y-112355809D01*
X131036500Y-112197750D01*
X130877750Y-112039000D01*
X129957000Y-112039000D01*
X129703000Y-112039000D01*
X128782250Y-112039000D01*
X128623500Y-112197750D01*
X123979330Y-112197750D01*
X123591261Y-111809681D01*
X123618000Y-111815000D01*
X126869995Y-111815000D01*
X126870000Y-111815001D01*
X127172478Y-111754833D01*
X127208675Y-111747633D01*
X127495790Y-111555790D01*
X128611060Y-110440520D01*
X128611060Y-110705500D01*
X128611060Y-110705500D01*
G37*
X128611060Y-110705500D02*
X128655338Y-110940817D01*
X128794410Y-111156941D01*
X128796563Y-111158412D01*
X128720173Y-111234802D01*
X128623500Y-111468191D01*
X128623500Y-111626250D01*
X128782250Y-111785000D01*
X129703000Y-111785000D01*
X129703000Y-111765000D01*
X129957000Y-111765000D01*
X129957000Y-111785000D01*
X130877750Y-111785000D01*
X131036500Y-111626250D01*
X131036500Y-111468191D01*
X130955649Y-111273000D01*
X132085000Y-111273000D01*
X132085000Y-111646848D01*
X131995162Y-111863201D01*
X131994838Y-112235167D01*
X132136883Y-112578943D01*
X132399673Y-112842192D01*
X132743201Y-112984838D01*
X133115167Y-112985162D01*
X133458943Y-112843117D01*
X133722192Y-112580327D01*
X133864838Y-112236799D01*
X133864880Y-112187750D01*
X135003500Y-112187750D01*
X135003500Y-112345809D01*
X135100173Y-112579198D01*
X135278801Y-112757827D01*
X135512190Y-112854500D01*
X135924250Y-112854500D01*
X136083000Y-112695750D01*
X136083000Y-112029000D01*
X136337000Y-112029000D01*
X136337000Y-112695750D01*
X136495750Y-112854500D01*
X136907810Y-112854500D01*
X137141199Y-112757827D01*
X137319827Y-112579198D01*
X137416500Y-112345809D01*
X137416500Y-112187750D01*
X137376500Y-112147750D01*
X137673500Y-112147750D01*
X137673500Y-112305809D01*
X137770173Y-112539198D01*
X137948801Y-112717827D01*
X138182190Y-112814500D01*
X138594250Y-112814500D01*
X138753000Y-112655750D01*
X138753000Y-111989000D01*
X139007000Y-111989000D01*
X139007000Y-112655750D01*
X139165750Y-112814500D01*
X139577810Y-112814500D01*
X139811199Y-112717827D01*
X139900000Y-112629026D01*
X139958801Y-112687827D01*
X140192190Y-112784500D01*
X140604250Y-112784500D01*
X140763000Y-112625750D01*
X140763000Y-111959000D01*
X141017000Y-111959000D01*
X141017000Y-112625750D01*
X141175750Y-112784500D01*
X141587810Y-112784500D01*
X141821199Y-112687827D01*
X141999827Y-112509198D01*
X142096500Y-112275809D01*
X142096500Y-112117750D01*
X141937750Y-111959000D01*
X141017000Y-111959000D01*
X140763000Y-111959000D01*
X139842250Y-111959000D01*
X139812250Y-111989000D01*
X139007000Y-111989000D01*
X138753000Y-111989000D01*
X137832250Y-111989000D01*
X137673500Y-112147750D01*
X137376500Y-112147750D01*
X137257750Y-112029000D01*
X136337000Y-112029000D01*
X136083000Y-112029000D01*
X135162250Y-112029000D01*
X135003500Y-112187750D01*
X133864880Y-112187750D01*
X133865162Y-111864833D01*
X133855000Y-111840239D01*
X133855000Y-111273000D01*
X135080209Y-111273000D01*
X135003500Y-111458191D01*
X135003500Y-111616250D01*
X135162250Y-111775000D01*
X136083000Y-111775000D01*
X136083000Y-111755000D01*
X136337000Y-111755000D01*
X136337000Y-111775000D01*
X137257750Y-111775000D01*
X137416500Y-111616250D01*
X137416500Y-111458191D01*
X137319827Y-111224802D01*
X137241739Y-111146714D01*
X137247693Y-111138000D01*
X137816975Y-111138000D01*
X137770173Y-111184802D01*
X137673500Y-111418191D01*
X137673500Y-111576250D01*
X137832250Y-111735000D01*
X138753000Y-111735000D01*
X138753000Y-111715000D01*
X139007000Y-111715000D01*
X139007000Y-111735000D01*
X139927750Y-111735000D01*
X139957750Y-111705000D01*
X140763000Y-111705000D01*
X140763000Y-111685000D01*
X141017000Y-111685000D01*
X141017000Y-111705000D01*
X141937750Y-111705000D01*
X142096500Y-111546250D01*
X142096500Y-111388191D01*
X141999827Y-111154802D01*
X141960025Y-111115000D01*
X142353420Y-111115000D01*
X143587255Y-112348834D01*
X143636883Y-112468943D01*
X143899673Y-112732192D01*
X144137481Y-112830939D01*
X143723420Y-113245000D01*
X125026579Y-113245000D01*
X123979330Y-112197750D01*
X128623500Y-112197750D01*
X128623500Y-112355809D01*
X128720173Y-112589198D01*
X128898801Y-112767827D01*
X129132190Y-112864500D01*
X129544250Y-112864500D01*
X129703000Y-112705750D01*
X129703000Y-112039000D01*
X129957000Y-112039000D01*
X129957000Y-112705750D01*
X130115750Y-112864500D01*
X130527810Y-112864500D01*
X130761199Y-112767827D01*
X130939827Y-112589198D01*
X131036500Y-112355809D01*
X131036500Y-112197750D01*
X130877750Y-112039000D01*
X129957000Y-112039000D01*
X129703000Y-112039000D01*
X128782250Y-112039000D01*
X128623500Y-112197750D01*
X123979330Y-112197750D01*
X123591261Y-111809681D01*
X123618000Y-111815000D01*
X126869995Y-111815000D01*
X126870000Y-111815001D01*
X127172478Y-111754833D01*
X127208675Y-111747633D01*
X127495790Y-111555790D01*
X128611060Y-110440520D01*
X128611060Y-110705500D01*
G36*
X133594208Y-89885787D02*
X133594210Y-89885790D01*
X133604208Y-89895787D01*
X133604210Y-89895790D01*
X133751110Y-90042690D01*
X133706069Y-90108610D01*
X133655060Y-90360500D01*
X133655060Y-90645361D01*
X132834210Y-91466210D01*
X132642367Y-91753325D01*
X132642367Y-91753326D01*
X132574999Y-92092000D01*
X132575000Y-92092005D01*
X132575000Y-92999995D01*
X132574999Y-93000000D01*
X132624728Y-93250000D01*
X132642367Y-93338675D01*
X132831923Y-93622367D01*
X132834210Y-93625790D01*
X134144208Y-94935787D01*
X134144210Y-94935790D01*
X134431325Y-95127633D01*
X134467522Y-95134833D01*
X134770000Y-95195001D01*
X134770005Y-95195000D01*
X140847000Y-95195000D01*
X140847000Y-95648351D01*
X140651809Y-95567500D01*
X140493750Y-95567500D01*
X140335000Y-95726250D01*
X140335000Y-96647000D01*
X140355000Y-96647000D01*
X140355000Y-96901000D01*
X140335000Y-96901000D01*
X140335000Y-98679000D01*
X140355000Y-98679000D01*
X140355000Y-98933000D01*
X140335000Y-98933000D01*
X140335000Y-100711000D01*
X140355000Y-100711000D01*
X140355000Y-100965000D01*
X140335000Y-100965000D01*
X140335000Y-102743000D01*
X140355000Y-102743000D01*
X140355000Y-102997000D01*
X140335000Y-102997000D01*
X140335000Y-103917750D01*
X140493750Y-104076500D01*
X140651809Y-104076500D01*
X140847000Y-103995649D01*
X140847000Y-104991995D01*
X140846999Y-104992000D01*
X140885233Y-105184211D01*
X140914367Y-105330675D01*
X141010407Y-105474410D01*
X141106210Y-105617790D01*
X141707255Y-106218835D01*
X141756883Y-106338943D01*
X141939829Y-106522209D01*
X141725059Y-106660410D01*
X141723588Y-106662563D01*
X141647198Y-106586173D01*
X141413809Y-106489500D01*
X141255750Y-106489500D01*
X141097000Y-106648250D01*
X141097000Y-107569000D01*
X141117000Y-107569000D01*
X141117000Y-107823000D01*
X141097000Y-107823000D01*
X141097000Y-107843000D01*
X140843000Y-107843000D01*
X140843000Y-107823000D01*
X140823000Y-107823000D01*
X140823000Y-107569000D01*
X140843000Y-107569000D01*
X140843000Y-106648250D01*
X140684250Y-106489500D01*
X140526191Y-106489500D01*
X140292802Y-106586173D01*
X140114173Y-106764801D01*
X140017500Y-106998190D01*
X140017500Y-107410250D01*
X140176248Y-107568998D01*
X140017500Y-107568998D01*
X140017500Y-107615110D01*
X139964811Y-107593232D01*
X139855811Y-107484231D01*
X139902940Y-107251500D01*
X139902940Y-106616500D01*
X139858662Y-106381183D01*
X139719590Y-106165059D01*
X139717437Y-106163588D01*
X139793827Y-106087198D01*
X139890500Y-105853809D01*
X139890500Y-105695750D01*
X139731750Y-105537000D01*
X138811000Y-105537000D01*
X138811000Y-105557000D01*
X138557000Y-105557000D01*
X138557000Y-105537000D01*
X137636250Y-105537000D01*
X137541000Y-105632250D01*
X137445750Y-105537000D01*
X136525000Y-105537000D01*
X136525000Y-105557000D01*
X136271000Y-105557000D01*
X136271000Y-105537000D01*
X135350250Y-105537000D01*
X135255000Y-105632250D01*
X135159750Y-105537000D01*
X134239000Y-105537000D01*
X134239000Y-105557000D01*
X133985000Y-105557000D01*
X133985000Y-105537000D01*
X133064250Y-105537000D01*
X132969000Y-105632250D01*
X132873750Y-105537000D01*
X131953000Y-105537000D01*
X131953000Y-105557000D01*
X131699000Y-105557000D01*
X131699000Y-105537000D01*
X130778250Y-105537000D01*
X130619500Y-105695750D01*
X130619500Y-105853809D01*
X130716173Y-106087198D01*
X130794261Y-106165286D01*
X130791632Y-106169133D01*
X130780327Y-106157808D01*
X130436799Y-106015162D01*
X130064833Y-106014838D01*
X129943431Y-106065000D01*
X129510005Y-106065000D01*
X129510000Y-106064999D01*
X129251762Y-106116367D01*
X129171325Y-106132367D01*
X128884210Y-106324210D01*
X128884208Y-106324213D01*
X128524210Y-106684210D01*
X128332367Y-106971325D01*
X128327023Y-106998190D01*
X128264999Y-107310000D01*
X128265000Y-107310005D01*
X128265000Y-108097000D01*
X128143000Y-108097000D01*
X128143000Y-108077000D01*
X128123000Y-108077000D01*
X128123000Y-107823000D01*
X128143000Y-107823000D01*
X128143000Y-106902250D01*
X127984250Y-106743500D01*
X127826191Y-106743500D01*
X127592802Y-106840173D01*
X127514714Y-106918261D01*
X127315390Y-106782069D01*
X127063500Y-106731060D01*
X126590000Y-106731060D01*
X126590000Y-106434802D01*
X127279680Y-105745122D01*
X127325167Y-105745162D01*
X127668943Y-105603117D01*
X127932192Y-105340327D01*
X128074838Y-104996799D01*
X128074864Y-104966191D01*
X130619500Y-104966191D01*
X130619500Y-105124250D01*
X130778250Y-105283000D01*
X131699000Y-105283000D01*
X131699000Y-104616250D01*
X131953000Y-104616250D01*
X131953000Y-105283000D01*
X132873750Y-105283000D01*
X132969000Y-105187750D01*
X133064250Y-105283000D01*
X133985000Y-105283000D01*
X133985000Y-104616250D01*
X134239000Y-104616250D01*
X134239000Y-105283000D01*
X135159750Y-105283000D01*
X135255000Y-105187750D01*
X135350250Y-105283000D01*
X136271000Y-105283000D01*
X136271000Y-104616250D01*
X136525000Y-104616250D01*
X136525000Y-105283000D01*
X137445750Y-105283000D01*
X137541000Y-105187750D01*
X137636250Y-105283000D01*
X138557000Y-105283000D01*
X138557000Y-104616250D01*
X138811000Y-104616250D01*
X138811000Y-105283000D01*
X139731750Y-105283000D01*
X139890500Y-105124250D01*
X139890500Y-104966191D01*
X139793827Y-104732802D01*
X139615199Y-104554173D01*
X139381810Y-104457500D01*
X138969750Y-104457500D01*
X138811000Y-104616250D01*
X138557000Y-104616250D01*
X138398250Y-104457500D01*
X137986190Y-104457500D01*
X137752801Y-104554173D01*
X137574173Y-104732802D01*
X137541000Y-104812889D01*
X137507827Y-104732802D01*
X137329199Y-104554173D01*
X137095810Y-104457500D01*
X136683750Y-104457500D01*
X136525000Y-104616250D01*
X136271000Y-104616250D01*
X136112250Y-104457500D01*
X135700190Y-104457500D01*
X135466801Y-104554173D01*
X135288173Y-104732802D01*
X135255000Y-104812889D01*
X135221827Y-104732802D01*
X135043199Y-104554173D01*
X134809810Y-104457500D01*
X134397750Y-104457500D01*
X134239000Y-104616250D01*
X133985000Y-104616250D01*
X133826250Y-104457500D01*
X133414190Y-104457500D01*
X133180801Y-104554173D01*
X133002173Y-104732802D01*
X132969000Y-104812889D01*
X132935827Y-104732802D01*
X132757199Y-104554173D01*
X132523810Y-104457500D01*
X132111750Y-104457500D01*
X131953000Y-104616250D01*
X131699000Y-104616250D01*
X131540250Y-104457500D01*
X131128190Y-104457500D01*
X130894801Y-104554173D01*
X130716173Y-104732802D01*
X130619500Y-104966191D01*
X128074864Y-104966191D01*
X128075162Y-104624833D01*
X128014000Y-104476809D01*
X128014000Y-104165343D01*
X128022941Y-104159590D01*
X128024412Y-104157437D01*
X128100802Y-104233827D01*
X128334191Y-104330500D01*
X128492250Y-104330500D01*
X128651000Y-104171750D01*
X128651000Y-103251000D01*
X128905000Y-103251000D01*
X128905000Y-104171750D01*
X129063750Y-104330500D01*
X129221809Y-104330500D01*
X129455198Y-104233827D01*
X129633827Y-104055199D01*
X129730500Y-103821810D01*
X129730500Y-103409750D01*
X129571750Y-103251000D01*
X128905000Y-103251000D01*
X128651000Y-103251000D01*
X128631000Y-103251000D01*
X128631000Y-103155750D01*
X139255500Y-103155750D01*
X139255500Y-103567810D01*
X139352173Y-103801199D01*
X139530802Y-103979827D01*
X139764191Y-104076500D01*
X139922250Y-104076500D01*
X140081000Y-103917750D01*
X140081000Y-102997000D01*
X139414250Y-102997000D01*
X139255500Y-103155750D01*
X128631000Y-103155750D01*
X128631000Y-102997000D01*
X128651000Y-102997000D01*
X128651000Y-101219000D01*
X128905000Y-101219000D01*
X128905000Y-102997000D01*
X129571750Y-102997000D01*
X129730500Y-102838250D01*
X129730500Y-102426190D01*
X129633827Y-102192801D01*
X129549026Y-102108000D01*
X129633827Y-102023199D01*
X129730500Y-101789810D01*
X129730500Y-101377750D01*
X129571750Y-101219000D01*
X128905000Y-101219000D01*
X128651000Y-101219000D01*
X128631000Y-101219000D01*
X128631000Y-101123750D01*
X139255500Y-101123750D01*
X139255500Y-101535810D01*
X139352173Y-101769199D01*
X139436974Y-101854000D01*
X139352173Y-101938801D01*
X139255500Y-102172190D01*
X139255500Y-102584250D01*
X139414250Y-102743000D01*
X140081000Y-102743000D01*
X140081000Y-100965000D01*
X139414250Y-100965000D01*
X139255500Y-101123750D01*
X128631000Y-101123750D01*
X128631000Y-100965000D01*
X128651000Y-100965000D01*
X128651000Y-99187000D01*
X128905000Y-99187000D01*
X128905000Y-100965000D01*
X129571750Y-100965000D01*
X129730500Y-100806250D01*
X129730500Y-100394190D01*
X129633827Y-100160801D01*
X129549026Y-100076000D01*
X129633827Y-99991199D01*
X129730500Y-99757810D01*
X129730500Y-99345750D01*
X129571750Y-99187000D01*
X128905000Y-99187000D01*
X128651000Y-99187000D01*
X128631000Y-99187000D01*
X128631000Y-99091750D01*
X139255500Y-99091750D01*
X139255500Y-99503810D01*
X139352173Y-99737199D01*
X139436974Y-99822000D01*
X139352173Y-99906801D01*
X139255500Y-100140190D01*
X139255500Y-100552250D01*
X139414250Y-100711000D01*
X140081000Y-100711000D01*
X140081000Y-98933000D01*
X139414250Y-98933000D01*
X139255500Y-99091750D01*
X128631000Y-99091750D01*
X128631000Y-98933000D01*
X128651000Y-98933000D01*
X128651000Y-97155000D01*
X128905000Y-97155000D01*
X128905000Y-98933000D01*
X129571750Y-98933000D01*
X129730500Y-98774250D01*
X129730500Y-98362190D01*
X129633827Y-98128801D01*
X129549026Y-98044000D01*
X129633827Y-97959199D01*
X129730500Y-97725810D01*
X129730500Y-97313750D01*
X129571750Y-97155000D01*
X128905000Y-97155000D01*
X128651000Y-97155000D01*
X128631000Y-97155000D01*
X128631000Y-97059750D01*
X139255500Y-97059750D01*
X139255500Y-97471810D01*
X139352173Y-97705199D01*
X139436974Y-97790000D01*
X139352173Y-97874801D01*
X139255500Y-98108190D01*
X139255500Y-98520250D01*
X139414250Y-98679000D01*
X140081000Y-98679000D01*
X140081000Y-96901000D01*
X139414250Y-96901000D01*
X139255500Y-97059750D01*
X128631000Y-97059750D01*
X128631000Y-96901000D01*
X128651000Y-96901000D01*
X128651000Y-95980250D01*
X128905000Y-95980250D01*
X128905000Y-96901000D01*
X129571750Y-96901000D01*
X129730500Y-96742250D01*
X129730500Y-96330190D01*
X129633827Y-96096801D01*
X129613216Y-96076190D01*
X139255500Y-96076190D01*
X139255500Y-96488250D01*
X139414250Y-96647000D01*
X140081000Y-96647000D01*
X140081000Y-95726250D01*
X139922250Y-95567500D01*
X139764191Y-95567500D01*
X139530802Y-95664173D01*
X139352173Y-95842801D01*
X139255500Y-96076190D01*
X129613216Y-96076190D01*
X129455198Y-95918173D01*
X129221809Y-95821500D01*
X129063750Y-95821500D01*
X128905000Y-95980250D01*
X128651000Y-95980250D01*
X128492250Y-95821500D01*
X128334191Y-95821500D01*
X128100802Y-95918173D01*
X128022714Y-95996261D01*
X127983224Y-95969279D01*
X127956148Y-95833161D01*
X127885082Y-95726803D01*
X127885162Y-95634833D01*
X127743117Y-95291057D01*
X127727088Y-95275000D01*
X129079995Y-95275000D01*
X129080000Y-95275001D01*
X129368402Y-95217633D01*
X129418675Y-95207633D01*
X129705790Y-95015790D01*
X131525787Y-93195792D01*
X131525790Y-93195790D01*
X131717633Y-92908675D01*
X131745406Y-92769051D01*
X131785001Y-92570000D01*
X131785000Y-92569995D01*
X131785000Y-90310904D01*
X131844838Y-90166799D01*
X131845162Y-89794833D01*
X131799780Y-89685000D01*
X133393421Y-89685000D01*
X133594208Y-89885787D01*
X133594208Y-89885787D01*
G37*
X133594208Y-89885787D02*
X133594210Y-89885790D01*
X133604208Y-89895787D01*
X133604210Y-89895790D01*
X133751110Y-90042690D01*
X133706069Y-90108610D01*
X133655060Y-90360500D01*
X133655060Y-90645361D01*
X132834210Y-91466210D01*
X132642367Y-91753325D01*
X132642367Y-91753326D01*
X132574999Y-92092000D01*
X132575000Y-92092005D01*
X132575000Y-92999995D01*
X132574999Y-93000000D01*
X132624728Y-93250000D01*
X132642367Y-93338675D01*
X132831923Y-93622367D01*
X132834210Y-93625790D01*
X134144208Y-94935787D01*
X134144210Y-94935790D01*
X134431325Y-95127633D01*
X134467522Y-95134833D01*
X134770000Y-95195001D01*
X134770005Y-95195000D01*
X140847000Y-95195000D01*
X140847000Y-95648351D01*
X140651809Y-95567500D01*
X140493750Y-95567500D01*
X140335000Y-95726250D01*
X140335000Y-96647000D01*
X140355000Y-96647000D01*
X140355000Y-96901000D01*
X140335000Y-96901000D01*
X140335000Y-98679000D01*
X140355000Y-98679000D01*
X140355000Y-98933000D01*
X140335000Y-98933000D01*
X140335000Y-100711000D01*
X140355000Y-100711000D01*
X140355000Y-100965000D01*
X140335000Y-100965000D01*
X140335000Y-102743000D01*
X140355000Y-102743000D01*
X140355000Y-102997000D01*
X140335000Y-102997000D01*
X140335000Y-103917750D01*
X140493750Y-104076500D01*
X140651809Y-104076500D01*
X140847000Y-103995649D01*
X140847000Y-104991995D01*
X140846999Y-104992000D01*
X140885233Y-105184211D01*
X140914367Y-105330675D01*
X141010407Y-105474410D01*
X141106210Y-105617790D01*
X141707255Y-106218835D01*
X141756883Y-106338943D01*
X141939829Y-106522209D01*
X141725059Y-106660410D01*
X141723588Y-106662563D01*
X141647198Y-106586173D01*
X141413809Y-106489500D01*
X141255750Y-106489500D01*
X141097000Y-106648250D01*
X141097000Y-107569000D01*
X141117000Y-107569000D01*
X141117000Y-107823000D01*
X141097000Y-107823000D01*
X141097000Y-107843000D01*
X140843000Y-107843000D01*
X140843000Y-107823000D01*
X140823000Y-107823000D01*
X140823000Y-107569000D01*
X140843000Y-107569000D01*
X140843000Y-106648250D01*
X140684250Y-106489500D01*
X140526191Y-106489500D01*
X140292802Y-106586173D01*
X140114173Y-106764801D01*
X140017500Y-106998190D01*
X140017500Y-107410250D01*
X140176248Y-107568998D01*
X140017500Y-107568998D01*
X140017500Y-107615110D01*
X139964811Y-107593232D01*
X139855811Y-107484231D01*
X139902940Y-107251500D01*
X139902940Y-106616500D01*
X139858662Y-106381183D01*
X139719590Y-106165059D01*
X139717437Y-106163588D01*
X139793827Y-106087198D01*
X139890500Y-105853809D01*
X139890500Y-105695750D01*
X139731750Y-105537000D01*
X138811000Y-105537000D01*
X138811000Y-105557000D01*
X138557000Y-105557000D01*
X138557000Y-105537000D01*
X137636250Y-105537000D01*
X137541000Y-105632250D01*
X137445750Y-105537000D01*
X136525000Y-105537000D01*
X136525000Y-105557000D01*
X136271000Y-105557000D01*
X136271000Y-105537000D01*
X135350250Y-105537000D01*
X135255000Y-105632250D01*
X135159750Y-105537000D01*
X134239000Y-105537000D01*
X134239000Y-105557000D01*
X133985000Y-105557000D01*
X133985000Y-105537000D01*
X133064250Y-105537000D01*
X132969000Y-105632250D01*
X132873750Y-105537000D01*
X131953000Y-105537000D01*
X131953000Y-105557000D01*
X131699000Y-105557000D01*
X131699000Y-105537000D01*
X130778250Y-105537000D01*
X130619500Y-105695750D01*
X130619500Y-105853809D01*
X130716173Y-106087198D01*
X130794261Y-106165286D01*
X130791632Y-106169133D01*
X130780327Y-106157808D01*
X130436799Y-106015162D01*
X130064833Y-106014838D01*
X129943431Y-106065000D01*
X129510005Y-106065000D01*
X129510000Y-106064999D01*
X129251762Y-106116367D01*
X129171325Y-106132367D01*
X128884210Y-106324210D01*
X128884208Y-106324213D01*
X128524210Y-106684210D01*
X128332367Y-106971325D01*
X128327023Y-106998190D01*
X128264999Y-107310000D01*
X128265000Y-107310005D01*
X128265000Y-108097000D01*
X128143000Y-108097000D01*
X128143000Y-108077000D01*
X128123000Y-108077000D01*
X128123000Y-107823000D01*
X128143000Y-107823000D01*
X128143000Y-106902250D01*
X127984250Y-106743500D01*
X127826191Y-106743500D01*
X127592802Y-106840173D01*
X127514714Y-106918261D01*
X127315390Y-106782069D01*
X127063500Y-106731060D01*
X126590000Y-106731060D01*
X126590000Y-106434802D01*
X127279680Y-105745122D01*
X127325167Y-105745162D01*
X127668943Y-105603117D01*
X127932192Y-105340327D01*
X128074838Y-104996799D01*
X128074864Y-104966191D01*
X130619500Y-104966191D01*
X130619500Y-105124250D01*
X130778250Y-105283000D01*
X131699000Y-105283000D01*
X131699000Y-104616250D01*
X131953000Y-104616250D01*
X131953000Y-105283000D01*
X132873750Y-105283000D01*
X132969000Y-105187750D01*
X133064250Y-105283000D01*
X133985000Y-105283000D01*
X133985000Y-104616250D01*
X134239000Y-104616250D01*
X134239000Y-105283000D01*
X135159750Y-105283000D01*
X135255000Y-105187750D01*
X135350250Y-105283000D01*
X136271000Y-105283000D01*
X136271000Y-104616250D01*
X136525000Y-104616250D01*
X136525000Y-105283000D01*
X137445750Y-105283000D01*
X137541000Y-105187750D01*
X137636250Y-105283000D01*
X138557000Y-105283000D01*
X138557000Y-104616250D01*
X138811000Y-104616250D01*
X138811000Y-105283000D01*
X139731750Y-105283000D01*
X139890500Y-105124250D01*
X139890500Y-104966191D01*
X139793827Y-104732802D01*
X139615199Y-104554173D01*
X139381810Y-104457500D01*
X138969750Y-104457500D01*
X138811000Y-104616250D01*
X138557000Y-104616250D01*
X138398250Y-104457500D01*
X137986190Y-104457500D01*
X137752801Y-104554173D01*
X137574173Y-104732802D01*
X137541000Y-104812889D01*
X137507827Y-104732802D01*
X137329199Y-104554173D01*
X137095810Y-104457500D01*
X136683750Y-104457500D01*
X136525000Y-104616250D01*
X136271000Y-104616250D01*
X136112250Y-104457500D01*
X135700190Y-104457500D01*
X135466801Y-104554173D01*
X135288173Y-104732802D01*
X135255000Y-104812889D01*
X135221827Y-104732802D01*
X135043199Y-104554173D01*
X134809810Y-104457500D01*
X134397750Y-104457500D01*
X134239000Y-104616250D01*
X133985000Y-104616250D01*
X133826250Y-104457500D01*
X133414190Y-104457500D01*
X133180801Y-104554173D01*
X133002173Y-104732802D01*
X132969000Y-104812889D01*
X132935827Y-104732802D01*
X132757199Y-104554173D01*
X132523810Y-104457500D01*
X132111750Y-104457500D01*
X131953000Y-104616250D01*
X131699000Y-104616250D01*
X131540250Y-104457500D01*
X131128190Y-104457500D01*
X130894801Y-104554173D01*
X130716173Y-104732802D01*
X130619500Y-104966191D01*
X128074864Y-104966191D01*
X128075162Y-104624833D01*
X128014000Y-104476809D01*
X128014000Y-104165343D01*
X128022941Y-104159590D01*
X128024412Y-104157437D01*
X128100802Y-104233827D01*
X128334191Y-104330500D01*
X128492250Y-104330500D01*
X128651000Y-104171750D01*
X128651000Y-103251000D01*
X128905000Y-103251000D01*
X128905000Y-104171750D01*
X129063750Y-104330500D01*
X129221809Y-104330500D01*
X129455198Y-104233827D01*
X129633827Y-104055199D01*
X129730500Y-103821810D01*
X129730500Y-103409750D01*
X129571750Y-103251000D01*
X128905000Y-103251000D01*
X128651000Y-103251000D01*
X128631000Y-103251000D01*
X128631000Y-103155750D01*
X139255500Y-103155750D01*
X139255500Y-103567810D01*
X139352173Y-103801199D01*
X139530802Y-103979827D01*
X139764191Y-104076500D01*
X139922250Y-104076500D01*
X140081000Y-103917750D01*
X140081000Y-102997000D01*
X139414250Y-102997000D01*
X139255500Y-103155750D01*
X128631000Y-103155750D01*
X128631000Y-102997000D01*
X128651000Y-102997000D01*
X128651000Y-101219000D01*
X128905000Y-101219000D01*
X128905000Y-102997000D01*
X129571750Y-102997000D01*
X129730500Y-102838250D01*
X129730500Y-102426190D01*
X129633827Y-102192801D01*
X129549026Y-102108000D01*
X129633827Y-102023199D01*
X129730500Y-101789810D01*
X129730500Y-101377750D01*
X129571750Y-101219000D01*
X128905000Y-101219000D01*
X128651000Y-101219000D01*
X128631000Y-101219000D01*
X128631000Y-101123750D01*
X139255500Y-101123750D01*
X139255500Y-101535810D01*
X139352173Y-101769199D01*
X139436974Y-101854000D01*
X139352173Y-101938801D01*
X139255500Y-102172190D01*
X139255500Y-102584250D01*
X139414250Y-102743000D01*
X140081000Y-102743000D01*
X140081000Y-100965000D01*
X139414250Y-100965000D01*
X139255500Y-101123750D01*
X128631000Y-101123750D01*
X128631000Y-100965000D01*
X128651000Y-100965000D01*
X128651000Y-99187000D01*
X128905000Y-99187000D01*
X128905000Y-100965000D01*
X129571750Y-100965000D01*
X129730500Y-100806250D01*
X129730500Y-100394190D01*
X129633827Y-100160801D01*
X129549026Y-100076000D01*
X129633827Y-99991199D01*
X129730500Y-99757810D01*
X129730500Y-99345750D01*
X129571750Y-99187000D01*
X128905000Y-99187000D01*
X128651000Y-99187000D01*
X128631000Y-99187000D01*
X128631000Y-99091750D01*
X139255500Y-99091750D01*
X139255500Y-99503810D01*
X139352173Y-99737199D01*
X139436974Y-99822000D01*
X139352173Y-99906801D01*
X139255500Y-100140190D01*
X139255500Y-100552250D01*
X139414250Y-100711000D01*
X140081000Y-100711000D01*
X140081000Y-98933000D01*
X139414250Y-98933000D01*
X139255500Y-99091750D01*
X128631000Y-99091750D01*
X128631000Y-98933000D01*
X128651000Y-98933000D01*
X128651000Y-97155000D01*
X128905000Y-97155000D01*
X128905000Y-98933000D01*
X129571750Y-98933000D01*
X129730500Y-98774250D01*
X129730500Y-98362190D01*
X129633827Y-98128801D01*
X129549026Y-98044000D01*
X129633827Y-97959199D01*
X129730500Y-97725810D01*
X129730500Y-97313750D01*
X129571750Y-97155000D01*
X128905000Y-97155000D01*
X128651000Y-97155000D01*
X128631000Y-97155000D01*
X128631000Y-97059750D01*
X139255500Y-97059750D01*
X139255500Y-97471810D01*
X139352173Y-97705199D01*
X139436974Y-97790000D01*
X139352173Y-97874801D01*
X139255500Y-98108190D01*
X139255500Y-98520250D01*
X139414250Y-98679000D01*
X140081000Y-98679000D01*
X140081000Y-96901000D01*
X139414250Y-96901000D01*
X139255500Y-97059750D01*
X128631000Y-97059750D01*
X128631000Y-96901000D01*
X128651000Y-96901000D01*
X128651000Y-95980250D01*
X128905000Y-95980250D01*
X128905000Y-96901000D01*
X129571750Y-96901000D01*
X129730500Y-96742250D01*
X129730500Y-96330190D01*
X129633827Y-96096801D01*
X129613216Y-96076190D01*
X139255500Y-96076190D01*
X139255500Y-96488250D01*
X139414250Y-96647000D01*
X140081000Y-96647000D01*
X140081000Y-95726250D01*
X139922250Y-95567500D01*
X139764191Y-95567500D01*
X139530802Y-95664173D01*
X139352173Y-95842801D01*
X139255500Y-96076190D01*
X129613216Y-96076190D01*
X129455198Y-95918173D01*
X129221809Y-95821500D01*
X129063750Y-95821500D01*
X128905000Y-95980250D01*
X128651000Y-95980250D01*
X128492250Y-95821500D01*
X128334191Y-95821500D01*
X128100802Y-95918173D01*
X128022714Y-95996261D01*
X127983224Y-95969279D01*
X127956148Y-95833161D01*
X127885082Y-95726803D01*
X127885162Y-95634833D01*
X127743117Y-95291057D01*
X127727088Y-95275000D01*
X129079995Y-95275000D01*
X129080000Y-95275001D01*
X129368402Y-95217633D01*
X129418675Y-95207633D01*
X129705790Y-95015790D01*
X131525787Y-93195792D01*
X131525790Y-93195790D01*
X131717633Y-92908675D01*
X131745406Y-92769051D01*
X131785001Y-92570000D01*
X131785000Y-92569995D01*
X131785000Y-90310904D01*
X131844838Y-90166799D01*
X131845162Y-89794833D01*
X131799780Y-89685000D01*
X133393421Y-89685000D01*
X133594208Y-89885787D01*
G36*
X126936208Y-92967787D02*
X126936210Y-92967790D01*
X127109219Y-93083390D01*
X127223326Y-93159634D01*
X127297173Y-93174323D01*
X127416610Y-93255931D01*
X127668500Y-93306940D01*
X128811500Y-93306940D01*
X128934653Y-93283767D01*
X128713420Y-93505000D01*
X126076822Y-93505000D01*
X125956799Y-93455162D01*
X125584833Y-93454838D01*
X125439229Y-93515000D01*
X124542353Y-93515000D01*
X124453590Y-93377059D01*
X124241390Y-93232069D01*
X123989500Y-93181060D01*
X123354500Y-93181060D01*
X123119183Y-93225338D01*
X122903059Y-93364410D01*
X122901588Y-93366563D01*
X122825198Y-93290173D01*
X122591809Y-93193500D01*
X122433750Y-93193500D01*
X122275000Y-93352250D01*
X122275000Y-94273000D01*
X122295000Y-94273000D01*
X122295000Y-94527000D01*
X122275000Y-94527000D01*
X122275000Y-95447750D01*
X122433750Y-95606500D01*
X122591809Y-95606500D01*
X122787000Y-95525649D01*
X122787000Y-98081995D01*
X122786999Y-98082000D01*
X122827379Y-98284999D01*
X122854367Y-98420675D01*
X122983683Y-98614211D01*
X123046210Y-98707790D01*
X123602945Y-99264524D01*
X123439183Y-99295338D01*
X123223059Y-99434410D01*
X123221588Y-99436563D01*
X123145198Y-99360173D01*
X122911809Y-99263500D01*
X122753750Y-99263500D01*
X122595000Y-99422250D01*
X122595000Y-100343000D01*
X122615000Y-100343000D01*
X122615000Y-100597000D01*
X122595000Y-100597000D01*
X122595000Y-101517750D01*
X122753750Y-101676500D01*
X122911809Y-101676500D01*
X123145198Y-101579827D01*
X123223286Y-101501739D01*
X123422610Y-101637931D01*
X123674500Y-101688940D01*
X124309500Y-101688940D01*
X124544817Y-101644662D01*
X124760941Y-101505590D01*
X124875448Y-101338004D01*
X125072484Y-101298810D01*
X125128675Y-101287633D01*
X125307732Y-101167992D01*
X125488943Y-101093117D01*
X125752192Y-100830327D01*
X125894838Y-100486799D01*
X125895162Y-100114833D01*
X125845000Y-99993431D01*
X125845000Y-99370005D01*
X125845001Y-99370000D01*
X125777633Y-99031326D01*
X125777633Y-99031325D01*
X125585790Y-98744210D01*
X125585787Y-98744208D01*
X124557000Y-97715420D01*
X124557000Y-95285000D01*
X125487261Y-95285000D01*
X125583201Y-95324838D01*
X125955167Y-95325162D01*
X126076569Y-95275000D01*
X126172507Y-95275000D01*
X126157808Y-95289673D01*
X126015162Y-95633201D01*
X126014838Y-96005167D01*
X126156883Y-96348943D01*
X126289060Y-96481351D01*
X126289060Y-97599500D01*
X126333338Y-97834817D01*
X126469753Y-98046811D01*
X126340069Y-98236610D01*
X126289060Y-98488500D01*
X126289060Y-99631500D01*
X126333338Y-99866817D01*
X126469753Y-100078811D01*
X126340069Y-100268610D01*
X126289060Y-100520500D01*
X126289060Y-101663500D01*
X126333338Y-101898817D01*
X126469753Y-102110811D01*
X126340069Y-102300610D01*
X126289060Y-102552500D01*
X126289060Y-103695500D01*
X126333338Y-103930817D01*
X126472410Y-104146941D01*
X126477374Y-104150333D01*
X126347808Y-104279673D01*
X126205162Y-104623201D01*
X126205121Y-104670077D01*
X125292599Y-105582599D01*
X125127852Y-105829161D01*
X125070000Y-106120000D01*
X125070000Y-106595198D01*
X123865198Y-107800000D01*
X122960000Y-107800000D01*
X122744850Y-107842796D01*
X122745162Y-107484833D01*
X122603117Y-107141057D01*
X122340327Y-106877808D01*
X122219014Y-106827434D01*
X122195790Y-106804210D01*
X122184513Y-106796675D01*
X121908675Y-106612367D01*
X121823000Y-106595325D01*
X121570000Y-106544999D01*
X121569995Y-106545000D01*
X121467000Y-106545000D01*
X121467000Y-106419348D01*
X121496940Y-106271500D01*
X121496940Y-105128500D01*
X121452662Y-104893183D01*
X121313590Y-104677059D01*
X121101390Y-104532069D01*
X120849500Y-104481060D01*
X120214500Y-104481060D01*
X119979183Y-104525338D01*
X119953000Y-104542186D01*
X119953000Y-100755750D01*
X121515500Y-100755750D01*
X121515500Y-101167810D01*
X121612173Y-101401199D01*
X121790802Y-101579827D01*
X122024191Y-101676500D01*
X122182250Y-101676500D01*
X122341000Y-101517750D01*
X122341000Y-100597000D01*
X121674250Y-100597000D01*
X121515500Y-100755750D01*
X119953000Y-100755750D01*
X119953000Y-99615167D01*
X120284838Y-99615167D01*
X120426883Y-99958943D01*
X120689673Y-100222192D01*
X121033201Y-100364838D01*
X121405167Y-100365162D01*
X121611257Y-100280007D01*
X121674250Y-100343000D01*
X122341000Y-100343000D01*
X122341000Y-99422250D01*
X122182250Y-99263500D01*
X122155146Y-99263500D01*
X122155162Y-99244833D01*
X122013117Y-98901057D01*
X121750327Y-98637808D01*
X121406799Y-98495162D01*
X121034833Y-98494838D01*
X120691057Y-98636883D01*
X120427808Y-98899673D01*
X120285162Y-99243201D01*
X120284838Y-99615167D01*
X119953000Y-99615167D01*
X119953000Y-94685750D01*
X121195500Y-94685750D01*
X121195500Y-95097810D01*
X121292173Y-95331199D01*
X121470802Y-95509827D01*
X121704191Y-95606500D01*
X121862250Y-95606500D01*
X122021000Y-95447750D01*
X122021000Y-94527000D01*
X121354250Y-94527000D01*
X121195500Y-94685750D01*
X119953000Y-94685750D01*
X119953000Y-93702190D01*
X121195500Y-93702190D01*
X121195500Y-94114250D01*
X121354250Y-94273000D01*
X122021000Y-94273000D01*
X122021000Y-93352250D01*
X121862250Y-93193500D01*
X121704191Y-93193500D01*
X121470802Y-93290173D01*
X121292173Y-93468801D01*
X121195500Y-93702190D01*
X119953000Y-93702190D01*
X119953000Y-93210369D01*
X120022610Y-93257931D01*
X120274500Y-93308940D01*
X120909500Y-93308940D01*
X121144817Y-93264662D01*
X121360941Y-93125590D01*
X121463835Y-92975000D01*
X125329995Y-92975000D01*
X125330000Y-92975001D01*
X125621584Y-92917000D01*
X125668675Y-92907633D01*
X125955790Y-92715790D01*
X126068835Y-92602744D01*
X126188943Y-92553117D01*
X126355385Y-92386965D01*
X126936208Y-92967787D01*
X126936208Y-92967787D01*
G37*
X126936208Y-92967787D02*
X126936210Y-92967790D01*
X127109219Y-93083390D01*
X127223326Y-93159634D01*
X127297173Y-93174323D01*
X127416610Y-93255931D01*
X127668500Y-93306940D01*
X128811500Y-93306940D01*
X128934653Y-93283767D01*
X128713420Y-93505000D01*
X126076822Y-93505000D01*
X125956799Y-93455162D01*
X125584833Y-93454838D01*
X125439229Y-93515000D01*
X124542353Y-93515000D01*
X124453590Y-93377059D01*
X124241390Y-93232069D01*
X123989500Y-93181060D01*
X123354500Y-93181060D01*
X123119183Y-93225338D01*
X122903059Y-93364410D01*
X122901588Y-93366563D01*
X122825198Y-93290173D01*
X122591809Y-93193500D01*
X122433750Y-93193500D01*
X122275000Y-93352250D01*
X122275000Y-94273000D01*
X122295000Y-94273000D01*
X122295000Y-94527000D01*
X122275000Y-94527000D01*
X122275000Y-95447750D01*
X122433750Y-95606500D01*
X122591809Y-95606500D01*
X122787000Y-95525649D01*
X122787000Y-98081995D01*
X122786999Y-98082000D01*
X122827379Y-98284999D01*
X122854367Y-98420675D01*
X122983683Y-98614211D01*
X123046210Y-98707790D01*
X123602945Y-99264524D01*
X123439183Y-99295338D01*
X123223059Y-99434410D01*
X123221588Y-99436563D01*
X123145198Y-99360173D01*
X122911809Y-99263500D01*
X122753750Y-99263500D01*
X122595000Y-99422250D01*
X122595000Y-100343000D01*
X122615000Y-100343000D01*
X122615000Y-100597000D01*
X122595000Y-100597000D01*
X122595000Y-101517750D01*
X122753750Y-101676500D01*
X122911809Y-101676500D01*
X123145198Y-101579827D01*
X123223286Y-101501739D01*
X123422610Y-101637931D01*
X123674500Y-101688940D01*
X124309500Y-101688940D01*
X124544817Y-101644662D01*
X124760941Y-101505590D01*
X124875448Y-101338004D01*
X125072484Y-101298810D01*
X125128675Y-101287633D01*
X125307732Y-101167992D01*
X125488943Y-101093117D01*
X125752192Y-100830327D01*
X125894838Y-100486799D01*
X125895162Y-100114833D01*
X125845000Y-99993431D01*
X125845000Y-99370005D01*
X125845001Y-99370000D01*
X125777633Y-99031326D01*
X125777633Y-99031325D01*
X125585790Y-98744210D01*
X125585787Y-98744208D01*
X124557000Y-97715420D01*
X124557000Y-95285000D01*
X125487261Y-95285000D01*
X125583201Y-95324838D01*
X125955167Y-95325162D01*
X126076569Y-95275000D01*
X126172507Y-95275000D01*
X126157808Y-95289673D01*
X126015162Y-95633201D01*
X126014838Y-96005167D01*
X126156883Y-96348943D01*
X126289060Y-96481351D01*
X126289060Y-97599500D01*
X126333338Y-97834817D01*
X126469753Y-98046811D01*
X126340069Y-98236610D01*
X126289060Y-98488500D01*
X126289060Y-99631500D01*
X126333338Y-99866817D01*
X126469753Y-100078811D01*
X126340069Y-100268610D01*
X126289060Y-100520500D01*
X126289060Y-101663500D01*
X126333338Y-101898817D01*
X126469753Y-102110811D01*
X126340069Y-102300610D01*
X126289060Y-102552500D01*
X126289060Y-103695500D01*
X126333338Y-103930817D01*
X126472410Y-104146941D01*
X126477374Y-104150333D01*
X126347808Y-104279673D01*
X126205162Y-104623201D01*
X126205121Y-104670077D01*
X125292599Y-105582599D01*
X125127852Y-105829161D01*
X125070000Y-106120000D01*
X125070000Y-106595198D01*
X123865198Y-107800000D01*
X122960000Y-107800000D01*
X122744850Y-107842796D01*
X122745162Y-107484833D01*
X122603117Y-107141057D01*
X122340327Y-106877808D01*
X122219014Y-106827434D01*
X122195790Y-106804210D01*
X122184513Y-106796675D01*
X121908675Y-106612367D01*
X121823000Y-106595325D01*
X121570000Y-106544999D01*
X121569995Y-106545000D01*
X121467000Y-106545000D01*
X121467000Y-106419348D01*
X121496940Y-106271500D01*
X121496940Y-105128500D01*
X121452662Y-104893183D01*
X121313590Y-104677059D01*
X121101390Y-104532069D01*
X120849500Y-104481060D01*
X120214500Y-104481060D01*
X119979183Y-104525338D01*
X119953000Y-104542186D01*
X119953000Y-100755750D01*
X121515500Y-100755750D01*
X121515500Y-101167810D01*
X121612173Y-101401199D01*
X121790802Y-101579827D01*
X122024191Y-101676500D01*
X122182250Y-101676500D01*
X122341000Y-101517750D01*
X122341000Y-100597000D01*
X121674250Y-100597000D01*
X121515500Y-100755750D01*
X119953000Y-100755750D01*
X119953000Y-99615167D01*
X120284838Y-99615167D01*
X120426883Y-99958943D01*
X120689673Y-100222192D01*
X121033201Y-100364838D01*
X121405167Y-100365162D01*
X121611257Y-100280007D01*
X121674250Y-100343000D01*
X122341000Y-100343000D01*
X122341000Y-99422250D01*
X122182250Y-99263500D01*
X122155146Y-99263500D01*
X122155162Y-99244833D01*
X122013117Y-98901057D01*
X121750327Y-98637808D01*
X121406799Y-98495162D01*
X121034833Y-98494838D01*
X120691057Y-98636883D01*
X120427808Y-98899673D01*
X120285162Y-99243201D01*
X120284838Y-99615167D01*
X119953000Y-99615167D01*
X119953000Y-94685750D01*
X121195500Y-94685750D01*
X121195500Y-95097810D01*
X121292173Y-95331199D01*
X121470802Y-95509827D01*
X121704191Y-95606500D01*
X121862250Y-95606500D01*
X122021000Y-95447750D01*
X122021000Y-94527000D01*
X121354250Y-94527000D01*
X121195500Y-94685750D01*
X119953000Y-94685750D01*
X119953000Y-93702190D01*
X121195500Y-93702190D01*
X121195500Y-94114250D01*
X121354250Y-94273000D01*
X122021000Y-94273000D01*
X122021000Y-93352250D01*
X121862250Y-93193500D01*
X121704191Y-93193500D01*
X121470802Y-93290173D01*
X121292173Y-93468801D01*
X121195500Y-93702190D01*
X119953000Y-93702190D01*
X119953000Y-93210369D01*
X120022610Y-93257931D01*
X120274500Y-93308940D01*
X120909500Y-93308940D01*
X121144817Y-93264662D01*
X121360941Y-93125590D01*
X121463835Y-92975000D01*
X125329995Y-92975000D01*
X125330000Y-92975001D01*
X125621584Y-92917000D01*
X125668675Y-92907633D01*
X125955790Y-92715790D01*
X126068835Y-92602744D01*
X126188943Y-92553117D01*
X126355385Y-92386965D01*
X126936208Y-92967787D01*
G36*
X141813162Y-89221201D02*
X141813113Y-89277687D01*
X141667809Y-89217500D01*
X141509750Y-89217500D01*
X141351000Y-89376250D01*
X141351000Y-90297000D01*
X141371000Y-90297000D01*
X141371000Y-90551000D01*
X141351000Y-90551000D01*
X141351000Y-91471750D01*
X141509750Y-91630500D01*
X141667809Y-91630500D01*
X141901198Y-91533827D01*
X141979286Y-91455739D01*
X142178610Y-91591931D01*
X142430500Y-91642940D01*
X142704553Y-91642940D01*
X142697808Y-91649673D01*
X142555162Y-91993201D01*
X142554838Y-92365167D01*
X142696883Y-92708943D01*
X142959673Y-92972192D01*
X143303201Y-93114838D01*
X143675167Y-93115162D01*
X144018943Y-92973117D01*
X144282192Y-92710327D01*
X144424838Y-92366799D01*
X144425162Y-91994833D01*
X144283117Y-91651057D01*
X144020327Y-91387808D01*
X143676799Y-91245162D01*
X143662385Y-91245149D01*
X143673804Y-91188761D01*
X143881790Y-91049790D01*
X144384579Y-90547000D01*
X144525995Y-90547000D01*
X144526000Y-90547001D01*
X144837698Y-90484999D01*
X144864675Y-90479633D01*
X145151790Y-90287790D01*
X145151791Y-90287789D01*
X145858415Y-89581164D01*
X146002811Y-89488247D01*
X146192610Y-89617931D01*
X146444500Y-89668940D01*
X147079500Y-89668940D01*
X147314817Y-89624662D01*
X147530941Y-89485590D01*
X147623044Y-89350792D01*
X147753201Y-89404838D01*
X147946161Y-89405006D01*
X147914104Y-89451923D01*
X147891093Y-89456500D01*
X147811325Y-89472367D01*
X147524210Y-89664210D01*
X147524208Y-89664213D01*
X146861165Y-90327256D01*
X146741057Y-90376883D01*
X146477808Y-90639673D01*
X146335162Y-90983201D01*
X146334838Y-91355167D01*
X146476883Y-91698943D01*
X146739673Y-91962192D01*
X147083201Y-92104838D01*
X147118430Y-92104869D01*
X147128424Y-92129058D01*
X147127808Y-92129673D01*
X146985162Y-92473201D01*
X146984838Y-92845167D01*
X147126883Y-93188943D01*
X147389673Y-93452192D01*
X147733201Y-93594838D01*
X147926997Y-93595007D01*
X147927338Y-93596817D01*
X147963000Y-93652237D01*
X147963000Y-93794268D01*
X147934069Y-93836610D01*
X147883060Y-94088500D01*
X147883060Y-95231500D01*
X147927338Y-95466817D01*
X148066410Y-95682941D01*
X148278610Y-95827931D01*
X148530500Y-95878940D01*
X149165500Y-95878940D01*
X149400817Y-95834662D01*
X149616941Y-95695590D01*
X149618412Y-95693437D01*
X149694802Y-95769827D01*
X149928191Y-95866500D01*
X150086250Y-95866500D01*
X150245000Y-95707750D01*
X150245000Y-94787000D01*
X150499000Y-94787000D01*
X150499000Y-95707750D01*
X150657750Y-95866500D01*
X150815809Y-95866500D01*
X151049198Y-95769827D01*
X151227827Y-95591199D01*
X151324500Y-95357810D01*
X151324500Y-94945750D01*
X151165750Y-94787000D01*
X150499000Y-94787000D01*
X150245000Y-94787000D01*
X150225000Y-94787000D01*
X150225000Y-94533000D01*
X150245000Y-94533000D01*
X150245000Y-92917000D01*
X150499000Y-92917000D01*
X150499000Y-94533000D01*
X151165750Y-94533000D01*
X151324500Y-94374250D01*
X151324500Y-93962190D01*
X151227827Y-93728801D01*
X151224026Y-93725000D01*
X151227827Y-93721199D01*
X151324500Y-93487810D01*
X151324500Y-93075750D01*
X151165750Y-92917000D01*
X150499000Y-92917000D01*
X150245000Y-92917000D01*
X150225000Y-92917000D01*
X150225000Y-92663000D01*
X150245000Y-92663000D01*
X150245000Y-91742250D01*
X150499000Y-91742250D01*
X150499000Y-92663000D01*
X151165750Y-92663000D01*
X151324500Y-92504250D01*
X151324500Y-92092190D01*
X151227827Y-91858801D01*
X151049198Y-91680173D01*
X150815809Y-91583500D01*
X150657750Y-91583500D01*
X150499000Y-91742250D01*
X150245000Y-91742250D01*
X150086250Y-91583500D01*
X149928191Y-91583500D01*
X149733000Y-91664351D01*
X149733000Y-91430867D01*
X149772610Y-91457931D01*
X150024500Y-91508940D01*
X150659500Y-91508940D01*
X150894817Y-91464662D01*
X151110941Y-91325590D01*
X151213835Y-91175000D01*
X151743420Y-91175000D01*
X152875000Y-92306579D01*
X152875000Y-101272926D01*
X152620327Y-101017808D01*
X152276799Y-100875162D01*
X151904833Y-100874838D01*
X151561057Y-101016883D01*
X151554500Y-101023429D01*
X151554500Y-100682190D01*
X151457827Y-100448801D01*
X151279198Y-100270173D01*
X151045809Y-100173500D01*
X150887750Y-100173500D01*
X150729000Y-100332250D01*
X150729000Y-101253000D01*
X150749000Y-101253000D01*
X150749000Y-101507000D01*
X150729000Y-101507000D01*
X150729000Y-102427750D01*
X150759000Y-102457750D01*
X150759000Y-103233000D01*
X150779000Y-103233000D01*
X150779000Y-103487000D01*
X150759000Y-103487000D01*
X150759000Y-105123000D01*
X151425750Y-105123000D01*
X151584500Y-104964250D01*
X151584500Y-104552190D01*
X151502769Y-104354874D01*
X151739673Y-104592192D01*
X152083201Y-104734838D01*
X152455167Y-104735162D01*
X152798943Y-104593117D01*
X152875000Y-104517193D01*
X152875000Y-105383421D01*
X150713420Y-107545000D01*
X149016822Y-107545000D01*
X148896799Y-107495162D01*
X148524833Y-107494838D01*
X148403431Y-107545000D01*
X147681344Y-107545000D01*
X147825931Y-107333390D01*
X147876940Y-107081500D01*
X147876940Y-106804640D01*
X148215028Y-106466551D01*
X148214838Y-106685167D01*
X148356883Y-107028943D01*
X148619673Y-107292192D01*
X148963201Y-107434838D01*
X149335167Y-107435162D01*
X149678943Y-107293117D01*
X149942192Y-107030327D01*
X150084838Y-106686799D01*
X150085076Y-106413788D01*
X150188191Y-106456500D01*
X150346250Y-106456500D01*
X150505000Y-106297750D01*
X150505000Y-105377000D01*
X150759000Y-105377000D01*
X150759000Y-106297750D01*
X150917750Y-106456500D01*
X151075809Y-106456500D01*
X151309198Y-106359827D01*
X151487827Y-106181199D01*
X151584500Y-105947810D01*
X151584500Y-105535750D01*
X151425750Y-105377000D01*
X150759000Y-105377000D01*
X150505000Y-105377000D01*
X150485000Y-105377000D01*
X150485000Y-105123000D01*
X150505000Y-105123000D01*
X150505000Y-103487000D01*
X150485000Y-103487000D01*
X150485000Y-103233000D01*
X150505000Y-103233000D01*
X150505000Y-102312250D01*
X150475000Y-102282250D01*
X150475000Y-101507000D01*
X150455000Y-101507000D01*
X150455000Y-101253000D01*
X150475000Y-101253000D01*
X150475000Y-100332250D01*
X150316250Y-100173500D01*
X150158191Y-100173500D01*
X149924802Y-100270173D01*
X149846714Y-100348261D01*
X149647390Y-100212069D01*
X149395500Y-100161060D01*
X148760500Y-100161060D01*
X148525183Y-100205338D01*
X148309059Y-100344410D01*
X148203990Y-100498184D01*
X147932186Y-100552250D01*
X147881325Y-100562367D01*
X147764500Y-100640427D01*
X147764500Y-100615750D01*
X147605750Y-100457000D01*
X146939000Y-100457000D01*
X146939000Y-101377750D01*
X147015765Y-101454515D01*
X146954999Y-101760000D01*
X146955000Y-101760005D01*
X146955000Y-102563421D01*
X146933420Y-102585000D01*
X144184988Y-102585000D01*
X144185162Y-102384833D01*
X144043117Y-102041057D01*
X143972264Y-101970081D01*
X144072192Y-101870327D01*
X144214838Y-101526799D01*
X144215110Y-101215000D01*
X144417647Y-101215000D01*
X144506410Y-101352941D01*
X144718610Y-101497931D01*
X144970500Y-101548940D01*
X145605500Y-101548940D01*
X145840817Y-101504662D01*
X146056941Y-101365590D01*
X146058412Y-101363437D01*
X146134802Y-101439827D01*
X146368191Y-101536500D01*
X146526250Y-101536500D01*
X146685000Y-101377750D01*
X146685000Y-100457000D01*
X146665000Y-100457000D01*
X146665000Y-100203000D01*
X146685000Y-100203000D01*
X146685000Y-99282250D01*
X146939000Y-99282250D01*
X146939000Y-100203000D01*
X147605750Y-100203000D01*
X147764500Y-100044250D01*
X147764500Y-99632190D01*
X147667827Y-99398801D01*
X147489198Y-99220173D01*
X147255809Y-99123500D01*
X147097750Y-99123500D01*
X146939000Y-99282250D01*
X146685000Y-99282250D01*
X146526250Y-99123500D01*
X146368191Y-99123500D01*
X146134802Y-99220173D01*
X146056714Y-99298261D01*
X145857390Y-99162069D01*
X145605500Y-99111060D01*
X144970500Y-99111060D01*
X144735183Y-99155338D01*
X144519059Y-99294410D01*
X144445000Y-99402799D01*
X144445000Y-96177507D01*
X144506410Y-96272941D01*
X144718610Y-96417931D01*
X144970500Y-96468940D01*
X145605500Y-96468940D01*
X145840817Y-96424662D01*
X146056941Y-96285590D01*
X146058412Y-96283437D01*
X146134802Y-96359827D01*
X146368191Y-96456500D01*
X146526250Y-96456500D01*
X146685000Y-96297750D01*
X146685000Y-95377000D01*
X146939000Y-95377000D01*
X146939000Y-96297750D01*
X147097750Y-96456500D01*
X147255809Y-96456500D01*
X147489198Y-96359827D01*
X147667827Y-96181199D01*
X147764500Y-95947810D01*
X147764500Y-95535750D01*
X147605750Y-95377000D01*
X146939000Y-95377000D01*
X146685000Y-95377000D01*
X146665000Y-95377000D01*
X146665000Y-95123000D01*
X146685000Y-95123000D01*
X146685000Y-94202250D01*
X146939000Y-94202250D01*
X146939000Y-95123000D01*
X147605750Y-95123000D01*
X147764500Y-94964250D01*
X147764500Y-94552190D01*
X147667827Y-94318801D01*
X147489198Y-94140173D01*
X147255809Y-94043500D01*
X147097750Y-94043500D01*
X146939000Y-94202250D01*
X146685000Y-94202250D01*
X146526250Y-94043500D01*
X146368191Y-94043500D01*
X146134802Y-94140173D01*
X146056714Y-94218261D01*
X145857390Y-94082069D01*
X145605500Y-94031060D01*
X144970500Y-94031060D01*
X144735183Y-94075338D01*
X144519059Y-94214410D01*
X144374069Y-94426610D01*
X144361232Y-94490000D01*
X144059276Y-94490000D01*
X143806799Y-94385162D01*
X143434833Y-94384838D01*
X143091057Y-94526883D01*
X142827808Y-94789673D01*
X142685162Y-95133201D01*
X142684991Y-95329769D01*
X142674999Y-95380000D01*
X142675000Y-95380005D01*
X142675000Y-96085899D01*
X142652662Y-95967183D01*
X142617000Y-95911763D01*
X142617000Y-94875458D01*
X142652192Y-94840327D01*
X142794838Y-94496799D01*
X142795162Y-94124833D01*
X142653117Y-93781057D01*
X142390327Y-93517808D01*
X142046799Y-93375162D01*
X141674833Y-93374838D01*
X141553431Y-93425000D01*
X135136579Y-93425000D01*
X134727165Y-93015585D01*
X134747000Y-92995750D01*
X134747000Y-92329000D01*
X135001000Y-92329000D01*
X135001000Y-92995750D01*
X135159750Y-93154500D01*
X135571810Y-93154500D01*
X135805199Y-93057827D01*
X135890000Y-92973026D01*
X135974801Y-93057827D01*
X136208190Y-93154500D01*
X136620250Y-93154500D01*
X136779000Y-92995750D01*
X136779000Y-92329000D01*
X137033000Y-92329000D01*
X137033000Y-92995750D01*
X137191750Y-93154500D01*
X137603810Y-93154500D01*
X137837199Y-93057827D01*
X138015827Y-92879198D01*
X138112500Y-92645809D01*
X138112500Y-92487750D01*
X137953750Y-92329000D01*
X137033000Y-92329000D01*
X136779000Y-92329000D01*
X135001000Y-92329000D01*
X134747000Y-92329000D01*
X134727000Y-92329000D01*
X134727000Y-92076580D01*
X134728580Y-92075000D01*
X134747000Y-92075000D01*
X134747000Y-92056580D01*
X134748580Y-92055000D01*
X135001000Y-92055000D01*
X135001000Y-92075000D01*
X136779000Y-92075000D01*
X136779000Y-92055000D01*
X137033000Y-92055000D01*
X137033000Y-92075000D01*
X137953750Y-92075000D01*
X138112500Y-91916250D01*
X138112500Y-91758191D01*
X138031649Y-91563000D01*
X139231995Y-91563000D01*
X139232000Y-91563001D01*
X139514484Y-91506810D01*
X139570675Y-91495633D01*
X139653075Y-91440575D01*
X139888943Y-91343117D01*
X140152192Y-91080327D01*
X140271500Y-90793003D01*
X140271500Y-91121810D01*
X140368173Y-91355199D01*
X140546802Y-91533827D01*
X140780191Y-91630500D01*
X140938250Y-91630500D01*
X141097000Y-91471750D01*
X141097000Y-90551000D01*
X141077000Y-90551000D01*
X141077000Y-90297000D01*
X141097000Y-90297000D01*
X141097000Y-89376250D01*
X140938250Y-89217500D01*
X140780191Y-89217500D01*
X140546802Y-89314173D01*
X140368173Y-89492801D01*
X140271500Y-89726190D01*
X140271500Y-90138250D01*
X140430248Y-90296998D01*
X140271500Y-90296998D01*
X140271500Y-90307566D01*
X140245000Y-90243431D01*
X140245000Y-89286580D01*
X140436579Y-89095000D01*
X141865565Y-89095000D01*
X141813162Y-89221201D01*
X141813162Y-89221201D01*
G37*
X141813162Y-89221201D02*
X141813113Y-89277687D01*
X141667809Y-89217500D01*
X141509750Y-89217500D01*
X141351000Y-89376250D01*
X141351000Y-90297000D01*
X141371000Y-90297000D01*
X141371000Y-90551000D01*
X141351000Y-90551000D01*
X141351000Y-91471750D01*
X141509750Y-91630500D01*
X141667809Y-91630500D01*
X141901198Y-91533827D01*
X141979286Y-91455739D01*
X142178610Y-91591931D01*
X142430500Y-91642940D01*
X142704553Y-91642940D01*
X142697808Y-91649673D01*
X142555162Y-91993201D01*
X142554838Y-92365167D01*
X142696883Y-92708943D01*
X142959673Y-92972192D01*
X143303201Y-93114838D01*
X143675167Y-93115162D01*
X144018943Y-92973117D01*
X144282192Y-92710327D01*
X144424838Y-92366799D01*
X144425162Y-91994833D01*
X144283117Y-91651057D01*
X144020327Y-91387808D01*
X143676799Y-91245162D01*
X143662385Y-91245149D01*
X143673804Y-91188761D01*
X143881790Y-91049790D01*
X144384579Y-90547000D01*
X144525995Y-90547000D01*
X144526000Y-90547001D01*
X144837698Y-90484999D01*
X144864675Y-90479633D01*
X145151790Y-90287790D01*
X145151791Y-90287789D01*
X145858415Y-89581164D01*
X146002811Y-89488247D01*
X146192610Y-89617931D01*
X146444500Y-89668940D01*
X147079500Y-89668940D01*
X147314817Y-89624662D01*
X147530941Y-89485590D01*
X147623044Y-89350792D01*
X147753201Y-89404838D01*
X147946161Y-89405006D01*
X147914104Y-89451923D01*
X147891093Y-89456500D01*
X147811325Y-89472367D01*
X147524210Y-89664210D01*
X147524208Y-89664213D01*
X146861165Y-90327256D01*
X146741057Y-90376883D01*
X146477808Y-90639673D01*
X146335162Y-90983201D01*
X146334838Y-91355167D01*
X146476883Y-91698943D01*
X146739673Y-91962192D01*
X147083201Y-92104838D01*
X147118430Y-92104869D01*
X147128424Y-92129058D01*
X147127808Y-92129673D01*
X146985162Y-92473201D01*
X146984838Y-92845167D01*
X147126883Y-93188943D01*
X147389673Y-93452192D01*
X147733201Y-93594838D01*
X147926997Y-93595007D01*
X147927338Y-93596817D01*
X147963000Y-93652237D01*
X147963000Y-93794268D01*
X147934069Y-93836610D01*
X147883060Y-94088500D01*
X147883060Y-95231500D01*
X147927338Y-95466817D01*
X148066410Y-95682941D01*
X148278610Y-95827931D01*
X148530500Y-95878940D01*
X149165500Y-95878940D01*
X149400817Y-95834662D01*
X149616941Y-95695590D01*
X149618412Y-95693437D01*
X149694802Y-95769827D01*
X149928191Y-95866500D01*
X150086250Y-95866500D01*
X150245000Y-95707750D01*
X150245000Y-94787000D01*
X150499000Y-94787000D01*
X150499000Y-95707750D01*
X150657750Y-95866500D01*
X150815809Y-95866500D01*
X151049198Y-95769827D01*
X151227827Y-95591199D01*
X151324500Y-95357810D01*
X151324500Y-94945750D01*
X151165750Y-94787000D01*
X150499000Y-94787000D01*
X150245000Y-94787000D01*
X150225000Y-94787000D01*
X150225000Y-94533000D01*
X150245000Y-94533000D01*
X150245000Y-92917000D01*
X150499000Y-92917000D01*
X150499000Y-94533000D01*
X151165750Y-94533000D01*
X151324500Y-94374250D01*
X151324500Y-93962190D01*
X151227827Y-93728801D01*
X151224026Y-93725000D01*
X151227827Y-93721199D01*
X151324500Y-93487810D01*
X151324500Y-93075750D01*
X151165750Y-92917000D01*
X150499000Y-92917000D01*
X150245000Y-92917000D01*
X150225000Y-92917000D01*
X150225000Y-92663000D01*
X150245000Y-92663000D01*
X150245000Y-91742250D01*
X150499000Y-91742250D01*
X150499000Y-92663000D01*
X151165750Y-92663000D01*
X151324500Y-92504250D01*
X151324500Y-92092190D01*
X151227827Y-91858801D01*
X151049198Y-91680173D01*
X150815809Y-91583500D01*
X150657750Y-91583500D01*
X150499000Y-91742250D01*
X150245000Y-91742250D01*
X150086250Y-91583500D01*
X149928191Y-91583500D01*
X149733000Y-91664351D01*
X149733000Y-91430867D01*
X149772610Y-91457931D01*
X150024500Y-91508940D01*
X150659500Y-91508940D01*
X150894817Y-91464662D01*
X151110941Y-91325590D01*
X151213835Y-91175000D01*
X151743420Y-91175000D01*
X152875000Y-92306579D01*
X152875000Y-101272926D01*
X152620327Y-101017808D01*
X152276799Y-100875162D01*
X151904833Y-100874838D01*
X151561057Y-101016883D01*
X151554500Y-101023429D01*
X151554500Y-100682190D01*
X151457827Y-100448801D01*
X151279198Y-100270173D01*
X151045809Y-100173500D01*
X150887750Y-100173500D01*
X150729000Y-100332250D01*
X150729000Y-101253000D01*
X150749000Y-101253000D01*
X150749000Y-101507000D01*
X150729000Y-101507000D01*
X150729000Y-102427750D01*
X150759000Y-102457750D01*
X150759000Y-103233000D01*
X150779000Y-103233000D01*
X150779000Y-103487000D01*
X150759000Y-103487000D01*
X150759000Y-105123000D01*
X151425750Y-105123000D01*
X151584500Y-104964250D01*
X151584500Y-104552190D01*
X151502769Y-104354874D01*
X151739673Y-104592192D01*
X152083201Y-104734838D01*
X152455167Y-104735162D01*
X152798943Y-104593117D01*
X152875000Y-104517193D01*
X152875000Y-105383421D01*
X150713420Y-107545000D01*
X149016822Y-107545000D01*
X148896799Y-107495162D01*
X148524833Y-107494838D01*
X148403431Y-107545000D01*
X147681344Y-107545000D01*
X147825931Y-107333390D01*
X147876940Y-107081500D01*
X147876940Y-106804640D01*
X148215028Y-106466551D01*
X148214838Y-106685167D01*
X148356883Y-107028943D01*
X148619673Y-107292192D01*
X148963201Y-107434838D01*
X149335167Y-107435162D01*
X149678943Y-107293117D01*
X149942192Y-107030327D01*
X150084838Y-106686799D01*
X150085076Y-106413788D01*
X150188191Y-106456500D01*
X150346250Y-106456500D01*
X150505000Y-106297750D01*
X150505000Y-105377000D01*
X150759000Y-105377000D01*
X150759000Y-106297750D01*
X150917750Y-106456500D01*
X151075809Y-106456500D01*
X151309198Y-106359827D01*
X151487827Y-106181199D01*
X151584500Y-105947810D01*
X151584500Y-105535750D01*
X151425750Y-105377000D01*
X150759000Y-105377000D01*
X150505000Y-105377000D01*
X150485000Y-105377000D01*
X150485000Y-105123000D01*
X150505000Y-105123000D01*
X150505000Y-103487000D01*
X150485000Y-103487000D01*
X150485000Y-103233000D01*
X150505000Y-103233000D01*
X150505000Y-102312250D01*
X150475000Y-102282250D01*
X150475000Y-101507000D01*
X150455000Y-101507000D01*
X150455000Y-101253000D01*
X150475000Y-101253000D01*
X150475000Y-100332250D01*
X150316250Y-100173500D01*
X150158191Y-100173500D01*
X149924802Y-100270173D01*
X149846714Y-100348261D01*
X149647390Y-100212069D01*
X149395500Y-100161060D01*
X148760500Y-100161060D01*
X148525183Y-100205338D01*
X148309059Y-100344410D01*
X148203990Y-100498184D01*
X147932186Y-100552250D01*
X147881325Y-100562367D01*
X147764500Y-100640427D01*
X147764500Y-100615750D01*
X147605750Y-100457000D01*
X146939000Y-100457000D01*
X146939000Y-101377750D01*
X147015765Y-101454515D01*
X146954999Y-101760000D01*
X146955000Y-101760005D01*
X146955000Y-102563421D01*
X146933420Y-102585000D01*
X144184988Y-102585000D01*
X144185162Y-102384833D01*
X144043117Y-102041057D01*
X143972264Y-101970081D01*
X144072192Y-101870327D01*
X144214838Y-101526799D01*
X144215110Y-101215000D01*
X144417647Y-101215000D01*
X144506410Y-101352941D01*
X144718610Y-101497931D01*
X144970500Y-101548940D01*
X145605500Y-101548940D01*
X145840817Y-101504662D01*
X146056941Y-101365590D01*
X146058412Y-101363437D01*
X146134802Y-101439827D01*
X146368191Y-101536500D01*
X146526250Y-101536500D01*
X146685000Y-101377750D01*
X146685000Y-100457000D01*
X146665000Y-100457000D01*
X146665000Y-100203000D01*
X146685000Y-100203000D01*
X146685000Y-99282250D01*
X146939000Y-99282250D01*
X146939000Y-100203000D01*
X147605750Y-100203000D01*
X147764500Y-100044250D01*
X147764500Y-99632190D01*
X147667827Y-99398801D01*
X147489198Y-99220173D01*
X147255809Y-99123500D01*
X147097750Y-99123500D01*
X146939000Y-99282250D01*
X146685000Y-99282250D01*
X146526250Y-99123500D01*
X146368191Y-99123500D01*
X146134802Y-99220173D01*
X146056714Y-99298261D01*
X145857390Y-99162069D01*
X145605500Y-99111060D01*
X144970500Y-99111060D01*
X144735183Y-99155338D01*
X144519059Y-99294410D01*
X144445000Y-99402799D01*
X144445000Y-96177507D01*
X144506410Y-96272941D01*
X144718610Y-96417931D01*
X144970500Y-96468940D01*
X145605500Y-96468940D01*
X145840817Y-96424662D01*
X146056941Y-96285590D01*
X146058412Y-96283437D01*
X146134802Y-96359827D01*
X146368191Y-96456500D01*
X146526250Y-96456500D01*
X146685000Y-96297750D01*
X146685000Y-95377000D01*
X146939000Y-95377000D01*
X146939000Y-96297750D01*
X147097750Y-96456500D01*
X147255809Y-96456500D01*
X147489198Y-96359827D01*
X147667827Y-96181199D01*
X147764500Y-95947810D01*
X147764500Y-95535750D01*
X147605750Y-95377000D01*
X146939000Y-95377000D01*
X146685000Y-95377000D01*
X146665000Y-95377000D01*
X146665000Y-95123000D01*
X146685000Y-95123000D01*
X146685000Y-94202250D01*
X146939000Y-94202250D01*
X146939000Y-95123000D01*
X147605750Y-95123000D01*
X147764500Y-94964250D01*
X147764500Y-94552190D01*
X147667827Y-94318801D01*
X147489198Y-94140173D01*
X147255809Y-94043500D01*
X147097750Y-94043500D01*
X146939000Y-94202250D01*
X146685000Y-94202250D01*
X146526250Y-94043500D01*
X146368191Y-94043500D01*
X146134802Y-94140173D01*
X146056714Y-94218261D01*
X145857390Y-94082069D01*
X145605500Y-94031060D01*
X144970500Y-94031060D01*
X144735183Y-94075338D01*
X144519059Y-94214410D01*
X144374069Y-94426610D01*
X144361232Y-94490000D01*
X144059276Y-94490000D01*
X143806799Y-94385162D01*
X143434833Y-94384838D01*
X143091057Y-94526883D01*
X142827808Y-94789673D01*
X142685162Y-95133201D01*
X142684991Y-95329769D01*
X142674999Y-95380000D01*
X142675000Y-95380005D01*
X142675000Y-96085899D01*
X142652662Y-95967183D01*
X142617000Y-95911763D01*
X142617000Y-94875458D01*
X142652192Y-94840327D01*
X142794838Y-94496799D01*
X142795162Y-94124833D01*
X142653117Y-93781057D01*
X142390327Y-93517808D01*
X142046799Y-93375162D01*
X141674833Y-93374838D01*
X141553431Y-93425000D01*
X135136579Y-93425000D01*
X134727165Y-93015585D01*
X134747000Y-92995750D01*
X134747000Y-92329000D01*
X135001000Y-92329000D01*
X135001000Y-92995750D01*
X135159750Y-93154500D01*
X135571810Y-93154500D01*
X135805199Y-93057827D01*
X135890000Y-92973026D01*
X135974801Y-93057827D01*
X136208190Y-93154500D01*
X136620250Y-93154500D01*
X136779000Y-92995750D01*
X136779000Y-92329000D01*
X137033000Y-92329000D01*
X137033000Y-92995750D01*
X137191750Y-93154500D01*
X137603810Y-93154500D01*
X137837199Y-93057827D01*
X138015827Y-92879198D01*
X138112500Y-92645809D01*
X138112500Y-92487750D01*
X137953750Y-92329000D01*
X137033000Y-92329000D01*
X136779000Y-92329000D01*
X135001000Y-92329000D01*
X134747000Y-92329000D01*
X134727000Y-92329000D01*
X134727000Y-92076580D01*
X134728580Y-92075000D01*
X134747000Y-92075000D01*
X134747000Y-92056580D01*
X134748580Y-92055000D01*
X135001000Y-92055000D01*
X135001000Y-92075000D01*
X136779000Y-92075000D01*
X136779000Y-92055000D01*
X137033000Y-92055000D01*
X137033000Y-92075000D01*
X137953750Y-92075000D01*
X138112500Y-91916250D01*
X138112500Y-91758191D01*
X138031649Y-91563000D01*
X139231995Y-91563000D01*
X139232000Y-91563001D01*
X139514484Y-91506810D01*
X139570675Y-91495633D01*
X139653075Y-91440575D01*
X139888943Y-91343117D01*
X140152192Y-91080327D01*
X140271500Y-90793003D01*
X140271500Y-91121810D01*
X140368173Y-91355199D01*
X140546802Y-91533827D01*
X140780191Y-91630500D01*
X140938250Y-91630500D01*
X141097000Y-91471750D01*
X141097000Y-90551000D01*
X141077000Y-90551000D01*
X141077000Y-90297000D01*
X141097000Y-90297000D01*
X141097000Y-89376250D01*
X140938250Y-89217500D01*
X140780191Y-89217500D01*
X140546802Y-89314173D01*
X140368173Y-89492801D01*
X140271500Y-89726190D01*
X140271500Y-90138250D01*
X140430248Y-90296998D01*
X140271500Y-90296998D01*
X140271500Y-90307566D01*
X140245000Y-90243431D01*
X140245000Y-89286580D01*
X140436579Y-89095000D01*
X141865565Y-89095000D01*
X141813162Y-89221201D01*
G36*
X134683500Y-86678191D02*
X134683500Y-86836250D01*
X134842250Y-86995000D01*
X135763000Y-86995000D01*
X135763000Y-86975000D01*
X136017000Y-86975000D01*
X136017000Y-86995000D01*
X136937750Y-86995000D01*
X137096500Y-86836250D01*
X137096500Y-86678191D01*
X137015649Y-86483000D01*
X137274875Y-86483000D01*
X137274838Y-86525167D01*
X137416883Y-86868943D01*
X137679673Y-87132192D01*
X138023201Y-87274838D01*
X138395167Y-87275162D01*
X138493500Y-87234532D01*
X138493500Y-87249002D01*
X138652248Y-87249002D01*
X138493500Y-87407750D01*
X138493500Y-87565809D01*
X138590173Y-87799198D01*
X138768801Y-87977827D01*
X138968058Y-88060362D01*
X138734210Y-88294210D01*
X138542367Y-88581325D01*
X138542367Y-88581326D01*
X138474999Y-88920000D01*
X138475000Y-88920005D01*
X138475000Y-89793000D01*
X137771732Y-89793000D01*
X137729390Y-89764069D01*
X137477500Y-89713060D01*
X136334500Y-89713060D01*
X136099183Y-89757338D01*
X136043763Y-89793000D01*
X135739732Y-89793000D01*
X135734177Y-89789205D01*
X135691634Y-89575326D01*
X135608600Y-89451057D01*
X135499790Y-89288210D01*
X135499787Y-89288208D01*
X134855790Y-88644210D01*
X134855787Y-88644208D01*
X134845790Y-88634210D01*
X134845787Y-88634208D01*
X134385790Y-88174210D01*
X134354630Y-88153390D01*
X134098675Y-87982367D01*
X134042484Y-87971190D01*
X133760000Y-87914999D01*
X133759995Y-87915000D01*
X133074026Y-87915000D01*
X133189827Y-87799198D01*
X133286500Y-87565809D01*
X133286500Y-87407750D01*
X134683500Y-87407750D01*
X134683500Y-87565809D01*
X134780173Y-87799198D01*
X134958801Y-87977827D01*
X135192190Y-88074500D01*
X135604250Y-88074500D01*
X135763000Y-87915750D01*
X135763000Y-87249000D01*
X136017000Y-87249000D01*
X136017000Y-87915750D01*
X136175750Y-88074500D01*
X136587810Y-88074500D01*
X136821199Y-87977827D01*
X136999827Y-87799198D01*
X137096500Y-87565809D01*
X137096500Y-87407750D01*
X136937750Y-87249000D01*
X136017000Y-87249000D01*
X135763000Y-87249000D01*
X134842250Y-87249000D01*
X134683500Y-87407750D01*
X133286500Y-87407750D01*
X133127752Y-87249002D01*
X133286500Y-87249002D01*
X133286500Y-87182989D01*
X133363201Y-87214838D01*
X133735167Y-87215162D01*
X134078943Y-87073117D01*
X134342192Y-86810327D01*
X134478111Y-86483000D01*
X134764351Y-86483000D01*
X134683500Y-86678191D01*
X134683500Y-86678191D01*
G37*
X134683500Y-86678191D02*
X134683500Y-86836250D01*
X134842250Y-86995000D01*
X135763000Y-86995000D01*
X135763000Y-86975000D01*
X136017000Y-86975000D01*
X136017000Y-86995000D01*
X136937750Y-86995000D01*
X137096500Y-86836250D01*
X137096500Y-86678191D01*
X137015649Y-86483000D01*
X137274875Y-86483000D01*
X137274838Y-86525167D01*
X137416883Y-86868943D01*
X137679673Y-87132192D01*
X138023201Y-87274838D01*
X138395167Y-87275162D01*
X138493500Y-87234532D01*
X138493500Y-87249002D01*
X138652248Y-87249002D01*
X138493500Y-87407750D01*
X138493500Y-87565809D01*
X138590173Y-87799198D01*
X138768801Y-87977827D01*
X138968058Y-88060362D01*
X138734210Y-88294210D01*
X138542367Y-88581325D01*
X138542367Y-88581326D01*
X138474999Y-88920000D01*
X138475000Y-88920005D01*
X138475000Y-89793000D01*
X137771732Y-89793000D01*
X137729390Y-89764069D01*
X137477500Y-89713060D01*
X136334500Y-89713060D01*
X136099183Y-89757338D01*
X136043763Y-89793000D01*
X135739732Y-89793000D01*
X135734177Y-89789205D01*
X135691634Y-89575326D01*
X135608600Y-89451057D01*
X135499790Y-89288210D01*
X135499787Y-89288208D01*
X134855790Y-88644210D01*
X134855787Y-88644208D01*
X134845790Y-88634210D01*
X134845787Y-88634208D01*
X134385790Y-88174210D01*
X134354630Y-88153390D01*
X134098675Y-87982367D01*
X134042484Y-87971190D01*
X133760000Y-87914999D01*
X133759995Y-87915000D01*
X133074026Y-87915000D01*
X133189827Y-87799198D01*
X133286500Y-87565809D01*
X133286500Y-87407750D01*
X134683500Y-87407750D01*
X134683500Y-87565809D01*
X134780173Y-87799198D01*
X134958801Y-87977827D01*
X135192190Y-88074500D01*
X135604250Y-88074500D01*
X135763000Y-87915750D01*
X135763000Y-87249000D01*
X136017000Y-87249000D01*
X136017000Y-87915750D01*
X136175750Y-88074500D01*
X136587810Y-88074500D01*
X136821199Y-87977827D01*
X136999827Y-87799198D01*
X137096500Y-87565809D01*
X137096500Y-87407750D01*
X136937750Y-87249000D01*
X136017000Y-87249000D01*
X135763000Y-87249000D01*
X134842250Y-87249000D01*
X134683500Y-87407750D01*
X133286500Y-87407750D01*
X133127752Y-87249002D01*
X133286500Y-87249002D01*
X133286500Y-87182989D01*
X133363201Y-87214838D01*
X133735167Y-87215162D01*
X134078943Y-87073117D01*
X134342192Y-86810327D01*
X134478111Y-86483000D01*
X134764351Y-86483000D01*
X134683500Y-86678191D01*
G36*
X143143201Y-86394838D02*
X143442609Y-86395099D01*
X143324210Y-86474210D01*
X143324208Y-86474213D01*
X142473420Y-87325000D01*
X140823750Y-87325000D01*
X140747750Y-87249000D01*
X139827000Y-87249000D01*
X139827000Y-87269000D01*
X139573000Y-87269000D01*
X139573000Y-87249000D01*
X139553000Y-87249000D01*
X139553000Y-86995000D01*
X139573000Y-86995000D01*
X139573000Y-86975000D01*
X139827000Y-86975000D01*
X139827000Y-86995000D01*
X140747750Y-86995000D01*
X140906500Y-86836250D01*
X140906500Y-86678191D01*
X140823870Y-86478704D01*
X142068786Y-86473938D01*
X142143201Y-86504838D01*
X142515167Y-86505162D01*
X142858943Y-86363117D01*
X142920007Y-86302159D01*
X143143201Y-86394838D01*
X143143201Y-86394838D01*
G37*
X143143201Y-86394838D02*
X143442609Y-86395099D01*
X143324210Y-86474210D01*
X143324208Y-86474213D01*
X142473420Y-87325000D01*
X140823750Y-87325000D01*
X140747750Y-87249000D01*
X139827000Y-87249000D01*
X139827000Y-87269000D01*
X139573000Y-87269000D01*
X139573000Y-87249000D01*
X139553000Y-87249000D01*
X139553000Y-86995000D01*
X139573000Y-86995000D01*
X139573000Y-86975000D01*
X139827000Y-86975000D01*
X139827000Y-86995000D01*
X140747750Y-86995000D01*
X140906500Y-86836250D01*
X140906500Y-86678191D01*
X140823870Y-86478704D01*
X142068786Y-86473938D01*
X142143201Y-86504838D01*
X142515167Y-86505162D01*
X142858943Y-86363117D01*
X142920007Y-86302159D01*
X143143201Y-86394838D01*
G36*
X132207000Y-86995000D02*
X132227000Y-86995000D01*
X132227000Y-87249000D01*
X132207000Y-87249000D01*
X132207000Y-87269000D01*
X131953000Y-87269000D01*
X131953000Y-87249000D01*
X131933000Y-87249000D01*
X131933000Y-86995000D01*
X131953000Y-86995000D01*
X131953000Y-86975000D01*
X132207000Y-86975000D01*
X132207000Y-86995000D01*
X132207000Y-86995000D01*
G37*
X132207000Y-86995000D02*
X132227000Y-86995000D01*
X132227000Y-87249000D01*
X132207000Y-87249000D01*
X132207000Y-87269000D01*
X131953000Y-87269000D01*
X131953000Y-87249000D01*
X131933000Y-87249000D01*
X131933000Y-86995000D01*
X131953000Y-86995000D01*
X131953000Y-86975000D01*
X132207000Y-86975000D01*
X132207000Y-86995000D01*
G36*
X127664990Y-74020303D02*
X128057630Y-74413629D01*
X128249727Y-74493395D01*
X128118857Y-74547603D01*
X128049392Y-74789787D01*
X128850000Y-75590395D01*
X128864143Y-75576253D01*
X129043748Y-75755858D01*
X129029605Y-75770000D01*
X129043748Y-75784143D01*
X128864143Y-75963748D01*
X128850000Y-75949605D01*
X128049392Y-76750213D01*
X128118857Y-76992397D01*
X128642302Y-77179144D01*
X129197368Y-77151362D01*
X129365000Y-77081926D01*
X129365000Y-77460000D01*
X129414863Y-77710675D01*
X129420949Y-77741272D01*
X129580277Y-77979723D01*
X130380277Y-78779724D01*
X130604693Y-78929673D01*
X130618728Y-78939051D01*
X130900000Y-78995000D01*
X132355554Y-78995000D01*
X135384908Y-82024355D01*
X135384890Y-82045443D01*
X132619723Y-79280277D01*
X132381272Y-79120949D01*
X132100000Y-79065000D01*
X127064447Y-79065000D01*
X125735000Y-77735554D01*
X125735000Y-77043889D01*
X126030900Y-77166757D01*
X126586661Y-77167242D01*
X127100303Y-76955010D01*
X127493629Y-76562370D01*
X127573395Y-76370273D01*
X127627603Y-76501143D01*
X127869787Y-76570608D01*
X128670395Y-75770000D01*
X127869787Y-74969392D01*
X127627603Y-75038857D01*
X127577491Y-75179318D01*
X127495010Y-74979697D01*
X127102370Y-74586371D01*
X126894488Y-74500051D01*
X127100303Y-74415010D01*
X127493629Y-74022370D01*
X127579949Y-73814488D01*
X127664990Y-74020303D01*
X127664990Y-74020303D01*
G37*
X127664990Y-74020303D02*
X128057630Y-74413629D01*
X128249727Y-74493395D01*
X128118857Y-74547603D01*
X128049392Y-74789787D01*
X128850000Y-75590395D01*
X128864143Y-75576253D01*
X129043748Y-75755858D01*
X129029605Y-75770000D01*
X129043748Y-75784143D01*
X128864143Y-75963748D01*
X128850000Y-75949605D01*
X128049392Y-76750213D01*
X128118857Y-76992397D01*
X128642302Y-77179144D01*
X129197368Y-77151362D01*
X129365000Y-77081926D01*
X129365000Y-77460000D01*
X129414863Y-77710675D01*
X129420949Y-77741272D01*
X129580277Y-77979723D01*
X130380277Y-78779724D01*
X130604693Y-78929673D01*
X130618728Y-78939051D01*
X130900000Y-78995000D01*
X132355554Y-78995000D01*
X135384908Y-82024355D01*
X135384890Y-82045443D01*
X132619723Y-79280277D01*
X132381272Y-79120949D01*
X132100000Y-79065000D01*
X127064447Y-79065000D01*
X125735000Y-77735554D01*
X125735000Y-77043889D01*
X126030900Y-77166757D01*
X126586661Y-77167242D01*
X127100303Y-76955010D01*
X127493629Y-76562370D01*
X127573395Y-76370273D01*
X127627603Y-76501143D01*
X127869787Y-76570608D01*
X128670395Y-75770000D01*
X127869787Y-74969392D01*
X127627603Y-75038857D01*
X127577491Y-75179318D01*
X127495010Y-74979697D01*
X127102370Y-74586371D01*
X126894488Y-74500051D01*
X127100303Y-74415010D01*
X127493629Y-74022370D01*
X127579949Y-73814488D01*
X127664990Y-74020303D01*
M02*
