G04 #@! TF.FileFunction,Copper,L3,Inr,Signal*
%FSLAX46Y46*%
G04 Gerber Fmt 4.6, Leading zero omitted, Abs format (unit mm)*
G04 Created by KiCad (PCBNEW 4.0.6) date 11/29/17 18:48:54*
%MOMM*%
%LPD*%
G01*
G04 APERTURE LIST*
%ADD10C,0.100000*%
%ADD11C,0.500000*%
%ADD12C,4.000000*%
%ADD13C,3.000000*%
%ADD14C,1.524000*%
%ADD15C,1.905000*%
%ADD16C,2.667000*%
%ADD17C,5.300000*%
%ADD18C,0.600000*%
%ADD19C,0.500000*%
%ADD20C,0.200000*%
%ADD21C,0.254000*%
G04 APERTURE END LIST*
D10*
D11*
X136120000Y-97560000D03*
X134620000Y-100560000D03*
X134620000Y-99060000D03*
X133120000Y-99060000D03*
X136120000Y-99060000D03*
X133120000Y-97560000D03*
X134620000Y-97560000D03*
D12*
X136720000Y-101160000D03*
D11*
X133120000Y-100560000D03*
D13*
X113633000Y-101695000D03*
D11*
X108633000Y-102695000D03*
X110133000Y-102695000D03*
X108633000Y-101195000D03*
X110133000Y-101195000D03*
X108633000Y-96695000D03*
X108633000Y-98195000D03*
X114633000Y-98195000D03*
X114633000Y-96695000D03*
X113133000Y-96695000D03*
X113133000Y-98195000D03*
X110133000Y-98195000D03*
X110133000Y-96695000D03*
X111633000Y-96695000D03*
X111633000Y-98195000D03*
X111633000Y-102695000D03*
X111633000Y-101195000D03*
X114633000Y-99695000D03*
X113133000Y-99695000D03*
X108633000Y-99695000D03*
X110133000Y-99695000D03*
X111633000Y-99695000D03*
D14*
X143430000Y-122730000D03*
X143430000Y-125270000D03*
X140890000Y-122730000D03*
X140890000Y-125270000D03*
X138350000Y-122730000D03*
X138350000Y-125270000D03*
X135810000Y-122730000D03*
X135810000Y-125270000D03*
X133270000Y-122730000D03*
X133270000Y-125270000D03*
X130730000Y-122730000D03*
X130730000Y-125270000D03*
X128190000Y-122730000D03*
X128190000Y-125270000D03*
X125650000Y-122730000D03*
X125650000Y-125270000D03*
X123110000Y-122730000D03*
X123110000Y-125270000D03*
X120570000Y-122730000D03*
X120570000Y-125270000D03*
D15*
X94500000Y-83500000D03*
D16*
X97049900Y-86049900D03*
X91950100Y-86049900D03*
X91950100Y-80950100D03*
X97049900Y-80950100D03*
D15*
X94400000Y-115700000D03*
D16*
X96949900Y-118249900D03*
X91850100Y-118249900D03*
X91850100Y-113150100D03*
X96949900Y-113150100D03*
D17*
X93500000Y-74500000D03*
X93500000Y-123500000D03*
X151500000Y-74500000D03*
X151500000Y-123500000D03*
D14*
X98370000Y-75770000D03*
X98370000Y-73230000D03*
X100910000Y-75770000D03*
X100910000Y-73230000D03*
X103450000Y-75770000D03*
X103450000Y-73230000D03*
X105990000Y-75770000D03*
X105990000Y-73230000D03*
X108530000Y-75770000D03*
X108530000Y-73230000D03*
X111070000Y-75770000D03*
X111070000Y-73230000D03*
X113610000Y-75770000D03*
X113610000Y-73230000D03*
X116150000Y-75770000D03*
X116150000Y-73230000D03*
X118690000Y-75770000D03*
X118690000Y-73230000D03*
X121230000Y-75770000D03*
X121230000Y-73230000D03*
X123770000Y-75770000D03*
X123770000Y-73230000D03*
X126310000Y-75770000D03*
X126310000Y-73230000D03*
X128850000Y-75770000D03*
X128850000Y-73230000D03*
X131390000Y-75770000D03*
X131390000Y-73230000D03*
X133930000Y-75770000D03*
X133930000Y-73230000D03*
X136470000Y-75770000D03*
X136470000Y-73230000D03*
X139010000Y-75770000D03*
X139010000Y-73230000D03*
X141550000Y-75770000D03*
X141550000Y-73230000D03*
X144090000Y-75770000D03*
X144090000Y-73230000D03*
X146630000Y-75770000D03*
X146630000Y-73230000D03*
D18*
X140462000Y-92202000D03*
X121390000Y-100650000D03*
X122230000Y-90380000D03*
X147750000Y-95840000D03*
X140920000Y-112890000D03*
X109320000Y-91060000D03*
X125470000Y-112460000D03*
X152340000Y-105310000D03*
X119080000Y-110650000D03*
X147860000Y-98790000D03*
X136210000Y-112810000D03*
X129850000Y-112880000D03*
X142748000Y-89408000D03*
X147270000Y-91170000D03*
X125660000Y-91760000D03*
X121810000Y-107670000D03*
X125170000Y-108590000D03*
X149150000Y-106500000D03*
X143780000Y-107810000D03*
X125940000Y-89720000D03*
X124900000Y-115025000D03*
X143490000Y-92180000D03*
X143330000Y-85460000D03*
X143250000Y-102570000D03*
X147920000Y-92660000D03*
X135880000Y-83580000D03*
X136320000Y-81920000D03*
X148000000Y-91790000D03*
X152090000Y-101810000D03*
X143280000Y-101340000D03*
X127200000Y-113175000D03*
X110500000Y-92325000D03*
X120290000Y-115570000D03*
X105790000Y-107410000D03*
X117990000Y-79460000D03*
X121220000Y-99430000D03*
X152270000Y-103800000D03*
X116970000Y-105090000D03*
X116960000Y-94220000D03*
X104820000Y-99240000D03*
X104750000Y-96240000D03*
X98650000Y-102660000D03*
X100480000Y-106790000D03*
X130225000Y-117625000D03*
X116920000Y-85620000D03*
X132930000Y-112050000D03*
X136400000Y-108800000D03*
X130580000Y-108550000D03*
X141050000Y-108980000D03*
X144430000Y-111940000D03*
X138210000Y-86340000D03*
X142330000Y-85570000D03*
X133550000Y-86280000D03*
X143560000Y-99840000D03*
X143620000Y-95320000D03*
X130910000Y-89980000D03*
X130670000Y-86470000D03*
X125770000Y-94390000D03*
X124960000Y-100300000D03*
X154000000Y-108910000D03*
X115480000Y-124360000D03*
X153825000Y-77450000D03*
X148710000Y-108430000D03*
X147940000Y-88470000D03*
X132150000Y-89900000D03*
X141860000Y-94310000D03*
X139590000Y-108450000D03*
X130250000Y-106950000D03*
X142550000Y-105810000D03*
X133450000Y-108270000D03*
X127140000Y-104810000D03*
X126950000Y-95820000D03*
X139360000Y-90550000D03*
X128230000Y-89900000D03*
X106950000Y-114110000D03*
X92875000Y-101275000D03*
D19*
X124900000Y-115025000D02*
X122400000Y-112700000D01*
X122400000Y-112700000D02*
X121590000Y-111980000D01*
X121590000Y-111980000D02*
X119000000Y-109390000D01*
X119000000Y-109390000D02*
X119000000Y-85980000D01*
X119000000Y-85980000D02*
X111070000Y-78050000D01*
X111070000Y-78050000D02*
X111070000Y-75770000D01*
X117400000Y-74400000D02*
X117400000Y-76730000D01*
X143330000Y-85460000D02*
X142510000Y-84430000D01*
X142510000Y-84430000D02*
X142510000Y-82910000D01*
X142510000Y-82910000D02*
X140230000Y-80630000D01*
X140230000Y-80630000D02*
X121140000Y-80630000D01*
X121140000Y-80630000D02*
X117320000Y-76810000D01*
X116150000Y-73230000D02*
X117400000Y-74400000D01*
X117400000Y-76730000D02*
X117320000Y-76810000D01*
D20*
X123770000Y-73230000D02*
X123770000Y-73040000D01*
D19*
X123770000Y-73040000D02*
X124840000Y-71970000D01*
X148780000Y-92660000D02*
X147920000Y-92660000D01*
X149200000Y-92240000D02*
X148780000Y-92660000D01*
X149200000Y-82980000D02*
X149200000Y-92240000D01*
X148210000Y-81990000D02*
X149200000Y-82980000D01*
X148210000Y-72730000D02*
X148210000Y-81990000D01*
X147450000Y-71970000D02*
X148210000Y-72730000D01*
X124840000Y-71970000D02*
X147450000Y-71970000D01*
D20*
X147890000Y-92690000D02*
X147880000Y-92690000D01*
X147920000Y-92660000D02*
X147890000Y-92690000D01*
D19*
X113610000Y-75770000D02*
X113610000Y-78520000D01*
X113610000Y-78520000D02*
X129300000Y-94210000D01*
X129300000Y-94210000D02*
X138940000Y-94210000D01*
X138940000Y-94210000D02*
X142790000Y-98060000D01*
X142790000Y-98060000D02*
X142790000Y-100850000D01*
X142790000Y-100850000D02*
X143280000Y-101340000D01*
X141050000Y-108980000D02*
X142030000Y-108980000D01*
X142030000Y-108980000D02*
X142420000Y-108590000D01*
X142420000Y-108590000D02*
X142420000Y-107570000D01*
X142420000Y-107570000D02*
X144200000Y-105790000D01*
X144200000Y-105790000D02*
X144200000Y-100480000D01*
X144200000Y-100480000D02*
X143560000Y-99840000D01*
D21*
G36*
X123725460Y-71832961D02*
X123493339Y-71832758D01*
X122979697Y-72044990D01*
X122586371Y-72437630D01*
X122506605Y-72629727D01*
X122452397Y-72498857D01*
X122210213Y-72429392D01*
X121409605Y-73230000D01*
X122210213Y-74030608D01*
X122452397Y-73961143D01*
X122502509Y-73820682D01*
X122584990Y-74020303D01*
X122977630Y-74413629D01*
X123185512Y-74499949D01*
X122979697Y-74584990D01*
X122586371Y-74977630D01*
X122500051Y-75185512D01*
X122415010Y-74979697D01*
X122022370Y-74586371D01*
X121830273Y-74506605D01*
X121961143Y-74452397D01*
X122030608Y-74210213D01*
X121230000Y-73409605D01*
X120429392Y-74210213D01*
X120498857Y-74452397D01*
X120639318Y-74502509D01*
X120439697Y-74584990D01*
X120046371Y-74977630D01*
X119960051Y-75185512D01*
X119875010Y-74979697D01*
X119482370Y-74586371D01*
X119274488Y-74500051D01*
X119480303Y-74415010D01*
X119873629Y-74022370D01*
X119953395Y-73830273D01*
X120007603Y-73961143D01*
X120249787Y-74030608D01*
X121050395Y-73230000D01*
X120249787Y-72429392D01*
X120007603Y-72498857D01*
X119957491Y-72639318D01*
X119875010Y-72439697D01*
X119685432Y-72249787D01*
X120429392Y-72249787D01*
X121230000Y-73050395D01*
X122030608Y-72249787D01*
X121961143Y-72007603D01*
X121437698Y-71820856D01*
X120882632Y-71848638D01*
X120498857Y-72007603D01*
X120429392Y-72249787D01*
X119685432Y-72249787D01*
X119482370Y-72046371D01*
X118969100Y-71833243D01*
X118413339Y-71832758D01*
X117899697Y-72044990D01*
X117506371Y-72437630D01*
X117420051Y-72645512D01*
X117335010Y-72439697D01*
X116942370Y-72046371D01*
X116429100Y-71833243D01*
X115873339Y-71832758D01*
X115359697Y-72044990D01*
X114966371Y-72437630D01*
X114886605Y-72629727D01*
X114832397Y-72498857D01*
X114590213Y-72429392D01*
X113789605Y-73230000D01*
X114590213Y-74030608D01*
X114832397Y-73961143D01*
X114882509Y-73820682D01*
X114964990Y-74020303D01*
X115357630Y-74413629D01*
X115565512Y-74499949D01*
X115359697Y-74584990D01*
X114966371Y-74977630D01*
X114880051Y-75185512D01*
X114795010Y-74979697D01*
X114402370Y-74586371D01*
X114210273Y-74506605D01*
X114341143Y-74452397D01*
X114410608Y-74210213D01*
X113610000Y-73409605D01*
X112809392Y-74210213D01*
X112878857Y-74452397D01*
X113019318Y-74502509D01*
X112819697Y-74584990D01*
X112426371Y-74977630D01*
X112340051Y-75185512D01*
X112255010Y-74979697D01*
X111862370Y-74586371D01*
X111654488Y-74500051D01*
X111860303Y-74415010D01*
X112253629Y-74022370D01*
X112333395Y-73830273D01*
X112387603Y-73961143D01*
X112629787Y-74030608D01*
X113430395Y-73230000D01*
X112629787Y-72429392D01*
X112387603Y-72498857D01*
X112337491Y-72639318D01*
X112255010Y-72439697D01*
X112065432Y-72249787D01*
X112809392Y-72249787D01*
X113610000Y-73050395D01*
X114410608Y-72249787D01*
X114341143Y-72007603D01*
X113817698Y-71820856D01*
X113262632Y-71848638D01*
X112878857Y-72007603D01*
X112809392Y-72249787D01*
X112065432Y-72249787D01*
X111862370Y-72046371D01*
X111349100Y-71833243D01*
X110793339Y-71832758D01*
X110279697Y-72044990D01*
X109886371Y-72437630D01*
X109800051Y-72645512D01*
X109715010Y-72439697D01*
X109322370Y-72046371D01*
X108809100Y-71833243D01*
X108253339Y-71832758D01*
X107739697Y-72044990D01*
X107346371Y-72437630D01*
X107260051Y-72645512D01*
X107175010Y-72439697D01*
X106782370Y-72046371D01*
X106269100Y-71833243D01*
X105713339Y-71832758D01*
X105199697Y-72044990D01*
X104806371Y-72437630D01*
X104726605Y-72629727D01*
X104672397Y-72498857D01*
X104430213Y-72429392D01*
X103629605Y-73230000D01*
X104430213Y-74030608D01*
X104672397Y-73961143D01*
X104722509Y-73820682D01*
X104804990Y-74020303D01*
X105197630Y-74413629D01*
X105405512Y-74499949D01*
X105199697Y-74584990D01*
X104806371Y-74977630D01*
X104720051Y-75185512D01*
X104635010Y-74979697D01*
X104242370Y-74586371D01*
X104050273Y-74506605D01*
X104181143Y-74452397D01*
X104250608Y-74210213D01*
X103450000Y-73409605D01*
X102649392Y-74210213D01*
X102718857Y-74452397D01*
X102859318Y-74502509D01*
X102659697Y-74584990D01*
X102266371Y-74977630D01*
X102180051Y-75185512D01*
X102095010Y-74979697D01*
X101702370Y-74586371D01*
X101494488Y-74500051D01*
X101700303Y-74415010D01*
X102093629Y-74022370D01*
X102173395Y-73830273D01*
X102227603Y-73961143D01*
X102469787Y-74030608D01*
X103270395Y-73230000D01*
X102469787Y-72429392D01*
X102227603Y-72498857D01*
X102177491Y-72639318D01*
X102095010Y-72439697D01*
X101905432Y-72249787D01*
X102649392Y-72249787D01*
X103450000Y-73050395D01*
X104250608Y-72249787D01*
X104181143Y-72007603D01*
X103657698Y-71820856D01*
X103102632Y-71848638D01*
X102718857Y-72007603D01*
X102649392Y-72249787D01*
X101905432Y-72249787D01*
X101702370Y-72046371D01*
X101189100Y-71833243D01*
X100633339Y-71832758D01*
X100119697Y-72044990D01*
X99726371Y-72437630D01*
X99640051Y-72645512D01*
X99555010Y-72439697D01*
X99162370Y-72046371D01*
X98649100Y-71833243D01*
X98093339Y-71832758D01*
X97579697Y-72044990D01*
X97186371Y-72437630D01*
X96973243Y-72950900D01*
X96972758Y-73506661D01*
X97184990Y-74020303D01*
X97577630Y-74413629D01*
X97785512Y-74499949D01*
X97579697Y-74584990D01*
X97186371Y-74977630D01*
X96973243Y-75490900D01*
X96972758Y-76046661D01*
X97184990Y-76560303D01*
X97577630Y-76953629D01*
X98090900Y-77166757D01*
X98646661Y-77167242D01*
X99160303Y-76955010D01*
X99553629Y-76562370D01*
X99639949Y-76354488D01*
X99724990Y-76560303D01*
X100117630Y-76953629D01*
X100630900Y-77166757D01*
X101186661Y-77167242D01*
X101700303Y-76955010D01*
X102093629Y-76562370D01*
X102179949Y-76354488D01*
X102264990Y-76560303D01*
X102657630Y-76953629D01*
X103170900Y-77166757D01*
X103726661Y-77167242D01*
X104240303Y-76955010D01*
X104633629Y-76562370D01*
X104719949Y-76354488D01*
X104804990Y-76560303D01*
X105197630Y-76953629D01*
X105710900Y-77166757D01*
X106266661Y-77167242D01*
X106780303Y-76955010D01*
X106985457Y-76750213D01*
X107729392Y-76750213D01*
X107798857Y-76992397D01*
X108322302Y-77179144D01*
X108877368Y-77151362D01*
X109261143Y-76992397D01*
X109330608Y-76750213D01*
X108530000Y-75949605D01*
X107729392Y-76750213D01*
X106985457Y-76750213D01*
X107173629Y-76562370D01*
X107253395Y-76370273D01*
X107307603Y-76501143D01*
X107549787Y-76570608D01*
X108350395Y-75770000D01*
X107549787Y-74969392D01*
X107307603Y-75038857D01*
X107257491Y-75179318D01*
X107175010Y-74979697D01*
X106782370Y-74586371D01*
X106574488Y-74500051D01*
X106780303Y-74415010D01*
X107173629Y-74022370D01*
X107259949Y-73814488D01*
X107344990Y-74020303D01*
X107737630Y-74413629D01*
X107929727Y-74493395D01*
X107798857Y-74547603D01*
X107729392Y-74789787D01*
X108530000Y-75590395D01*
X109330608Y-74789787D01*
X109261143Y-74547603D01*
X109120682Y-74497491D01*
X109320303Y-74415010D01*
X109713629Y-74022370D01*
X109799949Y-73814488D01*
X109884990Y-74020303D01*
X110277630Y-74413629D01*
X110485512Y-74499949D01*
X110279697Y-74584990D01*
X109886371Y-74977630D01*
X109806605Y-75169727D01*
X109752397Y-75038857D01*
X109510213Y-74969392D01*
X108709605Y-75770000D01*
X109510213Y-76570608D01*
X109752397Y-76501143D01*
X109802509Y-76360682D01*
X109884990Y-76560303D01*
X110185000Y-76860837D01*
X110185000Y-78049995D01*
X110184999Y-78050000D01*
X110241190Y-78332484D01*
X110252367Y-78388675D01*
X110438259Y-78666883D01*
X110444210Y-78675790D01*
X116535586Y-84767165D01*
X116391057Y-84826883D01*
X116127808Y-85089673D01*
X115985162Y-85433201D01*
X115984838Y-85805167D01*
X116126883Y-86148943D01*
X116389673Y-86412192D01*
X116733201Y-86554838D01*
X117105167Y-86555162D01*
X117448943Y-86413117D01*
X117712192Y-86150327D01*
X117772797Y-86004376D01*
X118115000Y-86346579D01*
X118115000Y-109389995D01*
X118114999Y-109390000D01*
X118171190Y-109672484D01*
X118182367Y-109728675D01*
X118306973Y-109915162D01*
X118374210Y-110015790D01*
X120964210Y-112605789D01*
X120986130Y-112620436D01*
X121002038Y-112641457D01*
X121804628Y-113354871D01*
X124067980Y-115459789D01*
X124106883Y-115553943D01*
X124369673Y-115817192D01*
X124713201Y-115959838D01*
X125085167Y-115960162D01*
X125428943Y-115818117D01*
X125692192Y-115555327D01*
X125834838Y-115211799D01*
X125835162Y-114839833D01*
X125693117Y-114496057D01*
X125430327Y-114232808D01*
X125281077Y-114170834D01*
X124409392Y-113360167D01*
X126264838Y-113360167D01*
X126406883Y-113703943D01*
X126669673Y-113967192D01*
X127013201Y-114109838D01*
X127385167Y-114110162D01*
X127728943Y-113968117D01*
X127992192Y-113705327D01*
X128134838Y-113361799D01*
X128135162Y-112989833D01*
X127993117Y-112646057D01*
X127730327Y-112382808D01*
X127386799Y-112240162D01*
X127014833Y-112239838D01*
X126671057Y-112381883D01*
X126407808Y-112644673D01*
X126265162Y-112988201D01*
X126264838Y-113360167D01*
X124409392Y-113360167D01*
X123199715Y-112235167D01*
X131994838Y-112235167D01*
X132136883Y-112578943D01*
X132399673Y-112842192D01*
X132743201Y-112984838D01*
X133115167Y-112985162D01*
X133458943Y-112843117D01*
X133722192Y-112580327D01*
X133864838Y-112236799D01*
X133864935Y-112125167D01*
X143494838Y-112125167D01*
X143636883Y-112468943D01*
X143899673Y-112732192D01*
X144243201Y-112874838D01*
X144615167Y-112875162D01*
X144958943Y-112733117D01*
X145222192Y-112470327D01*
X145364838Y-112126799D01*
X145365162Y-111754833D01*
X145223117Y-111411057D01*
X144960327Y-111147808D01*
X144616799Y-111005162D01*
X144244833Y-111004838D01*
X143901057Y-111146883D01*
X143637808Y-111409673D01*
X143495162Y-111753201D01*
X143494838Y-112125167D01*
X133864935Y-112125167D01*
X133865162Y-111864833D01*
X133723117Y-111521057D01*
X133460327Y-111257808D01*
X133116799Y-111115162D01*
X132744833Y-111114838D01*
X132401057Y-111256883D01*
X132137808Y-111519673D01*
X131995162Y-111863201D01*
X131994838Y-112235167D01*
X123199715Y-112235167D01*
X123002696Y-112051940D01*
X122994075Y-112046621D01*
X122987962Y-112038543D01*
X122197402Y-111335823D01*
X119885000Y-109023420D01*
X119885000Y-108775167D01*
X124234838Y-108775167D01*
X124376883Y-109118943D01*
X124639673Y-109382192D01*
X124983201Y-109524838D01*
X125355167Y-109525162D01*
X125698943Y-109383117D01*
X125962192Y-109120327D01*
X126104838Y-108776799D01*
X126105162Y-108404833D01*
X125963117Y-108061057D01*
X125700327Y-107797808D01*
X125356799Y-107655162D01*
X124984833Y-107654838D01*
X124641057Y-107796883D01*
X124377808Y-108059673D01*
X124235162Y-108403201D01*
X124234838Y-108775167D01*
X119885000Y-108775167D01*
X119885000Y-107855167D01*
X120874838Y-107855167D01*
X121016883Y-108198943D01*
X121279673Y-108462192D01*
X121623201Y-108604838D01*
X121995167Y-108605162D01*
X122338943Y-108463117D01*
X122602192Y-108200327D01*
X122744838Y-107856799D01*
X122745162Y-107484833D01*
X122603117Y-107141057D01*
X122597238Y-107135167D01*
X129314838Y-107135167D01*
X129456883Y-107478943D01*
X129719673Y-107742192D01*
X129964101Y-107843688D01*
X129787808Y-108019673D01*
X129645162Y-108363201D01*
X129644838Y-108735167D01*
X129786883Y-109078943D01*
X130049673Y-109342192D01*
X130393201Y-109484838D01*
X130765167Y-109485162D01*
X131108943Y-109343117D01*
X131372192Y-109080327D01*
X131514838Y-108736799D01*
X131515083Y-108455167D01*
X132514838Y-108455167D01*
X132656883Y-108798943D01*
X132919673Y-109062192D01*
X133263201Y-109204838D01*
X133635167Y-109205162D01*
X133978943Y-109063117D01*
X134057029Y-108985167D01*
X135464838Y-108985167D01*
X135606883Y-109328943D01*
X135869673Y-109592192D01*
X136213201Y-109734838D01*
X136585167Y-109735162D01*
X136928943Y-109593117D01*
X137192192Y-109330327D01*
X137334838Y-108986799D01*
X137335162Y-108614833D01*
X137193117Y-108271057D01*
X136930327Y-108007808D01*
X136586799Y-107865162D01*
X136214833Y-107864838D01*
X135871057Y-108006883D01*
X135607808Y-108269673D01*
X135465162Y-108613201D01*
X135464838Y-108985167D01*
X134057029Y-108985167D01*
X134242192Y-108800327D01*
X134384838Y-108456799D01*
X134385162Y-108084833D01*
X134243117Y-107741057D01*
X133980327Y-107477808D01*
X133636799Y-107335162D01*
X133264833Y-107334838D01*
X132921057Y-107476883D01*
X132657808Y-107739673D01*
X132515162Y-108083201D01*
X132514838Y-108455167D01*
X131515083Y-108455167D01*
X131515162Y-108364833D01*
X131373117Y-108021057D01*
X131110327Y-107757808D01*
X130865899Y-107656312D01*
X131042192Y-107480327D01*
X131184838Y-107136799D01*
X131185162Y-106764833D01*
X131043117Y-106421057D01*
X130780327Y-106157808D01*
X130436799Y-106015162D01*
X130064833Y-106014838D01*
X129721057Y-106156883D01*
X129457808Y-106419673D01*
X129315162Y-106763201D01*
X129314838Y-107135167D01*
X122597238Y-107135167D01*
X122340327Y-106877808D01*
X121996799Y-106735162D01*
X121624833Y-106734838D01*
X121281057Y-106876883D01*
X121017808Y-107139673D01*
X120875162Y-107483201D01*
X120874838Y-107855167D01*
X119885000Y-107855167D01*
X119885000Y-104995167D01*
X126204838Y-104995167D01*
X126346883Y-105338943D01*
X126609673Y-105602192D01*
X126953201Y-105744838D01*
X127325167Y-105745162D01*
X127668943Y-105603117D01*
X127932192Y-105340327D01*
X128074838Y-104996799D01*
X128075162Y-104624833D01*
X127933117Y-104281057D01*
X127670327Y-104017808D01*
X127326799Y-103875162D01*
X126954833Y-103874838D01*
X126611057Y-104016883D01*
X126347808Y-104279673D01*
X126205162Y-104623201D01*
X126204838Y-104995167D01*
X119885000Y-104995167D01*
X119885000Y-100485167D01*
X124024838Y-100485167D01*
X124166883Y-100828943D01*
X124429673Y-101092192D01*
X124773201Y-101234838D01*
X125145167Y-101235162D01*
X125488943Y-101093117D01*
X125752192Y-100830327D01*
X125894838Y-100486799D01*
X125895162Y-100114833D01*
X125753117Y-99771057D01*
X125490327Y-99507808D01*
X125146799Y-99365162D01*
X124774833Y-99364838D01*
X124431057Y-99506883D01*
X124167808Y-99769673D01*
X124025162Y-100113201D01*
X124024838Y-100485167D01*
X119885000Y-100485167D01*
X119885000Y-99615167D01*
X120284838Y-99615167D01*
X120426883Y-99958943D01*
X120689673Y-100222192D01*
X121033201Y-100364838D01*
X121405167Y-100365162D01*
X121748943Y-100223117D01*
X122012192Y-99960327D01*
X122154838Y-99616799D01*
X122155162Y-99244833D01*
X122013117Y-98901057D01*
X121750327Y-98637808D01*
X121406799Y-98495162D01*
X121034833Y-98494838D01*
X120691057Y-98636883D01*
X120427808Y-98899673D01*
X120285162Y-99243201D01*
X120284838Y-99615167D01*
X119885000Y-99615167D01*
X119885000Y-94575167D01*
X124834838Y-94575167D01*
X124976883Y-94918943D01*
X125239673Y-95182192D01*
X125583201Y-95324838D01*
X125955167Y-95325162D01*
X126240261Y-95207364D01*
X126157808Y-95289673D01*
X126015162Y-95633201D01*
X126014838Y-96005167D01*
X126156883Y-96348943D01*
X126419673Y-96612192D01*
X126763201Y-96754838D01*
X127135167Y-96755162D01*
X127478943Y-96613117D01*
X127742192Y-96350327D01*
X127884838Y-96006799D01*
X127885162Y-95634833D01*
X127743117Y-95291057D01*
X127480327Y-95027808D01*
X127136799Y-94885162D01*
X126764833Y-94884838D01*
X126479739Y-95002636D01*
X126562192Y-94920327D01*
X126704838Y-94576799D01*
X126705162Y-94204833D01*
X126563117Y-93861057D01*
X126300327Y-93597808D01*
X125956799Y-93455162D01*
X125584833Y-93454838D01*
X125241057Y-93596883D01*
X124977808Y-93859673D01*
X124835162Y-94203201D01*
X124834838Y-94575167D01*
X119885000Y-94575167D01*
X119885000Y-86046580D01*
X124968038Y-91129617D01*
X124867808Y-91229673D01*
X124725162Y-91573201D01*
X124724838Y-91945167D01*
X124866883Y-92288943D01*
X125129673Y-92552192D01*
X125473201Y-92694838D01*
X125845167Y-92695162D01*
X126188943Y-92553117D01*
X126290329Y-92451908D01*
X128674208Y-94835787D01*
X128674210Y-94835790D01*
X128961325Y-95027633D01*
X129017516Y-95038810D01*
X129300000Y-95095001D01*
X129300005Y-95095000D01*
X138573420Y-95095000D01*
X141905000Y-98426579D01*
X141905000Y-100849995D01*
X141904999Y-100850000D01*
X141938195Y-101016883D01*
X141972367Y-101188675D01*
X142045170Y-101297633D01*
X142164210Y-101475790D01*
X142437255Y-101748835D01*
X142486883Y-101868943D01*
X142557736Y-101939919D01*
X142457808Y-102039673D01*
X142315162Y-102383201D01*
X142314838Y-102755167D01*
X142456883Y-103098943D01*
X142719673Y-103362192D01*
X143063201Y-103504838D01*
X143315000Y-103505057D01*
X143315000Y-105252891D01*
X143080327Y-105017808D01*
X142736799Y-104875162D01*
X142364833Y-104874838D01*
X142021057Y-105016883D01*
X141757808Y-105279673D01*
X141615162Y-105623201D01*
X141614838Y-105995167D01*
X141756883Y-106338943D01*
X142019673Y-106602192D01*
X142102030Y-106636390D01*
X141794210Y-106944210D01*
X141602367Y-107231325D01*
X141602367Y-107231326D01*
X141534999Y-107570000D01*
X141535000Y-107570005D01*
X141535000Y-108095000D01*
X141356822Y-108095000D01*
X141236799Y-108045162D01*
X140864833Y-108044838D01*
X140521057Y-108186883D01*
X140501161Y-108206745D01*
X140383117Y-107921057D01*
X140120327Y-107657808D01*
X139776799Y-107515162D01*
X139404833Y-107514838D01*
X139061057Y-107656883D01*
X138797808Y-107919673D01*
X138655162Y-108263201D01*
X138654838Y-108635167D01*
X138796883Y-108978943D01*
X139059673Y-109242192D01*
X139403201Y-109384838D01*
X139775167Y-109385162D01*
X140118943Y-109243117D01*
X140138839Y-109223255D01*
X140256883Y-109508943D01*
X140519673Y-109772192D01*
X140863201Y-109914838D01*
X141235167Y-109915162D01*
X141356569Y-109865000D01*
X142029995Y-109865000D01*
X142030000Y-109865001D01*
X142312484Y-109808810D01*
X142368675Y-109797633D01*
X142655790Y-109605790D01*
X143045787Y-109215792D01*
X143045790Y-109215790D01*
X143237633Y-108928675D01*
X143298540Y-108622483D01*
X143593201Y-108744838D01*
X143965167Y-108745162D01*
X144279779Y-108615167D01*
X147774838Y-108615167D01*
X147916883Y-108958943D01*
X148179673Y-109222192D01*
X148523201Y-109364838D01*
X148895167Y-109365162D01*
X149238943Y-109223117D01*
X149502192Y-108960327D01*
X149644838Y-108616799D01*
X149645162Y-108244833D01*
X149503117Y-107901057D01*
X149240327Y-107637808D01*
X148896799Y-107495162D01*
X148524833Y-107494838D01*
X148181057Y-107636883D01*
X147917808Y-107899673D01*
X147775162Y-108243201D01*
X147774838Y-108615167D01*
X144279779Y-108615167D01*
X144308943Y-108603117D01*
X144572192Y-108340327D01*
X144714838Y-107996799D01*
X144715162Y-107624833D01*
X144573117Y-107281057D01*
X144310327Y-107017808D01*
X144249167Y-106992412D01*
X144556412Y-106685167D01*
X148214838Y-106685167D01*
X148356883Y-107028943D01*
X148619673Y-107292192D01*
X148963201Y-107434838D01*
X149335167Y-107435162D01*
X149678943Y-107293117D01*
X149942192Y-107030327D01*
X150084838Y-106686799D01*
X150085162Y-106314833D01*
X149943117Y-105971057D01*
X149680327Y-105707808D01*
X149336799Y-105565162D01*
X148964833Y-105564838D01*
X148621057Y-105706883D01*
X148357808Y-105969673D01*
X148215162Y-106313201D01*
X148214838Y-106685167D01*
X144556412Y-106685167D01*
X144825787Y-106415792D01*
X144825790Y-106415790D01*
X145017633Y-106128675D01*
X145038288Y-106024838D01*
X145085001Y-105790000D01*
X145085000Y-105789995D01*
X145085000Y-103985167D01*
X151334838Y-103985167D01*
X151476883Y-104328943D01*
X151739673Y-104592192D01*
X152083201Y-104734838D01*
X152455167Y-104735162D01*
X152798943Y-104593117D01*
X153062192Y-104330327D01*
X153204838Y-103986799D01*
X153205162Y-103614833D01*
X153063117Y-103271057D01*
X152800327Y-103007808D01*
X152456799Y-102865162D01*
X152084833Y-102864838D01*
X151741057Y-103006883D01*
X151477808Y-103269673D01*
X151335162Y-103613201D01*
X151334838Y-103985167D01*
X145085000Y-103985167D01*
X145085000Y-101995167D01*
X151154838Y-101995167D01*
X151296883Y-102338943D01*
X151559673Y-102602192D01*
X151903201Y-102744838D01*
X152275167Y-102745162D01*
X152618943Y-102603117D01*
X152882192Y-102340327D01*
X153024838Y-101996799D01*
X153025162Y-101624833D01*
X152883117Y-101281057D01*
X152620327Y-101017808D01*
X152276799Y-100875162D01*
X151904833Y-100874838D01*
X151561057Y-101016883D01*
X151297808Y-101279673D01*
X151155162Y-101623201D01*
X151154838Y-101995167D01*
X145085000Y-101995167D01*
X145085000Y-100480005D01*
X145085001Y-100480000D01*
X145017633Y-100141326D01*
X145017633Y-100141325D01*
X144825790Y-99854210D01*
X144825787Y-99854208D01*
X144402744Y-99431165D01*
X144353117Y-99311057D01*
X144090327Y-99047808D01*
X143746799Y-98905162D01*
X143675000Y-98905099D01*
X143675000Y-98060005D01*
X143675001Y-98060000D01*
X143607633Y-97721325D01*
X143415790Y-97434210D01*
X143415787Y-97434208D01*
X141486747Y-95505167D01*
X142684838Y-95505167D01*
X142826883Y-95848943D01*
X143089673Y-96112192D01*
X143433201Y-96254838D01*
X143805167Y-96255162D01*
X144148943Y-96113117D01*
X144412192Y-95850327D01*
X144554838Y-95506799D01*
X144555162Y-95134833D01*
X144413117Y-94791057D01*
X144150327Y-94527808D01*
X143806799Y-94385162D01*
X143434833Y-94384838D01*
X143091057Y-94526883D01*
X142827808Y-94789673D01*
X142685162Y-95133201D01*
X142684838Y-95505167D01*
X141486747Y-95505167D01*
X140476747Y-94495167D01*
X140924838Y-94495167D01*
X141066883Y-94838943D01*
X141329673Y-95102192D01*
X141673201Y-95244838D01*
X142045167Y-95245162D01*
X142388943Y-95103117D01*
X142652192Y-94840327D01*
X142794838Y-94496799D01*
X142795162Y-94124833D01*
X142653117Y-93781057D01*
X142390327Y-93517808D01*
X142046799Y-93375162D01*
X141674833Y-93374838D01*
X141331057Y-93516883D01*
X141067808Y-93779673D01*
X140925162Y-94123201D01*
X140924838Y-94495167D01*
X140476747Y-94495167D01*
X139565790Y-93584210D01*
X139507108Y-93545000D01*
X139278675Y-93392367D01*
X139222484Y-93381190D01*
X138940000Y-93324999D01*
X138939995Y-93325000D01*
X129666579Y-93325000D01*
X128706746Y-92365167D01*
X142554838Y-92365167D01*
X142696883Y-92708943D01*
X142959673Y-92972192D01*
X143303201Y-93114838D01*
X143675167Y-93115162D01*
X144018943Y-92973117D01*
X144282192Y-92710327D01*
X144424838Y-92366799D01*
X144425162Y-91994833D01*
X144283117Y-91651057D01*
X144020327Y-91387808D01*
X143676799Y-91245162D01*
X143304833Y-91244838D01*
X142961057Y-91386883D01*
X142697808Y-91649673D01*
X142555162Y-91993201D01*
X142554838Y-92365167D01*
X128706746Y-92365167D01*
X126661988Y-90320409D01*
X126732192Y-90250327D01*
X126800772Y-90085167D01*
X127294838Y-90085167D01*
X127436883Y-90428943D01*
X127699673Y-90692192D01*
X128043201Y-90834838D01*
X128415167Y-90835162D01*
X128758943Y-90693117D01*
X129022192Y-90430327D01*
X129132296Y-90165167D01*
X129974838Y-90165167D01*
X130116883Y-90508943D01*
X130379673Y-90772192D01*
X130723201Y-90914838D01*
X131095167Y-90915162D01*
X131438943Y-90773117D01*
X131569928Y-90642360D01*
X131619673Y-90692192D01*
X131963201Y-90834838D01*
X132335167Y-90835162D01*
X132577173Y-90735167D01*
X138424838Y-90735167D01*
X138566883Y-91078943D01*
X138829673Y-91342192D01*
X139173201Y-91484838D01*
X139545167Y-91485162D01*
X139888943Y-91343117D01*
X140152192Y-91080327D01*
X140294838Y-90736799D01*
X140295162Y-90364833D01*
X140153117Y-90021057D01*
X139890327Y-89757808D01*
X139546799Y-89615162D01*
X139174833Y-89614838D01*
X138831057Y-89756883D01*
X138567808Y-90019673D01*
X138425162Y-90363201D01*
X138424838Y-90735167D01*
X132577173Y-90735167D01*
X132678943Y-90693117D01*
X132942192Y-90430327D01*
X133084838Y-90086799D01*
X133085162Y-89714833D01*
X133034891Y-89593167D01*
X141812838Y-89593167D01*
X141954883Y-89936943D01*
X142217673Y-90200192D01*
X142561201Y-90342838D01*
X142933167Y-90343162D01*
X143276943Y-90201117D01*
X143540192Y-89938327D01*
X143682838Y-89594799D01*
X143683162Y-89222833D01*
X143541117Y-88879057D01*
X143278327Y-88615808D01*
X142934799Y-88473162D01*
X142562833Y-88472838D01*
X142219057Y-88614883D01*
X141955808Y-88877673D01*
X141813162Y-89221201D01*
X141812838Y-89593167D01*
X133034891Y-89593167D01*
X132943117Y-89371057D01*
X132680327Y-89107808D01*
X132336799Y-88965162D01*
X131964833Y-88964838D01*
X131621057Y-89106883D01*
X131490072Y-89237640D01*
X131440327Y-89187808D01*
X131096799Y-89045162D01*
X130724833Y-89044838D01*
X130381057Y-89186883D01*
X130117808Y-89449673D01*
X129975162Y-89793201D01*
X129974838Y-90165167D01*
X129132296Y-90165167D01*
X129164838Y-90086799D01*
X129165162Y-89714833D01*
X129023117Y-89371057D01*
X128760327Y-89107808D01*
X128416799Y-88965162D01*
X128044833Y-88964838D01*
X127701057Y-89106883D01*
X127437808Y-89369673D01*
X127295162Y-89713201D01*
X127294838Y-90085167D01*
X126800772Y-90085167D01*
X126874838Y-89906799D01*
X126875162Y-89534833D01*
X126733117Y-89191057D01*
X126470327Y-88927808D01*
X126126799Y-88785162D01*
X125754833Y-88784838D01*
X125411057Y-88926883D01*
X125339697Y-88998118D01*
X122996747Y-86655167D01*
X129734838Y-86655167D01*
X129876883Y-86998943D01*
X130139673Y-87262192D01*
X130483201Y-87404838D01*
X130855167Y-87405162D01*
X131198943Y-87263117D01*
X131462192Y-87000327D01*
X131604838Y-86656799D01*
X131605004Y-86465167D01*
X132614838Y-86465167D01*
X132756883Y-86808943D01*
X133019673Y-87072192D01*
X133363201Y-87214838D01*
X133735167Y-87215162D01*
X134078943Y-87073117D01*
X134342192Y-86810327D01*
X134460601Y-86525167D01*
X137274838Y-86525167D01*
X137416883Y-86868943D01*
X137679673Y-87132192D01*
X138023201Y-87274838D01*
X138395167Y-87275162D01*
X138738943Y-87133117D01*
X139002192Y-86870327D01*
X139144838Y-86526799D01*
X139145162Y-86154833D01*
X139003117Y-85811057D01*
X138740327Y-85547808D01*
X138396799Y-85405162D01*
X138024833Y-85404838D01*
X137681057Y-85546883D01*
X137417808Y-85809673D01*
X137275162Y-86153201D01*
X137274838Y-86525167D01*
X134460601Y-86525167D01*
X134484838Y-86466799D01*
X134485162Y-86094833D01*
X134343117Y-85751057D01*
X134080327Y-85487808D01*
X133736799Y-85345162D01*
X133364833Y-85344838D01*
X133021057Y-85486883D01*
X132757808Y-85749673D01*
X132615162Y-86093201D01*
X132614838Y-86465167D01*
X131605004Y-86465167D01*
X131605162Y-86284833D01*
X131463117Y-85941057D01*
X131200327Y-85677808D01*
X130856799Y-85535162D01*
X130484833Y-85534838D01*
X130141057Y-85676883D01*
X129877808Y-85939673D01*
X129735162Y-86283201D01*
X129734838Y-86655167D01*
X122996747Y-86655167D01*
X114495000Y-78153420D01*
X114495000Y-76860478D01*
X114793629Y-76562370D01*
X114879949Y-76354488D01*
X114964990Y-76560303D01*
X115357630Y-76953629D01*
X115870900Y-77166757D01*
X116426661Y-77167242D01*
X116500030Y-77136927D01*
X116502367Y-77148674D01*
X116694210Y-77435790D01*
X117789566Y-78531146D01*
X117461057Y-78666883D01*
X117197808Y-78929673D01*
X117055162Y-79273201D01*
X117054838Y-79645167D01*
X117196883Y-79988943D01*
X117459673Y-80252192D01*
X117803201Y-80394838D01*
X118175167Y-80395162D01*
X118518943Y-80253117D01*
X118782192Y-79990327D01*
X118919082Y-79660661D01*
X120514208Y-81255787D01*
X120514210Y-81255790D01*
X120801325Y-81447633D01*
X120857516Y-81458810D01*
X121140000Y-81515001D01*
X121140005Y-81515000D01*
X135475767Y-81515000D01*
X135385162Y-81733201D01*
X135384838Y-82105167D01*
X135526883Y-82448943D01*
X135722460Y-82644862D01*
X135694833Y-82644838D01*
X135351057Y-82786883D01*
X135087808Y-83049673D01*
X134945162Y-83393201D01*
X134944838Y-83765167D01*
X135086883Y-84108943D01*
X135349673Y-84372192D01*
X135693201Y-84514838D01*
X136065167Y-84515162D01*
X136408943Y-84373117D01*
X136672192Y-84110327D01*
X136814838Y-83766799D01*
X136815162Y-83394833D01*
X136673117Y-83051057D01*
X136477540Y-82855138D01*
X136505167Y-82855162D01*
X136848943Y-82713117D01*
X137112192Y-82450327D01*
X137254838Y-82106799D01*
X137255162Y-81734833D01*
X137164329Y-81515000D01*
X139863420Y-81515000D01*
X141625000Y-83276579D01*
X141625000Y-84430000D01*
X141649103Y-84551172D01*
X141659385Y-84674293D01*
X141682519Y-84719164D01*
X141692367Y-84768675D01*
X141739146Y-84838686D01*
X141537808Y-85039673D01*
X141395162Y-85383201D01*
X141394838Y-85755167D01*
X141536883Y-86098943D01*
X141799673Y-86362192D01*
X142143201Y-86504838D01*
X142515167Y-86505162D01*
X142858943Y-86363117D01*
X142920007Y-86302159D01*
X143143201Y-86394838D01*
X143515167Y-86395162D01*
X143858943Y-86253117D01*
X144122192Y-85990327D01*
X144264838Y-85646799D01*
X144265162Y-85274833D01*
X144123117Y-84931057D01*
X143860327Y-84667808D01*
X143815819Y-84649327D01*
X143395000Y-84120737D01*
X143395000Y-82910005D01*
X143395001Y-82910000D01*
X143327633Y-82571326D01*
X143327633Y-82571325D01*
X143135790Y-82284210D01*
X143135787Y-82284208D01*
X140855790Y-80004210D01*
X140568675Y-79812367D01*
X140512484Y-79801190D01*
X140230000Y-79744999D01*
X140229995Y-79745000D01*
X121506579Y-79745000D01*
X118928789Y-77167209D01*
X118966661Y-77167242D01*
X119480303Y-76955010D01*
X119873629Y-76562370D01*
X119959949Y-76354488D01*
X120044990Y-76560303D01*
X120437630Y-76953629D01*
X120950900Y-77166757D01*
X121506661Y-77167242D01*
X122020303Y-76955010D01*
X122413629Y-76562370D01*
X122499949Y-76354488D01*
X122584990Y-76560303D01*
X122977630Y-76953629D01*
X123490900Y-77166757D01*
X124046661Y-77167242D01*
X124560303Y-76955010D01*
X124953629Y-76562370D01*
X125039949Y-76354488D01*
X125124990Y-76560303D01*
X125517630Y-76953629D01*
X126030900Y-77166757D01*
X126586661Y-77167242D01*
X127100303Y-76955010D01*
X127305457Y-76750213D01*
X128049392Y-76750213D01*
X128118857Y-76992397D01*
X128642302Y-77179144D01*
X129197368Y-77151362D01*
X129581143Y-76992397D01*
X129650608Y-76750213D01*
X128850000Y-75949605D01*
X128049392Y-76750213D01*
X127305457Y-76750213D01*
X127493629Y-76562370D01*
X127573395Y-76370273D01*
X127627603Y-76501143D01*
X127869787Y-76570608D01*
X128670395Y-75770000D01*
X127869787Y-74969392D01*
X127627603Y-75038857D01*
X127577491Y-75179318D01*
X127495010Y-74979697D01*
X127102370Y-74586371D01*
X126894488Y-74500051D01*
X127100303Y-74415010D01*
X127493629Y-74022370D01*
X127579949Y-73814488D01*
X127664990Y-74020303D01*
X128057630Y-74413629D01*
X128249727Y-74493395D01*
X128118857Y-74547603D01*
X128049392Y-74789787D01*
X128850000Y-75590395D01*
X129650608Y-74789787D01*
X129581143Y-74547603D01*
X129440682Y-74497491D01*
X129640303Y-74415010D01*
X130033629Y-74022370D01*
X130119949Y-73814488D01*
X130204990Y-74020303D01*
X130597630Y-74413629D01*
X130805512Y-74499949D01*
X130599697Y-74584990D01*
X130206371Y-74977630D01*
X130126605Y-75169727D01*
X130072397Y-75038857D01*
X129830213Y-74969392D01*
X129029605Y-75770000D01*
X129830213Y-76570608D01*
X130072397Y-76501143D01*
X130122509Y-76360682D01*
X130204990Y-76560303D01*
X130597630Y-76953629D01*
X131110900Y-77166757D01*
X131666661Y-77167242D01*
X132180303Y-76955010D01*
X132573629Y-76562370D01*
X132659949Y-76354488D01*
X132744990Y-76560303D01*
X133137630Y-76953629D01*
X133650900Y-77166757D01*
X134206661Y-77167242D01*
X134720303Y-76955010D01*
X135113629Y-76562370D01*
X135199949Y-76354488D01*
X135284990Y-76560303D01*
X135677630Y-76953629D01*
X136190900Y-77166757D01*
X136746661Y-77167242D01*
X137260303Y-76955010D01*
X137653629Y-76562370D01*
X137739949Y-76354488D01*
X137824990Y-76560303D01*
X138217630Y-76953629D01*
X138730900Y-77166757D01*
X139286661Y-77167242D01*
X139800303Y-76955010D01*
X140193629Y-76562370D01*
X140279949Y-76354488D01*
X140364990Y-76560303D01*
X140757630Y-76953629D01*
X141270900Y-77166757D01*
X141826661Y-77167242D01*
X142340303Y-76955010D01*
X142733629Y-76562370D01*
X142819949Y-76354488D01*
X142904990Y-76560303D01*
X143297630Y-76953629D01*
X143810900Y-77166757D01*
X144366661Y-77167242D01*
X144880303Y-76955010D01*
X145273629Y-76562370D01*
X145353395Y-76370273D01*
X145407603Y-76501143D01*
X145649787Y-76570608D01*
X146450395Y-75770000D01*
X145649787Y-74969392D01*
X145407603Y-75038857D01*
X145357491Y-75179318D01*
X145275010Y-74979697D01*
X144882370Y-74586371D01*
X144674488Y-74500051D01*
X144880303Y-74415010D01*
X145273629Y-74022370D01*
X145359949Y-73814488D01*
X145444990Y-74020303D01*
X145837630Y-74413629D01*
X146029727Y-74493395D01*
X145898857Y-74547603D01*
X145829392Y-74789787D01*
X146630000Y-75590395D01*
X146644143Y-75576253D01*
X146823748Y-75755858D01*
X146809605Y-75770000D01*
X146823748Y-75784143D01*
X146644143Y-75963748D01*
X146630000Y-75949605D01*
X145829392Y-76750213D01*
X145898857Y-76992397D01*
X146422302Y-77179144D01*
X146977368Y-77151362D01*
X147325000Y-77007368D01*
X147325000Y-81989995D01*
X147324999Y-81990000D01*
X147381190Y-82272484D01*
X147392367Y-82328675D01*
X147409429Y-82354210D01*
X147584210Y-82615790D01*
X148315000Y-83346579D01*
X148315000Y-87613310D01*
X148126799Y-87535162D01*
X147754833Y-87534838D01*
X147411057Y-87676883D01*
X147147808Y-87939673D01*
X147005162Y-88283201D01*
X147004838Y-88655167D01*
X147146883Y-88998943D01*
X147409673Y-89262192D01*
X147753201Y-89404838D01*
X148125167Y-89405162D01*
X148315000Y-89326725D01*
X148315000Y-90908396D01*
X148186799Y-90855162D01*
X148151570Y-90855131D01*
X148063117Y-90641057D01*
X147800327Y-90377808D01*
X147456799Y-90235162D01*
X147084833Y-90234838D01*
X146741057Y-90376883D01*
X146477808Y-90639673D01*
X146335162Y-90983201D01*
X146334838Y-91355167D01*
X146476883Y-91698943D01*
X146739673Y-91962192D01*
X147083201Y-92104838D01*
X147118430Y-92104869D01*
X147128424Y-92129058D01*
X147127808Y-92129673D01*
X146985162Y-92473201D01*
X146984838Y-92845167D01*
X147126883Y-93188943D01*
X147389673Y-93452192D01*
X147733201Y-93594838D01*
X148105167Y-93595162D01*
X148226569Y-93545000D01*
X148779995Y-93545000D01*
X148780000Y-93545001D01*
X149062484Y-93488810D01*
X149118675Y-93477633D01*
X149405790Y-93285790D01*
X149825787Y-92865792D01*
X149825790Y-92865790D01*
X150017633Y-92578675D01*
X150051438Y-92408728D01*
X150085001Y-92240000D01*
X150085000Y-92239995D01*
X150085000Y-82980000D01*
X150017633Y-82641325D01*
X149825790Y-82354210D01*
X149825787Y-82354208D01*
X149095000Y-81623420D01*
X149095000Y-72730000D01*
X149027633Y-72391325D01*
X148835790Y-72104210D01*
X148835787Y-72104208D01*
X148416580Y-71685000D01*
X153932534Y-71685000D01*
X154115409Y-71721376D01*
X154213250Y-71786751D01*
X154278624Y-71884590D01*
X154315000Y-72067466D01*
X154315000Y-76641063D01*
X154011799Y-76515162D01*
X153639833Y-76514838D01*
X153296057Y-76656883D01*
X153032808Y-76919673D01*
X152890162Y-77263201D01*
X152889838Y-77635167D01*
X153031883Y-77978943D01*
X153294673Y-78242192D01*
X153638201Y-78384838D01*
X154010167Y-78385162D01*
X154315000Y-78259208D01*
X154315000Y-108028396D01*
X154186799Y-107975162D01*
X153814833Y-107974838D01*
X153471057Y-108116883D01*
X153207808Y-108379673D01*
X153065162Y-108723201D01*
X153064838Y-109095167D01*
X153206883Y-109438943D01*
X153469673Y-109702192D01*
X153813201Y-109844838D01*
X154185167Y-109845162D01*
X154315000Y-109791516D01*
X154315000Y-125932534D01*
X154278624Y-126115410D01*
X154213250Y-126213249D01*
X154115409Y-126278624D01*
X153932534Y-126315000D01*
X144360558Y-126315000D01*
X144613629Y-126062370D01*
X144826757Y-125549100D01*
X144827242Y-124993339D01*
X144615010Y-124479697D01*
X144222370Y-124086371D01*
X144014488Y-124000051D01*
X144220303Y-123915010D01*
X144613629Y-123522370D01*
X144826757Y-123009100D01*
X144827242Y-122453339D01*
X144615010Y-121939697D01*
X144222370Y-121546371D01*
X143709100Y-121333243D01*
X143153339Y-121332758D01*
X142639697Y-121544990D01*
X142246371Y-121937630D01*
X142160051Y-122145512D01*
X142075010Y-121939697D01*
X141682370Y-121546371D01*
X141169100Y-121333243D01*
X140613339Y-121332758D01*
X140099697Y-121544990D01*
X139706371Y-121937630D01*
X139620051Y-122145512D01*
X139535010Y-121939697D01*
X139142370Y-121546371D01*
X138629100Y-121333243D01*
X138073339Y-121332758D01*
X137559697Y-121544990D01*
X137166371Y-121937630D01*
X137080051Y-122145512D01*
X136995010Y-121939697D01*
X136602370Y-121546371D01*
X136089100Y-121333243D01*
X135533339Y-121332758D01*
X135019697Y-121544990D01*
X134626371Y-121937630D01*
X134540051Y-122145512D01*
X134455010Y-121939697D01*
X134062370Y-121546371D01*
X133549100Y-121333243D01*
X132993339Y-121332758D01*
X132479697Y-121544990D01*
X132086371Y-121937630D01*
X132000051Y-122145512D01*
X131915010Y-121939697D01*
X131522370Y-121546371D01*
X131009100Y-121333243D01*
X130453339Y-121332758D01*
X129939697Y-121544990D01*
X129546371Y-121937630D01*
X129460051Y-122145512D01*
X129375010Y-121939697D01*
X128982370Y-121546371D01*
X128469100Y-121333243D01*
X127913339Y-121332758D01*
X127399697Y-121544990D01*
X127006371Y-121937630D01*
X126920051Y-122145512D01*
X126835010Y-121939697D01*
X126442370Y-121546371D01*
X125929100Y-121333243D01*
X125373339Y-121332758D01*
X124859697Y-121544990D01*
X124466371Y-121937630D01*
X124380051Y-122145512D01*
X124295010Y-121939697D01*
X123902370Y-121546371D01*
X123389100Y-121333243D01*
X122833339Y-121332758D01*
X122319697Y-121544990D01*
X121926371Y-121937630D01*
X121846605Y-122129727D01*
X121792397Y-121998857D01*
X121550213Y-121929392D01*
X120749605Y-122730000D01*
X121550213Y-123530608D01*
X121792397Y-123461143D01*
X121842509Y-123320682D01*
X121924990Y-123520303D01*
X122317630Y-123913629D01*
X122525512Y-123999949D01*
X122319697Y-124084990D01*
X121926371Y-124477630D01*
X121846605Y-124669727D01*
X121792397Y-124538857D01*
X121550213Y-124469392D01*
X120749605Y-125270000D01*
X121550213Y-126070608D01*
X121792397Y-126001143D01*
X121842509Y-125860682D01*
X121924990Y-126060303D01*
X122179243Y-126315000D01*
X121352025Y-126315000D01*
X121370608Y-126250213D01*
X120570000Y-125449605D01*
X119769392Y-126250213D01*
X119787975Y-126315000D01*
X91067466Y-126315000D01*
X90884590Y-126278624D01*
X90786751Y-126213250D01*
X90721376Y-126115409D01*
X90685000Y-125932534D01*
X90685000Y-124545167D01*
X114544838Y-124545167D01*
X114686883Y-124888943D01*
X114949673Y-125152192D01*
X115293201Y-125294838D01*
X115665167Y-125295162D01*
X116008943Y-125153117D01*
X116099916Y-125062302D01*
X119160856Y-125062302D01*
X119188638Y-125617368D01*
X119347603Y-126001143D01*
X119589787Y-126070608D01*
X120390395Y-125270000D01*
X119589787Y-124469392D01*
X119347603Y-124538857D01*
X119160856Y-125062302D01*
X116099916Y-125062302D01*
X116272192Y-124890327D01*
X116414838Y-124546799D01*
X116415162Y-124174833D01*
X116273117Y-123831057D01*
X116152484Y-123710213D01*
X119769392Y-123710213D01*
X119838857Y-123952397D01*
X119962344Y-123996453D01*
X119838857Y-124047603D01*
X119769392Y-124289787D01*
X120570000Y-125090395D01*
X121370608Y-124289787D01*
X121301143Y-124047603D01*
X121177656Y-124003547D01*
X121301143Y-123952397D01*
X121370608Y-123710213D01*
X120570000Y-122909605D01*
X119769392Y-123710213D01*
X116152484Y-123710213D01*
X116010327Y-123567808D01*
X115666799Y-123425162D01*
X115294833Y-123424838D01*
X114951057Y-123566883D01*
X114687808Y-123829673D01*
X114545162Y-124173201D01*
X114544838Y-124545167D01*
X90685000Y-124545167D01*
X90685000Y-122522302D01*
X119160856Y-122522302D01*
X119188638Y-123077368D01*
X119347603Y-123461143D01*
X119589787Y-123530608D01*
X120390395Y-122730000D01*
X119589787Y-121929392D01*
X119347603Y-121998857D01*
X119160856Y-122522302D01*
X90685000Y-122522302D01*
X90685000Y-121749787D01*
X119769392Y-121749787D01*
X120570000Y-122550395D01*
X121370608Y-121749787D01*
X121301143Y-121507603D01*
X120777698Y-121320856D01*
X120222632Y-121348638D01*
X119838857Y-121507603D01*
X119769392Y-121749787D01*
X90685000Y-121749787D01*
X90685000Y-119749426D01*
X90775486Y-119945044D01*
X91505989Y-120227246D01*
X92288880Y-120208415D01*
X92924714Y-119945044D01*
X93064165Y-119643570D01*
X95735835Y-119643570D01*
X95875286Y-119945044D01*
X96605789Y-120227246D01*
X97388680Y-120208415D01*
X98024514Y-119945044D01*
X98163965Y-119643570D01*
X96949900Y-118429505D01*
X95735835Y-119643570D01*
X93064165Y-119643570D01*
X91850100Y-118429505D01*
X91835958Y-118443648D01*
X91656353Y-118264043D01*
X91670495Y-118249900D01*
X92029705Y-118249900D01*
X93243770Y-119463965D01*
X93545244Y-119324514D01*
X93827446Y-118594011D01*
X93810893Y-117905789D01*
X94972554Y-117905789D01*
X94991385Y-118688680D01*
X95254756Y-119324514D01*
X95556230Y-119463965D01*
X96770295Y-118249900D01*
X97129505Y-118249900D01*
X98343570Y-119463965D01*
X98645044Y-119324514D01*
X98927246Y-118594011D01*
X98908415Y-117811120D01*
X98908021Y-117810167D01*
X129289838Y-117810167D01*
X129431883Y-118153943D01*
X129694673Y-118417192D01*
X130038201Y-118559838D01*
X130410167Y-118560162D01*
X130753943Y-118418117D01*
X131017192Y-118155327D01*
X131159838Y-117811799D01*
X131160162Y-117439833D01*
X131018117Y-117096057D01*
X130755327Y-116832808D01*
X130411799Y-116690162D01*
X130039833Y-116689838D01*
X129696057Y-116831883D01*
X129432808Y-117094673D01*
X129290162Y-117438201D01*
X129289838Y-117810167D01*
X98908021Y-117810167D01*
X98645044Y-117175286D01*
X98343570Y-117035835D01*
X97129505Y-118249900D01*
X96770295Y-118249900D01*
X95556230Y-117035835D01*
X95254756Y-117175286D01*
X94972554Y-117905789D01*
X93810893Y-117905789D01*
X93808615Y-117811120D01*
X93545244Y-117175286D01*
X93243770Y-117035835D01*
X92029705Y-118249900D01*
X91670495Y-118249900D01*
X91656353Y-118235758D01*
X91835958Y-118056153D01*
X91850100Y-118070295D01*
X93064165Y-116856230D01*
X92924714Y-116554756D01*
X92194211Y-116272554D01*
X91411320Y-116291385D01*
X90775486Y-116554756D01*
X90685000Y-116750374D01*
X90685000Y-116014388D01*
X92812225Y-116014388D01*
X93053398Y-116598072D01*
X93499579Y-117045032D01*
X94082841Y-117287224D01*
X94714388Y-117287775D01*
X95298072Y-117046602D01*
X95488776Y-116856230D01*
X95735835Y-116856230D01*
X96949900Y-118070295D01*
X98163965Y-116856230D01*
X98024514Y-116554756D01*
X97294011Y-116272554D01*
X96511120Y-116291385D01*
X95875286Y-116554756D01*
X95735835Y-116856230D01*
X95488776Y-116856230D01*
X95745032Y-116600421D01*
X95987224Y-116017159D01*
X95987452Y-115755167D01*
X119354838Y-115755167D01*
X119496883Y-116098943D01*
X119759673Y-116362192D01*
X120103201Y-116504838D01*
X120475167Y-116505162D01*
X120818943Y-116363117D01*
X121082192Y-116100327D01*
X121224838Y-115756799D01*
X121225162Y-115384833D01*
X121083117Y-115041057D01*
X120820327Y-114777808D01*
X120476799Y-114635162D01*
X120104833Y-114634838D01*
X119761057Y-114776883D01*
X119497808Y-115039673D01*
X119355162Y-115383201D01*
X119354838Y-115755167D01*
X95987452Y-115755167D01*
X95987775Y-115385612D01*
X95746602Y-114801928D01*
X95488894Y-114543770D01*
X95735835Y-114543770D01*
X95875286Y-114845244D01*
X96605789Y-115127446D01*
X97388680Y-115108615D01*
X98024514Y-114845244D01*
X98163965Y-114543770D01*
X96949900Y-113329705D01*
X95735835Y-114543770D01*
X95488894Y-114543770D01*
X95300421Y-114354968D01*
X94717159Y-114112776D01*
X94085612Y-114112225D01*
X93501928Y-114353398D01*
X93054968Y-114799579D01*
X92812776Y-115382841D01*
X92812225Y-116014388D01*
X90685000Y-116014388D01*
X90685000Y-114649626D01*
X90775486Y-114845244D01*
X91505989Y-115127446D01*
X92288880Y-115108615D01*
X92924714Y-114845244D01*
X93064165Y-114543770D01*
X91850100Y-113329705D01*
X91835958Y-113343848D01*
X91656353Y-113164243D01*
X91670495Y-113150100D01*
X92029705Y-113150100D01*
X93243770Y-114364165D01*
X93545244Y-114224714D01*
X93827446Y-113494211D01*
X93810893Y-112805989D01*
X94972554Y-112805989D01*
X94991385Y-113588880D01*
X95254756Y-114224714D01*
X95556230Y-114364165D01*
X96770295Y-113150100D01*
X97129505Y-113150100D01*
X98343570Y-114364165D01*
X98492734Y-114295167D01*
X106014838Y-114295167D01*
X106156883Y-114638943D01*
X106419673Y-114902192D01*
X106763201Y-115044838D01*
X107135167Y-115045162D01*
X107478943Y-114903117D01*
X107742192Y-114640327D01*
X107884838Y-114296799D01*
X107885162Y-113924833D01*
X107743117Y-113581057D01*
X107480327Y-113317808D01*
X107136799Y-113175162D01*
X106764833Y-113174838D01*
X106421057Y-113316883D01*
X106157808Y-113579673D01*
X106015162Y-113923201D01*
X106014838Y-114295167D01*
X98492734Y-114295167D01*
X98645044Y-114224714D01*
X98927246Y-113494211D01*
X98908415Y-112711320D01*
X98645044Y-112075486D01*
X98343570Y-111936035D01*
X97129505Y-113150100D01*
X96770295Y-113150100D01*
X95556230Y-111936035D01*
X95254756Y-112075486D01*
X94972554Y-112805989D01*
X93810893Y-112805989D01*
X93808615Y-112711320D01*
X93545244Y-112075486D01*
X93243770Y-111936035D01*
X92029705Y-113150100D01*
X91670495Y-113150100D01*
X91656353Y-113135958D01*
X91835958Y-112956353D01*
X91850100Y-112970495D01*
X93064165Y-111756430D01*
X95735835Y-111756430D01*
X96949900Y-112970495D01*
X98163965Y-111756430D01*
X98024514Y-111454956D01*
X97294011Y-111172754D01*
X96511120Y-111191585D01*
X95875286Y-111454956D01*
X95735835Y-111756430D01*
X93064165Y-111756430D01*
X92924714Y-111454956D01*
X92194211Y-111172754D01*
X91411320Y-111191585D01*
X90775486Y-111454956D01*
X90685000Y-111650574D01*
X90685000Y-106975167D01*
X99544838Y-106975167D01*
X99686883Y-107318943D01*
X99949673Y-107582192D01*
X100293201Y-107724838D01*
X100665167Y-107725162D01*
X100979779Y-107595167D01*
X104854838Y-107595167D01*
X104996883Y-107938943D01*
X105259673Y-108202192D01*
X105603201Y-108344838D01*
X105975167Y-108345162D01*
X106318943Y-108203117D01*
X106582192Y-107940327D01*
X106724838Y-107596799D01*
X106725162Y-107224833D01*
X106583117Y-106881057D01*
X106320327Y-106617808D01*
X105976799Y-106475162D01*
X105604833Y-106474838D01*
X105261057Y-106616883D01*
X104997808Y-106879673D01*
X104855162Y-107223201D01*
X104854838Y-107595167D01*
X100979779Y-107595167D01*
X101008943Y-107583117D01*
X101272192Y-107320327D01*
X101414838Y-106976799D01*
X101415162Y-106604833D01*
X101273117Y-106261057D01*
X101010327Y-105997808D01*
X100666799Y-105855162D01*
X100294833Y-105854838D01*
X99951057Y-105996883D01*
X99687808Y-106259673D01*
X99545162Y-106603201D01*
X99544838Y-106975167D01*
X90685000Y-106975167D01*
X90685000Y-105275167D01*
X116034838Y-105275167D01*
X116176883Y-105618943D01*
X116439673Y-105882192D01*
X116783201Y-106024838D01*
X117155167Y-106025162D01*
X117498943Y-105883117D01*
X117762192Y-105620327D01*
X117904838Y-105276799D01*
X117905162Y-104904833D01*
X117763117Y-104561057D01*
X117500327Y-104297808D01*
X117156799Y-104155162D01*
X116784833Y-104154838D01*
X116441057Y-104296883D01*
X116177808Y-104559673D01*
X116035162Y-104903201D01*
X116034838Y-105275167D01*
X90685000Y-105275167D01*
X90685000Y-102845167D01*
X97714838Y-102845167D01*
X97856883Y-103188943D01*
X98119673Y-103452192D01*
X98463201Y-103594838D01*
X98835167Y-103595162D01*
X99178943Y-103453117D01*
X99442192Y-103190327D01*
X99584838Y-102846799D01*
X99585162Y-102474833D01*
X99443117Y-102131057D01*
X99180327Y-101867808D01*
X98836799Y-101725162D01*
X98464833Y-101724838D01*
X98121057Y-101866883D01*
X97857808Y-102129673D01*
X97715162Y-102473201D01*
X97714838Y-102845167D01*
X90685000Y-102845167D01*
X90685000Y-101460167D01*
X91939838Y-101460167D01*
X92081883Y-101803943D01*
X92344673Y-102067192D01*
X92688201Y-102209838D01*
X93060167Y-102210162D01*
X93403943Y-102068117D01*
X93667192Y-101805327D01*
X93809838Y-101461799D01*
X93810162Y-101089833D01*
X93668117Y-100746057D01*
X93405327Y-100482808D01*
X93061799Y-100340162D01*
X92689833Y-100339838D01*
X92346057Y-100481883D01*
X92082808Y-100744673D01*
X91940162Y-101088201D01*
X91939838Y-101460167D01*
X90685000Y-101460167D01*
X90685000Y-99425167D01*
X103884838Y-99425167D01*
X104026883Y-99768943D01*
X104289673Y-100032192D01*
X104633201Y-100174838D01*
X105005167Y-100175162D01*
X105348943Y-100033117D01*
X105612192Y-99770327D01*
X105754838Y-99426799D01*
X105755162Y-99054833D01*
X105613117Y-98711057D01*
X105350327Y-98447808D01*
X105006799Y-98305162D01*
X104634833Y-98304838D01*
X104291057Y-98446883D01*
X104027808Y-98709673D01*
X103885162Y-99053201D01*
X103884838Y-99425167D01*
X90685000Y-99425167D01*
X90685000Y-96425167D01*
X103814838Y-96425167D01*
X103956883Y-96768943D01*
X104219673Y-97032192D01*
X104563201Y-97174838D01*
X104935167Y-97175162D01*
X105278943Y-97033117D01*
X105542192Y-96770327D01*
X105684838Y-96426799D01*
X105685162Y-96054833D01*
X105543117Y-95711057D01*
X105280327Y-95447808D01*
X104936799Y-95305162D01*
X104564833Y-95304838D01*
X104221057Y-95446883D01*
X103957808Y-95709673D01*
X103815162Y-96053201D01*
X103814838Y-96425167D01*
X90685000Y-96425167D01*
X90685000Y-94405167D01*
X116024838Y-94405167D01*
X116166883Y-94748943D01*
X116429673Y-95012192D01*
X116773201Y-95154838D01*
X117145167Y-95155162D01*
X117488943Y-95013117D01*
X117752192Y-94750327D01*
X117894838Y-94406799D01*
X117895162Y-94034833D01*
X117753117Y-93691057D01*
X117490327Y-93427808D01*
X117146799Y-93285162D01*
X116774833Y-93284838D01*
X116431057Y-93426883D01*
X116167808Y-93689673D01*
X116025162Y-94033201D01*
X116024838Y-94405167D01*
X90685000Y-94405167D01*
X90685000Y-92510167D01*
X109564838Y-92510167D01*
X109706883Y-92853943D01*
X109969673Y-93117192D01*
X110313201Y-93259838D01*
X110685167Y-93260162D01*
X111028943Y-93118117D01*
X111292192Y-92855327D01*
X111434838Y-92511799D01*
X111435162Y-92139833D01*
X111293117Y-91796057D01*
X111030327Y-91532808D01*
X110686799Y-91390162D01*
X110314833Y-91389838D01*
X109971057Y-91531883D01*
X109707808Y-91794673D01*
X109565162Y-92138201D01*
X109564838Y-92510167D01*
X90685000Y-92510167D01*
X90685000Y-87494608D01*
X90736036Y-87443572D01*
X90875486Y-87745044D01*
X91605989Y-88027246D01*
X92388880Y-88008415D01*
X93024714Y-87745044D01*
X93164165Y-87443570D01*
X95835835Y-87443570D01*
X95975286Y-87745044D01*
X96705789Y-88027246D01*
X97488680Y-88008415D01*
X98124514Y-87745044D01*
X98263965Y-87443570D01*
X97049900Y-86229505D01*
X95835835Y-87443570D01*
X93164165Y-87443570D01*
X91950100Y-86229505D01*
X91935958Y-86243648D01*
X91756353Y-86064043D01*
X91770495Y-86049900D01*
X92129705Y-86049900D01*
X93343770Y-87263965D01*
X93645244Y-87124514D01*
X93927446Y-86394011D01*
X93910893Y-85705789D01*
X95072554Y-85705789D01*
X95091385Y-86488680D01*
X95354756Y-87124514D01*
X95656230Y-87263965D01*
X96870295Y-86049900D01*
X97229505Y-86049900D01*
X98443570Y-87263965D01*
X98745044Y-87124514D01*
X99027246Y-86394011D01*
X99008415Y-85611120D01*
X98745044Y-84975286D01*
X98443570Y-84835835D01*
X97229505Y-86049900D01*
X96870295Y-86049900D01*
X95656230Y-84835835D01*
X95354756Y-84975286D01*
X95072554Y-85705789D01*
X93910893Y-85705789D01*
X93908615Y-85611120D01*
X93645244Y-84975286D01*
X93343770Y-84835835D01*
X92129705Y-86049900D01*
X91770495Y-86049900D01*
X91756353Y-86035758D01*
X91935958Y-85856153D01*
X91950100Y-85870295D01*
X93164165Y-84656230D01*
X93024714Y-84354756D01*
X92294211Y-84072554D01*
X91511320Y-84091385D01*
X90875486Y-84354756D01*
X90736036Y-84656228D01*
X90685000Y-84605192D01*
X90685000Y-83814388D01*
X92912225Y-83814388D01*
X93153398Y-84398072D01*
X93599579Y-84845032D01*
X94182841Y-85087224D01*
X94814388Y-85087775D01*
X95398072Y-84846602D01*
X95588776Y-84656230D01*
X95835835Y-84656230D01*
X97049900Y-85870295D01*
X98263965Y-84656230D01*
X98124514Y-84354756D01*
X97394011Y-84072554D01*
X96611120Y-84091385D01*
X95975286Y-84354756D01*
X95835835Y-84656230D01*
X95588776Y-84656230D01*
X95845032Y-84400421D01*
X96087224Y-83817159D01*
X96087775Y-83185612D01*
X95846602Y-82601928D01*
X95588894Y-82343770D01*
X95835835Y-82343770D01*
X95975286Y-82645244D01*
X96705789Y-82927446D01*
X97488680Y-82908615D01*
X98124514Y-82645244D01*
X98263965Y-82343770D01*
X97049900Y-81129705D01*
X95835835Y-82343770D01*
X95588894Y-82343770D01*
X95400421Y-82154968D01*
X94817159Y-81912776D01*
X94185612Y-81912225D01*
X93601928Y-82153398D01*
X93154968Y-82599579D01*
X92912776Y-83182841D01*
X92912225Y-83814388D01*
X90685000Y-83814388D01*
X90685000Y-82394808D01*
X90736036Y-82343772D01*
X90875486Y-82645244D01*
X91605989Y-82927446D01*
X92388880Y-82908615D01*
X93024714Y-82645244D01*
X93164165Y-82343770D01*
X91950100Y-81129705D01*
X91935958Y-81143848D01*
X91756353Y-80964243D01*
X91770495Y-80950100D01*
X92129705Y-80950100D01*
X93343770Y-82164165D01*
X93645244Y-82024714D01*
X93927446Y-81294211D01*
X93910893Y-80605989D01*
X95072554Y-80605989D01*
X95091385Y-81388880D01*
X95354756Y-82024714D01*
X95656230Y-82164165D01*
X96870295Y-80950100D01*
X97229505Y-80950100D01*
X98443570Y-82164165D01*
X98745044Y-82024714D01*
X99027246Y-81294211D01*
X99008415Y-80511320D01*
X98745044Y-79875486D01*
X98443570Y-79736035D01*
X97229505Y-80950100D01*
X96870295Y-80950100D01*
X95656230Y-79736035D01*
X95354756Y-79875486D01*
X95072554Y-80605989D01*
X93910893Y-80605989D01*
X93908615Y-80511320D01*
X93645244Y-79875486D01*
X93343770Y-79736035D01*
X92129705Y-80950100D01*
X91770495Y-80950100D01*
X91756353Y-80935958D01*
X91935958Y-80756353D01*
X91950100Y-80770495D01*
X93164165Y-79556430D01*
X95835835Y-79556430D01*
X97049900Y-80770495D01*
X98263965Y-79556430D01*
X98124514Y-79254956D01*
X97394011Y-78972754D01*
X96611120Y-78991585D01*
X95975286Y-79254956D01*
X95835835Y-79556430D01*
X93164165Y-79556430D01*
X93024714Y-79254956D01*
X92294211Y-78972754D01*
X91511320Y-78991585D01*
X90875486Y-79254956D01*
X90736036Y-79556428D01*
X90685000Y-79505392D01*
X90685000Y-72067466D01*
X90721376Y-71884591D01*
X90786751Y-71786750D01*
X90884590Y-71721376D01*
X91067466Y-71685000D01*
X123873421Y-71685000D01*
X123725460Y-71832961D01*
X123725460Y-71832961D01*
G37*
X123725460Y-71832961D02*
X123493339Y-71832758D01*
X122979697Y-72044990D01*
X122586371Y-72437630D01*
X122506605Y-72629727D01*
X122452397Y-72498857D01*
X122210213Y-72429392D01*
X121409605Y-73230000D01*
X122210213Y-74030608D01*
X122452397Y-73961143D01*
X122502509Y-73820682D01*
X122584990Y-74020303D01*
X122977630Y-74413629D01*
X123185512Y-74499949D01*
X122979697Y-74584990D01*
X122586371Y-74977630D01*
X122500051Y-75185512D01*
X122415010Y-74979697D01*
X122022370Y-74586371D01*
X121830273Y-74506605D01*
X121961143Y-74452397D01*
X122030608Y-74210213D01*
X121230000Y-73409605D01*
X120429392Y-74210213D01*
X120498857Y-74452397D01*
X120639318Y-74502509D01*
X120439697Y-74584990D01*
X120046371Y-74977630D01*
X119960051Y-75185512D01*
X119875010Y-74979697D01*
X119482370Y-74586371D01*
X119274488Y-74500051D01*
X119480303Y-74415010D01*
X119873629Y-74022370D01*
X119953395Y-73830273D01*
X120007603Y-73961143D01*
X120249787Y-74030608D01*
X121050395Y-73230000D01*
X120249787Y-72429392D01*
X120007603Y-72498857D01*
X119957491Y-72639318D01*
X119875010Y-72439697D01*
X119685432Y-72249787D01*
X120429392Y-72249787D01*
X121230000Y-73050395D01*
X122030608Y-72249787D01*
X121961143Y-72007603D01*
X121437698Y-71820856D01*
X120882632Y-71848638D01*
X120498857Y-72007603D01*
X120429392Y-72249787D01*
X119685432Y-72249787D01*
X119482370Y-72046371D01*
X118969100Y-71833243D01*
X118413339Y-71832758D01*
X117899697Y-72044990D01*
X117506371Y-72437630D01*
X117420051Y-72645512D01*
X117335010Y-72439697D01*
X116942370Y-72046371D01*
X116429100Y-71833243D01*
X115873339Y-71832758D01*
X115359697Y-72044990D01*
X114966371Y-72437630D01*
X114886605Y-72629727D01*
X114832397Y-72498857D01*
X114590213Y-72429392D01*
X113789605Y-73230000D01*
X114590213Y-74030608D01*
X114832397Y-73961143D01*
X114882509Y-73820682D01*
X114964990Y-74020303D01*
X115357630Y-74413629D01*
X115565512Y-74499949D01*
X115359697Y-74584990D01*
X114966371Y-74977630D01*
X114880051Y-75185512D01*
X114795010Y-74979697D01*
X114402370Y-74586371D01*
X114210273Y-74506605D01*
X114341143Y-74452397D01*
X114410608Y-74210213D01*
X113610000Y-73409605D01*
X112809392Y-74210213D01*
X112878857Y-74452397D01*
X113019318Y-74502509D01*
X112819697Y-74584990D01*
X112426371Y-74977630D01*
X112340051Y-75185512D01*
X112255010Y-74979697D01*
X111862370Y-74586371D01*
X111654488Y-74500051D01*
X111860303Y-74415010D01*
X112253629Y-74022370D01*
X112333395Y-73830273D01*
X112387603Y-73961143D01*
X112629787Y-74030608D01*
X113430395Y-73230000D01*
X112629787Y-72429392D01*
X112387603Y-72498857D01*
X112337491Y-72639318D01*
X112255010Y-72439697D01*
X112065432Y-72249787D01*
X112809392Y-72249787D01*
X113610000Y-73050395D01*
X114410608Y-72249787D01*
X114341143Y-72007603D01*
X113817698Y-71820856D01*
X113262632Y-71848638D01*
X112878857Y-72007603D01*
X112809392Y-72249787D01*
X112065432Y-72249787D01*
X111862370Y-72046371D01*
X111349100Y-71833243D01*
X110793339Y-71832758D01*
X110279697Y-72044990D01*
X109886371Y-72437630D01*
X109800051Y-72645512D01*
X109715010Y-72439697D01*
X109322370Y-72046371D01*
X108809100Y-71833243D01*
X108253339Y-71832758D01*
X107739697Y-72044990D01*
X107346371Y-72437630D01*
X107260051Y-72645512D01*
X107175010Y-72439697D01*
X106782370Y-72046371D01*
X106269100Y-71833243D01*
X105713339Y-71832758D01*
X105199697Y-72044990D01*
X104806371Y-72437630D01*
X104726605Y-72629727D01*
X104672397Y-72498857D01*
X104430213Y-72429392D01*
X103629605Y-73230000D01*
X104430213Y-74030608D01*
X104672397Y-73961143D01*
X104722509Y-73820682D01*
X104804990Y-74020303D01*
X105197630Y-74413629D01*
X105405512Y-74499949D01*
X105199697Y-74584990D01*
X104806371Y-74977630D01*
X104720051Y-75185512D01*
X104635010Y-74979697D01*
X104242370Y-74586371D01*
X104050273Y-74506605D01*
X104181143Y-74452397D01*
X104250608Y-74210213D01*
X103450000Y-73409605D01*
X102649392Y-74210213D01*
X102718857Y-74452397D01*
X102859318Y-74502509D01*
X102659697Y-74584990D01*
X102266371Y-74977630D01*
X102180051Y-75185512D01*
X102095010Y-74979697D01*
X101702370Y-74586371D01*
X101494488Y-74500051D01*
X101700303Y-74415010D01*
X102093629Y-74022370D01*
X102173395Y-73830273D01*
X102227603Y-73961143D01*
X102469787Y-74030608D01*
X103270395Y-73230000D01*
X102469787Y-72429392D01*
X102227603Y-72498857D01*
X102177491Y-72639318D01*
X102095010Y-72439697D01*
X101905432Y-72249787D01*
X102649392Y-72249787D01*
X103450000Y-73050395D01*
X104250608Y-72249787D01*
X104181143Y-72007603D01*
X103657698Y-71820856D01*
X103102632Y-71848638D01*
X102718857Y-72007603D01*
X102649392Y-72249787D01*
X101905432Y-72249787D01*
X101702370Y-72046371D01*
X101189100Y-71833243D01*
X100633339Y-71832758D01*
X100119697Y-72044990D01*
X99726371Y-72437630D01*
X99640051Y-72645512D01*
X99555010Y-72439697D01*
X99162370Y-72046371D01*
X98649100Y-71833243D01*
X98093339Y-71832758D01*
X97579697Y-72044990D01*
X97186371Y-72437630D01*
X96973243Y-72950900D01*
X96972758Y-73506661D01*
X97184990Y-74020303D01*
X97577630Y-74413629D01*
X97785512Y-74499949D01*
X97579697Y-74584990D01*
X97186371Y-74977630D01*
X96973243Y-75490900D01*
X96972758Y-76046661D01*
X97184990Y-76560303D01*
X97577630Y-76953629D01*
X98090900Y-77166757D01*
X98646661Y-77167242D01*
X99160303Y-76955010D01*
X99553629Y-76562370D01*
X99639949Y-76354488D01*
X99724990Y-76560303D01*
X100117630Y-76953629D01*
X100630900Y-77166757D01*
X101186661Y-77167242D01*
X101700303Y-76955010D01*
X102093629Y-76562370D01*
X102179949Y-76354488D01*
X102264990Y-76560303D01*
X102657630Y-76953629D01*
X103170900Y-77166757D01*
X103726661Y-77167242D01*
X104240303Y-76955010D01*
X104633629Y-76562370D01*
X104719949Y-76354488D01*
X104804990Y-76560303D01*
X105197630Y-76953629D01*
X105710900Y-77166757D01*
X106266661Y-77167242D01*
X106780303Y-76955010D01*
X106985457Y-76750213D01*
X107729392Y-76750213D01*
X107798857Y-76992397D01*
X108322302Y-77179144D01*
X108877368Y-77151362D01*
X109261143Y-76992397D01*
X109330608Y-76750213D01*
X108530000Y-75949605D01*
X107729392Y-76750213D01*
X106985457Y-76750213D01*
X107173629Y-76562370D01*
X107253395Y-76370273D01*
X107307603Y-76501143D01*
X107549787Y-76570608D01*
X108350395Y-75770000D01*
X107549787Y-74969392D01*
X107307603Y-75038857D01*
X107257491Y-75179318D01*
X107175010Y-74979697D01*
X106782370Y-74586371D01*
X106574488Y-74500051D01*
X106780303Y-74415010D01*
X107173629Y-74022370D01*
X107259949Y-73814488D01*
X107344990Y-74020303D01*
X107737630Y-74413629D01*
X107929727Y-74493395D01*
X107798857Y-74547603D01*
X107729392Y-74789787D01*
X108530000Y-75590395D01*
X109330608Y-74789787D01*
X109261143Y-74547603D01*
X109120682Y-74497491D01*
X109320303Y-74415010D01*
X109713629Y-74022370D01*
X109799949Y-73814488D01*
X109884990Y-74020303D01*
X110277630Y-74413629D01*
X110485512Y-74499949D01*
X110279697Y-74584990D01*
X109886371Y-74977630D01*
X109806605Y-75169727D01*
X109752397Y-75038857D01*
X109510213Y-74969392D01*
X108709605Y-75770000D01*
X109510213Y-76570608D01*
X109752397Y-76501143D01*
X109802509Y-76360682D01*
X109884990Y-76560303D01*
X110185000Y-76860837D01*
X110185000Y-78049995D01*
X110184999Y-78050000D01*
X110241190Y-78332484D01*
X110252367Y-78388675D01*
X110438259Y-78666883D01*
X110444210Y-78675790D01*
X116535586Y-84767165D01*
X116391057Y-84826883D01*
X116127808Y-85089673D01*
X115985162Y-85433201D01*
X115984838Y-85805167D01*
X116126883Y-86148943D01*
X116389673Y-86412192D01*
X116733201Y-86554838D01*
X117105167Y-86555162D01*
X117448943Y-86413117D01*
X117712192Y-86150327D01*
X117772797Y-86004376D01*
X118115000Y-86346579D01*
X118115000Y-109389995D01*
X118114999Y-109390000D01*
X118171190Y-109672484D01*
X118182367Y-109728675D01*
X118306973Y-109915162D01*
X118374210Y-110015790D01*
X120964210Y-112605789D01*
X120986130Y-112620436D01*
X121002038Y-112641457D01*
X121804628Y-113354871D01*
X124067980Y-115459789D01*
X124106883Y-115553943D01*
X124369673Y-115817192D01*
X124713201Y-115959838D01*
X125085167Y-115960162D01*
X125428943Y-115818117D01*
X125692192Y-115555327D01*
X125834838Y-115211799D01*
X125835162Y-114839833D01*
X125693117Y-114496057D01*
X125430327Y-114232808D01*
X125281077Y-114170834D01*
X124409392Y-113360167D01*
X126264838Y-113360167D01*
X126406883Y-113703943D01*
X126669673Y-113967192D01*
X127013201Y-114109838D01*
X127385167Y-114110162D01*
X127728943Y-113968117D01*
X127992192Y-113705327D01*
X128134838Y-113361799D01*
X128135162Y-112989833D01*
X127993117Y-112646057D01*
X127730327Y-112382808D01*
X127386799Y-112240162D01*
X127014833Y-112239838D01*
X126671057Y-112381883D01*
X126407808Y-112644673D01*
X126265162Y-112988201D01*
X126264838Y-113360167D01*
X124409392Y-113360167D01*
X123199715Y-112235167D01*
X131994838Y-112235167D01*
X132136883Y-112578943D01*
X132399673Y-112842192D01*
X132743201Y-112984838D01*
X133115167Y-112985162D01*
X133458943Y-112843117D01*
X133722192Y-112580327D01*
X133864838Y-112236799D01*
X133864935Y-112125167D01*
X143494838Y-112125167D01*
X143636883Y-112468943D01*
X143899673Y-112732192D01*
X144243201Y-112874838D01*
X144615167Y-112875162D01*
X144958943Y-112733117D01*
X145222192Y-112470327D01*
X145364838Y-112126799D01*
X145365162Y-111754833D01*
X145223117Y-111411057D01*
X144960327Y-111147808D01*
X144616799Y-111005162D01*
X144244833Y-111004838D01*
X143901057Y-111146883D01*
X143637808Y-111409673D01*
X143495162Y-111753201D01*
X143494838Y-112125167D01*
X133864935Y-112125167D01*
X133865162Y-111864833D01*
X133723117Y-111521057D01*
X133460327Y-111257808D01*
X133116799Y-111115162D01*
X132744833Y-111114838D01*
X132401057Y-111256883D01*
X132137808Y-111519673D01*
X131995162Y-111863201D01*
X131994838Y-112235167D01*
X123199715Y-112235167D01*
X123002696Y-112051940D01*
X122994075Y-112046621D01*
X122987962Y-112038543D01*
X122197402Y-111335823D01*
X119885000Y-109023420D01*
X119885000Y-108775167D01*
X124234838Y-108775167D01*
X124376883Y-109118943D01*
X124639673Y-109382192D01*
X124983201Y-109524838D01*
X125355167Y-109525162D01*
X125698943Y-109383117D01*
X125962192Y-109120327D01*
X126104838Y-108776799D01*
X126105162Y-108404833D01*
X125963117Y-108061057D01*
X125700327Y-107797808D01*
X125356799Y-107655162D01*
X124984833Y-107654838D01*
X124641057Y-107796883D01*
X124377808Y-108059673D01*
X124235162Y-108403201D01*
X124234838Y-108775167D01*
X119885000Y-108775167D01*
X119885000Y-107855167D01*
X120874838Y-107855167D01*
X121016883Y-108198943D01*
X121279673Y-108462192D01*
X121623201Y-108604838D01*
X121995167Y-108605162D01*
X122338943Y-108463117D01*
X122602192Y-108200327D01*
X122744838Y-107856799D01*
X122745162Y-107484833D01*
X122603117Y-107141057D01*
X122597238Y-107135167D01*
X129314838Y-107135167D01*
X129456883Y-107478943D01*
X129719673Y-107742192D01*
X129964101Y-107843688D01*
X129787808Y-108019673D01*
X129645162Y-108363201D01*
X129644838Y-108735167D01*
X129786883Y-109078943D01*
X130049673Y-109342192D01*
X130393201Y-109484838D01*
X130765167Y-109485162D01*
X131108943Y-109343117D01*
X131372192Y-109080327D01*
X131514838Y-108736799D01*
X131515083Y-108455167D01*
X132514838Y-108455167D01*
X132656883Y-108798943D01*
X132919673Y-109062192D01*
X133263201Y-109204838D01*
X133635167Y-109205162D01*
X133978943Y-109063117D01*
X134057029Y-108985167D01*
X135464838Y-108985167D01*
X135606883Y-109328943D01*
X135869673Y-109592192D01*
X136213201Y-109734838D01*
X136585167Y-109735162D01*
X136928943Y-109593117D01*
X137192192Y-109330327D01*
X137334838Y-108986799D01*
X137335162Y-108614833D01*
X137193117Y-108271057D01*
X136930327Y-108007808D01*
X136586799Y-107865162D01*
X136214833Y-107864838D01*
X135871057Y-108006883D01*
X135607808Y-108269673D01*
X135465162Y-108613201D01*
X135464838Y-108985167D01*
X134057029Y-108985167D01*
X134242192Y-108800327D01*
X134384838Y-108456799D01*
X134385162Y-108084833D01*
X134243117Y-107741057D01*
X133980327Y-107477808D01*
X133636799Y-107335162D01*
X133264833Y-107334838D01*
X132921057Y-107476883D01*
X132657808Y-107739673D01*
X132515162Y-108083201D01*
X132514838Y-108455167D01*
X131515083Y-108455167D01*
X131515162Y-108364833D01*
X131373117Y-108021057D01*
X131110327Y-107757808D01*
X130865899Y-107656312D01*
X131042192Y-107480327D01*
X131184838Y-107136799D01*
X131185162Y-106764833D01*
X131043117Y-106421057D01*
X130780327Y-106157808D01*
X130436799Y-106015162D01*
X130064833Y-106014838D01*
X129721057Y-106156883D01*
X129457808Y-106419673D01*
X129315162Y-106763201D01*
X129314838Y-107135167D01*
X122597238Y-107135167D01*
X122340327Y-106877808D01*
X121996799Y-106735162D01*
X121624833Y-106734838D01*
X121281057Y-106876883D01*
X121017808Y-107139673D01*
X120875162Y-107483201D01*
X120874838Y-107855167D01*
X119885000Y-107855167D01*
X119885000Y-104995167D01*
X126204838Y-104995167D01*
X126346883Y-105338943D01*
X126609673Y-105602192D01*
X126953201Y-105744838D01*
X127325167Y-105745162D01*
X127668943Y-105603117D01*
X127932192Y-105340327D01*
X128074838Y-104996799D01*
X128075162Y-104624833D01*
X127933117Y-104281057D01*
X127670327Y-104017808D01*
X127326799Y-103875162D01*
X126954833Y-103874838D01*
X126611057Y-104016883D01*
X126347808Y-104279673D01*
X126205162Y-104623201D01*
X126204838Y-104995167D01*
X119885000Y-104995167D01*
X119885000Y-100485167D01*
X124024838Y-100485167D01*
X124166883Y-100828943D01*
X124429673Y-101092192D01*
X124773201Y-101234838D01*
X125145167Y-101235162D01*
X125488943Y-101093117D01*
X125752192Y-100830327D01*
X125894838Y-100486799D01*
X125895162Y-100114833D01*
X125753117Y-99771057D01*
X125490327Y-99507808D01*
X125146799Y-99365162D01*
X124774833Y-99364838D01*
X124431057Y-99506883D01*
X124167808Y-99769673D01*
X124025162Y-100113201D01*
X124024838Y-100485167D01*
X119885000Y-100485167D01*
X119885000Y-99615167D01*
X120284838Y-99615167D01*
X120426883Y-99958943D01*
X120689673Y-100222192D01*
X121033201Y-100364838D01*
X121405167Y-100365162D01*
X121748943Y-100223117D01*
X122012192Y-99960327D01*
X122154838Y-99616799D01*
X122155162Y-99244833D01*
X122013117Y-98901057D01*
X121750327Y-98637808D01*
X121406799Y-98495162D01*
X121034833Y-98494838D01*
X120691057Y-98636883D01*
X120427808Y-98899673D01*
X120285162Y-99243201D01*
X120284838Y-99615167D01*
X119885000Y-99615167D01*
X119885000Y-94575167D01*
X124834838Y-94575167D01*
X124976883Y-94918943D01*
X125239673Y-95182192D01*
X125583201Y-95324838D01*
X125955167Y-95325162D01*
X126240261Y-95207364D01*
X126157808Y-95289673D01*
X126015162Y-95633201D01*
X126014838Y-96005167D01*
X126156883Y-96348943D01*
X126419673Y-96612192D01*
X126763201Y-96754838D01*
X127135167Y-96755162D01*
X127478943Y-96613117D01*
X127742192Y-96350327D01*
X127884838Y-96006799D01*
X127885162Y-95634833D01*
X127743117Y-95291057D01*
X127480327Y-95027808D01*
X127136799Y-94885162D01*
X126764833Y-94884838D01*
X126479739Y-95002636D01*
X126562192Y-94920327D01*
X126704838Y-94576799D01*
X126705162Y-94204833D01*
X126563117Y-93861057D01*
X126300327Y-93597808D01*
X125956799Y-93455162D01*
X125584833Y-93454838D01*
X125241057Y-93596883D01*
X124977808Y-93859673D01*
X124835162Y-94203201D01*
X124834838Y-94575167D01*
X119885000Y-94575167D01*
X119885000Y-86046580D01*
X124968038Y-91129617D01*
X124867808Y-91229673D01*
X124725162Y-91573201D01*
X124724838Y-91945167D01*
X124866883Y-92288943D01*
X125129673Y-92552192D01*
X125473201Y-92694838D01*
X125845167Y-92695162D01*
X126188943Y-92553117D01*
X126290329Y-92451908D01*
X128674208Y-94835787D01*
X128674210Y-94835790D01*
X128961325Y-95027633D01*
X129017516Y-95038810D01*
X129300000Y-95095001D01*
X129300005Y-95095000D01*
X138573420Y-95095000D01*
X141905000Y-98426579D01*
X141905000Y-100849995D01*
X141904999Y-100850000D01*
X141938195Y-101016883D01*
X141972367Y-101188675D01*
X142045170Y-101297633D01*
X142164210Y-101475790D01*
X142437255Y-101748835D01*
X142486883Y-101868943D01*
X142557736Y-101939919D01*
X142457808Y-102039673D01*
X142315162Y-102383201D01*
X142314838Y-102755167D01*
X142456883Y-103098943D01*
X142719673Y-103362192D01*
X143063201Y-103504838D01*
X143315000Y-103505057D01*
X143315000Y-105252891D01*
X143080327Y-105017808D01*
X142736799Y-104875162D01*
X142364833Y-104874838D01*
X142021057Y-105016883D01*
X141757808Y-105279673D01*
X141615162Y-105623201D01*
X141614838Y-105995167D01*
X141756883Y-106338943D01*
X142019673Y-106602192D01*
X142102030Y-106636390D01*
X141794210Y-106944210D01*
X141602367Y-107231325D01*
X141602367Y-107231326D01*
X141534999Y-107570000D01*
X141535000Y-107570005D01*
X141535000Y-108095000D01*
X141356822Y-108095000D01*
X141236799Y-108045162D01*
X140864833Y-108044838D01*
X140521057Y-108186883D01*
X140501161Y-108206745D01*
X140383117Y-107921057D01*
X140120327Y-107657808D01*
X139776799Y-107515162D01*
X139404833Y-107514838D01*
X139061057Y-107656883D01*
X138797808Y-107919673D01*
X138655162Y-108263201D01*
X138654838Y-108635167D01*
X138796883Y-108978943D01*
X139059673Y-109242192D01*
X139403201Y-109384838D01*
X139775167Y-109385162D01*
X140118943Y-109243117D01*
X140138839Y-109223255D01*
X140256883Y-109508943D01*
X140519673Y-109772192D01*
X140863201Y-109914838D01*
X141235167Y-109915162D01*
X141356569Y-109865000D01*
X142029995Y-109865000D01*
X142030000Y-109865001D01*
X142312484Y-109808810D01*
X142368675Y-109797633D01*
X142655790Y-109605790D01*
X143045787Y-109215792D01*
X143045790Y-109215790D01*
X143237633Y-108928675D01*
X143298540Y-108622483D01*
X143593201Y-108744838D01*
X143965167Y-108745162D01*
X144279779Y-108615167D01*
X147774838Y-108615167D01*
X147916883Y-108958943D01*
X148179673Y-109222192D01*
X148523201Y-109364838D01*
X148895167Y-109365162D01*
X149238943Y-109223117D01*
X149502192Y-108960327D01*
X149644838Y-108616799D01*
X149645162Y-108244833D01*
X149503117Y-107901057D01*
X149240327Y-107637808D01*
X148896799Y-107495162D01*
X148524833Y-107494838D01*
X148181057Y-107636883D01*
X147917808Y-107899673D01*
X147775162Y-108243201D01*
X147774838Y-108615167D01*
X144279779Y-108615167D01*
X144308943Y-108603117D01*
X144572192Y-108340327D01*
X144714838Y-107996799D01*
X144715162Y-107624833D01*
X144573117Y-107281057D01*
X144310327Y-107017808D01*
X144249167Y-106992412D01*
X144556412Y-106685167D01*
X148214838Y-106685167D01*
X148356883Y-107028943D01*
X148619673Y-107292192D01*
X148963201Y-107434838D01*
X149335167Y-107435162D01*
X149678943Y-107293117D01*
X149942192Y-107030327D01*
X150084838Y-106686799D01*
X150085162Y-106314833D01*
X149943117Y-105971057D01*
X149680327Y-105707808D01*
X149336799Y-105565162D01*
X148964833Y-105564838D01*
X148621057Y-105706883D01*
X148357808Y-105969673D01*
X148215162Y-106313201D01*
X148214838Y-106685167D01*
X144556412Y-106685167D01*
X144825787Y-106415792D01*
X144825790Y-106415790D01*
X145017633Y-106128675D01*
X145038288Y-106024838D01*
X145085001Y-105790000D01*
X145085000Y-105789995D01*
X145085000Y-103985167D01*
X151334838Y-103985167D01*
X151476883Y-104328943D01*
X151739673Y-104592192D01*
X152083201Y-104734838D01*
X152455167Y-104735162D01*
X152798943Y-104593117D01*
X153062192Y-104330327D01*
X153204838Y-103986799D01*
X153205162Y-103614833D01*
X153063117Y-103271057D01*
X152800327Y-103007808D01*
X152456799Y-102865162D01*
X152084833Y-102864838D01*
X151741057Y-103006883D01*
X151477808Y-103269673D01*
X151335162Y-103613201D01*
X151334838Y-103985167D01*
X145085000Y-103985167D01*
X145085000Y-101995167D01*
X151154838Y-101995167D01*
X151296883Y-102338943D01*
X151559673Y-102602192D01*
X151903201Y-102744838D01*
X152275167Y-102745162D01*
X152618943Y-102603117D01*
X152882192Y-102340327D01*
X153024838Y-101996799D01*
X153025162Y-101624833D01*
X152883117Y-101281057D01*
X152620327Y-101017808D01*
X152276799Y-100875162D01*
X151904833Y-100874838D01*
X151561057Y-101016883D01*
X151297808Y-101279673D01*
X151155162Y-101623201D01*
X151154838Y-101995167D01*
X145085000Y-101995167D01*
X145085000Y-100480005D01*
X145085001Y-100480000D01*
X145017633Y-100141326D01*
X145017633Y-100141325D01*
X144825790Y-99854210D01*
X144825787Y-99854208D01*
X144402744Y-99431165D01*
X144353117Y-99311057D01*
X144090327Y-99047808D01*
X143746799Y-98905162D01*
X143675000Y-98905099D01*
X143675000Y-98060005D01*
X143675001Y-98060000D01*
X143607633Y-97721325D01*
X143415790Y-97434210D01*
X143415787Y-97434208D01*
X141486747Y-95505167D01*
X142684838Y-95505167D01*
X142826883Y-95848943D01*
X143089673Y-96112192D01*
X143433201Y-96254838D01*
X143805167Y-96255162D01*
X144148943Y-96113117D01*
X144412192Y-95850327D01*
X144554838Y-95506799D01*
X144555162Y-95134833D01*
X144413117Y-94791057D01*
X144150327Y-94527808D01*
X143806799Y-94385162D01*
X143434833Y-94384838D01*
X143091057Y-94526883D01*
X142827808Y-94789673D01*
X142685162Y-95133201D01*
X142684838Y-95505167D01*
X141486747Y-95505167D01*
X140476747Y-94495167D01*
X140924838Y-94495167D01*
X141066883Y-94838943D01*
X141329673Y-95102192D01*
X141673201Y-95244838D01*
X142045167Y-95245162D01*
X142388943Y-95103117D01*
X142652192Y-94840327D01*
X142794838Y-94496799D01*
X142795162Y-94124833D01*
X142653117Y-93781057D01*
X142390327Y-93517808D01*
X142046799Y-93375162D01*
X141674833Y-93374838D01*
X141331057Y-93516883D01*
X141067808Y-93779673D01*
X140925162Y-94123201D01*
X140924838Y-94495167D01*
X140476747Y-94495167D01*
X139565790Y-93584210D01*
X139507108Y-93545000D01*
X139278675Y-93392367D01*
X139222484Y-93381190D01*
X138940000Y-93324999D01*
X138939995Y-93325000D01*
X129666579Y-93325000D01*
X128706746Y-92365167D01*
X142554838Y-92365167D01*
X142696883Y-92708943D01*
X142959673Y-92972192D01*
X143303201Y-93114838D01*
X143675167Y-93115162D01*
X144018943Y-92973117D01*
X144282192Y-92710327D01*
X144424838Y-92366799D01*
X144425162Y-91994833D01*
X144283117Y-91651057D01*
X144020327Y-91387808D01*
X143676799Y-91245162D01*
X143304833Y-91244838D01*
X142961057Y-91386883D01*
X142697808Y-91649673D01*
X142555162Y-91993201D01*
X142554838Y-92365167D01*
X128706746Y-92365167D01*
X126661988Y-90320409D01*
X126732192Y-90250327D01*
X126800772Y-90085167D01*
X127294838Y-90085167D01*
X127436883Y-90428943D01*
X127699673Y-90692192D01*
X128043201Y-90834838D01*
X128415167Y-90835162D01*
X128758943Y-90693117D01*
X129022192Y-90430327D01*
X129132296Y-90165167D01*
X129974838Y-90165167D01*
X130116883Y-90508943D01*
X130379673Y-90772192D01*
X130723201Y-90914838D01*
X131095167Y-90915162D01*
X131438943Y-90773117D01*
X131569928Y-90642360D01*
X131619673Y-90692192D01*
X131963201Y-90834838D01*
X132335167Y-90835162D01*
X132577173Y-90735167D01*
X138424838Y-90735167D01*
X138566883Y-91078943D01*
X138829673Y-91342192D01*
X139173201Y-91484838D01*
X139545167Y-91485162D01*
X139888943Y-91343117D01*
X140152192Y-91080327D01*
X140294838Y-90736799D01*
X140295162Y-90364833D01*
X140153117Y-90021057D01*
X139890327Y-89757808D01*
X139546799Y-89615162D01*
X139174833Y-89614838D01*
X138831057Y-89756883D01*
X138567808Y-90019673D01*
X138425162Y-90363201D01*
X138424838Y-90735167D01*
X132577173Y-90735167D01*
X132678943Y-90693117D01*
X132942192Y-90430327D01*
X133084838Y-90086799D01*
X133085162Y-89714833D01*
X133034891Y-89593167D01*
X141812838Y-89593167D01*
X141954883Y-89936943D01*
X142217673Y-90200192D01*
X142561201Y-90342838D01*
X142933167Y-90343162D01*
X143276943Y-90201117D01*
X143540192Y-89938327D01*
X143682838Y-89594799D01*
X143683162Y-89222833D01*
X143541117Y-88879057D01*
X143278327Y-88615808D01*
X142934799Y-88473162D01*
X142562833Y-88472838D01*
X142219057Y-88614883D01*
X141955808Y-88877673D01*
X141813162Y-89221201D01*
X141812838Y-89593167D01*
X133034891Y-89593167D01*
X132943117Y-89371057D01*
X132680327Y-89107808D01*
X132336799Y-88965162D01*
X131964833Y-88964838D01*
X131621057Y-89106883D01*
X131490072Y-89237640D01*
X131440327Y-89187808D01*
X131096799Y-89045162D01*
X130724833Y-89044838D01*
X130381057Y-89186883D01*
X130117808Y-89449673D01*
X129975162Y-89793201D01*
X129974838Y-90165167D01*
X129132296Y-90165167D01*
X129164838Y-90086799D01*
X129165162Y-89714833D01*
X129023117Y-89371057D01*
X128760327Y-89107808D01*
X128416799Y-88965162D01*
X128044833Y-88964838D01*
X127701057Y-89106883D01*
X127437808Y-89369673D01*
X127295162Y-89713201D01*
X127294838Y-90085167D01*
X126800772Y-90085167D01*
X126874838Y-89906799D01*
X126875162Y-89534833D01*
X126733117Y-89191057D01*
X126470327Y-88927808D01*
X126126799Y-88785162D01*
X125754833Y-88784838D01*
X125411057Y-88926883D01*
X125339697Y-88998118D01*
X122996747Y-86655167D01*
X129734838Y-86655167D01*
X129876883Y-86998943D01*
X130139673Y-87262192D01*
X130483201Y-87404838D01*
X130855167Y-87405162D01*
X131198943Y-87263117D01*
X131462192Y-87000327D01*
X131604838Y-86656799D01*
X131605004Y-86465167D01*
X132614838Y-86465167D01*
X132756883Y-86808943D01*
X133019673Y-87072192D01*
X133363201Y-87214838D01*
X133735167Y-87215162D01*
X134078943Y-87073117D01*
X134342192Y-86810327D01*
X134460601Y-86525167D01*
X137274838Y-86525167D01*
X137416883Y-86868943D01*
X137679673Y-87132192D01*
X138023201Y-87274838D01*
X138395167Y-87275162D01*
X138738943Y-87133117D01*
X139002192Y-86870327D01*
X139144838Y-86526799D01*
X139145162Y-86154833D01*
X139003117Y-85811057D01*
X138740327Y-85547808D01*
X138396799Y-85405162D01*
X138024833Y-85404838D01*
X137681057Y-85546883D01*
X137417808Y-85809673D01*
X137275162Y-86153201D01*
X137274838Y-86525167D01*
X134460601Y-86525167D01*
X134484838Y-86466799D01*
X134485162Y-86094833D01*
X134343117Y-85751057D01*
X134080327Y-85487808D01*
X133736799Y-85345162D01*
X133364833Y-85344838D01*
X133021057Y-85486883D01*
X132757808Y-85749673D01*
X132615162Y-86093201D01*
X132614838Y-86465167D01*
X131605004Y-86465167D01*
X131605162Y-86284833D01*
X131463117Y-85941057D01*
X131200327Y-85677808D01*
X130856799Y-85535162D01*
X130484833Y-85534838D01*
X130141057Y-85676883D01*
X129877808Y-85939673D01*
X129735162Y-86283201D01*
X129734838Y-86655167D01*
X122996747Y-86655167D01*
X114495000Y-78153420D01*
X114495000Y-76860478D01*
X114793629Y-76562370D01*
X114879949Y-76354488D01*
X114964990Y-76560303D01*
X115357630Y-76953629D01*
X115870900Y-77166757D01*
X116426661Y-77167242D01*
X116500030Y-77136927D01*
X116502367Y-77148674D01*
X116694210Y-77435790D01*
X117789566Y-78531146D01*
X117461057Y-78666883D01*
X117197808Y-78929673D01*
X117055162Y-79273201D01*
X117054838Y-79645167D01*
X117196883Y-79988943D01*
X117459673Y-80252192D01*
X117803201Y-80394838D01*
X118175167Y-80395162D01*
X118518943Y-80253117D01*
X118782192Y-79990327D01*
X118919082Y-79660661D01*
X120514208Y-81255787D01*
X120514210Y-81255790D01*
X120801325Y-81447633D01*
X120857516Y-81458810D01*
X121140000Y-81515001D01*
X121140005Y-81515000D01*
X135475767Y-81515000D01*
X135385162Y-81733201D01*
X135384838Y-82105167D01*
X135526883Y-82448943D01*
X135722460Y-82644862D01*
X135694833Y-82644838D01*
X135351057Y-82786883D01*
X135087808Y-83049673D01*
X134945162Y-83393201D01*
X134944838Y-83765167D01*
X135086883Y-84108943D01*
X135349673Y-84372192D01*
X135693201Y-84514838D01*
X136065167Y-84515162D01*
X136408943Y-84373117D01*
X136672192Y-84110327D01*
X136814838Y-83766799D01*
X136815162Y-83394833D01*
X136673117Y-83051057D01*
X136477540Y-82855138D01*
X136505167Y-82855162D01*
X136848943Y-82713117D01*
X137112192Y-82450327D01*
X137254838Y-82106799D01*
X137255162Y-81734833D01*
X137164329Y-81515000D01*
X139863420Y-81515000D01*
X141625000Y-83276579D01*
X141625000Y-84430000D01*
X141649103Y-84551172D01*
X141659385Y-84674293D01*
X141682519Y-84719164D01*
X141692367Y-84768675D01*
X141739146Y-84838686D01*
X141537808Y-85039673D01*
X141395162Y-85383201D01*
X141394838Y-85755167D01*
X141536883Y-86098943D01*
X141799673Y-86362192D01*
X142143201Y-86504838D01*
X142515167Y-86505162D01*
X142858943Y-86363117D01*
X142920007Y-86302159D01*
X143143201Y-86394838D01*
X143515167Y-86395162D01*
X143858943Y-86253117D01*
X144122192Y-85990327D01*
X144264838Y-85646799D01*
X144265162Y-85274833D01*
X144123117Y-84931057D01*
X143860327Y-84667808D01*
X143815819Y-84649327D01*
X143395000Y-84120737D01*
X143395000Y-82910005D01*
X143395001Y-82910000D01*
X143327633Y-82571326D01*
X143327633Y-82571325D01*
X143135790Y-82284210D01*
X143135787Y-82284208D01*
X140855790Y-80004210D01*
X140568675Y-79812367D01*
X140512484Y-79801190D01*
X140230000Y-79744999D01*
X140229995Y-79745000D01*
X121506579Y-79745000D01*
X118928789Y-77167209D01*
X118966661Y-77167242D01*
X119480303Y-76955010D01*
X119873629Y-76562370D01*
X119959949Y-76354488D01*
X120044990Y-76560303D01*
X120437630Y-76953629D01*
X120950900Y-77166757D01*
X121506661Y-77167242D01*
X122020303Y-76955010D01*
X122413629Y-76562370D01*
X122499949Y-76354488D01*
X122584990Y-76560303D01*
X122977630Y-76953629D01*
X123490900Y-77166757D01*
X124046661Y-77167242D01*
X124560303Y-76955010D01*
X124953629Y-76562370D01*
X125039949Y-76354488D01*
X125124990Y-76560303D01*
X125517630Y-76953629D01*
X126030900Y-77166757D01*
X126586661Y-77167242D01*
X127100303Y-76955010D01*
X127305457Y-76750213D01*
X128049392Y-76750213D01*
X128118857Y-76992397D01*
X128642302Y-77179144D01*
X129197368Y-77151362D01*
X129581143Y-76992397D01*
X129650608Y-76750213D01*
X128850000Y-75949605D01*
X128049392Y-76750213D01*
X127305457Y-76750213D01*
X127493629Y-76562370D01*
X127573395Y-76370273D01*
X127627603Y-76501143D01*
X127869787Y-76570608D01*
X128670395Y-75770000D01*
X127869787Y-74969392D01*
X127627603Y-75038857D01*
X127577491Y-75179318D01*
X127495010Y-74979697D01*
X127102370Y-74586371D01*
X126894488Y-74500051D01*
X127100303Y-74415010D01*
X127493629Y-74022370D01*
X127579949Y-73814488D01*
X127664990Y-74020303D01*
X128057630Y-74413629D01*
X128249727Y-74493395D01*
X128118857Y-74547603D01*
X128049392Y-74789787D01*
X128850000Y-75590395D01*
X129650608Y-74789787D01*
X129581143Y-74547603D01*
X129440682Y-74497491D01*
X129640303Y-74415010D01*
X130033629Y-74022370D01*
X130119949Y-73814488D01*
X130204990Y-74020303D01*
X130597630Y-74413629D01*
X130805512Y-74499949D01*
X130599697Y-74584990D01*
X130206371Y-74977630D01*
X130126605Y-75169727D01*
X130072397Y-75038857D01*
X129830213Y-74969392D01*
X129029605Y-75770000D01*
X129830213Y-76570608D01*
X130072397Y-76501143D01*
X130122509Y-76360682D01*
X130204990Y-76560303D01*
X130597630Y-76953629D01*
X131110900Y-77166757D01*
X131666661Y-77167242D01*
X132180303Y-76955010D01*
X132573629Y-76562370D01*
X132659949Y-76354488D01*
X132744990Y-76560303D01*
X133137630Y-76953629D01*
X133650900Y-77166757D01*
X134206661Y-77167242D01*
X134720303Y-76955010D01*
X135113629Y-76562370D01*
X135199949Y-76354488D01*
X135284990Y-76560303D01*
X135677630Y-76953629D01*
X136190900Y-77166757D01*
X136746661Y-77167242D01*
X137260303Y-76955010D01*
X137653629Y-76562370D01*
X137739949Y-76354488D01*
X137824990Y-76560303D01*
X138217630Y-76953629D01*
X138730900Y-77166757D01*
X139286661Y-77167242D01*
X139800303Y-76955010D01*
X140193629Y-76562370D01*
X140279949Y-76354488D01*
X140364990Y-76560303D01*
X140757630Y-76953629D01*
X141270900Y-77166757D01*
X141826661Y-77167242D01*
X142340303Y-76955010D01*
X142733629Y-76562370D01*
X142819949Y-76354488D01*
X142904990Y-76560303D01*
X143297630Y-76953629D01*
X143810900Y-77166757D01*
X144366661Y-77167242D01*
X144880303Y-76955010D01*
X145273629Y-76562370D01*
X145353395Y-76370273D01*
X145407603Y-76501143D01*
X145649787Y-76570608D01*
X146450395Y-75770000D01*
X145649787Y-74969392D01*
X145407603Y-75038857D01*
X145357491Y-75179318D01*
X145275010Y-74979697D01*
X144882370Y-74586371D01*
X144674488Y-74500051D01*
X144880303Y-74415010D01*
X145273629Y-74022370D01*
X145359949Y-73814488D01*
X145444990Y-74020303D01*
X145837630Y-74413629D01*
X146029727Y-74493395D01*
X145898857Y-74547603D01*
X145829392Y-74789787D01*
X146630000Y-75590395D01*
X146644143Y-75576253D01*
X146823748Y-75755858D01*
X146809605Y-75770000D01*
X146823748Y-75784143D01*
X146644143Y-75963748D01*
X146630000Y-75949605D01*
X145829392Y-76750213D01*
X145898857Y-76992397D01*
X146422302Y-77179144D01*
X146977368Y-77151362D01*
X147325000Y-77007368D01*
X147325000Y-81989995D01*
X147324999Y-81990000D01*
X147381190Y-82272484D01*
X147392367Y-82328675D01*
X147409429Y-82354210D01*
X147584210Y-82615790D01*
X148315000Y-83346579D01*
X148315000Y-87613310D01*
X148126799Y-87535162D01*
X147754833Y-87534838D01*
X147411057Y-87676883D01*
X147147808Y-87939673D01*
X147005162Y-88283201D01*
X147004838Y-88655167D01*
X147146883Y-88998943D01*
X147409673Y-89262192D01*
X147753201Y-89404838D01*
X148125167Y-89405162D01*
X148315000Y-89326725D01*
X148315000Y-90908396D01*
X148186799Y-90855162D01*
X148151570Y-90855131D01*
X148063117Y-90641057D01*
X147800327Y-90377808D01*
X147456799Y-90235162D01*
X147084833Y-90234838D01*
X146741057Y-90376883D01*
X146477808Y-90639673D01*
X146335162Y-90983201D01*
X146334838Y-91355167D01*
X146476883Y-91698943D01*
X146739673Y-91962192D01*
X147083201Y-92104838D01*
X147118430Y-92104869D01*
X147128424Y-92129058D01*
X147127808Y-92129673D01*
X146985162Y-92473201D01*
X146984838Y-92845167D01*
X147126883Y-93188943D01*
X147389673Y-93452192D01*
X147733201Y-93594838D01*
X148105167Y-93595162D01*
X148226569Y-93545000D01*
X148779995Y-93545000D01*
X148780000Y-93545001D01*
X149062484Y-93488810D01*
X149118675Y-93477633D01*
X149405790Y-93285790D01*
X149825787Y-92865792D01*
X149825790Y-92865790D01*
X150017633Y-92578675D01*
X150051438Y-92408728D01*
X150085001Y-92240000D01*
X150085000Y-92239995D01*
X150085000Y-82980000D01*
X150017633Y-82641325D01*
X149825790Y-82354210D01*
X149825787Y-82354208D01*
X149095000Y-81623420D01*
X149095000Y-72730000D01*
X149027633Y-72391325D01*
X148835790Y-72104210D01*
X148835787Y-72104208D01*
X148416580Y-71685000D01*
X153932534Y-71685000D01*
X154115409Y-71721376D01*
X154213250Y-71786751D01*
X154278624Y-71884590D01*
X154315000Y-72067466D01*
X154315000Y-76641063D01*
X154011799Y-76515162D01*
X153639833Y-76514838D01*
X153296057Y-76656883D01*
X153032808Y-76919673D01*
X152890162Y-77263201D01*
X152889838Y-77635167D01*
X153031883Y-77978943D01*
X153294673Y-78242192D01*
X153638201Y-78384838D01*
X154010167Y-78385162D01*
X154315000Y-78259208D01*
X154315000Y-108028396D01*
X154186799Y-107975162D01*
X153814833Y-107974838D01*
X153471057Y-108116883D01*
X153207808Y-108379673D01*
X153065162Y-108723201D01*
X153064838Y-109095167D01*
X153206883Y-109438943D01*
X153469673Y-109702192D01*
X153813201Y-109844838D01*
X154185167Y-109845162D01*
X154315000Y-109791516D01*
X154315000Y-125932534D01*
X154278624Y-126115410D01*
X154213250Y-126213249D01*
X154115409Y-126278624D01*
X153932534Y-126315000D01*
X144360558Y-126315000D01*
X144613629Y-126062370D01*
X144826757Y-125549100D01*
X144827242Y-124993339D01*
X144615010Y-124479697D01*
X144222370Y-124086371D01*
X144014488Y-124000051D01*
X144220303Y-123915010D01*
X144613629Y-123522370D01*
X144826757Y-123009100D01*
X144827242Y-122453339D01*
X144615010Y-121939697D01*
X144222370Y-121546371D01*
X143709100Y-121333243D01*
X143153339Y-121332758D01*
X142639697Y-121544990D01*
X142246371Y-121937630D01*
X142160051Y-122145512D01*
X142075010Y-121939697D01*
X141682370Y-121546371D01*
X141169100Y-121333243D01*
X140613339Y-121332758D01*
X140099697Y-121544990D01*
X139706371Y-121937630D01*
X139620051Y-122145512D01*
X139535010Y-121939697D01*
X139142370Y-121546371D01*
X138629100Y-121333243D01*
X138073339Y-121332758D01*
X137559697Y-121544990D01*
X137166371Y-121937630D01*
X137080051Y-122145512D01*
X136995010Y-121939697D01*
X136602370Y-121546371D01*
X136089100Y-121333243D01*
X135533339Y-121332758D01*
X135019697Y-121544990D01*
X134626371Y-121937630D01*
X134540051Y-122145512D01*
X134455010Y-121939697D01*
X134062370Y-121546371D01*
X133549100Y-121333243D01*
X132993339Y-121332758D01*
X132479697Y-121544990D01*
X132086371Y-121937630D01*
X132000051Y-122145512D01*
X131915010Y-121939697D01*
X131522370Y-121546371D01*
X131009100Y-121333243D01*
X130453339Y-121332758D01*
X129939697Y-121544990D01*
X129546371Y-121937630D01*
X129460051Y-122145512D01*
X129375010Y-121939697D01*
X128982370Y-121546371D01*
X128469100Y-121333243D01*
X127913339Y-121332758D01*
X127399697Y-121544990D01*
X127006371Y-121937630D01*
X126920051Y-122145512D01*
X126835010Y-121939697D01*
X126442370Y-121546371D01*
X125929100Y-121333243D01*
X125373339Y-121332758D01*
X124859697Y-121544990D01*
X124466371Y-121937630D01*
X124380051Y-122145512D01*
X124295010Y-121939697D01*
X123902370Y-121546371D01*
X123389100Y-121333243D01*
X122833339Y-121332758D01*
X122319697Y-121544990D01*
X121926371Y-121937630D01*
X121846605Y-122129727D01*
X121792397Y-121998857D01*
X121550213Y-121929392D01*
X120749605Y-122730000D01*
X121550213Y-123530608D01*
X121792397Y-123461143D01*
X121842509Y-123320682D01*
X121924990Y-123520303D01*
X122317630Y-123913629D01*
X122525512Y-123999949D01*
X122319697Y-124084990D01*
X121926371Y-124477630D01*
X121846605Y-124669727D01*
X121792397Y-124538857D01*
X121550213Y-124469392D01*
X120749605Y-125270000D01*
X121550213Y-126070608D01*
X121792397Y-126001143D01*
X121842509Y-125860682D01*
X121924990Y-126060303D01*
X122179243Y-126315000D01*
X121352025Y-126315000D01*
X121370608Y-126250213D01*
X120570000Y-125449605D01*
X119769392Y-126250213D01*
X119787975Y-126315000D01*
X91067466Y-126315000D01*
X90884590Y-126278624D01*
X90786751Y-126213250D01*
X90721376Y-126115409D01*
X90685000Y-125932534D01*
X90685000Y-124545167D01*
X114544838Y-124545167D01*
X114686883Y-124888943D01*
X114949673Y-125152192D01*
X115293201Y-125294838D01*
X115665167Y-125295162D01*
X116008943Y-125153117D01*
X116099916Y-125062302D01*
X119160856Y-125062302D01*
X119188638Y-125617368D01*
X119347603Y-126001143D01*
X119589787Y-126070608D01*
X120390395Y-125270000D01*
X119589787Y-124469392D01*
X119347603Y-124538857D01*
X119160856Y-125062302D01*
X116099916Y-125062302D01*
X116272192Y-124890327D01*
X116414838Y-124546799D01*
X116415162Y-124174833D01*
X116273117Y-123831057D01*
X116152484Y-123710213D01*
X119769392Y-123710213D01*
X119838857Y-123952397D01*
X119962344Y-123996453D01*
X119838857Y-124047603D01*
X119769392Y-124289787D01*
X120570000Y-125090395D01*
X121370608Y-124289787D01*
X121301143Y-124047603D01*
X121177656Y-124003547D01*
X121301143Y-123952397D01*
X121370608Y-123710213D01*
X120570000Y-122909605D01*
X119769392Y-123710213D01*
X116152484Y-123710213D01*
X116010327Y-123567808D01*
X115666799Y-123425162D01*
X115294833Y-123424838D01*
X114951057Y-123566883D01*
X114687808Y-123829673D01*
X114545162Y-124173201D01*
X114544838Y-124545167D01*
X90685000Y-124545167D01*
X90685000Y-122522302D01*
X119160856Y-122522302D01*
X119188638Y-123077368D01*
X119347603Y-123461143D01*
X119589787Y-123530608D01*
X120390395Y-122730000D01*
X119589787Y-121929392D01*
X119347603Y-121998857D01*
X119160856Y-122522302D01*
X90685000Y-122522302D01*
X90685000Y-121749787D01*
X119769392Y-121749787D01*
X120570000Y-122550395D01*
X121370608Y-121749787D01*
X121301143Y-121507603D01*
X120777698Y-121320856D01*
X120222632Y-121348638D01*
X119838857Y-121507603D01*
X119769392Y-121749787D01*
X90685000Y-121749787D01*
X90685000Y-119749426D01*
X90775486Y-119945044D01*
X91505989Y-120227246D01*
X92288880Y-120208415D01*
X92924714Y-119945044D01*
X93064165Y-119643570D01*
X95735835Y-119643570D01*
X95875286Y-119945044D01*
X96605789Y-120227246D01*
X97388680Y-120208415D01*
X98024514Y-119945044D01*
X98163965Y-119643570D01*
X96949900Y-118429505D01*
X95735835Y-119643570D01*
X93064165Y-119643570D01*
X91850100Y-118429505D01*
X91835958Y-118443648D01*
X91656353Y-118264043D01*
X91670495Y-118249900D01*
X92029705Y-118249900D01*
X93243770Y-119463965D01*
X93545244Y-119324514D01*
X93827446Y-118594011D01*
X93810893Y-117905789D01*
X94972554Y-117905789D01*
X94991385Y-118688680D01*
X95254756Y-119324514D01*
X95556230Y-119463965D01*
X96770295Y-118249900D01*
X97129505Y-118249900D01*
X98343570Y-119463965D01*
X98645044Y-119324514D01*
X98927246Y-118594011D01*
X98908415Y-117811120D01*
X98908021Y-117810167D01*
X129289838Y-117810167D01*
X129431883Y-118153943D01*
X129694673Y-118417192D01*
X130038201Y-118559838D01*
X130410167Y-118560162D01*
X130753943Y-118418117D01*
X131017192Y-118155327D01*
X131159838Y-117811799D01*
X131160162Y-117439833D01*
X131018117Y-117096057D01*
X130755327Y-116832808D01*
X130411799Y-116690162D01*
X130039833Y-116689838D01*
X129696057Y-116831883D01*
X129432808Y-117094673D01*
X129290162Y-117438201D01*
X129289838Y-117810167D01*
X98908021Y-117810167D01*
X98645044Y-117175286D01*
X98343570Y-117035835D01*
X97129505Y-118249900D01*
X96770295Y-118249900D01*
X95556230Y-117035835D01*
X95254756Y-117175286D01*
X94972554Y-117905789D01*
X93810893Y-117905789D01*
X93808615Y-117811120D01*
X93545244Y-117175286D01*
X93243770Y-117035835D01*
X92029705Y-118249900D01*
X91670495Y-118249900D01*
X91656353Y-118235758D01*
X91835958Y-118056153D01*
X91850100Y-118070295D01*
X93064165Y-116856230D01*
X92924714Y-116554756D01*
X92194211Y-116272554D01*
X91411320Y-116291385D01*
X90775486Y-116554756D01*
X90685000Y-116750374D01*
X90685000Y-116014388D01*
X92812225Y-116014388D01*
X93053398Y-116598072D01*
X93499579Y-117045032D01*
X94082841Y-117287224D01*
X94714388Y-117287775D01*
X95298072Y-117046602D01*
X95488776Y-116856230D01*
X95735835Y-116856230D01*
X96949900Y-118070295D01*
X98163965Y-116856230D01*
X98024514Y-116554756D01*
X97294011Y-116272554D01*
X96511120Y-116291385D01*
X95875286Y-116554756D01*
X95735835Y-116856230D01*
X95488776Y-116856230D01*
X95745032Y-116600421D01*
X95987224Y-116017159D01*
X95987452Y-115755167D01*
X119354838Y-115755167D01*
X119496883Y-116098943D01*
X119759673Y-116362192D01*
X120103201Y-116504838D01*
X120475167Y-116505162D01*
X120818943Y-116363117D01*
X121082192Y-116100327D01*
X121224838Y-115756799D01*
X121225162Y-115384833D01*
X121083117Y-115041057D01*
X120820327Y-114777808D01*
X120476799Y-114635162D01*
X120104833Y-114634838D01*
X119761057Y-114776883D01*
X119497808Y-115039673D01*
X119355162Y-115383201D01*
X119354838Y-115755167D01*
X95987452Y-115755167D01*
X95987775Y-115385612D01*
X95746602Y-114801928D01*
X95488894Y-114543770D01*
X95735835Y-114543770D01*
X95875286Y-114845244D01*
X96605789Y-115127446D01*
X97388680Y-115108615D01*
X98024514Y-114845244D01*
X98163965Y-114543770D01*
X96949900Y-113329705D01*
X95735835Y-114543770D01*
X95488894Y-114543770D01*
X95300421Y-114354968D01*
X94717159Y-114112776D01*
X94085612Y-114112225D01*
X93501928Y-114353398D01*
X93054968Y-114799579D01*
X92812776Y-115382841D01*
X92812225Y-116014388D01*
X90685000Y-116014388D01*
X90685000Y-114649626D01*
X90775486Y-114845244D01*
X91505989Y-115127446D01*
X92288880Y-115108615D01*
X92924714Y-114845244D01*
X93064165Y-114543770D01*
X91850100Y-113329705D01*
X91835958Y-113343848D01*
X91656353Y-113164243D01*
X91670495Y-113150100D01*
X92029705Y-113150100D01*
X93243770Y-114364165D01*
X93545244Y-114224714D01*
X93827446Y-113494211D01*
X93810893Y-112805989D01*
X94972554Y-112805989D01*
X94991385Y-113588880D01*
X95254756Y-114224714D01*
X95556230Y-114364165D01*
X96770295Y-113150100D01*
X97129505Y-113150100D01*
X98343570Y-114364165D01*
X98492734Y-114295167D01*
X106014838Y-114295167D01*
X106156883Y-114638943D01*
X106419673Y-114902192D01*
X106763201Y-115044838D01*
X107135167Y-115045162D01*
X107478943Y-114903117D01*
X107742192Y-114640327D01*
X107884838Y-114296799D01*
X107885162Y-113924833D01*
X107743117Y-113581057D01*
X107480327Y-113317808D01*
X107136799Y-113175162D01*
X106764833Y-113174838D01*
X106421057Y-113316883D01*
X106157808Y-113579673D01*
X106015162Y-113923201D01*
X106014838Y-114295167D01*
X98492734Y-114295167D01*
X98645044Y-114224714D01*
X98927246Y-113494211D01*
X98908415Y-112711320D01*
X98645044Y-112075486D01*
X98343570Y-111936035D01*
X97129505Y-113150100D01*
X96770295Y-113150100D01*
X95556230Y-111936035D01*
X95254756Y-112075486D01*
X94972554Y-112805989D01*
X93810893Y-112805989D01*
X93808615Y-112711320D01*
X93545244Y-112075486D01*
X93243770Y-111936035D01*
X92029705Y-113150100D01*
X91670495Y-113150100D01*
X91656353Y-113135958D01*
X91835958Y-112956353D01*
X91850100Y-112970495D01*
X93064165Y-111756430D01*
X95735835Y-111756430D01*
X96949900Y-112970495D01*
X98163965Y-111756430D01*
X98024514Y-111454956D01*
X97294011Y-111172754D01*
X96511120Y-111191585D01*
X95875286Y-111454956D01*
X95735835Y-111756430D01*
X93064165Y-111756430D01*
X92924714Y-111454956D01*
X92194211Y-111172754D01*
X91411320Y-111191585D01*
X90775486Y-111454956D01*
X90685000Y-111650574D01*
X90685000Y-106975167D01*
X99544838Y-106975167D01*
X99686883Y-107318943D01*
X99949673Y-107582192D01*
X100293201Y-107724838D01*
X100665167Y-107725162D01*
X100979779Y-107595167D01*
X104854838Y-107595167D01*
X104996883Y-107938943D01*
X105259673Y-108202192D01*
X105603201Y-108344838D01*
X105975167Y-108345162D01*
X106318943Y-108203117D01*
X106582192Y-107940327D01*
X106724838Y-107596799D01*
X106725162Y-107224833D01*
X106583117Y-106881057D01*
X106320327Y-106617808D01*
X105976799Y-106475162D01*
X105604833Y-106474838D01*
X105261057Y-106616883D01*
X104997808Y-106879673D01*
X104855162Y-107223201D01*
X104854838Y-107595167D01*
X100979779Y-107595167D01*
X101008943Y-107583117D01*
X101272192Y-107320327D01*
X101414838Y-106976799D01*
X101415162Y-106604833D01*
X101273117Y-106261057D01*
X101010327Y-105997808D01*
X100666799Y-105855162D01*
X100294833Y-105854838D01*
X99951057Y-105996883D01*
X99687808Y-106259673D01*
X99545162Y-106603201D01*
X99544838Y-106975167D01*
X90685000Y-106975167D01*
X90685000Y-105275167D01*
X116034838Y-105275167D01*
X116176883Y-105618943D01*
X116439673Y-105882192D01*
X116783201Y-106024838D01*
X117155167Y-106025162D01*
X117498943Y-105883117D01*
X117762192Y-105620327D01*
X117904838Y-105276799D01*
X117905162Y-104904833D01*
X117763117Y-104561057D01*
X117500327Y-104297808D01*
X117156799Y-104155162D01*
X116784833Y-104154838D01*
X116441057Y-104296883D01*
X116177808Y-104559673D01*
X116035162Y-104903201D01*
X116034838Y-105275167D01*
X90685000Y-105275167D01*
X90685000Y-102845167D01*
X97714838Y-102845167D01*
X97856883Y-103188943D01*
X98119673Y-103452192D01*
X98463201Y-103594838D01*
X98835167Y-103595162D01*
X99178943Y-103453117D01*
X99442192Y-103190327D01*
X99584838Y-102846799D01*
X99585162Y-102474833D01*
X99443117Y-102131057D01*
X99180327Y-101867808D01*
X98836799Y-101725162D01*
X98464833Y-101724838D01*
X98121057Y-101866883D01*
X97857808Y-102129673D01*
X97715162Y-102473201D01*
X97714838Y-102845167D01*
X90685000Y-102845167D01*
X90685000Y-101460167D01*
X91939838Y-101460167D01*
X92081883Y-101803943D01*
X92344673Y-102067192D01*
X92688201Y-102209838D01*
X93060167Y-102210162D01*
X93403943Y-102068117D01*
X93667192Y-101805327D01*
X93809838Y-101461799D01*
X93810162Y-101089833D01*
X93668117Y-100746057D01*
X93405327Y-100482808D01*
X93061799Y-100340162D01*
X92689833Y-100339838D01*
X92346057Y-100481883D01*
X92082808Y-100744673D01*
X91940162Y-101088201D01*
X91939838Y-101460167D01*
X90685000Y-101460167D01*
X90685000Y-99425167D01*
X103884838Y-99425167D01*
X104026883Y-99768943D01*
X104289673Y-100032192D01*
X104633201Y-100174838D01*
X105005167Y-100175162D01*
X105348943Y-100033117D01*
X105612192Y-99770327D01*
X105754838Y-99426799D01*
X105755162Y-99054833D01*
X105613117Y-98711057D01*
X105350327Y-98447808D01*
X105006799Y-98305162D01*
X104634833Y-98304838D01*
X104291057Y-98446883D01*
X104027808Y-98709673D01*
X103885162Y-99053201D01*
X103884838Y-99425167D01*
X90685000Y-99425167D01*
X90685000Y-96425167D01*
X103814838Y-96425167D01*
X103956883Y-96768943D01*
X104219673Y-97032192D01*
X104563201Y-97174838D01*
X104935167Y-97175162D01*
X105278943Y-97033117D01*
X105542192Y-96770327D01*
X105684838Y-96426799D01*
X105685162Y-96054833D01*
X105543117Y-95711057D01*
X105280327Y-95447808D01*
X104936799Y-95305162D01*
X104564833Y-95304838D01*
X104221057Y-95446883D01*
X103957808Y-95709673D01*
X103815162Y-96053201D01*
X103814838Y-96425167D01*
X90685000Y-96425167D01*
X90685000Y-94405167D01*
X116024838Y-94405167D01*
X116166883Y-94748943D01*
X116429673Y-95012192D01*
X116773201Y-95154838D01*
X117145167Y-95155162D01*
X117488943Y-95013117D01*
X117752192Y-94750327D01*
X117894838Y-94406799D01*
X117895162Y-94034833D01*
X117753117Y-93691057D01*
X117490327Y-93427808D01*
X117146799Y-93285162D01*
X116774833Y-93284838D01*
X116431057Y-93426883D01*
X116167808Y-93689673D01*
X116025162Y-94033201D01*
X116024838Y-94405167D01*
X90685000Y-94405167D01*
X90685000Y-92510167D01*
X109564838Y-92510167D01*
X109706883Y-92853943D01*
X109969673Y-93117192D01*
X110313201Y-93259838D01*
X110685167Y-93260162D01*
X111028943Y-93118117D01*
X111292192Y-92855327D01*
X111434838Y-92511799D01*
X111435162Y-92139833D01*
X111293117Y-91796057D01*
X111030327Y-91532808D01*
X110686799Y-91390162D01*
X110314833Y-91389838D01*
X109971057Y-91531883D01*
X109707808Y-91794673D01*
X109565162Y-92138201D01*
X109564838Y-92510167D01*
X90685000Y-92510167D01*
X90685000Y-87494608D01*
X90736036Y-87443572D01*
X90875486Y-87745044D01*
X91605989Y-88027246D01*
X92388880Y-88008415D01*
X93024714Y-87745044D01*
X93164165Y-87443570D01*
X95835835Y-87443570D01*
X95975286Y-87745044D01*
X96705789Y-88027246D01*
X97488680Y-88008415D01*
X98124514Y-87745044D01*
X98263965Y-87443570D01*
X97049900Y-86229505D01*
X95835835Y-87443570D01*
X93164165Y-87443570D01*
X91950100Y-86229505D01*
X91935958Y-86243648D01*
X91756353Y-86064043D01*
X91770495Y-86049900D01*
X92129705Y-86049900D01*
X93343770Y-87263965D01*
X93645244Y-87124514D01*
X93927446Y-86394011D01*
X93910893Y-85705789D01*
X95072554Y-85705789D01*
X95091385Y-86488680D01*
X95354756Y-87124514D01*
X95656230Y-87263965D01*
X96870295Y-86049900D01*
X97229505Y-86049900D01*
X98443570Y-87263965D01*
X98745044Y-87124514D01*
X99027246Y-86394011D01*
X99008415Y-85611120D01*
X98745044Y-84975286D01*
X98443570Y-84835835D01*
X97229505Y-86049900D01*
X96870295Y-86049900D01*
X95656230Y-84835835D01*
X95354756Y-84975286D01*
X95072554Y-85705789D01*
X93910893Y-85705789D01*
X93908615Y-85611120D01*
X93645244Y-84975286D01*
X93343770Y-84835835D01*
X92129705Y-86049900D01*
X91770495Y-86049900D01*
X91756353Y-86035758D01*
X91935958Y-85856153D01*
X91950100Y-85870295D01*
X93164165Y-84656230D01*
X93024714Y-84354756D01*
X92294211Y-84072554D01*
X91511320Y-84091385D01*
X90875486Y-84354756D01*
X90736036Y-84656228D01*
X90685000Y-84605192D01*
X90685000Y-83814388D01*
X92912225Y-83814388D01*
X93153398Y-84398072D01*
X93599579Y-84845032D01*
X94182841Y-85087224D01*
X94814388Y-85087775D01*
X95398072Y-84846602D01*
X95588776Y-84656230D01*
X95835835Y-84656230D01*
X97049900Y-85870295D01*
X98263965Y-84656230D01*
X98124514Y-84354756D01*
X97394011Y-84072554D01*
X96611120Y-84091385D01*
X95975286Y-84354756D01*
X95835835Y-84656230D01*
X95588776Y-84656230D01*
X95845032Y-84400421D01*
X96087224Y-83817159D01*
X96087775Y-83185612D01*
X95846602Y-82601928D01*
X95588894Y-82343770D01*
X95835835Y-82343770D01*
X95975286Y-82645244D01*
X96705789Y-82927446D01*
X97488680Y-82908615D01*
X98124514Y-82645244D01*
X98263965Y-82343770D01*
X97049900Y-81129705D01*
X95835835Y-82343770D01*
X95588894Y-82343770D01*
X95400421Y-82154968D01*
X94817159Y-81912776D01*
X94185612Y-81912225D01*
X93601928Y-82153398D01*
X93154968Y-82599579D01*
X92912776Y-83182841D01*
X92912225Y-83814388D01*
X90685000Y-83814388D01*
X90685000Y-82394808D01*
X90736036Y-82343772D01*
X90875486Y-82645244D01*
X91605989Y-82927446D01*
X92388880Y-82908615D01*
X93024714Y-82645244D01*
X93164165Y-82343770D01*
X91950100Y-81129705D01*
X91935958Y-81143848D01*
X91756353Y-80964243D01*
X91770495Y-80950100D01*
X92129705Y-80950100D01*
X93343770Y-82164165D01*
X93645244Y-82024714D01*
X93927446Y-81294211D01*
X93910893Y-80605989D01*
X95072554Y-80605989D01*
X95091385Y-81388880D01*
X95354756Y-82024714D01*
X95656230Y-82164165D01*
X96870295Y-80950100D01*
X97229505Y-80950100D01*
X98443570Y-82164165D01*
X98745044Y-82024714D01*
X99027246Y-81294211D01*
X99008415Y-80511320D01*
X98745044Y-79875486D01*
X98443570Y-79736035D01*
X97229505Y-80950100D01*
X96870295Y-80950100D01*
X95656230Y-79736035D01*
X95354756Y-79875486D01*
X95072554Y-80605989D01*
X93910893Y-80605989D01*
X93908615Y-80511320D01*
X93645244Y-79875486D01*
X93343770Y-79736035D01*
X92129705Y-80950100D01*
X91770495Y-80950100D01*
X91756353Y-80935958D01*
X91935958Y-80756353D01*
X91950100Y-80770495D01*
X93164165Y-79556430D01*
X95835835Y-79556430D01*
X97049900Y-80770495D01*
X98263965Y-79556430D01*
X98124514Y-79254956D01*
X97394011Y-78972754D01*
X96611120Y-78991585D01*
X95975286Y-79254956D01*
X95835835Y-79556430D01*
X93164165Y-79556430D01*
X93024714Y-79254956D01*
X92294211Y-78972754D01*
X91511320Y-78991585D01*
X90875486Y-79254956D01*
X90736036Y-79556428D01*
X90685000Y-79505392D01*
X90685000Y-72067466D01*
X90721376Y-71884591D01*
X90786751Y-71786750D01*
X90884590Y-71721376D01*
X91067466Y-71685000D01*
X123873421Y-71685000D01*
X123725460Y-71832961D01*
G36*
X134123748Y-73215858D02*
X134109605Y-73230000D01*
X134910213Y-74030608D01*
X135152397Y-73961143D01*
X135202509Y-73820682D01*
X135284990Y-74020303D01*
X135677630Y-74413629D01*
X135885512Y-74499949D01*
X135679697Y-74584990D01*
X135286371Y-74977630D01*
X135200051Y-75185512D01*
X135115010Y-74979697D01*
X134722370Y-74586371D01*
X134530273Y-74506605D01*
X134661143Y-74452397D01*
X134730608Y-74210213D01*
X133930000Y-73409605D01*
X133129392Y-74210213D01*
X133198857Y-74452397D01*
X133339318Y-74502509D01*
X133139697Y-74584990D01*
X132746371Y-74977630D01*
X132660051Y-75185512D01*
X132575010Y-74979697D01*
X132182370Y-74586371D01*
X131974488Y-74500051D01*
X132180303Y-74415010D01*
X132573629Y-74022370D01*
X132653395Y-73830273D01*
X132707603Y-73961143D01*
X132949787Y-74030608D01*
X133750395Y-73230000D01*
X133736253Y-73215858D01*
X133915858Y-73036253D01*
X133930000Y-73050395D01*
X133944143Y-73036253D01*
X134123748Y-73215858D01*
X134123748Y-73215858D01*
G37*
X134123748Y-73215858D02*
X134109605Y-73230000D01*
X134910213Y-74030608D01*
X135152397Y-73961143D01*
X135202509Y-73820682D01*
X135284990Y-74020303D01*
X135677630Y-74413629D01*
X135885512Y-74499949D01*
X135679697Y-74584990D01*
X135286371Y-74977630D01*
X135200051Y-75185512D01*
X135115010Y-74979697D01*
X134722370Y-74586371D01*
X134530273Y-74506605D01*
X134661143Y-74452397D01*
X134730608Y-74210213D01*
X133930000Y-73409605D01*
X133129392Y-74210213D01*
X133198857Y-74452397D01*
X133339318Y-74502509D01*
X133139697Y-74584990D01*
X132746371Y-74977630D01*
X132660051Y-75185512D01*
X132575010Y-74979697D01*
X132182370Y-74586371D01*
X131974488Y-74500051D01*
X132180303Y-74415010D01*
X132573629Y-74022370D01*
X132653395Y-73830273D01*
X132707603Y-73961143D01*
X132949787Y-74030608D01*
X133750395Y-73230000D01*
X133736253Y-73215858D01*
X133915858Y-73036253D01*
X133930000Y-73050395D01*
X133944143Y-73036253D01*
X134123748Y-73215858D01*
G36*
X139203748Y-73215858D02*
X139189605Y-73230000D01*
X139990213Y-74030608D01*
X140232397Y-73961143D01*
X140282509Y-73820682D01*
X140364990Y-74020303D01*
X140757630Y-74413629D01*
X140965512Y-74499949D01*
X140759697Y-74584990D01*
X140366371Y-74977630D01*
X140280051Y-75185512D01*
X140195010Y-74979697D01*
X139802370Y-74586371D01*
X139610273Y-74506605D01*
X139741143Y-74452397D01*
X139810608Y-74210213D01*
X139010000Y-73409605D01*
X138209392Y-74210213D01*
X138278857Y-74452397D01*
X138419318Y-74502509D01*
X138219697Y-74584990D01*
X137826371Y-74977630D01*
X137740051Y-75185512D01*
X137655010Y-74979697D01*
X137262370Y-74586371D01*
X137054488Y-74500051D01*
X137260303Y-74415010D01*
X137653629Y-74022370D01*
X137733395Y-73830273D01*
X137787603Y-73961143D01*
X138029787Y-74030608D01*
X138830395Y-73230000D01*
X138816253Y-73215858D01*
X138995858Y-73036253D01*
X139010000Y-73050395D01*
X139024143Y-73036253D01*
X139203748Y-73215858D01*
X139203748Y-73215858D01*
G37*
X139203748Y-73215858D02*
X139189605Y-73230000D01*
X139990213Y-74030608D01*
X140232397Y-73961143D01*
X140282509Y-73820682D01*
X140364990Y-74020303D01*
X140757630Y-74413629D01*
X140965512Y-74499949D01*
X140759697Y-74584990D01*
X140366371Y-74977630D01*
X140280051Y-75185512D01*
X140195010Y-74979697D01*
X139802370Y-74586371D01*
X139610273Y-74506605D01*
X139741143Y-74452397D01*
X139810608Y-74210213D01*
X139010000Y-73409605D01*
X138209392Y-74210213D01*
X138278857Y-74452397D01*
X138419318Y-74502509D01*
X138219697Y-74584990D01*
X137826371Y-74977630D01*
X137740051Y-75185512D01*
X137655010Y-74979697D01*
X137262370Y-74586371D01*
X137054488Y-74500051D01*
X137260303Y-74415010D01*
X137653629Y-74022370D01*
X137733395Y-73830273D01*
X137787603Y-73961143D01*
X138029787Y-74030608D01*
X138830395Y-73230000D01*
X138816253Y-73215858D01*
X138995858Y-73036253D01*
X139010000Y-73050395D01*
X139024143Y-73036253D01*
X139203748Y-73215858D01*
M02*
