%TF.GenerationSoftware,KiCad,Pcbnew,(5.1.8)-1*%
%TF.CreationDate,2021-02-22T22:13:28+01:00*%
%TF.ProjectId,radioberry-juice,72616469-6f62-4657-9272-792d6a756963,rev?*%
%TF.SameCoordinates,Original*%
%TF.FileFunction,Copper,L2,Bot*%
%TF.FilePolarity,Positive*%
%FSLAX46Y46*%
G04 Gerber Fmt 4.6, Leading zero omitted, Abs format (unit mm)*
G04 Created by KiCad (PCBNEW (5.1.8)-1) date 2021-02-22 22:13:28*
%MOMM*%
%LPD*%
G01*
G04 APERTURE LIST*
%TA.AperFunction,ComponentPad*%
%ADD10C,2.200000*%
%TD*%
%TA.AperFunction,ComponentPad*%
%ADD11C,2.600000*%
%TD*%
%TA.AperFunction,ComponentPad*%
%ADD12C,3.000000*%
%TD*%
%TA.AperFunction,ComponentPad*%
%ADD13C,5.300000*%
%TD*%
%TA.AperFunction,ComponentPad*%
%ADD14C,1.524000*%
%TD*%
%TA.AperFunction,ViaPad*%
%ADD15C,0.800000*%
%TD*%
%TA.AperFunction,Conductor*%
%ADD16C,0.250000*%
%TD*%
%TA.AperFunction,Conductor*%
%ADD17C,0.750000*%
%TD*%
%TA.AperFunction,Conductor*%
%ADD18C,0.254000*%
%TD*%
%TA.AperFunction,Conductor*%
%ADD19C,0.100000*%
%TD*%
G04 APERTURE END LIST*
D10*
%TO.P,CN1,2*%
%TO.N,GND*%
X149400000Y-114100000D03*
%TO.P,CN1,1*%
%TO.N,Net-(CN1-Pad1)*%
X144400000Y-114100000D03*
D11*
%TO.P,CN1,2*%
%TO.N,GND*%
X144300000Y-109400000D03*
X147450000Y-114100000D03*
D12*
%TO.P,CN1,1*%
%TO.N,Net-(CN1-Pad1)*%
X141300000Y-114100000D03*
%TD*%
%TO.P,J2,S1*%
%TO.N,Net-(J2-PadS1)*%
%TA.AperFunction,ComponentPad*%
G36*
G01*
X153800000Y-103820000D02*
X153200000Y-103820000D01*
G75*
G02*
X152700000Y-103320000I0J500000D01*
G01*
X152700000Y-103320000D01*
G75*
G02*
X153200000Y-102820000I500000J0D01*
G01*
X153800000Y-102820000D01*
G75*
G02*
X154300000Y-103320000I0J-500000D01*
G01*
X154300000Y-103320000D01*
G75*
G02*
X153800000Y-103820000I-500000J0D01*
G01*
G37*
%TD.AperFunction*%
%TA.AperFunction,ComponentPad*%
G36*
G01*
X153800000Y-95180000D02*
X153200000Y-95180000D01*
G75*
G02*
X152700000Y-94680000I0J500000D01*
G01*
X152700000Y-94680000D01*
G75*
G02*
X153200000Y-94180000I500000J0D01*
G01*
X153800000Y-94180000D01*
G75*
G02*
X154300000Y-94680000I0J-500000D01*
G01*
X154300000Y-94680000D01*
G75*
G02*
X153800000Y-95180000I-500000J0D01*
G01*
G37*
%TD.AperFunction*%
%TA.AperFunction,ComponentPad*%
G36*
G01*
X149620000Y-95180000D02*
X149020000Y-95180000D01*
G75*
G02*
X148520000Y-94680000I0J500000D01*
G01*
X148520000Y-94680000D01*
G75*
G02*
X149020000Y-94180000I500000J0D01*
G01*
X149620000Y-94180000D01*
G75*
G02*
X150120000Y-94680000I0J-500000D01*
G01*
X150120000Y-94680000D01*
G75*
G02*
X149620000Y-95180000I-500000J0D01*
G01*
G37*
%TD.AperFunction*%
%TA.AperFunction,ComponentPad*%
G36*
G01*
X149620000Y-103820000D02*
X149020000Y-103820000D01*
G75*
G02*
X148520000Y-103320000I0J500000D01*
G01*
X148520000Y-103320000D01*
G75*
G02*
X149020000Y-102820000I500000J0D01*
G01*
X149620000Y-102820000D01*
G75*
G02*
X150120000Y-103320000I0J-500000D01*
G01*
X150120000Y-103320000D01*
G75*
G02*
X149620000Y-103820000I-500000J0D01*
G01*
G37*
%TD.AperFunction*%
%TD*%
D13*
%TO.P,J7,1*%
%TO.N,GND*%
X151500000Y-123500000D03*
%TD*%
%TO.P,J6,1*%
%TO.N,GND*%
X93500000Y-123500000D03*
%TD*%
%TO.P,J5,1*%
%TO.N,GND*%
X151500000Y-74500000D03*
%TD*%
%TO.P,J4,1*%
%TO.N,GND*%
X93500000Y-74500000D03*
%TD*%
D14*
%TO.P,J3,40*%
%TO.N,RXF#*%
X146630000Y-73230000D03*
%TO.P,J3,39*%
%TO.N,GND*%
X146630000Y-75770000D03*
%TO.P,J3,38*%
%TO.N,TXE#*%
X144090000Y-73230000D03*
%TO.P,J3,37*%
%TO.N,NSTATUS*%
X144090000Y-75770000D03*
%TO.P,J3,36*%
%TO.N,RD#*%
X141550000Y-73230000D03*
%TO.P,J3,35*%
%TO.N,DATA0*%
X141550000Y-75770000D03*
%TO.P,J3,34*%
%TO.N,GND*%
X139010000Y-73230000D03*
%TO.P,J3,33*%
%TO.N,P_DATA0*%
X139010000Y-75770000D03*
%TO.P,J3,32*%
%TO.N,WR#*%
X136470000Y-73230000D03*
%TO.P,J3,31*%
%TO.N,Net-(J3-Pad31)*%
X136470000Y-75770000D03*
%TO.P,J3,30*%
%TO.N,GND*%
X133930000Y-73230000D03*
%TO.P,J3,29*%
%TO.N,DATA1*%
X133930000Y-75770000D03*
%TO.P,J3,28*%
%TO.N,DATA7*%
X131390000Y-73230000D03*
%TO.P,J3,27*%
%TO.N,DATA6*%
X131390000Y-75770000D03*
%TO.P,J3,26*%
%TO.N,CE1*%
X128850000Y-73230000D03*
%TO.P,J3,25*%
%TO.N,GND*%
X128850000Y-75770000D03*
%TO.P,J3,24*%
%TO.N,CE0*%
X126310000Y-73230000D03*
%TO.P,J3,23*%
%TO.N,SCLK*%
X126310000Y-75770000D03*
%TO.P,J3,22*%
%TO.N,SI*%
X123770000Y-73230000D03*
%TO.P,J3,21*%
%TO.N,MISO*%
X123770000Y-75770000D03*
%TO.P,J3,20*%
%TO.N,GND*%
X121230000Y-73230000D03*
%TO.P,J3,19*%
%TO.N,MOSI*%
X121230000Y-75770000D03*
%TO.P,J3,18*%
%TO.N,DCLK*%
X118690000Y-73230000D03*
%TO.P,J3,17*%
%TO.N,+3V3*%
X118690000Y-75770000D03*
%TO.P,J3,16*%
%TO.N,OE#*%
X116150000Y-73230000D03*
%TO.P,J3,15*%
%TO.N,CONF_DONE*%
X116150000Y-75770000D03*
%TO.P,J3,14*%
%TO.N,GND*%
X113610000Y-73230000D03*
%TO.P,J3,13*%
%TO.N,NCONFIG*%
X113610000Y-75770000D03*
%TO.P,J3,12*%
%TO.N,DATA2*%
X111070000Y-73230000D03*
%TO.P,J3,11*%
%TO.N,DATA3*%
X111070000Y-75770000D03*
%TO.P,J3,10*%
%TO.N,DATA5*%
X108530000Y-73230000D03*
%TO.P,J3,9*%
%TO.N,GND*%
X108530000Y-75770000D03*
%TO.P,J3,8*%
%TO.N,DATA4*%
X105990000Y-73230000D03*
%TO.P,J3,7*%
%TO.N,CLKOUT*%
X105990000Y-75770000D03*
%TO.P,J3,6*%
%TO.N,GND*%
X103450000Y-73230000D03*
%TO.P,J3,5*%
%TO.N,SCL*%
X103450000Y-75770000D03*
%TO.P,J3,4*%
%TO.N,+5V*%
X100910000Y-73230000D03*
%TO.P,J3,3*%
%TO.N,SDA*%
X100910000Y-75770000D03*
%TO.P,J3,2*%
%TO.N,+5V*%
X98370000Y-73230000D03*
%TO.P,J3,1*%
%TO.N,+3V3*%
X98370000Y-75770000D03*
%TD*%
D15*
%TO.N,GND*%
X118700000Y-119900000D03*
X130500000Y-120500000D03*
X142400000Y-97600000D03*
X141500000Y-102600000D03*
X112675000Y-96600000D03*
X110800000Y-96600000D03*
X145400000Y-89300000D03*
X118100000Y-104000000D03*
X112700000Y-102100000D03*
X134800000Y-97700000D03*
X132400000Y-89100000D03*
X128400000Y-104300000D03*
X128700000Y-82700000D03*
X125900000Y-125400000D03*
%TO.N,VCORE*%
X114125000Y-98525000D03*
X118400000Y-101000000D03*
%TO.N,VCC3V3*%
X109300000Y-91100000D03*
X114300000Y-92500000D03*
X117800000Y-107800000D03*
X139200000Y-101300000D03*
X143000000Y-94800000D03*
X149600000Y-82100000D03*
X109700000Y-99000000D03*
%TO.N,NSTATUS*%
X124400000Y-99900000D03*
%TO.N,DATA7*%
X128900000Y-85500000D03*
%TO.N,DATA3*%
X123800000Y-90800000D03*
%TO.N,P_DATA0*%
X123300000Y-98700000D03*
%TO.N,DATA6*%
X130200000Y-86500000D03*
%TO.N,DATA2*%
X124700000Y-91900000D03*
%TO.N,CE1*%
X118800000Y-106900000D03*
%TO.N,CE0*%
X117225000Y-85400000D03*
X117100000Y-101700000D03*
X110600000Y-87400000D03*
X110900000Y-92400000D03*
%TO.N,SCLK*%
X117300000Y-87400000D03*
X121000000Y-103200000D03*
%TO.N,DATA5*%
X122300000Y-88600000D03*
X109400000Y-84000000D03*
%TO.N,MISO*%
X116500000Y-86200000D03*
X120200000Y-102400000D03*
%TO.N,MOSI*%
X115600000Y-87100000D03*
X119300000Y-103300000D03*
%TO.N,DCLK*%
X114700000Y-88100000D03*
X117500000Y-96900000D03*
%TO.N,DATA4*%
X123100000Y-89700000D03*
%TO.N,CONF_DONE*%
X112900000Y-95300000D03*
X112900000Y-100700000D03*
%TO.N,DATA1*%
X133900000Y-92800000D03*
%TO.N,DATA0*%
X141600000Y-91300000D03*
%TO.N,SI*%
X118025000Y-89000000D03*
X118100000Y-84725000D03*
X122700000Y-79700000D03*
%TO.N,SCL*%
X121600000Y-110700000D03*
%TO.N,SDA*%
X123200000Y-110000000D03*
%TO.N,Net-(R9-Pad1)*%
X114400000Y-90400000D03*
X105700000Y-83900000D03*
%TO.N,Net-(R17-Pad1)*%
X117600000Y-115900000D03*
X123700000Y-107975000D03*
%TO.N,Net-(R13-Pad1)*%
X124000000Y-107000000D03*
X124600000Y-115900000D03*
%TD*%
D16*
%TO.N,GND*%
X115100000Y-123500000D02*
X93500000Y-123500000D01*
X118700000Y-119900000D02*
X115100000Y-123500000D01*
X130500000Y-120500000D02*
X129900000Y-119900000D01*
X141500000Y-98500000D02*
X141500000Y-102600000D01*
X142400000Y-97600000D02*
X141500000Y-98500000D01*
X112675000Y-96600000D02*
X110800000Y-96600000D01*
X146630000Y-88070000D02*
X146630000Y-75770000D01*
X145400000Y-89300000D02*
X146630000Y-88070000D01*
X112736410Y-102100000D02*
X112700000Y-102100000D01*
X114636410Y-104000000D02*
X112736410Y-102100000D01*
X118100000Y-104000000D02*
X114636410Y-104000000D01*
X132842999Y-74317001D02*
X133930000Y-73230000D01*
X132842999Y-88657001D02*
X132842999Y-74317001D01*
X132400000Y-89100000D02*
X132842999Y-88657001D01*
X138950000Y-104300000D02*
X144000000Y-109350000D01*
X128400000Y-104300000D02*
X138950000Y-104300000D01*
X128700000Y-75920000D02*
X128850000Y-75770000D01*
X128700000Y-82700000D02*
X128700000Y-75920000D01*
X125900000Y-120000000D02*
X125800000Y-119900000D01*
X125900000Y-125400000D02*
X125900000Y-120000000D01*
X125800000Y-119900000D02*
X118700000Y-119900000D01*
X129900000Y-119900000D02*
X125800000Y-119900000D01*
%TO.N,+3V3*%
X99457001Y-74682999D02*
X99457001Y-72542999D01*
X98370000Y-75770000D02*
X99457001Y-74682999D01*
X99457001Y-72542999D02*
X100400000Y-71600000D01*
X100400000Y-71600000D02*
X116900000Y-71600000D01*
X117602999Y-74682999D02*
X118690000Y-75770000D01*
X117602999Y-72302999D02*
X117602999Y-74682999D01*
X116900000Y-71600000D02*
X117602999Y-72302999D01*
%TO.N,VCORE*%
X114125000Y-98525000D02*
X114125000Y-99925000D01*
X114125000Y-99925000D02*
X116700000Y-102500000D01*
X116700000Y-102500000D02*
X117500000Y-102500000D01*
X117500000Y-102500000D02*
X118400000Y-101600000D01*
X118400000Y-101600000D02*
X118400000Y-101000000D01*
%TO.N,VCC3V3*%
X112900000Y-91100000D02*
X114300000Y-92500000D01*
X109300000Y-91100000D02*
X112900000Y-91100000D01*
X117800000Y-107800000D02*
X113400000Y-103400000D01*
X113400000Y-103400000D02*
X107200000Y-103400000D01*
X107200000Y-103400000D02*
X106000000Y-102200000D01*
X107400000Y-91100000D02*
X109300000Y-91100000D01*
X106000000Y-92500000D02*
X107400000Y-91100000D01*
X139200000Y-98600000D02*
X143000000Y-94800000D01*
X139200000Y-101300000D02*
X139200000Y-98600000D01*
X143000000Y-94800000D02*
X149600000Y-88200000D01*
X149600000Y-88200000D02*
X149600000Y-82100000D01*
X106100000Y-99000000D02*
X106000000Y-98900000D01*
X109700000Y-99000000D02*
X106100000Y-99000000D01*
X106000000Y-98900000D02*
X106000000Y-92500000D01*
X106000000Y-102200000D02*
X106000000Y-98900000D01*
%TO.N,NSTATUS*%
X144090000Y-92010000D02*
X144090000Y-75770000D01*
X136200000Y-99900000D02*
X144090000Y-92010000D01*
X124400000Y-99900000D02*
X136200000Y-99900000D01*
%TO.N,DATA7*%
X128900000Y-85500000D02*
X130700000Y-83700000D01*
X130700000Y-79100000D02*
X130100000Y-78500000D01*
X130700000Y-83700000D02*
X130700000Y-79100000D01*
X130100000Y-74520000D02*
X131390000Y-73230000D01*
X130100000Y-78500000D02*
X130100000Y-74520000D01*
%TO.N,DATA3*%
X123825001Y-85525001D02*
X123825001Y-90774999D01*
X120000000Y-81700000D02*
X123825001Y-85525001D01*
X113700000Y-81700000D02*
X120000000Y-81700000D01*
X111070000Y-79070000D02*
X113700000Y-81700000D01*
X123825001Y-90774999D02*
X123800000Y-90800000D01*
X111070000Y-75770000D02*
X111070000Y-79070000D01*
%TO.N,P_DATA0*%
X139010000Y-88763002D02*
X139000000Y-88773002D01*
X139010000Y-75770000D02*
X139010000Y-88763002D01*
X139000000Y-88773002D02*
X139000000Y-92800000D01*
X139000000Y-92800000D02*
X135800000Y-96000000D01*
X123300000Y-98700000D02*
X123300000Y-98100000D01*
X125400000Y-96000000D02*
X135800000Y-96000000D01*
X123300000Y-98100000D02*
X125400000Y-96000000D01*
%TO.N,DATA6*%
X130200000Y-86500000D02*
X130800000Y-86500000D01*
X131390000Y-85910000D02*
X131390000Y-75770000D01*
X130800000Y-86500000D02*
X131390000Y-85910000D01*
%TO.N,DATA2*%
X124700000Y-85100000D02*
X124700000Y-91900000D01*
X124700000Y-84100000D02*
X124700000Y-85100000D01*
X121200000Y-80600000D02*
X124700000Y-84100000D01*
X114400000Y-80600000D02*
X121200000Y-80600000D01*
X112522999Y-78722999D02*
X114400000Y-80600000D01*
X112522999Y-74682999D02*
X112522999Y-78722999D01*
X111070000Y-73230000D02*
X112522999Y-74682999D01*
%TO.N,CE1*%
X128850000Y-73230000D02*
X127500000Y-74580000D01*
X127500000Y-74580000D02*
X127500000Y-90300000D01*
X121725001Y-96074999D02*
X121725001Y-102425001D01*
X127500000Y-90300000D02*
X121725001Y-96074999D01*
X121725001Y-102425001D02*
X122000000Y-102700000D01*
X122000000Y-102700000D02*
X122000000Y-103273002D01*
X122000000Y-103273002D02*
X122000000Y-104000000D01*
X122000000Y-104000000D02*
X120600000Y-105400000D01*
X120300000Y-105400000D02*
X118800000Y-106900000D01*
X120600000Y-105400000D02*
X120300000Y-105400000D01*
%TO.N,CE0*%
X117225000Y-85400000D02*
X115000000Y-85400000D01*
X115000000Y-85400000D02*
X113974999Y-86425001D01*
X113974999Y-86425001D02*
X113374999Y-86425001D01*
X113374999Y-86425001D02*
X112800000Y-87000000D01*
X111000000Y-87000000D02*
X110600000Y-87400000D01*
X112800000Y-87000000D02*
X111000000Y-87000000D01*
X117100000Y-98600000D02*
X117100000Y-101700000D01*
X113974999Y-95474999D02*
X117100000Y-98600000D01*
X113974999Y-94974999D02*
X113974999Y-95474999D01*
X112700000Y-93700000D02*
X113974999Y-94974999D01*
X112200000Y-93700000D02*
X112700000Y-93700000D01*
X110900000Y-92400000D02*
X112200000Y-93700000D01*
%TO.N,SCLK*%
X117300000Y-87400000D02*
X117300000Y-93200000D01*
X121000000Y-96900000D02*
X121000000Y-103200000D01*
X117300000Y-93200000D02*
X121000000Y-96900000D01*
%TO.N,DATA5*%
X122200000Y-88500000D02*
X122300000Y-88600000D01*
X122200000Y-86200000D02*
X122200000Y-88500000D01*
X120000000Y-84000000D02*
X122200000Y-86200000D01*
X109400000Y-84000000D02*
X120000000Y-84000000D01*
%TO.N,MISO*%
X116500000Y-86200000D02*
X116500000Y-93400000D01*
X120200000Y-97100000D02*
X120200000Y-102400000D01*
X116500000Y-93400000D02*
X120200000Y-97100000D01*
%TO.N,MOSI*%
X115600000Y-87100000D02*
X115600000Y-93400000D01*
X119300000Y-97100000D02*
X119300000Y-103300000D01*
X115600000Y-93400000D02*
X119300000Y-97100000D01*
%TO.N,DCLK*%
X114700000Y-88100000D02*
X115125001Y-88525001D01*
X115125001Y-88525001D02*
X115125001Y-94474999D01*
X115100000Y-94500000D02*
X117500000Y-96900000D01*
%TO.N,DATA4*%
X107100000Y-74340000D02*
X105990000Y-73230000D01*
X107100000Y-77300000D02*
X107100000Y-74340000D01*
X107100000Y-77500000D02*
X107100000Y-77300000D01*
X123100000Y-86200000D02*
X123100000Y-89700000D01*
X109700000Y-82500000D02*
X119400000Y-82500000D01*
X119400000Y-82500000D02*
X123100000Y-86200000D01*
X107100000Y-79900000D02*
X109700000Y-82500000D01*
X107100000Y-77300000D02*
X107100000Y-79900000D01*
%TO.N,CONF_DONE*%
X112900000Y-95300000D02*
X113400000Y-95800000D01*
X113400000Y-100200000D02*
X112900000Y-100700000D01*
X113400000Y-95800000D02*
X113400000Y-100200000D01*
%TO.N,DATA1*%
X133900000Y-75800000D02*
X133930000Y-75770000D01*
X133900000Y-92800000D02*
X133900000Y-75800000D01*
%TO.N,DATA0*%
X141600000Y-75820000D02*
X141550000Y-75770000D01*
X141600000Y-91300000D02*
X141600000Y-75820000D01*
%TO.N,SI*%
X118025000Y-84800000D02*
X118100000Y-84725000D01*
X118025000Y-89000000D02*
X118025000Y-84800000D01*
X123770000Y-73230000D02*
X125000000Y-74460000D01*
X125000000Y-77400000D02*
X122700000Y-79700000D01*
X125000000Y-74460000D02*
X125000000Y-77400000D01*
%TO.N,SCL*%
X103450000Y-75770000D02*
X103450000Y-105150000D01*
X103450000Y-105150000D02*
X109400000Y-111100000D01*
X121200000Y-111100000D02*
X121600000Y-110700000D01*
X109400000Y-111100000D02*
X121200000Y-111100000D01*
%TO.N,SDA*%
X100910000Y-75770000D02*
X100910000Y-104610000D01*
X100910000Y-104610000D02*
X108200000Y-111900000D01*
X108200000Y-111900000D02*
X121700000Y-111900000D01*
X121700000Y-111900000D02*
X123200000Y-110400000D01*
X123200000Y-110400000D02*
X123200000Y-110000000D01*
%TO.N,Net-(J2-PadS1)*%
X149320000Y-94680000D02*
X153500000Y-94680000D01*
X149320000Y-103320000D02*
X153500000Y-103320000D01*
X148850312Y-95149688D02*
X149320000Y-94680000D01*
X148850312Y-102850312D02*
X148850312Y-95149688D01*
X149320000Y-103320000D02*
X148850312Y-102850312D01*
%TO.N,Net-(R9-Pad1)*%
X114400000Y-90400000D02*
X112100000Y-90400000D01*
X112100000Y-90400000D02*
X105800000Y-84100000D01*
X105800000Y-84000000D02*
X105700000Y-83900000D01*
X105800000Y-84100000D02*
X105800000Y-84000000D01*
%TO.N,Net-(R17-Pad1)*%
X123925001Y-110348001D02*
X123925001Y-108225001D01*
X118373002Y-115900000D02*
X123925001Y-110348001D01*
X117600000Y-115900000D02*
X118373002Y-115900000D01*
X123925001Y-108200001D02*
X123700000Y-107975000D01*
X123925001Y-108225001D02*
X123925001Y-108200001D01*
%TO.N,Net-(R13-Pad1)*%
X124000000Y-107000000D02*
X124600000Y-107600000D01*
X124600000Y-107600000D02*
X124600000Y-115900000D01*
D17*
%TO.N,Net-(CN1-Pad1)*%
X144100000Y-114000000D02*
X141000000Y-114000000D01*
%TD*%
D18*
%TO.N,GND*%
X98962061Y-71963138D02*
X98777490Y-71886686D01*
X98507592Y-71833000D01*
X98232408Y-71833000D01*
X97962510Y-71886686D01*
X97708273Y-71991995D01*
X97479465Y-72144880D01*
X97284880Y-72339465D01*
X97131995Y-72568273D01*
X97026686Y-72822510D01*
X96973000Y-73092408D01*
X96973000Y-73367592D01*
X97026686Y-73637490D01*
X97131995Y-73891727D01*
X97284880Y-74120535D01*
X97479465Y-74315120D01*
X97708273Y-74468005D01*
X97785515Y-74500000D01*
X97708273Y-74531995D01*
X97479465Y-74684880D01*
X97284880Y-74879465D01*
X97131995Y-75108273D01*
X97026686Y-75362510D01*
X96973000Y-75632408D01*
X96973000Y-75907592D01*
X97026686Y-76177490D01*
X97131995Y-76431727D01*
X97284880Y-76660535D01*
X97479465Y-76855120D01*
X97708273Y-77008005D01*
X97962510Y-77113314D01*
X98232408Y-77167000D01*
X98507592Y-77167000D01*
X98777490Y-77113314D01*
X99031727Y-77008005D01*
X99260535Y-76855120D01*
X99455120Y-76660535D01*
X99608005Y-76431727D01*
X99640000Y-76354485D01*
X99671995Y-76431727D01*
X99824880Y-76660535D01*
X100019465Y-76855120D01*
X100150000Y-76942341D01*
X100150001Y-104572667D01*
X100146324Y-104610000D01*
X100150001Y-104647333D01*
X100160998Y-104758986D01*
X100174180Y-104802442D01*
X100204454Y-104902246D01*
X100275026Y-105034276D01*
X100335328Y-105107753D01*
X100370000Y-105150001D01*
X100398998Y-105173799D01*
X107636201Y-112411003D01*
X107659999Y-112440001D01*
X107775724Y-112534974D01*
X107907753Y-112605546D01*
X108051014Y-112649003D01*
X108162667Y-112660000D01*
X108162677Y-112660000D01*
X108200000Y-112663676D01*
X108237323Y-112660000D01*
X120538201Y-112660000D01*
X118165278Y-115032923D01*
X118090256Y-114982795D01*
X117901898Y-114904774D01*
X117701939Y-114865000D01*
X117498061Y-114865000D01*
X117298102Y-114904774D01*
X117109744Y-114982795D01*
X116940226Y-115096063D01*
X116796063Y-115240226D01*
X116682795Y-115409744D01*
X116604774Y-115598102D01*
X116565000Y-115798061D01*
X116565000Y-116001939D01*
X116604774Y-116201898D01*
X116682795Y-116390256D01*
X116796063Y-116559774D01*
X116940226Y-116703937D01*
X117109744Y-116817205D01*
X117298102Y-116895226D01*
X117498061Y-116935000D01*
X117701939Y-116935000D01*
X117901898Y-116895226D01*
X118090256Y-116817205D01*
X118259774Y-116703937D01*
X118303711Y-116660000D01*
X118335680Y-116660000D01*
X118373002Y-116663676D01*
X118410324Y-116660000D01*
X118410335Y-116660000D01*
X118521988Y-116649003D01*
X118665249Y-116605546D01*
X118797278Y-116534974D01*
X118913003Y-116440001D01*
X118936806Y-116410997D01*
X123840000Y-111507803D01*
X123840001Y-115196288D01*
X123796063Y-115240226D01*
X123682795Y-115409744D01*
X123604774Y-115598102D01*
X123565000Y-115798061D01*
X123565000Y-116001939D01*
X123604774Y-116201898D01*
X123682795Y-116390256D01*
X123796063Y-116559774D01*
X123940226Y-116703937D01*
X124109744Y-116817205D01*
X124298102Y-116895226D01*
X124498061Y-116935000D01*
X124701939Y-116935000D01*
X124901898Y-116895226D01*
X125090256Y-116817205D01*
X125259774Y-116703937D01*
X125403937Y-116559774D01*
X125517205Y-116390256D01*
X125595226Y-116201898D01*
X125635000Y-116001939D01*
X125635000Y-115798061D01*
X125595226Y-115598102D01*
X125517205Y-115409744D01*
X125403937Y-115240226D01*
X125360000Y-115196289D01*
X125360000Y-113889721D01*
X139165000Y-113889721D01*
X139165000Y-114310279D01*
X139247047Y-114722756D01*
X139407988Y-115111302D01*
X139641637Y-115460983D01*
X139939017Y-115758363D01*
X140288698Y-115992012D01*
X140677244Y-116152953D01*
X141089721Y-116235000D01*
X141510279Y-116235000D01*
X141922756Y-116152953D01*
X142311302Y-115992012D01*
X142660983Y-115758363D01*
X142958363Y-115460983D01*
X143098136Y-115251797D01*
X143294002Y-115447663D01*
X143578169Y-115637537D01*
X143893919Y-115768325D01*
X144229117Y-115835000D01*
X144570883Y-115835000D01*
X144906081Y-115768325D01*
X145221831Y-115637537D01*
X145505998Y-115447663D01*
X145747663Y-115205998D01*
X145800187Y-115127391D01*
X145805688Y-115137683D01*
X146100776Y-115269619D01*
X147270395Y-114100000D01*
X146100776Y-112930381D01*
X145805688Y-113062317D01*
X145800381Y-113072901D01*
X145747663Y-112994002D01*
X145505998Y-112752337D01*
X145503662Y-112750776D01*
X146280381Y-112750776D01*
X147450000Y-113920395D01*
X147464143Y-113906253D01*
X147643748Y-114085858D01*
X147629605Y-114100000D01*
X147643748Y-114114143D01*
X147464143Y-114293748D01*
X147450000Y-114279605D01*
X146280381Y-115449224D01*
X146412317Y-115744312D01*
X146753045Y-115915159D01*
X147120557Y-116016250D01*
X147500729Y-116043701D01*
X147878951Y-115996457D01*
X148240690Y-115876333D01*
X148487683Y-115744312D01*
X148546156Y-115613530D01*
X148787384Y-115732216D01*
X149117585Y-115820369D01*
X149458639Y-115842409D01*
X149797439Y-115797489D01*
X150120966Y-115687336D01*
X150319274Y-115581338D01*
X150427107Y-115306712D01*
X149400000Y-114279605D01*
X149385858Y-114293748D01*
X149376709Y-114284599D01*
X149390038Y-114100000D01*
X149579605Y-114100000D01*
X150606712Y-115127107D01*
X150881338Y-115019274D01*
X151032216Y-114712616D01*
X151120369Y-114382415D01*
X151142409Y-114041361D01*
X151097489Y-113702561D01*
X150987336Y-113379034D01*
X150881338Y-113180726D01*
X150606712Y-113072893D01*
X149579605Y-114100000D01*
X149390038Y-114100000D01*
X149393701Y-114049271D01*
X149376949Y-113915161D01*
X149385858Y-113906253D01*
X149400000Y-113920395D01*
X150427107Y-112893288D01*
X150319274Y-112618662D01*
X150012616Y-112467784D01*
X149682415Y-112379631D01*
X149341361Y-112357591D01*
X149002561Y-112402511D01*
X148679034Y-112512664D01*
X148545153Y-112584225D01*
X148487683Y-112455688D01*
X148146955Y-112284841D01*
X147779443Y-112183750D01*
X147399271Y-112156299D01*
X147021049Y-112203543D01*
X146659310Y-112323667D01*
X146412317Y-112455688D01*
X146280381Y-112750776D01*
X145503662Y-112750776D01*
X145221831Y-112562463D01*
X144906081Y-112431675D01*
X144570883Y-112365000D01*
X144229117Y-112365000D01*
X143893919Y-112431675D01*
X143578169Y-112562463D01*
X143294002Y-112752337D01*
X143098136Y-112948203D01*
X142958363Y-112739017D01*
X142660983Y-112441637D01*
X142311302Y-112207988D01*
X141922756Y-112047047D01*
X141510279Y-111965000D01*
X141089721Y-111965000D01*
X140677244Y-112047047D01*
X140288698Y-112207988D01*
X139939017Y-112441637D01*
X139641637Y-112739017D01*
X139407988Y-113088698D01*
X139247047Y-113477244D01*
X139165000Y-113889721D01*
X125360000Y-113889721D01*
X125360000Y-110749224D01*
X143130381Y-110749224D01*
X143262317Y-111044312D01*
X143603045Y-111215159D01*
X143970557Y-111316250D01*
X144350729Y-111343701D01*
X144728951Y-111296457D01*
X145090690Y-111176333D01*
X145337683Y-111044312D01*
X145469619Y-110749224D01*
X144300000Y-109579605D01*
X143130381Y-110749224D01*
X125360000Y-110749224D01*
X125360000Y-109450729D01*
X142356299Y-109450729D01*
X142403543Y-109828951D01*
X142523667Y-110190690D01*
X142655688Y-110437683D01*
X142950776Y-110569619D01*
X144120395Y-109400000D01*
X144479605Y-109400000D01*
X145649224Y-110569619D01*
X145944312Y-110437683D01*
X146115159Y-110096955D01*
X146216250Y-109729443D01*
X146243701Y-109349271D01*
X146196457Y-108971049D01*
X146076333Y-108609310D01*
X145944312Y-108362317D01*
X145649224Y-108230381D01*
X144479605Y-109400000D01*
X144120395Y-109400000D01*
X142950776Y-108230381D01*
X142655688Y-108362317D01*
X142484841Y-108703045D01*
X142383750Y-109070557D01*
X142356299Y-109450729D01*
X125360000Y-109450729D01*
X125360000Y-108050776D01*
X143130381Y-108050776D01*
X144300000Y-109220395D01*
X145469619Y-108050776D01*
X145337683Y-107755688D01*
X144996955Y-107584841D01*
X144629443Y-107483750D01*
X144249271Y-107456299D01*
X143871049Y-107503543D01*
X143509310Y-107623667D01*
X143262317Y-107755688D01*
X143130381Y-108050776D01*
X125360000Y-108050776D01*
X125360000Y-107637322D01*
X125363676Y-107599999D01*
X125360000Y-107562676D01*
X125360000Y-107562667D01*
X125349003Y-107451014D01*
X125305546Y-107307753D01*
X125295521Y-107288997D01*
X125234974Y-107175723D01*
X125163799Y-107088997D01*
X125140001Y-107059999D01*
X125111004Y-107036202D01*
X125035000Y-106960198D01*
X125035000Y-106898061D01*
X124995226Y-106698102D01*
X124917205Y-106509744D01*
X124803937Y-106340226D01*
X124659774Y-106196063D01*
X124490256Y-106082795D01*
X124301898Y-106004774D01*
X124101939Y-105965000D01*
X123898061Y-105965000D01*
X123698102Y-106004774D01*
X123509744Y-106082795D01*
X123340226Y-106196063D01*
X123196063Y-106340226D01*
X123082795Y-106509744D01*
X123004774Y-106698102D01*
X122965000Y-106898061D01*
X122965000Y-107101939D01*
X122988949Y-107222340D01*
X122896063Y-107315226D01*
X122782795Y-107484744D01*
X122704774Y-107673102D01*
X122665000Y-107873061D01*
X122665000Y-108076939D01*
X122704774Y-108276898D01*
X122782795Y-108465256D01*
X122896063Y-108634774D01*
X123040226Y-108778937D01*
X123165002Y-108862309D01*
X123165002Y-108965000D01*
X123098061Y-108965000D01*
X122898102Y-109004774D01*
X122709744Y-109082795D01*
X122540226Y-109196063D01*
X122396063Y-109340226D01*
X122282795Y-109509744D01*
X122204774Y-109698102D01*
X122176469Y-109840401D01*
X122090256Y-109782795D01*
X121901898Y-109704774D01*
X121701939Y-109665000D01*
X121498061Y-109665000D01*
X121298102Y-109704774D01*
X121109744Y-109782795D01*
X120940226Y-109896063D01*
X120796063Y-110040226D01*
X120682795Y-110209744D01*
X120628841Y-110340000D01*
X109714802Y-110340000D01*
X104210000Y-104835199D01*
X104210000Y-76942341D01*
X104340535Y-76855120D01*
X104535120Y-76660535D01*
X104688005Y-76431727D01*
X104720000Y-76354485D01*
X104751995Y-76431727D01*
X104904880Y-76660535D01*
X105099465Y-76855120D01*
X105328273Y-77008005D01*
X105582510Y-77113314D01*
X105852408Y-77167000D01*
X106127592Y-77167000D01*
X106340000Y-77124749D01*
X106340000Y-77262668D01*
X106340001Y-79862668D01*
X106336324Y-79900000D01*
X106350998Y-80048985D01*
X106394454Y-80192246D01*
X106465026Y-80324276D01*
X106536201Y-80411002D01*
X106560000Y-80440001D01*
X106588998Y-80463799D01*
X109124684Y-82999486D01*
X109098102Y-83004774D01*
X108909744Y-83082795D01*
X108740226Y-83196063D01*
X108596063Y-83340226D01*
X108482795Y-83509744D01*
X108404774Y-83698102D01*
X108365000Y-83898061D01*
X108365000Y-84101939D01*
X108404774Y-84301898D01*
X108482795Y-84490256D01*
X108596063Y-84659774D01*
X108740226Y-84803937D01*
X108909744Y-84917205D01*
X109098102Y-84995226D01*
X109298061Y-85035000D01*
X109501939Y-85035000D01*
X109701898Y-84995226D01*
X109890256Y-84917205D01*
X110059774Y-84803937D01*
X110103711Y-84760000D01*
X114585127Y-84760000D01*
X114575724Y-84765026D01*
X114459999Y-84859999D01*
X114436201Y-84888997D01*
X113660198Y-85665001D01*
X113412321Y-85665001D01*
X113374998Y-85661325D01*
X113337675Y-85665001D01*
X113337666Y-85665001D01*
X113226013Y-85675998D01*
X113082752Y-85719455D01*
X112950723Y-85790027D01*
X112950721Y-85790028D01*
X112950722Y-85790028D01*
X112863995Y-85861202D01*
X112863991Y-85861206D01*
X112834998Y-85885000D01*
X112811204Y-85913994D01*
X112485198Y-86240000D01*
X111037322Y-86240000D01*
X110999999Y-86236324D01*
X110962676Y-86240000D01*
X110962667Y-86240000D01*
X110851014Y-86250997D01*
X110707753Y-86294454D01*
X110575773Y-86365000D01*
X110498061Y-86365000D01*
X110298102Y-86404774D01*
X110109744Y-86482795D01*
X109940226Y-86596063D01*
X109796063Y-86740226D01*
X109683496Y-86908694D01*
X106735000Y-83960199D01*
X106735000Y-83798061D01*
X106695226Y-83598102D01*
X106617205Y-83409744D01*
X106503937Y-83240226D01*
X106359774Y-83096063D01*
X106190256Y-82982795D01*
X106001898Y-82904774D01*
X105801939Y-82865000D01*
X105598061Y-82865000D01*
X105398102Y-82904774D01*
X105209744Y-82982795D01*
X105040226Y-83096063D01*
X104896063Y-83240226D01*
X104782795Y-83409744D01*
X104704774Y-83598102D01*
X104665000Y-83798061D01*
X104665000Y-84001939D01*
X104704774Y-84201898D01*
X104782795Y-84390256D01*
X104896063Y-84559774D01*
X105040226Y-84703937D01*
X105209744Y-84817205D01*
X105398102Y-84895226D01*
X105550798Y-84925599D01*
X110965197Y-90340000D01*
X110003711Y-90340000D01*
X109959774Y-90296063D01*
X109790256Y-90182795D01*
X109601898Y-90104774D01*
X109401939Y-90065000D01*
X109198061Y-90065000D01*
X108998102Y-90104774D01*
X108809744Y-90182795D01*
X108640226Y-90296063D01*
X108596289Y-90340000D01*
X107437322Y-90340000D01*
X107400000Y-90336324D01*
X107362677Y-90340000D01*
X107362667Y-90340000D01*
X107251014Y-90350997D01*
X107107753Y-90394454D01*
X106975723Y-90465026D01*
X106892083Y-90533668D01*
X106859999Y-90559999D01*
X106836201Y-90588997D01*
X105488998Y-91936201D01*
X105460000Y-91959999D01*
X105436202Y-91988997D01*
X105436201Y-91988998D01*
X105365026Y-92075724D01*
X105294454Y-92207754D01*
X105250998Y-92351015D01*
X105236324Y-92500000D01*
X105240001Y-92537332D01*
X105240000Y-98862677D01*
X105236324Y-98900000D01*
X105240000Y-98937322D01*
X105240000Y-98937332D01*
X105240001Y-98937342D01*
X105240000Y-102162677D01*
X105236324Y-102200000D01*
X105240000Y-102237322D01*
X105240000Y-102237332D01*
X105250997Y-102348985D01*
X105285788Y-102463677D01*
X105294454Y-102492246D01*
X105365026Y-102624276D01*
X105396533Y-102662667D01*
X105459999Y-102740001D01*
X105489003Y-102763804D01*
X106636200Y-103911002D01*
X106659999Y-103940001D01*
X106775724Y-104034974D01*
X106907753Y-104105546D01*
X107051014Y-104149003D01*
X107162667Y-104160000D01*
X107162676Y-104160000D01*
X107199999Y-104163676D01*
X107237322Y-104160000D01*
X113085199Y-104160000D01*
X116765000Y-107839802D01*
X116765000Y-107901939D01*
X116804774Y-108101898D01*
X116882795Y-108290256D01*
X116996063Y-108459774D01*
X117140226Y-108603937D01*
X117309744Y-108717205D01*
X117498102Y-108795226D01*
X117698061Y-108835000D01*
X117901939Y-108835000D01*
X118101898Y-108795226D01*
X118290256Y-108717205D01*
X118459774Y-108603937D01*
X118603937Y-108459774D01*
X118717205Y-108290256D01*
X118795226Y-108101898D01*
X118828424Y-107935000D01*
X118901939Y-107935000D01*
X119101898Y-107895226D01*
X119290256Y-107817205D01*
X119459774Y-107703937D01*
X119603937Y-107559774D01*
X119717205Y-107390256D01*
X119795226Y-107201898D01*
X119835000Y-107001939D01*
X119835000Y-106939801D01*
X120612341Y-106162460D01*
X120637322Y-106160000D01*
X120637333Y-106160000D01*
X120748986Y-106149003D01*
X120892247Y-106105546D01*
X121024276Y-106034974D01*
X121140001Y-105940001D01*
X121163804Y-105910997D01*
X122511003Y-104563799D01*
X122540001Y-104540001D01*
X122566332Y-104507917D01*
X122634974Y-104424277D01*
X122705546Y-104292247D01*
X122734976Y-104195226D01*
X122749003Y-104148986D01*
X122760000Y-104037333D01*
X122760000Y-104037323D01*
X122763676Y-104000000D01*
X122760000Y-103962678D01*
X122760000Y-102737322D01*
X122763676Y-102699999D01*
X122760000Y-102662676D01*
X122760000Y-102662667D01*
X122749003Y-102551014D01*
X122705546Y-102407753D01*
X122634974Y-102275724D01*
X122540001Y-102159999D01*
X122510998Y-102136197D01*
X122485001Y-102110200D01*
X122485001Y-99343219D01*
X122496063Y-99359774D01*
X122640226Y-99503937D01*
X122809744Y-99617205D01*
X122998102Y-99695226D01*
X123198061Y-99735000D01*
X123377544Y-99735000D01*
X123365000Y-99798061D01*
X123365000Y-100001939D01*
X123404774Y-100201898D01*
X123482795Y-100390256D01*
X123596063Y-100559774D01*
X123740226Y-100703937D01*
X123909744Y-100817205D01*
X124098102Y-100895226D01*
X124298061Y-100935000D01*
X124501939Y-100935000D01*
X124701898Y-100895226D01*
X124890256Y-100817205D01*
X125059774Y-100703937D01*
X125103711Y-100660000D01*
X136162678Y-100660000D01*
X136200000Y-100663676D01*
X136237322Y-100660000D01*
X136237333Y-100660000D01*
X136348986Y-100649003D01*
X136492247Y-100605546D01*
X136624276Y-100534974D01*
X136740001Y-100440001D01*
X136763804Y-100410997D01*
X138440001Y-98734800D01*
X138440000Y-100596289D01*
X138396063Y-100640226D01*
X138282795Y-100809744D01*
X138204774Y-100998102D01*
X138165000Y-101198061D01*
X138165000Y-101401939D01*
X138204774Y-101601898D01*
X138282795Y-101790256D01*
X138396063Y-101959774D01*
X138540226Y-102103937D01*
X138709744Y-102217205D01*
X138898102Y-102295226D01*
X139098061Y-102335000D01*
X139301939Y-102335000D01*
X139501898Y-102295226D01*
X139690256Y-102217205D01*
X139859774Y-102103937D01*
X140003937Y-101959774D01*
X140117205Y-101790256D01*
X140195226Y-101601898D01*
X140235000Y-101401939D01*
X140235000Y-101198061D01*
X140195226Y-100998102D01*
X140117205Y-100809744D01*
X140003937Y-100640226D01*
X139960000Y-100596289D01*
X139960000Y-98914801D01*
X143039802Y-95835000D01*
X143101939Y-95835000D01*
X143301898Y-95795226D01*
X143490256Y-95717205D01*
X143659774Y-95603937D01*
X143803937Y-95459774D01*
X143917205Y-95290256D01*
X143995226Y-95101898D01*
X144035000Y-94901939D01*
X144035000Y-94839801D01*
X150111004Y-88763798D01*
X150140001Y-88740001D01*
X150234974Y-88624276D01*
X150305546Y-88492247D01*
X150349003Y-88348986D01*
X150360000Y-88237333D01*
X150360000Y-88237332D01*
X150363677Y-88200000D01*
X150360000Y-88162667D01*
X150360000Y-82803711D01*
X150403937Y-82759774D01*
X150517205Y-82590256D01*
X150595226Y-82401898D01*
X150635000Y-82201939D01*
X150635000Y-81998061D01*
X150595226Y-81798102D01*
X150517205Y-81609744D01*
X150403937Y-81440226D01*
X150259774Y-81296063D01*
X150090256Y-81182795D01*
X149901898Y-81104774D01*
X149701939Y-81065000D01*
X149498061Y-81065000D01*
X149298102Y-81104774D01*
X149109744Y-81182795D01*
X148940226Y-81296063D01*
X148796063Y-81440226D01*
X148682795Y-81609744D01*
X148604774Y-81798102D01*
X148565000Y-81998061D01*
X148565000Y-82201939D01*
X148604774Y-82401898D01*
X148682795Y-82590256D01*
X148796063Y-82759774D01*
X148840001Y-82803712D01*
X148840000Y-87885198D01*
X144850000Y-91875199D01*
X144850000Y-76942341D01*
X144980535Y-76855120D01*
X145100090Y-76735565D01*
X145844040Y-76735565D01*
X145911020Y-76975656D01*
X146160048Y-77092756D01*
X146427135Y-77159023D01*
X146702017Y-77171910D01*
X146974133Y-77130922D01*
X147233023Y-77037636D01*
X147348980Y-76975656D01*
X147415960Y-76735565D01*
X146630000Y-75949605D01*
X145844040Y-76735565D01*
X145100090Y-76735565D01*
X145175120Y-76660535D01*
X145328005Y-76431727D01*
X145357692Y-76360057D01*
X145362364Y-76373023D01*
X145424344Y-76488980D01*
X145664435Y-76555960D01*
X146450395Y-75770000D01*
X146809605Y-75770000D01*
X147595565Y-76555960D01*
X147835656Y-76488980D01*
X147952756Y-76239952D01*
X148019023Y-75972865D01*
X148031910Y-75697983D01*
X147990922Y-75425867D01*
X147897636Y-75166977D01*
X147835656Y-75051020D01*
X147595565Y-74984040D01*
X146809605Y-75770000D01*
X146450395Y-75770000D01*
X145664435Y-74984040D01*
X145424344Y-75051020D01*
X145360515Y-75186760D01*
X145328005Y-75108273D01*
X145175120Y-74879465D01*
X144980535Y-74684880D01*
X144751727Y-74531995D01*
X144674485Y-74500000D01*
X144751727Y-74468005D01*
X144980535Y-74315120D01*
X145175120Y-74120535D01*
X145328005Y-73891727D01*
X145360000Y-73814485D01*
X145391995Y-73891727D01*
X145544880Y-74120535D01*
X145739465Y-74315120D01*
X145968273Y-74468005D01*
X146039943Y-74497692D01*
X146026977Y-74502364D01*
X145911020Y-74564344D01*
X145844040Y-74804435D01*
X146630000Y-75590395D01*
X147415960Y-74804435D01*
X147348980Y-74564344D01*
X147213240Y-74500515D01*
X147291727Y-74468005D01*
X147520535Y-74315120D01*
X147715120Y-74120535D01*
X147868005Y-73891727D01*
X147973314Y-73637490D01*
X148027000Y-73367592D01*
X148027000Y-73092408D01*
X147973314Y-72822510D01*
X147868005Y-72568273D01*
X147715120Y-72339465D01*
X147520535Y-72144880D01*
X147291727Y-71991995D01*
X147037490Y-71886686D01*
X146767592Y-71833000D01*
X146492408Y-71833000D01*
X146222510Y-71886686D01*
X145968273Y-71991995D01*
X145739465Y-72144880D01*
X145544880Y-72339465D01*
X145391995Y-72568273D01*
X145360000Y-72645515D01*
X145328005Y-72568273D01*
X145175120Y-72339465D01*
X144980535Y-72144880D01*
X144751727Y-71991995D01*
X144497490Y-71886686D01*
X144227592Y-71833000D01*
X143952408Y-71833000D01*
X143682510Y-71886686D01*
X143428273Y-71991995D01*
X143199465Y-72144880D01*
X143004880Y-72339465D01*
X142851995Y-72568273D01*
X142820000Y-72645515D01*
X142788005Y-72568273D01*
X142635120Y-72339465D01*
X142440535Y-72144880D01*
X142211727Y-71991995D01*
X141957490Y-71886686D01*
X141687592Y-71833000D01*
X141412408Y-71833000D01*
X141142510Y-71886686D01*
X140888273Y-71991995D01*
X140659465Y-72144880D01*
X140464880Y-72339465D01*
X140311995Y-72568273D01*
X140282308Y-72639943D01*
X140277636Y-72626977D01*
X140215656Y-72511020D01*
X139975565Y-72444040D01*
X139189605Y-73230000D01*
X139975565Y-74015960D01*
X140215656Y-73948980D01*
X140279485Y-73813240D01*
X140311995Y-73891727D01*
X140464880Y-74120535D01*
X140659465Y-74315120D01*
X140888273Y-74468005D01*
X140965515Y-74500000D01*
X140888273Y-74531995D01*
X140659465Y-74684880D01*
X140464880Y-74879465D01*
X140311995Y-75108273D01*
X140280000Y-75185515D01*
X140248005Y-75108273D01*
X140095120Y-74879465D01*
X139900535Y-74684880D01*
X139671727Y-74531995D01*
X139600057Y-74502308D01*
X139613023Y-74497636D01*
X139728980Y-74435656D01*
X139795960Y-74195565D01*
X139010000Y-73409605D01*
X138224040Y-74195565D01*
X138291020Y-74435656D01*
X138426760Y-74499485D01*
X138348273Y-74531995D01*
X138119465Y-74684880D01*
X137924880Y-74879465D01*
X137771995Y-75108273D01*
X137740000Y-75185515D01*
X137708005Y-75108273D01*
X137555120Y-74879465D01*
X137360535Y-74684880D01*
X137131727Y-74531995D01*
X137054485Y-74500000D01*
X137131727Y-74468005D01*
X137360535Y-74315120D01*
X137555120Y-74120535D01*
X137708005Y-73891727D01*
X137737692Y-73820057D01*
X137742364Y-73833023D01*
X137804344Y-73948980D01*
X138044435Y-74015960D01*
X138830395Y-73230000D01*
X138044435Y-72444040D01*
X137804344Y-72511020D01*
X137740515Y-72646760D01*
X137708005Y-72568273D01*
X137555120Y-72339465D01*
X137480090Y-72264435D01*
X138224040Y-72264435D01*
X139010000Y-73050395D01*
X139795960Y-72264435D01*
X139728980Y-72024344D01*
X139479952Y-71907244D01*
X139212865Y-71840977D01*
X138937983Y-71828090D01*
X138665867Y-71869078D01*
X138406977Y-71962364D01*
X138291020Y-72024344D01*
X138224040Y-72264435D01*
X137480090Y-72264435D01*
X137360535Y-72144880D01*
X137131727Y-71991995D01*
X136877490Y-71886686D01*
X136607592Y-71833000D01*
X136332408Y-71833000D01*
X136062510Y-71886686D01*
X135808273Y-71991995D01*
X135579465Y-72144880D01*
X135384880Y-72339465D01*
X135231995Y-72568273D01*
X135202308Y-72639943D01*
X135197636Y-72626977D01*
X135135656Y-72511020D01*
X134895565Y-72444040D01*
X134109605Y-73230000D01*
X134895565Y-74015960D01*
X135135656Y-73948980D01*
X135199485Y-73813240D01*
X135231995Y-73891727D01*
X135384880Y-74120535D01*
X135579465Y-74315120D01*
X135808273Y-74468005D01*
X135885515Y-74500000D01*
X135808273Y-74531995D01*
X135579465Y-74684880D01*
X135384880Y-74879465D01*
X135231995Y-75108273D01*
X135200000Y-75185515D01*
X135168005Y-75108273D01*
X135015120Y-74879465D01*
X134820535Y-74684880D01*
X134591727Y-74531995D01*
X134520057Y-74502308D01*
X134533023Y-74497636D01*
X134648980Y-74435656D01*
X134715960Y-74195565D01*
X133930000Y-73409605D01*
X133144040Y-74195565D01*
X133211020Y-74435656D01*
X133346760Y-74499485D01*
X133268273Y-74531995D01*
X133039465Y-74684880D01*
X132844880Y-74879465D01*
X132691995Y-75108273D01*
X132660000Y-75185515D01*
X132628005Y-75108273D01*
X132475120Y-74879465D01*
X132280535Y-74684880D01*
X132051727Y-74531995D01*
X131974485Y-74500000D01*
X132051727Y-74468005D01*
X132280535Y-74315120D01*
X132475120Y-74120535D01*
X132628005Y-73891727D01*
X132657692Y-73820057D01*
X132662364Y-73833023D01*
X132724344Y-73948980D01*
X132964435Y-74015960D01*
X133750395Y-73230000D01*
X132964435Y-72444040D01*
X132724344Y-72511020D01*
X132660515Y-72646760D01*
X132628005Y-72568273D01*
X132475120Y-72339465D01*
X132400090Y-72264435D01*
X133144040Y-72264435D01*
X133930000Y-73050395D01*
X134715960Y-72264435D01*
X134648980Y-72024344D01*
X134399952Y-71907244D01*
X134132865Y-71840977D01*
X133857983Y-71828090D01*
X133585867Y-71869078D01*
X133326977Y-71962364D01*
X133211020Y-72024344D01*
X133144040Y-72264435D01*
X132400090Y-72264435D01*
X132280535Y-72144880D01*
X132051727Y-71991995D01*
X131797490Y-71886686D01*
X131527592Y-71833000D01*
X131252408Y-71833000D01*
X130982510Y-71886686D01*
X130728273Y-71991995D01*
X130499465Y-72144880D01*
X130304880Y-72339465D01*
X130151995Y-72568273D01*
X130120000Y-72645515D01*
X130088005Y-72568273D01*
X129935120Y-72339465D01*
X129740535Y-72144880D01*
X129511727Y-71991995D01*
X129257490Y-71886686D01*
X128987592Y-71833000D01*
X128712408Y-71833000D01*
X128442510Y-71886686D01*
X128188273Y-71991995D01*
X127959465Y-72144880D01*
X127764880Y-72339465D01*
X127611995Y-72568273D01*
X127580000Y-72645515D01*
X127548005Y-72568273D01*
X127395120Y-72339465D01*
X127200535Y-72144880D01*
X126971727Y-71991995D01*
X126717490Y-71886686D01*
X126447592Y-71833000D01*
X126172408Y-71833000D01*
X125902510Y-71886686D01*
X125648273Y-71991995D01*
X125419465Y-72144880D01*
X125224880Y-72339465D01*
X125071995Y-72568273D01*
X125040000Y-72645515D01*
X125008005Y-72568273D01*
X124855120Y-72339465D01*
X124660535Y-72144880D01*
X124431727Y-71991995D01*
X124177490Y-71886686D01*
X123907592Y-71833000D01*
X123632408Y-71833000D01*
X123362510Y-71886686D01*
X123108273Y-71991995D01*
X122879465Y-72144880D01*
X122684880Y-72339465D01*
X122531995Y-72568273D01*
X122502308Y-72639943D01*
X122497636Y-72626977D01*
X122435656Y-72511020D01*
X122195565Y-72444040D01*
X121409605Y-73230000D01*
X122195565Y-74015960D01*
X122435656Y-73948980D01*
X122499485Y-73813240D01*
X122531995Y-73891727D01*
X122684880Y-74120535D01*
X122879465Y-74315120D01*
X123108273Y-74468005D01*
X123185515Y-74500000D01*
X123108273Y-74531995D01*
X122879465Y-74684880D01*
X122684880Y-74879465D01*
X122531995Y-75108273D01*
X122500000Y-75185515D01*
X122468005Y-75108273D01*
X122315120Y-74879465D01*
X122120535Y-74684880D01*
X121891727Y-74531995D01*
X121820057Y-74502308D01*
X121833023Y-74497636D01*
X121948980Y-74435656D01*
X122015960Y-74195565D01*
X121230000Y-73409605D01*
X120444040Y-74195565D01*
X120511020Y-74435656D01*
X120646760Y-74499485D01*
X120568273Y-74531995D01*
X120339465Y-74684880D01*
X120144880Y-74879465D01*
X119991995Y-75108273D01*
X119960000Y-75185515D01*
X119928005Y-75108273D01*
X119775120Y-74879465D01*
X119580535Y-74684880D01*
X119351727Y-74531995D01*
X119274485Y-74500000D01*
X119351727Y-74468005D01*
X119580535Y-74315120D01*
X119775120Y-74120535D01*
X119928005Y-73891727D01*
X119957692Y-73820057D01*
X119962364Y-73833023D01*
X120024344Y-73948980D01*
X120264435Y-74015960D01*
X121050395Y-73230000D01*
X120264435Y-72444040D01*
X120024344Y-72511020D01*
X119960515Y-72646760D01*
X119928005Y-72568273D01*
X119775120Y-72339465D01*
X119700090Y-72264435D01*
X120444040Y-72264435D01*
X121230000Y-73050395D01*
X122015960Y-72264435D01*
X121948980Y-72024344D01*
X121699952Y-71907244D01*
X121432865Y-71840977D01*
X121157983Y-71828090D01*
X120885867Y-71869078D01*
X120626977Y-71962364D01*
X120511020Y-72024344D01*
X120444040Y-72264435D01*
X119700090Y-72264435D01*
X119580535Y-72144880D01*
X119351727Y-71991995D01*
X119097490Y-71886686D01*
X118827592Y-71833000D01*
X118552408Y-71833000D01*
X118282510Y-71886686D01*
X118249531Y-71900346D01*
X118237973Y-71878723D01*
X118143000Y-71762998D01*
X118114003Y-71739201D01*
X118034802Y-71660000D01*
X153967721Y-71660000D01*
X154065424Y-71669580D01*
X154128356Y-71688580D01*
X154186405Y-71719445D01*
X154237343Y-71760989D01*
X154279248Y-71811644D01*
X154310515Y-71869471D01*
X154329956Y-71932272D01*
X154340001Y-72027845D01*
X154340001Y-93684403D01*
X154235521Y-93628558D01*
X154022027Y-93563795D01*
X153800000Y-93541927D01*
X153200000Y-93541927D01*
X152977973Y-93563795D01*
X152764479Y-93628558D01*
X152567721Y-93733727D01*
X152395262Y-93875261D01*
X152358546Y-93920000D01*
X150461454Y-93920000D01*
X150424738Y-93875261D01*
X150252279Y-93733727D01*
X150055521Y-93628558D01*
X149842027Y-93563795D01*
X149620000Y-93541927D01*
X149020000Y-93541927D01*
X148797973Y-93563795D01*
X148584479Y-93628558D01*
X148387721Y-93733727D01*
X148215262Y-93875261D01*
X148073728Y-94047720D01*
X147968559Y-94244478D01*
X147903796Y-94457972D01*
X147881928Y-94679999D01*
X147881928Y-94680001D01*
X147903796Y-94902028D01*
X147968559Y-95115522D01*
X148073728Y-95312280D01*
X148090313Y-95332489D01*
X148090312Y-102667512D01*
X148073728Y-102687720D01*
X147968559Y-102884478D01*
X147903796Y-103097972D01*
X147881928Y-103319999D01*
X147881928Y-103320001D01*
X147903796Y-103542028D01*
X147968559Y-103755522D01*
X148073728Y-103952280D01*
X148215262Y-104124739D01*
X148387721Y-104266273D01*
X148584479Y-104371442D01*
X148797973Y-104436205D01*
X149020000Y-104458073D01*
X149620000Y-104458073D01*
X149842027Y-104436205D01*
X150055521Y-104371442D01*
X150252279Y-104266273D01*
X150424738Y-104124739D01*
X150461454Y-104080000D01*
X152358546Y-104080000D01*
X152395262Y-104124739D01*
X152567721Y-104266273D01*
X152764479Y-104371442D01*
X152977973Y-104436205D01*
X153200000Y-104458073D01*
X153800000Y-104458073D01*
X154022027Y-104436205D01*
X154235521Y-104371442D01*
X154340000Y-104315597D01*
X154340000Y-125967721D01*
X154330420Y-126065424D01*
X154311420Y-126128357D01*
X154280554Y-126186406D01*
X154239011Y-126237343D01*
X154188356Y-126279248D01*
X154130529Y-126310515D01*
X154067728Y-126329956D01*
X153972165Y-126340000D01*
X91032279Y-126340000D01*
X90934576Y-126330420D01*
X90871643Y-126311420D01*
X90813594Y-126280554D01*
X90762657Y-126239011D01*
X90720752Y-126188356D01*
X90689485Y-126130529D01*
X90670044Y-126067728D01*
X90660000Y-125972165D01*
X90660000Y-72032279D01*
X90669580Y-71934576D01*
X90688580Y-71871644D01*
X90719445Y-71813595D01*
X90760989Y-71762657D01*
X90811644Y-71720752D01*
X90869471Y-71689485D01*
X90932272Y-71670044D01*
X91027835Y-71660000D01*
X99265199Y-71660000D01*
X98962061Y-71963138D01*
%TA.AperFunction,Conductor*%
D19*
G36*
X98962061Y-71963138D02*
G01*
X98777490Y-71886686D01*
X98507592Y-71833000D01*
X98232408Y-71833000D01*
X97962510Y-71886686D01*
X97708273Y-71991995D01*
X97479465Y-72144880D01*
X97284880Y-72339465D01*
X97131995Y-72568273D01*
X97026686Y-72822510D01*
X96973000Y-73092408D01*
X96973000Y-73367592D01*
X97026686Y-73637490D01*
X97131995Y-73891727D01*
X97284880Y-74120535D01*
X97479465Y-74315120D01*
X97708273Y-74468005D01*
X97785515Y-74500000D01*
X97708273Y-74531995D01*
X97479465Y-74684880D01*
X97284880Y-74879465D01*
X97131995Y-75108273D01*
X97026686Y-75362510D01*
X96973000Y-75632408D01*
X96973000Y-75907592D01*
X97026686Y-76177490D01*
X97131995Y-76431727D01*
X97284880Y-76660535D01*
X97479465Y-76855120D01*
X97708273Y-77008005D01*
X97962510Y-77113314D01*
X98232408Y-77167000D01*
X98507592Y-77167000D01*
X98777490Y-77113314D01*
X99031727Y-77008005D01*
X99260535Y-76855120D01*
X99455120Y-76660535D01*
X99608005Y-76431727D01*
X99640000Y-76354485D01*
X99671995Y-76431727D01*
X99824880Y-76660535D01*
X100019465Y-76855120D01*
X100150000Y-76942341D01*
X100150001Y-104572667D01*
X100146324Y-104610000D01*
X100150001Y-104647333D01*
X100160998Y-104758986D01*
X100174180Y-104802442D01*
X100204454Y-104902246D01*
X100275026Y-105034276D01*
X100335328Y-105107753D01*
X100370000Y-105150001D01*
X100398998Y-105173799D01*
X107636201Y-112411003D01*
X107659999Y-112440001D01*
X107775724Y-112534974D01*
X107907753Y-112605546D01*
X108051014Y-112649003D01*
X108162667Y-112660000D01*
X108162677Y-112660000D01*
X108200000Y-112663676D01*
X108237323Y-112660000D01*
X120538201Y-112660000D01*
X118165278Y-115032923D01*
X118090256Y-114982795D01*
X117901898Y-114904774D01*
X117701939Y-114865000D01*
X117498061Y-114865000D01*
X117298102Y-114904774D01*
X117109744Y-114982795D01*
X116940226Y-115096063D01*
X116796063Y-115240226D01*
X116682795Y-115409744D01*
X116604774Y-115598102D01*
X116565000Y-115798061D01*
X116565000Y-116001939D01*
X116604774Y-116201898D01*
X116682795Y-116390256D01*
X116796063Y-116559774D01*
X116940226Y-116703937D01*
X117109744Y-116817205D01*
X117298102Y-116895226D01*
X117498061Y-116935000D01*
X117701939Y-116935000D01*
X117901898Y-116895226D01*
X118090256Y-116817205D01*
X118259774Y-116703937D01*
X118303711Y-116660000D01*
X118335680Y-116660000D01*
X118373002Y-116663676D01*
X118410324Y-116660000D01*
X118410335Y-116660000D01*
X118521988Y-116649003D01*
X118665249Y-116605546D01*
X118797278Y-116534974D01*
X118913003Y-116440001D01*
X118936806Y-116410997D01*
X123840000Y-111507803D01*
X123840001Y-115196288D01*
X123796063Y-115240226D01*
X123682795Y-115409744D01*
X123604774Y-115598102D01*
X123565000Y-115798061D01*
X123565000Y-116001939D01*
X123604774Y-116201898D01*
X123682795Y-116390256D01*
X123796063Y-116559774D01*
X123940226Y-116703937D01*
X124109744Y-116817205D01*
X124298102Y-116895226D01*
X124498061Y-116935000D01*
X124701939Y-116935000D01*
X124901898Y-116895226D01*
X125090256Y-116817205D01*
X125259774Y-116703937D01*
X125403937Y-116559774D01*
X125517205Y-116390256D01*
X125595226Y-116201898D01*
X125635000Y-116001939D01*
X125635000Y-115798061D01*
X125595226Y-115598102D01*
X125517205Y-115409744D01*
X125403937Y-115240226D01*
X125360000Y-115196289D01*
X125360000Y-113889721D01*
X139165000Y-113889721D01*
X139165000Y-114310279D01*
X139247047Y-114722756D01*
X139407988Y-115111302D01*
X139641637Y-115460983D01*
X139939017Y-115758363D01*
X140288698Y-115992012D01*
X140677244Y-116152953D01*
X141089721Y-116235000D01*
X141510279Y-116235000D01*
X141922756Y-116152953D01*
X142311302Y-115992012D01*
X142660983Y-115758363D01*
X142958363Y-115460983D01*
X143098136Y-115251797D01*
X143294002Y-115447663D01*
X143578169Y-115637537D01*
X143893919Y-115768325D01*
X144229117Y-115835000D01*
X144570883Y-115835000D01*
X144906081Y-115768325D01*
X145221831Y-115637537D01*
X145505998Y-115447663D01*
X145747663Y-115205998D01*
X145800187Y-115127391D01*
X145805688Y-115137683D01*
X146100776Y-115269619D01*
X147270395Y-114100000D01*
X146100776Y-112930381D01*
X145805688Y-113062317D01*
X145800381Y-113072901D01*
X145747663Y-112994002D01*
X145505998Y-112752337D01*
X145503662Y-112750776D01*
X146280381Y-112750776D01*
X147450000Y-113920395D01*
X147464143Y-113906253D01*
X147643748Y-114085858D01*
X147629605Y-114100000D01*
X147643748Y-114114143D01*
X147464143Y-114293748D01*
X147450000Y-114279605D01*
X146280381Y-115449224D01*
X146412317Y-115744312D01*
X146753045Y-115915159D01*
X147120557Y-116016250D01*
X147500729Y-116043701D01*
X147878951Y-115996457D01*
X148240690Y-115876333D01*
X148487683Y-115744312D01*
X148546156Y-115613530D01*
X148787384Y-115732216D01*
X149117585Y-115820369D01*
X149458639Y-115842409D01*
X149797439Y-115797489D01*
X150120966Y-115687336D01*
X150319274Y-115581338D01*
X150427107Y-115306712D01*
X149400000Y-114279605D01*
X149385858Y-114293748D01*
X149376709Y-114284599D01*
X149390038Y-114100000D01*
X149579605Y-114100000D01*
X150606712Y-115127107D01*
X150881338Y-115019274D01*
X151032216Y-114712616D01*
X151120369Y-114382415D01*
X151142409Y-114041361D01*
X151097489Y-113702561D01*
X150987336Y-113379034D01*
X150881338Y-113180726D01*
X150606712Y-113072893D01*
X149579605Y-114100000D01*
X149390038Y-114100000D01*
X149393701Y-114049271D01*
X149376949Y-113915161D01*
X149385858Y-113906253D01*
X149400000Y-113920395D01*
X150427107Y-112893288D01*
X150319274Y-112618662D01*
X150012616Y-112467784D01*
X149682415Y-112379631D01*
X149341361Y-112357591D01*
X149002561Y-112402511D01*
X148679034Y-112512664D01*
X148545153Y-112584225D01*
X148487683Y-112455688D01*
X148146955Y-112284841D01*
X147779443Y-112183750D01*
X147399271Y-112156299D01*
X147021049Y-112203543D01*
X146659310Y-112323667D01*
X146412317Y-112455688D01*
X146280381Y-112750776D01*
X145503662Y-112750776D01*
X145221831Y-112562463D01*
X144906081Y-112431675D01*
X144570883Y-112365000D01*
X144229117Y-112365000D01*
X143893919Y-112431675D01*
X143578169Y-112562463D01*
X143294002Y-112752337D01*
X143098136Y-112948203D01*
X142958363Y-112739017D01*
X142660983Y-112441637D01*
X142311302Y-112207988D01*
X141922756Y-112047047D01*
X141510279Y-111965000D01*
X141089721Y-111965000D01*
X140677244Y-112047047D01*
X140288698Y-112207988D01*
X139939017Y-112441637D01*
X139641637Y-112739017D01*
X139407988Y-113088698D01*
X139247047Y-113477244D01*
X139165000Y-113889721D01*
X125360000Y-113889721D01*
X125360000Y-110749224D01*
X143130381Y-110749224D01*
X143262317Y-111044312D01*
X143603045Y-111215159D01*
X143970557Y-111316250D01*
X144350729Y-111343701D01*
X144728951Y-111296457D01*
X145090690Y-111176333D01*
X145337683Y-111044312D01*
X145469619Y-110749224D01*
X144300000Y-109579605D01*
X143130381Y-110749224D01*
X125360000Y-110749224D01*
X125360000Y-109450729D01*
X142356299Y-109450729D01*
X142403543Y-109828951D01*
X142523667Y-110190690D01*
X142655688Y-110437683D01*
X142950776Y-110569619D01*
X144120395Y-109400000D01*
X144479605Y-109400000D01*
X145649224Y-110569619D01*
X145944312Y-110437683D01*
X146115159Y-110096955D01*
X146216250Y-109729443D01*
X146243701Y-109349271D01*
X146196457Y-108971049D01*
X146076333Y-108609310D01*
X145944312Y-108362317D01*
X145649224Y-108230381D01*
X144479605Y-109400000D01*
X144120395Y-109400000D01*
X142950776Y-108230381D01*
X142655688Y-108362317D01*
X142484841Y-108703045D01*
X142383750Y-109070557D01*
X142356299Y-109450729D01*
X125360000Y-109450729D01*
X125360000Y-108050776D01*
X143130381Y-108050776D01*
X144300000Y-109220395D01*
X145469619Y-108050776D01*
X145337683Y-107755688D01*
X144996955Y-107584841D01*
X144629443Y-107483750D01*
X144249271Y-107456299D01*
X143871049Y-107503543D01*
X143509310Y-107623667D01*
X143262317Y-107755688D01*
X143130381Y-108050776D01*
X125360000Y-108050776D01*
X125360000Y-107637322D01*
X125363676Y-107599999D01*
X125360000Y-107562676D01*
X125360000Y-107562667D01*
X125349003Y-107451014D01*
X125305546Y-107307753D01*
X125295521Y-107288997D01*
X125234974Y-107175723D01*
X125163799Y-107088997D01*
X125140001Y-107059999D01*
X125111004Y-107036202D01*
X125035000Y-106960198D01*
X125035000Y-106898061D01*
X124995226Y-106698102D01*
X124917205Y-106509744D01*
X124803937Y-106340226D01*
X124659774Y-106196063D01*
X124490256Y-106082795D01*
X124301898Y-106004774D01*
X124101939Y-105965000D01*
X123898061Y-105965000D01*
X123698102Y-106004774D01*
X123509744Y-106082795D01*
X123340226Y-106196063D01*
X123196063Y-106340226D01*
X123082795Y-106509744D01*
X123004774Y-106698102D01*
X122965000Y-106898061D01*
X122965000Y-107101939D01*
X122988949Y-107222340D01*
X122896063Y-107315226D01*
X122782795Y-107484744D01*
X122704774Y-107673102D01*
X122665000Y-107873061D01*
X122665000Y-108076939D01*
X122704774Y-108276898D01*
X122782795Y-108465256D01*
X122896063Y-108634774D01*
X123040226Y-108778937D01*
X123165002Y-108862309D01*
X123165002Y-108965000D01*
X123098061Y-108965000D01*
X122898102Y-109004774D01*
X122709744Y-109082795D01*
X122540226Y-109196063D01*
X122396063Y-109340226D01*
X122282795Y-109509744D01*
X122204774Y-109698102D01*
X122176469Y-109840401D01*
X122090256Y-109782795D01*
X121901898Y-109704774D01*
X121701939Y-109665000D01*
X121498061Y-109665000D01*
X121298102Y-109704774D01*
X121109744Y-109782795D01*
X120940226Y-109896063D01*
X120796063Y-110040226D01*
X120682795Y-110209744D01*
X120628841Y-110340000D01*
X109714802Y-110340000D01*
X104210000Y-104835199D01*
X104210000Y-76942341D01*
X104340535Y-76855120D01*
X104535120Y-76660535D01*
X104688005Y-76431727D01*
X104720000Y-76354485D01*
X104751995Y-76431727D01*
X104904880Y-76660535D01*
X105099465Y-76855120D01*
X105328273Y-77008005D01*
X105582510Y-77113314D01*
X105852408Y-77167000D01*
X106127592Y-77167000D01*
X106340000Y-77124749D01*
X106340000Y-77262668D01*
X106340001Y-79862668D01*
X106336324Y-79900000D01*
X106350998Y-80048985D01*
X106394454Y-80192246D01*
X106465026Y-80324276D01*
X106536201Y-80411002D01*
X106560000Y-80440001D01*
X106588998Y-80463799D01*
X109124684Y-82999486D01*
X109098102Y-83004774D01*
X108909744Y-83082795D01*
X108740226Y-83196063D01*
X108596063Y-83340226D01*
X108482795Y-83509744D01*
X108404774Y-83698102D01*
X108365000Y-83898061D01*
X108365000Y-84101939D01*
X108404774Y-84301898D01*
X108482795Y-84490256D01*
X108596063Y-84659774D01*
X108740226Y-84803937D01*
X108909744Y-84917205D01*
X109098102Y-84995226D01*
X109298061Y-85035000D01*
X109501939Y-85035000D01*
X109701898Y-84995226D01*
X109890256Y-84917205D01*
X110059774Y-84803937D01*
X110103711Y-84760000D01*
X114585127Y-84760000D01*
X114575724Y-84765026D01*
X114459999Y-84859999D01*
X114436201Y-84888997D01*
X113660198Y-85665001D01*
X113412321Y-85665001D01*
X113374998Y-85661325D01*
X113337675Y-85665001D01*
X113337666Y-85665001D01*
X113226013Y-85675998D01*
X113082752Y-85719455D01*
X112950723Y-85790027D01*
X112950721Y-85790028D01*
X112950722Y-85790028D01*
X112863995Y-85861202D01*
X112863991Y-85861206D01*
X112834998Y-85885000D01*
X112811204Y-85913994D01*
X112485198Y-86240000D01*
X111037322Y-86240000D01*
X110999999Y-86236324D01*
X110962676Y-86240000D01*
X110962667Y-86240000D01*
X110851014Y-86250997D01*
X110707753Y-86294454D01*
X110575773Y-86365000D01*
X110498061Y-86365000D01*
X110298102Y-86404774D01*
X110109744Y-86482795D01*
X109940226Y-86596063D01*
X109796063Y-86740226D01*
X109683496Y-86908694D01*
X106735000Y-83960199D01*
X106735000Y-83798061D01*
X106695226Y-83598102D01*
X106617205Y-83409744D01*
X106503937Y-83240226D01*
X106359774Y-83096063D01*
X106190256Y-82982795D01*
X106001898Y-82904774D01*
X105801939Y-82865000D01*
X105598061Y-82865000D01*
X105398102Y-82904774D01*
X105209744Y-82982795D01*
X105040226Y-83096063D01*
X104896063Y-83240226D01*
X104782795Y-83409744D01*
X104704774Y-83598102D01*
X104665000Y-83798061D01*
X104665000Y-84001939D01*
X104704774Y-84201898D01*
X104782795Y-84390256D01*
X104896063Y-84559774D01*
X105040226Y-84703937D01*
X105209744Y-84817205D01*
X105398102Y-84895226D01*
X105550798Y-84925599D01*
X110965197Y-90340000D01*
X110003711Y-90340000D01*
X109959774Y-90296063D01*
X109790256Y-90182795D01*
X109601898Y-90104774D01*
X109401939Y-90065000D01*
X109198061Y-90065000D01*
X108998102Y-90104774D01*
X108809744Y-90182795D01*
X108640226Y-90296063D01*
X108596289Y-90340000D01*
X107437322Y-90340000D01*
X107400000Y-90336324D01*
X107362677Y-90340000D01*
X107362667Y-90340000D01*
X107251014Y-90350997D01*
X107107753Y-90394454D01*
X106975723Y-90465026D01*
X106892083Y-90533668D01*
X106859999Y-90559999D01*
X106836201Y-90588997D01*
X105488998Y-91936201D01*
X105460000Y-91959999D01*
X105436202Y-91988997D01*
X105436201Y-91988998D01*
X105365026Y-92075724D01*
X105294454Y-92207754D01*
X105250998Y-92351015D01*
X105236324Y-92500000D01*
X105240001Y-92537332D01*
X105240000Y-98862677D01*
X105236324Y-98900000D01*
X105240000Y-98937322D01*
X105240000Y-98937332D01*
X105240001Y-98937342D01*
X105240000Y-102162677D01*
X105236324Y-102200000D01*
X105240000Y-102237322D01*
X105240000Y-102237332D01*
X105250997Y-102348985D01*
X105285788Y-102463677D01*
X105294454Y-102492246D01*
X105365026Y-102624276D01*
X105396533Y-102662667D01*
X105459999Y-102740001D01*
X105489003Y-102763804D01*
X106636200Y-103911002D01*
X106659999Y-103940001D01*
X106775724Y-104034974D01*
X106907753Y-104105546D01*
X107051014Y-104149003D01*
X107162667Y-104160000D01*
X107162676Y-104160000D01*
X107199999Y-104163676D01*
X107237322Y-104160000D01*
X113085199Y-104160000D01*
X116765000Y-107839802D01*
X116765000Y-107901939D01*
X116804774Y-108101898D01*
X116882795Y-108290256D01*
X116996063Y-108459774D01*
X117140226Y-108603937D01*
X117309744Y-108717205D01*
X117498102Y-108795226D01*
X117698061Y-108835000D01*
X117901939Y-108835000D01*
X118101898Y-108795226D01*
X118290256Y-108717205D01*
X118459774Y-108603937D01*
X118603937Y-108459774D01*
X118717205Y-108290256D01*
X118795226Y-108101898D01*
X118828424Y-107935000D01*
X118901939Y-107935000D01*
X119101898Y-107895226D01*
X119290256Y-107817205D01*
X119459774Y-107703937D01*
X119603937Y-107559774D01*
X119717205Y-107390256D01*
X119795226Y-107201898D01*
X119835000Y-107001939D01*
X119835000Y-106939801D01*
X120612341Y-106162460D01*
X120637322Y-106160000D01*
X120637333Y-106160000D01*
X120748986Y-106149003D01*
X120892247Y-106105546D01*
X121024276Y-106034974D01*
X121140001Y-105940001D01*
X121163804Y-105910997D01*
X122511003Y-104563799D01*
X122540001Y-104540001D01*
X122566332Y-104507917D01*
X122634974Y-104424277D01*
X122705546Y-104292247D01*
X122734976Y-104195226D01*
X122749003Y-104148986D01*
X122760000Y-104037333D01*
X122760000Y-104037323D01*
X122763676Y-104000000D01*
X122760000Y-103962678D01*
X122760000Y-102737322D01*
X122763676Y-102699999D01*
X122760000Y-102662676D01*
X122760000Y-102662667D01*
X122749003Y-102551014D01*
X122705546Y-102407753D01*
X122634974Y-102275724D01*
X122540001Y-102159999D01*
X122510998Y-102136197D01*
X122485001Y-102110200D01*
X122485001Y-99343219D01*
X122496063Y-99359774D01*
X122640226Y-99503937D01*
X122809744Y-99617205D01*
X122998102Y-99695226D01*
X123198061Y-99735000D01*
X123377544Y-99735000D01*
X123365000Y-99798061D01*
X123365000Y-100001939D01*
X123404774Y-100201898D01*
X123482795Y-100390256D01*
X123596063Y-100559774D01*
X123740226Y-100703937D01*
X123909744Y-100817205D01*
X124098102Y-100895226D01*
X124298061Y-100935000D01*
X124501939Y-100935000D01*
X124701898Y-100895226D01*
X124890256Y-100817205D01*
X125059774Y-100703937D01*
X125103711Y-100660000D01*
X136162678Y-100660000D01*
X136200000Y-100663676D01*
X136237322Y-100660000D01*
X136237333Y-100660000D01*
X136348986Y-100649003D01*
X136492247Y-100605546D01*
X136624276Y-100534974D01*
X136740001Y-100440001D01*
X136763804Y-100410997D01*
X138440001Y-98734800D01*
X138440000Y-100596289D01*
X138396063Y-100640226D01*
X138282795Y-100809744D01*
X138204774Y-100998102D01*
X138165000Y-101198061D01*
X138165000Y-101401939D01*
X138204774Y-101601898D01*
X138282795Y-101790256D01*
X138396063Y-101959774D01*
X138540226Y-102103937D01*
X138709744Y-102217205D01*
X138898102Y-102295226D01*
X139098061Y-102335000D01*
X139301939Y-102335000D01*
X139501898Y-102295226D01*
X139690256Y-102217205D01*
X139859774Y-102103937D01*
X140003937Y-101959774D01*
X140117205Y-101790256D01*
X140195226Y-101601898D01*
X140235000Y-101401939D01*
X140235000Y-101198061D01*
X140195226Y-100998102D01*
X140117205Y-100809744D01*
X140003937Y-100640226D01*
X139960000Y-100596289D01*
X139960000Y-98914801D01*
X143039802Y-95835000D01*
X143101939Y-95835000D01*
X143301898Y-95795226D01*
X143490256Y-95717205D01*
X143659774Y-95603937D01*
X143803937Y-95459774D01*
X143917205Y-95290256D01*
X143995226Y-95101898D01*
X144035000Y-94901939D01*
X144035000Y-94839801D01*
X150111004Y-88763798D01*
X150140001Y-88740001D01*
X150234974Y-88624276D01*
X150305546Y-88492247D01*
X150349003Y-88348986D01*
X150360000Y-88237333D01*
X150360000Y-88237332D01*
X150363677Y-88200000D01*
X150360000Y-88162667D01*
X150360000Y-82803711D01*
X150403937Y-82759774D01*
X150517205Y-82590256D01*
X150595226Y-82401898D01*
X150635000Y-82201939D01*
X150635000Y-81998061D01*
X150595226Y-81798102D01*
X150517205Y-81609744D01*
X150403937Y-81440226D01*
X150259774Y-81296063D01*
X150090256Y-81182795D01*
X149901898Y-81104774D01*
X149701939Y-81065000D01*
X149498061Y-81065000D01*
X149298102Y-81104774D01*
X149109744Y-81182795D01*
X148940226Y-81296063D01*
X148796063Y-81440226D01*
X148682795Y-81609744D01*
X148604774Y-81798102D01*
X148565000Y-81998061D01*
X148565000Y-82201939D01*
X148604774Y-82401898D01*
X148682795Y-82590256D01*
X148796063Y-82759774D01*
X148840001Y-82803712D01*
X148840000Y-87885198D01*
X144850000Y-91875199D01*
X144850000Y-76942341D01*
X144980535Y-76855120D01*
X145100090Y-76735565D01*
X145844040Y-76735565D01*
X145911020Y-76975656D01*
X146160048Y-77092756D01*
X146427135Y-77159023D01*
X146702017Y-77171910D01*
X146974133Y-77130922D01*
X147233023Y-77037636D01*
X147348980Y-76975656D01*
X147415960Y-76735565D01*
X146630000Y-75949605D01*
X145844040Y-76735565D01*
X145100090Y-76735565D01*
X145175120Y-76660535D01*
X145328005Y-76431727D01*
X145357692Y-76360057D01*
X145362364Y-76373023D01*
X145424344Y-76488980D01*
X145664435Y-76555960D01*
X146450395Y-75770000D01*
X146809605Y-75770000D01*
X147595565Y-76555960D01*
X147835656Y-76488980D01*
X147952756Y-76239952D01*
X148019023Y-75972865D01*
X148031910Y-75697983D01*
X147990922Y-75425867D01*
X147897636Y-75166977D01*
X147835656Y-75051020D01*
X147595565Y-74984040D01*
X146809605Y-75770000D01*
X146450395Y-75770000D01*
X145664435Y-74984040D01*
X145424344Y-75051020D01*
X145360515Y-75186760D01*
X145328005Y-75108273D01*
X145175120Y-74879465D01*
X144980535Y-74684880D01*
X144751727Y-74531995D01*
X144674485Y-74500000D01*
X144751727Y-74468005D01*
X144980535Y-74315120D01*
X145175120Y-74120535D01*
X145328005Y-73891727D01*
X145360000Y-73814485D01*
X145391995Y-73891727D01*
X145544880Y-74120535D01*
X145739465Y-74315120D01*
X145968273Y-74468005D01*
X146039943Y-74497692D01*
X146026977Y-74502364D01*
X145911020Y-74564344D01*
X145844040Y-74804435D01*
X146630000Y-75590395D01*
X147415960Y-74804435D01*
X147348980Y-74564344D01*
X147213240Y-74500515D01*
X147291727Y-74468005D01*
X147520535Y-74315120D01*
X147715120Y-74120535D01*
X147868005Y-73891727D01*
X147973314Y-73637490D01*
X148027000Y-73367592D01*
X148027000Y-73092408D01*
X147973314Y-72822510D01*
X147868005Y-72568273D01*
X147715120Y-72339465D01*
X147520535Y-72144880D01*
X147291727Y-71991995D01*
X147037490Y-71886686D01*
X146767592Y-71833000D01*
X146492408Y-71833000D01*
X146222510Y-71886686D01*
X145968273Y-71991995D01*
X145739465Y-72144880D01*
X145544880Y-72339465D01*
X145391995Y-72568273D01*
X145360000Y-72645515D01*
X145328005Y-72568273D01*
X145175120Y-72339465D01*
X144980535Y-72144880D01*
X144751727Y-71991995D01*
X144497490Y-71886686D01*
X144227592Y-71833000D01*
X143952408Y-71833000D01*
X143682510Y-71886686D01*
X143428273Y-71991995D01*
X143199465Y-72144880D01*
X143004880Y-72339465D01*
X142851995Y-72568273D01*
X142820000Y-72645515D01*
X142788005Y-72568273D01*
X142635120Y-72339465D01*
X142440535Y-72144880D01*
X142211727Y-71991995D01*
X141957490Y-71886686D01*
X141687592Y-71833000D01*
X141412408Y-71833000D01*
X141142510Y-71886686D01*
X140888273Y-71991995D01*
X140659465Y-72144880D01*
X140464880Y-72339465D01*
X140311995Y-72568273D01*
X140282308Y-72639943D01*
X140277636Y-72626977D01*
X140215656Y-72511020D01*
X139975565Y-72444040D01*
X139189605Y-73230000D01*
X139975565Y-74015960D01*
X140215656Y-73948980D01*
X140279485Y-73813240D01*
X140311995Y-73891727D01*
X140464880Y-74120535D01*
X140659465Y-74315120D01*
X140888273Y-74468005D01*
X140965515Y-74500000D01*
X140888273Y-74531995D01*
X140659465Y-74684880D01*
X140464880Y-74879465D01*
X140311995Y-75108273D01*
X140280000Y-75185515D01*
X140248005Y-75108273D01*
X140095120Y-74879465D01*
X139900535Y-74684880D01*
X139671727Y-74531995D01*
X139600057Y-74502308D01*
X139613023Y-74497636D01*
X139728980Y-74435656D01*
X139795960Y-74195565D01*
X139010000Y-73409605D01*
X138224040Y-74195565D01*
X138291020Y-74435656D01*
X138426760Y-74499485D01*
X138348273Y-74531995D01*
X138119465Y-74684880D01*
X137924880Y-74879465D01*
X137771995Y-75108273D01*
X137740000Y-75185515D01*
X137708005Y-75108273D01*
X137555120Y-74879465D01*
X137360535Y-74684880D01*
X137131727Y-74531995D01*
X137054485Y-74500000D01*
X137131727Y-74468005D01*
X137360535Y-74315120D01*
X137555120Y-74120535D01*
X137708005Y-73891727D01*
X137737692Y-73820057D01*
X137742364Y-73833023D01*
X137804344Y-73948980D01*
X138044435Y-74015960D01*
X138830395Y-73230000D01*
X138044435Y-72444040D01*
X137804344Y-72511020D01*
X137740515Y-72646760D01*
X137708005Y-72568273D01*
X137555120Y-72339465D01*
X137480090Y-72264435D01*
X138224040Y-72264435D01*
X139010000Y-73050395D01*
X139795960Y-72264435D01*
X139728980Y-72024344D01*
X139479952Y-71907244D01*
X139212865Y-71840977D01*
X138937983Y-71828090D01*
X138665867Y-71869078D01*
X138406977Y-71962364D01*
X138291020Y-72024344D01*
X138224040Y-72264435D01*
X137480090Y-72264435D01*
X137360535Y-72144880D01*
X137131727Y-71991995D01*
X136877490Y-71886686D01*
X136607592Y-71833000D01*
X136332408Y-71833000D01*
X136062510Y-71886686D01*
X135808273Y-71991995D01*
X135579465Y-72144880D01*
X135384880Y-72339465D01*
X135231995Y-72568273D01*
X135202308Y-72639943D01*
X135197636Y-72626977D01*
X135135656Y-72511020D01*
X134895565Y-72444040D01*
X134109605Y-73230000D01*
X134895565Y-74015960D01*
X135135656Y-73948980D01*
X135199485Y-73813240D01*
X135231995Y-73891727D01*
X135384880Y-74120535D01*
X135579465Y-74315120D01*
X135808273Y-74468005D01*
X135885515Y-74500000D01*
X135808273Y-74531995D01*
X135579465Y-74684880D01*
X135384880Y-74879465D01*
X135231995Y-75108273D01*
X135200000Y-75185515D01*
X135168005Y-75108273D01*
X135015120Y-74879465D01*
X134820535Y-74684880D01*
X134591727Y-74531995D01*
X134520057Y-74502308D01*
X134533023Y-74497636D01*
X134648980Y-74435656D01*
X134715960Y-74195565D01*
X133930000Y-73409605D01*
X133144040Y-74195565D01*
X133211020Y-74435656D01*
X133346760Y-74499485D01*
X133268273Y-74531995D01*
X133039465Y-74684880D01*
X132844880Y-74879465D01*
X132691995Y-75108273D01*
X132660000Y-75185515D01*
X132628005Y-75108273D01*
X132475120Y-74879465D01*
X132280535Y-74684880D01*
X132051727Y-74531995D01*
X131974485Y-74500000D01*
X132051727Y-74468005D01*
X132280535Y-74315120D01*
X132475120Y-74120535D01*
X132628005Y-73891727D01*
X132657692Y-73820057D01*
X132662364Y-73833023D01*
X132724344Y-73948980D01*
X132964435Y-74015960D01*
X133750395Y-73230000D01*
X132964435Y-72444040D01*
X132724344Y-72511020D01*
X132660515Y-72646760D01*
X132628005Y-72568273D01*
X132475120Y-72339465D01*
X132400090Y-72264435D01*
X133144040Y-72264435D01*
X133930000Y-73050395D01*
X134715960Y-72264435D01*
X134648980Y-72024344D01*
X134399952Y-71907244D01*
X134132865Y-71840977D01*
X133857983Y-71828090D01*
X133585867Y-71869078D01*
X133326977Y-71962364D01*
X133211020Y-72024344D01*
X133144040Y-72264435D01*
X132400090Y-72264435D01*
X132280535Y-72144880D01*
X132051727Y-71991995D01*
X131797490Y-71886686D01*
X131527592Y-71833000D01*
X131252408Y-71833000D01*
X130982510Y-71886686D01*
X130728273Y-71991995D01*
X130499465Y-72144880D01*
X130304880Y-72339465D01*
X130151995Y-72568273D01*
X130120000Y-72645515D01*
X130088005Y-72568273D01*
X129935120Y-72339465D01*
X129740535Y-72144880D01*
X129511727Y-71991995D01*
X129257490Y-71886686D01*
X128987592Y-71833000D01*
X128712408Y-71833000D01*
X128442510Y-71886686D01*
X128188273Y-71991995D01*
X127959465Y-72144880D01*
X127764880Y-72339465D01*
X127611995Y-72568273D01*
X127580000Y-72645515D01*
X127548005Y-72568273D01*
X127395120Y-72339465D01*
X127200535Y-72144880D01*
X126971727Y-71991995D01*
X126717490Y-71886686D01*
X126447592Y-71833000D01*
X126172408Y-71833000D01*
X125902510Y-71886686D01*
X125648273Y-71991995D01*
X125419465Y-72144880D01*
X125224880Y-72339465D01*
X125071995Y-72568273D01*
X125040000Y-72645515D01*
X125008005Y-72568273D01*
X124855120Y-72339465D01*
X124660535Y-72144880D01*
X124431727Y-71991995D01*
X124177490Y-71886686D01*
X123907592Y-71833000D01*
X123632408Y-71833000D01*
X123362510Y-71886686D01*
X123108273Y-71991995D01*
X122879465Y-72144880D01*
X122684880Y-72339465D01*
X122531995Y-72568273D01*
X122502308Y-72639943D01*
X122497636Y-72626977D01*
X122435656Y-72511020D01*
X122195565Y-72444040D01*
X121409605Y-73230000D01*
X122195565Y-74015960D01*
X122435656Y-73948980D01*
X122499485Y-73813240D01*
X122531995Y-73891727D01*
X122684880Y-74120535D01*
X122879465Y-74315120D01*
X123108273Y-74468005D01*
X123185515Y-74500000D01*
X123108273Y-74531995D01*
X122879465Y-74684880D01*
X122684880Y-74879465D01*
X122531995Y-75108273D01*
X122500000Y-75185515D01*
X122468005Y-75108273D01*
X122315120Y-74879465D01*
X122120535Y-74684880D01*
X121891727Y-74531995D01*
X121820057Y-74502308D01*
X121833023Y-74497636D01*
X121948980Y-74435656D01*
X122015960Y-74195565D01*
X121230000Y-73409605D01*
X120444040Y-74195565D01*
X120511020Y-74435656D01*
X120646760Y-74499485D01*
X120568273Y-74531995D01*
X120339465Y-74684880D01*
X120144880Y-74879465D01*
X119991995Y-75108273D01*
X119960000Y-75185515D01*
X119928005Y-75108273D01*
X119775120Y-74879465D01*
X119580535Y-74684880D01*
X119351727Y-74531995D01*
X119274485Y-74500000D01*
X119351727Y-74468005D01*
X119580535Y-74315120D01*
X119775120Y-74120535D01*
X119928005Y-73891727D01*
X119957692Y-73820057D01*
X119962364Y-73833023D01*
X120024344Y-73948980D01*
X120264435Y-74015960D01*
X121050395Y-73230000D01*
X120264435Y-72444040D01*
X120024344Y-72511020D01*
X119960515Y-72646760D01*
X119928005Y-72568273D01*
X119775120Y-72339465D01*
X119700090Y-72264435D01*
X120444040Y-72264435D01*
X121230000Y-73050395D01*
X122015960Y-72264435D01*
X121948980Y-72024344D01*
X121699952Y-71907244D01*
X121432865Y-71840977D01*
X121157983Y-71828090D01*
X120885867Y-71869078D01*
X120626977Y-71962364D01*
X120511020Y-72024344D01*
X120444040Y-72264435D01*
X119700090Y-72264435D01*
X119580535Y-72144880D01*
X119351727Y-71991995D01*
X119097490Y-71886686D01*
X118827592Y-71833000D01*
X118552408Y-71833000D01*
X118282510Y-71886686D01*
X118249531Y-71900346D01*
X118237973Y-71878723D01*
X118143000Y-71762998D01*
X118114003Y-71739201D01*
X118034802Y-71660000D01*
X153967721Y-71660000D01*
X154065424Y-71669580D01*
X154128356Y-71688580D01*
X154186405Y-71719445D01*
X154237343Y-71760989D01*
X154279248Y-71811644D01*
X154310515Y-71869471D01*
X154329956Y-71932272D01*
X154340001Y-72027845D01*
X154340001Y-93684403D01*
X154235521Y-93628558D01*
X154022027Y-93563795D01*
X153800000Y-93541927D01*
X153200000Y-93541927D01*
X152977973Y-93563795D01*
X152764479Y-93628558D01*
X152567721Y-93733727D01*
X152395262Y-93875261D01*
X152358546Y-93920000D01*
X150461454Y-93920000D01*
X150424738Y-93875261D01*
X150252279Y-93733727D01*
X150055521Y-93628558D01*
X149842027Y-93563795D01*
X149620000Y-93541927D01*
X149020000Y-93541927D01*
X148797973Y-93563795D01*
X148584479Y-93628558D01*
X148387721Y-93733727D01*
X148215262Y-93875261D01*
X148073728Y-94047720D01*
X147968559Y-94244478D01*
X147903796Y-94457972D01*
X147881928Y-94679999D01*
X147881928Y-94680001D01*
X147903796Y-94902028D01*
X147968559Y-95115522D01*
X148073728Y-95312280D01*
X148090313Y-95332489D01*
X148090312Y-102667512D01*
X148073728Y-102687720D01*
X147968559Y-102884478D01*
X147903796Y-103097972D01*
X147881928Y-103319999D01*
X147881928Y-103320001D01*
X147903796Y-103542028D01*
X147968559Y-103755522D01*
X148073728Y-103952280D01*
X148215262Y-104124739D01*
X148387721Y-104266273D01*
X148584479Y-104371442D01*
X148797973Y-104436205D01*
X149020000Y-104458073D01*
X149620000Y-104458073D01*
X149842027Y-104436205D01*
X150055521Y-104371442D01*
X150252279Y-104266273D01*
X150424738Y-104124739D01*
X150461454Y-104080000D01*
X152358546Y-104080000D01*
X152395262Y-104124739D01*
X152567721Y-104266273D01*
X152764479Y-104371442D01*
X152977973Y-104436205D01*
X153200000Y-104458073D01*
X153800000Y-104458073D01*
X154022027Y-104436205D01*
X154235521Y-104371442D01*
X154340000Y-104315597D01*
X154340000Y-125967721D01*
X154330420Y-126065424D01*
X154311420Y-126128357D01*
X154280554Y-126186406D01*
X154239011Y-126237343D01*
X154188356Y-126279248D01*
X154130529Y-126310515D01*
X154067728Y-126329956D01*
X153972165Y-126340000D01*
X91032279Y-126340000D01*
X90934576Y-126330420D01*
X90871643Y-126311420D01*
X90813594Y-126280554D01*
X90762657Y-126239011D01*
X90720752Y-126188356D01*
X90689485Y-126130529D01*
X90670044Y-126067728D01*
X90660000Y-125972165D01*
X90660000Y-72032279D01*
X90669580Y-71934576D01*
X90688580Y-71871644D01*
X90719445Y-71813595D01*
X90760989Y-71762657D01*
X90811644Y-71720752D01*
X90869471Y-71689485D01*
X90932272Y-71670044D01*
X91027835Y-71660000D01*
X99265199Y-71660000D01*
X98962061Y-71963138D01*
G37*
%TD.AperFunction*%
D18*
X108640226Y-91903937D02*
X108809744Y-92017205D01*
X108998102Y-92095226D01*
X109198061Y-92135000D01*
X109401939Y-92135000D01*
X109601898Y-92095226D01*
X109790256Y-92017205D01*
X109959774Y-91903937D01*
X110003711Y-91860000D01*
X110016033Y-91860000D01*
X109982795Y-91909744D01*
X109904774Y-92098102D01*
X109865000Y-92298061D01*
X109865000Y-92501939D01*
X109904774Y-92701898D01*
X109982795Y-92890256D01*
X110096063Y-93059774D01*
X110240226Y-93203937D01*
X110409744Y-93317205D01*
X110598102Y-93395226D01*
X110798061Y-93435000D01*
X110860199Y-93435000D01*
X111636200Y-94211002D01*
X111659999Y-94240001D01*
X111775724Y-94334974D01*
X111907753Y-94405546D01*
X112051014Y-94449003D01*
X112162667Y-94460000D01*
X112162675Y-94460000D01*
X112200000Y-94463676D01*
X112237325Y-94460000D01*
X112294198Y-94460000D01*
X112240226Y-94496063D01*
X112096063Y-94640226D01*
X111982795Y-94809744D01*
X111904774Y-94998102D01*
X111865000Y-95198061D01*
X111865000Y-95401939D01*
X111904774Y-95601898D01*
X111982795Y-95790256D01*
X112096063Y-95959774D01*
X112240226Y-96103937D01*
X112409744Y-96217205D01*
X112598102Y-96295226D01*
X112640000Y-96303560D01*
X112640001Y-99696440D01*
X112598102Y-99704774D01*
X112409744Y-99782795D01*
X112240226Y-99896063D01*
X112096063Y-100040226D01*
X111982795Y-100209744D01*
X111904774Y-100398102D01*
X111865000Y-100598061D01*
X111865000Y-100801939D01*
X111904774Y-101001898D01*
X111982795Y-101190256D01*
X112096063Y-101359774D01*
X112240226Y-101503937D01*
X112409744Y-101617205D01*
X112598102Y-101695226D01*
X112798061Y-101735000D01*
X113001939Y-101735000D01*
X113201898Y-101695226D01*
X113390256Y-101617205D01*
X113559774Y-101503937D01*
X113703937Y-101359774D01*
X113817205Y-101190256D01*
X113895226Y-101001898D01*
X113933696Y-100808497D01*
X116136201Y-103011003D01*
X116159999Y-103040001D01*
X116188997Y-103063799D01*
X116275723Y-103134974D01*
X116393750Y-103198061D01*
X116407753Y-103205546D01*
X116551014Y-103249003D01*
X116662667Y-103260000D01*
X116662677Y-103260000D01*
X116700000Y-103263676D01*
X116737323Y-103260000D01*
X117462678Y-103260000D01*
X117500000Y-103263676D01*
X117537322Y-103260000D01*
X117537333Y-103260000D01*
X117648986Y-103249003D01*
X117792247Y-103205546D01*
X117924276Y-103134974D01*
X118040001Y-103040001D01*
X118063803Y-103010998D01*
X118540001Y-102534801D01*
X118540001Y-102596288D01*
X118496063Y-102640226D01*
X118382795Y-102809744D01*
X118304774Y-102998102D01*
X118265000Y-103198061D01*
X118265000Y-103401939D01*
X118304774Y-103601898D01*
X118382795Y-103790256D01*
X118496063Y-103959774D01*
X118640226Y-104103937D01*
X118809744Y-104217205D01*
X118998102Y-104295226D01*
X119198061Y-104335000D01*
X119401939Y-104335000D01*
X119601898Y-104295226D01*
X119790256Y-104217205D01*
X119959774Y-104103937D01*
X120103937Y-103959774D01*
X120183409Y-103840836D01*
X120196063Y-103859774D01*
X120340226Y-104003937D01*
X120509744Y-104117205D01*
X120698102Y-104195226D01*
X120724685Y-104200514D01*
X120287659Y-104637539D01*
X120262676Y-104640000D01*
X120262667Y-104640000D01*
X120151014Y-104650997D01*
X120007753Y-104694454D01*
X119875724Y-104765026D01*
X119759999Y-104859999D01*
X119736201Y-104888997D01*
X118760199Y-105865000D01*
X118698061Y-105865000D01*
X118498102Y-105904774D01*
X118309744Y-105982795D01*
X118140226Y-106096063D01*
X117996063Y-106240226D01*
X117882795Y-106409744D01*
X117804774Y-106598102D01*
X117782895Y-106708094D01*
X113963804Y-102889003D01*
X113940001Y-102859999D01*
X113824276Y-102765026D01*
X113692247Y-102694454D01*
X113548986Y-102650997D01*
X113437333Y-102640000D01*
X113437322Y-102640000D01*
X113400000Y-102636324D01*
X113362678Y-102640000D01*
X107514802Y-102640000D01*
X106760000Y-101885199D01*
X106760000Y-99760000D01*
X108996289Y-99760000D01*
X109040226Y-99803937D01*
X109209744Y-99917205D01*
X109398102Y-99995226D01*
X109598061Y-100035000D01*
X109801939Y-100035000D01*
X110001898Y-99995226D01*
X110190256Y-99917205D01*
X110359774Y-99803937D01*
X110503937Y-99659774D01*
X110617205Y-99490256D01*
X110695226Y-99301898D01*
X110735000Y-99101939D01*
X110735000Y-98898061D01*
X110695226Y-98698102D01*
X110617205Y-98509744D01*
X110503937Y-98340226D01*
X110359774Y-98196063D01*
X110190256Y-98082795D01*
X110001898Y-98004774D01*
X109801939Y-97965000D01*
X109598061Y-97965000D01*
X109398102Y-98004774D01*
X109209744Y-98082795D01*
X109040226Y-98196063D01*
X108996289Y-98240000D01*
X106760000Y-98240000D01*
X106760000Y-92814801D01*
X107714802Y-91860000D01*
X108596289Y-91860000D01*
X108640226Y-91903937D01*
%TA.AperFunction,Conductor*%
D19*
G36*
X108640226Y-91903937D02*
G01*
X108809744Y-92017205D01*
X108998102Y-92095226D01*
X109198061Y-92135000D01*
X109401939Y-92135000D01*
X109601898Y-92095226D01*
X109790256Y-92017205D01*
X109959774Y-91903937D01*
X110003711Y-91860000D01*
X110016033Y-91860000D01*
X109982795Y-91909744D01*
X109904774Y-92098102D01*
X109865000Y-92298061D01*
X109865000Y-92501939D01*
X109904774Y-92701898D01*
X109982795Y-92890256D01*
X110096063Y-93059774D01*
X110240226Y-93203937D01*
X110409744Y-93317205D01*
X110598102Y-93395226D01*
X110798061Y-93435000D01*
X110860199Y-93435000D01*
X111636200Y-94211002D01*
X111659999Y-94240001D01*
X111775724Y-94334974D01*
X111907753Y-94405546D01*
X112051014Y-94449003D01*
X112162667Y-94460000D01*
X112162675Y-94460000D01*
X112200000Y-94463676D01*
X112237325Y-94460000D01*
X112294198Y-94460000D01*
X112240226Y-94496063D01*
X112096063Y-94640226D01*
X111982795Y-94809744D01*
X111904774Y-94998102D01*
X111865000Y-95198061D01*
X111865000Y-95401939D01*
X111904774Y-95601898D01*
X111982795Y-95790256D01*
X112096063Y-95959774D01*
X112240226Y-96103937D01*
X112409744Y-96217205D01*
X112598102Y-96295226D01*
X112640000Y-96303560D01*
X112640001Y-99696440D01*
X112598102Y-99704774D01*
X112409744Y-99782795D01*
X112240226Y-99896063D01*
X112096063Y-100040226D01*
X111982795Y-100209744D01*
X111904774Y-100398102D01*
X111865000Y-100598061D01*
X111865000Y-100801939D01*
X111904774Y-101001898D01*
X111982795Y-101190256D01*
X112096063Y-101359774D01*
X112240226Y-101503937D01*
X112409744Y-101617205D01*
X112598102Y-101695226D01*
X112798061Y-101735000D01*
X113001939Y-101735000D01*
X113201898Y-101695226D01*
X113390256Y-101617205D01*
X113559774Y-101503937D01*
X113703937Y-101359774D01*
X113817205Y-101190256D01*
X113895226Y-101001898D01*
X113933696Y-100808497D01*
X116136201Y-103011003D01*
X116159999Y-103040001D01*
X116188997Y-103063799D01*
X116275723Y-103134974D01*
X116393750Y-103198061D01*
X116407753Y-103205546D01*
X116551014Y-103249003D01*
X116662667Y-103260000D01*
X116662677Y-103260000D01*
X116700000Y-103263676D01*
X116737323Y-103260000D01*
X117462678Y-103260000D01*
X117500000Y-103263676D01*
X117537322Y-103260000D01*
X117537333Y-103260000D01*
X117648986Y-103249003D01*
X117792247Y-103205546D01*
X117924276Y-103134974D01*
X118040001Y-103040001D01*
X118063803Y-103010998D01*
X118540001Y-102534801D01*
X118540001Y-102596288D01*
X118496063Y-102640226D01*
X118382795Y-102809744D01*
X118304774Y-102998102D01*
X118265000Y-103198061D01*
X118265000Y-103401939D01*
X118304774Y-103601898D01*
X118382795Y-103790256D01*
X118496063Y-103959774D01*
X118640226Y-104103937D01*
X118809744Y-104217205D01*
X118998102Y-104295226D01*
X119198061Y-104335000D01*
X119401939Y-104335000D01*
X119601898Y-104295226D01*
X119790256Y-104217205D01*
X119959774Y-104103937D01*
X120103937Y-103959774D01*
X120183409Y-103840836D01*
X120196063Y-103859774D01*
X120340226Y-104003937D01*
X120509744Y-104117205D01*
X120698102Y-104195226D01*
X120724685Y-104200514D01*
X120287659Y-104637539D01*
X120262676Y-104640000D01*
X120262667Y-104640000D01*
X120151014Y-104650997D01*
X120007753Y-104694454D01*
X119875724Y-104765026D01*
X119759999Y-104859999D01*
X119736201Y-104888997D01*
X118760199Y-105865000D01*
X118698061Y-105865000D01*
X118498102Y-105904774D01*
X118309744Y-105982795D01*
X118140226Y-106096063D01*
X117996063Y-106240226D01*
X117882795Y-106409744D01*
X117804774Y-106598102D01*
X117782895Y-106708094D01*
X113963804Y-102889003D01*
X113940001Y-102859999D01*
X113824276Y-102765026D01*
X113692247Y-102694454D01*
X113548986Y-102650997D01*
X113437333Y-102640000D01*
X113437322Y-102640000D01*
X113400000Y-102636324D01*
X113362678Y-102640000D01*
X107514802Y-102640000D01*
X106760000Y-101885199D01*
X106760000Y-99760000D01*
X108996289Y-99760000D01*
X109040226Y-99803937D01*
X109209744Y-99917205D01*
X109398102Y-99995226D01*
X109598061Y-100035000D01*
X109801939Y-100035000D01*
X110001898Y-99995226D01*
X110190256Y-99917205D01*
X110359774Y-99803937D01*
X110503937Y-99659774D01*
X110617205Y-99490256D01*
X110695226Y-99301898D01*
X110735000Y-99101939D01*
X110735000Y-98898061D01*
X110695226Y-98698102D01*
X110617205Y-98509744D01*
X110503937Y-98340226D01*
X110359774Y-98196063D01*
X110190256Y-98082795D01*
X110001898Y-98004774D01*
X109801939Y-97965000D01*
X109598061Y-97965000D01*
X109398102Y-98004774D01*
X109209744Y-98082795D01*
X109040226Y-98196063D01*
X108996289Y-98240000D01*
X106760000Y-98240000D01*
X106760000Y-92814801D01*
X107714802Y-91860000D01*
X108596289Y-91860000D01*
X108640226Y-91903937D01*
G37*
%TD.AperFunction*%
D18*
X142851995Y-76431727D02*
X143004880Y-76660535D01*
X143199465Y-76855120D01*
X143330001Y-76942342D01*
X143330000Y-91695198D01*
X135885199Y-99140000D01*
X125103711Y-99140000D01*
X125059774Y-99096063D01*
X124890256Y-98982795D01*
X124701898Y-98904774D01*
X124501939Y-98865000D01*
X124322456Y-98865000D01*
X124335000Y-98801939D01*
X124335000Y-98598061D01*
X124295226Y-98398102D01*
X124231221Y-98243581D01*
X125714803Y-96760000D01*
X135762678Y-96760000D01*
X135800000Y-96763676D01*
X135837322Y-96760000D01*
X135837333Y-96760000D01*
X135948986Y-96749003D01*
X136092247Y-96705546D01*
X136224276Y-96634974D01*
X136340001Y-96540001D01*
X136363804Y-96510997D01*
X139511008Y-93363795D01*
X139540001Y-93340001D01*
X139563795Y-93311008D01*
X139563799Y-93311004D01*
X139634973Y-93224277D01*
X139634974Y-93224276D01*
X139705546Y-93092247D01*
X139749003Y-92948986D01*
X139760000Y-92837333D01*
X139760000Y-92837324D01*
X139763676Y-92800001D01*
X139760000Y-92762678D01*
X139760000Y-88901865D01*
X139770000Y-88800335D01*
X139770000Y-88800325D01*
X139773676Y-88763003D01*
X139770000Y-88725680D01*
X139770000Y-76942341D01*
X139900535Y-76855120D01*
X140095120Y-76660535D01*
X140248005Y-76431727D01*
X140280000Y-76354485D01*
X140311995Y-76431727D01*
X140464880Y-76660535D01*
X140659465Y-76855120D01*
X140840001Y-76975751D01*
X140840000Y-90596289D01*
X140796063Y-90640226D01*
X140682795Y-90809744D01*
X140604774Y-90998102D01*
X140565000Y-91198061D01*
X140565000Y-91401939D01*
X140604774Y-91601898D01*
X140682795Y-91790256D01*
X140796063Y-91959774D01*
X140940226Y-92103937D01*
X141109744Y-92217205D01*
X141298102Y-92295226D01*
X141498061Y-92335000D01*
X141701939Y-92335000D01*
X141901898Y-92295226D01*
X142090256Y-92217205D01*
X142259774Y-92103937D01*
X142403937Y-91959774D01*
X142517205Y-91790256D01*
X142595226Y-91601898D01*
X142635000Y-91401939D01*
X142635000Y-91198061D01*
X142595226Y-90998102D01*
X142517205Y-90809744D01*
X142403937Y-90640226D01*
X142360000Y-90596289D01*
X142360000Y-76908932D01*
X142440535Y-76855120D01*
X142635120Y-76660535D01*
X142788005Y-76431727D01*
X142820000Y-76354485D01*
X142851995Y-76431727D01*
%TA.AperFunction,Conductor*%
D19*
G36*
X142851995Y-76431727D02*
G01*
X143004880Y-76660535D01*
X143199465Y-76855120D01*
X143330001Y-76942342D01*
X143330000Y-91695198D01*
X135885199Y-99140000D01*
X125103711Y-99140000D01*
X125059774Y-99096063D01*
X124890256Y-98982795D01*
X124701898Y-98904774D01*
X124501939Y-98865000D01*
X124322456Y-98865000D01*
X124335000Y-98801939D01*
X124335000Y-98598061D01*
X124295226Y-98398102D01*
X124231221Y-98243581D01*
X125714803Y-96760000D01*
X135762678Y-96760000D01*
X135800000Y-96763676D01*
X135837322Y-96760000D01*
X135837333Y-96760000D01*
X135948986Y-96749003D01*
X136092247Y-96705546D01*
X136224276Y-96634974D01*
X136340001Y-96540001D01*
X136363804Y-96510997D01*
X139511008Y-93363795D01*
X139540001Y-93340001D01*
X139563795Y-93311008D01*
X139563799Y-93311004D01*
X139634973Y-93224277D01*
X139634974Y-93224276D01*
X139705546Y-93092247D01*
X139749003Y-92948986D01*
X139760000Y-92837333D01*
X139760000Y-92837324D01*
X139763676Y-92800001D01*
X139760000Y-92762678D01*
X139760000Y-88901865D01*
X139770000Y-88800335D01*
X139770000Y-88800325D01*
X139773676Y-88763003D01*
X139770000Y-88725680D01*
X139770000Y-76942341D01*
X139900535Y-76855120D01*
X140095120Y-76660535D01*
X140248005Y-76431727D01*
X140280000Y-76354485D01*
X140311995Y-76431727D01*
X140464880Y-76660535D01*
X140659465Y-76855120D01*
X140840001Y-76975751D01*
X140840000Y-90596289D01*
X140796063Y-90640226D01*
X140682795Y-90809744D01*
X140604774Y-90998102D01*
X140565000Y-91198061D01*
X140565000Y-91401939D01*
X140604774Y-91601898D01*
X140682795Y-91790256D01*
X140796063Y-91959774D01*
X140940226Y-92103937D01*
X141109744Y-92217205D01*
X141298102Y-92295226D01*
X141498061Y-92335000D01*
X141701939Y-92335000D01*
X141901898Y-92295226D01*
X142090256Y-92217205D01*
X142259774Y-92103937D01*
X142403937Y-91959774D01*
X142517205Y-91790256D01*
X142595226Y-91601898D01*
X142635000Y-91401939D01*
X142635000Y-91198061D01*
X142595226Y-90998102D01*
X142517205Y-90809744D01*
X142403937Y-90640226D01*
X142360000Y-90596289D01*
X142360000Y-76908932D01*
X142440535Y-76855120D01*
X142635120Y-76660535D01*
X142788005Y-76431727D01*
X142820000Y-76354485D01*
X142851995Y-76431727D01*
G37*
%TD.AperFunction*%
D18*
X137771995Y-76431727D02*
X137924880Y-76660535D01*
X138119465Y-76855120D01*
X138250000Y-76942341D01*
X138250001Y-88634130D01*
X138240000Y-88735670D01*
X138240000Y-88735680D01*
X138236324Y-88773002D01*
X138240000Y-88810325D01*
X138240001Y-92485196D01*
X135485199Y-95240000D01*
X125437322Y-95240000D01*
X125399999Y-95236324D01*
X125362676Y-95240000D01*
X125362667Y-95240000D01*
X125251014Y-95250997D01*
X125107753Y-95294454D01*
X124975724Y-95365026D01*
X124975722Y-95365027D01*
X124975723Y-95365027D01*
X124888996Y-95436201D01*
X124888992Y-95436205D01*
X124859999Y-95459999D01*
X124836205Y-95488992D01*
X122788998Y-97536201D01*
X122760000Y-97559999D01*
X122736202Y-97588997D01*
X122736201Y-97588998D01*
X122665026Y-97675724D01*
X122640792Y-97721063D01*
X122594454Y-97807753D01*
X122550997Y-97951014D01*
X122547252Y-97989037D01*
X122496063Y-98040226D01*
X122485001Y-98056781D01*
X122485001Y-96389800D01*
X128011003Y-90863799D01*
X128040001Y-90840001D01*
X128093347Y-90774999D01*
X128134974Y-90724277D01*
X128205546Y-90592247D01*
X128231176Y-90507754D01*
X128249003Y-90448986D01*
X128260000Y-90337333D01*
X128260000Y-90337323D01*
X128263676Y-90300000D01*
X128260000Y-90262677D01*
X128260000Y-86317150D01*
X128409744Y-86417205D01*
X128598102Y-86495226D01*
X128798061Y-86535000D01*
X129001939Y-86535000D01*
X129165000Y-86502565D01*
X129165000Y-86601939D01*
X129204774Y-86801898D01*
X129282795Y-86990256D01*
X129396063Y-87159774D01*
X129540226Y-87303937D01*
X129709744Y-87417205D01*
X129898102Y-87495226D01*
X130098061Y-87535000D01*
X130301939Y-87535000D01*
X130501898Y-87495226D01*
X130690256Y-87417205D01*
X130859774Y-87303937D01*
X130910963Y-87252748D01*
X130948986Y-87249003D01*
X131092247Y-87205546D01*
X131224276Y-87134974D01*
X131340001Y-87040001D01*
X131363803Y-87010998D01*
X131901004Y-86473798D01*
X131930001Y-86450001D01*
X131975587Y-86394454D01*
X132024974Y-86334277D01*
X132095546Y-86202247D01*
X132096803Y-86198102D01*
X132139003Y-86058986D01*
X132150000Y-85947333D01*
X132150000Y-85947323D01*
X132153676Y-85910001D01*
X132150000Y-85872678D01*
X132150000Y-76942341D01*
X132280535Y-76855120D01*
X132475120Y-76660535D01*
X132628005Y-76431727D01*
X132660000Y-76354485D01*
X132691995Y-76431727D01*
X132844880Y-76660535D01*
X133039465Y-76855120D01*
X133140001Y-76922296D01*
X133140000Y-92096289D01*
X133096063Y-92140226D01*
X132982795Y-92309744D01*
X132904774Y-92498102D01*
X132865000Y-92698061D01*
X132865000Y-92901939D01*
X132904774Y-93101898D01*
X132982795Y-93290256D01*
X133096063Y-93459774D01*
X133240226Y-93603937D01*
X133409744Y-93717205D01*
X133598102Y-93795226D01*
X133798061Y-93835000D01*
X134001939Y-93835000D01*
X134201898Y-93795226D01*
X134390256Y-93717205D01*
X134559774Y-93603937D01*
X134703937Y-93459774D01*
X134817205Y-93290256D01*
X134895226Y-93101898D01*
X134935000Y-92901939D01*
X134935000Y-92698061D01*
X134895226Y-92498102D01*
X134817205Y-92309744D01*
X134703937Y-92140226D01*
X134660000Y-92096289D01*
X134660000Y-76962386D01*
X134820535Y-76855120D01*
X135015120Y-76660535D01*
X135168005Y-76431727D01*
X135200000Y-76354485D01*
X135231995Y-76431727D01*
X135384880Y-76660535D01*
X135579465Y-76855120D01*
X135808273Y-77008005D01*
X136062510Y-77113314D01*
X136332408Y-77167000D01*
X136607592Y-77167000D01*
X136877490Y-77113314D01*
X137131727Y-77008005D01*
X137360535Y-76855120D01*
X137555120Y-76660535D01*
X137708005Y-76431727D01*
X137740000Y-76354485D01*
X137771995Y-76431727D01*
%TA.AperFunction,Conductor*%
D19*
G36*
X137771995Y-76431727D02*
G01*
X137924880Y-76660535D01*
X138119465Y-76855120D01*
X138250000Y-76942341D01*
X138250001Y-88634130D01*
X138240000Y-88735670D01*
X138240000Y-88735680D01*
X138236324Y-88773002D01*
X138240000Y-88810325D01*
X138240001Y-92485196D01*
X135485199Y-95240000D01*
X125437322Y-95240000D01*
X125399999Y-95236324D01*
X125362676Y-95240000D01*
X125362667Y-95240000D01*
X125251014Y-95250997D01*
X125107753Y-95294454D01*
X124975724Y-95365026D01*
X124975722Y-95365027D01*
X124975723Y-95365027D01*
X124888996Y-95436201D01*
X124888992Y-95436205D01*
X124859999Y-95459999D01*
X124836205Y-95488992D01*
X122788998Y-97536201D01*
X122760000Y-97559999D01*
X122736202Y-97588997D01*
X122736201Y-97588998D01*
X122665026Y-97675724D01*
X122640792Y-97721063D01*
X122594454Y-97807753D01*
X122550997Y-97951014D01*
X122547252Y-97989037D01*
X122496063Y-98040226D01*
X122485001Y-98056781D01*
X122485001Y-96389800D01*
X128011003Y-90863799D01*
X128040001Y-90840001D01*
X128093347Y-90774999D01*
X128134974Y-90724277D01*
X128205546Y-90592247D01*
X128231176Y-90507754D01*
X128249003Y-90448986D01*
X128260000Y-90337333D01*
X128260000Y-90337323D01*
X128263676Y-90300000D01*
X128260000Y-90262677D01*
X128260000Y-86317150D01*
X128409744Y-86417205D01*
X128598102Y-86495226D01*
X128798061Y-86535000D01*
X129001939Y-86535000D01*
X129165000Y-86502565D01*
X129165000Y-86601939D01*
X129204774Y-86801898D01*
X129282795Y-86990256D01*
X129396063Y-87159774D01*
X129540226Y-87303937D01*
X129709744Y-87417205D01*
X129898102Y-87495226D01*
X130098061Y-87535000D01*
X130301939Y-87535000D01*
X130501898Y-87495226D01*
X130690256Y-87417205D01*
X130859774Y-87303937D01*
X130910963Y-87252748D01*
X130948986Y-87249003D01*
X131092247Y-87205546D01*
X131224276Y-87134974D01*
X131340001Y-87040001D01*
X131363803Y-87010998D01*
X131901004Y-86473798D01*
X131930001Y-86450001D01*
X131975587Y-86394454D01*
X132024974Y-86334277D01*
X132095546Y-86202247D01*
X132096803Y-86198102D01*
X132139003Y-86058986D01*
X132150000Y-85947333D01*
X132150000Y-85947323D01*
X132153676Y-85910001D01*
X132150000Y-85872678D01*
X132150000Y-76942341D01*
X132280535Y-76855120D01*
X132475120Y-76660535D01*
X132628005Y-76431727D01*
X132660000Y-76354485D01*
X132691995Y-76431727D01*
X132844880Y-76660535D01*
X133039465Y-76855120D01*
X133140001Y-76922296D01*
X133140000Y-92096289D01*
X133096063Y-92140226D01*
X132982795Y-92309744D01*
X132904774Y-92498102D01*
X132865000Y-92698061D01*
X132865000Y-92901939D01*
X132904774Y-93101898D01*
X132982795Y-93290256D01*
X133096063Y-93459774D01*
X133240226Y-93603937D01*
X133409744Y-93717205D01*
X133598102Y-93795226D01*
X133798061Y-93835000D01*
X134001939Y-93835000D01*
X134201898Y-93795226D01*
X134390256Y-93717205D01*
X134559774Y-93603937D01*
X134703937Y-93459774D01*
X134817205Y-93290256D01*
X134895226Y-93101898D01*
X134935000Y-92901939D01*
X134935000Y-92698061D01*
X134895226Y-92498102D01*
X134817205Y-92309744D01*
X134703937Y-92140226D01*
X134660000Y-92096289D01*
X134660000Y-76962386D01*
X134820535Y-76855120D01*
X135015120Y-76660535D01*
X135168005Y-76431727D01*
X135200000Y-76354485D01*
X135231995Y-76431727D01*
X135384880Y-76660535D01*
X135579465Y-76855120D01*
X135808273Y-77008005D01*
X136062510Y-77113314D01*
X136332408Y-77167000D01*
X136607592Y-77167000D01*
X136877490Y-77113314D01*
X137131727Y-77008005D01*
X137360535Y-76855120D01*
X137555120Y-76660535D01*
X137708005Y-76431727D01*
X137740000Y-76354485D01*
X137771995Y-76431727D01*
G37*
%TD.AperFunction*%
D18*
X128380048Y-77092756D02*
X128647135Y-77159023D01*
X128922017Y-77171910D01*
X129194133Y-77130922D01*
X129340000Y-77078362D01*
X129340000Y-78462677D01*
X129336324Y-78500000D01*
X129340000Y-78537322D01*
X129340000Y-78537332D01*
X129350997Y-78648985D01*
X129373449Y-78722999D01*
X129394454Y-78792246D01*
X129465026Y-78924276D01*
X129486969Y-78951013D01*
X129559999Y-79040001D01*
X129589002Y-79063803D01*
X129940001Y-79414803D01*
X129940000Y-83385197D01*
X128860198Y-84465000D01*
X128798061Y-84465000D01*
X128598102Y-84504774D01*
X128409744Y-84582795D01*
X128260000Y-84682850D01*
X128260000Y-77036306D01*
X128380048Y-77092756D01*
%TA.AperFunction,Conductor*%
D19*
G36*
X128380048Y-77092756D02*
G01*
X128647135Y-77159023D01*
X128922017Y-77171910D01*
X129194133Y-77130922D01*
X129340000Y-77078362D01*
X129340000Y-78462677D01*
X129336324Y-78500000D01*
X129340000Y-78537322D01*
X129340000Y-78537332D01*
X129350997Y-78648985D01*
X129373449Y-78722999D01*
X129394454Y-78792246D01*
X129465026Y-78924276D01*
X129486969Y-78951013D01*
X129559999Y-79040001D01*
X129589002Y-79063803D01*
X129940001Y-79414803D01*
X129940000Y-83385197D01*
X128860198Y-84465000D01*
X128798061Y-84465000D01*
X128598102Y-84504774D01*
X128409744Y-84582795D01*
X128260000Y-84682850D01*
X128260000Y-77036306D01*
X128380048Y-77092756D01*
G37*
%TD.AperFunction*%
D18*
X109831995Y-73891727D02*
X109984880Y-74120535D01*
X110179465Y-74315120D01*
X110408273Y-74468005D01*
X110485515Y-74500000D01*
X110408273Y-74531995D01*
X110179465Y-74684880D01*
X109984880Y-74879465D01*
X109831995Y-75108273D01*
X109802308Y-75179943D01*
X109797636Y-75166977D01*
X109735656Y-75051020D01*
X109495565Y-74984040D01*
X108709605Y-75770000D01*
X109495565Y-76555960D01*
X109735656Y-76488980D01*
X109799485Y-76353240D01*
X109831995Y-76431727D01*
X109984880Y-76660535D01*
X110179465Y-76855120D01*
X110310000Y-76942341D01*
X110310001Y-79032668D01*
X110306324Y-79070000D01*
X110320998Y-79218985D01*
X110364454Y-79362246D01*
X110435026Y-79494276D01*
X110481591Y-79551015D01*
X110530000Y-79610001D01*
X110558998Y-79633799D01*
X112665198Y-81740000D01*
X110014802Y-81740000D01*
X107860000Y-79585199D01*
X107860000Y-76998688D01*
X108060048Y-77092756D01*
X108327135Y-77159023D01*
X108602017Y-77171910D01*
X108874133Y-77130922D01*
X109133023Y-77037636D01*
X109248980Y-76975656D01*
X109315960Y-76735565D01*
X108530000Y-75949605D01*
X108515858Y-75963748D01*
X108336253Y-75784143D01*
X108350395Y-75770000D01*
X108336253Y-75755858D01*
X108515858Y-75576253D01*
X108530000Y-75590395D01*
X109315960Y-74804435D01*
X109248980Y-74564344D01*
X109113240Y-74500515D01*
X109191727Y-74468005D01*
X109420535Y-74315120D01*
X109615120Y-74120535D01*
X109768005Y-73891727D01*
X109800000Y-73814485D01*
X109831995Y-73891727D01*
%TA.AperFunction,Conductor*%
D19*
G36*
X109831995Y-73891727D02*
G01*
X109984880Y-74120535D01*
X110179465Y-74315120D01*
X110408273Y-74468005D01*
X110485515Y-74500000D01*
X110408273Y-74531995D01*
X110179465Y-74684880D01*
X109984880Y-74879465D01*
X109831995Y-75108273D01*
X109802308Y-75179943D01*
X109797636Y-75166977D01*
X109735656Y-75051020D01*
X109495565Y-74984040D01*
X108709605Y-75770000D01*
X109495565Y-76555960D01*
X109735656Y-76488980D01*
X109799485Y-76353240D01*
X109831995Y-76431727D01*
X109984880Y-76660535D01*
X110179465Y-76855120D01*
X110310000Y-76942341D01*
X110310001Y-79032668D01*
X110306324Y-79070000D01*
X110320998Y-79218985D01*
X110364454Y-79362246D01*
X110435026Y-79494276D01*
X110481591Y-79551015D01*
X110530000Y-79610001D01*
X110558998Y-79633799D01*
X112665198Y-81740000D01*
X110014802Y-81740000D01*
X107860000Y-79585199D01*
X107860000Y-76998688D01*
X108060048Y-77092756D01*
X108327135Y-77159023D01*
X108602017Y-77171910D01*
X108874133Y-77130922D01*
X109133023Y-77037636D01*
X109248980Y-76975656D01*
X109315960Y-76735565D01*
X108530000Y-75949605D01*
X108515858Y-75963748D01*
X108336253Y-75784143D01*
X108350395Y-75770000D01*
X108336253Y-75755858D01*
X108515858Y-75576253D01*
X108530000Y-75590395D01*
X109315960Y-74804435D01*
X109248980Y-74564344D01*
X109113240Y-74500515D01*
X109191727Y-74468005D01*
X109420535Y-74315120D01*
X109615120Y-74120535D01*
X109768005Y-73891727D01*
X109800000Y-73814485D01*
X109831995Y-73891727D01*
G37*
%TD.AperFunction*%
D18*
X129043748Y-75755858D02*
X129029605Y-75770000D01*
X129043748Y-75784143D01*
X128864143Y-75963748D01*
X128850000Y-75949605D01*
X128835858Y-75963748D01*
X128656253Y-75784143D01*
X128670395Y-75770000D01*
X128656253Y-75755858D01*
X128835858Y-75576253D01*
X128850000Y-75590395D01*
X128864143Y-75576253D01*
X129043748Y-75755858D01*
%TA.AperFunction,Conductor*%
D19*
G36*
X129043748Y-75755858D02*
G01*
X129029605Y-75770000D01*
X129043748Y-75784143D01*
X128864143Y-75963748D01*
X128850000Y-75949605D01*
X128835858Y-75963748D01*
X128656253Y-75784143D01*
X128670395Y-75770000D01*
X128656253Y-75755858D01*
X128835858Y-75576253D01*
X128850000Y-75590395D01*
X128864143Y-75576253D01*
X129043748Y-75755858D01*
G37*
%TD.AperFunction*%
D18*
X103643748Y-73215858D02*
X103629605Y-73230000D01*
X104415565Y-74015960D01*
X104655656Y-73948980D01*
X104719485Y-73813240D01*
X104751995Y-73891727D01*
X104904880Y-74120535D01*
X105099465Y-74315120D01*
X105328273Y-74468005D01*
X105405515Y-74500000D01*
X105328273Y-74531995D01*
X105099465Y-74684880D01*
X104904880Y-74879465D01*
X104751995Y-75108273D01*
X104720000Y-75185515D01*
X104688005Y-75108273D01*
X104535120Y-74879465D01*
X104340535Y-74684880D01*
X104111727Y-74531995D01*
X104040057Y-74502308D01*
X104053023Y-74497636D01*
X104168980Y-74435656D01*
X104235960Y-74195565D01*
X103450000Y-73409605D01*
X102664040Y-74195565D01*
X102731020Y-74435656D01*
X102866760Y-74499485D01*
X102788273Y-74531995D01*
X102559465Y-74684880D01*
X102364880Y-74879465D01*
X102211995Y-75108273D01*
X102180000Y-75185515D01*
X102148005Y-75108273D01*
X101995120Y-74879465D01*
X101800535Y-74684880D01*
X101571727Y-74531995D01*
X101494485Y-74500000D01*
X101571727Y-74468005D01*
X101800535Y-74315120D01*
X101995120Y-74120535D01*
X102148005Y-73891727D01*
X102177692Y-73820057D01*
X102182364Y-73833023D01*
X102244344Y-73948980D01*
X102484435Y-74015960D01*
X103270395Y-73230000D01*
X103256253Y-73215858D01*
X103435858Y-73036253D01*
X103450000Y-73050395D01*
X103464143Y-73036253D01*
X103643748Y-73215858D01*
%TA.AperFunction,Conductor*%
D19*
G36*
X103643748Y-73215858D02*
G01*
X103629605Y-73230000D01*
X104415565Y-74015960D01*
X104655656Y-73948980D01*
X104719485Y-73813240D01*
X104751995Y-73891727D01*
X104904880Y-74120535D01*
X105099465Y-74315120D01*
X105328273Y-74468005D01*
X105405515Y-74500000D01*
X105328273Y-74531995D01*
X105099465Y-74684880D01*
X104904880Y-74879465D01*
X104751995Y-75108273D01*
X104720000Y-75185515D01*
X104688005Y-75108273D01*
X104535120Y-74879465D01*
X104340535Y-74684880D01*
X104111727Y-74531995D01*
X104040057Y-74502308D01*
X104053023Y-74497636D01*
X104168980Y-74435656D01*
X104235960Y-74195565D01*
X103450000Y-73409605D01*
X102664040Y-74195565D01*
X102731020Y-74435656D01*
X102866760Y-74499485D01*
X102788273Y-74531995D01*
X102559465Y-74684880D01*
X102364880Y-74879465D01*
X102211995Y-75108273D01*
X102180000Y-75185515D01*
X102148005Y-75108273D01*
X101995120Y-74879465D01*
X101800535Y-74684880D01*
X101571727Y-74531995D01*
X101494485Y-74500000D01*
X101571727Y-74468005D01*
X101800535Y-74315120D01*
X101995120Y-74120535D01*
X102148005Y-73891727D01*
X102177692Y-73820057D01*
X102182364Y-73833023D01*
X102244344Y-73948980D01*
X102484435Y-74015960D01*
X103270395Y-73230000D01*
X103256253Y-73215858D01*
X103435858Y-73036253D01*
X103450000Y-73050395D01*
X103464143Y-73036253D01*
X103643748Y-73215858D01*
G37*
%TD.AperFunction*%
D18*
X113803748Y-73215858D02*
X113789605Y-73230000D01*
X114575565Y-74015960D01*
X114815656Y-73948980D01*
X114879485Y-73813240D01*
X114911995Y-73891727D01*
X115064880Y-74120535D01*
X115259465Y-74315120D01*
X115488273Y-74468005D01*
X115565515Y-74500000D01*
X115488273Y-74531995D01*
X115259465Y-74684880D01*
X115064880Y-74879465D01*
X114911995Y-75108273D01*
X114880000Y-75185515D01*
X114848005Y-75108273D01*
X114695120Y-74879465D01*
X114500535Y-74684880D01*
X114271727Y-74531995D01*
X114200057Y-74502308D01*
X114213023Y-74497636D01*
X114328980Y-74435656D01*
X114395960Y-74195565D01*
X113610000Y-73409605D01*
X113595858Y-73423748D01*
X113416253Y-73244143D01*
X113430395Y-73230000D01*
X113416253Y-73215858D01*
X113595858Y-73036253D01*
X113610000Y-73050395D01*
X113624143Y-73036253D01*
X113803748Y-73215858D01*
%TA.AperFunction,Conductor*%
D19*
G36*
X113803748Y-73215858D02*
G01*
X113789605Y-73230000D01*
X114575565Y-74015960D01*
X114815656Y-73948980D01*
X114879485Y-73813240D01*
X114911995Y-73891727D01*
X115064880Y-74120535D01*
X115259465Y-74315120D01*
X115488273Y-74468005D01*
X115565515Y-74500000D01*
X115488273Y-74531995D01*
X115259465Y-74684880D01*
X115064880Y-74879465D01*
X114911995Y-75108273D01*
X114880000Y-75185515D01*
X114848005Y-75108273D01*
X114695120Y-74879465D01*
X114500535Y-74684880D01*
X114271727Y-74531995D01*
X114200057Y-74502308D01*
X114213023Y-74497636D01*
X114328980Y-74435656D01*
X114395960Y-74195565D01*
X113610000Y-73409605D01*
X113595858Y-73423748D01*
X113416253Y-73244143D01*
X113430395Y-73230000D01*
X113416253Y-73215858D01*
X113595858Y-73036253D01*
X113610000Y-73050395D01*
X113624143Y-73036253D01*
X113803748Y-73215858D01*
G37*
%TD.AperFunction*%
%TD*%
M02*
