%TF.GenerationSoftware,KiCad,Pcbnew,(5.1.8)-1*%
%TF.CreationDate,2021-02-22T22:13:28+01:00*%
%TF.ProjectId,radioberry-juice,72616469-6f62-4657-9272-792d6a756963,rev?*%
%TF.SameCoordinates,Original*%
%TF.FileFunction,Legend,Bot*%
%TF.FilePolarity,Positive*%
%FSLAX46Y46*%
G04 Gerber Fmt 4.6, Leading zero omitted, Abs format (unit mm)*
G04 Created by KiCad (PCBNEW (5.1.8)-1) date 2021-02-22 22:13:28*
%MOMM*%
%LPD*%
G01*
G04 APERTURE LIST*
%ADD10C,0.152400*%
%ADD11C,0.100000*%
G04 APERTURE END LIST*
D10*
%TO.C,J3*%
X97100000Y-76405000D02*
X97735000Y-77040000D01*
X97735000Y-77040000D02*
X99005000Y-77040000D01*
X99005000Y-77040000D02*
X99640000Y-76405000D01*
X99640000Y-76405000D02*
X100275000Y-77040000D01*
X100275000Y-77040000D02*
X101545000Y-77040000D01*
X101545000Y-77040000D02*
X102180000Y-76405000D01*
X102180000Y-76405000D02*
X102815000Y-77040000D01*
X102815000Y-77040000D02*
X104085000Y-77040000D01*
X104085000Y-77040000D02*
X104720000Y-76405000D01*
X104720000Y-76405000D02*
X105355000Y-77040000D01*
X105355000Y-77040000D02*
X106625000Y-77040000D01*
X106625000Y-77040000D02*
X107260000Y-76405000D01*
X107260000Y-76405000D02*
X107895000Y-77040000D01*
X107895000Y-77040000D02*
X109165000Y-77040000D01*
X109165000Y-77040000D02*
X109800000Y-76405000D01*
X109800000Y-76405000D02*
X110435000Y-77040000D01*
X110435000Y-77040000D02*
X111705000Y-77040000D01*
X111705000Y-77040000D02*
X112340000Y-76405000D01*
X97100000Y-76405000D02*
X97100000Y-72595000D01*
X97100000Y-72595000D02*
X97735000Y-71960000D01*
X97735000Y-71960000D02*
X99005000Y-71960000D01*
X99005000Y-71960000D02*
X99640000Y-72595000D01*
X99640000Y-72595000D02*
X100275000Y-71960000D01*
X100275000Y-71960000D02*
X101545000Y-71960000D01*
X101545000Y-71960000D02*
X102180000Y-72595000D01*
X102180000Y-72595000D02*
X102815000Y-71960000D01*
X102815000Y-71960000D02*
X104085000Y-71960000D01*
X104085000Y-71960000D02*
X104720000Y-72595000D01*
X104720000Y-72595000D02*
X105355000Y-71960000D01*
X105355000Y-71960000D02*
X106625000Y-71960000D01*
X106625000Y-71960000D02*
X107260000Y-72595000D01*
X107260000Y-72595000D02*
X107895000Y-71960000D01*
X107895000Y-71960000D02*
X109165000Y-71960000D01*
X109165000Y-71960000D02*
X109800000Y-72595000D01*
X109800000Y-72595000D02*
X110435000Y-71960000D01*
X110435000Y-71960000D02*
X111705000Y-71960000D01*
X111705000Y-71960000D02*
X112340000Y-72595000D01*
X112340000Y-72595000D02*
X112975000Y-71960000D01*
X112975000Y-71960000D02*
X114245000Y-71960000D01*
X114245000Y-71960000D02*
X114880000Y-72595000D01*
X114880000Y-72595000D02*
X115515000Y-71960000D01*
X115515000Y-71960000D02*
X116785000Y-71960000D01*
X116785000Y-71960000D02*
X117420000Y-72595000D01*
X117420000Y-72595000D02*
X118055000Y-71960000D01*
X118055000Y-71960000D02*
X119325000Y-71960000D01*
X119325000Y-71960000D02*
X119960000Y-72595000D01*
X119960000Y-72595000D02*
X120595000Y-71960000D01*
X120595000Y-71960000D02*
X121865000Y-71960000D01*
X121865000Y-71960000D02*
X122500000Y-72595000D01*
X122500000Y-72595000D02*
X123135000Y-71960000D01*
X123135000Y-71960000D02*
X124405000Y-71960000D01*
X124405000Y-71960000D02*
X125040000Y-72595000D01*
X125040000Y-72595000D02*
X125675000Y-71960000D01*
X125675000Y-71960000D02*
X126945000Y-71960000D01*
X127580000Y-72595000D02*
X126945000Y-71960000D01*
X127580000Y-72595000D02*
X128215000Y-71960000D01*
X129485000Y-71960000D02*
X128215000Y-71960000D01*
X129485000Y-71960000D02*
X130120000Y-72595000D01*
X130120000Y-72595000D02*
X130755000Y-71960000D01*
X132025000Y-71960000D02*
X130755000Y-71960000D01*
X132025000Y-71960000D02*
X132660000Y-72595000D01*
X132660000Y-72595000D02*
X133295000Y-71960000D01*
X134565000Y-71960000D02*
X133295000Y-71960000D01*
X134565000Y-71960000D02*
X135200000Y-72595000D01*
X135200000Y-72595000D02*
X135835000Y-71960000D01*
X137105000Y-71960000D02*
X135835000Y-71960000D01*
X137105000Y-71960000D02*
X137740000Y-72595000D01*
X137740000Y-72595000D02*
X138375000Y-71960000D01*
X139645000Y-71960000D02*
X138375000Y-71960000D01*
X139645000Y-71960000D02*
X140280000Y-72595000D01*
X140280000Y-72595000D02*
X140915000Y-71960000D01*
X142185000Y-71960000D02*
X140915000Y-71960000D01*
X142185000Y-71960000D02*
X142820000Y-72595000D01*
X142820000Y-72595000D02*
X143455000Y-71960000D01*
X144725000Y-71960000D02*
X143455000Y-71960000D01*
X144725000Y-71960000D02*
X145360000Y-72595000D01*
X145360000Y-76405000D02*
X144725000Y-77040000D01*
X144725000Y-77040000D02*
X143455000Y-77040000D01*
X142820000Y-76405000D02*
X143455000Y-77040000D01*
X142820000Y-76405000D02*
X142185000Y-77040000D01*
X142185000Y-77040000D02*
X140915000Y-77040000D01*
X140280000Y-76405000D02*
X140915000Y-77040000D01*
X140280000Y-76405000D02*
X139645000Y-77040000D01*
X139645000Y-77040000D02*
X138375000Y-77040000D01*
X137740000Y-76405000D02*
X138375000Y-77040000D01*
X137740000Y-76405000D02*
X137105000Y-77040000D01*
X135835000Y-77040000D02*
X137105000Y-77040000D01*
X135835000Y-77040000D02*
X135200000Y-76405000D01*
X135200000Y-76405000D02*
X134565000Y-77040000D01*
X133295000Y-77040000D02*
X134565000Y-77040000D01*
X133295000Y-77040000D02*
X132660000Y-76405000D01*
X132660000Y-76405000D02*
X132025000Y-77040000D01*
X132025000Y-77040000D02*
X130755000Y-77040000D01*
X130120000Y-76405000D02*
X130755000Y-77040000D01*
X130120000Y-76405000D02*
X129485000Y-77040000D01*
X129485000Y-77040000D02*
X128215000Y-77040000D01*
X127580000Y-76405000D02*
X128215000Y-77040000D01*
X127580000Y-76405000D02*
X126945000Y-77040000D01*
X126945000Y-77040000D02*
X125675000Y-77040000D01*
X125040000Y-76405000D02*
X125675000Y-77040000D01*
X125040000Y-76405000D02*
X124405000Y-77040000D01*
X124405000Y-77040000D02*
X123135000Y-77040000D01*
X122500000Y-76405000D02*
X123135000Y-77040000D01*
X122500000Y-76405000D02*
X121865000Y-77040000D01*
X121865000Y-77040000D02*
X120595000Y-77040000D01*
X119960000Y-76405000D02*
X120595000Y-77040000D01*
X119960000Y-76405000D02*
X119325000Y-77040000D01*
X119325000Y-77040000D02*
X118055000Y-77040000D01*
X117420000Y-76405000D02*
X118055000Y-77040000D01*
X117420000Y-76405000D02*
X116785000Y-77040000D01*
X116785000Y-77040000D02*
X115515000Y-77040000D01*
X114880000Y-76405000D02*
X115515000Y-77040000D01*
X114880000Y-76405000D02*
X114245000Y-77040000D01*
X114245000Y-77040000D02*
X112975000Y-77040000D01*
X112340000Y-76405000D02*
X112975000Y-77040000D01*
X99640000Y-72595000D02*
X99640000Y-76405000D01*
X102180000Y-72595000D02*
X102180000Y-76405000D01*
X104720000Y-72595000D02*
X104720000Y-76405000D01*
X107260000Y-72595000D02*
X107260000Y-76405000D01*
X109800000Y-72595000D02*
X109800000Y-76405000D01*
X112340000Y-72595000D02*
X112340000Y-76405000D01*
X114880000Y-72595000D02*
X114880000Y-76405000D01*
X117420000Y-72595000D02*
X117420000Y-76405000D01*
X119960000Y-72595000D02*
X119960000Y-76405000D01*
X122500000Y-72595000D02*
X122500000Y-76405000D01*
X125040000Y-72595000D02*
X125040000Y-76405000D01*
X127580000Y-72595000D02*
X127580000Y-76405000D01*
X130120000Y-72595000D02*
X130120000Y-76405000D01*
X132660000Y-72595000D02*
X132660000Y-76405000D01*
X135200000Y-72595000D02*
X135200000Y-76405000D01*
X137740000Y-72595000D02*
X137740000Y-76405000D01*
X140280000Y-72595000D02*
X140280000Y-76405000D01*
X142820000Y-72595000D02*
X142820000Y-76405000D01*
X145360000Y-72595000D02*
X145360000Y-76405000D01*
X145360000Y-72595000D02*
X145995000Y-71960000D01*
X147265000Y-71960000D02*
X145995000Y-71960000D01*
X147265000Y-71960000D02*
X147900000Y-72595000D01*
X147900000Y-76405000D02*
X147265000Y-77040000D01*
X147265000Y-77040000D02*
X145995000Y-77040000D01*
X145360000Y-76405000D02*
X145995000Y-77040000D01*
X147900000Y-72595000D02*
X147900000Y-76405000D01*
D11*
G36*
X98116000Y-76024000D02*
G01*
X98624000Y-76024000D01*
X98624000Y-75516000D01*
X98116000Y-75516000D01*
X98116000Y-76024000D01*
G37*
G36*
X98116000Y-73484000D02*
G01*
X98624000Y-73484000D01*
X98624000Y-72976000D01*
X98116000Y-72976000D01*
X98116000Y-73484000D01*
G37*
G36*
X100656000Y-73484000D02*
G01*
X101164000Y-73484000D01*
X101164000Y-72976000D01*
X100656000Y-72976000D01*
X100656000Y-73484000D01*
G37*
G36*
X100656000Y-76024000D02*
G01*
X101164000Y-76024000D01*
X101164000Y-75516000D01*
X100656000Y-75516000D01*
X100656000Y-76024000D01*
G37*
G36*
X103196000Y-73484000D02*
G01*
X103704000Y-73484000D01*
X103704000Y-72976000D01*
X103196000Y-72976000D01*
X103196000Y-73484000D01*
G37*
G36*
X103196000Y-76024000D02*
G01*
X103704000Y-76024000D01*
X103704000Y-75516000D01*
X103196000Y-75516000D01*
X103196000Y-76024000D01*
G37*
G36*
X105736000Y-73484000D02*
G01*
X106244000Y-73484000D01*
X106244000Y-72976000D01*
X105736000Y-72976000D01*
X105736000Y-73484000D01*
G37*
G36*
X108276000Y-73484000D02*
G01*
X108784000Y-73484000D01*
X108784000Y-72976000D01*
X108276000Y-72976000D01*
X108276000Y-73484000D01*
G37*
G36*
X110816000Y-73484000D02*
G01*
X111324000Y-73484000D01*
X111324000Y-72976000D01*
X110816000Y-72976000D01*
X110816000Y-73484000D01*
G37*
G36*
X105736000Y-76024000D02*
G01*
X106244000Y-76024000D01*
X106244000Y-75516000D01*
X105736000Y-75516000D01*
X105736000Y-76024000D01*
G37*
G36*
X108276000Y-76024000D02*
G01*
X108784000Y-76024000D01*
X108784000Y-75516000D01*
X108276000Y-75516000D01*
X108276000Y-76024000D01*
G37*
G36*
X110816000Y-76024000D02*
G01*
X111324000Y-76024000D01*
X111324000Y-75516000D01*
X110816000Y-75516000D01*
X110816000Y-76024000D01*
G37*
G36*
X113356000Y-73484000D02*
G01*
X113864000Y-73484000D01*
X113864000Y-72976000D01*
X113356000Y-72976000D01*
X113356000Y-73484000D01*
G37*
G36*
X113356000Y-76024000D02*
G01*
X113864000Y-76024000D01*
X113864000Y-75516000D01*
X113356000Y-75516000D01*
X113356000Y-76024000D01*
G37*
G36*
X115896000Y-73484000D02*
G01*
X116404000Y-73484000D01*
X116404000Y-72976000D01*
X115896000Y-72976000D01*
X115896000Y-73484000D01*
G37*
G36*
X115896000Y-76024000D02*
G01*
X116404000Y-76024000D01*
X116404000Y-75516000D01*
X115896000Y-75516000D01*
X115896000Y-76024000D01*
G37*
G36*
X118436000Y-73484000D02*
G01*
X118944000Y-73484000D01*
X118944000Y-72976000D01*
X118436000Y-72976000D01*
X118436000Y-73484000D01*
G37*
G36*
X118436000Y-76024000D02*
G01*
X118944000Y-76024000D01*
X118944000Y-75516000D01*
X118436000Y-75516000D01*
X118436000Y-76024000D01*
G37*
G36*
X120976000Y-73484000D02*
G01*
X121484000Y-73484000D01*
X121484000Y-72976000D01*
X120976000Y-72976000D01*
X120976000Y-73484000D01*
G37*
G36*
X120976000Y-76024000D02*
G01*
X121484000Y-76024000D01*
X121484000Y-75516000D01*
X120976000Y-75516000D01*
X120976000Y-76024000D01*
G37*
G36*
X123516000Y-73484000D02*
G01*
X124024000Y-73484000D01*
X124024000Y-72976000D01*
X123516000Y-72976000D01*
X123516000Y-73484000D01*
G37*
G36*
X123516000Y-76024000D02*
G01*
X124024000Y-76024000D01*
X124024000Y-75516000D01*
X123516000Y-75516000D01*
X123516000Y-76024000D01*
G37*
G36*
X126056000Y-73484000D02*
G01*
X126564000Y-73484000D01*
X126564000Y-72976000D01*
X126056000Y-72976000D01*
X126056000Y-73484000D01*
G37*
G36*
X126056000Y-76024000D02*
G01*
X126564000Y-76024000D01*
X126564000Y-75516000D01*
X126056000Y-75516000D01*
X126056000Y-76024000D01*
G37*
G36*
X128596000Y-73484000D02*
G01*
X129104000Y-73484000D01*
X129104000Y-72976000D01*
X128596000Y-72976000D01*
X128596000Y-73484000D01*
G37*
G36*
X128596000Y-76024000D02*
G01*
X129104000Y-76024000D01*
X129104000Y-75516000D01*
X128596000Y-75516000D01*
X128596000Y-76024000D01*
G37*
G36*
X131136000Y-73484000D02*
G01*
X131644000Y-73484000D01*
X131644000Y-72976000D01*
X131136000Y-72976000D01*
X131136000Y-73484000D01*
G37*
G36*
X131136000Y-76024000D02*
G01*
X131644000Y-76024000D01*
X131644000Y-75516000D01*
X131136000Y-75516000D01*
X131136000Y-76024000D01*
G37*
G36*
X133676000Y-73484000D02*
G01*
X134184000Y-73484000D01*
X134184000Y-72976000D01*
X133676000Y-72976000D01*
X133676000Y-73484000D01*
G37*
G36*
X133676000Y-76024000D02*
G01*
X134184000Y-76024000D01*
X134184000Y-75516000D01*
X133676000Y-75516000D01*
X133676000Y-76024000D01*
G37*
G36*
X136216000Y-73484000D02*
G01*
X136724000Y-73484000D01*
X136724000Y-72976000D01*
X136216000Y-72976000D01*
X136216000Y-73484000D01*
G37*
G36*
X136216000Y-76024000D02*
G01*
X136724000Y-76024000D01*
X136724000Y-75516000D01*
X136216000Y-75516000D01*
X136216000Y-76024000D01*
G37*
G36*
X138756000Y-73484000D02*
G01*
X139264000Y-73484000D01*
X139264000Y-72976000D01*
X138756000Y-72976000D01*
X138756000Y-73484000D01*
G37*
G36*
X138756000Y-76024000D02*
G01*
X139264000Y-76024000D01*
X139264000Y-75516000D01*
X138756000Y-75516000D01*
X138756000Y-76024000D01*
G37*
G36*
X141296000Y-73484000D02*
G01*
X141804000Y-73484000D01*
X141804000Y-72976000D01*
X141296000Y-72976000D01*
X141296000Y-73484000D01*
G37*
G36*
X141296000Y-76024000D02*
G01*
X141804000Y-76024000D01*
X141804000Y-75516000D01*
X141296000Y-75516000D01*
X141296000Y-76024000D01*
G37*
G36*
X143836000Y-73484000D02*
G01*
X144344000Y-73484000D01*
X144344000Y-72976000D01*
X143836000Y-72976000D01*
X143836000Y-73484000D01*
G37*
G36*
X143836000Y-76024000D02*
G01*
X144344000Y-76024000D01*
X144344000Y-75516000D01*
X143836000Y-75516000D01*
X143836000Y-76024000D01*
G37*
G36*
X146376000Y-73484000D02*
G01*
X146884000Y-73484000D01*
X146884000Y-72976000D01*
X146376000Y-72976000D01*
X146376000Y-73484000D01*
G37*
G36*
X146376000Y-76024000D02*
G01*
X146884000Y-76024000D01*
X146884000Y-75516000D01*
X146376000Y-75516000D01*
X146376000Y-76024000D01*
G37*
%TD*%
M02*
