%TF.GenerationSoftware,KiCad,Pcbnew,(5.1.8)-1*%
%TF.CreationDate,2021-02-22T22:13:28+01:00*%
%TF.ProjectId,radioberry-juice,72616469-6f62-4657-9272-792d6a756963,rev?*%
%TF.SameCoordinates,Original*%
%TF.FileFunction,Legend,Top*%
%TF.FilePolarity,Positive*%
%FSLAX46Y46*%
G04 Gerber Fmt 4.6, Leading zero omitted, Abs format (unit mm)*
G04 Created by KiCad (PCBNEW (5.1.8)-1) date 2021-02-22 22:13:28*
%MOMM*%
%LPD*%
G01*
G04 APERTURE LIST*
%ADD10C,0.300000*%
%ADD11C,0.100000*%
%ADD12C,0.120000*%
%ADD13C,0.010000*%
%ADD14C,0.250000*%
%ADD15C,0.203200*%
%ADD16C,0.150000*%
%ADD17C,0.020000*%
%ADD18C,0.254000*%
%ADD19C,0.101600*%
%ADD20C,0.127000*%
G04 APERTURE END LIST*
D10*
X94614285Y-113378571D02*
X94971428Y-114878571D01*
X95257142Y-113807142D01*
X95542857Y-114878571D01*
X95900000Y-113378571D01*
X96328571Y-113378571D02*
X96685714Y-114878571D01*
X96971428Y-113807142D01*
X97257142Y-114878571D01*
X97614285Y-113378571D01*
X98042857Y-113378571D02*
X98400000Y-114878571D01*
X98685714Y-113807142D01*
X98971428Y-114878571D01*
X99328571Y-113378571D01*
X99900000Y-114735714D02*
X99971428Y-114807142D01*
X99900000Y-114878571D01*
X99828571Y-114807142D01*
X99900000Y-114735714D01*
X99900000Y-114878571D01*
X100614285Y-114878571D02*
X100614285Y-113378571D01*
X101185714Y-113378571D01*
X101328571Y-113450000D01*
X101400000Y-113521428D01*
X101471428Y-113664285D01*
X101471428Y-113878571D01*
X101400000Y-114021428D01*
X101328571Y-114092857D01*
X101185714Y-114164285D01*
X100614285Y-114164285D01*
X102042857Y-114450000D02*
X102757142Y-114450000D01*
X101900000Y-114878571D02*
X102400000Y-113378571D01*
X102900000Y-114878571D01*
X103257142Y-113378571D02*
X104185714Y-113378571D01*
X103685714Y-113950000D01*
X103900000Y-113950000D01*
X104042857Y-114021428D01*
X104114285Y-114092857D01*
X104185714Y-114235714D01*
X104185714Y-114592857D01*
X104114285Y-114735714D01*
X104042857Y-114807142D01*
X103900000Y-114878571D01*
X103471428Y-114878571D01*
X103328571Y-114807142D01*
X103257142Y-114735714D01*
X105614285Y-113450000D02*
X105471428Y-113378571D01*
X105257142Y-113378571D01*
X105042857Y-113450000D01*
X104900000Y-113592857D01*
X104828571Y-113735714D01*
X104757142Y-114021428D01*
X104757142Y-114235714D01*
X104828571Y-114521428D01*
X104900000Y-114664285D01*
X105042857Y-114807142D01*
X105257142Y-114878571D01*
X105400000Y-114878571D01*
X105614285Y-114807142D01*
X105685714Y-114735714D01*
X105685714Y-114235714D01*
X105400000Y-114235714D01*
X106257142Y-114807142D02*
X106471428Y-114878571D01*
X106828571Y-114878571D01*
X106971428Y-114807142D01*
X107042857Y-114735714D01*
X107114285Y-114592857D01*
X107114285Y-114450000D01*
X107042857Y-114307142D01*
X106971428Y-114235714D01*
X106828571Y-114164285D01*
X106542857Y-114092857D01*
X106400000Y-114021428D01*
X106328571Y-113950000D01*
X106257142Y-113807142D01*
X106257142Y-113664285D01*
X106328571Y-113521428D01*
X106400000Y-113450000D01*
X106542857Y-113378571D01*
X106900000Y-113378571D01*
X107114285Y-113450000D01*
X108257142Y-114092857D02*
X108471428Y-114164285D01*
X108542857Y-114235714D01*
X108614285Y-114378571D01*
X108614285Y-114592857D01*
X108542857Y-114735714D01*
X108471428Y-114807142D01*
X108328571Y-114878571D01*
X107757142Y-114878571D01*
X107757142Y-113378571D01*
X108257142Y-113378571D01*
X108400000Y-113450000D01*
X108471428Y-113521428D01*
X108542857Y-113664285D01*
X108542857Y-113807142D01*
X108471428Y-113950000D01*
X108400000Y-114021428D01*
X108257142Y-114092857D01*
X107757142Y-114092857D01*
X109257142Y-114735714D02*
X109328571Y-114807142D01*
X109257142Y-114878571D01*
X109185714Y-114807142D01*
X109257142Y-114735714D01*
X109257142Y-114878571D01*
X109971428Y-114878571D02*
X109971428Y-113378571D01*
X110828571Y-114878571D01*
X110828571Y-113378571D01*
X112257142Y-114878571D02*
X111542857Y-114878571D01*
X111542857Y-113378571D01*
X91621428Y-110071428D02*
X93121428Y-110071428D01*
X92550000Y-110071428D02*
X92621428Y-110214285D01*
X92621428Y-110500000D01*
X92550000Y-110642857D01*
X92478571Y-110714285D01*
X92335714Y-110785714D01*
X91907142Y-110785714D01*
X91764285Y-110714285D01*
X91692857Y-110642857D01*
X91621428Y-110500000D01*
X91621428Y-110214285D01*
X91692857Y-110071428D01*
X91692857Y-112000000D02*
X91621428Y-111857142D01*
X91621428Y-111571428D01*
X91692857Y-111428571D01*
X91835714Y-111357142D01*
X92407142Y-111357142D01*
X92550000Y-111428571D01*
X92621428Y-111571428D01*
X92621428Y-111857142D01*
X92550000Y-112000000D01*
X92407142Y-112071428D01*
X92264285Y-112071428D01*
X92121428Y-111357142D01*
X92621428Y-112500000D02*
X92621428Y-113071428D01*
X93121428Y-112714285D02*
X91835714Y-112714285D01*
X91692857Y-112785714D01*
X91621428Y-112928571D01*
X91621428Y-113071428D01*
X91621428Y-114214285D02*
X92407142Y-114214285D01*
X92550000Y-114142857D01*
X92621428Y-114000000D01*
X92621428Y-113714285D01*
X92550000Y-113571428D01*
X91692857Y-114214285D02*
X91621428Y-114071428D01*
X91621428Y-113714285D01*
X91692857Y-113571428D01*
X91835714Y-113500000D01*
X91978571Y-113500000D01*
X92121428Y-113571428D01*
X92192857Y-113714285D01*
X92192857Y-114071428D01*
X92264285Y-114214285D01*
X93121428Y-116357142D02*
X93121428Y-116500000D01*
X93050000Y-116642857D01*
X92978571Y-116714285D01*
X92835714Y-116785714D01*
X92550000Y-116857142D01*
X92192857Y-116857142D01*
X91907142Y-116785714D01*
X91764285Y-116714285D01*
X91692857Y-116642857D01*
X91621428Y-116500000D01*
X91621428Y-116357142D01*
X91692857Y-116214285D01*
X91764285Y-116142857D01*
X91907142Y-116071428D01*
X92192857Y-116000000D01*
X92550000Y-116000000D01*
X92835714Y-116071428D01*
X92978571Y-116142857D01*
X93050000Y-116214285D01*
X93121428Y-116357142D01*
X91764285Y-117500000D02*
X91692857Y-117571428D01*
X91621428Y-117500000D01*
X91692857Y-117428571D01*
X91764285Y-117500000D01*
X91621428Y-117500000D01*
X91621428Y-119000000D02*
X91621428Y-118142857D01*
X91621428Y-118571428D02*
X93121428Y-118571428D01*
X92907142Y-118428571D01*
X92764285Y-118285714D01*
X92692857Y-118142857D01*
X92395238Y-79247619D02*
X93347619Y-78580952D01*
X92395238Y-78104761D02*
X94395238Y-78104761D01*
X94395238Y-78866666D01*
X94300000Y-79057142D01*
X94204761Y-79152380D01*
X94014285Y-79247619D01*
X93728571Y-79247619D01*
X93538095Y-79152380D01*
X93442857Y-79057142D01*
X93347619Y-78866666D01*
X93347619Y-78104761D01*
X92395238Y-80961904D02*
X93442857Y-80961904D01*
X93633333Y-80866666D01*
X93728571Y-80676190D01*
X93728571Y-80295238D01*
X93633333Y-80104761D01*
X92490476Y-80961904D02*
X92395238Y-80771428D01*
X92395238Y-80295238D01*
X92490476Y-80104761D01*
X92680952Y-80009523D01*
X92871428Y-80009523D01*
X93061904Y-80104761D01*
X93157142Y-80295238D01*
X93157142Y-80771428D01*
X93252380Y-80961904D01*
X92395238Y-82771428D02*
X94395238Y-82771428D01*
X92490476Y-82771428D02*
X92395238Y-82580952D01*
X92395238Y-82200000D01*
X92490476Y-82009523D01*
X92585714Y-81914285D01*
X92776190Y-81819047D01*
X93347619Y-81819047D01*
X93538095Y-81914285D01*
X93633333Y-82009523D01*
X93728571Y-82200000D01*
X93728571Y-82580952D01*
X93633333Y-82771428D01*
X92395238Y-83723809D02*
X93728571Y-83723809D01*
X94395238Y-83723809D02*
X94300000Y-83628571D01*
X94204761Y-83723809D01*
X94300000Y-83819047D01*
X94395238Y-83723809D01*
X94204761Y-83723809D01*
X92395238Y-84961904D02*
X92490476Y-84771428D01*
X92585714Y-84676190D01*
X92776190Y-84580952D01*
X93347619Y-84580952D01*
X93538095Y-84676190D01*
X93633333Y-84771428D01*
X93728571Y-84961904D01*
X93728571Y-85247619D01*
X93633333Y-85438095D01*
X93538095Y-85533333D01*
X93347619Y-85628571D01*
X92776190Y-85628571D01*
X92585714Y-85533333D01*
X92490476Y-85438095D01*
X92395238Y-85247619D01*
X92395238Y-84961904D01*
X92395238Y-86485714D02*
X94395238Y-86485714D01*
X93633333Y-86485714D02*
X93728571Y-86676190D01*
X93728571Y-87057142D01*
X93633333Y-87247619D01*
X93538095Y-87342857D01*
X93347619Y-87438095D01*
X92776190Y-87438095D01*
X92585714Y-87342857D01*
X92490476Y-87247619D01*
X92395238Y-87057142D01*
X92395238Y-86676190D01*
X92490476Y-86485714D01*
X92490476Y-89057142D02*
X92395238Y-88866666D01*
X92395238Y-88485714D01*
X92490476Y-88295238D01*
X92680952Y-88200000D01*
X93442857Y-88200000D01*
X93633333Y-88295238D01*
X93728571Y-88485714D01*
X93728571Y-88866666D01*
X93633333Y-89057142D01*
X93442857Y-89152380D01*
X93252380Y-89152380D01*
X93061904Y-88200000D01*
X92395238Y-90009523D02*
X93728571Y-90009523D01*
X93347619Y-90009523D02*
X93538095Y-90104761D01*
X93633333Y-90200000D01*
X93728571Y-90390476D01*
X93728571Y-90580952D01*
X92395238Y-91247619D02*
X93728571Y-91247619D01*
X93347619Y-91247619D02*
X93538095Y-91342857D01*
X93633333Y-91438095D01*
X93728571Y-91628571D01*
X93728571Y-91819047D01*
X93728571Y-92295238D02*
X92395238Y-92771428D01*
X93728571Y-93247619D02*
X92395238Y-92771428D01*
X91919047Y-92580952D01*
X91823809Y-92485714D01*
X91728571Y-92295238D01*
X94395238Y-96104761D02*
X92966666Y-96104761D01*
X92680952Y-96009523D01*
X92490476Y-95819047D01*
X92395238Y-95533333D01*
X92395238Y-95342857D01*
X93728571Y-97914285D02*
X92395238Y-97914285D01*
X93728571Y-97057142D02*
X92680952Y-97057142D01*
X92490476Y-97152380D01*
X92395238Y-97342857D01*
X92395238Y-97628571D01*
X92490476Y-97819047D01*
X92585714Y-97914285D01*
X92395238Y-98866666D02*
X93728571Y-98866666D01*
X94395238Y-98866666D02*
X94300000Y-98771428D01*
X94204761Y-98866666D01*
X94300000Y-98961904D01*
X94395238Y-98866666D01*
X94204761Y-98866666D01*
X92490476Y-100676190D02*
X92395238Y-100485714D01*
X92395238Y-100104761D01*
X92490476Y-99914285D01*
X92585714Y-99819047D01*
X92776190Y-99723809D01*
X93347619Y-99723809D01*
X93538095Y-99819047D01*
X93633333Y-99914285D01*
X93728571Y-100104761D01*
X93728571Y-100485714D01*
X93633333Y-100676190D01*
X92490476Y-102295238D02*
X92395238Y-102104761D01*
X92395238Y-101723809D01*
X92490476Y-101533333D01*
X92680952Y-101438095D01*
X93442857Y-101438095D01*
X93633333Y-101533333D01*
X93728571Y-101723809D01*
X93728571Y-102104761D01*
X93633333Y-102295238D01*
X93442857Y-102390476D01*
X93252380Y-102390476D01*
X93061904Y-101438095D01*
D11*
%TO.C,CN1*%
X140700000Y-118600000D02*
X140700000Y-117100000D01*
X140700000Y-109600000D02*
X140700000Y-111100000D01*
X141300000Y-109600000D02*
X140700000Y-109600000D01*
X140700000Y-118600000D02*
X141700000Y-118600000D01*
X154900000Y-109600000D02*
X154400000Y-109600000D01*
X154900000Y-110100000D02*
X154900000Y-109600000D01*
X154900000Y-118600000D02*
X154400000Y-118600000D01*
X154900000Y-118100000D02*
X154900000Y-118600000D01*
D12*
%TO.C,C28*%
X139900000Y-97650000D02*
X138900000Y-97650000D01*
X138900000Y-99350000D02*
X139900000Y-99350000D01*
%TO.C,C26*%
X134750000Y-102450000D02*
X133750000Y-102450000D01*
X133750000Y-104150000D02*
X134750000Y-104150000D01*
%TO.C,C24*%
X147700000Y-87850000D02*
X148700000Y-87850000D01*
X148700000Y-86150000D02*
X147700000Y-86150000D01*
%TO.C,C22*%
X140950000Y-81250000D02*
X140950000Y-82250000D01*
X142650000Y-82250000D02*
X142650000Y-81250000D01*
%TO.C,C11*%
X114350000Y-109350000D02*
X115350000Y-109350000D01*
X115350000Y-107650000D02*
X114350000Y-107650000D01*
%TO.C,C9*%
X109150000Y-108250000D02*
X110150000Y-108250000D01*
X110150000Y-106550000D02*
X109150000Y-106550000D01*
%TO.C,C7*%
X116550000Y-123450000D02*
X116550000Y-124450000D01*
X118250000Y-124450000D02*
X118250000Y-123450000D01*
%TO.C,C5*%
X111150000Y-118850000D02*
X111150000Y-119850000D01*
X112850000Y-119850000D02*
X112850000Y-118850000D01*
%TO.C,C1*%
X131350000Y-124500000D02*
X131350000Y-123500000D01*
X129650000Y-123500000D02*
X129650000Y-124500000D01*
D13*
%TO.C,G\u002A\u002A\u002A*%
G36*
X94957250Y-106895300D02*
G01*
X94950900Y-106888950D01*
X94957250Y-106882600D01*
X94963600Y-106888950D01*
X94957250Y-106895300D01*
G37*
X94957250Y-106895300D02*
X94950900Y-106888950D01*
X94957250Y-106882600D01*
X94963600Y-106888950D01*
X94957250Y-106895300D01*
G36*
X94969950Y-105841200D02*
G01*
X94963600Y-105834850D01*
X94969950Y-105828500D01*
X94976300Y-105834850D01*
X94969950Y-105841200D01*
G37*
X94969950Y-105841200D02*
X94963600Y-105834850D01*
X94969950Y-105828500D01*
X94976300Y-105834850D01*
X94969950Y-105841200D01*
G36*
X94813776Y-105419297D02*
G01*
X94744661Y-105420500D01*
X94694918Y-105420166D01*
X94658532Y-105417477D01*
X94629484Y-105411612D01*
X94601758Y-105401751D01*
X94569337Y-105387076D01*
X94566147Y-105385569D01*
X94408820Y-105324614D01*
X94246291Y-105287264D01*
X94081391Y-105273538D01*
X93916947Y-105283459D01*
X93755791Y-105317047D01*
X93600751Y-105374323D01*
X93592000Y-105378375D01*
X93496750Y-105422991D01*
X93329218Y-105419370D01*
X93161685Y-105415750D01*
X93209350Y-105375766D01*
X93330893Y-105286914D01*
X93469830Y-105208103D01*
X93618968Y-105143012D01*
X93744400Y-105102296D01*
X93788008Y-105091210D01*
X93828462Y-105083307D01*
X93871445Y-105078096D01*
X93922640Y-105075084D01*
X93987729Y-105073779D01*
X94072396Y-105073690D01*
X94074600Y-105073698D01*
X94162156Y-105074526D01*
X94229831Y-105076571D01*
X94283134Y-105080312D01*
X94327572Y-105086229D01*
X94368654Y-105094800D01*
X94394329Y-105101511D01*
X94576009Y-105163683D01*
X94743118Y-105245992D01*
X94897950Y-105349584D01*
X94909587Y-105358600D01*
X94982608Y-105415750D01*
X94813776Y-105419297D01*
G37*
X94813776Y-105419297D02*
X94744661Y-105420500D01*
X94694918Y-105420166D01*
X94658532Y-105417477D01*
X94629484Y-105411612D01*
X94601758Y-105401751D01*
X94569337Y-105387076D01*
X94566147Y-105385569D01*
X94408820Y-105324614D01*
X94246291Y-105287264D01*
X94081391Y-105273538D01*
X93916947Y-105283459D01*
X93755791Y-105317047D01*
X93600751Y-105374323D01*
X93592000Y-105378375D01*
X93496750Y-105422991D01*
X93329218Y-105419370D01*
X93161685Y-105415750D01*
X93209350Y-105375766D01*
X93330893Y-105286914D01*
X93469830Y-105208103D01*
X93618968Y-105143012D01*
X93744400Y-105102296D01*
X93788008Y-105091210D01*
X93828462Y-105083307D01*
X93871445Y-105078096D01*
X93922640Y-105075084D01*
X93987729Y-105073779D01*
X94072396Y-105073690D01*
X94074600Y-105073698D01*
X94162156Y-105074526D01*
X94229831Y-105076571D01*
X94283134Y-105080312D01*
X94327572Y-105086229D01*
X94368654Y-105094800D01*
X94394329Y-105101511D01*
X94576009Y-105163683D01*
X94743118Y-105245992D01*
X94897950Y-105349584D01*
X94909587Y-105358600D01*
X94982608Y-105415750D01*
X94813776Y-105419297D01*
G36*
X94929141Y-107416564D02*
G01*
X94784914Y-107520423D01*
X94640022Y-107601411D01*
X94489373Y-107661669D01*
X94327876Y-107703338D01*
X94199441Y-107723338D01*
X94039766Y-107730225D01*
X93875662Y-107714808D01*
X93711633Y-107678565D01*
X93552178Y-107622971D01*
X93401800Y-107549501D01*
X93265000Y-107459632D01*
X93181750Y-107389648D01*
X93115750Y-107328068D01*
X93276137Y-107327584D01*
X93436523Y-107327100D01*
X93510322Y-107371539D01*
X93610537Y-107425495D01*
X93710219Y-107464923D01*
X93815403Y-107491312D01*
X93932122Y-107506155D01*
X94066410Y-107510940D01*
X94074600Y-107510941D01*
X94185689Y-107508481D01*
X94278925Y-107500351D01*
X94361540Y-107484864D01*
X94440767Y-107460329D01*
X94523838Y-107425059D01*
X94595300Y-107389351D01*
X94715950Y-107326263D01*
X94874700Y-107329856D01*
X95033450Y-107333450D01*
X94929141Y-107416564D01*
G37*
X94929141Y-107416564D02*
X94784914Y-107520423D01*
X94640022Y-107601411D01*
X94489373Y-107661669D01*
X94327876Y-107703338D01*
X94199441Y-107723338D01*
X94039766Y-107730225D01*
X93875662Y-107714808D01*
X93711633Y-107678565D01*
X93552178Y-107622971D01*
X93401800Y-107549501D01*
X93265000Y-107459632D01*
X93181750Y-107389648D01*
X93115750Y-107328068D01*
X93276137Y-107327584D01*
X93436523Y-107327100D01*
X93510322Y-107371539D01*
X93610537Y-107425495D01*
X93710219Y-107464923D01*
X93815403Y-107491312D01*
X93932122Y-107506155D01*
X94066410Y-107510940D01*
X94074600Y-107510941D01*
X94185689Y-107508481D01*
X94278925Y-107500351D01*
X94361540Y-107484864D01*
X94440767Y-107460329D01*
X94523838Y-107425059D01*
X94595300Y-107389351D01*
X94715950Y-107326263D01*
X94874700Y-107329856D01*
X95033450Y-107333450D01*
X94929141Y-107416564D01*
G36*
X95193743Y-106825410D02*
G01*
X95190565Y-106876936D01*
X95185329Y-106928608D01*
X95178832Y-106973457D01*
X95171871Y-107004513D01*
X95167388Y-107014092D01*
X95156876Y-107036473D01*
X95154100Y-107057805D01*
X95148215Y-107090243D01*
X95133978Y-107126866D01*
X95133246Y-107128290D01*
X95116422Y-107161024D01*
X95103833Y-107186215D01*
X95103262Y-107187400D01*
X95089348Y-107198998D01*
X95058854Y-107204461D01*
X95019341Y-107205077D01*
X94973083Y-107203053D01*
X94933326Y-107199298D01*
X94915426Y-107196175D01*
X94858225Y-107179182D01*
X94809246Y-107160569D01*
X94776094Y-107143298D01*
X94772100Y-107140321D01*
X94745649Y-107126435D01*
X94731747Y-107123900D01*
X94710119Y-107114606D01*
X94686548Y-107092249D01*
X94686469Y-107092150D01*
X94664871Y-107069925D01*
X94647451Y-107060405D01*
X94647175Y-107060400D01*
X94631903Y-107050075D01*
X94618471Y-107028828D01*
X94596349Y-106997189D01*
X94574293Y-106977735D01*
X94552309Y-106957199D01*
X94544500Y-106939457D01*
X94539605Y-106922418D01*
X94524715Y-106927933D01*
X94499524Y-106956190D01*
X94484850Y-106976228D01*
X94433746Y-107028849D01*
X94364855Y-107070876D01*
X94284760Y-107098858D01*
X94234464Y-107107429D01*
X94190751Y-107113798D01*
X94162104Y-107125106D01*
X94138192Y-107146588D01*
X94124496Y-107163142D01*
X94090098Y-107197072D01*
X94045016Y-107229781D01*
X94020091Y-107243743D01*
X93929553Y-107276894D01*
X93842986Y-107285237D01*
X93758301Y-107268629D01*
X93673410Y-107226929D01*
X93661850Y-107219390D01*
X93620410Y-107196424D01*
X93562916Y-107170939D01*
X93497960Y-107146579D01*
X93465000Y-107135848D01*
X93403578Y-107115047D01*
X93345186Y-107091895D01*
X93297928Y-107069768D01*
X93276953Y-107057490D01*
X93243097Y-107030014D01*
X93207960Y-106994743D01*
X93176814Y-106957870D01*
X93154927Y-106925589D01*
X93147500Y-106905349D01*
X93140155Y-106889322D01*
X93121541Y-106861907D01*
X93110014Y-106846930D01*
X93082879Y-106807900D01*
X93054298Y-106759112D01*
X93039585Y-106730200D01*
X93012230Y-106678054D01*
X92979465Y-106623487D01*
X92962912Y-106598842D01*
X92926312Y-106536034D01*
X92898674Y-106466467D01*
X92883476Y-106399970D01*
X92881658Y-106369119D01*
X92885587Y-106332557D01*
X92894438Y-106287055D01*
X92898573Y-106270500D01*
X92916621Y-106221929D01*
X92942454Y-106172213D01*
X92951691Y-106157988D01*
X92976448Y-106120287D01*
X93006987Y-106070439D01*
X93037058Y-106018670D01*
X93039550Y-106014227D01*
X93097455Y-105913204D01*
X93111875Y-105890164D01*
X93111875Y-106127220D01*
X93082901Y-106129114D01*
X93049193Y-106152981D01*
X93013481Y-106196516D01*
X92995363Y-106225573D01*
X92963405Y-106305531D01*
X92955969Y-106389079D01*
X92973132Y-106472903D01*
X92988659Y-106509342D01*
X93020427Y-106563757D01*
X93053866Y-106605211D01*
X93085624Y-106630514D01*
X93112347Y-106636476D01*
X93119387Y-106633718D01*
X93146602Y-106605098D01*
X93170296Y-106557775D01*
X93187708Y-106498435D01*
X93194921Y-106450778D01*
X93196048Y-106387850D01*
X93189634Y-106321295D01*
X93177103Y-106256664D01*
X93159880Y-106199513D01*
X93139391Y-106155392D01*
X93117060Y-106129857D01*
X93111875Y-106127220D01*
X93111875Y-105890164D01*
X93148082Y-105832311D01*
X93194707Y-105768575D01*
X93240606Y-105719023D01*
X93289058Y-105680681D01*
X93343338Y-105650575D01*
X93406724Y-105625734D01*
X93482492Y-105603184D01*
X93496750Y-105599388D01*
X93497084Y-105599288D01*
X93497084Y-105689058D01*
X93439329Y-105696277D01*
X93379965Y-105715086D01*
X93323088Y-105745292D01*
X93272793Y-105786706D01*
X93263350Y-105796925D01*
X93220346Y-105856531D01*
X93193825Y-105916404D01*
X93184712Y-105972173D01*
X93193932Y-106019462D01*
X93211000Y-106044400D01*
X93244583Y-106062387D01*
X93293492Y-106069630D01*
X93350027Y-106066107D01*
X93406492Y-106051798D01*
X93423206Y-106044974D01*
X93483270Y-106008688D01*
X93527666Y-105968720D01*
X93527666Y-106120878D01*
X93460570Y-106133246D01*
X93397046Y-106166655D01*
X93342925Y-106216848D01*
X93304043Y-106279565D01*
X93301330Y-106286079D01*
X93290556Y-106334787D01*
X93288910Y-106395640D01*
X93295895Y-106457279D01*
X93306580Y-106493372D01*
X93306580Y-106673494D01*
X93254764Y-106679137D01*
X93216393Y-106699991D01*
X93200921Y-106721078D01*
X93187878Y-106772719D01*
X93190906Y-106832463D01*
X93203416Y-106875255D01*
X93235567Y-106929795D01*
X93283065Y-106983971D01*
X93337346Y-107028860D01*
X93368218Y-107046957D01*
X93424081Y-107065608D01*
X93486847Y-107073334D01*
X93550214Y-107070862D01*
X93607881Y-107058918D01*
X93653547Y-107038230D01*
X93680170Y-107010965D01*
X93685736Y-106975178D01*
X93672378Y-106929846D01*
X93642710Y-106878890D01*
X93599345Y-106826231D01*
X93544893Y-106775792D01*
X93502792Y-106744710D01*
X93434585Y-106706593D01*
X93367851Y-106682751D01*
X93306580Y-106673494D01*
X93306580Y-106493372D01*
X93311012Y-106508343D01*
X93311072Y-106508475D01*
X93351362Y-106568901D01*
X93408224Y-106615980D01*
X93475165Y-106645502D01*
X93534850Y-106653650D01*
X93590217Y-106641728D01*
X93646058Y-106610166D01*
X93696665Y-106563959D01*
X93736331Y-106508104D01*
X93756374Y-106459746D01*
X93766115Y-106385017D01*
X93755549Y-106312317D01*
X93727462Y-106245773D01*
X93684637Y-106189508D01*
X93629857Y-106147647D01*
X93565907Y-106124317D01*
X93527666Y-106120878D01*
X93527666Y-105968720D01*
X93538407Y-105959050D01*
X93584179Y-105901745D01*
X93616150Y-105842456D01*
X93629885Y-105786867D01*
X93630100Y-105779877D01*
X93619739Y-105738837D01*
X93591385Y-105710148D01*
X93549135Y-105693618D01*
X93497084Y-105689058D01*
X93497084Y-105599288D01*
X93555717Y-105581593D01*
X93612642Y-105560539D01*
X93657731Y-105539960D01*
X93668200Y-105534000D01*
X93748430Y-105497729D01*
X93835103Y-105481718D01*
X93847614Y-105482437D01*
X93847614Y-105544957D01*
X93766601Y-105558438D01*
X93690307Y-105594430D01*
X93689608Y-105594888D01*
X93657668Y-105619768D01*
X93648685Y-105640658D01*
X93662801Y-105662493D01*
X93692188Y-105684887D01*
X93734043Y-105705849D01*
X93787891Y-105722181D01*
X93848944Y-105733708D01*
X93912417Y-105740253D01*
X93960529Y-105741346D01*
X93960529Y-105830869D01*
X93888506Y-105836188D01*
X93834044Y-105856153D01*
X93772941Y-105900507D01*
X93733247Y-105956893D01*
X93715722Y-106022551D01*
X93721128Y-106094721D01*
X93748342Y-106167082D01*
X93786077Y-106217478D01*
X93841213Y-106263336D01*
X93905807Y-106298448D01*
X93926303Y-106306112D01*
X94004833Y-106322082D01*
X94026041Y-106320963D01*
X94026041Y-106437039D01*
X93955190Y-106447138D01*
X93885474Y-106474915D01*
X93820759Y-106521224D01*
X93817714Y-106524050D01*
X93767424Y-106586417D01*
X93740098Y-106658330D01*
X93734775Y-106739634D01*
X93739129Y-106786850D01*
X93748139Y-106818693D01*
X93765572Y-106845178D01*
X93780687Y-106861678D01*
X93841018Y-106907009D01*
X93911164Y-106929174D01*
X93989427Y-106928037D01*
X93989427Y-106987231D01*
X93926247Y-106988236D01*
X93858936Y-106995961D01*
X93792488Y-107010085D01*
X93731897Y-107030284D01*
X93684283Y-107054826D01*
X93660679Y-107077247D01*
X93659874Y-107100489D01*
X93682488Y-107126917D01*
X93708072Y-107145629D01*
X93772493Y-107174690D01*
X93847596Y-107187364D01*
X93924220Y-107183123D01*
X93991960Y-107162043D01*
X94031365Y-107137032D01*
X94066661Y-107104476D01*
X94092921Y-107070267D01*
X94105220Y-107040296D01*
X94104250Y-107027755D01*
X94083422Y-107006668D01*
X94043484Y-106993268D01*
X93989427Y-106987231D01*
X93989427Y-106928037D01*
X93990202Y-106928025D01*
X94066589Y-106907530D01*
X94139173Y-106869002D01*
X94197762Y-106815152D01*
X94239346Y-106750381D01*
X94260915Y-106679088D01*
X94261923Y-106621904D01*
X94243422Y-106556390D01*
X94206716Y-106504294D01*
X94155672Y-106466469D01*
X94094157Y-106443767D01*
X94026041Y-106437039D01*
X94026041Y-106320963D01*
X94078241Y-106318208D01*
X94143052Y-106296465D01*
X94195793Y-106258826D01*
X94232989Y-106207266D01*
X94251167Y-106143758D01*
X94252400Y-106120822D01*
X94240887Y-106047106D01*
X94209073Y-105980099D01*
X94161043Y-105922387D01*
X94100884Y-105876554D01*
X94032684Y-105845186D01*
X93960529Y-105830869D01*
X93960529Y-105741346D01*
X93973524Y-105741642D01*
X94027480Y-105737698D01*
X94069498Y-105728247D01*
X94094792Y-105713113D01*
X94100000Y-105699838D01*
X94090500Y-105674002D01*
X94066056Y-105641060D01*
X94032757Y-105608148D01*
X94002985Y-105586108D01*
X93928143Y-105554132D01*
X93847614Y-105544957D01*
X93847614Y-105482437D01*
X93912502Y-105486172D01*
X93982843Y-105505410D01*
X94043980Y-105537146D01*
X94105272Y-105586392D01*
X94112700Y-105593353D01*
X94150020Y-105625652D01*
X94182473Y-105643697D01*
X94208318Y-105649864D01*
X94208318Y-105717373D01*
X94181750Y-105725585D01*
X94176200Y-105738380D01*
X94182649Y-105753223D01*
X94199649Y-105783080D01*
X94223687Y-105821815D01*
X94226671Y-105826450D01*
X94256390Y-105868036D01*
X94294267Y-105914721D01*
X94336609Y-105962688D01*
X94379725Y-106008120D01*
X94383614Y-106011901D01*
X94383614Y-106142063D01*
X94348499Y-106163886D01*
X94326296Y-106186711D01*
X94292373Y-106242611D01*
X94271870Y-106314164D01*
X94265793Y-106394861D01*
X94275151Y-106478195D01*
X94278759Y-106493794D01*
X94302433Y-106556851D01*
X94334950Y-106598920D01*
X94373858Y-106618999D01*
X94416705Y-106616086D01*
X94461038Y-106589179D01*
X94475502Y-106574895D01*
X94475502Y-106641300D01*
X94456757Y-106650438D01*
X94425762Y-106675235D01*
X94386439Y-106711764D01*
X94342707Y-106756095D01*
X94298489Y-106804301D01*
X94257706Y-106852455D01*
X94233657Y-106883545D01*
X94197403Y-106937411D01*
X94180074Y-106975740D01*
X94181666Y-106999934D01*
X94202176Y-107011392D01*
X94233350Y-107012251D01*
X94317995Y-106995392D01*
X94387475Y-106958168D01*
X94441978Y-106900454D01*
X94469940Y-106850850D01*
X94482590Y-106812487D01*
X94490712Y-106766803D01*
X94494133Y-106720324D01*
X94492679Y-106679575D01*
X94486177Y-106651081D01*
X94475502Y-106641300D01*
X94475502Y-106574895D01*
X94475997Y-106574406D01*
X94520608Y-106508513D01*
X94544804Y-106434158D01*
X94548859Y-106356582D01*
X94533045Y-106281022D01*
X94497636Y-106212717D01*
X94454711Y-106166250D01*
X94417502Y-106143092D01*
X94383614Y-106142063D01*
X94383614Y-106011901D01*
X94419922Y-106047202D01*
X94453508Y-106076118D01*
X94476791Y-106091051D01*
X94483618Y-106092017D01*
X94493759Y-106077124D01*
X94498587Y-106040169D01*
X94499046Y-106005048D01*
X94487123Y-105916580D01*
X94454520Y-105842344D01*
X94402460Y-105783771D01*
X94332167Y-105742289D01*
X94256042Y-105721034D01*
X94208318Y-105717373D01*
X94208318Y-105649864D01*
X94221217Y-105652943D01*
X94239209Y-105655207D01*
X94317758Y-105672811D01*
X94391972Y-105705736D01*
X94454243Y-105749958D01*
X94487350Y-105786448D01*
X94516432Y-105823729D01*
X94534847Y-105838991D01*
X94543524Y-105832819D01*
X94544500Y-105822442D01*
X94554252Y-105802472D01*
X94575755Y-105783206D01*
X94601564Y-105759742D01*
X94614942Y-105737736D01*
X94632384Y-105712688D01*
X94650362Y-105700284D01*
X94675687Y-105686320D01*
X94712335Y-105663292D01*
X94741205Y-105643862D01*
X94779907Y-105620105D01*
X94814464Y-105604142D01*
X94832531Y-105599900D01*
X94857794Y-105595328D01*
X94867483Y-105588603D01*
X94886777Y-105577192D01*
X94923633Y-105568920D01*
X94970368Y-105564123D01*
X94973280Y-105564065D01*
X94973280Y-105617125D01*
X94963281Y-105621543D01*
X94944758Y-105641175D01*
X94918928Y-105667233D01*
X94904061Y-105675280D01*
X94902232Y-105664495D01*
X94904693Y-105657050D01*
X94907764Y-105641229D01*
X94897243Y-105641188D01*
X94870676Y-105657330D01*
X94860786Y-105664264D01*
X94834703Y-105679685D01*
X94824012Y-105677206D01*
X94823499Y-105673789D01*
X94816191Y-105671434D01*
X94798370Y-105685679D01*
X94790592Y-105694027D01*
X94767273Y-105716763D01*
X94752981Y-105719795D01*
X94747810Y-105714376D01*
X94737314Y-105710627D01*
X94721994Y-105728603D01*
X94711428Y-105747248D01*
X94695956Y-105773320D01*
X94686299Y-105783342D01*
X94684762Y-105780875D01*
X94679153Y-105765185D01*
X94666911Y-105769657D01*
X94652080Y-105791407D01*
X94644251Y-105809783D01*
X94628925Y-105839650D01*
X94613333Y-105848744D01*
X94611679Y-105848282D01*
X94599994Y-105852528D01*
X94595440Y-105878717D01*
X94595300Y-105887407D01*
X94592883Y-105917479D01*
X94584098Y-105927079D01*
X94576250Y-105925507D01*
X94563053Y-105930535D01*
X94557229Y-105955820D01*
X94558910Y-105997272D01*
X94568227Y-106050802D01*
X94571773Y-106065625D01*
X94588001Y-106106127D01*
X94613947Y-106147160D01*
X94644252Y-106182191D01*
X94673559Y-106204689D01*
X94689797Y-106209500D01*
X94710404Y-106199229D01*
X94741073Y-106170850D01*
X94778761Y-106128013D01*
X94820425Y-106074368D01*
X94863022Y-106013566D01*
X94895128Y-105963207D01*
X94922443Y-105919789D01*
X94943201Y-105889604D01*
X94955208Y-105875640D01*
X94956747Y-105879300D01*
X94943506Y-105914369D01*
X94920269Y-105964272D01*
X94890588Y-106022358D01*
X94858019Y-106081977D01*
X94826114Y-106136479D01*
X94798428Y-106179213D01*
X94791163Y-106189155D01*
X94764057Y-106230244D01*
X94756573Y-106260400D01*
X94768785Y-106284907D01*
X94792770Y-106303988D01*
X94841315Y-106321267D01*
X94850272Y-106320852D01*
X94850272Y-106434467D01*
X94810235Y-106442072D01*
X94777094Y-106465725D01*
X94773101Y-106469849D01*
X94744544Y-106500246D01*
X94789062Y-106561248D01*
X94811412Y-106594991D01*
X94838013Y-106639836D01*
X94866326Y-106690857D01*
X94893809Y-106743128D01*
X94917922Y-106791722D01*
X94936124Y-106831716D01*
X94945875Y-106858181D01*
X94946279Y-106866054D01*
X94937257Y-106860141D01*
X94922584Y-106837725D01*
X94918365Y-106829805D01*
X94893645Y-106786682D01*
X94859596Y-106733987D01*
X94821109Y-106678629D01*
X94783076Y-106627518D01*
X94750387Y-106587563D01*
X94736459Y-106572847D01*
X94708402Y-106551258D01*
X94683341Y-106547573D01*
X94655496Y-106562927D01*
X94622005Y-106595318D01*
X94601847Y-106624703D01*
X94584225Y-106664217D01*
X94570221Y-106708457D01*
X94560916Y-106752025D01*
X94557393Y-106789520D01*
X94560733Y-106815542D01*
X94572018Y-106824690D01*
X94576250Y-106823692D01*
X94590029Y-106824795D01*
X94595096Y-106845436D01*
X94595300Y-106854802D01*
X94598095Y-106892813D01*
X94605208Y-106918288D01*
X94614732Y-106926236D01*
X94620572Y-106920907D01*
X94630871Y-106920020D01*
X94644273Y-106941787D01*
X94645745Y-106945242D01*
X94660880Y-106971853D01*
X94675961Y-106984108D01*
X94677039Y-106984200D01*
X94691621Y-106994594D01*
X94709834Y-107020612D01*
X94715824Y-107031825D01*
X94731271Y-107059586D01*
X94740314Y-107065696D01*
X94744749Y-107055972D01*
X94750070Y-107042892D01*
X94760725Y-107044858D01*
X94782339Y-107063456D01*
X94786973Y-107067873D01*
X94811144Y-107087477D01*
X94823117Y-107089199D01*
X94823900Y-107085800D01*
X94831337Y-107081266D01*
X94851982Y-107095529D01*
X94859520Y-107102473D01*
X94889809Y-107128595D01*
X94905681Y-107135391D01*
X94906470Y-107122638D01*
X94904693Y-107117550D01*
X94902789Y-107100872D01*
X94917287Y-107103241D01*
X94948356Y-107124685D01*
X94948897Y-107125111D01*
X94972116Y-107141497D01*
X94982940Y-107141682D01*
X94986757Y-107131461D01*
X94995303Y-107113835D01*
X95012738Y-107115745D01*
X95034198Y-107129846D01*
X95060737Y-107146148D01*
X95074167Y-107142452D01*
X95077081Y-107116905D01*
X95075871Y-107100044D01*
X95074749Y-107068282D01*
X95080645Y-107056624D01*
X95089256Y-107057728D01*
X95099693Y-107057522D01*
X95102832Y-107042610D01*
X95099581Y-107008113D01*
X95099122Y-107004728D01*
X95095761Y-106967739D01*
X95099263Y-106952795D01*
X95105212Y-106953631D01*
X95113458Y-106951974D01*
X95113039Y-106929715D01*
X95110381Y-106913778D01*
X95105659Y-106883580D01*
X95108174Y-106873812D01*
X95119398Y-106880169D01*
X95121323Y-106881747D01*
X95136404Y-106891826D01*
X95140089Y-106885828D01*
X95132435Y-106861180D01*
X95122350Y-106836191D01*
X95108681Y-106802609D01*
X95105008Y-106787382D01*
X95111605Y-106785400D01*
X95124809Y-106790050D01*
X95136042Y-106791751D01*
X95134160Y-106780763D01*
X95118405Y-106753143D01*
X95117423Y-106751552D01*
X95100472Y-106720271D01*
X95099782Y-106705162D01*
X95115478Y-106702780D01*
X95119175Y-106703296D01*
X95128714Y-106698340D01*
X95122195Y-106681619D01*
X95103000Y-106660078D01*
X95086626Y-106640818D01*
X95090644Y-106628150D01*
X95093475Y-106626059D01*
X95099458Y-106614253D01*
X95085821Y-106596204D01*
X95074638Y-106586477D01*
X95052126Y-106563472D01*
X95050689Y-106547314D01*
X95053556Y-106543724D01*
X95052917Y-106529242D01*
X95034339Y-106508580D01*
X95003263Y-106485485D01*
X94965130Y-106463703D01*
X94925383Y-106446979D01*
X94904730Y-106441278D01*
X94850272Y-106434467D01*
X94850272Y-106320852D01*
X94899941Y-106318547D01*
X94957250Y-106298963D01*
X94996378Y-106278030D01*
X95029320Y-106256508D01*
X95051739Y-106237850D01*
X95059296Y-106225512D01*
X95053299Y-106222482D01*
X95047402Y-106215212D01*
X95062445Y-106193824D01*
X95069174Y-106186580D01*
X95091816Y-106160119D01*
X95102804Y-106141638D01*
X95100213Y-106135356D01*
X95090600Y-106139650D01*
X95078645Y-106142862D01*
X95081101Y-106131279D01*
X95096203Y-106109691D01*
X95105514Y-106099193D01*
X95122543Y-106079000D01*
X95121892Y-106070924D01*
X95111864Y-106069800D01*
X95094195Y-106065603D01*
X95094611Y-106050871D01*
X95113374Y-106022385D01*
X95116000Y-106019000D01*
X95136827Y-105988385D01*
X95138529Y-105974291D01*
X95122446Y-105976270D01*
X95111355Y-105978266D01*
X95111031Y-105968100D01*
X95121475Y-105940509D01*
X95122446Y-105938179D01*
X95136871Y-105901118D01*
X95139976Y-105884262D01*
X95131698Y-105885048D01*
X95121323Y-105892852D01*
X95108998Y-105900794D01*
X95105552Y-105893110D01*
X95109513Y-105865493D01*
X95110381Y-105860821D01*
X95114245Y-105828974D01*
X95109370Y-105819258D01*
X95105608Y-105820723D01*
X95097862Y-105817406D01*
X95096739Y-105792470D01*
X95099304Y-105765116D01*
X95102788Y-105727653D01*
X95100789Y-105710026D01*
X95092079Y-105707033D01*
X95086054Y-105708915D01*
X95072198Y-105709712D01*
X95066202Y-105694286D01*
X95065200Y-105669749D01*
X95063418Y-105639391D01*
X95055986Y-105628960D01*
X95042975Y-105631732D01*
X95004781Y-105645634D01*
X94984177Y-105647274D01*
X94976439Y-105636526D01*
X94975899Y-105629956D01*
X94973280Y-105617125D01*
X94973280Y-105564065D01*
X95019298Y-105563141D01*
X95062741Y-105566310D01*
X95093013Y-105573970D01*
X95099729Y-105578383D01*
X95114196Y-105602959D01*
X95119587Y-105622354D01*
X95129507Y-105652078D01*
X95139033Y-105666112D01*
X95149836Y-105688909D01*
X95154100Y-105720550D01*
X95158200Y-105752787D01*
X95167663Y-105773482D01*
X95175058Y-105792035D01*
X95182360Y-105828444D01*
X95188589Y-105875179D01*
X95192767Y-105924710D01*
X95193917Y-105969509D01*
X95193794Y-105974550D01*
X95192959Y-106005724D01*
X95192188Y-106040726D01*
X95188150Y-106071242D01*
X95179488Y-106088837D01*
X95179095Y-106089100D01*
X95170052Y-106106164D01*
X95166800Y-106132081D01*
X95157827Y-106167135D01*
X95141400Y-106190450D01*
X95122185Y-106215123D01*
X95116000Y-106234377D01*
X95105780Y-106258632D01*
X95078878Y-106289718D01*
X95040936Y-106322341D01*
X94997594Y-106351211D01*
X94983244Y-106358923D01*
X94933038Y-106384150D01*
X94984723Y-106410518D01*
X95036452Y-106440932D01*
X95078721Y-106473399D01*
X95106791Y-106503742D01*
X95116000Y-106526160D01*
X95124881Y-106551104D01*
X95141400Y-106571450D01*
X95160735Y-106601448D01*
X95166800Y-106629818D01*
X95170971Y-106658440D01*
X95179639Y-106673135D01*
X95189305Y-106690546D01*
X95192705Y-106715159D01*
X95193336Y-106754966D01*
X95194064Y-106781000D01*
X95193743Y-106825410D01*
G37*
X95193743Y-106825410D02*
X95190565Y-106876936D01*
X95185329Y-106928608D01*
X95178832Y-106973457D01*
X95171871Y-107004513D01*
X95167388Y-107014092D01*
X95156876Y-107036473D01*
X95154100Y-107057805D01*
X95148215Y-107090243D01*
X95133978Y-107126866D01*
X95133246Y-107128290D01*
X95116422Y-107161024D01*
X95103833Y-107186215D01*
X95103262Y-107187400D01*
X95089348Y-107198998D01*
X95058854Y-107204461D01*
X95019341Y-107205077D01*
X94973083Y-107203053D01*
X94933326Y-107199298D01*
X94915426Y-107196175D01*
X94858225Y-107179182D01*
X94809246Y-107160569D01*
X94776094Y-107143298D01*
X94772100Y-107140321D01*
X94745649Y-107126435D01*
X94731747Y-107123900D01*
X94710119Y-107114606D01*
X94686548Y-107092249D01*
X94686469Y-107092150D01*
X94664871Y-107069925D01*
X94647451Y-107060405D01*
X94647175Y-107060400D01*
X94631903Y-107050075D01*
X94618471Y-107028828D01*
X94596349Y-106997189D01*
X94574293Y-106977735D01*
X94552309Y-106957199D01*
X94544500Y-106939457D01*
X94539605Y-106922418D01*
X94524715Y-106927933D01*
X94499524Y-106956190D01*
X94484850Y-106976228D01*
X94433746Y-107028849D01*
X94364855Y-107070876D01*
X94284760Y-107098858D01*
X94234464Y-107107429D01*
X94190751Y-107113798D01*
X94162104Y-107125106D01*
X94138192Y-107146588D01*
X94124496Y-107163142D01*
X94090098Y-107197072D01*
X94045016Y-107229781D01*
X94020091Y-107243743D01*
X93929553Y-107276894D01*
X93842986Y-107285237D01*
X93758301Y-107268629D01*
X93673410Y-107226929D01*
X93661850Y-107219390D01*
X93620410Y-107196424D01*
X93562916Y-107170939D01*
X93497960Y-107146579D01*
X93465000Y-107135848D01*
X93403578Y-107115047D01*
X93345186Y-107091895D01*
X93297928Y-107069768D01*
X93276953Y-107057490D01*
X93243097Y-107030014D01*
X93207960Y-106994743D01*
X93176814Y-106957870D01*
X93154927Y-106925589D01*
X93147500Y-106905349D01*
X93140155Y-106889322D01*
X93121541Y-106861907D01*
X93110014Y-106846930D01*
X93082879Y-106807900D01*
X93054298Y-106759112D01*
X93039585Y-106730200D01*
X93012230Y-106678054D01*
X92979465Y-106623487D01*
X92962912Y-106598842D01*
X92926312Y-106536034D01*
X92898674Y-106466467D01*
X92883476Y-106399970D01*
X92881658Y-106369119D01*
X92885587Y-106332557D01*
X92894438Y-106287055D01*
X92898573Y-106270500D01*
X92916621Y-106221929D01*
X92942454Y-106172213D01*
X92951691Y-106157988D01*
X92976448Y-106120287D01*
X93006987Y-106070439D01*
X93037058Y-106018670D01*
X93039550Y-106014227D01*
X93097455Y-105913204D01*
X93111875Y-105890164D01*
X93111875Y-106127220D01*
X93082901Y-106129114D01*
X93049193Y-106152981D01*
X93013481Y-106196516D01*
X92995363Y-106225573D01*
X92963405Y-106305531D01*
X92955969Y-106389079D01*
X92973132Y-106472903D01*
X92988659Y-106509342D01*
X93020427Y-106563757D01*
X93053866Y-106605211D01*
X93085624Y-106630514D01*
X93112347Y-106636476D01*
X93119387Y-106633718D01*
X93146602Y-106605098D01*
X93170296Y-106557775D01*
X93187708Y-106498435D01*
X93194921Y-106450778D01*
X93196048Y-106387850D01*
X93189634Y-106321295D01*
X93177103Y-106256664D01*
X93159880Y-106199513D01*
X93139391Y-106155392D01*
X93117060Y-106129857D01*
X93111875Y-106127220D01*
X93111875Y-105890164D01*
X93148082Y-105832311D01*
X93194707Y-105768575D01*
X93240606Y-105719023D01*
X93289058Y-105680681D01*
X93343338Y-105650575D01*
X93406724Y-105625734D01*
X93482492Y-105603184D01*
X93496750Y-105599388D01*
X93497084Y-105599288D01*
X93497084Y-105689058D01*
X93439329Y-105696277D01*
X93379965Y-105715086D01*
X93323088Y-105745292D01*
X93272793Y-105786706D01*
X93263350Y-105796925D01*
X93220346Y-105856531D01*
X93193825Y-105916404D01*
X93184712Y-105972173D01*
X93193932Y-106019462D01*
X93211000Y-106044400D01*
X93244583Y-106062387D01*
X93293492Y-106069630D01*
X93350027Y-106066107D01*
X93406492Y-106051798D01*
X93423206Y-106044974D01*
X93483270Y-106008688D01*
X93527666Y-105968720D01*
X93527666Y-106120878D01*
X93460570Y-106133246D01*
X93397046Y-106166655D01*
X93342925Y-106216848D01*
X93304043Y-106279565D01*
X93301330Y-106286079D01*
X93290556Y-106334787D01*
X93288910Y-106395640D01*
X93295895Y-106457279D01*
X93306580Y-106493372D01*
X93306580Y-106673494D01*
X93254764Y-106679137D01*
X93216393Y-106699991D01*
X93200921Y-106721078D01*
X93187878Y-106772719D01*
X93190906Y-106832463D01*
X93203416Y-106875255D01*
X93235567Y-106929795D01*
X93283065Y-106983971D01*
X93337346Y-107028860D01*
X93368218Y-107046957D01*
X93424081Y-107065608D01*
X93486847Y-107073334D01*
X93550214Y-107070862D01*
X93607881Y-107058918D01*
X93653547Y-107038230D01*
X93680170Y-107010965D01*
X93685736Y-106975178D01*
X93672378Y-106929846D01*
X93642710Y-106878890D01*
X93599345Y-106826231D01*
X93544893Y-106775792D01*
X93502792Y-106744710D01*
X93434585Y-106706593D01*
X93367851Y-106682751D01*
X93306580Y-106673494D01*
X93306580Y-106493372D01*
X93311012Y-106508343D01*
X93311072Y-106508475D01*
X93351362Y-106568901D01*
X93408224Y-106615980D01*
X93475165Y-106645502D01*
X93534850Y-106653650D01*
X93590217Y-106641728D01*
X93646058Y-106610166D01*
X93696665Y-106563959D01*
X93736331Y-106508104D01*
X93756374Y-106459746D01*
X93766115Y-106385017D01*
X93755549Y-106312317D01*
X93727462Y-106245773D01*
X93684637Y-106189508D01*
X93629857Y-106147647D01*
X93565907Y-106124317D01*
X93527666Y-106120878D01*
X93527666Y-105968720D01*
X93538407Y-105959050D01*
X93584179Y-105901745D01*
X93616150Y-105842456D01*
X93629885Y-105786867D01*
X93630100Y-105779877D01*
X93619739Y-105738837D01*
X93591385Y-105710148D01*
X93549135Y-105693618D01*
X93497084Y-105689058D01*
X93497084Y-105599288D01*
X93555717Y-105581593D01*
X93612642Y-105560539D01*
X93657731Y-105539960D01*
X93668200Y-105534000D01*
X93748430Y-105497729D01*
X93835103Y-105481718D01*
X93847614Y-105482437D01*
X93847614Y-105544957D01*
X93766601Y-105558438D01*
X93690307Y-105594430D01*
X93689608Y-105594888D01*
X93657668Y-105619768D01*
X93648685Y-105640658D01*
X93662801Y-105662493D01*
X93692188Y-105684887D01*
X93734043Y-105705849D01*
X93787891Y-105722181D01*
X93848944Y-105733708D01*
X93912417Y-105740253D01*
X93960529Y-105741346D01*
X93960529Y-105830869D01*
X93888506Y-105836188D01*
X93834044Y-105856153D01*
X93772941Y-105900507D01*
X93733247Y-105956893D01*
X93715722Y-106022551D01*
X93721128Y-106094721D01*
X93748342Y-106167082D01*
X93786077Y-106217478D01*
X93841213Y-106263336D01*
X93905807Y-106298448D01*
X93926303Y-106306112D01*
X94004833Y-106322082D01*
X94026041Y-106320963D01*
X94026041Y-106437039D01*
X93955190Y-106447138D01*
X93885474Y-106474915D01*
X93820759Y-106521224D01*
X93817714Y-106524050D01*
X93767424Y-106586417D01*
X93740098Y-106658330D01*
X93734775Y-106739634D01*
X93739129Y-106786850D01*
X93748139Y-106818693D01*
X93765572Y-106845178D01*
X93780687Y-106861678D01*
X93841018Y-106907009D01*
X93911164Y-106929174D01*
X93989427Y-106928037D01*
X93989427Y-106987231D01*
X93926247Y-106988236D01*
X93858936Y-106995961D01*
X93792488Y-107010085D01*
X93731897Y-107030284D01*
X93684283Y-107054826D01*
X93660679Y-107077247D01*
X93659874Y-107100489D01*
X93682488Y-107126917D01*
X93708072Y-107145629D01*
X93772493Y-107174690D01*
X93847596Y-107187364D01*
X93924220Y-107183123D01*
X93991960Y-107162043D01*
X94031365Y-107137032D01*
X94066661Y-107104476D01*
X94092921Y-107070267D01*
X94105220Y-107040296D01*
X94104250Y-107027755D01*
X94083422Y-107006668D01*
X94043484Y-106993268D01*
X93989427Y-106987231D01*
X93989427Y-106928037D01*
X93990202Y-106928025D01*
X94066589Y-106907530D01*
X94139173Y-106869002D01*
X94197762Y-106815152D01*
X94239346Y-106750381D01*
X94260915Y-106679088D01*
X94261923Y-106621904D01*
X94243422Y-106556390D01*
X94206716Y-106504294D01*
X94155672Y-106466469D01*
X94094157Y-106443767D01*
X94026041Y-106437039D01*
X94026041Y-106320963D01*
X94078241Y-106318208D01*
X94143052Y-106296465D01*
X94195793Y-106258826D01*
X94232989Y-106207266D01*
X94251167Y-106143758D01*
X94252400Y-106120822D01*
X94240887Y-106047106D01*
X94209073Y-105980099D01*
X94161043Y-105922387D01*
X94100884Y-105876554D01*
X94032684Y-105845186D01*
X93960529Y-105830869D01*
X93960529Y-105741346D01*
X93973524Y-105741642D01*
X94027480Y-105737698D01*
X94069498Y-105728247D01*
X94094792Y-105713113D01*
X94100000Y-105699838D01*
X94090500Y-105674002D01*
X94066056Y-105641060D01*
X94032757Y-105608148D01*
X94002985Y-105586108D01*
X93928143Y-105554132D01*
X93847614Y-105544957D01*
X93847614Y-105482437D01*
X93912502Y-105486172D01*
X93982843Y-105505410D01*
X94043980Y-105537146D01*
X94105272Y-105586392D01*
X94112700Y-105593353D01*
X94150020Y-105625652D01*
X94182473Y-105643697D01*
X94208318Y-105649864D01*
X94208318Y-105717373D01*
X94181750Y-105725585D01*
X94176200Y-105738380D01*
X94182649Y-105753223D01*
X94199649Y-105783080D01*
X94223687Y-105821815D01*
X94226671Y-105826450D01*
X94256390Y-105868036D01*
X94294267Y-105914721D01*
X94336609Y-105962688D01*
X94379725Y-106008120D01*
X94383614Y-106011901D01*
X94383614Y-106142063D01*
X94348499Y-106163886D01*
X94326296Y-106186711D01*
X94292373Y-106242611D01*
X94271870Y-106314164D01*
X94265793Y-106394861D01*
X94275151Y-106478195D01*
X94278759Y-106493794D01*
X94302433Y-106556851D01*
X94334950Y-106598920D01*
X94373858Y-106618999D01*
X94416705Y-106616086D01*
X94461038Y-106589179D01*
X94475502Y-106574895D01*
X94475502Y-106641300D01*
X94456757Y-106650438D01*
X94425762Y-106675235D01*
X94386439Y-106711764D01*
X94342707Y-106756095D01*
X94298489Y-106804301D01*
X94257706Y-106852455D01*
X94233657Y-106883545D01*
X94197403Y-106937411D01*
X94180074Y-106975740D01*
X94181666Y-106999934D01*
X94202176Y-107011392D01*
X94233350Y-107012251D01*
X94317995Y-106995392D01*
X94387475Y-106958168D01*
X94441978Y-106900454D01*
X94469940Y-106850850D01*
X94482590Y-106812487D01*
X94490712Y-106766803D01*
X94494133Y-106720324D01*
X94492679Y-106679575D01*
X94486177Y-106651081D01*
X94475502Y-106641300D01*
X94475502Y-106574895D01*
X94475997Y-106574406D01*
X94520608Y-106508513D01*
X94544804Y-106434158D01*
X94548859Y-106356582D01*
X94533045Y-106281022D01*
X94497636Y-106212717D01*
X94454711Y-106166250D01*
X94417502Y-106143092D01*
X94383614Y-106142063D01*
X94383614Y-106011901D01*
X94419922Y-106047202D01*
X94453508Y-106076118D01*
X94476791Y-106091051D01*
X94483618Y-106092017D01*
X94493759Y-106077124D01*
X94498587Y-106040169D01*
X94499046Y-106005048D01*
X94487123Y-105916580D01*
X94454520Y-105842344D01*
X94402460Y-105783771D01*
X94332167Y-105742289D01*
X94256042Y-105721034D01*
X94208318Y-105717373D01*
X94208318Y-105649864D01*
X94221217Y-105652943D01*
X94239209Y-105655207D01*
X94317758Y-105672811D01*
X94391972Y-105705736D01*
X94454243Y-105749958D01*
X94487350Y-105786448D01*
X94516432Y-105823729D01*
X94534847Y-105838991D01*
X94543524Y-105832819D01*
X94544500Y-105822442D01*
X94554252Y-105802472D01*
X94575755Y-105783206D01*
X94601564Y-105759742D01*
X94614942Y-105737736D01*
X94632384Y-105712688D01*
X94650362Y-105700284D01*
X94675687Y-105686320D01*
X94712335Y-105663292D01*
X94741205Y-105643862D01*
X94779907Y-105620105D01*
X94814464Y-105604142D01*
X94832531Y-105599900D01*
X94857794Y-105595328D01*
X94867483Y-105588603D01*
X94886777Y-105577192D01*
X94923633Y-105568920D01*
X94970368Y-105564123D01*
X94973280Y-105564065D01*
X94973280Y-105617125D01*
X94963281Y-105621543D01*
X94944758Y-105641175D01*
X94918928Y-105667233D01*
X94904061Y-105675280D01*
X94902232Y-105664495D01*
X94904693Y-105657050D01*
X94907764Y-105641229D01*
X94897243Y-105641188D01*
X94870676Y-105657330D01*
X94860786Y-105664264D01*
X94834703Y-105679685D01*
X94824012Y-105677206D01*
X94823499Y-105673789D01*
X94816191Y-105671434D01*
X94798370Y-105685679D01*
X94790592Y-105694027D01*
X94767273Y-105716763D01*
X94752981Y-105719795D01*
X94747810Y-105714376D01*
X94737314Y-105710627D01*
X94721994Y-105728603D01*
X94711428Y-105747248D01*
X94695956Y-105773320D01*
X94686299Y-105783342D01*
X94684762Y-105780875D01*
X94679153Y-105765185D01*
X94666911Y-105769657D01*
X94652080Y-105791407D01*
X94644251Y-105809783D01*
X94628925Y-105839650D01*
X94613333Y-105848744D01*
X94611679Y-105848282D01*
X94599994Y-105852528D01*
X94595440Y-105878717D01*
X94595300Y-105887407D01*
X94592883Y-105917479D01*
X94584098Y-105927079D01*
X94576250Y-105925507D01*
X94563053Y-105930535D01*
X94557229Y-105955820D01*
X94558910Y-105997272D01*
X94568227Y-106050802D01*
X94571773Y-106065625D01*
X94588001Y-106106127D01*
X94613947Y-106147160D01*
X94644252Y-106182191D01*
X94673559Y-106204689D01*
X94689797Y-106209500D01*
X94710404Y-106199229D01*
X94741073Y-106170850D01*
X94778761Y-106128013D01*
X94820425Y-106074368D01*
X94863022Y-106013566D01*
X94895128Y-105963207D01*
X94922443Y-105919789D01*
X94943201Y-105889604D01*
X94955208Y-105875640D01*
X94956747Y-105879300D01*
X94943506Y-105914369D01*
X94920269Y-105964272D01*
X94890588Y-106022358D01*
X94858019Y-106081977D01*
X94826114Y-106136479D01*
X94798428Y-106179213D01*
X94791163Y-106189155D01*
X94764057Y-106230244D01*
X94756573Y-106260400D01*
X94768785Y-106284907D01*
X94792770Y-106303988D01*
X94841315Y-106321267D01*
X94850272Y-106320852D01*
X94850272Y-106434467D01*
X94810235Y-106442072D01*
X94777094Y-106465725D01*
X94773101Y-106469849D01*
X94744544Y-106500246D01*
X94789062Y-106561248D01*
X94811412Y-106594991D01*
X94838013Y-106639836D01*
X94866326Y-106690857D01*
X94893809Y-106743128D01*
X94917922Y-106791722D01*
X94936124Y-106831716D01*
X94945875Y-106858181D01*
X94946279Y-106866054D01*
X94937257Y-106860141D01*
X94922584Y-106837725D01*
X94918365Y-106829805D01*
X94893645Y-106786682D01*
X94859596Y-106733987D01*
X94821109Y-106678629D01*
X94783076Y-106627518D01*
X94750387Y-106587563D01*
X94736459Y-106572847D01*
X94708402Y-106551258D01*
X94683341Y-106547573D01*
X94655496Y-106562927D01*
X94622005Y-106595318D01*
X94601847Y-106624703D01*
X94584225Y-106664217D01*
X94570221Y-106708457D01*
X94560916Y-106752025D01*
X94557393Y-106789520D01*
X94560733Y-106815542D01*
X94572018Y-106824690D01*
X94576250Y-106823692D01*
X94590029Y-106824795D01*
X94595096Y-106845436D01*
X94595300Y-106854802D01*
X94598095Y-106892813D01*
X94605208Y-106918288D01*
X94614732Y-106926236D01*
X94620572Y-106920907D01*
X94630871Y-106920020D01*
X94644273Y-106941787D01*
X94645745Y-106945242D01*
X94660880Y-106971853D01*
X94675961Y-106984108D01*
X94677039Y-106984200D01*
X94691621Y-106994594D01*
X94709834Y-107020612D01*
X94715824Y-107031825D01*
X94731271Y-107059586D01*
X94740314Y-107065696D01*
X94744749Y-107055972D01*
X94750070Y-107042892D01*
X94760725Y-107044858D01*
X94782339Y-107063456D01*
X94786973Y-107067873D01*
X94811144Y-107087477D01*
X94823117Y-107089199D01*
X94823900Y-107085800D01*
X94831337Y-107081266D01*
X94851982Y-107095529D01*
X94859520Y-107102473D01*
X94889809Y-107128595D01*
X94905681Y-107135391D01*
X94906470Y-107122638D01*
X94904693Y-107117550D01*
X94902789Y-107100872D01*
X94917287Y-107103241D01*
X94948356Y-107124685D01*
X94948897Y-107125111D01*
X94972116Y-107141497D01*
X94982940Y-107141682D01*
X94986757Y-107131461D01*
X94995303Y-107113835D01*
X95012738Y-107115745D01*
X95034198Y-107129846D01*
X95060737Y-107146148D01*
X95074167Y-107142452D01*
X95077081Y-107116905D01*
X95075871Y-107100044D01*
X95074749Y-107068282D01*
X95080645Y-107056624D01*
X95089256Y-107057728D01*
X95099693Y-107057522D01*
X95102832Y-107042610D01*
X95099581Y-107008113D01*
X95099122Y-107004728D01*
X95095761Y-106967739D01*
X95099263Y-106952795D01*
X95105212Y-106953631D01*
X95113458Y-106951974D01*
X95113039Y-106929715D01*
X95110381Y-106913778D01*
X95105659Y-106883580D01*
X95108174Y-106873812D01*
X95119398Y-106880169D01*
X95121323Y-106881747D01*
X95136404Y-106891826D01*
X95140089Y-106885828D01*
X95132435Y-106861180D01*
X95122350Y-106836191D01*
X95108681Y-106802609D01*
X95105008Y-106787382D01*
X95111605Y-106785400D01*
X95124809Y-106790050D01*
X95136042Y-106791751D01*
X95134160Y-106780763D01*
X95118405Y-106753143D01*
X95117423Y-106751552D01*
X95100472Y-106720271D01*
X95099782Y-106705162D01*
X95115478Y-106702780D01*
X95119175Y-106703296D01*
X95128714Y-106698340D01*
X95122195Y-106681619D01*
X95103000Y-106660078D01*
X95086626Y-106640818D01*
X95090644Y-106628150D01*
X95093475Y-106626059D01*
X95099458Y-106614253D01*
X95085821Y-106596204D01*
X95074638Y-106586477D01*
X95052126Y-106563472D01*
X95050689Y-106547314D01*
X95053556Y-106543724D01*
X95052917Y-106529242D01*
X95034339Y-106508580D01*
X95003263Y-106485485D01*
X94965130Y-106463703D01*
X94925383Y-106446979D01*
X94904730Y-106441278D01*
X94850272Y-106434467D01*
X94850272Y-106320852D01*
X94899941Y-106318547D01*
X94957250Y-106298963D01*
X94996378Y-106278030D01*
X95029320Y-106256508D01*
X95051739Y-106237850D01*
X95059296Y-106225512D01*
X95053299Y-106222482D01*
X95047402Y-106215212D01*
X95062445Y-106193824D01*
X95069174Y-106186580D01*
X95091816Y-106160119D01*
X95102804Y-106141638D01*
X95100213Y-106135356D01*
X95090600Y-106139650D01*
X95078645Y-106142862D01*
X95081101Y-106131279D01*
X95096203Y-106109691D01*
X95105514Y-106099193D01*
X95122543Y-106079000D01*
X95121892Y-106070924D01*
X95111864Y-106069800D01*
X95094195Y-106065603D01*
X95094611Y-106050871D01*
X95113374Y-106022385D01*
X95116000Y-106019000D01*
X95136827Y-105988385D01*
X95138529Y-105974291D01*
X95122446Y-105976270D01*
X95111355Y-105978266D01*
X95111031Y-105968100D01*
X95121475Y-105940509D01*
X95122446Y-105938179D01*
X95136871Y-105901118D01*
X95139976Y-105884262D01*
X95131698Y-105885048D01*
X95121323Y-105892852D01*
X95108998Y-105900794D01*
X95105552Y-105893110D01*
X95109513Y-105865493D01*
X95110381Y-105860821D01*
X95114245Y-105828974D01*
X95109370Y-105819258D01*
X95105608Y-105820723D01*
X95097862Y-105817406D01*
X95096739Y-105792470D01*
X95099304Y-105765116D01*
X95102788Y-105727653D01*
X95100789Y-105710026D01*
X95092079Y-105707033D01*
X95086054Y-105708915D01*
X95072198Y-105709712D01*
X95066202Y-105694286D01*
X95065200Y-105669749D01*
X95063418Y-105639391D01*
X95055986Y-105628960D01*
X95042975Y-105631732D01*
X95004781Y-105645634D01*
X94984177Y-105647274D01*
X94976439Y-105636526D01*
X94975899Y-105629956D01*
X94973280Y-105617125D01*
X94973280Y-105564065D01*
X95019298Y-105563141D01*
X95062741Y-105566310D01*
X95093013Y-105573970D01*
X95099729Y-105578383D01*
X95114196Y-105602959D01*
X95119587Y-105622354D01*
X95129507Y-105652078D01*
X95139033Y-105666112D01*
X95149836Y-105688909D01*
X95154100Y-105720550D01*
X95158200Y-105752787D01*
X95167663Y-105773482D01*
X95175058Y-105792035D01*
X95182360Y-105828444D01*
X95188589Y-105875179D01*
X95192767Y-105924710D01*
X95193917Y-105969509D01*
X95193794Y-105974550D01*
X95192959Y-106005724D01*
X95192188Y-106040726D01*
X95188150Y-106071242D01*
X95179488Y-106088837D01*
X95179095Y-106089100D01*
X95170052Y-106106164D01*
X95166800Y-106132081D01*
X95157827Y-106167135D01*
X95141400Y-106190450D01*
X95122185Y-106215123D01*
X95116000Y-106234377D01*
X95105780Y-106258632D01*
X95078878Y-106289718D01*
X95040936Y-106322341D01*
X94997594Y-106351211D01*
X94983244Y-106358923D01*
X94933038Y-106384150D01*
X94984723Y-106410518D01*
X95036452Y-106440932D01*
X95078721Y-106473399D01*
X95106791Y-106503742D01*
X95116000Y-106526160D01*
X95124881Y-106551104D01*
X95141400Y-106571450D01*
X95160735Y-106601448D01*
X95166800Y-106629818D01*
X95170971Y-106658440D01*
X95179639Y-106673135D01*
X95189305Y-106690546D01*
X95192705Y-106715159D01*
X95193336Y-106754966D01*
X95194064Y-106781000D01*
X95193743Y-106825410D01*
G36*
X95858008Y-107609808D02*
G01*
X95838965Y-107638169D01*
X95811524Y-107676151D01*
X95799991Y-107691552D01*
X95653143Y-107867672D01*
X95494364Y-108022391D01*
X95320922Y-108157982D01*
X95130086Y-108276719D01*
X95039974Y-108324174D01*
X94823038Y-108419086D01*
X94601871Y-108489313D01*
X94377839Y-108534948D01*
X94152308Y-108556082D01*
X93926642Y-108552806D01*
X93702209Y-108525214D01*
X93480372Y-108473395D01*
X93262498Y-108397442D01*
X93049952Y-108297447D01*
X92849511Y-108177130D01*
X92763001Y-108114258D01*
X92671704Y-108039061D01*
X92579826Y-107955736D01*
X92491574Y-107868479D01*
X92411151Y-107781488D01*
X92342765Y-107698959D01*
X92290619Y-107625088D01*
X92281932Y-107610737D01*
X92260913Y-107574750D01*
X92400645Y-107481796D01*
X92452386Y-107447774D01*
X92495822Y-107419965D01*
X92526997Y-107400847D01*
X92541957Y-107392894D01*
X92542683Y-107392896D01*
X92567112Y-107429354D01*
X92605310Y-107478728D01*
X92653011Y-107536049D01*
X92705949Y-107596347D01*
X92759858Y-107654652D01*
X92810472Y-107705994D01*
X92816153Y-107711482D01*
X92980125Y-107852568D01*
X93154183Y-107970462D01*
X93339291Y-108065680D01*
X93536417Y-108138736D01*
X93694151Y-108179601D01*
X93792538Y-108195595D01*
X93907618Y-108205917D01*
X94031954Y-108210557D01*
X94158111Y-108209505D01*
X94278651Y-108202752D01*
X94386140Y-108190288D01*
X94438943Y-108180575D01*
X94650391Y-108122496D01*
X94848236Y-108043036D01*
X95033125Y-107941839D01*
X95205708Y-107818549D01*
X95366634Y-107672810D01*
X95370000Y-107669396D01*
X95418578Y-107618282D01*
X95466057Y-107565293D01*
X95506284Y-107517457D01*
X95528750Y-107488126D01*
X95555768Y-107452318D01*
X95578262Y-107426558D01*
X95591470Y-107416285D01*
X95591653Y-107416273D01*
X95606745Y-107422743D01*
X95637155Y-107440230D01*
X95677915Y-107465465D01*
X95724055Y-107495175D01*
X95770606Y-107526089D01*
X95812601Y-107554934D01*
X95845069Y-107578440D01*
X95863041Y-107593334D01*
X95865076Y-107596302D01*
X95858008Y-107609808D01*
G37*
X95858008Y-107609808D02*
X95838965Y-107638169D01*
X95811524Y-107676151D01*
X95799991Y-107691552D01*
X95653143Y-107867672D01*
X95494364Y-108022391D01*
X95320922Y-108157982D01*
X95130086Y-108276719D01*
X95039974Y-108324174D01*
X94823038Y-108419086D01*
X94601871Y-108489313D01*
X94377839Y-108534948D01*
X94152308Y-108556082D01*
X93926642Y-108552806D01*
X93702209Y-108525214D01*
X93480372Y-108473395D01*
X93262498Y-108397442D01*
X93049952Y-108297447D01*
X92849511Y-108177130D01*
X92763001Y-108114258D01*
X92671704Y-108039061D01*
X92579826Y-107955736D01*
X92491574Y-107868479D01*
X92411151Y-107781488D01*
X92342765Y-107698959D01*
X92290619Y-107625088D01*
X92281932Y-107610737D01*
X92260913Y-107574750D01*
X92400645Y-107481796D01*
X92452386Y-107447774D01*
X92495822Y-107419965D01*
X92526997Y-107400847D01*
X92541957Y-107392894D01*
X92542683Y-107392896D01*
X92567112Y-107429354D01*
X92605310Y-107478728D01*
X92653011Y-107536049D01*
X92705949Y-107596347D01*
X92759858Y-107654652D01*
X92810472Y-107705994D01*
X92816153Y-107711482D01*
X92980125Y-107852568D01*
X93154183Y-107970462D01*
X93339291Y-108065680D01*
X93536417Y-108138736D01*
X93694151Y-108179601D01*
X93792538Y-108195595D01*
X93907618Y-108205917D01*
X94031954Y-108210557D01*
X94158111Y-108209505D01*
X94278651Y-108202752D01*
X94386140Y-108190288D01*
X94438943Y-108180575D01*
X94650391Y-108122496D01*
X94848236Y-108043036D01*
X95033125Y-107941839D01*
X95205708Y-107818549D01*
X95366634Y-107672810D01*
X95370000Y-107669396D01*
X95418578Y-107618282D01*
X95466057Y-107565293D01*
X95506284Y-107517457D01*
X95528750Y-107488126D01*
X95555768Y-107452318D01*
X95578262Y-107426558D01*
X95591470Y-107416285D01*
X95591653Y-107416273D01*
X95606745Y-107422743D01*
X95637155Y-107440230D01*
X95677915Y-107465465D01*
X95724055Y-107495175D01*
X95770606Y-107526089D01*
X95812601Y-107554934D01*
X95845069Y-107578440D01*
X95863041Y-107593334D01*
X95865076Y-107596302D01*
X95858008Y-107609808D01*
G36*
X95855503Y-105206968D02*
G01*
X95829338Y-105226581D01*
X95791649Y-105253518D01*
X95747279Y-105284452D01*
X95701072Y-105316057D01*
X95657871Y-105345009D01*
X95622519Y-105367981D01*
X95599858Y-105381647D01*
X95594434Y-105384000D01*
X95585039Y-105374612D01*
X95564043Y-105349453D01*
X95535145Y-105313024D01*
X95518836Y-105291925D01*
X95389428Y-105142027D01*
X95242449Y-105005502D01*
X95081338Y-104884547D01*
X94909533Y-104781361D01*
X94730473Y-104698142D01*
X94547596Y-104637089D01*
X94463476Y-104617123D01*
X94247113Y-104584834D01*
X94032235Y-104577074D01*
X93820550Y-104593494D01*
X93613770Y-104633748D01*
X93413603Y-104697489D01*
X93221760Y-104784371D01*
X93039950Y-104894046D01*
X93015987Y-104910779D01*
X92951142Y-104961050D01*
X92877826Y-105024761D01*
X92801585Y-105096466D01*
X92727967Y-105170719D01*
X92662520Y-105242077D01*
X92610791Y-105305092D01*
X92601708Y-105317428D01*
X92573415Y-105355150D01*
X92550056Y-105383135D01*
X92535937Y-105396294D01*
X92534609Y-105396700D01*
X92521684Y-105390204D01*
X92493046Y-105372847D01*
X92453550Y-105347824D01*
X92408053Y-105318329D01*
X92361411Y-105287556D01*
X92318480Y-105258700D01*
X92284117Y-105234956D01*
X92263177Y-105219517D01*
X92259067Y-105215440D01*
X92265986Y-105204334D01*
X92283217Y-105178771D01*
X92299325Y-105155400D01*
X92424382Y-104994646D01*
X92570045Y-104841504D01*
X92731697Y-104700617D01*
X92812330Y-104639632D01*
X92888948Y-104589073D01*
X92982711Y-104534493D01*
X93086526Y-104479469D01*
X93193301Y-104427580D01*
X93295942Y-104382403D01*
X93387358Y-104347514D01*
X93399640Y-104343397D01*
X93621775Y-104283618D01*
X93846646Y-104248328D01*
X94072332Y-104237047D01*
X94296915Y-104249296D01*
X94518474Y-104284597D01*
X94735090Y-104342471D01*
X94944843Y-104422439D01*
X95145814Y-104524021D01*
X95336083Y-104646740D01*
X95513729Y-104790115D01*
X95625991Y-104898803D01*
X95674231Y-104950752D01*
X95722826Y-105006031D01*
X95768742Y-105060845D01*
X95808945Y-105111402D01*
X95840402Y-105153909D01*
X95860079Y-105184574D01*
X95865300Y-105198003D01*
X95855503Y-105206968D01*
G37*
X95855503Y-105206968D02*
X95829338Y-105226581D01*
X95791649Y-105253518D01*
X95747279Y-105284452D01*
X95701072Y-105316057D01*
X95657871Y-105345009D01*
X95622519Y-105367981D01*
X95599858Y-105381647D01*
X95594434Y-105384000D01*
X95585039Y-105374612D01*
X95564043Y-105349453D01*
X95535145Y-105313024D01*
X95518836Y-105291925D01*
X95389428Y-105142027D01*
X95242449Y-105005502D01*
X95081338Y-104884547D01*
X94909533Y-104781361D01*
X94730473Y-104698142D01*
X94547596Y-104637089D01*
X94463476Y-104617123D01*
X94247113Y-104584834D01*
X94032235Y-104577074D01*
X93820550Y-104593494D01*
X93613770Y-104633748D01*
X93413603Y-104697489D01*
X93221760Y-104784371D01*
X93039950Y-104894046D01*
X93015987Y-104910779D01*
X92951142Y-104961050D01*
X92877826Y-105024761D01*
X92801585Y-105096466D01*
X92727967Y-105170719D01*
X92662520Y-105242077D01*
X92610791Y-105305092D01*
X92601708Y-105317428D01*
X92573415Y-105355150D01*
X92550056Y-105383135D01*
X92535937Y-105396294D01*
X92534609Y-105396700D01*
X92521684Y-105390204D01*
X92493046Y-105372847D01*
X92453550Y-105347824D01*
X92408053Y-105318329D01*
X92361411Y-105287556D01*
X92318480Y-105258700D01*
X92284117Y-105234956D01*
X92263177Y-105219517D01*
X92259067Y-105215440D01*
X92265986Y-105204334D01*
X92283217Y-105178771D01*
X92299325Y-105155400D01*
X92424382Y-104994646D01*
X92570045Y-104841504D01*
X92731697Y-104700617D01*
X92812330Y-104639632D01*
X92888948Y-104589073D01*
X92982711Y-104534493D01*
X93086526Y-104479469D01*
X93193301Y-104427580D01*
X93295942Y-104382403D01*
X93387358Y-104347514D01*
X93399640Y-104343397D01*
X93621775Y-104283618D01*
X93846646Y-104248328D01*
X94072332Y-104237047D01*
X94296915Y-104249296D01*
X94518474Y-104284597D01*
X94735090Y-104342471D01*
X94944843Y-104422439D01*
X95145814Y-104524021D01*
X95336083Y-104646740D01*
X95513729Y-104790115D01*
X95625991Y-104898803D01*
X95674231Y-104950752D01*
X95722826Y-105006031D01*
X95768742Y-105060845D01*
X95808945Y-105111402D01*
X95840402Y-105153909D01*
X95860079Y-105184574D01*
X95865300Y-105198003D01*
X95855503Y-105206968D01*
G36*
X96696232Y-108168942D02*
G01*
X96676283Y-108199644D01*
X96646434Y-108242376D01*
X96609469Y-108293079D01*
X96596495Y-108310453D01*
X96420828Y-108523403D01*
X96227195Y-108719144D01*
X96017045Y-108896843D01*
X95791829Y-109055667D01*
X95552997Y-109194783D01*
X95301999Y-109313358D01*
X95040286Y-109410557D01*
X94769307Y-109485549D01*
X94490512Y-109537499D01*
X94451775Y-109542778D01*
X94365736Y-109551291D01*
X94261744Y-109557347D01*
X94147130Y-109560877D01*
X94029229Y-109561813D01*
X93915375Y-109560088D01*
X93812899Y-109555633D01*
X93738050Y-109549410D01*
X93472794Y-109508026D01*
X93210413Y-109443695D01*
X92953351Y-109357657D01*
X92704053Y-109251149D01*
X92464961Y-109125412D01*
X92238519Y-108981684D01*
X92027173Y-108821204D01*
X91833365Y-108645211D01*
X91721658Y-108527250D01*
X91681404Y-108480705D01*
X91636392Y-108426395D01*
X91589409Y-108367950D01*
X91543242Y-108309002D01*
X91500678Y-108253179D01*
X91464503Y-108204113D01*
X91437503Y-108165433D01*
X91422467Y-108140770D01*
X91420300Y-108134658D01*
X91430411Y-108125432D01*
X91458570Y-108104657D01*
X91501518Y-108074611D01*
X91555996Y-108037571D01*
X91618743Y-107995812D01*
X91624325Y-107992137D01*
X91687681Y-107950790D01*
X91743383Y-107915072D01*
X91788136Y-107887045D01*
X91818643Y-107868770D01*
X91831609Y-107862308D01*
X91831808Y-107862382D01*
X91840360Y-107873910D01*
X91860434Y-107901129D01*
X91888511Y-107939263D01*
X91905309Y-107962100D01*
X92071892Y-108167977D01*
X92253772Y-108354090D01*
X92449720Y-108519886D01*
X92658509Y-108664812D01*
X92878912Y-108788315D01*
X93109702Y-108889842D01*
X93349651Y-108968841D01*
X93597532Y-109024760D01*
X93852117Y-109057044D01*
X94112180Y-109065143D01*
X94328600Y-109053354D01*
X94581710Y-109017273D01*
X94828712Y-108957095D01*
X95068015Y-108873717D01*
X95298026Y-108768037D01*
X95517152Y-108640952D01*
X95723802Y-108493361D01*
X95916383Y-108326161D01*
X96093303Y-108140250D01*
X96213712Y-107990478D01*
X96299641Y-107875409D01*
X96409496Y-107946096D01*
X96505874Y-108008600D01*
X96581680Y-108058896D01*
X96638124Y-108097842D01*
X96676416Y-108126293D01*
X96697766Y-108145108D01*
X96703500Y-108154331D01*
X96696232Y-108168942D01*
G37*
X96696232Y-108168942D02*
X96676283Y-108199644D01*
X96646434Y-108242376D01*
X96609469Y-108293079D01*
X96596495Y-108310453D01*
X96420828Y-108523403D01*
X96227195Y-108719144D01*
X96017045Y-108896843D01*
X95791829Y-109055667D01*
X95552997Y-109194783D01*
X95301999Y-109313358D01*
X95040286Y-109410557D01*
X94769307Y-109485549D01*
X94490512Y-109537499D01*
X94451775Y-109542778D01*
X94365736Y-109551291D01*
X94261744Y-109557347D01*
X94147130Y-109560877D01*
X94029229Y-109561813D01*
X93915375Y-109560088D01*
X93812899Y-109555633D01*
X93738050Y-109549410D01*
X93472794Y-109508026D01*
X93210413Y-109443695D01*
X92953351Y-109357657D01*
X92704053Y-109251149D01*
X92464961Y-109125412D01*
X92238519Y-108981684D01*
X92027173Y-108821204D01*
X91833365Y-108645211D01*
X91721658Y-108527250D01*
X91681404Y-108480705D01*
X91636392Y-108426395D01*
X91589409Y-108367950D01*
X91543242Y-108309002D01*
X91500678Y-108253179D01*
X91464503Y-108204113D01*
X91437503Y-108165433D01*
X91422467Y-108140770D01*
X91420300Y-108134658D01*
X91430411Y-108125432D01*
X91458570Y-108104657D01*
X91501518Y-108074611D01*
X91555996Y-108037571D01*
X91618743Y-107995812D01*
X91624325Y-107992137D01*
X91687681Y-107950790D01*
X91743383Y-107915072D01*
X91788136Y-107887045D01*
X91818643Y-107868770D01*
X91831609Y-107862308D01*
X91831808Y-107862382D01*
X91840360Y-107873910D01*
X91860434Y-107901129D01*
X91888511Y-107939263D01*
X91905309Y-107962100D01*
X92071892Y-108167977D01*
X92253772Y-108354090D01*
X92449720Y-108519886D01*
X92658509Y-108664812D01*
X92878912Y-108788315D01*
X93109702Y-108889842D01*
X93349651Y-108968841D01*
X93597532Y-109024760D01*
X93852117Y-109057044D01*
X94112180Y-109065143D01*
X94328600Y-109053354D01*
X94581710Y-109017273D01*
X94828712Y-108957095D01*
X95068015Y-108873717D01*
X95298026Y-108768037D01*
X95517152Y-108640952D01*
X95723802Y-108493361D01*
X95916383Y-108326161D01*
X96093303Y-108140250D01*
X96213712Y-107990478D01*
X96299641Y-107875409D01*
X96409496Y-107946096D01*
X96505874Y-108008600D01*
X96581680Y-108058896D01*
X96638124Y-108097842D01*
X96676416Y-108126293D01*
X96697766Y-108145108D01*
X96703500Y-108154331D01*
X96696232Y-108168942D01*
G36*
X96513150Y-104780652D02*
G01*
X96449500Y-104822063D01*
X96393415Y-104858241D01*
X96348240Y-104887055D01*
X96317323Y-104906369D01*
X96304011Y-104914051D01*
X96303801Y-104914100D01*
X96294596Y-104904605D01*
X96273516Y-104878871D01*
X96243866Y-104841025D01*
X96214816Y-104802975D01*
X96048224Y-104602402D01*
X95865718Y-104420006D01*
X95668853Y-104256831D01*
X95459181Y-104113921D01*
X95238257Y-103992322D01*
X95007635Y-103893080D01*
X94768870Y-103817239D01*
X94736731Y-103809008D01*
X94583068Y-103775080D01*
X94433490Y-103751616D01*
X94279216Y-103737599D01*
X94111465Y-103732017D01*
X94068250Y-103731820D01*
X93802263Y-103743357D01*
X93546899Y-103777917D01*
X93301828Y-103835641D01*
X93066713Y-103916669D01*
X92841223Y-104021140D01*
X92625024Y-104149194D01*
X92417782Y-104300971D01*
X92219164Y-104476610D01*
X92166515Y-104528603D01*
X92107632Y-104590313D01*
X92045233Y-104659416D01*
X91986359Y-104727899D01*
X91938056Y-104787750D01*
X91933700Y-104793450D01*
X91896226Y-104842060D01*
X91863774Y-104882725D01*
X91839632Y-104911423D01*
X91827087Y-104924134D01*
X91826642Y-104924356D01*
X91813102Y-104919021D01*
X91782722Y-104902029D01*
X91739576Y-104876022D01*
X91687739Y-104843645D01*
X91631284Y-104807541D01*
X91574288Y-104770354D01*
X91520823Y-104734728D01*
X91474965Y-104703307D01*
X91440787Y-104678733D01*
X91422365Y-104663652D01*
X91420300Y-104660693D01*
X91427250Y-104646901D01*
X91445937Y-104617559D01*
X91473122Y-104577628D01*
X91492008Y-104550869D01*
X91662014Y-104334588D01*
X91851638Y-104133154D01*
X92058674Y-103948422D01*
X92280917Y-103782245D01*
X92516159Y-103636478D01*
X92683950Y-103549226D01*
X92947546Y-103436017D01*
X93216131Y-103347175D01*
X93488431Y-103282739D01*
X93763173Y-103242745D01*
X94039085Y-103227231D01*
X94314894Y-103236235D01*
X94589326Y-103269795D01*
X94861109Y-103327948D01*
X95128970Y-103410732D01*
X95287120Y-103472177D01*
X95548250Y-103594844D01*
X95793277Y-103737152D01*
X96022310Y-103899188D01*
X96235460Y-104081041D01*
X96432837Y-104282797D01*
X96614550Y-104504545D01*
X96665525Y-104574277D01*
X96717459Y-104647204D01*
X96513150Y-104780652D01*
G37*
X96513150Y-104780652D02*
X96449500Y-104822063D01*
X96393415Y-104858241D01*
X96348240Y-104887055D01*
X96317323Y-104906369D01*
X96304011Y-104914051D01*
X96303801Y-104914100D01*
X96294596Y-104904605D01*
X96273516Y-104878871D01*
X96243866Y-104841025D01*
X96214816Y-104802975D01*
X96048224Y-104602402D01*
X95865718Y-104420006D01*
X95668853Y-104256831D01*
X95459181Y-104113921D01*
X95238257Y-103992322D01*
X95007635Y-103893080D01*
X94768870Y-103817239D01*
X94736731Y-103809008D01*
X94583068Y-103775080D01*
X94433490Y-103751616D01*
X94279216Y-103737599D01*
X94111465Y-103732017D01*
X94068250Y-103731820D01*
X93802263Y-103743357D01*
X93546899Y-103777917D01*
X93301828Y-103835641D01*
X93066713Y-103916669D01*
X92841223Y-104021140D01*
X92625024Y-104149194D01*
X92417782Y-104300971D01*
X92219164Y-104476610D01*
X92166515Y-104528603D01*
X92107632Y-104590313D01*
X92045233Y-104659416D01*
X91986359Y-104727899D01*
X91938056Y-104787750D01*
X91933700Y-104793450D01*
X91896226Y-104842060D01*
X91863774Y-104882725D01*
X91839632Y-104911423D01*
X91827087Y-104924134D01*
X91826642Y-104924356D01*
X91813102Y-104919021D01*
X91782722Y-104902029D01*
X91739576Y-104876022D01*
X91687739Y-104843645D01*
X91631284Y-104807541D01*
X91574288Y-104770354D01*
X91520823Y-104734728D01*
X91474965Y-104703307D01*
X91440787Y-104678733D01*
X91422365Y-104663652D01*
X91420300Y-104660693D01*
X91427250Y-104646901D01*
X91445937Y-104617559D01*
X91473122Y-104577628D01*
X91492008Y-104550869D01*
X91662014Y-104334588D01*
X91851638Y-104133154D01*
X92058674Y-103948422D01*
X92280917Y-103782245D01*
X92516159Y-103636478D01*
X92683950Y-103549226D01*
X92947546Y-103436017D01*
X93216131Y-103347175D01*
X93488431Y-103282739D01*
X93763173Y-103242745D01*
X94039085Y-103227231D01*
X94314894Y-103236235D01*
X94589326Y-103269795D01*
X94861109Y-103327948D01*
X95128970Y-103410732D01*
X95287120Y-103472177D01*
X95548250Y-103594844D01*
X95793277Y-103737152D01*
X96022310Y-103899188D01*
X96235460Y-104081041D01*
X96432837Y-104282797D01*
X96614550Y-104504545D01*
X96665525Y-104574277D01*
X96717459Y-104647204D01*
X96513150Y-104780652D01*
D11*
%TO.C,D4*%
X154400000Y-89150000D02*
X153100000Y-89150000D01*
X154600000Y-89750000D02*
X154400000Y-89150000D01*
X154600000Y-92950000D02*
X154600000Y-89750000D01*
X154400000Y-93550000D02*
X154600000Y-92950000D01*
X153100000Y-93550000D02*
X154400000Y-93550000D01*
X153100000Y-89050000D02*
X154400000Y-89050000D01*
X153100000Y-88950000D02*
X154400000Y-88950000D01*
X153100000Y-88850000D02*
X154400000Y-88850000D01*
D12*
%TO.C,R19*%
X99620000Y-121200000D02*
X99620000Y-120200000D01*
X100980000Y-120200000D02*
X100980000Y-121200000D01*
%TO.C,R18*%
X153120000Y-87300000D02*
X153120000Y-86300000D01*
X154480000Y-86300000D02*
X154480000Y-87300000D01*
D11*
%TO.C,D5*%
X102000000Y-125700000D02*
X102000000Y-124400000D01*
X101400000Y-125900000D02*
X102000000Y-125700000D01*
X98200000Y-125900000D02*
X101400000Y-125900000D01*
X97600000Y-125700000D02*
X98200000Y-125900000D01*
X97600000Y-124400000D02*
X97600000Y-125700000D01*
X102100000Y-124400000D02*
X102100000Y-125700000D01*
X102200000Y-124400000D02*
X102200000Y-125700000D01*
X102300000Y-124400000D02*
X102300000Y-125700000D01*
D14*
%TO.C,Y1*%
X135650000Y-110450000D02*
X129650000Y-110450000D01*
X129650000Y-106950000D02*
X135650000Y-106950000D01*
D12*
%TO.C,R3*%
X124820000Y-110100000D02*
X124820000Y-109100000D01*
X126180000Y-109100000D02*
X126180000Y-110100000D01*
%TO.C,R1*%
X122600000Y-122280000D02*
X121600000Y-122280000D01*
X121600000Y-120920000D02*
X122600000Y-120920000D01*
D11*
%TO.C,Q3*%
X128300000Y-120500000D02*
X128300000Y-117300000D01*
X128300000Y-117300000D02*
X125100000Y-117300000D01*
X125100000Y-117300000D02*
X125100000Y-120500000D01*
X125100000Y-120500000D02*
X128300000Y-120500000D01*
%TO.C,Q2*%
X123600000Y-117300000D02*
X120400000Y-117300000D01*
X120400000Y-117300000D02*
X120400000Y-120500000D01*
X120400000Y-120500000D02*
X123600000Y-120500000D01*
X123600000Y-120500000D02*
X123600000Y-117300000D01*
D15*
%TO.C,U4*%
X151528063Y-78923063D02*
X151528063Y-85477063D01*
X147972063Y-78923063D02*
X151528063Y-78923063D01*
X147972063Y-85477063D02*
X147972063Y-78923063D01*
X151528063Y-85477063D02*
X147972063Y-85477063D01*
D11*
%TO.C,D3*%
X145905000Y-96365000D02*
X145905000Y-97635000D01*
X143619000Y-96365000D02*
X145905000Y-96365000D01*
X143619000Y-97635000D02*
X143619000Y-96365000D01*
X145905000Y-97635000D02*
X143619000Y-97635000D01*
%TO.C,D2*%
X143095000Y-103135000D02*
X143095000Y-101865000D01*
X145381000Y-103135000D02*
X143095000Y-103135000D01*
X145381000Y-101865000D02*
X145381000Y-103135000D01*
X143095000Y-101865000D02*
X145381000Y-101865000D01*
D16*
%TO.C,D1*%
X143600000Y-124680000D02*
X142800000Y-124680000D01*
X143600000Y-120280000D02*
X143600000Y-124680000D01*
X142800000Y-120280000D02*
X143600000Y-120280000D01*
X139600000Y-124680000D02*
X140400000Y-124680000D01*
X139600000Y-120280000D02*
X139600000Y-124680000D01*
X140400000Y-120280000D02*
X139600000Y-120280000D01*
D11*
%TO.C,Q1*%
X123600000Y-122900000D02*
X120400000Y-122900000D01*
X123600000Y-126100000D02*
X123600000Y-122900000D01*
X120400000Y-126100000D02*
X123600000Y-126100000D01*
X120400000Y-122900000D02*
X120400000Y-126100000D01*
D12*
%TO.C,R11*%
X151000000Y-93580000D02*
X150000000Y-93580000D01*
X150000000Y-92220000D02*
X151000000Y-92220000D01*
%TO.C,R5*%
X145820000Y-104600000D02*
X145820000Y-103600000D01*
X147180000Y-103600000D02*
X147180000Y-104600000D01*
%TO.C,R4*%
X145980000Y-93100000D02*
X145980000Y-94100000D01*
X144620000Y-94100000D02*
X144620000Y-93100000D01*
%TO.C,R2*%
X126500000Y-120820000D02*
X127500000Y-120820000D01*
X127500000Y-122180000D02*
X126500000Y-122180000D01*
%TO.C,C4*%
X125400000Y-124150000D02*
X125400000Y-124850000D01*
X124200000Y-124850000D02*
X124200000Y-124150000D01*
D11*
%TO.C,J2*%
X149000000Y-103400000D02*
X156100000Y-103400000D01*
X149000000Y-94600000D02*
X156100000Y-94600000D01*
X156100000Y-94600000D02*
X156100000Y-103400000D01*
X149000000Y-103400000D02*
X149000000Y-94600000D01*
X155000000Y-94800000D02*
X155000000Y-103200000D01*
D17*
X149480000Y-99000000D02*
X155800000Y-99000000D01*
D12*
%TO.C,U3*%
X120100000Y-112190000D02*
X117150000Y-112190000D01*
X118300000Y-115410000D02*
X120100000Y-115410000D01*
D15*
%TO.C,U1*%
X101822938Y-122428063D02*
X101822938Y-118872063D01*
X101822938Y-118872063D02*
X108376938Y-118872063D01*
X108376938Y-118872063D02*
X108376938Y-122428063D01*
X108376938Y-122428063D02*
X101822938Y-122428063D01*
D16*
%TO.C,U2*%
X126175000Y-103675000D02*
X127200000Y-103675000D01*
X115825000Y-104675000D02*
X116900000Y-104675000D01*
X115825000Y-94325000D02*
X116900000Y-94325000D01*
X126175000Y-94325000D02*
X125100000Y-94325000D01*
X126175000Y-104675000D02*
X125100000Y-104675000D01*
X126175000Y-94325000D02*
X126175000Y-95400000D01*
X115825000Y-94325000D02*
X115825000Y-95400000D01*
X115825000Y-104675000D02*
X115825000Y-103600000D01*
X126175000Y-104675000D02*
X126175000Y-103675000D01*
D12*
%TO.C,R13*%
X123320000Y-113900000D02*
X123320000Y-112900000D01*
X124680000Y-112900000D02*
X124680000Y-113900000D01*
%TO.C,R12*%
X121820000Y-113900000D02*
X121820000Y-112900000D01*
X123180000Y-112900000D02*
X123180000Y-113900000D01*
D11*
%TO.C,F1*%
X138300000Y-125200000D02*
X132300000Y-125200000D01*
X138300000Y-115100000D02*
X138300000Y-125200000D01*
X132300000Y-115100000D02*
X138300000Y-115100000D01*
X132300000Y-125200000D02*
X132300000Y-115100000D01*
D12*
%TO.C,R17*%
X115120000Y-114100000D02*
X115120000Y-113100000D01*
X116480000Y-113100000D02*
X116480000Y-114100000D01*
%TO.C,R14*%
X118500000Y-110320000D02*
X119500000Y-110320000D01*
X119500000Y-111680000D02*
X118500000Y-111680000D01*
%TO.C,R10*%
X144480000Y-85100000D02*
X144480000Y-86100000D01*
X143120000Y-86100000D02*
X143120000Y-85100000D01*
%TO.C,R9*%
X105320000Y-80400000D02*
X105320000Y-79400000D01*
X106680000Y-79400000D02*
X106680000Y-80400000D01*
%TO.C,R8*%
X129920000Y-102900000D02*
X129920000Y-101900000D01*
X131280000Y-101900000D02*
X131280000Y-102900000D01*
%TO.C,R7*%
X143900000Y-98320000D02*
X144900000Y-98320000D01*
X144900000Y-99680000D02*
X143900000Y-99680000D01*
%TO.C,R16*%
X101680000Y-79400000D02*
X101680000Y-80400000D01*
X100320000Y-80400000D02*
X100320000Y-79400000D01*
%TO.C,R15*%
X104180000Y-79400000D02*
X104180000Y-80400000D01*
X102820000Y-80400000D02*
X102820000Y-79400000D01*
%TO.C,R6*%
X143900000Y-99820000D02*
X144900000Y-99820000D01*
X144900000Y-101180000D02*
X143900000Y-101180000D01*
D11*
%TO.C,FB3*%
X131957000Y-100665000D02*
X134243000Y-100665000D01*
X134243000Y-100665000D02*
X134243000Y-101935000D01*
X134243000Y-101935000D02*
X131957000Y-101935000D01*
X131957000Y-101935000D02*
X131957000Y-100665000D01*
%TO.C,FB2*%
X140195000Y-94465000D02*
X142481000Y-94465000D01*
X142481000Y-94465000D02*
X142481000Y-95735000D01*
X142481000Y-95735000D02*
X140195000Y-95735000D01*
X140195000Y-95735000D02*
X140195000Y-94465000D01*
%TO.C,FB1*%
X152235000Y-88595000D02*
X152235000Y-90881000D01*
X152235000Y-90881000D02*
X150965000Y-90881000D01*
X150965000Y-90881000D02*
X150965000Y-88595000D01*
X150965000Y-88595000D02*
X152235000Y-88595000D01*
D12*
%TO.C,C29*%
X140400000Y-97200000D02*
X139700000Y-97200000D01*
X139700000Y-96000000D02*
X140400000Y-96000000D01*
%TO.C,C27*%
X133950000Y-105700000D02*
X133250000Y-105700000D01*
X133250000Y-104500000D02*
X133950000Y-104500000D01*
%TO.C,C25*%
X148500000Y-88300000D02*
X149200000Y-88300000D01*
X149200000Y-89500000D02*
X148500000Y-89500000D01*
%TO.C,C23*%
X144400000Y-81450000D02*
X144400000Y-82150000D01*
X143200000Y-82150000D02*
X143200000Y-81450000D01*
%TO.C,C21*%
X127000000Y-108400000D02*
X127000000Y-107700000D01*
X128200000Y-107700000D02*
X128200000Y-108400000D01*
%TO.C,C20*%
X111410000Y-97190000D02*
X112110000Y-97190000D01*
X112110000Y-98390000D02*
X111410000Y-98390000D01*
%TO.C,C19*%
X131200000Y-98400000D02*
X130500000Y-98400000D01*
X130500000Y-97200000D02*
X131200000Y-97200000D01*
%TO.C,C18*%
X113850000Y-109800000D02*
X114550000Y-109800000D01*
X114550000Y-111000000D02*
X113850000Y-111000000D01*
%TO.C,C17*%
X109890000Y-101950000D02*
X109890000Y-101250000D01*
X111090000Y-101250000D02*
X111090000Y-101950000D01*
%TO.C,C16*%
X108500000Y-95800000D02*
X108500000Y-95100000D01*
X109700000Y-95100000D02*
X109700000Y-95800000D01*
%TO.C,C15*%
X128900000Y-92400000D02*
X128900000Y-93100000D01*
X127700000Y-93100000D02*
X127700000Y-92400000D01*
%TO.C,C14*%
X130000000Y-111700000D02*
X130700000Y-111700000D01*
X130700000Y-112900000D02*
X130000000Y-112900000D01*
%TO.C,C13*%
X135300000Y-112900000D02*
X134600000Y-112900000D01*
X134600000Y-111700000D02*
X135300000Y-111700000D01*
%TO.C,C12*%
X148500000Y-89800000D02*
X149200000Y-89800000D01*
X149200000Y-91000000D02*
X148500000Y-91000000D01*
%TO.C,C10*%
X108700000Y-104700000D02*
X109400000Y-104700000D01*
X109400000Y-105900000D02*
X108700000Y-105900000D01*
%TO.C,C8*%
X120000000Y-124200000D02*
X120000000Y-124900000D01*
X118800000Y-124900000D02*
X118800000Y-124200000D01*
%TO.C,C6*%
X110300000Y-119500000D02*
X110300000Y-120200000D01*
X109100000Y-120200000D02*
X109100000Y-119500000D01*
%TO.C,C3*%
X126400000Y-124800000D02*
X126400000Y-124100000D01*
X127600000Y-124100000D02*
X127600000Y-124800000D01*
%TO.C,C2*%
X127900000Y-124800000D02*
X127900000Y-124100000D01*
X129100000Y-124100000D02*
X129100000Y-124800000D01*
%TO.C,CN1*%
D16*
X151209523Y-108657142D02*
X151161904Y-108704761D01*
X151019047Y-108752380D01*
X150923809Y-108752380D01*
X150780952Y-108704761D01*
X150685714Y-108609523D01*
X150638095Y-108514285D01*
X150590476Y-108323809D01*
X150590476Y-108180952D01*
X150638095Y-107990476D01*
X150685714Y-107895238D01*
X150780952Y-107800000D01*
X150923809Y-107752380D01*
X151019047Y-107752380D01*
X151161904Y-107800000D01*
X151209523Y-107847619D01*
X151638095Y-108752380D02*
X151638095Y-107752380D01*
X152209523Y-108752380D01*
X152209523Y-107752380D01*
X153209523Y-108752380D02*
X152638095Y-108752380D01*
X152923809Y-108752380D02*
X152923809Y-107752380D01*
X152828571Y-107895238D01*
X152733333Y-107990476D01*
X152638095Y-108038095D01*
%TO.C,C28*%
X139257142Y-100757142D02*
X139209523Y-100804761D01*
X139066666Y-100852380D01*
X138971428Y-100852380D01*
X138828571Y-100804761D01*
X138733333Y-100709523D01*
X138685714Y-100614285D01*
X138638095Y-100423809D01*
X138638095Y-100280952D01*
X138685714Y-100090476D01*
X138733333Y-99995238D01*
X138828571Y-99900000D01*
X138971428Y-99852380D01*
X139066666Y-99852380D01*
X139209523Y-99900000D01*
X139257142Y-99947619D01*
X139638095Y-99947619D02*
X139685714Y-99900000D01*
X139780952Y-99852380D01*
X140019047Y-99852380D01*
X140114285Y-99900000D01*
X140161904Y-99947619D01*
X140209523Y-100042857D01*
X140209523Y-100138095D01*
X140161904Y-100280952D01*
X139590476Y-100852380D01*
X140209523Y-100852380D01*
X140780952Y-100280952D02*
X140685714Y-100233333D01*
X140638095Y-100185714D01*
X140590476Y-100090476D01*
X140590476Y-100042857D01*
X140638095Y-99947619D01*
X140685714Y-99900000D01*
X140780952Y-99852380D01*
X140971428Y-99852380D01*
X141066666Y-99900000D01*
X141114285Y-99947619D01*
X141161904Y-100042857D01*
X141161904Y-100090476D01*
X141114285Y-100185714D01*
X141066666Y-100233333D01*
X140971428Y-100280952D01*
X140780952Y-100280952D01*
X140685714Y-100328571D01*
X140638095Y-100376190D01*
X140590476Y-100471428D01*
X140590476Y-100661904D01*
X140638095Y-100757142D01*
X140685714Y-100804761D01*
X140780952Y-100852380D01*
X140971428Y-100852380D01*
X141066666Y-100804761D01*
X141114285Y-100757142D01*
X141161904Y-100661904D01*
X141161904Y-100471428D01*
X141114285Y-100376190D01*
X141066666Y-100328571D01*
X140971428Y-100280952D01*
%TO.C,C26*%
X137857142Y-103157142D02*
X137809523Y-103204761D01*
X137666666Y-103252380D01*
X137571428Y-103252380D01*
X137428571Y-103204761D01*
X137333333Y-103109523D01*
X137285714Y-103014285D01*
X137238095Y-102823809D01*
X137238095Y-102680952D01*
X137285714Y-102490476D01*
X137333333Y-102395238D01*
X137428571Y-102300000D01*
X137571428Y-102252380D01*
X137666666Y-102252380D01*
X137809523Y-102300000D01*
X137857142Y-102347619D01*
X138238095Y-102347619D02*
X138285714Y-102300000D01*
X138380952Y-102252380D01*
X138619047Y-102252380D01*
X138714285Y-102300000D01*
X138761904Y-102347619D01*
X138809523Y-102442857D01*
X138809523Y-102538095D01*
X138761904Y-102680952D01*
X138190476Y-103252380D01*
X138809523Y-103252380D01*
X139666666Y-102252380D02*
X139476190Y-102252380D01*
X139380952Y-102300000D01*
X139333333Y-102347619D01*
X139238095Y-102490476D01*
X139190476Y-102680952D01*
X139190476Y-103061904D01*
X139238095Y-103157142D01*
X139285714Y-103204761D01*
X139380952Y-103252380D01*
X139571428Y-103252380D01*
X139666666Y-103204761D01*
X139714285Y-103157142D01*
X139761904Y-103061904D01*
X139761904Y-102823809D01*
X139714285Y-102728571D01*
X139666666Y-102680952D01*
X139571428Y-102633333D01*
X139380952Y-102633333D01*
X139285714Y-102680952D01*
X139238095Y-102728571D01*
X139190476Y-102823809D01*
%TO.C,C24*%
X144157142Y-88757142D02*
X144109523Y-88804761D01*
X143966666Y-88852380D01*
X143871428Y-88852380D01*
X143728571Y-88804761D01*
X143633333Y-88709523D01*
X143585714Y-88614285D01*
X143538095Y-88423809D01*
X143538095Y-88280952D01*
X143585714Y-88090476D01*
X143633333Y-87995238D01*
X143728571Y-87900000D01*
X143871428Y-87852380D01*
X143966666Y-87852380D01*
X144109523Y-87900000D01*
X144157142Y-87947619D01*
X144538095Y-87947619D02*
X144585714Y-87900000D01*
X144680952Y-87852380D01*
X144919047Y-87852380D01*
X145014285Y-87900000D01*
X145061904Y-87947619D01*
X145109523Y-88042857D01*
X145109523Y-88138095D01*
X145061904Y-88280952D01*
X144490476Y-88852380D01*
X145109523Y-88852380D01*
X145966666Y-88185714D02*
X145966666Y-88852380D01*
X145728571Y-87804761D02*
X145490476Y-88519047D01*
X146109523Y-88519047D01*
%TO.C,C22*%
X138457142Y-81957142D02*
X138409523Y-82004761D01*
X138266666Y-82052380D01*
X138171428Y-82052380D01*
X138028571Y-82004761D01*
X137933333Y-81909523D01*
X137885714Y-81814285D01*
X137838095Y-81623809D01*
X137838095Y-81480952D01*
X137885714Y-81290476D01*
X137933333Y-81195238D01*
X138028571Y-81100000D01*
X138171428Y-81052380D01*
X138266666Y-81052380D01*
X138409523Y-81100000D01*
X138457142Y-81147619D01*
X138838095Y-81147619D02*
X138885714Y-81100000D01*
X138980952Y-81052380D01*
X139219047Y-81052380D01*
X139314285Y-81100000D01*
X139361904Y-81147619D01*
X139409523Y-81242857D01*
X139409523Y-81338095D01*
X139361904Y-81480952D01*
X138790476Y-82052380D01*
X139409523Y-82052380D01*
X139790476Y-81147619D02*
X139838095Y-81100000D01*
X139933333Y-81052380D01*
X140171428Y-81052380D01*
X140266666Y-81100000D01*
X140314285Y-81147619D01*
X140361904Y-81242857D01*
X140361904Y-81338095D01*
X140314285Y-81480952D01*
X139742857Y-82052380D01*
X140361904Y-82052380D01*
%TO.C,C11*%
X114207142Y-107157142D02*
X114159523Y-107204761D01*
X114016666Y-107252380D01*
X113921428Y-107252380D01*
X113778571Y-107204761D01*
X113683333Y-107109523D01*
X113635714Y-107014285D01*
X113588095Y-106823809D01*
X113588095Y-106680952D01*
X113635714Y-106490476D01*
X113683333Y-106395238D01*
X113778571Y-106300000D01*
X113921428Y-106252380D01*
X114016666Y-106252380D01*
X114159523Y-106300000D01*
X114207142Y-106347619D01*
X115159523Y-107252380D02*
X114588095Y-107252380D01*
X114873809Y-107252380D02*
X114873809Y-106252380D01*
X114778571Y-106395238D01*
X114683333Y-106490476D01*
X114588095Y-106538095D01*
X116111904Y-107252380D02*
X115540476Y-107252380D01*
X115826190Y-107252380D02*
X115826190Y-106252380D01*
X115730952Y-106395238D01*
X115635714Y-106490476D01*
X115540476Y-106538095D01*
%TO.C,C9*%
X106033333Y-107657142D02*
X105985714Y-107704761D01*
X105842857Y-107752380D01*
X105747619Y-107752380D01*
X105604761Y-107704761D01*
X105509523Y-107609523D01*
X105461904Y-107514285D01*
X105414285Y-107323809D01*
X105414285Y-107180952D01*
X105461904Y-106990476D01*
X105509523Y-106895238D01*
X105604761Y-106800000D01*
X105747619Y-106752380D01*
X105842857Y-106752380D01*
X105985714Y-106800000D01*
X106033333Y-106847619D01*
X106509523Y-107752380D02*
X106700000Y-107752380D01*
X106795238Y-107704761D01*
X106842857Y-107657142D01*
X106938095Y-107514285D01*
X106985714Y-107323809D01*
X106985714Y-106942857D01*
X106938095Y-106847619D01*
X106890476Y-106800000D01*
X106795238Y-106752380D01*
X106604761Y-106752380D01*
X106509523Y-106800000D01*
X106461904Y-106847619D01*
X106414285Y-106942857D01*
X106414285Y-107180952D01*
X106461904Y-107276190D01*
X106509523Y-107323809D01*
X106604761Y-107371428D01*
X106795238Y-107371428D01*
X106890476Y-107323809D01*
X106938095Y-107276190D01*
X106985714Y-107180952D01*
%TO.C,C7*%
X116007142Y-124116666D02*
X116054761Y-124164285D01*
X116102380Y-124307142D01*
X116102380Y-124402380D01*
X116054761Y-124545238D01*
X115959523Y-124640476D01*
X115864285Y-124688095D01*
X115673809Y-124735714D01*
X115530952Y-124735714D01*
X115340476Y-124688095D01*
X115245238Y-124640476D01*
X115150000Y-124545238D01*
X115102380Y-124402380D01*
X115102380Y-124307142D01*
X115150000Y-124164285D01*
X115197619Y-124116666D01*
X115102380Y-123783333D02*
X115102380Y-123116666D01*
X116102380Y-123545238D01*
%TO.C,C5*%
X114257142Y-119566666D02*
X114304761Y-119614285D01*
X114352380Y-119757142D01*
X114352380Y-119852380D01*
X114304761Y-119995238D01*
X114209523Y-120090476D01*
X114114285Y-120138095D01*
X113923809Y-120185714D01*
X113780952Y-120185714D01*
X113590476Y-120138095D01*
X113495238Y-120090476D01*
X113400000Y-119995238D01*
X113352380Y-119852380D01*
X113352380Y-119757142D01*
X113400000Y-119614285D01*
X113447619Y-119566666D01*
X113352380Y-118661904D02*
X113352380Y-119138095D01*
X113828571Y-119185714D01*
X113780952Y-119138095D01*
X113733333Y-119042857D01*
X113733333Y-118804761D01*
X113780952Y-118709523D01*
X113828571Y-118661904D01*
X113923809Y-118614285D01*
X114161904Y-118614285D01*
X114257142Y-118661904D01*
X114304761Y-118709523D01*
X114352380Y-118804761D01*
X114352380Y-119042857D01*
X114304761Y-119138095D01*
X114257142Y-119185714D01*
%TO.C,C1*%
X131857142Y-121166666D02*
X131904761Y-121214285D01*
X131952380Y-121357142D01*
X131952380Y-121452380D01*
X131904761Y-121595238D01*
X131809523Y-121690476D01*
X131714285Y-121738095D01*
X131523809Y-121785714D01*
X131380952Y-121785714D01*
X131190476Y-121738095D01*
X131095238Y-121690476D01*
X131000000Y-121595238D01*
X130952380Y-121452380D01*
X130952380Y-121357142D01*
X131000000Y-121214285D01*
X131047619Y-121166666D01*
X131952380Y-120214285D02*
X131952380Y-120785714D01*
X131952380Y-120500000D02*
X130952380Y-120500000D01*
X131095238Y-120595238D01*
X131190476Y-120690476D01*
X131238095Y-120785714D01*
%TO.C,D4*%
D11*
X155861904Y-91940476D02*
X155061904Y-91940476D01*
X155061904Y-91750000D01*
X155100000Y-91635714D01*
X155176190Y-91559523D01*
X155252380Y-91521428D01*
X155404761Y-91483333D01*
X155519047Y-91483333D01*
X155671428Y-91521428D01*
X155747619Y-91559523D01*
X155823809Y-91635714D01*
X155861904Y-91750000D01*
X155861904Y-91940476D01*
X155328571Y-90797619D02*
X155861904Y-90797619D01*
X155023809Y-90988095D02*
X155595238Y-91178571D01*
X155595238Y-90683333D01*
%TO.C,R19*%
D16*
X99052380Y-121142857D02*
X98576190Y-121476190D01*
X99052380Y-121714285D02*
X98052380Y-121714285D01*
X98052380Y-121333333D01*
X98100000Y-121238095D01*
X98147619Y-121190476D01*
X98242857Y-121142857D01*
X98385714Y-121142857D01*
X98480952Y-121190476D01*
X98528571Y-121238095D01*
X98576190Y-121333333D01*
X98576190Y-121714285D01*
X99052380Y-120190476D02*
X99052380Y-120761904D01*
X99052380Y-120476190D02*
X98052380Y-120476190D01*
X98195238Y-120571428D01*
X98290476Y-120666666D01*
X98338095Y-120761904D01*
X99052380Y-119714285D02*
X99052380Y-119523809D01*
X99004761Y-119428571D01*
X98957142Y-119380952D01*
X98814285Y-119285714D01*
X98623809Y-119238095D01*
X98242857Y-119238095D01*
X98147619Y-119285714D01*
X98100000Y-119333333D01*
X98052380Y-119428571D01*
X98052380Y-119619047D01*
X98100000Y-119714285D01*
X98147619Y-119761904D01*
X98242857Y-119809523D01*
X98480952Y-119809523D01*
X98576190Y-119761904D01*
X98623809Y-119714285D01*
X98671428Y-119619047D01*
X98671428Y-119428571D01*
X98623809Y-119333333D01*
X98576190Y-119285714D01*
X98480952Y-119238095D01*
%TO.C,R18*%
X153357142Y-85152380D02*
X153023809Y-84676190D01*
X152785714Y-85152380D02*
X152785714Y-84152380D01*
X153166666Y-84152380D01*
X153261904Y-84200000D01*
X153309523Y-84247619D01*
X153357142Y-84342857D01*
X153357142Y-84485714D01*
X153309523Y-84580952D01*
X153261904Y-84628571D01*
X153166666Y-84676190D01*
X152785714Y-84676190D01*
X154309523Y-85152380D02*
X153738095Y-85152380D01*
X154023809Y-85152380D02*
X154023809Y-84152380D01*
X153928571Y-84295238D01*
X153833333Y-84390476D01*
X153738095Y-84438095D01*
X154880952Y-84580952D02*
X154785714Y-84533333D01*
X154738095Y-84485714D01*
X154690476Y-84390476D01*
X154690476Y-84342857D01*
X154738095Y-84247619D01*
X154785714Y-84200000D01*
X154880952Y-84152380D01*
X155071428Y-84152380D01*
X155166666Y-84200000D01*
X155214285Y-84247619D01*
X155261904Y-84342857D01*
X155261904Y-84390476D01*
X155214285Y-84485714D01*
X155166666Y-84533333D01*
X155071428Y-84580952D01*
X154880952Y-84580952D01*
X154785714Y-84628571D01*
X154738095Y-84676190D01*
X154690476Y-84771428D01*
X154690476Y-84961904D01*
X154738095Y-85057142D01*
X154785714Y-85104761D01*
X154880952Y-85152380D01*
X155071428Y-85152380D01*
X155166666Y-85104761D01*
X155214285Y-85057142D01*
X155261904Y-84961904D01*
X155261904Y-84771428D01*
X155214285Y-84676190D01*
X155166666Y-84628571D01*
X155071428Y-84580952D01*
%TO.C,D5*%
D11*
X97609523Y-123861904D02*
X97609523Y-123061904D01*
X97800000Y-123061904D01*
X97914285Y-123100000D01*
X97990476Y-123176190D01*
X98028571Y-123252380D01*
X98066666Y-123404761D01*
X98066666Y-123519047D01*
X98028571Y-123671428D01*
X97990476Y-123747619D01*
X97914285Y-123823809D01*
X97800000Y-123861904D01*
X97609523Y-123861904D01*
X98790476Y-123061904D02*
X98409523Y-123061904D01*
X98371428Y-123442857D01*
X98409523Y-123404761D01*
X98485714Y-123366666D01*
X98676190Y-123366666D01*
X98752380Y-123404761D01*
X98790476Y-123442857D01*
X98828571Y-123519047D01*
X98828571Y-123709523D01*
X98790476Y-123785714D01*
X98752380Y-123823809D01*
X98676190Y-123861904D01*
X98485714Y-123861904D01*
X98409523Y-123823809D01*
X98371428Y-123785714D01*
%TO.C,Y1*%
D18*
X137895238Y-108569761D02*
X137895238Y-109174523D01*
X137471904Y-107904523D02*
X137895238Y-108569761D01*
X138318571Y-107904523D01*
X139407142Y-109174523D02*
X138681428Y-109174523D01*
X139044285Y-109174523D02*
X139044285Y-107904523D01*
X138923333Y-108085952D01*
X138802380Y-108206904D01*
X138681428Y-108267380D01*
%TO.C,R3*%
D16*
X124502380Y-109766666D02*
X124026190Y-110100000D01*
X124502380Y-110338095D02*
X123502380Y-110338095D01*
X123502380Y-109957142D01*
X123550000Y-109861904D01*
X123597619Y-109814285D01*
X123692857Y-109766666D01*
X123835714Y-109766666D01*
X123930952Y-109814285D01*
X123978571Y-109861904D01*
X124026190Y-109957142D01*
X124026190Y-110338095D01*
X123502380Y-109433333D02*
X123502380Y-108814285D01*
X123883333Y-109147619D01*
X123883333Y-109004761D01*
X123930952Y-108909523D01*
X123978571Y-108861904D01*
X124073809Y-108814285D01*
X124311904Y-108814285D01*
X124407142Y-108861904D01*
X124454761Y-108909523D01*
X124502380Y-109004761D01*
X124502380Y-109290476D01*
X124454761Y-109385714D01*
X124407142Y-109433333D01*
%TO.C,R1*%
X122133333Y-123052380D02*
X121800000Y-122576190D01*
X121561904Y-123052380D02*
X121561904Y-122052380D01*
X121942857Y-122052380D01*
X122038095Y-122100000D01*
X122085714Y-122147619D01*
X122133333Y-122242857D01*
X122133333Y-122385714D01*
X122085714Y-122480952D01*
X122038095Y-122528571D01*
X121942857Y-122576190D01*
X121561904Y-122576190D01*
X123085714Y-123052380D02*
X122514285Y-123052380D01*
X122800000Y-123052380D02*
X122800000Y-122052380D01*
X122704761Y-122195238D01*
X122609523Y-122290476D01*
X122514285Y-122338095D01*
%TO.C,Q3*%
D11*
X128123809Y-117938095D02*
X128047619Y-117900000D01*
X127971428Y-117823809D01*
X127857142Y-117709523D01*
X127780952Y-117671428D01*
X127704761Y-117671428D01*
X127742857Y-117861904D02*
X127666666Y-117823809D01*
X127590476Y-117747619D01*
X127552380Y-117595238D01*
X127552380Y-117328571D01*
X127590476Y-117176190D01*
X127666666Y-117100000D01*
X127742857Y-117061904D01*
X127895238Y-117061904D01*
X127971428Y-117100000D01*
X128047619Y-117176190D01*
X128085714Y-117328571D01*
X128085714Y-117595238D01*
X128047619Y-117747619D01*
X127971428Y-117823809D01*
X127895238Y-117861904D01*
X127742857Y-117861904D01*
X128352380Y-117061904D02*
X128847619Y-117061904D01*
X128580952Y-117366666D01*
X128695238Y-117366666D01*
X128771428Y-117404761D01*
X128809523Y-117442857D01*
X128847619Y-117519047D01*
X128847619Y-117709523D01*
X128809523Y-117785714D01*
X128771428Y-117823809D01*
X128695238Y-117861904D01*
X128466666Y-117861904D01*
X128390476Y-117823809D01*
X128352380Y-117785714D01*
%TO.C,Q2*%
X120223809Y-118338095D02*
X120147619Y-118300000D01*
X120071428Y-118223809D01*
X119957142Y-118109523D01*
X119880952Y-118071428D01*
X119804761Y-118071428D01*
X119842857Y-118261904D02*
X119766666Y-118223809D01*
X119690476Y-118147619D01*
X119652380Y-117995238D01*
X119652380Y-117728571D01*
X119690476Y-117576190D01*
X119766666Y-117500000D01*
X119842857Y-117461904D01*
X119995238Y-117461904D01*
X120071428Y-117500000D01*
X120147619Y-117576190D01*
X120185714Y-117728571D01*
X120185714Y-117995238D01*
X120147619Y-118147619D01*
X120071428Y-118223809D01*
X119995238Y-118261904D01*
X119842857Y-118261904D01*
X120490476Y-117538095D02*
X120528571Y-117500000D01*
X120604761Y-117461904D01*
X120795238Y-117461904D01*
X120871428Y-117500000D01*
X120909523Y-117538095D01*
X120947619Y-117614285D01*
X120947619Y-117690476D01*
X120909523Y-117804761D01*
X120452380Y-118261904D01*
X120947619Y-118261904D01*
%TO.C,U4*%
D19*
X149036047Y-83591778D02*
X150012738Y-83591778D01*
X150127642Y-83534325D01*
X150185095Y-83476873D01*
X150242547Y-83361968D01*
X150242547Y-83132159D01*
X150185095Y-83017254D01*
X150127642Y-82959801D01*
X150012738Y-82902349D01*
X149036047Y-82902349D01*
X149438214Y-81810754D02*
X150242547Y-81810754D01*
X148978595Y-82098016D02*
X149840380Y-82385278D01*
X149840380Y-81638397D01*
X148821491Y-85080388D02*
X148821491Y-85366103D01*
X148221491Y-85366103D01*
X148821491Y-84880388D02*
X148221491Y-84880388D01*
X148221491Y-84737531D01*
X148250063Y-84651817D01*
X148307205Y-84594674D01*
X148364348Y-84566103D01*
X148478634Y-84537531D01*
X148564348Y-84537531D01*
X148678634Y-84566103D01*
X148735777Y-84594674D01*
X148792920Y-84651817D01*
X148821491Y-84737531D01*
X148821491Y-84880388D01*
X148821491Y-83966103D02*
X148821491Y-84308960D01*
X148821491Y-84137531D02*
X148221491Y-84137531D01*
X148307205Y-84194674D01*
X148364348Y-84251817D01*
X148392920Y-84308960D01*
X148821491Y-83394674D02*
X148821491Y-83737531D01*
X148821491Y-83566103D02*
X148221491Y-83566103D01*
X148307205Y-83623245D01*
X148364348Y-83680388D01*
X148392920Y-83737531D01*
X148821491Y-82823245D02*
X148821491Y-83166103D01*
X148821491Y-82994674D02*
X148221491Y-82994674D01*
X148307205Y-83051817D01*
X148364348Y-83108960D01*
X148392920Y-83166103D01*
X148221491Y-82623245D02*
X148221491Y-82223245D01*
X148821491Y-82480388D01*
X148792920Y-82023245D02*
X148821491Y-81937531D01*
X148821491Y-81794674D01*
X148792920Y-81737531D01*
X148764348Y-81708960D01*
X148707205Y-81680388D01*
X148650063Y-81680388D01*
X148592920Y-81708960D01*
X148564348Y-81737531D01*
X148535777Y-81794674D01*
X148507205Y-81908960D01*
X148478634Y-81966103D01*
X148450063Y-81994674D01*
X148392920Y-82023245D01*
X148335777Y-82023245D01*
X148278634Y-81994674D01*
X148250063Y-81966103D01*
X148221491Y-81908960D01*
X148221491Y-81766103D01*
X148250063Y-81680388D01*
X148221491Y-81480388D02*
X148221491Y-81108960D01*
X148450063Y-81308960D01*
X148450063Y-81223245D01*
X148478634Y-81166103D01*
X148507205Y-81137531D01*
X148564348Y-81108960D01*
X148707205Y-81108960D01*
X148764348Y-81137531D01*
X148792920Y-81166103D01*
X148821491Y-81223245D01*
X148821491Y-81394674D01*
X148792920Y-81451817D01*
X148764348Y-81480388D01*
X148221491Y-80908960D02*
X148221491Y-80537531D01*
X148450063Y-80737531D01*
X148450063Y-80651817D01*
X148478634Y-80594674D01*
X148507205Y-80566103D01*
X148564348Y-80537531D01*
X148707205Y-80537531D01*
X148764348Y-80566103D01*
X148792920Y-80594674D01*
X148821491Y-80651817D01*
X148821491Y-80823245D01*
X148792920Y-80880388D01*
X148764348Y-80908960D01*
X148221491Y-80366103D02*
X148221491Y-80023245D01*
X148821491Y-80194674D02*
X148221491Y-80194674D01*
X148821491Y-79480388D02*
X148535777Y-79680388D01*
X148821491Y-79823245D02*
X148221491Y-79823245D01*
X148221491Y-79594674D01*
X148250063Y-79537531D01*
X148278634Y-79508960D01*
X148335777Y-79480388D01*
X148421491Y-79480388D01*
X148478634Y-79508960D01*
X148507205Y-79537531D01*
X148535777Y-79594674D01*
X148535777Y-79823245D01*
%TO.C,D3*%
D11*
X144171523Y-97361904D02*
X144171523Y-96561904D01*
X144362000Y-96561904D01*
X144476285Y-96600000D01*
X144552476Y-96676190D01*
X144590571Y-96752380D01*
X144628666Y-96904761D01*
X144628666Y-97019047D01*
X144590571Y-97171428D01*
X144552476Y-97247619D01*
X144476285Y-97323809D01*
X144362000Y-97361904D01*
X144171523Y-97361904D01*
X144895333Y-96561904D02*
X145390571Y-96561904D01*
X145123904Y-96866666D01*
X145238190Y-96866666D01*
X145314380Y-96904761D01*
X145352476Y-96942857D01*
X145390571Y-97019047D01*
X145390571Y-97209523D01*
X145352476Y-97285714D01*
X145314380Y-97323809D01*
X145238190Y-97361904D01*
X145009619Y-97361904D01*
X144933428Y-97323809D01*
X144895333Y-97285714D01*
%TO.C,D2*%
X143509523Y-104261904D02*
X143509523Y-103461904D01*
X143700000Y-103461904D01*
X143814285Y-103500000D01*
X143890476Y-103576190D01*
X143928571Y-103652380D01*
X143966666Y-103804761D01*
X143966666Y-103919047D01*
X143928571Y-104071428D01*
X143890476Y-104147619D01*
X143814285Y-104223809D01*
X143700000Y-104261904D01*
X143509523Y-104261904D01*
X144271428Y-103538095D02*
X144309523Y-103500000D01*
X144385714Y-103461904D01*
X144576190Y-103461904D01*
X144652380Y-103500000D01*
X144690476Y-103538095D01*
X144728571Y-103614285D01*
X144728571Y-103690476D01*
X144690476Y-103804761D01*
X144233333Y-104261904D01*
X144728571Y-104261904D01*
%TO.C,D1*%
D16*
X145052380Y-124538095D02*
X144052380Y-124538095D01*
X144052380Y-124300000D01*
X144100000Y-124157142D01*
X144195238Y-124061904D01*
X144290476Y-124014285D01*
X144480952Y-123966666D01*
X144623809Y-123966666D01*
X144814285Y-124014285D01*
X144909523Y-124061904D01*
X145004761Y-124157142D01*
X145052380Y-124300000D01*
X145052380Y-124538095D01*
X145052380Y-123014285D02*
X145052380Y-123585714D01*
X145052380Y-123300000D02*
X144052380Y-123300000D01*
X144195238Y-123395238D01*
X144290476Y-123490476D01*
X144338095Y-123585714D01*
%TO.C,Q1*%
D11*
X121223809Y-123938095D02*
X121147619Y-123900000D01*
X121071428Y-123823809D01*
X120957142Y-123709523D01*
X120880952Y-123671428D01*
X120804761Y-123671428D01*
X120842857Y-123861904D02*
X120766666Y-123823809D01*
X120690476Y-123747619D01*
X120652380Y-123595238D01*
X120652380Y-123328571D01*
X120690476Y-123176190D01*
X120766666Y-123100000D01*
X120842857Y-123061904D01*
X120995238Y-123061904D01*
X121071428Y-123100000D01*
X121147619Y-123176190D01*
X121185714Y-123328571D01*
X121185714Y-123595238D01*
X121147619Y-123747619D01*
X121071428Y-123823809D01*
X120995238Y-123861904D01*
X120842857Y-123861904D01*
X121947619Y-123861904D02*
X121490476Y-123861904D01*
X121719047Y-123861904D02*
X121719047Y-123061904D01*
X121642857Y-123176190D01*
X121566666Y-123252380D01*
X121490476Y-123290476D01*
%TO.C,R11*%
D16*
X146857142Y-93552380D02*
X146523809Y-93076190D01*
X146285714Y-93552380D02*
X146285714Y-92552380D01*
X146666666Y-92552380D01*
X146761904Y-92600000D01*
X146809523Y-92647619D01*
X146857142Y-92742857D01*
X146857142Y-92885714D01*
X146809523Y-92980952D01*
X146761904Y-93028571D01*
X146666666Y-93076190D01*
X146285714Y-93076190D01*
X147809523Y-93552380D02*
X147238095Y-93552380D01*
X147523809Y-93552380D02*
X147523809Y-92552380D01*
X147428571Y-92695238D01*
X147333333Y-92790476D01*
X147238095Y-92838095D01*
X148761904Y-93552380D02*
X148190476Y-93552380D01*
X148476190Y-93552380D02*
X148476190Y-92552380D01*
X148380952Y-92695238D01*
X148285714Y-92790476D01*
X148190476Y-92838095D01*
%TO.C,R5*%
X148133333Y-106652380D02*
X147800000Y-106176190D01*
X147561904Y-106652380D02*
X147561904Y-105652380D01*
X147942857Y-105652380D01*
X148038095Y-105700000D01*
X148085714Y-105747619D01*
X148133333Y-105842857D01*
X148133333Y-105985714D01*
X148085714Y-106080952D01*
X148038095Y-106128571D01*
X147942857Y-106176190D01*
X147561904Y-106176190D01*
X149038095Y-105652380D02*
X148561904Y-105652380D01*
X148514285Y-106128571D01*
X148561904Y-106080952D01*
X148657142Y-106033333D01*
X148895238Y-106033333D01*
X148990476Y-106080952D01*
X149038095Y-106128571D01*
X149085714Y-106223809D01*
X149085714Y-106461904D01*
X149038095Y-106557142D01*
X148990476Y-106604761D01*
X148895238Y-106652380D01*
X148657142Y-106652380D01*
X148561904Y-106604761D01*
X148514285Y-106557142D01*
%TO.C,R4*%
X143433333Y-92752380D02*
X143100000Y-92276190D01*
X142861904Y-92752380D02*
X142861904Y-91752380D01*
X143242857Y-91752380D01*
X143338095Y-91800000D01*
X143385714Y-91847619D01*
X143433333Y-91942857D01*
X143433333Y-92085714D01*
X143385714Y-92180952D01*
X143338095Y-92228571D01*
X143242857Y-92276190D01*
X142861904Y-92276190D01*
X144290476Y-92085714D02*
X144290476Y-92752380D01*
X144052380Y-91704761D02*
X143814285Y-92419047D01*
X144433333Y-92419047D01*
%TO.C,R2*%
X129533333Y-120952380D02*
X129200000Y-120476190D01*
X128961904Y-120952380D02*
X128961904Y-119952380D01*
X129342857Y-119952380D01*
X129438095Y-120000000D01*
X129485714Y-120047619D01*
X129533333Y-120142857D01*
X129533333Y-120285714D01*
X129485714Y-120380952D01*
X129438095Y-120428571D01*
X129342857Y-120476190D01*
X128961904Y-120476190D01*
X129914285Y-120047619D02*
X129961904Y-120000000D01*
X130057142Y-119952380D01*
X130295238Y-119952380D01*
X130390476Y-120000000D01*
X130438095Y-120047619D01*
X130485714Y-120142857D01*
X130485714Y-120238095D01*
X130438095Y-120380952D01*
X129866666Y-120952380D01*
X130485714Y-120952380D01*
%TO.C,C4*%
X124957142Y-121766666D02*
X125004761Y-121814285D01*
X125052380Y-121957142D01*
X125052380Y-122052380D01*
X125004761Y-122195238D01*
X124909523Y-122290476D01*
X124814285Y-122338095D01*
X124623809Y-122385714D01*
X124480952Y-122385714D01*
X124290476Y-122338095D01*
X124195238Y-122290476D01*
X124100000Y-122195238D01*
X124052380Y-122052380D01*
X124052380Y-121957142D01*
X124100000Y-121814285D01*
X124147619Y-121766666D01*
X124385714Y-120909523D02*
X125052380Y-120909523D01*
X124004761Y-121147619D02*
X124719047Y-121385714D01*
X124719047Y-120766666D01*
%TO.C,J2*%
D11*
X150911904Y-99266666D02*
X151483333Y-99266666D01*
X151597619Y-99304761D01*
X151673809Y-99380952D01*
X151711904Y-99495238D01*
X151711904Y-99571428D01*
X150988095Y-98923809D02*
X150950000Y-98885714D01*
X150911904Y-98809523D01*
X150911904Y-98619047D01*
X150950000Y-98542857D01*
X150988095Y-98504761D01*
X151064285Y-98466666D01*
X151140476Y-98466666D01*
X151254761Y-98504761D01*
X151711904Y-98961904D01*
X151711904Y-98466666D01*
%TO.C,U3*%
D16*
X116738095Y-115852380D02*
X116738095Y-116661904D01*
X116785714Y-116757142D01*
X116833333Y-116804761D01*
X116928571Y-116852380D01*
X117119047Y-116852380D01*
X117214285Y-116804761D01*
X117261904Y-116757142D01*
X117309523Y-116661904D01*
X117309523Y-115852380D01*
X117690476Y-115852380D02*
X118309523Y-115852380D01*
X117976190Y-116233333D01*
X118119047Y-116233333D01*
X118214285Y-116280952D01*
X118261904Y-116328571D01*
X118309523Y-116423809D01*
X118309523Y-116661904D01*
X118261904Y-116757142D01*
X118214285Y-116804761D01*
X118119047Y-116852380D01*
X117833333Y-116852380D01*
X117738095Y-116804761D01*
X117690476Y-116757142D01*
%TO.C,U1*%
D19*
X103908221Y-119936047D02*
X103908221Y-120912738D01*
X103965674Y-121027642D01*
X104023126Y-121085095D01*
X104138031Y-121142547D01*
X104367840Y-121142547D01*
X104482745Y-121085095D01*
X104540198Y-121027642D01*
X104597650Y-120912738D01*
X104597650Y-119936047D01*
X105804150Y-121142547D02*
X105114721Y-121142547D01*
X105459436Y-121142547D02*
X105459436Y-119936047D01*
X105344531Y-120108404D01*
X105229626Y-120223309D01*
X105114721Y-120280761D01*
X101859612Y-119300691D02*
X101573898Y-119300691D01*
X101573898Y-118700691D01*
X102059612Y-119300691D02*
X102059612Y-118700691D01*
X102202469Y-118700691D01*
X102288183Y-118729263D01*
X102345326Y-118786405D01*
X102373898Y-118843548D01*
X102402469Y-118957834D01*
X102402469Y-119043548D01*
X102373898Y-119157834D01*
X102345326Y-119214977D01*
X102288183Y-119272120D01*
X102202469Y-119300691D01*
X102059612Y-119300691D01*
X102973898Y-119300691D02*
X102631040Y-119300691D01*
X102802469Y-119300691D02*
X102802469Y-118700691D01*
X102745326Y-118786405D01*
X102688183Y-118843548D01*
X102631040Y-118872120D01*
X103545326Y-119300691D02*
X103202469Y-119300691D01*
X103373898Y-119300691D02*
X103373898Y-118700691D01*
X103316755Y-118786405D01*
X103259612Y-118843548D01*
X103202469Y-118872120D01*
X104116755Y-119300691D02*
X103773898Y-119300691D01*
X103945326Y-119300691D02*
X103945326Y-118700691D01*
X103888183Y-118786405D01*
X103831040Y-118843548D01*
X103773898Y-118872120D01*
X104316755Y-118700691D02*
X104716755Y-118700691D01*
X104459612Y-119300691D01*
X104916755Y-119272120D02*
X105002469Y-119300691D01*
X105145326Y-119300691D01*
X105202469Y-119272120D01*
X105231040Y-119243548D01*
X105259612Y-119186405D01*
X105259612Y-119129263D01*
X105231040Y-119072120D01*
X105202469Y-119043548D01*
X105145326Y-119014977D01*
X105031040Y-118986405D01*
X104973898Y-118957834D01*
X104945326Y-118929263D01*
X104916755Y-118872120D01*
X104916755Y-118814977D01*
X104945326Y-118757834D01*
X104973898Y-118729263D01*
X105031040Y-118700691D01*
X105173898Y-118700691D01*
X105259612Y-118729263D01*
X105459612Y-118700691D02*
X105831040Y-118700691D01*
X105631040Y-118929263D01*
X105716755Y-118929263D01*
X105773898Y-118957834D01*
X105802469Y-118986405D01*
X105831040Y-119043548D01*
X105831040Y-119186405D01*
X105802469Y-119243548D01*
X105773898Y-119272120D01*
X105716755Y-119300691D01*
X105545326Y-119300691D01*
X105488183Y-119272120D01*
X105459612Y-119243548D01*
X106031040Y-118700691D02*
X106402469Y-118700691D01*
X106202469Y-118929263D01*
X106288183Y-118929263D01*
X106345326Y-118957834D01*
X106373898Y-118986405D01*
X106402469Y-119043548D01*
X106402469Y-119186405D01*
X106373898Y-119243548D01*
X106345326Y-119272120D01*
X106288183Y-119300691D01*
X106116755Y-119300691D01*
X106059612Y-119272120D01*
X106031040Y-119243548D01*
X106573898Y-118700691D02*
X106916755Y-118700691D01*
X106745326Y-119300691D02*
X106745326Y-118700691D01*
X107459612Y-119300691D02*
X107259612Y-119014977D01*
X107116755Y-119300691D02*
X107116755Y-118700691D01*
X107345326Y-118700691D01*
X107402469Y-118729263D01*
X107431040Y-118757834D01*
X107459612Y-118814977D01*
X107459612Y-118900691D01*
X107431040Y-118957834D01*
X107402469Y-118986405D01*
X107345326Y-119014977D01*
X107116755Y-119014977D01*
%TO.C,U2*%
D16*
X120238095Y-106152380D02*
X120238095Y-106961904D01*
X120285714Y-107057142D01*
X120333333Y-107104761D01*
X120428571Y-107152380D01*
X120619047Y-107152380D01*
X120714285Y-107104761D01*
X120761904Y-107057142D01*
X120809523Y-106961904D01*
X120809523Y-106152380D01*
X121238095Y-106247619D02*
X121285714Y-106200000D01*
X121380952Y-106152380D01*
X121619047Y-106152380D01*
X121714285Y-106200000D01*
X121761904Y-106247619D01*
X121809523Y-106342857D01*
X121809523Y-106438095D01*
X121761904Y-106580952D01*
X121190476Y-107152380D01*
X121809523Y-107152380D01*
%TO.C,R13*%
X124857142Y-116552380D02*
X124523809Y-116076190D01*
X124285714Y-116552380D02*
X124285714Y-115552380D01*
X124666666Y-115552380D01*
X124761904Y-115600000D01*
X124809523Y-115647619D01*
X124857142Y-115742857D01*
X124857142Y-115885714D01*
X124809523Y-115980952D01*
X124761904Y-116028571D01*
X124666666Y-116076190D01*
X124285714Y-116076190D01*
X125809523Y-116552380D02*
X125238095Y-116552380D01*
X125523809Y-116552380D02*
X125523809Y-115552380D01*
X125428571Y-115695238D01*
X125333333Y-115790476D01*
X125238095Y-115838095D01*
X126142857Y-115552380D02*
X126761904Y-115552380D01*
X126428571Y-115933333D01*
X126571428Y-115933333D01*
X126666666Y-115980952D01*
X126714285Y-116028571D01*
X126761904Y-116123809D01*
X126761904Y-116361904D01*
X126714285Y-116457142D01*
X126666666Y-116504761D01*
X126571428Y-116552380D01*
X126285714Y-116552380D01*
X126190476Y-116504761D01*
X126142857Y-116457142D01*
%TO.C,R12*%
X121557142Y-116652380D02*
X121223809Y-116176190D01*
X120985714Y-116652380D02*
X120985714Y-115652380D01*
X121366666Y-115652380D01*
X121461904Y-115700000D01*
X121509523Y-115747619D01*
X121557142Y-115842857D01*
X121557142Y-115985714D01*
X121509523Y-116080952D01*
X121461904Y-116128571D01*
X121366666Y-116176190D01*
X120985714Y-116176190D01*
X122509523Y-116652380D02*
X121938095Y-116652380D01*
X122223809Y-116652380D02*
X122223809Y-115652380D01*
X122128571Y-115795238D01*
X122033333Y-115890476D01*
X121938095Y-115938095D01*
X122890476Y-115747619D02*
X122938095Y-115700000D01*
X123033333Y-115652380D01*
X123271428Y-115652380D01*
X123366666Y-115700000D01*
X123414285Y-115747619D01*
X123461904Y-115842857D01*
X123461904Y-115938095D01*
X123414285Y-116080952D01*
X122842857Y-116652380D01*
X123461904Y-116652380D01*
%TO.C,F1*%
D11*
X135642857Y-120166666D02*
X135642857Y-120433333D01*
X136061904Y-120433333D02*
X135261904Y-120433333D01*
X135261904Y-120052380D01*
X136061904Y-119328571D02*
X136061904Y-119785714D01*
X136061904Y-119557142D02*
X135261904Y-119557142D01*
X135376190Y-119633333D01*
X135452380Y-119709523D01*
X135490476Y-119785714D01*
%TO.C,R17*%
D16*
X114802380Y-114242857D02*
X114326190Y-114576190D01*
X114802380Y-114814285D02*
X113802380Y-114814285D01*
X113802380Y-114433333D01*
X113850000Y-114338095D01*
X113897619Y-114290476D01*
X113992857Y-114242857D01*
X114135714Y-114242857D01*
X114230952Y-114290476D01*
X114278571Y-114338095D01*
X114326190Y-114433333D01*
X114326190Y-114814285D01*
X114802380Y-113290476D02*
X114802380Y-113861904D01*
X114802380Y-113576190D02*
X113802380Y-113576190D01*
X113945238Y-113671428D01*
X114040476Y-113766666D01*
X114088095Y-113861904D01*
X113802380Y-112957142D02*
X113802380Y-112290476D01*
X114802380Y-112719047D01*
%TO.C,R14*%
X118357142Y-110002380D02*
X118023809Y-109526190D01*
X117785714Y-110002380D02*
X117785714Y-109002380D01*
X118166666Y-109002380D01*
X118261904Y-109050000D01*
X118309523Y-109097619D01*
X118357142Y-109192857D01*
X118357142Y-109335714D01*
X118309523Y-109430952D01*
X118261904Y-109478571D01*
X118166666Y-109526190D01*
X117785714Y-109526190D01*
X119309523Y-110002380D02*
X118738095Y-110002380D01*
X119023809Y-110002380D02*
X119023809Y-109002380D01*
X118928571Y-109145238D01*
X118833333Y-109240476D01*
X118738095Y-109288095D01*
X120166666Y-109335714D02*
X120166666Y-110002380D01*
X119928571Y-108954761D02*
X119690476Y-109669047D01*
X120309523Y-109669047D01*
%TO.C,R10*%
X140657142Y-86352380D02*
X140323809Y-85876190D01*
X140085714Y-86352380D02*
X140085714Y-85352380D01*
X140466666Y-85352380D01*
X140561904Y-85400000D01*
X140609523Y-85447619D01*
X140657142Y-85542857D01*
X140657142Y-85685714D01*
X140609523Y-85780952D01*
X140561904Y-85828571D01*
X140466666Y-85876190D01*
X140085714Y-85876190D01*
X141609523Y-86352380D02*
X141038095Y-86352380D01*
X141323809Y-86352380D02*
X141323809Y-85352380D01*
X141228571Y-85495238D01*
X141133333Y-85590476D01*
X141038095Y-85638095D01*
X142228571Y-85352380D02*
X142323809Y-85352380D01*
X142419047Y-85400000D01*
X142466666Y-85447619D01*
X142514285Y-85542857D01*
X142561904Y-85733333D01*
X142561904Y-85971428D01*
X142514285Y-86161904D01*
X142466666Y-86257142D01*
X142419047Y-86304761D01*
X142323809Y-86352380D01*
X142228571Y-86352380D01*
X142133333Y-86304761D01*
X142085714Y-86257142D01*
X142038095Y-86161904D01*
X141990476Y-85971428D01*
X141990476Y-85733333D01*
X142038095Y-85542857D01*
X142085714Y-85447619D01*
X142133333Y-85400000D01*
X142228571Y-85352380D01*
%TO.C,R9*%
X107733333Y-82952380D02*
X107400000Y-82476190D01*
X107161904Y-82952380D02*
X107161904Y-81952380D01*
X107542857Y-81952380D01*
X107638095Y-82000000D01*
X107685714Y-82047619D01*
X107733333Y-82142857D01*
X107733333Y-82285714D01*
X107685714Y-82380952D01*
X107638095Y-82428571D01*
X107542857Y-82476190D01*
X107161904Y-82476190D01*
X108209523Y-82952380D02*
X108400000Y-82952380D01*
X108495238Y-82904761D01*
X108542857Y-82857142D01*
X108638095Y-82714285D01*
X108685714Y-82523809D01*
X108685714Y-82142857D01*
X108638095Y-82047619D01*
X108590476Y-82000000D01*
X108495238Y-81952380D01*
X108304761Y-81952380D01*
X108209523Y-82000000D01*
X108161904Y-82047619D01*
X108114285Y-82142857D01*
X108114285Y-82380952D01*
X108161904Y-82476190D01*
X108209523Y-82523809D01*
X108304761Y-82571428D01*
X108495238Y-82571428D01*
X108590476Y-82523809D01*
X108638095Y-82476190D01*
X108685714Y-82380952D01*
%TO.C,R8*%
X129602380Y-102566666D02*
X129126190Y-102900000D01*
X129602380Y-103138095D02*
X128602380Y-103138095D01*
X128602380Y-102757142D01*
X128650000Y-102661904D01*
X128697619Y-102614285D01*
X128792857Y-102566666D01*
X128935714Y-102566666D01*
X129030952Y-102614285D01*
X129078571Y-102661904D01*
X129126190Y-102757142D01*
X129126190Y-103138095D01*
X129030952Y-101995238D02*
X128983333Y-102090476D01*
X128935714Y-102138095D01*
X128840476Y-102185714D01*
X128792857Y-102185714D01*
X128697619Y-102138095D01*
X128650000Y-102090476D01*
X128602380Y-101995238D01*
X128602380Y-101804761D01*
X128650000Y-101709523D01*
X128697619Y-101661904D01*
X128792857Y-101614285D01*
X128840476Y-101614285D01*
X128935714Y-101661904D01*
X128983333Y-101709523D01*
X129030952Y-101804761D01*
X129030952Y-101995238D01*
X129078571Y-102090476D01*
X129126190Y-102138095D01*
X129221428Y-102185714D01*
X129411904Y-102185714D01*
X129507142Y-102138095D01*
X129554761Y-102090476D01*
X129602380Y-101995238D01*
X129602380Y-101804761D01*
X129554761Y-101709523D01*
X129507142Y-101661904D01*
X129411904Y-101614285D01*
X129221428Y-101614285D01*
X129126190Y-101661904D01*
X129078571Y-101709523D01*
X129030952Y-101804761D01*
%TO.C,R7*%
X142233333Y-98852380D02*
X141900000Y-98376190D01*
X141661904Y-98852380D02*
X141661904Y-97852380D01*
X142042857Y-97852380D01*
X142138095Y-97900000D01*
X142185714Y-97947619D01*
X142233333Y-98042857D01*
X142233333Y-98185714D01*
X142185714Y-98280952D01*
X142138095Y-98328571D01*
X142042857Y-98376190D01*
X141661904Y-98376190D01*
X142566666Y-97852380D02*
X143233333Y-97852380D01*
X142804761Y-98852380D01*
%TO.C,R16*%
X97957142Y-82652380D02*
X97623809Y-82176190D01*
X97385714Y-82652380D02*
X97385714Y-81652380D01*
X97766666Y-81652380D01*
X97861904Y-81700000D01*
X97909523Y-81747619D01*
X97957142Y-81842857D01*
X97957142Y-81985714D01*
X97909523Y-82080952D01*
X97861904Y-82128571D01*
X97766666Y-82176190D01*
X97385714Y-82176190D01*
X98909523Y-82652380D02*
X98338095Y-82652380D01*
X98623809Y-82652380D02*
X98623809Y-81652380D01*
X98528571Y-81795238D01*
X98433333Y-81890476D01*
X98338095Y-81938095D01*
X99766666Y-81652380D02*
X99576190Y-81652380D01*
X99480952Y-81700000D01*
X99433333Y-81747619D01*
X99338095Y-81890476D01*
X99290476Y-82080952D01*
X99290476Y-82461904D01*
X99338095Y-82557142D01*
X99385714Y-82604761D01*
X99480952Y-82652380D01*
X99671428Y-82652380D01*
X99766666Y-82604761D01*
X99814285Y-82557142D01*
X99861904Y-82461904D01*
X99861904Y-82223809D01*
X99814285Y-82128571D01*
X99766666Y-82080952D01*
X99671428Y-82033333D01*
X99480952Y-82033333D01*
X99385714Y-82080952D01*
X99338095Y-82128571D01*
X99290476Y-82223809D01*
%TO.C,R15*%
X102757142Y-83552380D02*
X102423809Y-83076190D01*
X102185714Y-83552380D02*
X102185714Y-82552380D01*
X102566666Y-82552380D01*
X102661904Y-82600000D01*
X102709523Y-82647619D01*
X102757142Y-82742857D01*
X102757142Y-82885714D01*
X102709523Y-82980952D01*
X102661904Y-83028571D01*
X102566666Y-83076190D01*
X102185714Y-83076190D01*
X103709523Y-83552380D02*
X103138095Y-83552380D01*
X103423809Y-83552380D02*
X103423809Y-82552380D01*
X103328571Y-82695238D01*
X103233333Y-82790476D01*
X103138095Y-82838095D01*
X104614285Y-82552380D02*
X104138095Y-82552380D01*
X104090476Y-83028571D01*
X104138095Y-82980952D01*
X104233333Y-82933333D01*
X104471428Y-82933333D01*
X104566666Y-82980952D01*
X104614285Y-83028571D01*
X104661904Y-83123809D01*
X104661904Y-83361904D01*
X104614285Y-83457142D01*
X104566666Y-83504761D01*
X104471428Y-83552380D01*
X104233333Y-83552380D01*
X104138095Y-83504761D01*
X104090476Y-83457142D01*
%TO.C,R6*%
X141233333Y-102752380D02*
X140900000Y-102276190D01*
X140661904Y-102752380D02*
X140661904Y-101752380D01*
X141042857Y-101752380D01*
X141138095Y-101800000D01*
X141185714Y-101847619D01*
X141233333Y-101942857D01*
X141233333Y-102085714D01*
X141185714Y-102180952D01*
X141138095Y-102228571D01*
X141042857Y-102276190D01*
X140661904Y-102276190D01*
X142090476Y-101752380D02*
X141900000Y-101752380D01*
X141804761Y-101800000D01*
X141757142Y-101847619D01*
X141661904Y-101990476D01*
X141614285Y-102180952D01*
X141614285Y-102561904D01*
X141661904Y-102657142D01*
X141709523Y-102704761D01*
X141804761Y-102752380D01*
X141995238Y-102752380D01*
X142090476Y-102704761D01*
X142138095Y-102657142D01*
X142185714Y-102561904D01*
X142185714Y-102323809D01*
X142138095Y-102228571D01*
X142090476Y-102180952D01*
X141995238Y-102133333D01*
X141804761Y-102133333D01*
X141709523Y-102180952D01*
X141661904Y-102228571D01*
X141614285Y-102323809D01*
%TO.C,J3*%
D20*
X122714526Y-77436047D02*
X122714526Y-78297833D01*
X122657073Y-78470190D01*
X122542169Y-78585095D01*
X122369811Y-78642547D01*
X122254907Y-78642547D01*
X123174145Y-77436047D02*
X123921026Y-77436047D01*
X123518859Y-77895666D01*
X123691216Y-77895666D01*
X123806121Y-77953119D01*
X123863573Y-78010571D01*
X123921026Y-78125476D01*
X123921026Y-78412738D01*
X123863573Y-78527642D01*
X123806121Y-78585095D01*
X123691216Y-78642547D01*
X123346502Y-78642547D01*
X123231597Y-78585095D01*
X123174145Y-78527642D01*
D19*
X126295849Y-78450952D02*
X126353301Y-78393500D01*
X126468206Y-78336047D01*
X126755468Y-78336047D01*
X126870373Y-78393500D01*
X126927825Y-78450952D01*
X126985278Y-78565857D01*
X126985278Y-78680761D01*
X126927825Y-78853119D01*
X126238397Y-79542547D01*
X126985278Y-79542547D01*
X127387444Y-79542547D02*
X128019420Y-78738214D01*
X127387444Y-78738214D02*
X128019420Y-79542547D01*
X128421587Y-78450952D02*
X128479040Y-78393500D01*
X128593944Y-78336047D01*
X128881206Y-78336047D01*
X128996111Y-78393500D01*
X129053563Y-78450952D01*
X129111016Y-78565857D01*
X129111016Y-78680761D01*
X129053563Y-78853119D01*
X128364135Y-79542547D01*
X129111016Y-79542547D01*
X129857897Y-78336047D02*
X129972801Y-78336047D01*
X130087706Y-78393500D01*
X130145159Y-78450952D01*
X130202611Y-78565857D01*
X130260063Y-78795666D01*
X130260063Y-79082928D01*
X130202611Y-79312738D01*
X130145159Y-79427642D01*
X130087706Y-79485095D01*
X129972801Y-79542547D01*
X129857897Y-79542547D01*
X129742992Y-79485095D01*
X129685540Y-79427642D01*
X129628087Y-79312738D01*
X129570635Y-79082928D01*
X129570635Y-78795666D01*
X129628087Y-78565857D01*
X129685540Y-78450952D01*
X129742992Y-78393500D01*
X129857897Y-78336047D01*
%TO.C,FB3*%
D11*
X132433333Y-100042857D02*
X132166666Y-100042857D01*
X132166666Y-100461904D02*
X132166666Y-99661904D01*
X132547619Y-99661904D01*
X133119047Y-100042857D02*
X133233333Y-100080952D01*
X133271428Y-100119047D01*
X133309523Y-100195238D01*
X133309523Y-100309523D01*
X133271428Y-100385714D01*
X133233333Y-100423809D01*
X133157142Y-100461904D01*
X132852380Y-100461904D01*
X132852380Y-99661904D01*
X133119047Y-99661904D01*
X133195238Y-99700000D01*
X133233333Y-99738095D01*
X133271428Y-99814285D01*
X133271428Y-99890476D01*
X133233333Y-99966666D01*
X133195238Y-100004761D01*
X133119047Y-100042857D01*
X132852380Y-100042857D01*
X133576190Y-99661904D02*
X134071428Y-99661904D01*
X133804761Y-99966666D01*
X133919047Y-99966666D01*
X133995238Y-100004761D01*
X134033333Y-100042857D01*
X134071428Y-100119047D01*
X134071428Y-100309523D01*
X134033333Y-100385714D01*
X133995238Y-100423809D01*
X133919047Y-100461904D01*
X133690476Y-100461904D01*
X133614285Y-100423809D01*
X133576190Y-100385714D01*
%TO.C,FB2*%
X140633333Y-93642857D02*
X140366666Y-93642857D01*
X140366666Y-94061904D02*
X140366666Y-93261904D01*
X140747619Y-93261904D01*
X141319047Y-93642857D02*
X141433333Y-93680952D01*
X141471428Y-93719047D01*
X141509523Y-93795238D01*
X141509523Y-93909523D01*
X141471428Y-93985714D01*
X141433333Y-94023809D01*
X141357142Y-94061904D01*
X141052380Y-94061904D01*
X141052380Y-93261904D01*
X141319047Y-93261904D01*
X141395238Y-93300000D01*
X141433333Y-93338095D01*
X141471428Y-93414285D01*
X141471428Y-93490476D01*
X141433333Y-93566666D01*
X141395238Y-93604761D01*
X141319047Y-93642857D01*
X141052380Y-93642857D01*
X141814285Y-93338095D02*
X141852380Y-93300000D01*
X141928571Y-93261904D01*
X142119047Y-93261904D01*
X142195238Y-93300000D01*
X142233333Y-93338095D01*
X142271428Y-93414285D01*
X142271428Y-93490476D01*
X142233333Y-93604761D01*
X141776190Y-94061904D01*
X142271428Y-94061904D01*
%TO.C,FB1*%
X150833333Y-87642857D02*
X150566666Y-87642857D01*
X150566666Y-88061904D02*
X150566666Y-87261904D01*
X150947619Y-87261904D01*
X151519047Y-87642857D02*
X151633333Y-87680952D01*
X151671428Y-87719047D01*
X151709523Y-87795238D01*
X151709523Y-87909523D01*
X151671428Y-87985714D01*
X151633333Y-88023809D01*
X151557142Y-88061904D01*
X151252380Y-88061904D01*
X151252380Y-87261904D01*
X151519047Y-87261904D01*
X151595238Y-87300000D01*
X151633333Y-87338095D01*
X151671428Y-87414285D01*
X151671428Y-87490476D01*
X151633333Y-87566666D01*
X151595238Y-87604761D01*
X151519047Y-87642857D01*
X151252380Y-87642857D01*
X152471428Y-88061904D02*
X152014285Y-88061904D01*
X152242857Y-88061904D02*
X152242857Y-87261904D01*
X152166666Y-87376190D01*
X152090476Y-87452380D01*
X152014285Y-87490476D01*
%TO.C,C29*%
D16*
X137157142Y-95657142D02*
X137109523Y-95704761D01*
X136966666Y-95752380D01*
X136871428Y-95752380D01*
X136728571Y-95704761D01*
X136633333Y-95609523D01*
X136585714Y-95514285D01*
X136538095Y-95323809D01*
X136538095Y-95180952D01*
X136585714Y-94990476D01*
X136633333Y-94895238D01*
X136728571Y-94800000D01*
X136871428Y-94752380D01*
X136966666Y-94752380D01*
X137109523Y-94800000D01*
X137157142Y-94847619D01*
X137538095Y-94847619D02*
X137585714Y-94800000D01*
X137680952Y-94752380D01*
X137919047Y-94752380D01*
X138014285Y-94800000D01*
X138061904Y-94847619D01*
X138109523Y-94942857D01*
X138109523Y-95038095D01*
X138061904Y-95180952D01*
X137490476Y-95752380D01*
X138109523Y-95752380D01*
X138585714Y-95752380D02*
X138776190Y-95752380D01*
X138871428Y-95704761D01*
X138919047Y-95657142D01*
X139014285Y-95514285D01*
X139061904Y-95323809D01*
X139061904Y-94942857D01*
X139014285Y-94847619D01*
X138966666Y-94800000D01*
X138871428Y-94752380D01*
X138680952Y-94752380D01*
X138585714Y-94800000D01*
X138538095Y-94847619D01*
X138490476Y-94942857D01*
X138490476Y-95180952D01*
X138538095Y-95276190D01*
X138585714Y-95323809D01*
X138680952Y-95371428D01*
X138871428Y-95371428D01*
X138966666Y-95323809D01*
X139014285Y-95276190D01*
X139061904Y-95180952D01*
%TO.C,C27*%
X137357142Y-105557142D02*
X137309523Y-105604761D01*
X137166666Y-105652380D01*
X137071428Y-105652380D01*
X136928571Y-105604761D01*
X136833333Y-105509523D01*
X136785714Y-105414285D01*
X136738095Y-105223809D01*
X136738095Y-105080952D01*
X136785714Y-104890476D01*
X136833333Y-104795238D01*
X136928571Y-104700000D01*
X137071428Y-104652380D01*
X137166666Y-104652380D01*
X137309523Y-104700000D01*
X137357142Y-104747619D01*
X137738095Y-104747619D02*
X137785714Y-104700000D01*
X137880952Y-104652380D01*
X138119047Y-104652380D01*
X138214285Y-104700000D01*
X138261904Y-104747619D01*
X138309523Y-104842857D01*
X138309523Y-104938095D01*
X138261904Y-105080952D01*
X137690476Y-105652380D01*
X138309523Y-105652380D01*
X138642857Y-104652380D02*
X139309523Y-104652380D01*
X138880952Y-105652380D01*
%TO.C,C25*%
X147957142Y-91957142D02*
X147909523Y-92004761D01*
X147766666Y-92052380D01*
X147671428Y-92052380D01*
X147528571Y-92004761D01*
X147433333Y-91909523D01*
X147385714Y-91814285D01*
X147338095Y-91623809D01*
X147338095Y-91480952D01*
X147385714Y-91290476D01*
X147433333Y-91195238D01*
X147528571Y-91100000D01*
X147671428Y-91052380D01*
X147766666Y-91052380D01*
X147909523Y-91100000D01*
X147957142Y-91147619D01*
X148338095Y-91147619D02*
X148385714Y-91100000D01*
X148480952Y-91052380D01*
X148719047Y-91052380D01*
X148814285Y-91100000D01*
X148861904Y-91147619D01*
X148909523Y-91242857D01*
X148909523Y-91338095D01*
X148861904Y-91480952D01*
X148290476Y-92052380D01*
X148909523Y-92052380D01*
X149814285Y-91052380D02*
X149338095Y-91052380D01*
X149290476Y-91528571D01*
X149338095Y-91480952D01*
X149433333Y-91433333D01*
X149671428Y-91433333D01*
X149766666Y-91480952D01*
X149814285Y-91528571D01*
X149861904Y-91623809D01*
X149861904Y-91861904D01*
X149814285Y-91957142D01*
X149766666Y-92004761D01*
X149671428Y-92052380D01*
X149433333Y-92052380D01*
X149338095Y-92004761D01*
X149290476Y-91957142D01*
%TO.C,C23*%
X143857142Y-79457142D02*
X143809523Y-79504761D01*
X143666666Y-79552380D01*
X143571428Y-79552380D01*
X143428571Y-79504761D01*
X143333333Y-79409523D01*
X143285714Y-79314285D01*
X143238095Y-79123809D01*
X143238095Y-78980952D01*
X143285714Y-78790476D01*
X143333333Y-78695238D01*
X143428571Y-78600000D01*
X143571428Y-78552380D01*
X143666666Y-78552380D01*
X143809523Y-78600000D01*
X143857142Y-78647619D01*
X144238095Y-78647619D02*
X144285714Y-78600000D01*
X144380952Y-78552380D01*
X144619047Y-78552380D01*
X144714285Y-78600000D01*
X144761904Y-78647619D01*
X144809523Y-78742857D01*
X144809523Y-78838095D01*
X144761904Y-78980952D01*
X144190476Y-79552380D01*
X144809523Y-79552380D01*
X145142857Y-78552380D02*
X145761904Y-78552380D01*
X145428571Y-78933333D01*
X145571428Y-78933333D01*
X145666666Y-78980952D01*
X145714285Y-79028571D01*
X145761904Y-79123809D01*
X145761904Y-79361904D01*
X145714285Y-79457142D01*
X145666666Y-79504761D01*
X145571428Y-79552380D01*
X145285714Y-79552380D01*
X145190476Y-79504761D01*
X145142857Y-79457142D01*
%TO.C,C21*%
X127757142Y-112142857D02*
X127804761Y-112190476D01*
X127852380Y-112333333D01*
X127852380Y-112428571D01*
X127804761Y-112571428D01*
X127709523Y-112666666D01*
X127614285Y-112714285D01*
X127423809Y-112761904D01*
X127280952Y-112761904D01*
X127090476Y-112714285D01*
X126995238Y-112666666D01*
X126900000Y-112571428D01*
X126852380Y-112428571D01*
X126852380Y-112333333D01*
X126900000Y-112190476D01*
X126947619Y-112142857D01*
X126947619Y-111761904D02*
X126900000Y-111714285D01*
X126852380Y-111619047D01*
X126852380Y-111380952D01*
X126900000Y-111285714D01*
X126947619Y-111238095D01*
X127042857Y-111190476D01*
X127138095Y-111190476D01*
X127280952Y-111238095D01*
X127852380Y-111809523D01*
X127852380Y-111190476D01*
X127852380Y-110238095D02*
X127852380Y-110809523D01*
X127852380Y-110523809D02*
X126852380Y-110523809D01*
X126995238Y-110619047D01*
X127090476Y-110714285D01*
X127138095Y-110809523D01*
%TO.C,C20*%
X111157142Y-96757142D02*
X111109523Y-96804761D01*
X110966666Y-96852380D01*
X110871428Y-96852380D01*
X110728571Y-96804761D01*
X110633333Y-96709523D01*
X110585714Y-96614285D01*
X110538095Y-96423809D01*
X110538095Y-96280952D01*
X110585714Y-96090476D01*
X110633333Y-95995238D01*
X110728571Y-95900000D01*
X110871428Y-95852380D01*
X110966666Y-95852380D01*
X111109523Y-95900000D01*
X111157142Y-95947619D01*
X111538095Y-95947619D02*
X111585714Y-95900000D01*
X111680952Y-95852380D01*
X111919047Y-95852380D01*
X112014285Y-95900000D01*
X112061904Y-95947619D01*
X112109523Y-96042857D01*
X112109523Y-96138095D01*
X112061904Y-96280952D01*
X111490476Y-96852380D01*
X112109523Y-96852380D01*
X112728571Y-95852380D02*
X112823809Y-95852380D01*
X112919047Y-95900000D01*
X112966666Y-95947619D01*
X113014285Y-96042857D01*
X113061904Y-96233333D01*
X113061904Y-96471428D01*
X113014285Y-96661904D01*
X112966666Y-96757142D01*
X112919047Y-96804761D01*
X112823809Y-96852380D01*
X112728571Y-96852380D01*
X112633333Y-96804761D01*
X112585714Y-96757142D01*
X112538095Y-96661904D01*
X112490476Y-96471428D01*
X112490476Y-96233333D01*
X112538095Y-96042857D01*
X112585714Y-95947619D01*
X112633333Y-95900000D01*
X112728571Y-95852380D01*
%TO.C,C19*%
X133457142Y-98157142D02*
X133409523Y-98204761D01*
X133266666Y-98252380D01*
X133171428Y-98252380D01*
X133028571Y-98204761D01*
X132933333Y-98109523D01*
X132885714Y-98014285D01*
X132838095Y-97823809D01*
X132838095Y-97680952D01*
X132885714Y-97490476D01*
X132933333Y-97395238D01*
X133028571Y-97300000D01*
X133171428Y-97252380D01*
X133266666Y-97252380D01*
X133409523Y-97300000D01*
X133457142Y-97347619D01*
X134409523Y-98252380D02*
X133838095Y-98252380D01*
X134123809Y-98252380D02*
X134123809Y-97252380D01*
X134028571Y-97395238D01*
X133933333Y-97490476D01*
X133838095Y-97538095D01*
X134885714Y-98252380D02*
X135076190Y-98252380D01*
X135171428Y-98204761D01*
X135219047Y-98157142D01*
X135314285Y-98014285D01*
X135361904Y-97823809D01*
X135361904Y-97442857D01*
X135314285Y-97347619D01*
X135266666Y-97300000D01*
X135171428Y-97252380D01*
X134980952Y-97252380D01*
X134885714Y-97300000D01*
X134838095Y-97347619D01*
X134790476Y-97442857D01*
X134790476Y-97680952D01*
X134838095Y-97776190D01*
X134885714Y-97823809D01*
X134980952Y-97871428D01*
X135171428Y-97871428D01*
X135266666Y-97823809D01*
X135314285Y-97776190D01*
X135361904Y-97680952D01*
%TO.C,C18*%
X110057142Y-110757142D02*
X110009523Y-110804761D01*
X109866666Y-110852380D01*
X109771428Y-110852380D01*
X109628571Y-110804761D01*
X109533333Y-110709523D01*
X109485714Y-110614285D01*
X109438095Y-110423809D01*
X109438095Y-110280952D01*
X109485714Y-110090476D01*
X109533333Y-109995238D01*
X109628571Y-109900000D01*
X109771428Y-109852380D01*
X109866666Y-109852380D01*
X110009523Y-109900000D01*
X110057142Y-109947619D01*
X111009523Y-110852380D02*
X110438095Y-110852380D01*
X110723809Y-110852380D02*
X110723809Y-109852380D01*
X110628571Y-109995238D01*
X110533333Y-110090476D01*
X110438095Y-110138095D01*
X111580952Y-110280952D02*
X111485714Y-110233333D01*
X111438095Y-110185714D01*
X111390476Y-110090476D01*
X111390476Y-110042857D01*
X111438095Y-109947619D01*
X111485714Y-109900000D01*
X111580952Y-109852380D01*
X111771428Y-109852380D01*
X111866666Y-109900000D01*
X111914285Y-109947619D01*
X111961904Y-110042857D01*
X111961904Y-110090476D01*
X111914285Y-110185714D01*
X111866666Y-110233333D01*
X111771428Y-110280952D01*
X111580952Y-110280952D01*
X111485714Y-110328571D01*
X111438095Y-110376190D01*
X111390476Y-110471428D01*
X111390476Y-110661904D01*
X111438095Y-110757142D01*
X111485714Y-110804761D01*
X111580952Y-110852380D01*
X111771428Y-110852380D01*
X111866666Y-110804761D01*
X111914285Y-110757142D01*
X111961904Y-110661904D01*
X111961904Y-110471428D01*
X111914285Y-110376190D01*
X111866666Y-110328571D01*
X111771428Y-110280952D01*
%TO.C,C17*%
X109357142Y-102242857D02*
X109404761Y-102290476D01*
X109452380Y-102433333D01*
X109452380Y-102528571D01*
X109404761Y-102671428D01*
X109309523Y-102766666D01*
X109214285Y-102814285D01*
X109023809Y-102861904D01*
X108880952Y-102861904D01*
X108690476Y-102814285D01*
X108595238Y-102766666D01*
X108500000Y-102671428D01*
X108452380Y-102528571D01*
X108452380Y-102433333D01*
X108500000Y-102290476D01*
X108547619Y-102242857D01*
X109452380Y-101290476D02*
X109452380Y-101861904D01*
X109452380Y-101576190D02*
X108452380Y-101576190D01*
X108595238Y-101671428D01*
X108690476Y-101766666D01*
X108738095Y-101861904D01*
X108452380Y-100957142D02*
X108452380Y-100290476D01*
X109452380Y-100719047D01*
%TO.C,C16*%
X107857142Y-95942857D02*
X107904761Y-95990476D01*
X107952380Y-96133333D01*
X107952380Y-96228571D01*
X107904761Y-96371428D01*
X107809523Y-96466666D01*
X107714285Y-96514285D01*
X107523809Y-96561904D01*
X107380952Y-96561904D01*
X107190476Y-96514285D01*
X107095238Y-96466666D01*
X107000000Y-96371428D01*
X106952380Y-96228571D01*
X106952380Y-96133333D01*
X107000000Y-95990476D01*
X107047619Y-95942857D01*
X107952380Y-94990476D02*
X107952380Y-95561904D01*
X107952380Y-95276190D02*
X106952380Y-95276190D01*
X107095238Y-95371428D01*
X107190476Y-95466666D01*
X107238095Y-95561904D01*
X106952380Y-94133333D02*
X106952380Y-94323809D01*
X107000000Y-94419047D01*
X107047619Y-94466666D01*
X107190476Y-94561904D01*
X107380952Y-94609523D01*
X107761904Y-94609523D01*
X107857142Y-94561904D01*
X107904761Y-94514285D01*
X107952380Y-94419047D01*
X107952380Y-94228571D01*
X107904761Y-94133333D01*
X107857142Y-94085714D01*
X107761904Y-94038095D01*
X107523809Y-94038095D01*
X107428571Y-94085714D01*
X107380952Y-94133333D01*
X107333333Y-94228571D01*
X107333333Y-94419047D01*
X107380952Y-94514285D01*
X107428571Y-94561904D01*
X107523809Y-94609523D01*
%TO.C,C15*%
X127157142Y-91742857D02*
X127204761Y-91790476D01*
X127252380Y-91933333D01*
X127252380Y-92028571D01*
X127204761Y-92171428D01*
X127109523Y-92266666D01*
X127014285Y-92314285D01*
X126823809Y-92361904D01*
X126680952Y-92361904D01*
X126490476Y-92314285D01*
X126395238Y-92266666D01*
X126300000Y-92171428D01*
X126252380Y-92028571D01*
X126252380Y-91933333D01*
X126300000Y-91790476D01*
X126347619Y-91742857D01*
X127252380Y-90790476D02*
X127252380Y-91361904D01*
X127252380Y-91076190D02*
X126252380Y-91076190D01*
X126395238Y-91171428D01*
X126490476Y-91266666D01*
X126538095Y-91361904D01*
X126252380Y-89885714D02*
X126252380Y-90361904D01*
X126728571Y-90409523D01*
X126680952Y-90361904D01*
X126633333Y-90266666D01*
X126633333Y-90028571D01*
X126680952Y-89933333D01*
X126728571Y-89885714D01*
X126823809Y-89838095D01*
X127061904Y-89838095D01*
X127157142Y-89885714D01*
X127204761Y-89933333D01*
X127252380Y-90028571D01*
X127252380Y-90266666D01*
X127204761Y-90361904D01*
X127157142Y-90409523D01*
%TO.C,C14*%
X129557142Y-114257142D02*
X129509523Y-114304761D01*
X129366666Y-114352380D01*
X129271428Y-114352380D01*
X129128571Y-114304761D01*
X129033333Y-114209523D01*
X128985714Y-114114285D01*
X128938095Y-113923809D01*
X128938095Y-113780952D01*
X128985714Y-113590476D01*
X129033333Y-113495238D01*
X129128571Y-113400000D01*
X129271428Y-113352380D01*
X129366666Y-113352380D01*
X129509523Y-113400000D01*
X129557142Y-113447619D01*
X130509523Y-114352380D02*
X129938095Y-114352380D01*
X130223809Y-114352380D02*
X130223809Y-113352380D01*
X130128571Y-113495238D01*
X130033333Y-113590476D01*
X129938095Y-113638095D01*
X131366666Y-113685714D02*
X131366666Y-114352380D01*
X131128571Y-113304761D02*
X130890476Y-114019047D01*
X131509523Y-114019047D01*
%TO.C,C13*%
X134157142Y-114257142D02*
X134109523Y-114304761D01*
X133966666Y-114352380D01*
X133871428Y-114352380D01*
X133728571Y-114304761D01*
X133633333Y-114209523D01*
X133585714Y-114114285D01*
X133538095Y-113923809D01*
X133538095Y-113780952D01*
X133585714Y-113590476D01*
X133633333Y-113495238D01*
X133728571Y-113400000D01*
X133871428Y-113352380D01*
X133966666Y-113352380D01*
X134109523Y-113400000D01*
X134157142Y-113447619D01*
X135109523Y-114352380D02*
X134538095Y-114352380D01*
X134823809Y-114352380D02*
X134823809Y-113352380D01*
X134728571Y-113495238D01*
X134633333Y-113590476D01*
X134538095Y-113638095D01*
X135442857Y-113352380D02*
X136061904Y-113352380D01*
X135728571Y-113733333D01*
X135871428Y-113733333D01*
X135966666Y-113780952D01*
X136014285Y-113828571D01*
X136061904Y-113923809D01*
X136061904Y-114161904D01*
X136014285Y-114257142D01*
X135966666Y-114304761D01*
X135871428Y-114352380D01*
X135585714Y-114352380D01*
X135490476Y-114304761D01*
X135442857Y-114257142D01*
%TO.C,C12*%
X145057142Y-90857142D02*
X145009523Y-90904761D01*
X144866666Y-90952380D01*
X144771428Y-90952380D01*
X144628571Y-90904761D01*
X144533333Y-90809523D01*
X144485714Y-90714285D01*
X144438095Y-90523809D01*
X144438095Y-90380952D01*
X144485714Y-90190476D01*
X144533333Y-90095238D01*
X144628571Y-90000000D01*
X144771428Y-89952380D01*
X144866666Y-89952380D01*
X145009523Y-90000000D01*
X145057142Y-90047619D01*
X146009523Y-90952380D02*
X145438095Y-90952380D01*
X145723809Y-90952380D02*
X145723809Y-89952380D01*
X145628571Y-90095238D01*
X145533333Y-90190476D01*
X145438095Y-90238095D01*
X146390476Y-90047619D02*
X146438095Y-90000000D01*
X146533333Y-89952380D01*
X146771428Y-89952380D01*
X146866666Y-90000000D01*
X146914285Y-90047619D01*
X146961904Y-90142857D01*
X146961904Y-90238095D01*
X146914285Y-90380952D01*
X146342857Y-90952380D01*
X146961904Y-90952380D01*
%TO.C,C10*%
X105257142Y-105457142D02*
X105209523Y-105504761D01*
X105066666Y-105552380D01*
X104971428Y-105552380D01*
X104828571Y-105504761D01*
X104733333Y-105409523D01*
X104685714Y-105314285D01*
X104638095Y-105123809D01*
X104638095Y-104980952D01*
X104685714Y-104790476D01*
X104733333Y-104695238D01*
X104828571Y-104600000D01*
X104971428Y-104552380D01*
X105066666Y-104552380D01*
X105209523Y-104600000D01*
X105257142Y-104647619D01*
X106209523Y-105552380D02*
X105638095Y-105552380D01*
X105923809Y-105552380D02*
X105923809Y-104552380D01*
X105828571Y-104695238D01*
X105733333Y-104790476D01*
X105638095Y-104838095D01*
X106828571Y-104552380D02*
X106923809Y-104552380D01*
X107019047Y-104600000D01*
X107066666Y-104647619D01*
X107114285Y-104742857D01*
X107161904Y-104933333D01*
X107161904Y-105171428D01*
X107114285Y-105361904D01*
X107066666Y-105457142D01*
X107019047Y-105504761D01*
X106923809Y-105552380D01*
X106828571Y-105552380D01*
X106733333Y-105504761D01*
X106685714Y-105457142D01*
X106638095Y-105361904D01*
X106590476Y-105171428D01*
X106590476Y-104933333D01*
X106638095Y-104742857D01*
X106685714Y-104647619D01*
X106733333Y-104600000D01*
X106828571Y-104552380D01*
%TO.C,C8*%
X119657142Y-121866666D02*
X119704761Y-121914285D01*
X119752380Y-122057142D01*
X119752380Y-122152380D01*
X119704761Y-122295238D01*
X119609523Y-122390476D01*
X119514285Y-122438095D01*
X119323809Y-122485714D01*
X119180952Y-122485714D01*
X118990476Y-122438095D01*
X118895238Y-122390476D01*
X118800000Y-122295238D01*
X118752380Y-122152380D01*
X118752380Y-122057142D01*
X118800000Y-121914285D01*
X118847619Y-121866666D01*
X119180952Y-121295238D02*
X119133333Y-121390476D01*
X119085714Y-121438095D01*
X118990476Y-121485714D01*
X118942857Y-121485714D01*
X118847619Y-121438095D01*
X118800000Y-121390476D01*
X118752380Y-121295238D01*
X118752380Y-121104761D01*
X118800000Y-121009523D01*
X118847619Y-120961904D01*
X118942857Y-120914285D01*
X118990476Y-120914285D01*
X119085714Y-120961904D01*
X119133333Y-121009523D01*
X119180952Y-121104761D01*
X119180952Y-121295238D01*
X119228571Y-121390476D01*
X119276190Y-121438095D01*
X119371428Y-121485714D01*
X119561904Y-121485714D01*
X119657142Y-121438095D01*
X119704761Y-121390476D01*
X119752380Y-121295238D01*
X119752380Y-121104761D01*
X119704761Y-121009523D01*
X119657142Y-120961904D01*
X119561904Y-120914285D01*
X119371428Y-120914285D01*
X119276190Y-120961904D01*
X119228571Y-121009523D01*
X119180952Y-121104761D01*
%TO.C,C6*%
X110057142Y-123266666D02*
X110104761Y-123314285D01*
X110152380Y-123457142D01*
X110152380Y-123552380D01*
X110104761Y-123695238D01*
X110009523Y-123790476D01*
X109914285Y-123838095D01*
X109723809Y-123885714D01*
X109580952Y-123885714D01*
X109390476Y-123838095D01*
X109295238Y-123790476D01*
X109200000Y-123695238D01*
X109152380Y-123552380D01*
X109152380Y-123457142D01*
X109200000Y-123314285D01*
X109247619Y-123266666D01*
X109152380Y-122409523D02*
X109152380Y-122600000D01*
X109200000Y-122695238D01*
X109247619Y-122742857D01*
X109390476Y-122838095D01*
X109580952Y-122885714D01*
X109961904Y-122885714D01*
X110057142Y-122838095D01*
X110104761Y-122790476D01*
X110152380Y-122695238D01*
X110152380Y-122504761D01*
X110104761Y-122409523D01*
X110057142Y-122361904D01*
X109961904Y-122314285D01*
X109723809Y-122314285D01*
X109628571Y-122361904D01*
X109580952Y-122409523D01*
X109533333Y-122504761D01*
X109533333Y-122695238D01*
X109580952Y-122790476D01*
X109628571Y-122838095D01*
X109723809Y-122885714D01*
%TO.C,C3*%
X126457142Y-124466666D02*
X126504761Y-124514285D01*
X126552380Y-124657142D01*
X126552380Y-124752380D01*
X126504761Y-124895238D01*
X126409523Y-124990476D01*
X126314285Y-125038095D01*
X126123809Y-125085714D01*
X125980952Y-125085714D01*
X125790476Y-125038095D01*
X125695238Y-124990476D01*
X125600000Y-124895238D01*
X125552380Y-124752380D01*
X125552380Y-124657142D01*
X125600000Y-124514285D01*
X125647619Y-124466666D01*
X125552380Y-124133333D02*
X125552380Y-123514285D01*
X125933333Y-123847619D01*
X125933333Y-123704761D01*
X125980952Y-123609523D01*
X126028571Y-123561904D01*
X126123809Y-123514285D01*
X126361904Y-123514285D01*
X126457142Y-123561904D01*
X126504761Y-123609523D01*
X126552380Y-123704761D01*
X126552380Y-123990476D01*
X126504761Y-124085714D01*
X126457142Y-124133333D01*
%TO.C,C2*%
X129557142Y-122966666D02*
X129604761Y-123014285D01*
X129652380Y-123157142D01*
X129652380Y-123252380D01*
X129604761Y-123395238D01*
X129509523Y-123490476D01*
X129414285Y-123538095D01*
X129223809Y-123585714D01*
X129080952Y-123585714D01*
X128890476Y-123538095D01*
X128795238Y-123490476D01*
X128700000Y-123395238D01*
X128652380Y-123252380D01*
X128652380Y-123157142D01*
X128700000Y-123014285D01*
X128747619Y-122966666D01*
X128747619Y-122585714D02*
X128700000Y-122538095D01*
X128652380Y-122442857D01*
X128652380Y-122204761D01*
X128700000Y-122109523D01*
X128747619Y-122061904D01*
X128842857Y-122014285D01*
X128938095Y-122014285D01*
X129080952Y-122061904D01*
X129652380Y-122633333D01*
X129652380Y-122014285D01*
%TD*%
M02*
