M48
; DRILL file {KiCad (5.1.8)-1} date 02/22/21 22:06:01
; FORMAT={-:-/ absolute / inch / decimal}
; #@! TF.CreationDate,2021-02-22T22:06:01+01:00
; #@! TF.GenerationSoftware,Kicad,Pcbnew,(5.1.8)-1
FMAT,2
INCH
T1C0.0157
T2C0.0236
T3C0.0400
T4C0.0500
T5C0.0630
T6C0.1299
T7C0.0256
%
G90
G05
T1
X4.1614Y-3.3031
X4.3031Y-3.5866
X4.3071Y-3.3071
X4.3189Y-3.8976
X4.3543Y-3.4409
X4.3622Y-3.8031
X4.3661Y-3.6378
X4.436Y-3.8031
X4.437Y-4.0197
X4.4449Y-3.752
X4.4449Y-3.9646
X4.4931Y-3.8789
X4.5Y-3.6417
X4.5039Y-3.5591
X4.5157Y-3.4685
X4.5512Y-3.4291
X4.5866Y-3.3937
X4.6102Y-4.0039
X4.6152Y-3.3622
X4.6181Y-3.4409
X4.626Y-3.815
X4.6299Y-4.563
X4.6378Y-4.2441
X4.6467Y-3.5039
X4.6496Y-3.3356
X4.6496Y-4.0945
X4.6614Y-3.9764
X4.6732Y-4.7205
X4.6772Y-4.2087
X4.6969Y-4.0669
X4.7323Y-4.0315
X4.7638Y-4.063
X4.7874Y-4.3583
X4.815Y-3.4882
X4.8307Y-3.1378
X4.8465Y-3.5315
X4.8504Y-4.3307
X4.8543Y-3.8858
X4.8701Y-4.251
X4.874Y-3.5748
X4.8819Y-4.2126
X4.8976Y-3.9331
X4.9055Y-4.563
X4.9094Y-3.6181
X4.9567Y-4.937
X5.0551Y-4.1063
X5.0669Y-3.2559
X5.0748Y-3.3661
X5.126Y-3.4055
X5.1378Y-4.7441
X5.2126Y-3.5079
X5.2717Y-3.6535
X5.3071Y-3.8465
X5.4803Y-3.9882
X5.5709Y-4.0394
X5.5748Y-3.5945
X5.6063Y-3.8425
X5.6299Y-3.7323
X5.7244Y-3.5157
X5.8898Y-3.2323
T3
X3.8728Y-2.8831
X3.8728Y-2.9831
X3.9728Y-2.8831
X3.9728Y-2.9831
X4.0728Y-2.8831
X4.0728Y-2.9831
X4.1728Y-2.8831
X4.1728Y-2.9831
X4.2728Y-2.8831
X4.2728Y-2.9831
X4.3728Y-2.8831
X4.3728Y-2.9831
X4.4728Y-2.8831
X4.4728Y-2.9831
X4.5728Y-2.8831
X4.5728Y-2.9831
X4.6728Y-2.8831
X4.6728Y-2.9831
X4.7728Y-2.8831
X4.7728Y-2.9831
X4.8728Y-2.8831
X4.8728Y-2.9831
X4.9728Y-2.8831
X4.9728Y-2.9831
X5.0728Y-2.8831
X5.0728Y-2.9831
X5.1728Y-2.8831
X5.1728Y-2.9831
X5.2728Y-2.8831
X5.2728Y-2.9831
X5.3728Y-2.8831
X5.3728Y-2.9831
X5.4728Y-2.8831
X5.4728Y-2.9831
X5.5728Y-2.8831
X5.5728Y-2.9831
X5.6728Y-2.8831
X5.6728Y-2.9831
X5.7728Y-2.8831
X5.7728Y-2.9831
T4
X5.685Y-4.4921
X5.8819Y-4.4921
T5
X5.563Y-4.4921
X5.6811Y-4.3071
X5.8051Y-4.4921
T6
X5.9646Y-2.9331
X3.6811Y-2.9331
X3.6811Y-4.8622
X5.9646Y-4.8622
T7
X5.8996Y-3.7835
X5.8996Y-4.0118
T2
G00X5.8669Y-3.7276
M15
G01X5.8906Y-3.7276
M16
G05
G00X5.8669Y-4.0677
M15
G01X5.8906Y-4.0677
M16
G05
G00X6.0315Y-3.7276
M15
G01X6.0551Y-3.7276
M16
G05
G00X6.0315Y-4.0677
M15
G01X6.0551Y-4.0677
M16
G05
T0
M30
