%TF.GenerationSoftware,KiCad,Pcbnew,(5.1.8)-1*%
%TF.CreationDate,2021-02-22T22:13:28+01:00*%
%TF.ProjectId,radioberry-juice,72616469-6f62-4657-9272-792d6a756963,rev?*%
%TF.SameCoordinates,Original*%
%TF.FileFunction,Soldermask,Bot*%
%TF.FilePolarity,Negative*%
%FSLAX46Y46*%
G04 Gerber Fmt 4.6, Leading zero omitted, Abs format (unit mm)*
G04 Created by KiCad (PCBNEW (5.1.8)-1) date 2021-02-22 22:13:28*
%MOMM*%
%LPD*%
G01*
G04 APERTURE LIST*
%ADD10C,2.200000*%
%ADD11C,2.600000*%
%ADD12C,3.000000*%
%ADD13C,0.670000*%
%ADD14C,5.300000*%
%ADD15C,1.524000*%
G04 APERTURE END LIST*
D10*
%TO.C,CN1*%
X149400000Y-114100000D03*
X144400000Y-114100000D03*
D11*
X144300000Y-109400000D03*
X147450000Y-114100000D03*
D12*
X141300000Y-114100000D03*
%TD*%
D13*
%TO.C,J2*%
X149850000Y-96100000D03*
X149850000Y-101900000D03*
G36*
G01*
X153800000Y-103820000D02*
X153200000Y-103820000D01*
G75*
G02*
X152700000Y-103320000I0J500000D01*
G01*
X152700000Y-103320000D01*
G75*
G02*
X153200000Y-102820000I500000J0D01*
G01*
X153800000Y-102820000D01*
G75*
G02*
X154300000Y-103320000I0J-500000D01*
G01*
X154300000Y-103320000D01*
G75*
G02*
X153800000Y-103820000I-500000J0D01*
G01*
G37*
G36*
G01*
X153800000Y-95180000D02*
X153200000Y-95180000D01*
G75*
G02*
X152700000Y-94680000I0J500000D01*
G01*
X152700000Y-94680000D01*
G75*
G02*
X153200000Y-94180000I500000J0D01*
G01*
X153800000Y-94180000D01*
G75*
G02*
X154300000Y-94680000I0J-500000D01*
G01*
X154300000Y-94680000D01*
G75*
G02*
X153800000Y-95180000I-500000J0D01*
G01*
G37*
G36*
G01*
X149620000Y-95180000D02*
X149020000Y-95180000D01*
G75*
G02*
X148520000Y-94680000I0J500000D01*
G01*
X148520000Y-94680000D01*
G75*
G02*
X149020000Y-94180000I500000J0D01*
G01*
X149620000Y-94180000D01*
G75*
G02*
X150120000Y-94680000I0J-500000D01*
G01*
X150120000Y-94680000D01*
G75*
G02*
X149620000Y-95180000I-500000J0D01*
G01*
G37*
G36*
G01*
X149620000Y-103820000D02*
X149020000Y-103820000D01*
G75*
G02*
X148520000Y-103320000I0J500000D01*
G01*
X148520000Y-103320000D01*
G75*
G02*
X149020000Y-102820000I500000J0D01*
G01*
X149620000Y-102820000D01*
G75*
G02*
X150120000Y-103320000I0J-500000D01*
G01*
X150120000Y-103320000D01*
G75*
G02*
X149620000Y-103820000I-500000J0D01*
G01*
G37*
%TD*%
D14*
%TO.C,J7*%
X151500000Y-123500000D03*
%TD*%
%TO.C,J6*%
X93500000Y-123500000D03*
%TD*%
%TO.C,J5*%
X151500000Y-74500000D03*
%TD*%
%TO.C,J4*%
X93500000Y-74500000D03*
%TD*%
D15*
%TO.C,J3*%
X146630000Y-73230000D03*
X146630000Y-75770000D03*
X144090000Y-73230000D03*
X144090000Y-75770000D03*
X141550000Y-73230000D03*
X141550000Y-75770000D03*
X139010000Y-73230000D03*
X139010000Y-75770000D03*
X136470000Y-73230000D03*
X136470000Y-75770000D03*
X133930000Y-73230000D03*
X133930000Y-75770000D03*
X131390000Y-73230000D03*
X131390000Y-75770000D03*
X128850000Y-73230000D03*
X128850000Y-75770000D03*
X126310000Y-73230000D03*
X126310000Y-75770000D03*
X123770000Y-73230000D03*
X123770000Y-75770000D03*
X121230000Y-73230000D03*
X121230000Y-75770000D03*
X118690000Y-73230000D03*
X118690000Y-75770000D03*
X116150000Y-73230000D03*
X116150000Y-75770000D03*
X113610000Y-73230000D03*
X113610000Y-75770000D03*
X111070000Y-73230000D03*
X111070000Y-75770000D03*
X108530000Y-73230000D03*
X108530000Y-75770000D03*
X105990000Y-73230000D03*
X105990000Y-75770000D03*
X103450000Y-73230000D03*
X103450000Y-75770000D03*
X100910000Y-73230000D03*
X100910000Y-75770000D03*
X98370000Y-73230000D03*
X98370000Y-75770000D03*
%TD*%
M02*
