%TF.GenerationSoftware,KiCad,Pcbnew,(5.1.8)-1*%
%TF.CreationDate,2021-02-22T22:13:28+01:00*%
%TF.ProjectId,radioberry-juice,72616469-6f62-4657-9272-792d6a756963,rev?*%
%TF.SameCoordinates,Original*%
%TF.FileFunction,Paste,Top*%
%TF.FilePolarity,Positive*%
%FSLAX46Y46*%
G04 Gerber Fmt 4.6, Leading zero omitted, Abs format (unit mm)*
G04 Created by KiCad (PCBNEW (5.1.8)-1) date 2021-02-22 22:13:28*
%MOMM*%
%LPD*%
G01*
G04 APERTURE LIST*
%ADD10R,1.500000X1.250000*%
%ADD11R,1.250000X1.500000*%
%ADD12R,1.100000X1.600000*%
%ADD13R,0.900000X1.200000*%
%ADD14R,1.600000X1.100000*%
%ADD15R,1.900000X2.600000*%
%ADD16R,1.200000X0.900000*%
%ADD17R,0.900000X0.800000*%
%ADD18R,0.800000X0.900000*%
%ADD19R,2.000000X1.500000*%
%ADD20R,2.000000X3.800000*%
%ADD21R,0.635000X1.143000*%
%ADD22R,2.100000X2.000000*%
%ADD23R,0.750000X1.200000*%
%ADD24R,1.450000X0.300000*%
%ADD25R,1.560000X0.650000*%
%ADD26R,1.500000X2.000000*%
%ADD27R,3.800000X2.000000*%
%ADD28R,1.000000X0.250000*%
%ADD29R,0.250000X1.000000*%
%ADD30R,5.600000X2.300000*%
%ADD31R,1.143000X0.635000*%
%ADD32R,1.200000X0.750000*%
G04 APERTURE END LIST*
D10*
%TO.C,C28*%
X138150000Y-98500000D03*
X140650000Y-98500000D03*
%TD*%
%TO.C,C26*%
X133000000Y-103300000D03*
X135500000Y-103300000D03*
%TD*%
%TO.C,C24*%
X149450000Y-87000000D03*
X146950000Y-87000000D03*
%TD*%
D11*
%TO.C,C22*%
X141800000Y-83000000D03*
X141800000Y-80500000D03*
%TD*%
D10*
%TO.C,C11*%
X116100000Y-108500000D03*
X113600000Y-108500000D03*
%TD*%
%TO.C,C9*%
X110900000Y-107400000D03*
X108400000Y-107400000D03*
%TD*%
D11*
%TO.C,C7*%
X117400000Y-125200000D03*
X117400000Y-122700000D03*
%TD*%
%TO.C,C5*%
X112000000Y-120600000D03*
X112000000Y-118100000D03*
%TD*%
%TO.C,C1*%
X130500000Y-122750000D03*
X130500000Y-125250000D03*
%TD*%
D12*
%TO.C,D4*%
X153800000Y-90100000D03*
X153800000Y-92600000D03*
%TD*%
D13*
%TO.C,R19*%
X100300000Y-119600000D03*
X100300000Y-121800000D03*
%TD*%
%TO.C,R18*%
X153800000Y-85700000D03*
X153800000Y-87900000D03*
%TD*%
D14*
%TO.C,D5*%
X101050000Y-125100000D03*
X98550000Y-125100000D03*
%TD*%
D15*
%TO.C,Y1*%
X130500000Y-108700000D03*
X134800000Y-108700000D03*
%TD*%
D13*
%TO.C,R3*%
X125500000Y-110700000D03*
X125500000Y-108500000D03*
%TD*%
D16*
%TO.C,R1*%
X123200000Y-121600000D03*
X121000000Y-121600000D03*
%TD*%
D17*
%TO.C,Q3*%
X125700000Y-119850000D03*
X127700000Y-118900000D03*
X125700000Y-117950000D03*
%TD*%
D18*
%TO.C,Q2*%
X122950000Y-119900000D03*
X122000000Y-117900000D03*
X121050000Y-119900000D03*
%TD*%
D19*
%TO.C,U4*%
X146600000Y-79900000D03*
X146600000Y-82200000D03*
X146600000Y-84500001D03*
D20*
X152900001Y-82200000D03*
%TD*%
D21*
%TO.C,D3*%
X144000000Y-97000000D03*
X145524000Y-97000000D03*
%TD*%
%TO.C,D2*%
X145000000Y-102500000D03*
X143476000Y-102500000D03*
%TD*%
D22*
%TO.C,D1*%
X141600000Y-124460000D03*
X141600000Y-120500000D03*
%TD*%
D17*
%TO.C,Q1*%
X123000000Y-123550000D03*
X121000000Y-124500000D03*
X123000000Y-125450000D03*
%TD*%
D16*
%TO.C,R11*%
X151600000Y-92900000D03*
X149400000Y-92900000D03*
%TD*%
D13*
%TO.C,R5*%
X146500000Y-105200000D03*
X146500000Y-103000000D03*
%TD*%
%TO.C,R4*%
X145300000Y-92500000D03*
X145300000Y-94700000D03*
%TD*%
D16*
%TO.C,R2*%
X125900000Y-121500000D03*
X128100000Y-121500000D03*
%TD*%
D23*
%TO.C,C4*%
X124800000Y-125450000D03*
X124800000Y-123550000D03*
%TD*%
D24*
%TO.C,J2*%
X148400000Y-102400000D03*
X148400000Y-101600000D03*
X148400000Y-100750000D03*
X148400000Y-102100000D03*
X148400000Y-101300000D03*
X148400000Y-100250000D03*
X148400000Y-97250000D03*
X148400000Y-96400000D03*
X148400000Y-95600000D03*
X148400000Y-95900000D03*
X148400000Y-96700000D03*
X148400000Y-97750000D03*
X148400000Y-98250000D03*
X148400000Y-98750000D03*
X148400000Y-99250000D03*
X148400000Y-99750000D03*
%TD*%
D25*
%TO.C,U3*%
X117850000Y-112850000D03*
X117850000Y-113800000D03*
X117850000Y-114750000D03*
X120550000Y-114750000D03*
X120550000Y-112850000D03*
X120550000Y-113800000D03*
%TD*%
D26*
%TO.C,U1*%
X107400001Y-117500000D03*
X105100001Y-117500000D03*
X102800000Y-117500000D03*
D27*
X105100001Y-123800001D03*
%TD*%
D28*
%TO.C,U2*%
X126700000Y-103250000D03*
X126700000Y-102750000D03*
X126700000Y-102250000D03*
X126700000Y-101750000D03*
X126700000Y-101250000D03*
X126700000Y-100750000D03*
X126700000Y-100250000D03*
X126700000Y-99750000D03*
X126700000Y-99250000D03*
X126700000Y-98750000D03*
X126700000Y-98250000D03*
X126700000Y-97750000D03*
X126700000Y-97250000D03*
X126700000Y-96750000D03*
X126700000Y-96250000D03*
X126700000Y-95750000D03*
D29*
X124750000Y-93800000D03*
X124250000Y-93800000D03*
X123750000Y-93800000D03*
X123250000Y-93800000D03*
X122750000Y-93800000D03*
X122250000Y-93800000D03*
X121750000Y-93800000D03*
X121250000Y-93800000D03*
X120750000Y-93800000D03*
X120250000Y-93800000D03*
X119750000Y-93800000D03*
X119250000Y-93800000D03*
X118750000Y-93800000D03*
X118250000Y-93800000D03*
X117750000Y-93800000D03*
X117250000Y-93800000D03*
D28*
X115300000Y-95750000D03*
X115300000Y-96250000D03*
X115300000Y-96750000D03*
X115300000Y-97250000D03*
X115300000Y-97750000D03*
X115300000Y-98250000D03*
X115300000Y-98750000D03*
X115300000Y-99250000D03*
X115300000Y-99750000D03*
X115300000Y-100250000D03*
X115300000Y-100750000D03*
X115300000Y-101250000D03*
X115300000Y-101750000D03*
X115300000Y-102250000D03*
X115300000Y-102750000D03*
X115300000Y-103250000D03*
D29*
X117250000Y-105200000D03*
X117750000Y-105200000D03*
X118250000Y-105200000D03*
X118750000Y-105200000D03*
X119250000Y-105200000D03*
X119750000Y-105200000D03*
X120250000Y-105200000D03*
X120750000Y-105200000D03*
X121250000Y-105200000D03*
X121750000Y-105200000D03*
X122250000Y-105200000D03*
X122750000Y-105200000D03*
X123250000Y-105200000D03*
X123750000Y-105200000D03*
X124250000Y-105200000D03*
X124750000Y-105200000D03*
%TD*%
D13*
%TO.C,R13*%
X124000000Y-114500000D03*
X124000000Y-112300000D03*
%TD*%
%TO.C,R12*%
X122500000Y-114500000D03*
X122500000Y-112300000D03*
%TD*%
D30*
%TO.C,F1*%
X135300000Y-116400000D03*
X135300000Y-123800000D03*
%TD*%
D13*
%TO.C,R17*%
X115800000Y-114700000D03*
X115800000Y-112500000D03*
%TD*%
D16*
%TO.C,R14*%
X117900000Y-111000000D03*
X120100000Y-111000000D03*
%TD*%
D13*
%TO.C,R10*%
X143800000Y-84500000D03*
X143800000Y-86700000D03*
%TD*%
%TO.C,R9*%
X106000000Y-81000000D03*
X106000000Y-78800000D03*
%TD*%
%TO.C,R8*%
X130600000Y-103500000D03*
X130600000Y-101300000D03*
%TD*%
D16*
%TO.C,R7*%
X143300000Y-99000000D03*
X145500000Y-99000000D03*
%TD*%
D13*
%TO.C,R16*%
X101000000Y-78800000D03*
X101000000Y-81000000D03*
%TD*%
%TO.C,R15*%
X103500000Y-78800000D03*
X103500000Y-81000000D03*
%TD*%
D16*
%TO.C,R6*%
X143300000Y-100500000D03*
X145500000Y-100500000D03*
%TD*%
D21*
%TO.C,FB3*%
X133862000Y-101300000D03*
X132338000Y-101300000D03*
%TD*%
%TO.C,FB2*%
X142100000Y-95100000D03*
X140576000Y-95100000D03*
%TD*%
D31*
%TO.C,FB1*%
X151600000Y-90500000D03*
X151600000Y-88976000D03*
%TD*%
D32*
%TO.C,C29*%
X139100000Y-96600000D03*
X141000000Y-96600000D03*
%TD*%
%TO.C,C27*%
X132650000Y-105100000D03*
X134550000Y-105100000D03*
%TD*%
%TO.C,C25*%
X149800000Y-88900000D03*
X147900000Y-88900000D03*
%TD*%
D23*
%TO.C,C23*%
X143800000Y-82750000D03*
X143800000Y-80850000D03*
%TD*%
%TO.C,C21*%
X127600000Y-107100000D03*
X127600000Y-109000000D03*
%TD*%
D32*
%TO.C,C20*%
X112710000Y-97790000D03*
X110810000Y-97790000D03*
%TD*%
%TO.C,C19*%
X129900000Y-97800000D03*
X131800000Y-97800000D03*
%TD*%
%TO.C,C18*%
X115150000Y-110400000D03*
X113250000Y-110400000D03*
%TD*%
D23*
%TO.C,C17*%
X110490000Y-100650000D03*
X110490000Y-102550000D03*
%TD*%
%TO.C,C16*%
X109100000Y-94500000D03*
X109100000Y-96400000D03*
%TD*%
%TO.C,C15*%
X128300000Y-93700000D03*
X128300000Y-91800000D03*
%TD*%
D32*
%TO.C,C14*%
X131300000Y-112300000D03*
X129400000Y-112300000D03*
%TD*%
%TO.C,C13*%
X134000000Y-112300000D03*
X135900000Y-112300000D03*
%TD*%
%TO.C,C12*%
X149800000Y-90400000D03*
X147900000Y-90400000D03*
%TD*%
%TO.C,C10*%
X110000000Y-105300000D03*
X108100000Y-105300000D03*
%TD*%
D23*
%TO.C,C8*%
X119400000Y-125500000D03*
X119400000Y-123600000D03*
%TD*%
%TO.C,C6*%
X109700000Y-120800000D03*
X109700000Y-118900000D03*
%TD*%
%TO.C,C3*%
X127000000Y-123500000D03*
X127000000Y-125400000D03*
%TD*%
%TO.C,C2*%
X128500000Y-123500000D03*
X128500000Y-125400000D03*
%TD*%
M02*
