%TF.GenerationSoftware,KiCad,Pcbnew,(5.1.6)-1*%
%TF.CreationDate,2020-10-01T20:42:35+02:00*%
%TF.ProjectId,Radioberry,52616469-6f62-4657-9272-792e6b696361,rev?*%
%TF.SameCoordinates,Original*%
%TF.FileFunction,Legend,Bot*%
%TF.FilePolarity,Positive*%
%FSLAX46Y46*%
G04 Gerber Fmt 4.6, Leading zero omitted, Abs format (unit mm)*
G04 Created by KiCad (PCBNEW (5.1.6)-1) date 2020-10-01 20:42:35*
%MOMM*%
%LPD*%
G01*
G04 APERTURE LIST*
%ADD10C,0.300000*%
%ADD11C,0.100000*%
%ADD12C,0.152400*%
%ADD13C,0.127000*%
G04 APERTURE END LIST*
D10*
X139194285Y-81738571D02*
X139694285Y-81024285D01*
X140051428Y-81738571D02*
X140051428Y-80238571D01*
X139480000Y-80238571D01*
X139337142Y-80310000D01*
X139265714Y-80381428D01*
X139194285Y-80524285D01*
X139194285Y-80738571D01*
X139265714Y-80881428D01*
X139337142Y-80952857D01*
X139480000Y-81024285D01*
X140051428Y-81024285D01*
X137908571Y-81738571D02*
X137908571Y-80952857D01*
X137980000Y-80810000D01*
X138122857Y-80738571D01*
X138408571Y-80738571D01*
X138551428Y-80810000D01*
X137908571Y-81667142D02*
X138051428Y-81738571D01*
X138408571Y-81738571D01*
X138551428Y-81667142D01*
X138622857Y-81524285D01*
X138622857Y-81381428D01*
X138551428Y-81238571D01*
X138408571Y-81167142D01*
X138051428Y-81167142D01*
X137908571Y-81095714D01*
X136551428Y-81738571D02*
X136551428Y-80238571D01*
X136551428Y-81667142D02*
X136694285Y-81738571D01*
X136980000Y-81738571D01*
X137122857Y-81667142D01*
X137194285Y-81595714D01*
X137265714Y-81452857D01*
X137265714Y-81024285D01*
X137194285Y-80881428D01*
X137122857Y-80810000D01*
X136980000Y-80738571D01*
X136694285Y-80738571D01*
X136551428Y-80810000D01*
X135837142Y-81738571D02*
X135837142Y-80738571D01*
X135837142Y-80238571D02*
X135908571Y-80310000D01*
X135837142Y-80381428D01*
X135765714Y-80310000D01*
X135837142Y-80238571D01*
X135837142Y-80381428D01*
X134908571Y-81738571D02*
X135051428Y-81667142D01*
X135122857Y-81595714D01*
X135194285Y-81452857D01*
X135194285Y-81024285D01*
X135122857Y-80881428D01*
X135051428Y-80810000D01*
X134908571Y-80738571D01*
X134694285Y-80738571D01*
X134551428Y-80810000D01*
X134480000Y-80881428D01*
X134408571Y-81024285D01*
X134408571Y-81452857D01*
X134480000Y-81595714D01*
X134551428Y-81667142D01*
X134694285Y-81738571D01*
X134908571Y-81738571D01*
X133765714Y-81738571D02*
X133765714Y-80238571D01*
X133765714Y-80810000D02*
X133622857Y-80738571D01*
X133337142Y-80738571D01*
X133194285Y-80810000D01*
X133122857Y-80881428D01*
X133051428Y-81024285D01*
X133051428Y-81452857D01*
X133122857Y-81595714D01*
X133194285Y-81667142D01*
X133337142Y-81738571D01*
X133622857Y-81738571D01*
X133765714Y-81667142D01*
X131837142Y-81667142D02*
X131980000Y-81738571D01*
X132265714Y-81738571D01*
X132408571Y-81667142D01*
X132480000Y-81524285D01*
X132480000Y-80952857D01*
X132408571Y-80810000D01*
X132265714Y-80738571D01*
X131980000Y-80738571D01*
X131837142Y-80810000D01*
X131765714Y-80952857D01*
X131765714Y-81095714D01*
X132480000Y-81238571D01*
X131122857Y-81738571D02*
X131122857Y-80738571D01*
X131122857Y-81024285D02*
X131051428Y-80881428D01*
X130980000Y-80810000D01*
X130837142Y-80738571D01*
X130694285Y-80738571D01*
X130194285Y-81738571D02*
X130194285Y-80738571D01*
X130194285Y-81024285D02*
X130122857Y-80881428D01*
X130051428Y-80810000D01*
X129908571Y-80738571D01*
X129765714Y-80738571D01*
X129408571Y-80738571D02*
X129051428Y-81738571D01*
X128694285Y-80738571D02*
X129051428Y-81738571D01*
X129194285Y-82095714D01*
X129265714Y-82167142D01*
X129408571Y-82238571D01*
X127194285Y-80238571D02*
X126694285Y-81738571D01*
X126194285Y-80238571D01*
X125765714Y-80381428D02*
X125694285Y-80310000D01*
X125551428Y-80238571D01*
X125194285Y-80238571D01*
X125051428Y-80310000D01*
X124980000Y-80381428D01*
X124908571Y-80524285D01*
X124908571Y-80667142D01*
X124980000Y-80881428D01*
X125837142Y-81738571D01*
X124908571Y-81738571D01*
X124265714Y-81595714D02*
X124194285Y-81667142D01*
X124265714Y-81738571D01*
X124337142Y-81667142D01*
X124265714Y-81595714D01*
X124265714Y-81738571D01*
X123265714Y-80238571D02*
X123122857Y-80238571D01*
X122980000Y-80310000D01*
X122908571Y-80381428D01*
X122837142Y-80524285D01*
X122765714Y-80810000D01*
X122765714Y-81167142D01*
X122837142Y-81452857D01*
X122908571Y-81595714D01*
X122980000Y-81667142D01*
X123122857Y-81738571D01*
X123265714Y-81738571D01*
X123408571Y-81667142D01*
X123480000Y-81595714D01*
X123551428Y-81452857D01*
X123622857Y-81167142D01*
X123622857Y-80810000D01*
X123551428Y-80524285D01*
X123480000Y-80381428D01*
X123408571Y-80310000D01*
X123265714Y-80238571D01*
X120980000Y-81738571D02*
X120980000Y-80238571D01*
X120980000Y-80810000D02*
X120837142Y-80738571D01*
X120551428Y-80738571D01*
X120408571Y-80810000D01*
X120337142Y-80881428D01*
X120265714Y-81024285D01*
X120265714Y-81452857D01*
X120337142Y-81595714D01*
X120408571Y-81667142D01*
X120551428Y-81738571D01*
X120837142Y-81738571D01*
X120980000Y-81667142D01*
X119051428Y-81667142D02*
X119194285Y-81738571D01*
X119480000Y-81738571D01*
X119622857Y-81667142D01*
X119694285Y-81524285D01*
X119694285Y-80952857D01*
X119622857Y-80810000D01*
X119480000Y-80738571D01*
X119194285Y-80738571D01*
X119051428Y-80810000D01*
X118980000Y-80952857D01*
X118980000Y-81095714D01*
X119694285Y-81238571D01*
X118551428Y-80738571D02*
X117980000Y-80738571D01*
X118337142Y-80238571D02*
X118337142Y-81524285D01*
X118265714Y-81667142D01*
X118122857Y-81738571D01*
X117980000Y-81738571D01*
X116837142Y-81738571D02*
X116837142Y-80952857D01*
X116908571Y-80810000D01*
X117051428Y-80738571D01*
X117337142Y-80738571D01*
X117480000Y-80810000D01*
X116837142Y-81667142D02*
X116980000Y-81738571D01*
X117337142Y-81738571D01*
X117480000Y-81667142D01*
X117551428Y-81524285D01*
X117551428Y-81381428D01*
X117480000Y-81238571D01*
X117337142Y-81167142D01*
X116980000Y-81167142D01*
X116837142Y-81095714D01*
X115480000Y-80738571D02*
X115480000Y-81738571D01*
X115837142Y-80167142D02*
X116194285Y-81238571D01*
X115265714Y-81238571D01*
D11*
%TO.C,C221*%
X126873000Y-101727000D02*
X129159000Y-101727000D01*
X129159000Y-101727000D02*
X129159000Y-100457000D01*
X129159000Y-100457000D02*
X126873000Y-100457000D01*
X126873000Y-100457000D02*
X126873000Y-101727000D01*
%TO.C,C222*%
X134239000Y-90297000D02*
X134239000Y-92583000D01*
X134239000Y-92583000D02*
X135509000Y-92583000D01*
X135509000Y-92583000D02*
X135509000Y-90297000D01*
X135509000Y-90297000D02*
X134239000Y-90297000D01*
%TO.C,C223*%
X134747000Y-107315000D02*
X134747000Y-105029000D01*
X134747000Y-105029000D02*
X133477000Y-105029000D01*
X133477000Y-105029000D02*
X133477000Y-107315000D01*
X133477000Y-107315000D02*
X134747000Y-107315000D01*
%TO.C,C224*%
X126873000Y-97663000D02*
X129159000Y-97663000D01*
X129159000Y-97663000D02*
X129159000Y-96393000D01*
X129159000Y-96393000D02*
X126873000Y-96393000D01*
X126873000Y-96393000D02*
X126873000Y-97663000D01*
%TO.C,C225*%
X132461000Y-107315000D02*
X132461000Y-105029000D01*
X132461000Y-105029000D02*
X131191000Y-105029000D01*
X131191000Y-105029000D02*
X131191000Y-107315000D01*
X131191000Y-107315000D02*
X132461000Y-107315000D01*
%TO.C,C226*%
X142113000Y-102235000D02*
X139827000Y-102235000D01*
X139827000Y-102235000D02*
X139827000Y-103505000D01*
X139827000Y-103505000D02*
X142113000Y-103505000D01*
X142113000Y-103505000D02*
X142113000Y-102235000D01*
%TO.C,C227*%
X140843000Y-91059000D02*
X143129000Y-91059000D01*
X143129000Y-91059000D02*
X143129000Y-89789000D01*
X143129000Y-89789000D02*
X140843000Y-89789000D01*
X140843000Y-89789000D02*
X140843000Y-91059000D01*
%TO.C,C228*%
X150753000Y-94025000D02*
X148467000Y-94025000D01*
X148467000Y-94025000D02*
X148467000Y-95295000D01*
X148467000Y-95295000D02*
X150753000Y-95295000D01*
X150753000Y-95295000D02*
X150753000Y-94025000D01*
%TO.C,C229*%
X142113000Y-98171000D02*
X139827000Y-98171000D01*
X139827000Y-98171000D02*
X139827000Y-99441000D01*
X139827000Y-99441000D02*
X142113000Y-99441000D01*
X142113000Y-99441000D02*
X142113000Y-98171000D01*
%TO.C,C230*%
X148697000Y-102015000D02*
X150983000Y-102015000D01*
X150983000Y-102015000D02*
X150983000Y-100745000D01*
X150983000Y-100745000D02*
X148697000Y-100745000D01*
X148697000Y-100745000D02*
X148697000Y-102015000D01*
%TO.C,C231*%
X142113000Y-100203000D02*
X139827000Y-100203000D01*
X139827000Y-100203000D02*
X139827000Y-101473000D01*
X139827000Y-101473000D02*
X142113000Y-101473000D01*
X142113000Y-101473000D02*
X142113000Y-100203000D01*
%TO.C,C232*%
X120983000Y-89585000D02*
X118697000Y-89585000D01*
X118697000Y-89585000D02*
X118697000Y-90855000D01*
X118697000Y-90855000D02*
X120983000Y-90855000D01*
X120983000Y-90855000D02*
X120983000Y-89585000D01*
%TO.C,C233*%
X118677000Y-108065000D02*
X120963000Y-108065000D01*
X120963000Y-108065000D02*
X120963000Y-106795000D01*
X120963000Y-106795000D02*
X118677000Y-106795000D01*
X118677000Y-106795000D02*
X118677000Y-108065000D01*
%TO.C,C234*%
X128651000Y-107315000D02*
X126365000Y-107315000D01*
X126365000Y-107315000D02*
X126365000Y-108585000D01*
X126365000Y-108585000D02*
X128651000Y-108585000D01*
X128651000Y-108585000D02*
X128651000Y-107315000D01*
%TO.C,C235*%
X126873000Y-103759000D02*
X129159000Y-103759000D01*
X129159000Y-103759000D02*
X129159000Y-102489000D01*
X129159000Y-102489000D02*
X126873000Y-102489000D01*
X126873000Y-102489000D02*
X126873000Y-103759000D01*
%TO.C,C236*%
X139319000Y-107315000D02*
X139319000Y-105029000D01*
X139319000Y-105029000D02*
X138049000Y-105029000D01*
X138049000Y-105029000D02*
X138049000Y-107315000D01*
X138049000Y-107315000D02*
X139319000Y-107315000D01*
%TO.C,C237*%
X142113000Y-96139000D02*
X139827000Y-96139000D01*
X139827000Y-96139000D02*
X139827000Y-97409000D01*
X139827000Y-97409000D02*
X142113000Y-97409000D01*
X142113000Y-97409000D02*
X142113000Y-96139000D01*
%TO.C,C238*%
X148727000Y-103995000D02*
X151013000Y-103995000D01*
X151013000Y-103995000D02*
X151013000Y-102725000D01*
X151013000Y-102725000D02*
X148727000Y-102725000D01*
X148727000Y-102725000D02*
X148727000Y-103995000D01*
%TO.C,C239*%
X151013000Y-104615000D02*
X148727000Y-104615000D01*
X148727000Y-104615000D02*
X148727000Y-105885000D01*
X148727000Y-105885000D02*
X151013000Y-105885000D01*
X151013000Y-105885000D02*
X151013000Y-104615000D01*
%TO.C,C240*%
X140589000Y-108331000D02*
X142875000Y-108331000D01*
X142875000Y-108331000D02*
X142875000Y-107061000D01*
X142875000Y-107061000D02*
X140589000Y-107061000D01*
X140589000Y-107061000D02*
X140589000Y-108331000D01*
%TO.C,C241*%
X126873000Y-99695000D02*
X129159000Y-99695000D01*
X129159000Y-99695000D02*
X129159000Y-98425000D01*
X129159000Y-98425000D02*
X126873000Y-98425000D01*
X126873000Y-98425000D02*
X126873000Y-99695000D01*
%TO.C,C242*%
X136271000Y-90297000D02*
X136271000Y-92583000D01*
X136271000Y-92583000D02*
X137541000Y-92583000D01*
X137541000Y-92583000D02*
X137541000Y-90297000D01*
X137541000Y-90297000D02*
X136271000Y-90297000D01*
%TO.C,C243*%
X137033000Y-107315000D02*
X137033000Y-105029000D01*
X137033000Y-105029000D02*
X135763000Y-105029000D01*
X135763000Y-105029000D02*
X135763000Y-107315000D01*
X135763000Y-107315000D02*
X137033000Y-107315000D01*
%TO.C,C244*%
X121003000Y-108525000D02*
X118717000Y-108525000D01*
X118717000Y-108525000D02*
X118717000Y-109795000D01*
X118717000Y-109795000D02*
X121003000Y-109795000D01*
X121003000Y-109795000D02*
X121003000Y-108525000D01*
%TO.C,C245*%
X118717000Y-88885000D02*
X121003000Y-88885000D01*
X121003000Y-88885000D02*
X121003000Y-87615000D01*
X121003000Y-87615000D02*
X118717000Y-87615000D01*
X118717000Y-87615000D02*
X118717000Y-88885000D01*
%TO.C,C246*%
X123405000Y-86757000D02*
X123405000Y-89043000D01*
X123405000Y-89043000D02*
X124675000Y-89043000D01*
X124675000Y-89043000D02*
X124675000Y-86757000D01*
X124675000Y-86757000D02*
X123405000Y-86757000D01*
%TO.C,C247*%
X148467000Y-93425000D02*
X150753000Y-93425000D01*
X150753000Y-93425000D02*
X150753000Y-92155000D01*
X150753000Y-92155000D02*
X148467000Y-92155000D01*
X148467000Y-92155000D02*
X148467000Y-93425000D01*
%TO.C,C248*%
X129195000Y-110007000D02*
X129195000Y-112293000D01*
X129195000Y-112293000D02*
X130465000Y-112293000D01*
X130465000Y-112293000D02*
X130465000Y-110007000D01*
X130465000Y-110007000D02*
X129195000Y-110007000D01*
%TO.C,C249*%
X138245000Y-109957000D02*
X138245000Y-112243000D01*
X138245000Y-112243000D02*
X139515000Y-112243000D01*
X139515000Y-112243000D02*
X139515000Y-109957000D01*
X139515000Y-109957000D02*
X138245000Y-109957000D01*
%TO.C,C250*%
X139065000Y-85217000D02*
X139065000Y-87503000D01*
X139065000Y-87503000D02*
X140335000Y-87503000D01*
X140335000Y-87503000D02*
X140335000Y-85217000D01*
X140335000Y-85217000D02*
X139065000Y-85217000D01*
%TO.C,C251*%
X131445000Y-85217000D02*
X131445000Y-87503000D01*
X131445000Y-87503000D02*
X132715000Y-87503000D01*
X132715000Y-87503000D02*
X132715000Y-85217000D01*
X132715000Y-85217000D02*
X131445000Y-85217000D01*
%TO.C,C252*%
X124053000Y-93765000D02*
X121767000Y-93765000D01*
X121767000Y-93765000D02*
X121767000Y-95035000D01*
X121767000Y-95035000D02*
X124053000Y-95035000D01*
X124053000Y-95035000D02*
X124053000Y-93765000D01*
%TO.C,C253*%
X124373000Y-99835000D02*
X122087000Y-99835000D01*
X122087000Y-99835000D02*
X122087000Y-101105000D01*
X122087000Y-101105000D02*
X124373000Y-101105000D01*
X124373000Y-101105000D02*
X124373000Y-99835000D01*
%TO.C,C254*%
X144907000Y-100965000D02*
X147193000Y-100965000D01*
X147193000Y-100965000D02*
X147193000Y-99695000D01*
X147193000Y-99695000D02*
X144907000Y-99695000D01*
X144907000Y-99695000D02*
X144907000Y-100965000D01*
%TO.C,C255*%
X144907000Y-95885000D02*
X147193000Y-95885000D01*
X147193000Y-95885000D02*
X147193000Y-94615000D01*
X147193000Y-94615000D02*
X144907000Y-94615000D01*
X144907000Y-94615000D02*
X144907000Y-95885000D01*
%TO.C,C256*%
X135255000Y-85217000D02*
X135255000Y-87503000D01*
X135255000Y-87503000D02*
X136525000Y-87503000D01*
X136525000Y-87503000D02*
X136525000Y-85217000D01*
X136525000Y-85217000D02*
X135255000Y-85217000D01*
%TO.C,C257*%
X128905000Y-85217000D02*
X128905000Y-87503000D01*
X128905000Y-87503000D02*
X130175000Y-87503000D01*
X130175000Y-87503000D02*
X130175000Y-85217000D01*
X130175000Y-85217000D02*
X128905000Y-85217000D01*
%TO.C,C258*%
X135575000Y-109997000D02*
X135575000Y-112283000D01*
X135575000Y-112283000D02*
X136845000Y-112283000D01*
X136845000Y-112283000D02*
X136845000Y-109997000D01*
X136845000Y-109997000D02*
X135575000Y-109997000D01*
%TO.C,C259*%
X140255000Y-109927000D02*
X140255000Y-112213000D01*
X140255000Y-112213000D02*
X141525000Y-112213000D01*
X141525000Y-112213000D02*
X141525000Y-109927000D01*
X141525000Y-109927000D02*
X140255000Y-109927000D01*
%TO.C,C418*%
X104287000Y-89585000D02*
X106573000Y-89585000D01*
X106573000Y-89585000D02*
X106573000Y-88315000D01*
X106573000Y-88315000D02*
X104287000Y-88315000D01*
X104287000Y-88315000D02*
X104287000Y-89585000D01*
%TO.C,C422*%
X104297000Y-91245000D02*
X106583000Y-91245000D01*
X106583000Y-91245000D02*
X106583000Y-89975000D01*
X106583000Y-89975000D02*
X104297000Y-89975000D01*
X104297000Y-89975000D02*
X104297000Y-91245000D01*
%TO.C,C426*%
X104297000Y-94655000D02*
X106583000Y-94655000D01*
X106583000Y-94655000D02*
X106583000Y-93385000D01*
X106583000Y-93385000D02*
X104297000Y-93385000D01*
X104297000Y-93385000D02*
X104297000Y-94655000D01*
%TO.C,C430*%
X104277000Y-87965000D02*
X106563000Y-87965000D01*
X106563000Y-87965000D02*
X106563000Y-86695000D01*
X106563000Y-86695000D02*
X104277000Y-86695000D01*
X104277000Y-86695000D02*
X104277000Y-87965000D01*
%TO.C,C434*%
X104287000Y-92895000D02*
X106573000Y-92895000D01*
X106573000Y-92895000D02*
X106573000Y-91625000D01*
X106573000Y-91625000D02*
X104287000Y-91625000D01*
X104287000Y-91625000D02*
X104287000Y-92895000D01*
%TO.C,FB201*%
X118687000Y-92725000D02*
X120973000Y-92725000D01*
X120973000Y-92725000D02*
X120973000Y-91455000D01*
X120973000Y-91455000D02*
X118687000Y-91455000D01*
X118687000Y-91455000D02*
X118687000Y-92725000D01*
%TO.C,FB202*%
X145007000Y-107145000D02*
X147293000Y-107145000D01*
X147293000Y-107145000D02*
X147293000Y-105875000D01*
X147293000Y-105875000D02*
X145007000Y-105875000D01*
X145007000Y-105875000D02*
X145007000Y-107145000D01*
%TO.C,FB203*%
X118627000Y-106335000D02*
X120913000Y-106335000D01*
X120913000Y-106335000D02*
X120913000Y-105065000D01*
X120913000Y-105065000D02*
X118627000Y-105065000D01*
X118627000Y-105065000D02*
X118627000Y-106335000D01*
%TO.C,FB204*%
X150723000Y-89655000D02*
X148437000Y-89655000D01*
X148437000Y-89655000D02*
X148437000Y-90925000D01*
X148437000Y-90925000D02*
X150723000Y-90925000D01*
X150723000Y-90925000D02*
X150723000Y-89655000D01*
%TO.C,FB205*%
X127605000Y-90437000D02*
X127605000Y-92723000D01*
X127605000Y-92723000D02*
X128875000Y-92723000D01*
X128875000Y-92723000D02*
X128875000Y-90437000D01*
X128875000Y-90437000D02*
X127605000Y-90437000D01*
%TO.C,FB206*%
X147243000Y-109015000D02*
X144957000Y-109015000D01*
X144957000Y-109015000D02*
X144957000Y-110285000D01*
X144957000Y-110285000D02*
X147243000Y-110285000D01*
X147243000Y-110285000D02*
X147243000Y-109015000D01*
%TO.C,FB207*%
X121957000Y-110285000D02*
X124243000Y-110285000D01*
X124243000Y-110285000D02*
X124243000Y-109015000D01*
X124243000Y-109015000D02*
X121957000Y-109015000D01*
X121957000Y-109015000D02*
X121957000Y-110285000D01*
%TO.C,FB208*%
X147143000Y-87815000D02*
X144857000Y-87815000D01*
X144857000Y-87815000D02*
X144857000Y-89085000D01*
X144857000Y-89085000D02*
X147143000Y-89085000D01*
X147143000Y-89085000D02*
X147143000Y-87815000D01*
%TO.C,FB403*%
X102875000Y-95027000D02*
X102875000Y-97313000D01*
X102875000Y-97313000D02*
X104145000Y-97313000D01*
X104145000Y-97313000D02*
X104145000Y-95027000D01*
X104145000Y-95027000D02*
X102875000Y-95027000D01*
%TO.C,R301*%
X116333000Y-78365000D02*
X114047000Y-78365000D01*
X114047000Y-78365000D02*
X114047000Y-79635000D01*
X114047000Y-79635000D02*
X116333000Y-79635000D01*
X116333000Y-79635000D02*
X116333000Y-78365000D01*
%TO.C,R302*%
X143603000Y-77805000D02*
X141317000Y-77805000D01*
X141317000Y-77805000D02*
X141317000Y-79075000D01*
X141317000Y-79075000D02*
X143603000Y-79075000D01*
X143603000Y-79075000D02*
X143603000Y-77805000D01*
%TO.C,R303*%
X124385000Y-120643000D02*
X124385000Y-118357000D01*
X124385000Y-118357000D02*
X123115000Y-118357000D01*
X123115000Y-118357000D02*
X123115000Y-120643000D01*
X123115000Y-120643000D02*
X124385000Y-120643000D01*
%TO.C,R304*%
X126385000Y-120643000D02*
X126385000Y-118357000D01*
X126385000Y-118357000D02*
X125115000Y-118357000D01*
X125115000Y-118357000D02*
X125115000Y-120643000D01*
X125115000Y-120643000D02*
X126385000Y-120643000D01*
%TO.C,R305*%
X132885000Y-120643000D02*
X132885000Y-118357000D01*
X132885000Y-118357000D02*
X131615000Y-118357000D01*
X131615000Y-118357000D02*
X131615000Y-120643000D01*
X131615000Y-120643000D02*
X132885000Y-120643000D01*
%TO.C,R306*%
X134885000Y-120643000D02*
X134885000Y-118357000D01*
X134885000Y-118357000D02*
X133615000Y-118357000D01*
X133615000Y-118357000D02*
X133615000Y-120643000D01*
X133615000Y-120643000D02*
X134885000Y-120643000D01*
D12*
%TO.C,CN302*%
X97100000Y-76405000D02*
X97735000Y-77040000D01*
X97735000Y-77040000D02*
X99005000Y-77040000D01*
X99005000Y-77040000D02*
X99640000Y-76405000D01*
X99640000Y-76405000D02*
X100275000Y-77040000D01*
X100275000Y-77040000D02*
X101545000Y-77040000D01*
X101545000Y-77040000D02*
X102180000Y-76405000D01*
X102180000Y-76405000D02*
X102815000Y-77040000D01*
X102815000Y-77040000D02*
X104085000Y-77040000D01*
X104085000Y-77040000D02*
X104720000Y-76405000D01*
X104720000Y-76405000D02*
X105355000Y-77040000D01*
X105355000Y-77040000D02*
X106625000Y-77040000D01*
X106625000Y-77040000D02*
X107260000Y-76405000D01*
X107260000Y-76405000D02*
X107895000Y-77040000D01*
X107895000Y-77040000D02*
X109165000Y-77040000D01*
X109165000Y-77040000D02*
X109800000Y-76405000D01*
X109800000Y-76405000D02*
X110435000Y-77040000D01*
X110435000Y-77040000D02*
X111705000Y-77040000D01*
X111705000Y-77040000D02*
X112340000Y-76405000D01*
X97100000Y-76405000D02*
X97100000Y-72595000D01*
X97100000Y-72595000D02*
X97735000Y-71960000D01*
X97735000Y-71960000D02*
X99005000Y-71960000D01*
X99005000Y-71960000D02*
X99640000Y-72595000D01*
X99640000Y-72595000D02*
X100275000Y-71960000D01*
X100275000Y-71960000D02*
X101545000Y-71960000D01*
X101545000Y-71960000D02*
X102180000Y-72595000D01*
X102180000Y-72595000D02*
X102815000Y-71960000D01*
X102815000Y-71960000D02*
X104085000Y-71960000D01*
X104085000Y-71960000D02*
X104720000Y-72595000D01*
X104720000Y-72595000D02*
X105355000Y-71960000D01*
X105355000Y-71960000D02*
X106625000Y-71960000D01*
X106625000Y-71960000D02*
X107260000Y-72595000D01*
X107260000Y-72595000D02*
X107895000Y-71960000D01*
X107895000Y-71960000D02*
X109165000Y-71960000D01*
X109165000Y-71960000D02*
X109800000Y-72595000D01*
X109800000Y-72595000D02*
X110435000Y-71960000D01*
X110435000Y-71960000D02*
X111705000Y-71960000D01*
X111705000Y-71960000D02*
X112340000Y-72595000D01*
X112340000Y-72595000D02*
X112975000Y-71960000D01*
X112975000Y-71960000D02*
X114245000Y-71960000D01*
X114245000Y-71960000D02*
X114880000Y-72595000D01*
X114880000Y-72595000D02*
X115515000Y-71960000D01*
X115515000Y-71960000D02*
X116785000Y-71960000D01*
X116785000Y-71960000D02*
X117420000Y-72595000D01*
X117420000Y-72595000D02*
X118055000Y-71960000D01*
X118055000Y-71960000D02*
X119325000Y-71960000D01*
X119325000Y-71960000D02*
X119960000Y-72595000D01*
X119960000Y-72595000D02*
X120595000Y-71960000D01*
X120595000Y-71960000D02*
X121865000Y-71960000D01*
X121865000Y-71960000D02*
X122500000Y-72595000D01*
X122500000Y-72595000D02*
X123135000Y-71960000D01*
X123135000Y-71960000D02*
X124405000Y-71960000D01*
X124405000Y-71960000D02*
X125040000Y-72595000D01*
X125040000Y-72595000D02*
X125675000Y-71960000D01*
X125675000Y-71960000D02*
X126945000Y-71960000D01*
X127580000Y-72595000D02*
X126945000Y-71960000D01*
X127580000Y-72595000D02*
X128215000Y-71960000D01*
X129485000Y-71960000D02*
X128215000Y-71960000D01*
X129485000Y-71960000D02*
X130120000Y-72595000D01*
X130120000Y-72595000D02*
X130755000Y-71960000D01*
X132025000Y-71960000D02*
X130755000Y-71960000D01*
X132025000Y-71960000D02*
X132660000Y-72595000D01*
X132660000Y-72595000D02*
X133295000Y-71960000D01*
X134565000Y-71960000D02*
X133295000Y-71960000D01*
X134565000Y-71960000D02*
X135200000Y-72595000D01*
X135200000Y-72595000D02*
X135835000Y-71960000D01*
X137105000Y-71960000D02*
X135835000Y-71960000D01*
X137105000Y-71960000D02*
X137740000Y-72595000D01*
X137740000Y-72595000D02*
X138375000Y-71960000D01*
X139645000Y-71960000D02*
X138375000Y-71960000D01*
X139645000Y-71960000D02*
X140280000Y-72595000D01*
X140280000Y-72595000D02*
X140915000Y-71960000D01*
X142185000Y-71960000D02*
X140915000Y-71960000D01*
X142185000Y-71960000D02*
X142820000Y-72595000D01*
X142820000Y-72595000D02*
X143455000Y-71960000D01*
X144725000Y-71960000D02*
X143455000Y-71960000D01*
X144725000Y-71960000D02*
X145360000Y-72595000D01*
X145360000Y-76405000D02*
X144725000Y-77040000D01*
X144725000Y-77040000D02*
X143455000Y-77040000D01*
X142820000Y-76405000D02*
X143455000Y-77040000D01*
X142820000Y-76405000D02*
X142185000Y-77040000D01*
X142185000Y-77040000D02*
X140915000Y-77040000D01*
X140280000Y-76405000D02*
X140915000Y-77040000D01*
X140280000Y-76405000D02*
X139645000Y-77040000D01*
X139645000Y-77040000D02*
X138375000Y-77040000D01*
X137740000Y-76405000D02*
X138375000Y-77040000D01*
X137740000Y-76405000D02*
X137105000Y-77040000D01*
X135835000Y-77040000D02*
X137105000Y-77040000D01*
X135835000Y-77040000D02*
X135200000Y-76405000D01*
X135200000Y-76405000D02*
X134565000Y-77040000D01*
X133295000Y-77040000D02*
X134565000Y-77040000D01*
X133295000Y-77040000D02*
X132660000Y-76405000D01*
X132660000Y-76405000D02*
X132025000Y-77040000D01*
X132025000Y-77040000D02*
X130755000Y-77040000D01*
X130120000Y-76405000D02*
X130755000Y-77040000D01*
X130120000Y-76405000D02*
X129485000Y-77040000D01*
X129485000Y-77040000D02*
X128215000Y-77040000D01*
X127580000Y-76405000D02*
X128215000Y-77040000D01*
X127580000Y-76405000D02*
X126945000Y-77040000D01*
X126945000Y-77040000D02*
X125675000Y-77040000D01*
X125040000Y-76405000D02*
X125675000Y-77040000D01*
X125040000Y-76405000D02*
X124405000Y-77040000D01*
X124405000Y-77040000D02*
X123135000Y-77040000D01*
X122500000Y-76405000D02*
X123135000Y-77040000D01*
X122500000Y-76405000D02*
X121865000Y-77040000D01*
X121865000Y-77040000D02*
X120595000Y-77040000D01*
X119960000Y-76405000D02*
X120595000Y-77040000D01*
X119960000Y-76405000D02*
X119325000Y-77040000D01*
X119325000Y-77040000D02*
X118055000Y-77040000D01*
X117420000Y-76405000D02*
X118055000Y-77040000D01*
X117420000Y-76405000D02*
X116785000Y-77040000D01*
X116785000Y-77040000D02*
X115515000Y-77040000D01*
X114880000Y-76405000D02*
X115515000Y-77040000D01*
X114880000Y-76405000D02*
X114245000Y-77040000D01*
X114245000Y-77040000D02*
X112975000Y-77040000D01*
X112340000Y-76405000D02*
X112975000Y-77040000D01*
X99640000Y-72595000D02*
X99640000Y-76405000D01*
X102180000Y-72595000D02*
X102180000Y-76405000D01*
X104720000Y-72595000D02*
X104720000Y-76405000D01*
X107260000Y-72595000D02*
X107260000Y-76405000D01*
X109800000Y-72595000D02*
X109800000Y-76405000D01*
X112340000Y-72595000D02*
X112340000Y-76405000D01*
X114880000Y-72595000D02*
X114880000Y-76405000D01*
X117420000Y-72595000D02*
X117420000Y-76405000D01*
X119960000Y-72595000D02*
X119960000Y-76405000D01*
X122500000Y-72595000D02*
X122500000Y-76405000D01*
X125040000Y-72595000D02*
X125040000Y-76405000D01*
X127580000Y-72595000D02*
X127580000Y-76405000D01*
X130120000Y-72595000D02*
X130120000Y-76405000D01*
X132660000Y-72595000D02*
X132660000Y-76405000D01*
X135200000Y-72595000D02*
X135200000Y-76405000D01*
X137740000Y-72595000D02*
X137740000Y-76405000D01*
X140280000Y-72595000D02*
X140280000Y-76405000D01*
X142820000Y-72595000D02*
X142820000Y-76405000D01*
X145360000Y-72595000D02*
X145360000Y-76405000D01*
X145360000Y-72595000D02*
X145995000Y-71960000D01*
X147265000Y-71960000D02*
X145995000Y-71960000D01*
X147265000Y-71960000D02*
X147900000Y-72595000D01*
X147900000Y-76405000D02*
X147265000Y-77040000D01*
X147265000Y-77040000D02*
X145995000Y-77040000D01*
X145360000Y-76405000D02*
X145995000Y-77040000D01*
X147900000Y-72595000D02*
X147900000Y-76405000D01*
D11*
G36*
X98116000Y-76024000D02*
G01*
X98624000Y-76024000D01*
X98624000Y-75516000D01*
X98116000Y-75516000D01*
X98116000Y-76024000D01*
G37*
G36*
X98116000Y-73484000D02*
G01*
X98624000Y-73484000D01*
X98624000Y-72976000D01*
X98116000Y-72976000D01*
X98116000Y-73484000D01*
G37*
G36*
X100656000Y-73484000D02*
G01*
X101164000Y-73484000D01*
X101164000Y-72976000D01*
X100656000Y-72976000D01*
X100656000Y-73484000D01*
G37*
G36*
X100656000Y-76024000D02*
G01*
X101164000Y-76024000D01*
X101164000Y-75516000D01*
X100656000Y-75516000D01*
X100656000Y-76024000D01*
G37*
G36*
X103196000Y-73484000D02*
G01*
X103704000Y-73484000D01*
X103704000Y-72976000D01*
X103196000Y-72976000D01*
X103196000Y-73484000D01*
G37*
G36*
X103196000Y-76024000D02*
G01*
X103704000Y-76024000D01*
X103704000Y-75516000D01*
X103196000Y-75516000D01*
X103196000Y-76024000D01*
G37*
G36*
X105736000Y-73484000D02*
G01*
X106244000Y-73484000D01*
X106244000Y-72976000D01*
X105736000Y-72976000D01*
X105736000Y-73484000D01*
G37*
G36*
X108276000Y-73484000D02*
G01*
X108784000Y-73484000D01*
X108784000Y-72976000D01*
X108276000Y-72976000D01*
X108276000Y-73484000D01*
G37*
G36*
X110816000Y-73484000D02*
G01*
X111324000Y-73484000D01*
X111324000Y-72976000D01*
X110816000Y-72976000D01*
X110816000Y-73484000D01*
G37*
G36*
X105736000Y-76024000D02*
G01*
X106244000Y-76024000D01*
X106244000Y-75516000D01*
X105736000Y-75516000D01*
X105736000Y-76024000D01*
G37*
G36*
X108276000Y-76024000D02*
G01*
X108784000Y-76024000D01*
X108784000Y-75516000D01*
X108276000Y-75516000D01*
X108276000Y-76024000D01*
G37*
G36*
X110816000Y-76024000D02*
G01*
X111324000Y-76024000D01*
X111324000Y-75516000D01*
X110816000Y-75516000D01*
X110816000Y-76024000D01*
G37*
G36*
X113356000Y-73484000D02*
G01*
X113864000Y-73484000D01*
X113864000Y-72976000D01*
X113356000Y-72976000D01*
X113356000Y-73484000D01*
G37*
G36*
X113356000Y-76024000D02*
G01*
X113864000Y-76024000D01*
X113864000Y-75516000D01*
X113356000Y-75516000D01*
X113356000Y-76024000D01*
G37*
G36*
X115896000Y-73484000D02*
G01*
X116404000Y-73484000D01*
X116404000Y-72976000D01*
X115896000Y-72976000D01*
X115896000Y-73484000D01*
G37*
G36*
X115896000Y-76024000D02*
G01*
X116404000Y-76024000D01*
X116404000Y-75516000D01*
X115896000Y-75516000D01*
X115896000Y-76024000D01*
G37*
G36*
X118436000Y-73484000D02*
G01*
X118944000Y-73484000D01*
X118944000Y-72976000D01*
X118436000Y-72976000D01*
X118436000Y-73484000D01*
G37*
G36*
X118436000Y-76024000D02*
G01*
X118944000Y-76024000D01*
X118944000Y-75516000D01*
X118436000Y-75516000D01*
X118436000Y-76024000D01*
G37*
G36*
X120976000Y-73484000D02*
G01*
X121484000Y-73484000D01*
X121484000Y-72976000D01*
X120976000Y-72976000D01*
X120976000Y-73484000D01*
G37*
G36*
X120976000Y-76024000D02*
G01*
X121484000Y-76024000D01*
X121484000Y-75516000D01*
X120976000Y-75516000D01*
X120976000Y-76024000D01*
G37*
G36*
X123516000Y-73484000D02*
G01*
X124024000Y-73484000D01*
X124024000Y-72976000D01*
X123516000Y-72976000D01*
X123516000Y-73484000D01*
G37*
G36*
X123516000Y-76024000D02*
G01*
X124024000Y-76024000D01*
X124024000Y-75516000D01*
X123516000Y-75516000D01*
X123516000Y-76024000D01*
G37*
G36*
X126056000Y-73484000D02*
G01*
X126564000Y-73484000D01*
X126564000Y-72976000D01*
X126056000Y-72976000D01*
X126056000Y-73484000D01*
G37*
G36*
X126056000Y-76024000D02*
G01*
X126564000Y-76024000D01*
X126564000Y-75516000D01*
X126056000Y-75516000D01*
X126056000Y-76024000D01*
G37*
G36*
X128596000Y-73484000D02*
G01*
X129104000Y-73484000D01*
X129104000Y-72976000D01*
X128596000Y-72976000D01*
X128596000Y-73484000D01*
G37*
G36*
X128596000Y-76024000D02*
G01*
X129104000Y-76024000D01*
X129104000Y-75516000D01*
X128596000Y-75516000D01*
X128596000Y-76024000D01*
G37*
G36*
X131136000Y-73484000D02*
G01*
X131644000Y-73484000D01*
X131644000Y-72976000D01*
X131136000Y-72976000D01*
X131136000Y-73484000D01*
G37*
G36*
X131136000Y-76024000D02*
G01*
X131644000Y-76024000D01*
X131644000Y-75516000D01*
X131136000Y-75516000D01*
X131136000Y-76024000D01*
G37*
G36*
X133676000Y-73484000D02*
G01*
X134184000Y-73484000D01*
X134184000Y-72976000D01*
X133676000Y-72976000D01*
X133676000Y-73484000D01*
G37*
G36*
X133676000Y-76024000D02*
G01*
X134184000Y-76024000D01*
X134184000Y-75516000D01*
X133676000Y-75516000D01*
X133676000Y-76024000D01*
G37*
G36*
X136216000Y-73484000D02*
G01*
X136724000Y-73484000D01*
X136724000Y-72976000D01*
X136216000Y-72976000D01*
X136216000Y-73484000D01*
G37*
G36*
X136216000Y-76024000D02*
G01*
X136724000Y-76024000D01*
X136724000Y-75516000D01*
X136216000Y-75516000D01*
X136216000Y-76024000D01*
G37*
G36*
X138756000Y-73484000D02*
G01*
X139264000Y-73484000D01*
X139264000Y-72976000D01*
X138756000Y-72976000D01*
X138756000Y-73484000D01*
G37*
G36*
X138756000Y-76024000D02*
G01*
X139264000Y-76024000D01*
X139264000Y-75516000D01*
X138756000Y-75516000D01*
X138756000Y-76024000D01*
G37*
G36*
X141296000Y-73484000D02*
G01*
X141804000Y-73484000D01*
X141804000Y-72976000D01*
X141296000Y-72976000D01*
X141296000Y-73484000D01*
G37*
G36*
X141296000Y-76024000D02*
G01*
X141804000Y-76024000D01*
X141804000Y-75516000D01*
X141296000Y-75516000D01*
X141296000Y-76024000D01*
G37*
G36*
X143836000Y-73484000D02*
G01*
X144344000Y-73484000D01*
X144344000Y-72976000D01*
X143836000Y-72976000D01*
X143836000Y-73484000D01*
G37*
G36*
X143836000Y-76024000D02*
G01*
X144344000Y-76024000D01*
X144344000Y-75516000D01*
X143836000Y-75516000D01*
X143836000Y-76024000D01*
G37*
G36*
X146376000Y-73484000D02*
G01*
X146884000Y-73484000D01*
X146884000Y-72976000D01*
X146376000Y-72976000D01*
X146376000Y-73484000D01*
G37*
G36*
X146376000Y-76024000D02*
G01*
X146884000Y-76024000D01*
X146884000Y-75516000D01*
X146376000Y-75516000D01*
X146376000Y-76024000D01*
G37*
%TO.C,R307*%
X128635000Y-120643000D02*
X128635000Y-118357000D01*
X128635000Y-118357000D02*
X127365000Y-118357000D01*
X127365000Y-118357000D02*
X127365000Y-120643000D01*
X127365000Y-120643000D02*
X128635000Y-120643000D01*
%TO.C,R308*%
X130635000Y-120643000D02*
X130635000Y-118357000D01*
X130635000Y-118357000D02*
X129365000Y-118357000D01*
X129365000Y-118357000D02*
X129365000Y-120643000D01*
X129365000Y-120643000D02*
X130635000Y-120643000D01*
%TO.C,C221*%
X126145238Y-102185714D02*
X126183333Y-102223809D01*
X126297619Y-102261904D01*
X126373809Y-102261904D01*
X126488095Y-102223809D01*
X126564285Y-102147619D01*
X126602380Y-102071428D01*
X126640476Y-101919047D01*
X126640476Y-101804761D01*
X126602380Y-101652380D01*
X126564285Y-101576190D01*
X126488095Y-101500000D01*
X126373809Y-101461904D01*
X126297619Y-101461904D01*
X126183333Y-101500000D01*
X126145238Y-101538095D01*
X125840476Y-101538095D02*
X125802380Y-101500000D01*
X125726190Y-101461904D01*
X125535714Y-101461904D01*
X125459523Y-101500000D01*
X125421428Y-101538095D01*
X125383333Y-101614285D01*
X125383333Y-101690476D01*
X125421428Y-101804761D01*
X125878571Y-102261904D01*
X125383333Y-102261904D01*
X125078571Y-101538095D02*
X125040476Y-101500000D01*
X124964285Y-101461904D01*
X124773809Y-101461904D01*
X124697619Y-101500000D01*
X124659523Y-101538095D01*
X124621428Y-101614285D01*
X124621428Y-101690476D01*
X124659523Y-101804761D01*
X125116666Y-102261904D01*
X124621428Y-102261904D01*
X123859523Y-102261904D02*
X124316666Y-102261904D01*
X124088095Y-102261904D02*
X124088095Y-101461904D01*
X124164285Y-101576190D01*
X124240476Y-101652380D01*
X124316666Y-101690476D01*
%TO.C,C222*%
X133685714Y-90504761D02*
X133723809Y-90466666D01*
X133761904Y-90352380D01*
X133761904Y-90276190D01*
X133723809Y-90161904D01*
X133647619Y-90085714D01*
X133571428Y-90047619D01*
X133419047Y-90009523D01*
X133304761Y-90009523D01*
X133152380Y-90047619D01*
X133076190Y-90085714D01*
X133000000Y-90161904D01*
X132961904Y-90276190D01*
X132961904Y-90352380D01*
X133000000Y-90466666D01*
X133038095Y-90504761D01*
X133038095Y-90809523D02*
X133000000Y-90847619D01*
X132961904Y-90923809D01*
X132961904Y-91114285D01*
X133000000Y-91190476D01*
X133038095Y-91228571D01*
X133114285Y-91266666D01*
X133190476Y-91266666D01*
X133304761Y-91228571D01*
X133761904Y-90771428D01*
X133761904Y-91266666D01*
X133038095Y-91571428D02*
X133000000Y-91609523D01*
X132961904Y-91685714D01*
X132961904Y-91876190D01*
X133000000Y-91952380D01*
X133038095Y-91990476D01*
X133114285Y-92028571D01*
X133190476Y-92028571D01*
X133304761Y-91990476D01*
X133761904Y-91533333D01*
X133761904Y-92028571D01*
X133038095Y-92333333D02*
X133000000Y-92371428D01*
X132961904Y-92447619D01*
X132961904Y-92638095D01*
X133000000Y-92714285D01*
X133038095Y-92752380D01*
X133114285Y-92790476D01*
X133190476Y-92790476D01*
X133304761Y-92752380D01*
X133761904Y-92295238D01*
X133761904Y-92790476D01*
%TO.C,C223*%
X134545238Y-108685714D02*
X134583333Y-108723809D01*
X134697619Y-108761904D01*
X134773809Y-108761904D01*
X134888095Y-108723809D01*
X134964285Y-108647619D01*
X135002380Y-108571428D01*
X135040476Y-108419047D01*
X135040476Y-108304761D01*
X135002380Y-108152380D01*
X134964285Y-108076190D01*
X134888095Y-108000000D01*
X134773809Y-107961904D01*
X134697619Y-107961904D01*
X134583333Y-108000000D01*
X134545238Y-108038095D01*
X134240476Y-108038095D02*
X134202380Y-108000000D01*
X134126190Y-107961904D01*
X133935714Y-107961904D01*
X133859523Y-108000000D01*
X133821428Y-108038095D01*
X133783333Y-108114285D01*
X133783333Y-108190476D01*
X133821428Y-108304761D01*
X134278571Y-108761904D01*
X133783333Y-108761904D01*
X133478571Y-108038095D02*
X133440476Y-108000000D01*
X133364285Y-107961904D01*
X133173809Y-107961904D01*
X133097619Y-108000000D01*
X133059523Y-108038095D01*
X133021428Y-108114285D01*
X133021428Y-108190476D01*
X133059523Y-108304761D01*
X133516666Y-108761904D01*
X133021428Y-108761904D01*
X132754761Y-107961904D02*
X132259523Y-107961904D01*
X132526190Y-108266666D01*
X132411904Y-108266666D01*
X132335714Y-108304761D01*
X132297619Y-108342857D01*
X132259523Y-108419047D01*
X132259523Y-108609523D01*
X132297619Y-108685714D01*
X132335714Y-108723809D01*
X132411904Y-108761904D01*
X132640476Y-108761904D01*
X132716666Y-108723809D01*
X132754761Y-108685714D01*
%TO.C,C224*%
X129045238Y-95835714D02*
X129083333Y-95873809D01*
X129197619Y-95911904D01*
X129273809Y-95911904D01*
X129388095Y-95873809D01*
X129464285Y-95797619D01*
X129502380Y-95721428D01*
X129540476Y-95569047D01*
X129540476Y-95454761D01*
X129502380Y-95302380D01*
X129464285Y-95226190D01*
X129388095Y-95150000D01*
X129273809Y-95111904D01*
X129197619Y-95111904D01*
X129083333Y-95150000D01*
X129045238Y-95188095D01*
X128740476Y-95188095D02*
X128702380Y-95150000D01*
X128626190Y-95111904D01*
X128435714Y-95111904D01*
X128359523Y-95150000D01*
X128321428Y-95188095D01*
X128283333Y-95264285D01*
X128283333Y-95340476D01*
X128321428Y-95454761D01*
X128778571Y-95911904D01*
X128283333Y-95911904D01*
X127978571Y-95188095D02*
X127940476Y-95150000D01*
X127864285Y-95111904D01*
X127673809Y-95111904D01*
X127597619Y-95150000D01*
X127559523Y-95188095D01*
X127521428Y-95264285D01*
X127521428Y-95340476D01*
X127559523Y-95454761D01*
X128016666Y-95911904D01*
X127521428Y-95911904D01*
X126835714Y-95378571D02*
X126835714Y-95911904D01*
X127026190Y-95073809D02*
X127216666Y-95645238D01*
X126721428Y-95645238D01*
%TO.C,C225*%
X132085714Y-102254761D02*
X132123809Y-102216666D01*
X132161904Y-102102380D01*
X132161904Y-102026190D01*
X132123809Y-101911904D01*
X132047619Y-101835714D01*
X131971428Y-101797619D01*
X131819047Y-101759523D01*
X131704761Y-101759523D01*
X131552380Y-101797619D01*
X131476190Y-101835714D01*
X131400000Y-101911904D01*
X131361904Y-102026190D01*
X131361904Y-102102380D01*
X131400000Y-102216666D01*
X131438095Y-102254761D01*
X131438095Y-102559523D02*
X131400000Y-102597619D01*
X131361904Y-102673809D01*
X131361904Y-102864285D01*
X131400000Y-102940476D01*
X131438095Y-102978571D01*
X131514285Y-103016666D01*
X131590476Y-103016666D01*
X131704761Y-102978571D01*
X132161904Y-102521428D01*
X132161904Y-103016666D01*
X131438095Y-103321428D02*
X131400000Y-103359523D01*
X131361904Y-103435714D01*
X131361904Y-103626190D01*
X131400000Y-103702380D01*
X131438095Y-103740476D01*
X131514285Y-103778571D01*
X131590476Y-103778571D01*
X131704761Y-103740476D01*
X132161904Y-103283333D01*
X132161904Y-103778571D01*
X131361904Y-104502380D02*
X131361904Y-104121428D01*
X131742857Y-104083333D01*
X131704761Y-104121428D01*
X131666666Y-104197619D01*
X131666666Y-104388095D01*
X131704761Y-104464285D01*
X131742857Y-104502380D01*
X131819047Y-104540476D01*
X132009523Y-104540476D01*
X132085714Y-104502380D01*
X132123809Y-104464285D01*
X132161904Y-104388095D01*
X132161904Y-104197619D01*
X132123809Y-104121428D01*
X132085714Y-104083333D01*
%TO.C,C226*%
X143345238Y-104585714D02*
X143383333Y-104623809D01*
X143497619Y-104661904D01*
X143573809Y-104661904D01*
X143688095Y-104623809D01*
X143764285Y-104547619D01*
X143802380Y-104471428D01*
X143840476Y-104319047D01*
X143840476Y-104204761D01*
X143802380Y-104052380D01*
X143764285Y-103976190D01*
X143688095Y-103900000D01*
X143573809Y-103861904D01*
X143497619Y-103861904D01*
X143383333Y-103900000D01*
X143345238Y-103938095D01*
X143040476Y-103938095D02*
X143002380Y-103900000D01*
X142926190Y-103861904D01*
X142735714Y-103861904D01*
X142659523Y-103900000D01*
X142621428Y-103938095D01*
X142583333Y-104014285D01*
X142583333Y-104090476D01*
X142621428Y-104204761D01*
X143078571Y-104661904D01*
X142583333Y-104661904D01*
X142278571Y-103938095D02*
X142240476Y-103900000D01*
X142164285Y-103861904D01*
X141973809Y-103861904D01*
X141897619Y-103900000D01*
X141859523Y-103938095D01*
X141821428Y-104014285D01*
X141821428Y-104090476D01*
X141859523Y-104204761D01*
X142316666Y-104661904D01*
X141821428Y-104661904D01*
X141135714Y-103861904D02*
X141288095Y-103861904D01*
X141364285Y-103900000D01*
X141402380Y-103938095D01*
X141478571Y-104052380D01*
X141516666Y-104204761D01*
X141516666Y-104509523D01*
X141478571Y-104585714D01*
X141440476Y-104623809D01*
X141364285Y-104661904D01*
X141211904Y-104661904D01*
X141135714Y-104623809D01*
X141097619Y-104585714D01*
X141059523Y-104509523D01*
X141059523Y-104319047D01*
X141097619Y-104242857D01*
X141135714Y-104204761D01*
X141211904Y-104166666D01*
X141364285Y-104166666D01*
X141440476Y-104204761D01*
X141478571Y-104242857D01*
X141516666Y-104319047D01*
%TO.C,C227*%
X142945238Y-92335714D02*
X142983333Y-92373809D01*
X143097619Y-92411904D01*
X143173809Y-92411904D01*
X143288095Y-92373809D01*
X143364285Y-92297619D01*
X143402380Y-92221428D01*
X143440476Y-92069047D01*
X143440476Y-91954761D01*
X143402380Y-91802380D01*
X143364285Y-91726190D01*
X143288095Y-91650000D01*
X143173809Y-91611904D01*
X143097619Y-91611904D01*
X142983333Y-91650000D01*
X142945238Y-91688095D01*
X142640476Y-91688095D02*
X142602380Y-91650000D01*
X142526190Y-91611904D01*
X142335714Y-91611904D01*
X142259523Y-91650000D01*
X142221428Y-91688095D01*
X142183333Y-91764285D01*
X142183333Y-91840476D01*
X142221428Y-91954761D01*
X142678571Y-92411904D01*
X142183333Y-92411904D01*
X141878571Y-91688095D02*
X141840476Y-91650000D01*
X141764285Y-91611904D01*
X141573809Y-91611904D01*
X141497619Y-91650000D01*
X141459523Y-91688095D01*
X141421428Y-91764285D01*
X141421428Y-91840476D01*
X141459523Y-91954761D01*
X141916666Y-92411904D01*
X141421428Y-92411904D01*
X141154761Y-91611904D02*
X140621428Y-91611904D01*
X140964285Y-92411904D01*
%TO.C,C228*%
X153545238Y-94885714D02*
X153583333Y-94923809D01*
X153697619Y-94961904D01*
X153773809Y-94961904D01*
X153888095Y-94923809D01*
X153964285Y-94847619D01*
X154002380Y-94771428D01*
X154040476Y-94619047D01*
X154040476Y-94504761D01*
X154002380Y-94352380D01*
X153964285Y-94276190D01*
X153888095Y-94200000D01*
X153773809Y-94161904D01*
X153697619Y-94161904D01*
X153583333Y-94200000D01*
X153545238Y-94238095D01*
X153240476Y-94238095D02*
X153202380Y-94200000D01*
X153126190Y-94161904D01*
X152935714Y-94161904D01*
X152859523Y-94200000D01*
X152821428Y-94238095D01*
X152783333Y-94314285D01*
X152783333Y-94390476D01*
X152821428Y-94504761D01*
X153278571Y-94961904D01*
X152783333Y-94961904D01*
X152478571Y-94238095D02*
X152440476Y-94200000D01*
X152364285Y-94161904D01*
X152173809Y-94161904D01*
X152097619Y-94200000D01*
X152059523Y-94238095D01*
X152021428Y-94314285D01*
X152021428Y-94390476D01*
X152059523Y-94504761D01*
X152516666Y-94961904D01*
X152021428Y-94961904D01*
X151564285Y-94504761D02*
X151640476Y-94466666D01*
X151678571Y-94428571D01*
X151716666Y-94352380D01*
X151716666Y-94314285D01*
X151678571Y-94238095D01*
X151640476Y-94200000D01*
X151564285Y-94161904D01*
X151411904Y-94161904D01*
X151335714Y-94200000D01*
X151297619Y-94238095D01*
X151259523Y-94314285D01*
X151259523Y-94352380D01*
X151297619Y-94428571D01*
X151335714Y-94466666D01*
X151411904Y-94504761D01*
X151564285Y-94504761D01*
X151640476Y-94542857D01*
X151678571Y-94580952D01*
X151716666Y-94657142D01*
X151716666Y-94809523D01*
X151678571Y-94885714D01*
X151640476Y-94923809D01*
X151564285Y-94961904D01*
X151411904Y-94961904D01*
X151335714Y-94923809D01*
X151297619Y-94885714D01*
X151259523Y-94809523D01*
X151259523Y-94657142D01*
X151297619Y-94580952D01*
X151335714Y-94542857D01*
X151411904Y-94504761D01*
%TO.C,C229*%
X144945238Y-98485714D02*
X144983333Y-98523809D01*
X145097619Y-98561904D01*
X145173809Y-98561904D01*
X145288095Y-98523809D01*
X145364285Y-98447619D01*
X145402380Y-98371428D01*
X145440476Y-98219047D01*
X145440476Y-98104761D01*
X145402380Y-97952380D01*
X145364285Y-97876190D01*
X145288095Y-97800000D01*
X145173809Y-97761904D01*
X145097619Y-97761904D01*
X144983333Y-97800000D01*
X144945238Y-97838095D01*
X144640476Y-97838095D02*
X144602380Y-97800000D01*
X144526190Y-97761904D01*
X144335714Y-97761904D01*
X144259523Y-97800000D01*
X144221428Y-97838095D01*
X144183333Y-97914285D01*
X144183333Y-97990476D01*
X144221428Y-98104761D01*
X144678571Y-98561904D01*
X144183333Y-98561904D01*
X143878571Y-97838095D02*
X143840476Y-97800000D01*
X143764285Y-97761904D01*
X143573809Y-97761904D01*
X143497619Y-97800000D01*
X143459523Y-97838095D01*
X143421428Y-97914285D01*
X143421428Y-97990476D01*
X143459523Y-98104761D01*
X143916666Y-98561904D01*
X143421428Y-98561904D01*
X143040476Y-98561904D02*
X142888095Y-98561904D01*
X142811904Y-98523809D01*
X142773809Y-98485714D01*
X142697619Y-98371428D01*
X142659523Y-98219047D01*
X142659523Y-97914285D01*
X142697619Y-97838095D01*
X142735714Y-97800000D01*
X142811904Y-97761904D01*
X142964285Y-97761904D01*
X143040476Y-97800000D01*
X143078571Y-97838095D01*
X143116666Y-97914285D01*
X143116666Y-98104761D01*
X143078571Y-98180952D01*
X143040476Y-98219047D01*
X142964285Y-98257142D01*
X142811904Y-98257142D01*
X142735714Y-98219047D01*
X142697619Y-98180952D01*
X142659523Y-98104761D01*
%TO.C,C230*%
X153745238Y-101635714D02*
X153783333Y-101673809D01*
X153897619Y-101711904D01*
X153973809Y-101711904D01*
X154088095Y-101673809D01*
X154164285Y-101597619D01*
X154202380Y-101521428D01*
X154240476Y-101369047D01*
X154240476Y-101254761D01*
X154202380Y-101102380D01*
X154164285Y-101026190D01*
X154088095Y-100950000D01*
X153973809Y-100911904D01*
X153897619Y-100911904D01*
X153783333Y-100950000D01*
X153745238Y-100988095D01*
X153440476Y-100988095D02*
X153402380Y-100950000D01*
X153326190Y-100911904D01*
X153135714Y-100911904D01*
X153059523Y-100950000D01*
X153021428Y-100988095D01*
X152983333Y-101064285D01*
X152983333Y-101140476D01*
X153021428Y-101254761D01*
X153478571Y-101711904D01*
X152983333Y-101711904D01*
X152716666Y-100911904D02*
X152221428Y-100911904D01*
X152488095Y-101216666D01*
X152373809Y-101216666D01*
X152297619Y-101254761D01*
X152259523Y-101292857D01*
X152221428Y-101369047D01*
X152221428Y-101559523D01*
X152259523Y-101635714D01*
X152297619Y-101673809D01*
X152373809Y-101711904D01*
X152602380Y-101711904D01*
X152678571Y-101673809D01*
X152716666Y-101635714D01*
X151726190Y-100911904D02*
X151650000Y-100911904D01*
X151573809Y-100950000D01*
X151535714Y-100988095D01*
X151497619Y-101064285D01*
X151459523Y-101216666D01*
X151459523Y-101407142D01*
X151497619Y-101559523D01*
X151535714Y-101635714D01*
X151573809Y-101673809D01*
X151650000Y-101711904D01*
X151726190Y-101711904D01*
X151802380Y-101673809D01*
X151840476Y-101635714D01*
X151878571Y-101559523D01*
X151916666Y-101407142D01*
X151916666Y-101216666D01*
X151878571Y-101064285D01*
X151840476Y-100988095D01*
X151802380Y-100950000D01*
X151726190Y-100911904D01*
%TO.C,C231*%
X144595238Y-101935714D02*
X144633333Y-101973809D01*
X144747619Y-102011904D01*
X144823809Y-102011904D01*
X144938095Y-101973809D01*
X145014285Y-101897619D01*
X145052380Y-101821428D01*
X145090476Y-101669047D01*
X145090476Y-101554761D01*
X145052380Y-101402380D01*
X145014285Y-101326190D01*
X144938095Y-101250000D01*
X144823809Y-101211904D01*
X144747619Y-101211904D01*
X144633333Y-101250000D01*
X144595238Y-101288095D01*
X144290476Y-101288095D02*
X144252380Y-101250000D01*
X144176190Y-101211904D01*
X143985714Y-101211904D01*
X143909523Y-101250000D01*
X143871428Y-101288095D01*
X143833333Y-101364285D01*
X143833333Y-101440476D01*
X143871428Y-101554761D01*
X144328571Y-102011904D01*
X143833333Y-102011904D01*
X143566666Y-101211904D02*
X143071428Y-101211904D01*
X143338095Y-101516666D01*
X143223809Y-101516666D01*
X143147619Y-101554761D01*
X143109523Y-101592857D01*
X143071428Y-101669047D01*
X143071428Y-101859523D01*
X143109523Y-101935714D01*
X143147619Y-101973809D01*
X143223809Y-102011904D01*
X143452380Y-102011904D01*
X143528571Y-101973809D01*
X143566666Y-101935714D01*
X142309523Y-102011904D02*
X142766666Y-102011904D01*
X142538095Y-102011904D02*
X142538095Y-101211904D01*
X142614285Y-101326190D01*
X142690476Y-101402380D01*
X142766666Y-101440476D01*
%TO.C,C232*%
X117495238Y-90335714D02*
X117533333Y-90373809D01*
X117647619Y-90411904D01*
X117723809Y-90411904D01*
X117838095Y-90373809D01*
X117914285Y-90297619D01*
X117952380Y-90221428D01*
X117990476Y-90069047D01*
X117990476Y-89954761D01*
X117952380Y-89802380D01*
X117914285Y-89726190D01*
X117838095Y-89650000D01*
X117723809Y-89611904D01*
X117647619Y-89611904D01*
X117533333Y-89650000D01*
X117495238Y-89688095D01*
X117190476Y-89688095D02*
X117152380Y-89650000D01*
X117076190Y-89611904D01*
X116885714Y-89611904D01*
X116809523Y-89650000D01*
X116771428Y-89688095D01*
X116733333Y-89764285D01*
X116733333Y-89840476D01*
X116771428Y-89954761D01*
X117228571Y-90411904D01*
X116733333Y-90411904D01*
X116466666Y-89611904D02*
X115971428Y-89611904D01*
X116238095Y-89916666D01*
X116123809Y-89916666D01*
X116047619Y-89954761D01*
X116009523Y-89992857D01*
X115971428Y-90069047D01*
X115971428Y-90259523D01*
X116009523Y-90335714D01*
X116047619Y-90373809D01*
X116123809Y-90411904D01*
X116352380Y-90411904D01*
X116428571Y-90373809D01*
X116466666Y-90335714D01*
X115666666Y-89688095D02*
X115628571Y-89650000D01*
X115552380Y-89611904D01*
X115361904Y-89611904D01*
X115285714Y-89650000D01*
X115247619Y-89688095D01*
X115209523Y-89764285D01*
X115209523Y-89840476D01*
X115247619Y-89954761D01*
X115704761Y-90411904D01*
X115209523Y-90411904D01*
%TO.C,C233*%
X117495238Y-107835714D02*
X117533333Y-107873809D01*
X117647619Y-107911904D01*
X117723809Y-107911904D01*
X117838095Y-107873809D01*
X117914285Y-107797619D01*
X117952380Y-107721428D01*
X117990476Y-107569047D01*
X117990476Y-107454761D01*
X117952380Y-107302380D01*
X117914285Y-107226190D01*
X117838095Y-107150000D01*
X117723809Y-107111904D01*
X117647619Y-107111904D01*
X117533333Y-107150000D01*
X117495238Y-107188095D01*
X117190476Y-107188095D02*
X117152380Y-107150000D01*
X117076190Y-107111904D01*
X116885714Y-107111904D01*
X116809523Y-107150000D01*
X116771428Y-107188095D01*
X116733333Y-107264285D01*
X116733333Y-107340476D01*
X116771428Y-107454761D01*
X117228571Y-107911904D01*
X116733333Y-107911904D01*
X116466666Y-107111904D02*
X115971428Y-107111904D01*
X116238095Y-107416666D01*
X116123809Y-107416666D01*
X116047619Y-107454761D01*
X116009523Y-107492857D01*
X115971428Y-107569047D01*
X115971428Y-107759523D01*
X116009523Y-107835714D01*
X116047619Y-107873809D01*
X116123809Y-107911904D01*
X116352380Y-107911904D01*
X116428571Y-107873809D01*
X116466666Y-107835714D01*
X115704761Y-107111904D02*
X115209523Y-107111904D01*
X115476190Y-107416666D01*
X115361904Y-107416666D01*
X115285714Y-107454761D01*
X115247619Y-107492857D01*
X115209523Y-107569047D01*
X115209523Y-107759523D01*
X115247619Y-107835714D01*
X115285714Y-107873809D01*
X115361904Y-107911904D01*
X115590476Y-107911904D01*
X115666666Y-107873809D01*
X115704761Y-107835714D01*
%TO.C,C234*%
X128545238Y-109635714D02*
X128583333Y-109673809D01*
X128697619Y-109711904D01*
X128773809Y-109711904D01*
X128888095Y-109673809D01*
X128964285Y-109597619D01*
X129002380Y-109521428D01*
X129040476Y-109369047D01*
X129040476Y-109254761D01*
X129002380Y-109102380D01*
X128964285Y-109026190D01*
X128888095Y-108950000D01*
X128773809Y-108911904D01*
X128697619Y-108911904D01*
X128583333Y-108950000D01*
X128545238Y-108988095D01*
X128240476Y-108988095D02*
X128202380Y-108950000D01*
X128126190Y-108911904D01*
X127935714Y-108911904D01*
X127859523Y-108950000D01*
X127821428Y-108988095D01*
X127783333Y-109064285D01*
X127783333Y-109140476D01*
X127821428Y-109254761D01*
X128278571Y-109711904D01*
X127783333Y-109711904D01*
X127516666Y-108911904D02*
X127021428Y-108911904D01*
X127288095Y-109216666D01*
X127173809Y-109216666D01*
X127097619Y-109254761D01*
X127059523Y-109292857D01*
X127021428Y-109369047D01*
X127021428Y-109559523D01*
X127059523Y-109635714D01*
X127097619Y-109673809D01*
X127173809Y-109711904D01*
X127402380Y-109711904D01*
X127478571Y-109673809D01*
X127516666Y-109635714D01*
X126335714Y-109178571D02*
X126335714Y-109711904D01*
X126526190Y-108873809D02*
X126716666Y-109445238D01*
X126221428Y-109445238D01*
%TO.C,C235*%
X129045238Y-104985714D02*
X129083333Y-105023809D01*
X129197619Y-105061904D01*
X129273809Y-105061904D01*
X129388095Y-105023809D01*
X129464285Y-104947619D01*
X129502380Y-104871428D01*
X129540476Y-104719047D01*
X129540476Y-104604761D01*
X129502380Y-104452380D01*
X129464285Y-104376190D01*
X129388095Y-104300000D01*
X129273809Y-104261904D01*
X129197619Y-104261904D01*
X129083333Y-104300000D01*
X129045238Y-104338095D01*
X128740476Y-104338095D02*
X128702380Y-104300000D01*
X128626190Y-104261904D01*
X128435714Y-104261904D01*
X128359523Y-104300000D01*
X128321428Y-104338095D01*
X128283333Y-104414285D01*
X128283333Y-104490476D01*
X128321428Y-104604761D01*
X128778571Y-105061904D01*
X128283333Y-105061904D01*
X128016666Y-104261904D02*
X127521428Y-104261904D01*
X127788095Y-104566666D01*
X127673809Y-104566666D01*
X127597619Y-104604761D01*
X127559523Y-104642857D01*
X127521428Y-104719047D01*
X127521428Y-104909523D01*
X127559523Y-104985714D01*
X127597619Y-105023809D01*
X127673809Y-105061904D01*
X127902380Y-105061904D01*
X127978571Y-105023809D01*
X128016666Y-104985714D01*
X126797619Y-104261904D02*
X127178571Y-104261904D01*
X127216666Y-104642857D01*
X127178571Y-104604761D01*
X127102380Y-104566666D01*
X126911904Y-104566666D01*
X126835714Y-104604761D01*
X126797619Y-104642857D01*
X126759523Y-104719047D01*
X126759523Y-104909523D01*
X126797619Y-104985714D01*
X126835714Y-105023809D01*
X126911904Y-105061904D01*
X127102380Y-105061904D01*
X127178571Y-105023809D01*
X127216666Y-104985714D01*
%TO.C,C236*%
X140435714Y-104954761D02*
X140473809Y-104916666D01*
X140511904Y-104802380D01*
X140511904Y-104726190D01*
X140473809Y-104611904D01*
X140397619Y-104535714D01*
X140321428Y-104497619D01*
X140169047Y-104459523D01*
X140054761Y-104459523D01*
X139902380Y-104497619D01*
X139826190Y-104535714D01*
X139750000Y-104611904D01*
X139711904Y-104726190D01*
X139711904Y-104802380D01*
X139750000Y-104916666D01*
X139788095Y-104954761D01*
X139788095Y-105259523D02*
X139750000Y-105297619D01*
X139711904Y-105373809D01*
X139711904Y-105564285D01*
X139750000Y-105640476D01*
X139788095Y-105678571D01*
X139864285Y-105716666D01*
X139940476Y-105716666D01*
X140054761Y-105678571D01*
X140511904Y-105221428D01*
X140511904Y-105716666D01*
X139711904Y-105983333D02*
X139711904Y-106478571D01*
X140016666Y-106211904D01*
X140016666Y-106326190D01*
X140054761Y-106402380D01*
X140092857Y-106440476D01*
X140169047Y-106478571D01*
X140359523Y-106478571D01*
X140435714Y-106440476D01*
X140473809Y-106402380D01*
X140511904Y-106326190D01*
X140511904Y-106097619D01*
X140473809Y-106021428D01*
X140435714Y-105983333D01*
X139711904Y-107164285D02*
X139711904Y-107011904D01*
X139750000Y-106935714D01*
X139788095Y-106897619D01*
X139902380Y-106821428D01*
X140054761Y-106783333D01*
X140359523Y-106783333D01*
X140435714Y-106821428D01*
X140473809Y-106859523D01*
X140511904Y-106935714D01*
X140511904Y-107088095D01*
X140473809Y-107164285D01*
X140435714Y-107202380D01*
X140359523Y-107240476D01*
X140169047Y-107240476D01*
X140092857Y-107202380D01*
X140054761Y-107164285D01*
X140016666Y-107088095D01*
X140016666Y-106935714D01*
X140054761Y-106859523D01*
X140092857Y-106821428D01*
X140169047Y-106783333D01*
%TO.C,C237*%
X139545238Y-95685714D02*
X139583333Y-95723809D01*
X139697619Y-95761904D01*
X139773809Y-95761904D01*
X139888095Y-95723809D01*
X139964285Y-95647619D01*
X140002380Y-95571428D01*
X140040476Y-95419047D01*
X140040476Y-95304761D01*
X140002380Y-95152380D01*
X139964285Y-95076190D01*
X139888095Y-95000000D01*
X139773809Y-94961904D01*
X139697619Y-94961904D01*
X139583333Y-95000000D01*
X139545238Y-95038095D01*
X139240476Y-95038095D02*
X139202380Y-95000000D01*
X139126190Y-94961904D01*
X138935714Y-94961904D01*
X138859523Y-95000000D01*
X138821428Y-95038095D01*
X138783333Y-95114285D01*
X138783333Y-95190476D01*
X138821428Y-95304761D01*
X139278571Y-95761904D01*
X138783333Y-95761904D01*
X138516666Y-94961904D02*
X138021428Y-94961904D01*
X138288095Y-95266666D01*
X138173809Y-95266666D01*
X138097619Y-95304761D01*
X138059523Y-95342857D01*
X138021428Y-95419047D01*
X138021428Y-95609523D01*
X138059523Y-95685714D01*
X138097619Y-95723809D01*
X138173809Y-95761904D01*
X138402380Y-95761904D01*
X138478571Y-95723809D01*
X138516666Y-95685714D01*
X137754761Y-94961904D02*
X137221428Y-94961904D01*
X137564285Y-95761904D01*
%TO.C,C238*%
X153795238Y-103685714D02*
X153833333Y-103723809D01*
X153947619Y-103761904D01*
X154023809Y-103761904D01*
X154138095Y-103723809D01*
X154214285Y-103647619D01*
X154252380Y-103571428D01*
X154290476Y-103419047D01*
X154290476Y-103304761D01*
X154252380Y-103152380D01*
X154214285Y-103076190D01*
X154138095Y-103000000D01*
X154023809Y-102961904D01*
X153947619Y-102961904D01*
X153833333Y-103000000D01*
X153795238Y-103038095D01*
X153490476Y-103038095D02*
X153452380Y-103000000D01*
X153376190Y-102961904D01*
X153185714Y-102961904D01*
X153109523Y-103000000D01*
X153071428Y-103038095D01*
X153033333Y-103114285D01*
X153033333Y-103190476D01*
X153071428Y-103304761D01*
X153528571Y-103761904D01*
X153033333Y-103761904D01*
X152766666Y-102961904D02*
X152271428Y-102961904D01*
X152538095Y-103266666D01*
X152423809Y-103266666D01*
X152347619Y-103304761D01*
X152309523Y-103342857D01*
X152271428Y-103419047D01*
X152271428Y-103609523D01*
X152309523Y-103685714D01*
X152347619Y-103723809D01*
X152423809Y-103761904D01*
X152652380Y-103761904D01*
X152728571Y-103723809D01*
X152766666Y-103685714D01*
X151814285Y-103304761D02*
X151890476Y-103266666D01*
X151928571Y-103228571D01*
X151966666Y-103152380D01*
X151966666Y-103114285D01*
X151928571Y-103038095D01*
X151890476Y-103000000D01*
X151814285Y-102961904D01*
X151661904Y-102961904D01*
X151585714Y-103000000D01*
X151547619Y-103038095D01*
X151509523Y-103114285D01*
X151509523Y-103152380D01*
X151547619Y-103228571D01*
X151585714Y-103266666D01*
X151661904Y-103304761D01*
X151814285Y-103304761D01*
X151890476Y-103342857D01*
X151928571Y-103380952D01*
X151966666Y-103457142D01*
X151966666Y-103609523D01*
X151928571Y-103685714D01*
X151890476Y-103723809D01*
X151814285Y-103761904D01*
X151661904Y-103761904D01*
X151585714Y-103723809D01*
X151547619Y-103685714D01*
X151509523Y-103609523D01*
X151509523Y-103457142D01*
X151547619Y-103380952D01*
X151585714Y-103342857D01*
X151661904Y-103304761D01*
%TO.C,C239*%
X153845238Y-105535714D02*
X153883333Y-105573809D01*
X153997619Y-105611904D01*
X154073809Y-105611904D01*
X154188095Y-105573809D01*
X154264285Y-105497619D01*
X154302380Y-105421428D01*
X154340476Y-105269047D01*
X154340476Y-105154761D01*
X154302380Y-105002380D01*
X154264285Y-104926190D01*
X154188095Y-104850000D01*
X154073809Y-104811904D01*
X153997619Y-104811904D01*
X153883333Y-104850000D01*
X153845238Y-104888095D01*
X153540476Y-104888095D02*
X153502380Y-104850000D01*
X153426190Y-104811904D01*
X153235714Y-104811904D01*
X153159523Y-104850000D01*
X153121428Y-104888095D01*
X153083333Y-104964285D01*
X153083333Y-105040476D01*
X153121428Y-105154761D01*
X153578571Y-105611904D01*
X153083333Y-105611904D01*
X152816666Y-104811904D02*
X152321428Y-104811904D01*
X152588095Y-105116666D01*
X152473809Y-105116666D01*
X152397619Y-105154761D01*
X152359523Y-105192857D01*
X152321428Y-105269047D01*
X152321428Y-105459523D01*
X152359523Y-105535714D01*
X152397619Y-105573809D01*
X152473809Y-105611904D01*
X152702380Y-105611904D01*
X152778571Y-105573809D01*
X152816666Y-105535714D01*
X151940476Y-105611904D02*
X151788095Y-105611904D01*
X151711904Y-105573809D01*
X151673809Y-105535714D01*
X151597619Y-105421428D01*
X151559523Y-105269047D01*
X151559523Y-104964285D01*
X151597619Y-104888095D01*
X151635714Y-104850000D01*
X151711904Y-104811904D01*
X151864285Y-104811904D01*
X151940476Y-104850000D01*
X151978571Y-104888095D01*
X152016666Y-104964285D01*
X152016666Y-105154761D01*
X151978571Y-105230952D01*
X151940476Y-105269047D01*
X151864285Y-105307142D01*
X151711904Y-105307142D01*
X151635714Y-105269047D01*
X151597619Y-105230952D01*
X151559523Y-105154761D01*
%TO.C,C240*%
X142695238Y-109385714D02*
X142733333Y-109423809D01*
X142847619Y-109461904D01*
X142923809Y-109461904D01*
X143038095Y-109423809D01*
X143114285Y-109347619D01*
X143152380Y-109271428D01*
X143190476Y-109119047D01*
X143190476Y-109004761D01*
X143152380Y-108852380D01*
X143114285Y-108776190D01*
X143038095Y-108700000D01*
X142923809Y-108661904D01*
X142847619Y-108661904D01*
X142733333Y-108700000D01*
X142695238Y-108738095D01*
X142390476Y-108738095D02*
X142352380Y-108700000D01*
X142276190Y-108661904D01*
X142085714Y-108661904D01*
X142009523Y-108700000D01*
X141971428Y-108738095D01*
X141933333Y-108814285D01*
X141933333Y-108890476D01*
X141971428Y-109004761D01*
X142428571Y-109461904D01*
X141933333Y-109461904D01*
X141247619Y-108928571D02*
X141247619Y-109461904D01*
X141438095Y-108623809D02*
X141628571Y-109195238D01*
X141133333Y-109195238D01*
X140676190Y-108661904D02*
X140600000Y-108661904D01*
X140523809Y-108700000D01*
X140485714Y-108738095D01*
X140447619Y-108814285D01*
X140409523Y-108966666D01*
X140409523Y-109157142D01*
X140447619Y-109309523D01*
X140485714Y-109385714D01*
X140523809Y-109423809D01*
X140600000Y-109461904D01*
X140676190Y-109461904D01*
X140752380Y-109423809D01*
X140790476Y-109385714D01*
X140828571Y-109309523D01*
X140866666Y-109157142D01*
X140866666Y-108966666D01*
X140828571Y-108814285D01*
X140790476Y-108738095D01*
X140752380Y-108700000D01*
X140676190Y-108661904D01*
%TO.C,C241*%
X126095238Y-98935714D02*
X126133333Y-98973809D01*
X126247619Y-99011904D01*
X126323809Y-99011904D01*
X126438095Y-98973809D01*
X126514285Y-98897619D01*
X126552380Y-98821428D01*
X126590476Y-98669047D01*
X126590476Y-98554761D01*
X126552380Y-98402380D01*
X126514285Y-98326190D01*
X126438095Y-98250000D01*
X126323809Y-98211904D01*
X126247619Y-98211904D01*
X126133333Y-98250000D01*
X126095238Y-98288095D01*
X125790476Y-98288095D02*
X125752380Y-98250000D01*
X125676190Y-98211904D01*
X125485714Y-98211904D01*
X125409523Y-98250000D01*
X125371428Y-98288095D01*
X125333333Y-98364285D01*
X125333333Y-98440476D01*
X125371428Y-98554761D01*
X125828571Y-99011904D01*
X125333333Y-99011904D01*
X124647619Y-98478571D02*
X124647619Y-99011904D01*
X124838095Y-98173809D02*
X125028571Y-98745238D01*
X124533333Y-98745238D01*
X123809523Y-99011904D02*
X124266666Y-99011904D01*
X124038095Y-99011904D02*
X124038095Y-98211904D01*
X124114285Y-98326190D01*
X124190476Y-98402380D01*
X124266666Y-98440476D01*
%TO.C,C242*%
X138735714Y-90504761D02*
X138773809Y-90466666D01*
X138811904Y-90352380D01*
X138811904Y-90276190D01*
X138773809Y-90161904D01*
X138697619Y-90085714D01*
X138621428Y-90047619D01*
X138469047Y-90009523D01*
X138354761Y-90009523D01*
X138202380Y-90047619D01*
X138126190Y-90085714D01*
X138050000Y-90161904D01*
X138011904Y-90276190D01*
X138011904Y-90352380D01*
X138050000Y-90466666D01*
X138088095Y-90504761D01*
X138088095Y-90809523D02*
X138050000Y-90847619D01*
X138011904Y-90923809D01*
X138011904Y-91114285D01*
X138050000Y-91190476D01*
X138088095Y-91228571D01*
X138164285Y-91266666D01*
X138240476Y-91266666D01*
X138354761Y-91228571D01*
X138811904Y-90771428D01*
X138811904Y-91266666D01*
X138278571Y-91952380D02*
X138811904Y-91952380D01*
X137973809Y-91761904D02*
X138545238Y-91571428D01*
X138545238Y-92066666D01*
X138088095Y-92333333D02*
X138050000Y-92371428D01*
X138011904Y-92447619D01*
X138011904Y-92638095D01*
X138050000Y-92714285D01*
X138088095Y-92752380D01*
X138164285Y-92790476D01*
X138240476Y-92790476D01*
X138354761Y-92752380D01*
X138811904Y-92295238D01*
X138811904Y-92790476D01*
%TO.C,C243*%
X137695238Y-108685714D02*
X137733333Y-108723809D01*
X137847619Y-108761904D01*
X137923809Y-108761904D01*
X138038095Y-108723809D01*
X138114285Y-108647619D01*
X138152380Y-108571428D01*
X138190476Y-108419047D01*
X138190476Y-108304761D01*
X138152380Y-108152380D01*
X138114285Y-108076190D01*
X138038095Y-108000000D01*
X137923809Y-107961904D01*
X137847619Y-107961904D01*
X137733333Y-108000000D01*
X137695238Y-108038095D01*
X137390476Y-108038095D02*
X137352380Y-108000000D01*
X137276190Y-107961904D01*
X137085714Y-107961904D01*
X137009523Y-108000000D01*
X136971428Y-108038095D01*
X136933333Y-108114285D01*
X136933333Y-108190476D01*
X136971428Y-108304761D01*
X137428571Y-108761904D01*
X136933333Y-108761904D01*
X136247619Y-108228571D02*
X136247619Y-108761904D01*
X136438095Y-107923809D02*
X136628571Y-108495238D01*
X136133333Y-108495238D01*
X135904761Y-107961904D02*
X135409523Y-107961904D01*
X135676190Y-108266666D01*
X135561904Y-108266666D01*
X135485714Y-108304761D01*
X135447619Y-108342857D01*
X135409523Y-108419047D01*
X135409523Y-108609523D01*
X135447619Y-108685714D01*
X135485714Y-108723809D01*
X135561904Y-108761904D01*
X135790476Y-108761904D01*
X135866666Y-108723809D01*
X135904761Y-108685714D01*
%TO.C,C244*%
X117645238Y-109535714D02*
X117683333Y-109573809D01*
X117797619Y-109611904D01*
X117873809Y-109611904D01*
X117988095Y-109573809D01*
X118064285Y-109497619D01*
X118102380Y-109421428D01*
X118140476Y-109269047D01*
X118140476Y-109154761D01*
X118102380Y-109002380D01*
X118064285Y-108926190D01*
X117988095Y-108850000D01*
X117873809Y-108811904D01*
X117797619Y-108811904D01*
X117683333Y-108850000D01*
X117645238Y-108888095D01*
X117340476Y-108888095D02*
X117302380Y-108850000D01*
X117226190Y-108811904D01*
X117035714Y-108811904D01*
X116959523Y-108850000D01*
X116921428Y-108888095D01*
X116883333Y-108964285D01*
X116883333Y-109040476D01*
X116921428Y-109154761D01*
X117378571Y-109611904D01*
X116883333Y-109611904D01*
X116197619Y-109078571D02*
X116197619Y-109611904D01*
X116388095Y-108773809D02*
X116578571Y-109345238D01*
X116083333Y-109345238D01*
X115435714Y-109078571D02*
X115435714Y-109611904D01*
X115626190Y-108773809D02*
X115816666Y-109345238D01*
X115321428Y-109345238D01*
%TO.C,C245*%
X117495238Y-88485714D02*
X117533333Y-88523809D01*
X117647619Y-88561904D01*
X117723809Y-88561904D01*
X117838095Y-88523809D01*
X117914285Y-88447619D01*
X117952380Y-88371428D01*
X117990476Y-88219047D01*
X117990476Y-88104761D01*
X117952380Y-87952380D01*
X117914285Y-87876190D01*
X117838095Y-87800000D01*
X117723809Y-87761904D01*
X117647619Y-87761904D01*
X117533333Y-87800000D01*
X117495238Y-87838095D01*
X117190476Y-87838095D02*
X117152380Y-87800000D01*
X117076190Y-87761904D01*
X116885714Y-87761904D01*
X116809523Y-87800000D01*
X116771428Y-87838095D01*
X116733333Y-87914285D01*
X116733333Y-87990476D01*
X116771428Y-88104761D01*
X117228571Y-88561904D01*
X116733333Y-88561904D01*
X116047619Y-88028571D02*
X116047619Y-88561904D01*
X116238095Y-87723809D02*
X116428571Y-88295238D01*
X115933333Y-88295238D01*
X115247619Y-87761904D02*
X115628571Y-87761904D01*
X115666666Y-88142857D01*
X115628571Y-88104761D01*
X115552380Y-88066666D01*
X115361904Y-88066666D01*
X115285714Y-88104761D01*
X115247619Y-88142857D01*
X115209523Y-88219047D01*
X115209523Y-88409523D01*
X115247619Y-88485714D01*
X115285714Y-88523809D01*
X115361904Y-88561904D01*
X115552380Y-88561904D01*
X115628571Y-88523809D01*
X115666666Y-88485714D01*
%TO.C,C246*%
X124915238Y-86015714D02*
X124953333Y-86053809D01*
X125067619Y-86091904D01*
X125143809Y-86091904D01*
X125258095Y-86053809D01*
X125334285Y-85977619D01*
X125372380Y-85901428D01*
X125410476Y-85749047D01*
X125410476Y-85634761D01*
X125372380Y-85482380D01*
X125334285Y-85406190D01*
X125258095Y-85330000D01*
X125143809Y-85291904D01*
X125067619Y-85291904D01*
X124953333Y-85330000D01*
X124915238Y-85368095D01*
X124610476Y-85368095D02*
X124572380Y-85330000D01*
X124496190Y-85291904D01*
X124305714Y-85291904D01*
X124229523Y-85330000D01*
X124191428Y-85368095D01*
X124153333Y-85444285D01*
X124153333Y-85520476D01*
X124191428Y-85634761D01*
X124648571Y-86091904D01*
X124153333Y-86091904D01*
X123467619Y-85558571D02*
X123467619Y-86091904D01*
X123658095Y-85253809D02*
X123848571Y-85825238D01*
X123353333Y-85825238D01*
X122705714Y-85291904D02*
X122858095Y-85291904D01*
X122934285Y-85330000D01*
X122972380Y-85368095D01*
X123048571Y-85482380D01*
X123086666Y-85634761D01*
X123086666Y-85939523D01*
X123048571Y-86015714D01*
X123010476Y-86053809D01*
X122934285Y-86091904D01*
X122781904Y-86091904D01*
X122705714Y-86053809D01*
X122667619Y-86015714D01*
X122629523Y-85939523D01*
X122629523Y-85749047D01*
X122667619Y-85672857D01*
X122705714Y-85634761D01*
X122781904Y-85596666D01*
X122934285Y-85596666D01*
X123010476Y-85634761D01*
X123048571Y-85672857D01*
X123086666Y-85749047D01*
%TO.C,C247*%
X153695238Y-93035714D02*
X153733333Y-93073809D01*
X153847619Y-93111904D01*
X153923809Y-93111904D01*
X154038095Y-93073809D01*
X154114285Y-92997619D01*
X154152380Y-92921428D01*
X154190476Y-92769047D01*
X154190476Y-92654761D01*
X154152380Y-92502380D01*
X154114285Y-92426190D01*
X154038095Y-92350000D01*
X153923809Y-92311904D01*
X153847619Y-92311904D01*
X153733333Y-92350000D01*
X153695238Y-92388095D01*
X153390476Y-92388095D02*
X153352380Y-92350000D01*
X153276190Y-92311904D01*
X153085714Y-92311904D01*
X153009523Y-92350000D01*
X152971428Y-92388095D01*
X152933333Y-92464285D01*
X152933333Y-92540476D01*
X152971428Y-92654761D01*
X153428571Y-93111904D01*
X152933333Y-93111904D01*
X152247619Y-92578571D02*
X152247619Y-93111904D01*
X152438095Y-92273809D02*
X152628571Y-92845238D01*
X152133333Y-92845238D01*
X151904761Y-92311904D02*
X151371428Y-92311904D01*
X151714285Y-93111904D01*
%TO.C,C248*%
X130185714Y-113254761D02*
X130223809Y-113216666D01*
X130261904Y-113102380D01*
X130261904Y-113026190D01*
X130223809Y-112911904D01*
X130147619Y-112835714D01*
X130071428Y-112797619D01*
X129919047Y-112759523D01*
X129804761Y-112759523D01*
X129652380Y-112797619D01*
X129576190Y-112835714D01*
X129500000Y-112911904D01*
X129461904Y-113026190D01*
X129461904Y-113102380D01*
X129500000Y-113216666D01*
X129538095Y-113254761D01*
X129538095Y-113559523D02*
X129500000Y-113597619D01*
X129461904Y-113673809D01*
X129461904Y-113864285D01*
X129500000Y-113940476D01*
X129538095Y-113978571D01*
X129614285Y-114016666D01*
X129690476Y-114016666D01*
X129804761Y-113978571D01*
X130261904Y-113521428D01*
X130261904Y-114016666D01*
X129728571Y-114702380D02*
X130261904Y-114702380D01*
X129423809Y-114511904D02*
X129995238Y-114321428D01*
X129995238Y-114816666D01*
X129804761Y-115235714D02*
X129766666Y-115159523D01*
X129728571Y-115121428D01*
X129652380Y-115083333D01*
X129614285Y-115083333D01*
X129538095Y-115121428D01*
X129500000Y-115159523D01*
X129461904Y-115235714D01*
X129461904Y-115388095D01*
X129500000Y-115464285D01*
X129538095Y-115502380D01*
X129614285Y-115540476D01*
X129652380Y-115540476D01*
X129728571Y-115502380D01*
X129766666Y-115464285D01*
X129804761Y-115388095D01*
X129804761Y-115235714D01*
X129842857Y-115159523D01*
X129880952Y-115121428D01*
X129957142Y-115083333D01*
X130109523Y-115083333D01*
X130185714Y-115121428D01*
X130223809Y-115159523D01*
X130261904Y-115235714D01*
X130261904Y-115388095D01*
X130223809Y-115464285D01*
X130185714Y-115502380D01*
X130109523Y-115540476D01*
X129957142Y-115540476D01*
X129880952Y-115502380D01*
X129842857Y-115464285D01*
X129804761Y-115388095D01*
%TO.C,C249*%
X139135714Y-113304761D02*
X139173809Y-113266666D01*
X139211904Y-113152380D01*
X139211904Y-113076190D01*
X139173809Y-112961904D01*
X139097619Y-112885714D01*
X139021428Y-112847619D01*
X138869047Y-112809523D01*
X138754761Y-112809523D01*
X138602380Y-112847619D01*
X138526190Y-112885714D01*
X138450000Y-112961904D01*
X138411904Y-113076190D01*
X138411904Y-113152380D01*
X138450000Y-113266666D01*
X138488095Y-113304761D01*
X138488095Y-113609523D02*
X138450000Y-113647619D01*
X138411904Y-113723809D01*
X138411904Y-113914285D01*
X138450000Y-113990476D01*
X138488095Y-114028571D01*
X138564285Y-114066666D01*
X138640476Y-114066666D01*
X138754761Y-114028571D01*
X139211904Y-113571428D01*
X139211904Y-114066666D01*
X138678571Y-114752380D02*
X139211904Y-114752380D01*
X138373809Y-114561904D02*
X138945238Y-114371428D01*
X138945238Y-114866666D01*
X139211904Y-115209523D02*
X139211904Y-115361904D01*
X139173809Y-115438095D01*
X139135714Y-115476190D01*
X139021428Y-115552380D01*
X138869047Y-115590476D01*
X138564285Y-115590476D01*
X138488095Y-115552380D01*
X138450000Y-115514285D01*
X138411904Y-115438095D01*
X138411904Y-115285714D01*
X138450000Y-115209523D01*
X138488095Y-115171428D01*
X138564285Y-115133333D01*
X138754761Y-115133333D01*
X138830952Y-115171428D01*
X138869047Y-115209523D01*
X138907142Y-115285714D01*
X138907142Y-115438095D01*
X138869047Y-115514285D01*
X138830952Y-115552380D01*
X138754761Y-115590476D01*
%TO.C,C250*%
X140555238Y-84455714D02*
X140593333Y-84493809D01*
X140707619Y-84531904D01*
X140783809Y-84531904D01*
X140898095Y-84493809D01*
X140974285Y-84417619D01*
X141012380Y-84341428D01*
X141050476Y-84189047D01*
X141050476Y-84074761D01*
X141012380Y-83922380D01*
X140974285Y-83846190D01*
X140898095Y-83770000D01*
X140783809Y-83731904D01*
X140707619Y-83731904D01*
X140593333Y-83770000D01*
X140555238Y-83808095D01*
X140250476Y-83808095D02*
X140212380Y-83770000D01*
X140136190Y-83731904D01*
X139945714Y-83731904D01*
X139869523Y-83770000D01*
X139831428Y-83808095D01*
X139793333Y-83884285D01*
X139793333Y-83960476D01*
X139831428Y-84074761D01*
X140288571Y-84531904D01*
X139793333Y-84531904D01*
X139069523Y-83731904D02*
X139450476Y-83731904D01*
X139488571Y-84112857D01*
X139450476Y-84074761D01*
X139374285Y-84036666D01*
X139183809Y-84036666D01*
X139107619Y-84074761D01*
X139069523Y-84112857D01*
X139031428Y-84189047D01*
X139031428Y-84379523D01*
X139069523Y-84455714D01*
X139107619Y-84493809D01*
X139183809Y-84531904D01*
X139374285Y-84531904D01*
X139450476Y-84493809D01*
X139488571Y-84455714D01*
X138536190Y-83731904D02*
X138460000Y-83731904D01*
X138383809Y-83770000D01*
X138345714Y-83808095D01*
X138307619Y-83884285D01*
X138269523Y-84036666D01*
X138269523Y-84227142D01*
X138307619Y-84379523D01*
X138345714Y-84455714D01*
X138383809Y-84493809D01*
X138460000Y-84531904D01*
X138536190Y-84531904D01*
X138612380Y-84493809D01*
X138650476Y-84455714D01*
X138688571Y-84379523D01*
X138726666Y-84227142D01*
X138726666Y-84036666D01*
X138688571Y-83884285D01*
X138650476Y-83808095D01*
X138612380Y-83770000D01*
X138536190Y-83731904D01*
%TO.C,C251*%
X132985238Y-84565714D02*
X133023333Y-84603809D01*
X133137619Y-84641904D01*
X133213809Y-84641904D01*
X133328095Y-84603809D01*
X133404285Y-84527619D01*
X133442380Y-84451428D01*
X133480476Y-84299047D01*
X133480476Y-84184761D01*
X133442380Y-84032380D01*
X133404285Y-83956190D01*
X133328095Y-83880000D01*
X133213809Y-83841904D01*
X133137619Y-83841904D01*
X133023333Y-83880000D01*
X132985238Y-83918095D01*
X132680476Y-83918095D02*
X132642380Y-83880000D01*
X132566190Y-83841904D01*
X132375714Y-83841904D01*
X132299523Y-83880000D01*
X132261428Y-83918095D01*
X132223333Y-83994285D01*
X132223333Y-84070476D01*
X132261428Y-84184761D01*
X132718571Y-84641904D01*
X132223333Y-84641904D01*
X131499523Y-83841904D02*
X131880476Y-83841904D01*
X131918571Y-84222857D01*
X131880476Y-84184761D01*
X131804285Y-84146666D01*
X131613809Y-84146666D01*
X131537619Y-84184761D01*
X131499523Y-84222857D01*
X131461428Y-84299047D01*
X131461428Y-84489523D01*
X131499523Y-84565714D01*
X131537619Y-84603809D01*
X131613809Y-84641904D01*
X131804285Y-84641904D01*
X131880476Y-84603809D01*
X131918571Y-84565714D01*
X130699523Y-84641904D02*
X131156666Y-84641904D01*
X130928095Y-84641904D02*
X130928095Y-83841904D01*
X131004285Y-83956190D01*
X131080476Y-84032380D01*
X131156666Y-84070476D01*
%TO.C,C252*%
X120695238Y-94585714D02*
X120733333Y-94623809D01*
X120847619Y-94661904D01*
X120923809Y-94661904D01*
X121038095Y-94623809D01*
X121114285Y-94547619D01*
X121152380Y-94471428D01*
X121190476Y-94319047D01*
X121190476Y-94204761D01*
X121152380Y-94052380D01*
X121114285Y-93976190D01*
X121038095Y-93900000D01*
X120923809Y-93861904D01*
X120847619Y-93861904D01*
X120733333Y-93900000D01*
X120695238Y-93938095D01*
X120390476Y-93938095D02*
X120352380Y-93900000D01*
X120276190Y-93861904D01*
X120085714Y-93861904D01*
X120009523Y-93900000D01*
X119971428Y-93938095D01*
X119933333Y-94014285D01*
X119933333Y-94090476D01*
X119971428Y-94204761D01*
X120428571Y-94661904D01*
X119933333Y-94661904D01*
X119209523Y-93861904D02*
X119590476Y-93861904D01*
X119628571Y-94242857D01*
X119590476Y-94204761D01*
X119514285Y-94166666D01*
X119323809Y-94166666D01*
X119247619Y-94204761D01*
X119209523Y-94242857D01*
X119171428Y-94319047D01*
X119171428Y-94509523D01*
X119209523Y-94585714D01*
X119247619Y-94623809D01*
X119323809Y-94661904D01*
X119514285Y-94661904D01*
X119590476Y-94623809D01*
X119628571Y-94585714D01*
X118866666Y-93938095D02*
X118828571Y-93900000D01*
X118752380Y-93861904D01*
X118561904Y-93861904D01*
X118485714Y-93900000D01*
X118447619Y-93938095D01*
X118409523Y-94014285D01*
X118409523Y-94090476D01*
X118447619Y-94204761D01*
X118904761Y-94661904D01*
X118409523Y-94661904D01*
%TO.C,C253*%
X120995238Y-100835714D02*
X121033333Y-100873809D01*
X121147619Y-100911904D01*
X121223809Y-100911904D01*
X121338095Y-100873809D01*
X121414285Y-100797619D01*
X121452380Y-100721428D01*
X121490476Y-100569047D01*
X121490476Y-100454761D01*
X121452380Y-100302380D01*
X121414285Y-100226190D01*
X121338095Y-100150000D01*
X121223809Y-100111904D01*
X121147619Y-100111904D01*
X121033333Y-100150000D01*
X120995238Y-100188095D01*
X120690476Y-100188095D02*
X120652380Y-100150000D01*
X120576190Y-100111904D01*
X120385714Y-100111904D01*
X120309523Y-100150000D01*
X120271428Y-100188095D01*
X120233333Y-100264285D01*
X120233333Y-100340476D01*
X120271428Y-100454761D01*
X120728571Y-100911904D01*
X120233333Y-100911904D01*
X119509523Y-100111904D02*
X119890476Y-100111904D01*
X119928571Y-100492857D01*
X119890476Y-100454761D01*
X119814285Y-100416666D01*
X119623809Y-100416666D01*
X119547619Y-100454761D01*
X119509523Y-100492857D01*
X119471428Y-100569047D01*
X119471428Y-100759523D01*
X119509523Y-100835714D01*
X119547619Y-100873809D01*
X119623809Y-100911904D01*
X119814285Y-100911904D01*
X119890476Y-100873809D01*
X119928571Y-100835714D01*
X119204761Y-100111904D02*
X118709523Y-100111904D01*
X118976190Y-100416666D01*
X118861904Y-100416666D01*
X118785714Y-100454761D01*
X118747619Y-100492857D01*
X118709523Y-100569047D01*
X118709523Y-100759523D01*
X118747619Y-100835714D01*
X118785714Y-100873809D01*
X118861904Y-100911904D01*
X119090476Y-100911904D01*
X119166666Y-100873809D01*
X119204761Y-100835714D01*
%TO.C,C254*%
X149345238Y-99485714D02*
X149383333Y-99523809D01*
X149497619Y-99561904D01*
X149573809Y-99561904D01*
X149688095Y-99523809D01*
X149764285Y-99447619D01*
X149802380Y-99371428D01*
X149840476Y-99219047D01*
X149840476Y-99104761D01*
X149802380Y-98952380D01*
X149764285Y-98876190D01*
X149688095Y-98800000D01*
X149573809Y-98761904D01*
X149497619Y-98761904D01*
X149383333Y-98800000D01*
X149345238Y-98838095D01*
X149040476Y-98838095D02*
X149002380Y-98800000D01*
X148926190Y-98761904D01*
X148735714Y-98761904D01*
X148659523Y-98800000D01*
X148621428Y-98838095D01*
X148583333Y-98914285D01*
X148583333Y-98990476D01*
X148621428Y-99104761D01*
X149078571Y-99561904D01*
X148583333Y-99561904D01*
X147859523Y-98761904D02*
X148240476Y-98761904D01*
X148278571Y-99142857D01*
X148240476Y-99104761D01*
X148164285Y-99066666D01*
X147973809Y-99066666D01*
X147897619Y-99104761D01*
X147859523Y-99142857D01*
X147821428Y-99219047D01*
X147821428Y-99409523D01*
X147859523Y-99485714D01*
X147897619Y-99523809D01*
X147973809Y-99561904D01*
X148164285Y-99561904D01*
X148240476Y-99523809D01*
X148278571Y-99485714D01*
X147135714Y-99028571D02*
X147135714Y-99561904D01*
X147326190Y-98723809D02*
X147516666Y-99295238D01*
X147021428Y-99295238D01*
%TO.C,C255*%
X143845238Y-94785714D02*
X143883333Y-94823809D01*
X143997619Y-94861904D01*
X144073809Y-94861904D01*
X144188095Y-94823809D01*
X144264285Y-94747619D01*
X144302380Y-94671428D01*
X144340476Y-94519047D01*
X144340476Y-94404761D01*
X144302380Y-94252380D01*
X144264285Y-94176190D01*
X144188095Y-94100000D01*
X144073809Y-94061904D01*
X143997619Y-94061904D01*
X143883333Y-94100000D01*
X143845238Y-94138095D01*
X143540476Y-94138095D02*
X143502380Y-94100000D01*
X143426190Y-94061904D01*
X143235714Y-94061904D01*
X143159523Y-94100000D01*
X143121428Y-94138095D01*
X143083333Y-94214285D01*
X143083333Y-94290476D01*
X143121428Y-94404761D01*
X143578571Y-94861904D01*
X143083333Y-94861904D01*
X142359523Y-94061904D02*
X142740476Y-94061904D01*
X142778571Y-94442857D01*
X142740476Y-94404761D01*
X142664285Y-94366666D01*
X142473809Y-94366666D01*
X142397619Y-94404761D01*
X142359523Y-94442857D01*
X142321428Y-94519047D01*
X142321428Y-94709523D01*
X142359523Y-94785714D01*
X142397619Y-94823809D01*
X142473809Y-94861904D01*
X142664285Y-94861904D01*
X142740476Y-94823809D01*
X142778571Y-94785714D01*
X141597619Y-94061904D02*
X141978571Y-94061904D01*
X142016666Y-94442857D01*
X141978571Y-94404761D01*
X141902380Y-94366666D01*
X141711904Y-94366666D01*
X141635714Y-94404761D01*
X141597619Y-94442857D01*
X141559523Y-94519047D01*
X141559523Y-94709523D01*
X141597619Y-94785714D01*
X141635714Y-94823809D01*
X141711904Y-94861904D01*
X141902380Y-94861904D01*
X141978571Y-94823809D01*
X142016666Y-94785714D01*
%TO.C,C256*%
X136685238Y-84445714D02*
X136723333Y-84483809D01*
X136837619Y-84521904D01*
X136913809Y-84521904D01*
X137028095Y-84483809D01*
X137104285Y-84407619D01*
X137142380Y-84331428D01*
X137180476Y-84179047D01*
X137180476Y-84064761D01*
X137142380Y-83912380D01*
X137104285Y-83836190D01*
X137028095Y-83760000D01*
X136913809Y-83721904D01*
X136837619Y-83721904D01*
X136723333Y-83760000D01*
X136685238Y-83798095D01*
X136380476Y-83798095D02*
X136342380Y-83760000D01*
X136266190Y-83721904D01*
X136075714Y-83721904D01*
X135999523Y-83760000D01*
X135961428Y-83798095D01*
X135923333Y-83874285D01*
X135923333Y-83950476D01*
X135961428Y-84064761D01*
X136418571Y-84521904D01*
X135923333Y-84521904D01*
X135199523Y-83721904D02*
X135580476Y-83721904D01*
X135618571Y-84102857D01*
X135580476Y-84064761D01*
X135504285Y-84026666D01*
X135313809Y-84026666D01*
X135237619Y-84064761D01*
X135199523Y-84102857D01*
X135161428Y-84179047D01*
X135161428Y-84369523D01*
X135199523Y-84445714D01*
X135237619Y-84483809D01*
X135313809Y-84521904D01*
X135504285Y-84521904D01*
X135580476Y-84483809D01*
X135618571Y-84445714D01*
X134475714Y-83721904D02*
X134628095Y-83721904D01*
X134704285Y-83760000D01*
X134742380Y-83798095D01*
X134818571Y-83912380D01*
X134856666Y-84064761D01*
X134856666Y-84369523D01*
X134818571Y-84445714D01*
X134780476Y-84483809D01*
X134704285Y-84521904D01*
X134551904Y-84521904D01*
X134475714Y-84483809D01*
X134437619Y-84445714D01*
X134399523Y-84369523D01*
X134399523Y-84179047D01*
X134437619Y-84102857D01*
X134475714Y-84064761D01*
X134551904Y-84026666D01*
X134704285Y-84026666D01*
X134780476Y-84064761D01*
X134818571Y-84102857D01*
X134856666Y-84179047D01*
%TO.C,C257*%
X129065238Y-84635714D02*
X129103333Y-84673809D01*
X129217619Y-84711904D01*
X129293809Y-84711904D01*
X129408095Y-84673809D01*
X129484285Y-84597619D01*
X129522380Y-84521428D01*
X129560476Y-84369047D01*
X129560476Y-84254761D01*
X129522380Y-84102380D01*
X129484285Y-84026190D01*
X129408095Y-83950000D01*
X129293809Y-83911904D01*
X129217619Y-83911904D01*
X129103333Y-83950000D01*
X129065238Y-83988095D01*
X128760476Y-83988095D02*
X128722380Y-83950000D01*
X128646190Y-83911904D01*
X128455714Y-83911904D01*
X128379523Y-83950000D01*
X128341428Y-83988095D01*
X128303333Y-84064285D01*
X128303333Y-84140476D01*
X128341428Y-84254761D01*
X128798571Y-84711904D01*
X128303333Y-84711904D01*
X127579523Y-83911904D02*
X127960476Y-83911904D01*
X127998571Y-84292857D01*
X127960476Y-84254761D01*
X127884285Y-84216666D01*
X127693809Y-84216666D01*
X127617619Y-84254761D01*
X127579523Y-84292857D01*
X127541428Y-84369047D01*
X127541428Y-84559523D01*
X127579523Y-84635714D01*
X127617619Y-84673809D01*
X127693809Y-84711904D01*
X127884285Y-84711904D01*
X127960476Y-84673809D01*
X127998571Y-84635714D01*
X127274761Y-83911904D02*
X126741428Y-83911904D01*
X127084285Y-84711904D01*
%TO.C,C258*%
X136635714Y-113354761D02*
X136673809Y-113316666D01*
X136711904Y-113202380D01*
X136711904Y-113126190D01*
X136673809Y-113011904D01*
X136597619Y-112935714D01*
X136521428Y-112897619D01*
X136369047Y-112859523D01*
X136254761Y-112859523D01*
X136102380Y-112897619D01*
X136026190Y-112935714D01*
X135950000Y-113011904D01*
X135911904Y-113126190D01*
X135911904Y-113202380D01*
X135950000Y-113316666D01*
X135988095Y-113354761D01*
X135988095Y-113659523D02*
X135950000Y-113697619D01*
X135911904Y-113773809D01*
X135911904Y-113964285D01*
X135950000Y-114040476D01*
X135988095Y-114078571D01*
X136064285Y-114116666D01*
X136140476Y-114116666D01*
X136254761Y-114078571D01*
X136711904Y-113621428D01*
X136711904Y-114116666D01*
X135911904Y-114840476D02*
X135911904Y-114459523D01*
X136292857Y-114421428D01*
X136254761Y-114459523D01*
X136216666Y-114535714D01*
X136216666Y-114726190D01*
X136254761Y-114802380D01*
X136292857Y-114840476D01*
X136369047Y-114878571D01*
X136559523Y-114878571D01*
X136635714Y-114840476D01*
X136673809Y-114802380D01*
X136711904Y-114726190D01*
X136711904Y-114535714D01*
X136673809Y-114459523D01*
X136635714Y-114421428D01*
X136254761Y-115335714D02*
X136216666Y-115259523D01*
X136178571Y-115221428D01*
X136102380Y-115183333D01*
X136064285Y-115183333D01*
X135988095Y-115221428D01*
X135950000Y-115259523D01*
X135911904Y-115335714D01*
X135911904Y-115488095D01*
X135950000Y-115564285D01*
X135988095Y-115602380D01*
X136064285Y-115640476D01*
X136102380Y-115640476D01*
X136178571Y-115602380D01*
X136216666Y-115564285D01*
X136254761Y-115488095D01*
X136254761Y-115335714D01*
X136292857Y-115259523D01*
X136330952Y-115221428D01*
X136407142Y-115183333D01*
X136559523Y-115183333D01*
X136635714Y-115221428D01*
X136673809Y-115259523D01*
X136711904Y-115335714D01*
X136711904Y-115488095D01*
X136673809Y-115564285D01*
X136635714Y-115602380D01*
X136559523Y-115640476D01*
X136407142Y-115640476D01*
X136330952Y-115602380D01*
X136292857Y-115564285D01*
X136254761Y-115488095D01*
%TO.C,C259*%
X141335714Y-113354761D02*
X141373809Y-113316666D01*
X141411904Y-113202380D01*
X141411904Y-113126190D01*
X141373809Y-113011904D01*
X141297619Y-112935714D01*
X141221428Y-112897619D01*
X141069047Y-112859523D01*
X140954761Y-112859523D01*
X140802380Y-112897619D01*
X140726190Y-112935714D01*
X140650000Y-113011904D01*
X140611904Y-113126190D01*
X140611904Y-113202380D01*
X140650000Y-113316666D01*
X140688095Y-113354761D01*
X140688095Y-113659523D02*
X140650000Y-113697619D01*
X140611904Y-113773809D01*
X140611904Y-113964285D01*
X140650000Y-114040476D01*
X140688095Y-114078571D01*
X140764285Y-114116666D01*
X140840476Y-114116666D01*
X140954761Y-114078571D01*
X141411904Y-113621428D01*
X141411904Y-114116666D01*
X140611904Y-114840476D02*
X140611904Y-114459523D01*
X140992857Y-114421428D01*
X140954761Y-114459523D01*
X140916666Y-114535714D01*
X140916666Y-114726190D01*
X140954761Y-114802380D01*
X140992857Y-114840476D01*
X141069047Y-114878571D01*
X141259523Y-114878571D01*
X141335714Y-114840476D01*
X141373809Y-114802380D01*
X141411904Y-114726190D01*
X141411904Y-114535714D01*
X141373809Y-114459523D01*
X141335714Y-114421428D01*
X141411904Y-115259523D02*
X141411904Y-115411904D01*
X141373809Y-115488095D01*
X141335714Y-115526190D01*
X141221428Y-115602380D01*
X141069047Y-115640476D01*
X140764285Y-115640476D01*
X140688095Y-115602380D01*
X140650000Y-115564285D01*
X140611904Y-115488095D01*
X140611904Y-115335714D01*
X140650000Y-115259523D01*
X140688095Y-115221428D01*
X140764285Y-115183333D01*
X140954761Y-115183333D01*
X141030952Y-115221428D01*
X141069047Y-115259523D01*
X141107142Y-115335714D01*
X141107142Y-115488095D01*
X141069047Y-115564285D01*
X141030952Y-115602380D01*
X140954761Y-115640476D01*
%TO.C,C418*%
X102995238Y-89435714D02*
X103033333Y-89473809D01*
X103147619Y-89511904D01*
X103223809Y-89511904D01*
X103338095Y-89473809D01*
X103414285Y-89397619D01*
X103452380Y-89321428D01*
X103490476Y-89169047D01*
X103490476Y-89054761D01*
X103452380Y-88902380D01*
X103414285Y-88826190D01*
X103338095Y-88750000D01*
X103223809Y-88711904D01*
X103147619Y-88711904D01*
X103033333Y-88750000D01*
X102995238Y-88788095D01*
X102309523Y-88978571D02*
X102309523Y-89511904D01*
X102500000Y-88673809D02*
X102690476Y-89245238D01*
X102195238Y-89245238D01*
X101471428Y-89511904D02*
X101928571Y-89511904D01*
X101700000Y-89511904D02*
X101700000Y-88711904D01*
X101776190Y-88826190D01*
X101852380Y-88902380D01*
X101928571Y-88940476D01*
X101014285Y-89054761D02*
X101090476Y-89016666D01*
X101128571Y-88978571D01*
X101166666Y-88902380D01*
X101166666Y-88864285D01*
X101128571Y-88788095D01*
X101090476Y-88750000D01*
X101014285Y-88711904D01*
X100861904Y-88711904D01*
X100785714Y-88750000D01*
X100747619Y-88788095D01*
X100709523Y-88864285D01*
X100709523Y-88902380D01*
X100747619Y-88978571D01*
X100785714Y-89016666D01*
X100861904Y-89054761D01*
X101014285Y-89054761D01*
X101090476Y-89092857D01*
X101128571Y-89130952D01*
X101166666Y-89207142D01*
X101166666Y-89359523D01*
X101128571Y-89435714D01*
X101090476Y-89473809D01*
X101014285Y-89511904D01*
X100861904Y-89511904D01*
X100785714Y-89473809D01*
X100747619Y-89435714D01*
X100709523Y-89359523D01*
X100709523Y-89207142D01*
X100747619Y-89130952D01*
X100785714Y-89092857D01*
X100861904Y-89054761D01*
%TO.C,C422*%
X102995238Y-91035714D02*
X103033333Y-91073809D01*
X103147619Y-91111904D01*
X103223809Y-91111904D01*
X103338095Y-91073809D01*
X103414285Y-90997619D01*
X103452380Y-90921428D01*
X103490476Y-90769047D01*
X103490476Y-90654761D01*
X103452380Y-90502380D01*
X103414285Y-90426190D01*
X103338095Y-90350000D01*
X103223809Y-90311904D01*
X103147619Y-90311904D01*
X103033333Y-90350000D01*
X102995238Y-90388095D01*
X102309523Y-90578571D02*
X102309523Y-91111904D01*
X102500000Y-90273809D02*
X102690476Y-90845238D01*
X102195238Y-90845238D01*
X101928571Y-90388095D02*
X101890476Y-90350000D01*
X101814285Y-90311904D01*
X101623809Y-90311904D01*
X101547619Y-90350000D01*
X101509523Y-90388095D01*
X101471428Y-90464285D01*
X101471428Y-90540476D01*
X101509523Y-90654761D01*
X101966666Y-91111904D01*
X101471428Y-91111904D01*
X101166666Y-90388095D02*
X101128571Y-90350000D01*
X101052380Y-90311904D01*
X100861904Y-90311904D01*
X100785714Y-90350000D01*
X100747619Y-90388095D01*
X100709523Y-90464285D01*
X100709523Y-90540476D01*
X100747619Y-90654761D01*
X101204761Y-91111904D01*
X100709523Y-91111904D01*
%TO.C,C426*%
X109195238Y-93985714D02*
X109233333Y-94023809D01*
X109347619Y-94061904D01*
X109423809Y-94061904D01*
X109538095Y-94023809D01*
X109614285Y-93947619D01*
X109652380Y-93871428D01*
X109690476Y-93719047D01*
X109690476Y-93604761D01*
X109652380Y-93452380D01*
X109614285Y-93376190D01*
X109538095Y-93300000D01*
X109423809Y-93261904D01*
X109347619Y-93261904D01*
X109233333Y-93300000D01*
X109195238Y-93338095D01*
X108509523Y-93528571D02*
X108509523Y-94061904D01*
X108700000Y-93223809D02*
X108890476Y-93795238D01*
X108395238Y-93795238D01*
X108128571Y-93338095D02*
X108090476Y-93300000D01*
X108014285Y-93261904D01*
X107823809Y-93261904D01*
X107747619Y-93300000D01*
X107709523Y-93338095D01*
X107671428Y-93414285D01*
X107671428Y-93490476D01*
X107709523Y-93604761D01*
X108166666Y-94061904D01*
X107671428Y-94061904D01*
X106985714Y-93261904D02*
X107138095Y-93261904D01*
X107214285Y-93300000D01*
X107252380Y-93338095D01*
X107328571Y-93452380D01*
X107366666Y-93604761D01*
X107366666Y-93909523D01*
X107328571Y-93985714D01*
X107290476Y-94023809D01*
X107214285Y-94061904D01*
X107061904Y-94061904D01*
X106985714Y-94023809D01*
X106947619Y-93985714D01*
X106909523Y-93909523D01*
X106909523Y-93719047D01*
X106947619Y-93642857D01*
X106985714Y-93604761D01*
X107061904Y-93566666D01*
X107214285Y-93566666D01*
X107290476Y-93604761D01*
X107328571Y-93642857D01*
X107366666Y-93719047D01*
%TO.C,C430*%
X102895238Y-87535714D02*
X102933333Y-87573809D01*
X103047619Y-87611904D01*
X103123809Y-87611904D01*
X103238095Y-87573809D01*
X103314285Y-87497619D01*
X103352380Y-87421428D01*
X103390476Y-87269047D01*
X103390476Y-87154761D01*
X103352380Y-87002380D01*
X103314285Y-86926190D01*
X103238095Y-86850000D01*
X103123809Y-86811904D01*
X103047619Y-86811904D01*
X102933333Y-86850000D01*
X102895238Y-86888095D01*
X102209523Y-87078571D02*
X102209523Y-87611904D01*
X102400000Y-86773809D02*
X102590476Y-87345238D01*
X102095238Y-87345238D01*
X101866666Y-86811904D02*
X101371428Y-86811904D01*
X101638095Y-87116666D01*
X101523809Y-87116666D01*
X101447619Y-87154761D01*
X101409523Y-87192857D01*
X101371428Y-87269047D01*
X101371428Y-87459523D01*
X101409523Y-87535714D01*
X101447619Y-87573809D01*
X101523809Y-87611904D01*
X101752380Y-87611904D01*
X101828571Y-87573809D01*
X101866666Y-87535714D01*
X100876190Y-86811904D02*
X100800000Y-86811904D01*
X100723809Y-86850000D01*
X100685714Y-86888095D01*
X100647619Y-86964285D01*
X100609523Y-87116666D01*
X100609523Y-87307142D01*
X100647619Y-87459523D01*
X100685714Y-87535714D01*
X100723809Y-87573809D01*
X100800000Y-87611904D01*
X100876190Y-87611904D01*
X100952380Y-87573809D01*
X100990476Y-87535714D01*
X101028571Y-87459523D01*
X101066666Y-87307142D01*
X101066666Y-87116666D01*
X101028571Y-86964285D01*
X100990476Y-86888095D01*
X100952380Y-86850000D01*
X100876190Y-86811904D01*
%TO.C,C434*%
X103045238Y-92535714D02*
X103083333Y-92573809D01*
X103197619Y-92611904D01*
X103273809Y-92611904D01*
X103388095Y-92573809D01*
X103464285Y-92497619D01*
X103502380Y-92421428D01*
X103540476Y-92269047D01*
X103540476Y-92154761D01*
X103502380Y-92002380D01*
X103464285Y-91926190D01*
X103388095Y-91850000D01*
X103273809Y-91811904D01*
X103197619Y-91811904D01*
X103083333Y-91850000D01*
X103045238Y-91888095D01*
X102359523Y-92078571D02*
X102359523Y-92611904D01*
X102550000Y-91773809D02*
X102740476Y-92345238D01*
X102245238Y-92345238D01*
X102016666Y-91811904D02*
X101521428Y-91811904D01*
X101788095Y-92116666D01*
X101673809Y-92116666D01*
X101597619Y-92154761D01*
X101559523Y-92192857D01*
X101521428Y-92269047D01*
X101521428Y-92459523D01*
X101559523Y-92535714D01*
X101597619Y-92573809D01*
X101673809Y-92611904D01*
X101902380Y-92611904D01*
X101978571Y-92573809D01*
X102016666Y-92535714D01*
X100835714Y-92078571D02*
X100835714Y-92611904D01*
X101026190Y-91773809D02*
X101216666Y-92345238D01*
X100721428Y-92345238D01*
%TO.C,FB201*%
X117528571Y-91942857D02*
X117795238Y-91942857D01*
X117795238Y-92361904D02*
X117795238Y-91561904D01*
X117414285Y-91561904D01*
X116842857Y-91942857D02*
X116728571Y-91980952D01*
X116690476Y-92019047D01*
X116652380Y-92095238D01*
X116652380Y-92209523D01*
X116690476Y-92285714D01*
X116728571Y-92323809D01*
X116804761Y-92361904D01*
X117109523Y-92361904D01*
X117109523Y-91561904D01*
X116842857Y-91561904D01*
X116766666Y-91600000D01*
X116728571Y-91638095D01*
X116690476Y-91714285D01*
X116690476Y-91790476D01*
X116728571Y-91866666D01*
X116766666Y-91904761D01*
X116842857Y-91942857D01*
X117109523Y-91942857D01*
X116347619Y-91638095D02*
X116309523Y-91600000D01*
X116233333Y-91561904D01*
X116042857Y-91561904D01*
X115966666Y-91600000D01*
X115928571Y-91638095D01*
X115890476Y-91714285D01*
X115890476Y-91790476D01*
X115928571Y-91904761D01*
X116385714Y-92361904D01*
X115890476Y-92361904D01*
X115395238Y-91561904D02*
X115319047Y-91561904D01*
X115242857Y-91600000D01*
X115204761Y-91638095D01*
X115166666Y-91714285D01*
X115128571Y-91866666D01*
X115128571Y-92057142D01*
X115166666Y-92209523D01*
X115204761Y-92285714D01*
X115242857Y-92323809D01*
X115319047Y-92361904D01*
X115395238Y-92361904D01*
X115471428Y-92323809D01*
X115509523Y-92285714D01*
X115547619Y-92209523D01*
X115585714Y-92057142D01*
X115585714Y-91866666D01*
X115547619Y-91714285D01*
X115509523Y-91638095D01*
X115471428Y-91600000D01*
X115395238Y-91561904D01*
X114366666Y-92361904D02*
X114823809Y-92361904D01*
X114595238Y-92361904D02*
X114595238Y-91561904D01*
X114671428Y-91676190D01*
X114747619Y-91752380D01*
X114823809Y-91790476D01*
%TO.C,FB202*%
X147678571Y-107892857D02*
X147945238Y-107892857D01*
X147945238Y-108311904D02*
X147945238Y-107511904D01*
X147564285Y-107511904D01*
X146992857Y-107892857D02*
X146878571Y-107930952D01*
X146840476Y-107969047D01*
X146802380Y-108045238D01*
X146802380Y-108159523D01*
X146840476Y-108235714D01*
X146878571Y-108273809D01*
X146954761Y-108311904D01*
X147259523Y-108311904D01*
X147259523Y-107511904D01*
X146992857Y-107511904D01*
X146916666Y-107550000D01*
X146878571Y-107588095D01*
X146840476Y-107664285D01*
X146840476Y-107740476D01*
X146878571Y-107816666D01*
X146916666Y-107854761D01*
X146992857Y-107892857D01*
X147259523Y-107892857D01*
X146497619Y-107588095D02*
X146459523Y-107550000D01*
X146383333Y-107511904D01*
X146192857Y-107511904D01*
X146116666Y-107550000D01*
X146078571Y-107588095D01*
X146040476Y-107664285D01*
X146040476Y-107740476D01*
X146078571Y-107854761D01*
X146535714Y-108311904D01*
X146040476Y-108311904D01*
X145545238Y-107511904D02*
X145469047Y-107511904D01*
X145392857Y-107550000D01*
X145354761Y-107588095D01*
X145316666Y-107664285D01*
X145278571Y-107816666D01*
X145278571Y-108007142D01*
X145316666Y-108159523D01*
X145354761Y-108235714D01*
X145392857Y-108273809D01*
X145469047Y-108311904D01*
X145545238Y-108311904D01*
X145621428Y-108273809D01*
X145659523Y-108235714D01*
X145697619Y-108159523D01*
X145735714Y-108007142D01*
X145735714Y-107816666D01*
X145697619Y-107664285D01*
X145659523Y-107588095D01*
X145621428Y-107550000D01*
X145545238Y-107511904D01*
X144973809Y-107588095D02*
X144935714Y-107550000D01*
X144859523Y-107511904D01*
X144669047Y-107511904D01*
X144592857Y-107550000D01*
X144554761Y-107588095D01*
X144516666Y-107664285D01*
X144516666Y-107740476D01*
X144554761Y-107854761D01*
X145011904Y-108311904D01*
X144516666Y-108311904D01*
%TO.C,FB203*%
X121078571Y-104192857D02*
X121345238Y-104192857D01*
X121345238Y-104611904D02*
X121345238Y-103811904D01*
X120964285Y-103811904D01*
X120392857Y-104192857D02*
X120278571Y-104230952D01*
X120240476Y-104269047D01*
X120202380Y-104345238D01*
X120202380Y-104459523D01*
X120240476Y-104535714D01*
X120278571Y-104573809D01*
X120354761Y-104611904D01*
X120659523Y-104611904D01*
X120659523Y-103811904D01*
X120392857Y-103811904D01*
X120316666Y-103850000D01*
X120278571Y-103888095D01*
X120240476Y-103964285D01*
X120240476Y-104040476D01*
X120278571Y-104116666D01*
X120316666Y-104154761D01*
X120392857Y-104192857D01*
X120659523Y-104192857D01*
X119897619Y-103888095D02*
X119859523Y-103850000D01*
X119783333Y-103811904D01*
X119592857Y-103811904D01*
X119516666Y-103850000D01*
X119478571Y-103888095D01*
X119440476Y-103964285D01*
X119440476Y-104040476D01*
X119478571Y-104154761D01*
X119935714Y-104611904D01*
X119440476Y-104611904D01*
X118945238Y-103811904D02*
X118869047Y-103811904D01*
X118792857Y-103850000D01*
X118754761Y-103888095D01*
X118716666Y-103964285D01*
X118678571Y-104116666D01*
X118678571Y-104307142D01*
X118716666Y-104459523D01*
X118754761Y-104535714D01*
X118792857Y-104573809D01*
X118869047Y-104611904D01*
X118945238Y-104611904D01*
X119021428Y-104573809D01*
X119059523Y-104535714D01*
X119097619Y-104459523D01*
X119135714Y-104307142D01*
X119135714Y-104116666D01*
X119097619Y-103964285D01*
X119059523Y-103888095D01*
X119021428Y-103850000D01*
X118945238Y-103811904D01*
X118411904Y-103811904D02*
X117916666Y-103811904D01*
X118183333Y-104116666D01*
X118069047Y-104116666D01*
X117992857Y-104154761D01*
X117954761Y-104192857D01*
X117916666Y-104269047D01*
X117916666Y-104459523D01*
X117954761Y-104535714D01*
X117992857Y-104573809D01*
X118069047Y-104611904D01*
X118297619Y-104611904D01*
X118373809Y-104573809D01*
X118411904Y-104535714D01*
%TO.C,FB204*%
X154278571Y-90092857D02*
X154545238Y-90092857D01*
X154545238Y-90511904D02*
X154545238Y-89711904D01*
X154164285Y-89711904D01*
X153592857Y-90092857D02*
X153478571Y-90130952D01*
X153440476Y-90169047D01*
X153402380Y-90245238D01*
X153402380Y-90359523D01*
X153440476Y-90435714D01*
X153478571Y-90473809D01*
X153554761Y-90511904D01*
X153859523Y-90511904D01*
X153859523Y-89711904D01*
X153592857Y-89711904D01*
X153516666Y-89750000D01*
X153478571Y-89788095D01*
X153440476Y-89864285D01*
X153440476Y-89940476D01*
X153478571Y-90016666D01*
X153516666Y-90054761D01*
X153592857Y-90092857D01*
X153859523Y-90092857D01*
X153097619Y-89788095D02*
X153059523Y-89750000D01*
X152983333Y-89711904D01*
X152792857Y-89711904D01*
X152716666Y-89750000D01*
X152678571Y-89788095D01*
X152640476Y-89864285D01*
X152640476Y-89940476D01*
X152678571Y-90054761D01*
X153135714Y-90511904D01*
X152640476Y-90511904D01*
X152145238Y-89711904D02*
X152069047Y-89711904D01*
X151992857Y-89750000D01*
X151954761Y-89788095D01*
X151916666Y-89864285D01*
X151878571Y-90016666D01*
X151878571Y-90207142D01*
X151916666Y-90359523D01*
X151954761Y-90435714D01*
X151992857Y-90473809D01*
X152069047Y-90511904D01*
X152145238Y-90511904D01*
X152221428Y-90473809D01*
X152259523Y-90435714D01*
X152297619Y-90359523D01*
X152335714Y-90207142D01*
X152335714Y-90016666D01*
X152297619Y-89864285D01*
X152259523Y-89788095D01*
X152221428Y-89750000D01*
X152145238Y-89711904D01*
X151192857Y-89978571D02*
X151192857Y-90511904D01*
X151383333Y-89673809D02*
X151573809Y-90245238D01*
X151078571Y-90245238D01*
%TO.C,FB205*%
X126742857Y-90171428D02*
X126742857Y-89904761D01*
X127161904Y-89904761D02*
X126361904Y-89904761D01*
X126361904Y-90285714D01*
X126742857Y-90857142D02*
X126780952Y-90971428D01*
X126819047Y-91009523D01*
X126895238Y-91047619D01*
X127009523Y-91047619D01*
X127085714Y-91009523D01*
X127123809Y-90971428D01*
X127161904Y-90895238D01*
X127161904Y-90590476D01*
X126361904Y-90590476D01*
X126361904Y-90857142D01*
X126400000Y-90933333D01*
X126438095Y-90971428D01*
X126514285Y-91009523D01*
X126590476Y-91009523D01*
X126666666Y-90971428D01*
X126704761Y-90933333D01*
X126742857Y-90857142D01*
X126742857Y-90590476D01*
X126438095Y-91352380D02*
X126400000Y-91390476D01*
X126361904Y-91466666D01*
X126361904Y-91657142D01*
X126400000Y-91733333D01*
X126438095Y-91771428D01*
X126514285Y-91809523D01*
X126590476Y-91809523D01*
X126704761Y-91771428D01*
X127161904Y-91314285D01*
X127161904Y-91809523D01*
X126361904Y-92304761D02*
X126361904Y-92380952D01*
X126400000Y-92457142D01*
X126438095Y-92495238D01*
X126514285Y-92533333D01*
X126666666Y-92571428D01*
X126857142Y-92571428D01*
X127009523Y-92533333D01*
X127085714Y-92495238D01*
X127123809Y-92457142D01*
X127161904Y-92380952D01*
X127161904Y-92304761D01*
X127123809Y-92228571D01*
X127085714Y-92190476D01*
X127009523Y-92152380D01*
X126857142Y-92114285D01*
X126666666Y-92114285D01*
X126514285Y-92152380D01*
X126438095Y-92190476D01*
X126400000Y-92228571D01*
X126361904Y-92304761D01*
X126361904Y-93295238D02*
X126361904Y-92914285D01*
X126742857Y-92876190D01*
X126704761Y-92914285D01*
X126666666Y-92990476D01*
X126666666Y-93180952D01*
X126704761Y-93257142D01*
X126742857Y-93295238D01*
X126819047Y-93333333D01*
X127009523Y-93333333D01*
X127085714Y-93295238D01*
X127123809Y-93257142D01*
X127161904Y-93180952D01*
X127161904Y-92990476D01*
X127123809Y-92914285D01*
X127085714Y-92876190D01*
%TO.C,FB206*%
X147628571Y-111192857D02*
X147895238Y-111192857D01*
X147895238Y-111611904D02*
X147895238Y-110811904D01*
X147514285Y-110811904D01*
X146942857Y-111192857D02*
X146828571Y-111230952D01*
X146790476Y-111269047D01*
X146752380Y-111345238D01*
X146752380Y-111459523D01*
X146790476Y-111535714D01*
X146828571Y-111573809D01*
X146904761Y-111611904D01*
X147209523Y-111611904D01*
X147209523Y-110811904D01*
X146942857Y-110811904D01*
X146866666Y-110850000D01*
X146828571Y-110888095D01*
X146790476Y-110964285D01*
X146790476Y-111040476D01*
X146828571Y-111116666D01*
X146866666Y-111154761D01*
X146942857Y-111192857D01*
X147209523Y-111192857D01*
X146447619Y-110888095D02*
X146409523Y-110850000D01*
X146333333Y-110811904D01*
X146142857Y-110811904D01*
X146066666Y-110850000D01*
X146028571Y-110888095D01*
X145990476Y-110964285D01*
X145990476Y-111040476D01*
X146028571Y-111154761D01*
X146485714Y-111611904D01*
X145990476Y-111611904D01*
X145495238Y-110811904D02*
X145419047Y-110811904D01*
X145342857Y-110850000D01*
X145304761Y-110888095D01*
X145266666Y-110964285D01*
X145228571Y-111116666D01*
X145228571Y-111307142D01*
X145266666Y-111459523D01*
X145304761Y-111535714D01*
X145342857Y-111573809D01*
X145419047Y-111611904D01*
X145495238Y-111611904D01*
X145571428Y-111573809D01*
X145609523Y-111535714D01*
X145647619Y-111459523D01*
X145685714Y-111307142D01*
X145685714Y-111116666D01*
X145647619Y-110964285D01*
X145609523Y-110888095D01*
X145571428Y-110850000D01*
X145495238Y-110811904D01*
X144542857Y-110811904D02*
X144695238Y-110811904D01*
X144771428Y-110850000D01*
X144809523Y-110888095D01*
X144885714Y-111002380D01*
X144923809Y-111154761D01*
X144923809Y-111459523D01*
X144885714Y-111535714D01*
X144847619Y-111573809D01*
X144771428Y-111611904D01*
X144619047Y-111611904D01*
X144542857Y-111573809D01*
X144504761Y-111535714D01*
X144466666Y-111459523D01*
X144466666Y-111269047D01*
X144504761Y-111192857D01*
X144542857Y-111154761D01*
X144619047Y-111116666D01*
X144771428Y-111116666D01*
X144847619Y-111154761D01*
X144885714Y-111192857D01*
X144923809Y-111269047D01*
%TO.C,FB207*%
X124278571Y-111142857D02*
X124545238Y-111142857D01*
X124545238Y-111561904D02*
X124545238Y-110761904D01*
X124164285Y-110761904D01*
X123592857Y-111142857D02*
X123478571Y-111180952D01*
X123440476Y-111219047D01*
X123402380Y-111295238D01*
X123402380Y-111409523D01*
X123440476Y-111485714D01*
X123478571Y-111523809D01*
X123554761Y-111561904D01*
X123859523Y-111561904D01*
X123859523Y-110761904D01*
X123592857Y-110761904D01*
X123516666Y-110800000D01*
X123478571Y-110838095D01*
X123440476Y-110914285D01*
X123440476Y-110990476D01*
X123478571Y-111066666D01*
X123516666Y-111104761D01*
X123592857Y-111142857D01*
X123859523Y-111142857D01*
X123097619Y-110838095D02*
X123059523Y-110800000D01*
X122983333Y-110761904D01*
X122792857Y-110761904D01*
X122716666Y-110800000D01*
X122678571Y-110838095D01*
X122640476Y-110914285D01*
X122640476Y-110990476D01*
X122678571Y-111104761D01*
X123135714Y-111561904D01*
X122640476Y-111561904D01*
X122145238Y-110761904D02*
X122069047Y-110761904D01*
X121992857Y-110800000D01*
X121954761Y-110838095D01*
X121916666Y-110914285D01*
X121878571Y-111066666D01*
X121878571Y-111257142D01*
X121916666Y-111409523D01*
X121954761Y-111485714D01*
X121992857Y-111523809D01*
X122069047Y-111561904D01*
X122145238Y-111561904D01*
X122221428Y-111523809D01*
X122259523Y-111485714D01*
X122297619Y-111409523D01*
X122335714Y-111257142D01*
X122335714Y-111066666D01*
X122297619Y-110914285D01*
X122259523Y-110838095D01*
X122221428Y-110800000D01*
X122145238Y-110761904D01*
X121611904Y-110761904D02*
X121078571Y-110761904D01*
X121421428Y-111561904D01*
%TO.C,FB208*%
X147178571Y-86742857D02*
X147445238Y-86742857D01*
X147445238Y-87161904D02*
X147445238Y-86361904D01*
X147064285Y-86361904D01*
X146492857Y-86742857D02*
X146378571Y-86780952D01*
X146340476Y-86819047D01*
X146302380Y-86895238D01*
X146302380Y-87009523D01*
X146340476Y-87085714D01*
X146378571Y-87123809D01*
X146454761Y-87161904D01*
X146759523Y-87161904D01*
X146759523Y-86361904D01*
X146492857Y-86361904D01*
X146416666Y-86400000D01*
X146378571Y-86438095D01*
X146340476Y-86514285D01*
X146340476Y-86590476D01*
X146378571Y-86666666D01*
X146416666Y-86704761D01*
X146492857Y-86742857D01*
X146759523Y-86742857D01*
X145997619Y-86438095D02*
X145959523Y-86400000D01*
X145883333Y-86361904D01*
X145692857Y-86361904D01*
X145616666Y-86400000D01*
X145578571Y-86438095D01*
X145540476Y-86514285D01*
X145540476Y-86590476D01*
X145578571Y-86704761D01*
X146035714Y-87161904D01*
X145540476Y-87161904D01*
X145045238Y-86361904D02*
X144969047Y-86361904D01*
X144892857Y-86400000D01*
X144854761Y-86438095D01*
X144816666Y-86514285D01*
X144778571Y-86666666D01*
X144778571Y-86857142D01*
X144816666Y-87009523D01*
X144854761Y-87085714D01*
X144892857Y-87123809D01*
X144969047Y-87161904D01*
X145045238Y-87161904D01*
X145121428Y-87123809D01*
X145159523Y-87085714D01*
X145197619Y-87009523D01*
X145235714Y-86857142D01*
X145235714Y-86666666D01*
X145197619Y-86514285D01*
X145159523Y-86438095D01*
X145121428Y-86400000D01*
X145045238Y-86361904D01*
X144321428Y-86704761D02*
X144397619Y-86666666D01*
X144435714Y-86628571D01*
X144473809Y-86552380D01*
X144473809Y-86514285D01*
X144435714Y-86438095D01*
X144397619Y-86400000D01*
X144321428Y-86361904D01*
X144169047Y-86361904D01*
X144092857Y-86400000D01*
X144054761Y-86438095D01*
X144016666Y-86514285D01*
X144016666Y-86552380D01*
X144054761Y-86628571D01*
X144092857Y-86666666D01*
X144169047Y-86704761D01*
X144321428Y-86704761D01*
X144397619Y-86742857D01*
X144435714Y-86780952D01*
X144473809Y-86857142D01*
X144473809Y-87009523D01*
X144435714Y-87085714D01*
X144397619Y-87123809D01*
X144321428Y-87161904D01*
X144169047Y-87161904D01*
X144092857Y-87123809D01*
X144054761Y-87085714D01*
X144016666Y-87009523D01*
X144016666Y-86857142D01*
X144054761Y-86780952D01*
X144092857Y-86742857D01*
X144169047Y-86704761D01*
%TO.C,FB403*%
X101642857Y-94821428D02*
X101642857Y-94554761D01*
X102061904Y-94554761D02*
X101261904Y-94554761D01*
X101261904Y-94935714D01*
X101642857Y-95507142D02*
X101680952Y-95621428D01*
X101719047Y-95659523D01*
X101795238Y-95697619D01*
X101909523Y-95697619D01*
X101985714Y-95659523D01*
X102023809Y-95621428D01*
X102061904Y-95545238D01*
X102061904Y-95240476D01*
X101261904Y-95240476D01*
X101261904Y-95507142D01*
X101300000Y-95583333D01*
X101338095Y-95621428D01*
X101414285Y-95659523D01*
X101490476Y-95659523D01*
X101566666Y-95621428D01*
X101604761Y-95583333D01*
X101642857Y-95507142D01*
X101642857Y-95240476D01*
X101528571Y-96383333D02*
X102061904Y-96383333D01*
X101223809Y-96192857D02*
X101795238Y-96002380D01*
X101795238Y-96497619D01*
X101261904Y-96954761D02*
X101261904Y-97030952D01*
X101300000Y-97107142D01*
X101338095Y-97145238D01*
X101414285Y-97183333D01*
X101566666Y-97221428D01*
X101757142Y-97221428D01*
X101909523Y-97183333D01*
X101985714Y-97145238D01*
X102023809Y-97107142D01*
X102061904Y-97030952D01*
X102061904Y-96954761D01*
X102023809Y-96878571D01*
X101985714Y-96840476D01*
X101909523Y-96802380D01*
X101757142Y-96764285D01*
X101566666Y-96764285D01*
X101414285Y-96802380D01*
X101338095Y-96840476D01*
X101300000Y-96878571D01*
X101261904Y-96954761D01*
X101261904Y-97488095D02*
X101261904Y-97983333D01*
X101566666Y-97716666D01*
X101566666Y-97830952D01*
X101604761Y-97907142D01*
X101642857Y-97945238D01*
X101719047Y-97983333D01*
X101909523Y-97983333D01*
X101985714Y-97945238D01*
X102023809Y-97907142D01*
X102061904Y-97830952D01*
X102061904Y-97602380D01*
X102023809Y-97526190D01*
X101985714Y-97488095D01*
%TO.C,R301*%
X112695238Y-79161904D02*
X112961904Y-78780952D01*
X113152380Y-79161904D02*
X113152380Y-78361904D01*
X112847619Y-78361904D01*
X112771428Y-78400000D01*
X112733333Y-78438095D01*
X112695238Y-78514285D01*
X112695238Y-78628571D01*
X112733333Y-78704761D01*
X112771428Y-78742857D01*
X112847619Y-78780952D01*
X113152380Y-78780952D01*
X112428571Y-78361904D02*
X111933333Y-78361904D01*
X112200000Y-78666666D01*
X112085714Y-78666666D01*
X112009523Y-78704761D01*
X111971428Y-78742857D01*
X111933333Y-78819047D01*
X111933333Y-79009523D01*
X111971428Y-79085714D01*
X112009523Y-79123809D01*
X112085714Y-79161904D01*
X112314285Y-79161904D01*
X112390476Y-79123809D01*
X112428571Y-79085714D01*
X111438095Y-78361904D02*
X111361904Y-78361904D01*
X111285714Y-78400000D01*
X111247619Y-78438095D01*
X111209523Y-78514285D01*
X111171428Y-78666666D01*
X111171428Y-78857142D01*
X111209523Y-79009523D01*
X111247619Y-79085714D01*
X111285714Y-79123809D01*
X111361904Y-79161904D01*
X111438095Y-79161904D01*
X111514285Y-79123809D01*
X111552380Y-79085714D01*
X111590476Y-79009523D01*
X111628571Y-78857142D01*
X111628571Y-78666666D01*
X111590476Y-78514285D01*
X111552380Y-78438095D01*
X111514285Y-78400000D01*
X111438095Y-78361904D01*
X110409523Y-79161904D02*
X110866666Y-79161904D01*
X110638095Y-79161904D02*
X110638095Y-78361904D01*
X110714285Y-78476190D01*
X110790476Y-78552380D01*
X110866666Y-78590476D01*
%TO.C,R302*%
X140045238Y-78761904D02*
X140311904Y-78380952D01*
X140502380Y-78761904D02*
X140502380Y-77961904D01*
X140197619Y-77961904D01*
X140121428Y-78000000D01*
X140083333Y-78038095D01*
X140045238Y-78114285D01*
X140045238Y-78228571D01*
X140083333Y-78304761D01*
X140121428Y-78342857D01*
X140197619Y-78380952D01*
X140502380Y-78380952D01*
X139778571Y-77961904D02*
X139283333Y-77961904D01*
X139550000Y-78266666D01*
X139435714Y-78266666D01*
X139359523Y-78304761D01*
X139321428Y-78342857D01*
X139283333Y-78419047D01*
X139283333Y-78609523D01*
X139321428Y-78685714D01*
X139359523Y-78723809D01*
X139435714Y-78761904D01*
X139664285Y-78761904D01*
X139740476Y-78723809D01*
X139778571Y-78685714D01*
X138788095Y-77961904D02*
X138711904Y-77961904D01*
X138635714Y-78000000D01*
X138597619Y-78038095D01*
X138559523Y-78114285D01*
X138521428Y-78266666D01*
X138521428Y-78457142D01*
X138559523Y-78609523D01*
X138597619Y-78685714D01*
X138635714Y-78723809D01*
X138711904Y-78761904D01*
X138788095Y-78761904D01*
X138864285Y-78723809D01*
X138902380Y-78685714D01*
X138940476Y-78609523D01*
X138978571Y-78457142D01*
X138978571Y-78266666D01*
X138940476Y-78114285D01*
X138902380Y-78038095D01*
X138864285Y-78000000D01*
X138788095Y-77961904D01*
X138216666Y-78038095D02*
X138178571Y-78000000D01*
X138102380Y-77961904D01*
X137911904Y-77961904D01*
X137835714Y-78000000D01*
X137797619Y-78038095D01*
X137759523Y-78114285D01*
X137759523Y-78190476D01*
X137797619Y-78304761D01*
X138254761Y-78761904D01*
X137759523Y-78761904D01*
%TO.C,R303*%
X126595238Y-121686904D02*
X126861904Y-121305952D01*
X127052380Y-121686904D02*
X127052380Y-120886904D01*
X126747619Y-120886904D01*
X126671428Y-120925000D01*
X126633333Y-120963095D01*
X126595238Y-121039285D01*
X126595238Y-121153571D01*
X126633333Y-121229761D01*
X126671428Y-121267857D01*
X126747619Y-121305952D01*
X127052380Y-121305952D01*
X126328571Y-120886904D02*
X125833333Y-120886904D01*
X126100000Y-121191666D01*
X125985714Y-121191666D01*
X125909523Y-121229761D01*
X125871428Y-121267857D01*
X125833333Y-121344047D01*
X125833333Y-121534523D01*
X125871428Y-121610714D01*
X125909523Y-121648809D01*
X125985714Y-121686904D01*
X126214285Y-121686904D01*
X126290476Y-121648809D01*
X126328571Y-121610714D01*
X125338095Y-120886904D02*
X125261904Y-120886904D01*
X125185714Y-120925000D01*
X125147619Y-120963095D01*
X125109523Y-121039285D01*
X125071428Y-121191666D01*
X125071428Y-121382142D01*
X125109523Y-121534523D01*
X125147619Y-121610714D01*
X125185714Y-121648809D01*
X125261904Y-121686904D01*
X125338095Y-121686904D01*
X125414285Y-121648809D01*
X125452380Y-121610714D01*
X125490476Y-121534523D01*
X125528571Y-121382142D01*
X125528571Y-121191666D01*
X125490476Y-121039285D01*
X125452380Y-120963095D01*
X125414285Y-120925000D01*
X125338095Y-120886904D01*
X124804761Y-120886904D02*
X124309523Y-120886904D01*
X124576190Y-121191666D01*
X124461904Y-121191666D01*
X124385714Y-121229761D01*
X124347619Y-121267857D01*
X124309523Y-121344047D01*
X124309523Y-121534523D01*
X124347619Y-121610714D01*
X124385714Y-121648809D01*
X124461904Y-121686904D01*
X124690476Y-121686904D01*
X124766666Y-121648809D01*
X124804761Y-121610714D01*
%TO.C,R304*%
X122786904Y-118604761D02*
X122405952Y-118338095D01*
X122786904Y-118147619D02*
X121986904Y-118147619D01*
X121986904Y-118452380D01*
X122025000Y-118528571D01*
X122063095Y-118566666D01*
X122139285Y-118604761D01*
X122253571Y-118604761D01*
X122329761Y-118566666D01*
X122367857Y-118528571D01*
X122405952Y-118452380D01*
X122405952Y-118147619D01*
X121986904Y-118871428D02*
X121986904Y-119366666D01*
X122291666Y-119100000D01*
X122291666Y-119214285D01*
X122329761Y-119290476D01*
X122367857Y-119328571D01*
X122444047Y-119366666D01*
X122634523Y-119366666D01*
X122710714Y-119328571D01*
X122748809Y-119290476D01*
X122786904Y-119214285D01*
X122786904Y-118985714D01*
X122748809Y-118909523D01*
X122710714Y-118871428D01*
X121986904Y-119861904D02*
X121986904Y-119938095D01*
X122025000Y-120014285D01*
X122063095Y-120052380D01*
X122139285Y-120090476D01*
X122291666Y-120128571D01*
X122482142Y-120128571D01*
X122634523Y-120090476D01*
X122710714Y-120052380D01*
X122748809Y-120014285D01*
X122786904Y-119938095D01*
X122786904Y-119861904D01*
X122748809Y-119785714D01*
X122710714Y-119747619D01*
X122634523Y-119709523D01*
X122482142Y-119671428D01*
X122291666Y-119671428D01*
X122139285Y-119709523D01*
X122063095Y-119747619D01*
X122025000Y-119785714D01*
X121986904Y-119861904D01*
X122253571Y-120814285D02*
X122786904Y-120814285D01*
X121948809Y-120623809D02*
X122520238Y-120433333D01*
X122520238Y-120928571D01*
%TO.C,R305*%
X133570238Y-121711904D02*
X133836904Y-121330952D01*
X134027380Y-121711904D02*
X134027380Y-120911904D01*
X133722619Y-120911904D01*
X133646428Y-120950000D01*
X133608333Y-120988095D01*
X133570238Y-121064285D01*
X133570238Y-121178571D01*
X133608333Y-121254761D01*
X133646428Y-121292857D01*
X133722619Y-121330952D01*
X134027380Y-121330952D01*
X133303571Y-120911904D02*
X132808333Y-120911904D01*
X133075000Y-121216666D01*
X132960714Y-121216666D01*
X132884523Y-121254761D01*
X132846428Y-121292857D01*
X132808333Y-121369047D01*
X132808333Y-121559523D01*
X132846428Y-121635714D01*
X132884523Y-121673809D01*
X132960714Y-121711904D01*
X133189285Y-121711904D01*
X133265476Y-121673809D01*
X133303571Y-121635714D01*
X132313095Y-120911904D02*
X132236904Y-120911904D01*
X132160714Y-120950000D01*
X132122619Y-120988095D01*
X132084523Y-121064285D01*
X132046428Y-121216666D01*
X132046428Y-121407142D01*
X132084523Y-121559523D01*
X132122619Y-121635714D01*
X132160714Y-121673809D01*
X132236904Y-121711904D01*
X132313095Y-121711904D01*
X132389285Y-121673809D01*
X132427380Y-121635714D01*
X132465476Y-121559523D01*
X132503571Y-121407142D01*
X132503571Y-121216666D01*
X132465476Y-121064285D01*
X132427380Y-120988095D01*
X132389285Y-120950000D01*
X132313095Y-120911904D01*
X131322619Y-120911904D02*
X131703571Y-120911904D01*
X131741666Y-121292857D01*
X131703571Y-121254761D01*
X131627380Y-121216666D01*
X131436904Y-121216666D01*
X131360714Y-121254761D01*
X131322619Y-121292857D01*
X131284523Y-121369047D01*
X131284523Y-121559523D01*
X131322619Y-121635714D01*
X131360714Y-121673809D01*
X131436904Y-121711904D01*
X131627380Y-121711904D01*
X131703571Y-121673809D01*
X131741666Y-121635714D01*
%TO.C,R306*%
X136061904Y-118554761D02*
X135680952Y-118288095D01*
X136061904Y-118097619D02*
X135261904Y-118097619D01*
X135261904Y-118402380D01*
X135300000Y-118478571D01*
X135338095Y-118516666D01*
X135414285Y-118554761D01*
X135528571Y-118554761D01*
X135604761Y-118516666D01*
X135642857Y-118478571D01*
X135680952Y-118402380D01*
X135680952Y-118097619D01*
X135261904Y-118821428D02*
X135261904Y-119316666D01*
X135566666Y-119050000D01*
X135566666Y-119164285D01*
X135604761Y-119240476D01*
X135642857Y-119278571D01*
X135719047Y-119316666D01*
X135909523Y-119316666D01*
X135985714Y-119278571D01*
X136023809Y-119240476D01*
X136061904Y-119164285D01*
X136061904Y-118935714D01*
X136023809Y-118859523D01*
X135985714Y-118821428D01*
X135261904Y-119811904D02*
X135261904Y-119888095D01*
X135300000Y-119964285D01*
X135338095Y-120002380D01*
X135414285Y-120040476D01*
X135566666Y-120078571D01*
X135757142Y-120078571D01*
X135909523Y-120040476D01*
X135985714Y-120002380D01*
X136023809Y-119964285D01*
X136061904Y-119888095D01*
X136061904Y-119811904D01*
X136023809Y-119735714D01*
X135985714Y-119697619D01*
X135909523Y-119659523D01*
X135757142Y-119621428D01*
X135566666Y-119621428D01*
X135414285Y-119659523D01*
X135338095Y-119697619D01*
X135300000Y-119735714D01*
X135261904Y-119811904D01*
X135261904Y-120764285D02*
X135261904Y-120611904D01*
X135300000Y-120535714D01*
X135338095Y-120497619D01*
X135452380Y-120421428D01*
X135604761Y-120383333D01*
X135909523Y-120383333D01*
X135985714Y-120421428D01*
X136023809Y-120459523D01*
X136061904Y-120535714D01*
X136061904Y-120688095D01*
X136023809Y-120764285D01*
X135985714Y-120802380D01*
X135909523Y-120840476D01*
X135719047Y-120840476D01*
X135642857Y-120802380D01*
X135604761Y-120764285D01*
X135566666Y-120688095D01*
X135566666Y-120535714D01*
X135604761Y-120459523D01*
X135642857Y-120421428D01*
X135719047Y-120383333D01*
%TO.C,CN302*%
D13*
X149310759Y-78527642D02*
X149368211Y-78585095D01*
X149540569Y-78642547D01*
X149655473Y-78642547D01*
X149827830Y-78585095D01*
X149942735Y-78470190D01*
X150000188Y-78355285D01*
X150057640Y-78125476D01*
X150057640Y-77953119D01*
X150000188Y-77723309D01*
X149942735Y-77608404D01*
X149827830Y-77493500D01*
X149655473Y-77436047D01*
X149540569Y-77436047D01*
X149368211Y-77493500D01*
X149310759Y-77550952D01*
X148793688Y-78642547D02*
X148793688Y-77436047D01*
X148104259Y-78642547D01*
X148104259Y-77436047D01*
X147644640Y-77436047D02*
X146897759Y-77436047D01*
X147299926Y-77895666D01*
X147127569Y-77895666D01*
X147012664Y-77953119D01*
X146955211Y-78010571D01*
X146897759Y-78125476D01*
X146897759Y-78412738D01*
X146955211Y-78527642D01*
X147012664Y-78585095D01*
X147127569Y-78642547D01*
X147472283Y-78642547D01*
X147587188Y-78585095D01*
X147644640Y-78527642D01*
X146150878Y-77436047D02*
X146035973Y-77436047D01*
X145921069Y-77493500D01*
X145863616Y-77550952D01*
X145806164Y-77665857D01*
X145748711Y-77895666D01*
X145748711Y-78182928D01*
X145806164Y-78412738D01*
X145863616Y-78527642D01*
X145921069Y-78585095D01*
X146035973Y-78642547D01*
X146150878Y-78642547D01*
X146265783Y-78585095D01*
X146323235Y-78527642D01*
X146380688Y-78412738D01*
X146438140Y-78182928D01*
X146438140Y-77895666D01*
X146380688Y-77665857D01*
X146323235Y-77550952D01*
X146265783Y-77493500D01*
X146150878Y-77436047D01*
X145289092Y-77550952D02*
X145231640Y-77493500D01*
X145116735Y-77436047D01*
X144829473Y-77436047D01*
X144714569Y-77493500D01*
X144657116Y-77550952D01*
X144599664Y-77665857D01*
X144599664Y-77780761D01*
X144657116Y-77953119D01*
X145346545Y-78642547D01*
X144599664Y-78642547D01*
%TO.C,R307*%
D11*
X129695238Y-121711904D02*
X129961904Y-121330952D01*
X130152380Y-121711904D02*
X130152380Y-120911904D01*
X129847619Y-120911904D01*
X129771428Y-120950000D01*
X129733333Y-120988095D01*
X129695238Y-121064285D01*
X129695238Y-121178571D01*
X129733333Y-121254761D01*
X129771428Y-121292857D01*
X129847619Y-121330952D01*
X130152380Y-121330952D01*
X129428571Y-120911904D02*
X128933333Y-120911904D01*
X129200000Y-121216666D01*
X129085714Y-121216666D01*
X129009523Y-121254761D01*
X128971428Y-121292857D01*
X128933333Y-121369047D01*
X128933333Y-121559523D01*
X128971428Y-121635714D01*
X129009523Y-121673809D01*
X129085714Y-121711904D01*
X129314285Y-121711904D01*
X129390476Y-121673809D01*
X129428571Y-121635714D01*
X128438095Y-120911904D02*
X128361904Y-120911904D01*
X128285714Y-120950000D01*
X128247619Y-120988095D01*
X128209523Y-121064285D01*
X128171428Y-121216666D01*
X128171428Y-121407142D01*
X128209523Y-121559523D01*
X128247619Y-121635714D01*
X128285714Y-121673809D01*
X128361904Y-121711904D01*
X128438095Y-121711904D01*
X128514285Y-121673809D01*
X128552380Y-121635714D01*
X128590476Y-121559523D01*
X128628571Y-121407142D01*
X128628571Y-121216666D01*
X128590476Y-121064285D01*
X128552380Y-120988095D01*
X128514285Y-120950000D01*
X128438095Y-120911904D01*
X127904761Y-120911904D02*
X127371428Y-120911904D01*
X127714285Y-121711904D01*
%TO.C,R308*%
X131536904Y-118579761D02*
X131155952Y-118313095D01*
X131536904Y-118122619D02*
X130736904Y-118122619D01*
X130736904Y-118427380D01*
X130775000Y-118503571D01*
X130813095Y-118541666D01*
X130889285Y-118579761D01*
X131003571Y-118579761D01*
X131079761Y-118541666D01*
X131117857Y-118503571D01*
X131155952Y-118427380D01*
X131155952Y-118122619D01*
X130736904Y-118846428D02*
X130736904Y-119341666D01*
X131041666Y-119075000D01*
X131041666Y-119189285D01*
X131079761Y-119265476D01*
X131117857Y-119303571D01*
X131194047Y-119341666D01*
X131384523Y-119341666D01*
X131460714Y-119303571D01*
X131498809Y-119265476D01*
X131536904Y-119189285D01*
X131536904Y-118960714D01*
X131498809Y-118884523D01*
X131460714Y-118846428D01*
X130736904Y-119836904D02*
X130736904Y-119913095D01*
X130775000Y-119989285D01*
X130813095Y-120027380D01*
X130889285Y-120065476D01*
X131041666Y-120103571D01*
X131232142Y-120103571D01*
X131384523Y-120065476D01*
X131460714Y-120027380D01*
X131498809Y-119989285D01*
X131536904Y-119913095D01*
X131536904Y-119836904D01*
X131498809Y-119760714D01*
X131460714Y-119722619D01*
X131384523Y-119684523D01*
X131232142Y-119646428D01*
X131041666Y-119646428D01*
X130889285Y-119684523D01*
X130813095Y-119722619D01*
X130775000Y-119760714D01*
X130736904Y-119836904D01*
X131079761Y-120560714D02*
X131041666Y-120484523D01*
X131003571Y-120446428D01*
X130927380Y-120408333D01*
X130889285Y-120408333D01*
X130813095Y-120446428D01*
X130775000Y-120484523D01*
X130736904Y-120560714D01*
X130736904Y-120713095D01*
X130775000Y-120789285D01*
X130813095Y-120827380D01*
X130889285Y-120865476D01*
X130927380Y-120865476D01*
X131003571Y-120827380D01*
X131041666Y-120789285D01*
X131079761Y-120713095D01*
X131079761Y-120560714D01*
X131117857Y-120484523D01*
X131155952Y-120446428D01*
X131232142Y-120408333D01*
X131384523Y-120408333D01*
X131460714Y-120446428D01*
X131498809Y-120484523D01*
X131536904Y-120560714D01*
X131536904Y-120713095D01*
X131498809Y-120789285D01*
X131460714Y-120827380D01*
X131384523Y-120865476D01*
X131232142Y-120865476D01*
X131155952Y-120827380D01*
X131117857Y-120789285D01*
X131079761Y-120713095D01*
%TD*%
M02*
