%TF.GenerationSoftware,KiCad,Pcbnew,(5.1.6)-1*%
%TF.CreationDate,2020-10-01T20:42:35+02:00*%
%TF.ProjectId,Radioberry,52616469-6f62-4657-9272-792e6b696361,rev?*%
%TF.SameCoordinates,Original*%
%TF.FileFunction,Paste,Bot*%
%TF.FilePolarity,Positive*%
%FSLAX46Y46*%
G04 Gerber Fmt 4.6, Leading zero omitted, Abs format (unit mm)*
G04 Created by KiCad (PCBNEW (5.1.6)-1) date 2020-10-01 20:42:35*
%MOMM*%
%LPD*%
G01*
G04 APERTURE LIST*
%ADD10R,0.571500X1.028700*%
%ADD11R,1.028700X0.571500*%
G04 APERTURE END LIST*
D10*
%TO.C,C221*%
X127254000Y-101092000D03*
X128778000Y-101092000D03*
%TD*%
D11*
%TO.C,C222*%
X134874000Y-90678000D03*
X134874000Y-92202000D03*
%TD*%
%TO.C,C223*%
X134112000Y-106934000D03*
X134112000Y-105410000D03*
%TD*%
D10*
%TO.C,C224*%
X127254000Y-97028000D03*
X128778000Y-97028000D03*
%TD*%
D11*
%TO.C,C225*%
X131826000Y-106934000D03*
X131826000Y-105410000D03*
%TD*%
D10*
%TO.C,C226*%
X141732000Y-102870000D03*
X140208000Y-102870000D03*
%TD*%
%TO.C,C227*%
X141224000Y-90424000D03*
X142748000Y-90424000D03*
%TD*%
%TO.C,C228*%
X150372000Y-94660000D03*
X148848000Y-94660000D03*
%TD*%
%TO.C,C229*%
X141732000Y-98806000D03*
X140208000Y-98806000D03*
%TD*%
%TO.C,C230*%
X149078000Y-101380000D03*
X150602000Y-101380000D03*
%TD*%
%TO.C,C231*%
X141732000Y-100838000D03*
X140208000Y-100838000D03*
%TD*%
%TO.C,C232*%
X120602000Y-90220000D03*
X119078000Y-90220000D03*
%TD*%
%TO.C,C233*%
X119058000Y-107430000D03*
X120582000Y-107430000D03*
%TD*%
%TO.C,C234*%
X128270000Y-107950000D03*
X126746000Y-107950000D03*
%TD*%
%TO.C,C235*%
X127254000Y-103124000D03*
X128778000Y-103124000D03*
%TD*%
D11*
%TO.C,C236*%
X138684000Y-106934000D03*
X138684000Y-105410000D03*
%TD*%
D10*
%TO.C,C237*%
X141732000Y-96774000D03*
X140208000Y-96774000D03*
%TD*%
%TO.C,C238*%
X149108000Y-103360000D03*
X150632000Y-103360000D03*
%TD*%
%TO.C,C239*%
X150632000Y-105250000D03*
X149108000Y-105250000D03*
%TD*%
%TO.C,C240*%
X140970000Y-107696000D03*
X142494000Y-107696000D03*
%TD*%
%TO.C,C241*%
X127254000Y-99060000D03*
X128778000Y-99060000D03*
%TD*%
D11*
%TO.C,C242*%
X136906000Y-90678000D03*
X136906000Y-92202000D03*
%TD*%
%TO.C,C243*%
X136398000Y-106934000D03*
X136398000Y-105410000D03*
%TD*%
D10*
%TO.C,C244*%
X120622000Y-109160000D03*
X119098000Y-109160000D03*
%TD*%
%TO.C,C245*%
X119098000Y-88250000D03*
X120622000Y-88250000D03*
%TD*%
D11*
%TO.C,C246*%
X124040000Y-87138000D03*
X124040000Y-88662000D03*
%TD*%
D10*
%TO.C,C247*%
X148848000Y-92790000D03*
X150372000Y-92790000D03*
%TD*%
D11*
%TO.C,C248*%
X129830000Y-110388000D03*
X129830000Y-111912000D03*
%TD*%
%TO.C,C249*%
X138880000Y-110338000D03*
X138880000Y-111862000D03*
%TD*%
%TO.C,C250*%
X139700000Y-85598000D03*
X139700000Y-87122000D03*
%TD*%
%TO.C,C251*%
X132080000Y-85598000D03*
X132080000Y-87122000D03*
%TD*%
D10*
%TO.C,C252*%
X123672000Y-94400000D03*
X122148000Y-94400000D03*
%TD*%
%TO.C,C253*%
X123992000Y-100470000D03*
X122468000Y-100470000D03*
%TD*%
%TO.C,C254*%
X145288000Y-100330000D03*
X146812000Y-100330000D03*
%TD*%
%TO.C,C255*%
X145288000Y-95250000D03*
X146812000Y-95250000D03*
%TD*%
D11*
%TO.C,C256*%
X135890000Y-85598000D03*
X135890000Y-87122000D03*
%TD*%
%TO.C,C257*%
X129540000Y-85598000D03*
X129540000Y-87122000D03*
%TD*%
%TO.C,C258*%
X136210000Y-110378000D03*
X136210000Y-111902000D03*
%TD*%
%TO.C,C259*%
X140890000Y-110308000D03*
X140890000Y-111832000D03*
%TD*%
D10*
%TO.C,C418*%
X104668000Y-88950000D03*
X106192000Y-88950000D03*
%TD*%
%TO.C,C422*%
X104678000Y-90610000D03*
X106202000Y-90610000D03*
%TD*%
%TO.C,C426*%
X104678000Y-94020000D03*
X106202000Y-94020000D03*
%TD*%
%TO.C,C430*%
X104658000Y-87330000D03*
X106182000Y-87330000D03*
%TD*%
%TO.C,C434*%
X104668000Y-92260000D03*
X106192000Y-92260000D03*
%TD*%
%TO.C,FB201*%
X119068000Y-92090000D03*
X120592000Y-92090000D03*
%TD*%
%TO.C,FB202*%
X145388000Y-106510000D03*
X146912000Y-106510000D03*
%TD*%
%TO.C,FB203*%
X119008000Y-105700000D03*
X120532000Y-105700000D03*
%TD*%
%TO.C,FB204*%
X150342000Y-90290000D03*
X148818000Y-90290000D03*
%TD*%
D11*
%TO.C,FB205*%
X128240000Y-90818000D03*
X128240000Y-92342000D03*
%TD*%
D10*
%TO.C,FB206*%
X146862000Y-109650000D03*
X145338000Y-109650000D03*
%TD*%
%TO.C,FB207*%
X122338000Y-109650000D03*
X123862000Y-109650000D03*
%TD*%
%TO.C,FB208*%
X146762000Y-88450000D03*
X145238000Y-88450000D03*
%TD*%
D11*
%TO.C,FB403*%
X103510000Y-95408000D03*
X103510000Y-96932000D03*
%TD*%
D10*
%TO.C,R301*%
X115952000Y-79000000D03*
X114428000Y-79000000D03*
%TD*%
%TO.C,R302*%
X143222000Y-78440000D03*
X141698000Y-78440000D03*
%TD*%
D11*
%TO.C,R303*%
X123750000Y-120262000D03*
X123750000Y-118738000D03*
%TD*%
%TO.C,R304*%
X125750000Y-120262000D03*
X125750000Y-118738000D03*
%TD*%
%TO.C,R305*%
X132250000Y-120262000D03*
X132250000Y-118738000D03*
%TD*%
%TO.C,R306*%
X134250000Y-120262000D03*
X134250000Y-118738000D03*
%TD*%
%TO.C,R307*%
X128000000Y-120262000D03*
X128000000Y-118738000D03*
%TD*%
%TO.C,R308*%
X130000000Y-120262000D03*
X130000000Y-118738000D03*
%TD*%
M02*
