%TF.GenerationSoftware,KiCad,Pcbnew,(5.1.6)-1*%
%TF.CreationDate,2020-10-01T20:42:35+02:00*%
%TF.ProjectId,Radioberry,52616469-6f62-4657-9272-792e6b696361,rev?*%
%TF.SameCoordinates,Original*%
%TF.FileFunction,Legend,Top*%
%TF.FilePolarity,Positive*%
%FSLAX46Y46*%
G04 Gerber Fmt 4.6, Leading zero omitted, Abs format (unit mm)*
G04 Created by KiCad (PCBNEW (5.1.6)-1) date 2020-10-01 20:42:35*
%MOMM*%
%LPD*%
G01*
G04 APERTURE LIST*
%ADD10C,0.300000*%
%ADD11C,0.100000*%
%ADD12C,0.152400*%
%ADD13C,0.203200*%
%ADD14C,0.150000*%
%ADD15C,0.010000*%
%ADD16C,0.127000*%
%ADD17C,0.101600*%
%ADD18C,0.125000*%
G04 APERTURE END LIST*
D10*
X127407142Y-84828571D02*
X126907142Y-84114285D01*
X126550000Y-84828571D02*
X126550000Y-83328571D01*
X127121428Y-83328571D01*
X127264285Y-83400000D01*
X127335714Y-83471428D01*
X127407142Y-83614285D01*
X127407142Y-83828571D01*
X127335714Y-83971428D01*
X127264285Y-84042857D01*
X127121428Y-84114285D01*
X126550000Y-84114285D01*
X127978571Y-84400000D02*
X128692857Y-84400000D01*
X127835714Y-84828571D02*
X128335714Y-83328571D01*
X128835714Y-84828571D01*
X129335714Y-84828571D02*
X129335714Y-83328571D01*
X129692857Y-83328571D01*
X129907142Y-83400000D01*
X130050000Y-83542857D01*
X130121428Y-83685714D01*
X130192857Y-83971428D01*
X130192857Y-84185714D01*
X130121428Y-84471428D01*
X130050000Y-84614285D01*
X129907142Y-84757142D01*
X129692857Y-84828571D01*
X129335714Y-84828571D01*
X130835714Y-84828571D02*
X130835714Y-83328571D01*
X131835714Y-83328571D02*
X132121428Y-83328571D01*
X132264285Y-83400000D01*
X132407142Y-83542857D01*
X132478571Y-83828571D01*
X132478571Y-84328571D01*
X132407142Y-84614285D01*
X132264285Y-84757142D01*
X132121428Y-84828571D01*
X131835714Y-84828571D01*
X131692857Y-84757142D01*
X131550000Y-84614285D01*
X131478571Y-84328571D01*
X131478571Y-83828571D01*
X131550000Y-83542857D01*
X131692857Y-83400000D01*
X131835714Y-83328571D01*
X133621428Y-84042857D02*
X133835714Y-84114285D01*
X133907142Y-84185714D01*
X133978571Y-84328571D01*
X133978571Y-84542857D01*
X133907142Y-84685714D01*
X133835714Y-84757142D01*
X133692857Y-84828571D01*
X133121428Y-84828571D01*
X133121428Y-83328571D01*
X133621428Y-83328571D01*
X133764285Y-83400000D01*
X133835714Y-83471428D01*
X133907142Y-83614285D01*
X133907142Y-83757142D01*
X133835714Y-83900000D01*
X133764285Y-83971428D01*
X133621428Y-84042857D01*
X133121428Y-84042857D01*
X134621428Y-84042857D02*
X135121428Y-84042857D01*
X135335714Y-84828571D02*
X134621428Y-84828571D01*
X134621428Y-83328571D01*
X135335714Y-83328571D01*
X136835714Y-84828571D02*
X136335714Y-84114285D01*
X135978571Y-84828571D02*
X135978571Y-83328571D01*
X136550000Y-83328571D01*
X136692857Y-83400000D01*
X136764285Y-83471428D01*
X136835714Y-83614285D01*
X136835714Y-83828571D01*
X136764285Y-83971428D01*
X136692857Y-84042857D01*
X136550000Y-84114285D01*
X135978571Y-84114285D01*
X138335714Y-84828571D02*
X137835714Y-84114285D01*
X137478571Y-84828571D02*
X137478571Y-83328571D01*
X138050000Y-83328571D01*
X138192857Y-83400000D01*
X138264285Y-83471428D01*
X138335714Y-83614285D01*
X138335714Y-83828571D01*
X138264285Y-83971428D01*
X138192857Y-84042857D01*
X138050000Y-84114285D01*
X137478571Y-84114285D01*
X139264285Y-84114285D02*
X139264285Y-84828571D01*
X138764285Y-83328571D02*
X139264285Y-84114285D01*
X139764285Y-83328571D01*
X123704285Y-116468571D02*
X124061428Y-117968571D01*
X124347142Y-116897142D01*
X124632857Y-117968571D01*
X124990000Y-116468571D01*
X125418571Y-116468571D02*
X125775714Y-117968571D01*
X126061428Y-116897142D01*
X126347142Y-117968571D01*
X126704285Y-116468571D01*
X127132857Y-116468571D02*
X127490000Y-117968571D01*
X127775714Y-116897142D01*
X128061428Y-117968571D01*
X128418571Y-116468571D01*
X128990000Y-117825714D02*
X129061428Y-117897142D01*
X128990000Y-117968571D01*
X128918571Y-117897142D01*
X128990000Y-117825714D01*
X128990000Y-117968571D01*
X129704285Y-117968571D02*
X129704285Y-116468571D01*
X130275714Y-116468571D01*
X130418571Y-116540000D01*
X130490000Y-116611428D01*
X130561428Y-116754285D01*
X130561428Y-116968571D01*
X130490000Y-117111428D01*
X130418571Y-117182857D01*
X130275714Y-117254285D01*
X129704285Y-117254285D01*
X131132857Y-117540000D02*
X131847142Y-117540000D01*
X130990000Y-117968571D02*
X131490000Y-116468571D01*
X131990000Y-117968571D01*
X132347142Y-116468571D02*
X133275714Y-116468571D01*
X132775714Y-117040000D01*
X132990000Y-117040000D01*
X133132857Y-117111428D01*
X133204285Y-117182857D01*
X133275714Y-117325714D01*
X133275714Y-117682857D01*
X133204285Y-117825714D01*
X133132857Y-117897142D01*
X132990000Y-117968571D01*
X132561428Y-117968571D01*
X132418571Y-117897142D01*
X132347142Y-117825714D01*
X134704285Y-116540000D02*
X134561428Y-116468571D01*
X134347142Y-116468571D01*
X134132857Y-116540000D01*
X133990000Y-116682857D01*
X133918571Y-116825714D01*
X133847142Y-117111428D01*
X133847142Y-117325714D01*
X133918571Y-117611428D01*
X133990000Y-117754285D01*
X134132857Y-117897142D01*
X134347142Y-117968571D01*
X134490000Y-117968571D01*
X134704285Y-117897142D01*
X134775714Y-117825714D01*
X134775714Y-117325714D01*
X134490000Y-117325714D01*
X135347142Y-117897142D02*
X135561428Y-117968571D01*
X135918571Y-117968571D01*
X136061428Y-117897142D01*
X136132857Y-117825714D01*
X136204285Y-117682857D01*
X136204285Y-117540000D01*
X136132857Y-117397142D01*
X136061428Y-117325714D01*
X135918571Y-117254285D01*
X135632857Y-117182857D01*
X135490000Y-117111428D01*
X135418571Y-117040000D01*
X135347142Y-116897142D01*
X135347142Y-116754285D01*
X135418571Y-116611428D01*
X135490000Y-116540000D01*
X135632857Y-116468571D01*
X135990000Y-116468571D01*
X136204285Y-116540000D01*
X137347142Y-117182857D02*
X137561428Y-117254285D01*
X137632857Y-117325714D01*
X137704285Y-117468571D01*
X137704285Y-117682857D01*
X137632857Y-117825714D01*
X137561428Y-117897142D01*
X137418571Y-117968571D01*
X136847142Y-117968571D01*
X136847142Y-116468571D01*
X137347142Y-116468571D01*
X137490000Y-116540000D01*
X137561428Y-116611428D01*
X137632857Y-116754285D01*
X137632857Y-116897142D01*
X137561428Y-117040000D01*
X137490000Y-117111428D01*
X137347142Y-117182857D01*
X136847142Y-117182857D01*
X138347142Y-117825714D02*
X138418571Y-117897142D01*
X138347142Y-117968571D01*
X138275714Y-117897142D01*
X138347142Y-117825714D01*
X138347142Y-117968571D01*
X139061428Y-117968571D02*
X139061428Y-116468571D01*
X139918571Y-117968571D01*
X139918571Y-116468571D01*
X141347142Y-117968571D02*
X140632857Y-117968571D01*
X140632857Y-116468571D01*
D11*
%TO.C,U1*%
X144620000Y-108310000D02*
X143870000Y-109060000D01*
X125370000Y-109060000D02*
X124620000Y-109060000D01*
X124620000Y-109060000D02*
X124620000Y-108310000D01*
X143870000Y-89060000D02*
X144620000Y-89060000D01*
X144620000Y-89060000D02*
X144620000Y-89810000D01*
X125370000Y-89060000D02*
X124620000Y-89060000D01*
X124620000Y-89060000D02*
X124620000Y-89810000D01*
%TO.C,IC401*%
X116736553Y-104445000D02*
G75*
G03*
X116736553Y-104445000I-353553J0D01*
G01*
X116133000Y-103945000D02*
X115883000Y-104195000D01*
X107383000Y-104195000D02*
X107133000Y-104195000D01*
X107133000Y-104195000D02*
X107133000Y-103945000D01*
X115883000Y-95195000D02*
X116133000Y-95195000D01*
X116133000Y-95195000D02*
X116133000Y-95445000D01*
X107383000Y-95195000D02*
X107133000Y-95195000D01*
X107133000Y-95195000D02*
X107133000Y-95445000D01*
%TO.C,C201*%
X151665000Y-109343000D02*
X151665000Y-107057000D01*
X151665000Y-107057000D02*
X152935000Y-107057000D01*
X152935000Y-107057000D02*
X152935000Y-109343000D01*
X152935000Y-109343000D02*
X151665000Y-109343000D01*
%TO.C,C202*%
X112243000Y-126235000D02*
X109957000Y-126235000D01*
X109957000Y-126235000D02*
X109957000Y-124965000D01*
X109957000Y-124965000D02*
X112243000Y-124965000D01*
X112243000Y-124965000D02*
X112243000Y-126235000D01*
%TO.C,C203*%
X107157000Y-78065000D02*
X109443000Y-78065000D01*
X109443000Y-78065000D02*
X109443000Y-79335000D01*
X109443000Y-79335000D02*
X107157000Y-79335000D01*
X107157000Y-79335000D02*
X107157000Y-78065000D01*
%TO.C,C204*%
X147943000Y-121335000D02*
X145657000Y-121335000D01*
X145657000Y-121335000D02*
X145657000Y-120065000D01*
X145657000Y-120065000D02*
X147943000Y-120065000D01*
X147943000Y-120065000D02*
X147943000Y-121335000D01*
%TO.C,C205*%
X104657000Y-118265000D02*
X106943000Y-118265000D01*
X106943000Y-118265000D02*
X106943000Y-119535000D01*
X106943000Y-119535000D02*
X104657000Y-119535000D01*
X104657000Y-119535000D02*
X104657000Y-118265000D01*
%TO.C,C206*%
X113865000Y-86443000D02*
X113865000Y-84157000D01*
X113865000Y-84157000D02*
X115135000Y-84157000D01*
X115135000Y-84157000D02*
X115135000Y-86443000D01*
X115135000Y-86443000D02*
X113865000Y-86443000D01*
%TO.C,C207*%
X149965000Y-109343000D02*
X149965000Y-107057000D01*
X149965000Y-107057000D02*
X151235000Y-107057000D01*
X151235000Y-107057000D02*
X151235000Y-109343000D01*
X151235000Y-109343000D02*
X149965000Y-109343000D01*
%TO.C,C208*%
X104657000Y-120365000D02*
X106943000Y-120365000D01*
X106943000Y-120365000D02*
X106943000Y-121635000D01*
X106943000Y-121635000D02*
X104657000Y-121635000D01*
X104657000Y-121635000D02*
X104657000Y-120365000D01*
%TO.C,C209*%
X116243000Y-81335000D02*
X113957000Y-81335000D01*
X113957000Y-81335000D02*
X113957000Y-80065000D01*
X113957000Y-80065000D02*
X116243000Y-80065000D01*
X116243000Y-80065000D02*
X116243000Y-81335000D01*
%TO.C,C210*%
X146935000Y-116657000D02*
X146935000Y-118943000D01*
X146935000Y-118943000D02*
X145665000Y-118943000D01*
X145665000Y-118943000D02*
X145665000Y-116657000D01*
X145665000Y-116657000D02*
X146935000Y-116657000D01*
%TO.C,C211*%
X104657000Y-122465000D02*
X106943000Y-122465000D01*
X106943000Y-122465000D02*
X106943000Y-123735000D01*
X106943000Y-123735000D02*
X104657000Y-123735000D01*
X104657000Y-123735000D02*
X104657000Y-122465000D01*
%TO.C,C212*%
X116243000Y-83035000D02*
X113957000Y-83035000D01*
X113957000Y-83035000D02*
X113957000Y-81765000D01*
X113957000Y-81765000D02*
X116243000Y-81765000D01*
X116243000Y-81765000D02*
X116243000Y-83035000D01*
%TO.C,C213*%
X147906000Y-116576000D02*
X147906000Y-119624000D01*
X151589000Y-119624000D02*
X153494000Y-119624000D01*
X153494000Y-119624000D02*
X153494000Y-116576000D01*
X153494000Y-116576000D02*
X151589000Y-116576000D01*
X149938000Y-116576000D02*
X147906000Y-116576000D01*
X147906000Y-119624000D02*
X149938000Y-119624000D01*
%TO.C,C214*%
X117924000Y-116006000D02*
X114876000Y-116006000D01*
X114876000Y-119689000D02*
X114876000Y-121594000D01*
X114876000Y-121594000D02*
X117924000Y-121594000D01*
X117924000Y-121594000D02*
X117924000Y-119689000D01*
X117924000Y-118038000D02*
X117924000Y-116006000D01*
X114876000Y-116006000D02*
X114876000Y-118038000D01*
%TO.C,C215*%
X102976000Y-87794000D02*
X106024000Y-87794000D01*
X106024000Y-84111000D02*
X106024000Y-82206000D01*
X106024000Y-82206000D02*
X102976000Y-82206000D01*
X102976000Y-82206000D02*
X102976000Y-84111000D01*
X102976000Y-85762000D02*
X102976000Y-87794000D01*
X106024000Y-87794000D02*
X106024000Y-85762000D01*
%TO.C,C216*%
X147943000Y-79335000D02*
X145657000Y-79335000D01*
X145657000Y-79335000D02*
X145657000Y-78065000D01*
X145657000Y-78065000D02*
X147943000Y-78065000D01*
X147943000Y-78065000D02*
X147943000Y-79335000D01*
%TO.C,C217*%
X145283000Y-81695000D02*
X142997000Y-81695000D01*
X142997000Y-81695000D02*
X142997000Y-80425000D01*
X142997000Y-80425000D02*
X145283000Y-80425000D01*
X145283000Y-80425000D02*
X145283000Y-81695000D01*
%TO.C,C218*%
X145223000Y-84895000D02*
X142937000Y-84895000D01*
X142937000Y-84895000D02*
X142937000Y-83625000D01*
X142937000Y-83625000D02*
X145223000Y-83625000D01*
X145223000Y-83625000D02*
X145223000Y-84895000D01*
%TO.C,C219*%
X145203000Y-83325000D02*
X142917000Y-83325000D01*
X142917000Y-83325000D02*
X142917000Y-82055000D01*
X142917000Y-82055000D02*
X145203000Y-82055000D01*
X145203000Y-82055000D02*
X145203000Y-83325000D01*
%TO.C,C220*%
X148706000Y-87676000D02*
X148706000Y-90724000D01*
X152389000Y-90724000D02*
X154294000Y-90724000D01*
X154294000Y-90724000D02*
X154294000Y-87676000D01*
X154294000Y-87676000D02*
X152389000Y-87676000D01*
X150738000Y-87676000D02*
X148706000Y-87676000D01*
X148706000Y-90724000D02*
X150738000Y-90724000D01*
%TO.C,C401*%
X99314000Y-85344000D02*
X99314000Y-83058000D01*
X99314000Y-83058000D02*
X100584000Y-83058000D01*
X100584000Y-83058000D02*
X100584000Y-85344000D01*
X100584000Y-85344000D02*
X99314000Y-85344000D01*
%TO.C,C402*%
X100125000Y-114117000D02*
X100125000Y-116403000D01*
X100125000Y-116403000D02*
X98855000Y-116403000D01*
X98855000Y-116403000D02*
X98855000Y-114117000D01*
X98855000Y-114117000D02*
X100125000Y-114117000D01*
%TO.C,C403*%
X96901000Y-89916000D02*
X95885000Y-89916000D01*
X95885000Y-89916000D02*
X95885000Y-88392000D01*
X95885000Y-88392000D02*
X96901000Y-88392000D01*
X97917000Y-88392000D02*
X98933000Y-88392000D01*
X98933000Y-88392000D02*
X98933000Y-89916000D01*
X98933000Y-89916000D02*
X97917000Y-89916000D01*
%TO.C,C404*%
X92583000Y-90297000D02*
X92583000Y-91313000D01*
X92583000Y-91313000D02*
X91059000Y-91313000D01*
X91059000Y-91313000D02*
X91059000Y-90297000D01*
X91059000Y-89281000D02*
X91059000Y-88265000D01*
X91059000Y-88265000D02*
X92583000Y-88265000D01*
X92583000Y-88265000D02*
X92583000Y-89281000D01*
%TO.C,C405*%
X96901000Y-92456000D02*
X95885000Y-92456000D01*
X95885000Y-92456000D02*
X95885000Y-90932000D01*
X95885000Y-90932000D02*
X96901000Y-90932000D01*
X97917000Y-90932000D02*
X98933000Y-90932000D01*
X98933000Y-90932000D02*
X98933000Y-92456000D01*
X98933000Y-92456000D02*
X97917000Y-92456000D01*
%TO.C,C406*%
X92583000Y-93726000D02*
X92583000Y-94742000D01*
X92583000Y-94742000D02*
X91059000Y-94742000D01*
X91059000Y-94742000D02*
X91059000Y-93726000D01*
X91059000Y-92710000D02*
X91059000Y-91694000D01*
X91059000Y-91694000D02*
X92583000Y-91694000D01*
X92583000Y-91694000D02*
X92583000Y-92710000D01*
%TO.C,C407*%
X96901000Y-94742000D02*
X95885000Y-94742000D01*
X95885000Y-94742000D02*
X95885000Y-93218000D01*
X95885000Y-93218000D02*
X96901000Y-93218000D01*
X97917000Y-93218000D02*
X98933000Y-93218000D01*
X98933000Y-93218000D02*
X98933000Y-94742000D01*
X98933000Y-94742000D02*
X97917000Y-94742000D01*
%TO.C,C408*%
X105469082Y-91779132D02*
X106600452Y-90647761D01*
X106600452Y-90647761D02*
X105186239Y-89233548D01*
X105186239Y-89233548D02*
X104054868Y-90364918D01*
X103064918Y-91354868D02*
X101933548Y-92486239D01*
X101933548Y-92486239D02*
X103347761Y-93900452D01*
X103347761Y-93900452D02*
X104479132Y-92769082D01*
%TO.C,C409*%
X101600000Y-101092000D02*
X103886000Y-101092000D01*
X103886000Y-101092000D02*
X103886000Y-102362000D01*
X103886000Y-102362000D02*
X101600000Y-102362000D01*
X101600000Y-102362000D02*
X101600000Y-101092000D01*
%TO.C,C410*%
X103771764Y-93577210D02*
X105388210Y-91960764D01*
X105388210Y-91960764D02*
X106286236Y-92858790D01*
X106286236Y-92858790D02*
X104669790Y-94475236D01*
X104669790Y-94475236D02*
X103771764Y-93577210D01*
%TO.C,C411*%
X108425000Y-90617000D02*
X108425000Y-92903000D01*
X108425000Y-92903000D02*
X107155000Y-92903000D01*
X107155000Y-92903000D02*
X107155000Y-90617000D01*
X107155000Y-90617000D02*
X108425000Y-90617000D01*
%TO.C,C412*%
X101600000Y-94615000D02*
X103886000Y-94615000D01*
X103886000Y-94615000D02*
X103886000Y-95885000D01*
X103886000Y-95885000D02*
X101600000Y-95885000D01*
X101600000Y-95885000D02*
X101600000Y-94615000D01*
%TO.C,C413*%
X100838000Y-97917000D02*
X100838000Y-98933000D01*
X100838000Y-98933000D02*
X99314000Y-98933000D01*
X99314000Y-98933000D02*
X99314000Y-97917000D01*
X99314000Y-96901000D02*
X99314000Y-95885000D01*
X99314000Y-95885000D02*
X100838000Y-95885000D01*
X100838000Y-95885000D02*
X100838000Y-96901000D01*
%TO.C,C414*%
X95943000Y-103335000D02*
X93657000Y-103335000D01*
X93657000Y-103335000D02*
X93657000Y-102065000D01*
X93657000Y-102065000D02*
X95943000Y-102065000D01*
X95943000Y-102065000D02*
X95943000Y-103335000D01*
%TO.C,C415*%
X103886000Y-99060000D02*
X101600000Y-99060000D01*
X101600000Y-99060000D02*
X101600000Y-97790000D01*
X101600000Y-97790000D02*
X103886000Y-97790000D01*
X103886000Y-97790000D02*
X103886000Y-99060000D01*
%TO.C,C416*%
X103886000Y-97536000D02*
X101600000Y-97536000D01*
X101600000Y-97536000D02*
X101600000Y-96266000D01*
X101600000Y-96266000D02*
X103886000Y-96266000D01*
X103886000Y-96266000D02*
X103886000Y-97536000D01*
%TO.C,C417*%
X115316000Y-106045000D02*
X117602000Y-106045000D01*
X117602000Y-106045000D02*
X117602000Y-107315000D01*
X117602000Y-107315000D02*
X115316000Y-107315000D01*
X115316000Y-107315000D02*
X115316000Y-106045000D01*
%TO.C,C419*%
X113582000Y-112141000D02*
X111296000Y-112141000D01*
X111296000Y-112141000D02*
X111296000Y-110871000D01*
X111296000Y-110871000D02*
X113582000Y-110871000D01*
X113582000Y-110871000D02*
X113582000Y-112141000D01*
%TO.C,C420*%
X103673000Y-108855000D02*
X101387000Y-108855000D01*
X101387000Y-108855000D02*
X101387000Y-107585000D01*
X101387000Y-107585000D02*
X103673000Y-107585000D01*
X103673000Y-107585000D02*
X103673000Y-108855000D01*
%TO.C,C421*%
X115316000Y-107696000D02*
X117602000Y-107696000D01*
X117602000Y-107696000D02*
X117602000Y-108966000D01*
X117602000Y-108966000D02*
X115316000Y-108966000D01*
X115316000Y-108966000D02*
X115316000Y-107696000D01*
%TO.C,C423*%
X113582000Y-110490000D02*
X111296000Y-110490000D01*
X111296000Y-110490000D02*
X111296000Y-109220000D01*
X111296000Y-109220000D02*
X113582000Y-109220000D01*
X113582000Y-109220000D02*
X113582000Y-110490000D01*
%TO.C,C424*%
X103673000Y-110345000D02*
X101387000Y-110345000D01*
X101387000Y-110345000D02*
X101387000Y-109075000D01*
X101387000Y-109075000D02*
X103673000Y-109075000D01*
X103673000Y-109075000D02*
X103673000Y-110345000D01*
%TO.C,C425*%
X115316000Y-109347000D02*
X117602000Y-109347000D01*
X117602000Y-109347000D02*
X117602000Y-110617000D01*
X117602000Y-110617000D02*
X115316000Y-110617000D01*
X115316000Y-110617000D02*
X115316000Y-109347000D01*
%TO.C,C427*%
X113582000Y-108839000D02*
X111296000Y-108839000D01*
X111296000Y-108839000D02*
X111296000Y-107569000D01*
X111296000Y-107569000D02*
X113582000Y-107569000D01*
X113582000Y-107569000D02*
X113582000Y-108839000D01*
%TO.C,C428*%
X99535000Y-101783000D02*
X99535000Y-99497000D01*
X99535000Y-99497000D02*
X100805000Y-99497000D01*
X100805000Y-99497000D02*
X100805000Y-101783000D01*
X100805000Y-101783000D02*
X99535000Y-101783000D01*
%TO.C,C429*%
X115316000Y-110871000D02*
X117602000Y-110871000D01*
X117602000Y-110871000D02*
X117602000Y-112141000D01*
X117602000Y-112141000D02*
X115316000Y-112141000D01*
X115316000Y-112141000D02*
X115316000Y-110871000D01*
%TO.C,C431*%
X113582000Y-107315000D02*
X111296000Y-107315000D01*
X111296000Y-107315000D02*
X111296000Y-106045000D01*
X111296000Y-106045000D02*
X113582000Y-106045000D01*
X113582000Y-106045000D02*
X113582000Y-107315000D01*
%TO.C,C432*%
X103593000Y-112095000D02*
X101307000Y-112095000D01*
X101307000Y-112095000D02*
X101307000Y-110825000D01*
X101307000Y-110825000D02*
X103593000Y-110825000D01*
X103593000Y-110825000D02*
X103593000Y-112095000D01*
%TO.C,C433*%
X115316000Y-112522000D02*
X117602000Y-112522000D01*
X117602000Y-112522000D02*
X117602000Y-113792000D01*
X117602000Y-113792000D02*
X115316000Y-113792000D01*
X115316000Y-113792000D02*
X115316000Y-112522000D01*
%TO.C,C435*%
X113582000Y-113665000D02*
X111296000Y-113665000D01*
X111296000Y-113665000D02*
X111296000Y-112395000D01*
X111296000Y-112395000D02*
X113582000Y-112395000D01*
X113582000Y-112395000D02*
X113582000Y-113665000D01*
%TO.C,C436*%
X103633000Y-113635000D02*
X101347000Y-113635000D01*
X101347000Y-113635000D02*
X101347000Y-112365000D01*
X101347000Y-112365000D02*
X103633000Y-112365000D01*
X103633000Y-112365000D02*
X103633000Y-113635000D01*
%TO.C,C437*%
X106435000Y-109757000D02*
X106435000Y-112043000D01*
X106435000Y-112043000D02*
X105165000Y-112043000D01*
X105165000Y-112043000D02*
X105165000Y-109757000D01*
X105165000Y-109757000D02*
X106435000Y-109757000D01*
D12*
%TO.C,CN301*%
X144700000Y-122095000D02*
X144065000Y-121460000D01*
X142795000Y-121460000D02*
X142160000Y-122095000D01*
X142160000Y-122095000D02*
X141525000Y-121460000D01*
X140255000Y-121460000D02*
X139620000Y-122095000D01*
X139620000Y-122095000D02*
X138985000Y-121460000D01*
X137715000Y-121460000D02*
X137080000Y-122095000D01*
X137080000Y-122095000D02*
X136445000Y-121460000D01*
X135175000Y-121460000D02*
X134540000Y-122095000D01*
X134540000Y-122095000D02*
X133905000Y-121460000D01*
X132635000Y-121460000D02*
X132000000Y-122095000D01*
X132000000Y-122095000D02*
X131365000Y-121460000D01*
X130095000Y-121460000D02*
X129460000Y-122095000D01*
X144700000Y-122095000D02*
X144700000Y-125905000D01*
X144700000Y-125905000D02*
X144065000Y-126540000D01*
X144065000Y-126540000D02*
X142795000Y-126540000D01*
X142795000Y-126540000D02*
X142160000Y-125905000D01*
X142160000Y-125905000D02*
X141525000Y-126540000D01*
X141525000Y-126540000D02*
X140255000Y-126540000D01*
X140255000Y-126540000D02*
X139620000Y-125905000D01*
X139620000Y-125905000D02*
X138985000Y-126540000D01*
X138985000Y-126540000D02*
X137715000Y-126540000D01*
X137715000Y-126540000D02*
X137080000Y-125905000D01*
X137080000Y-125905000D02*
X136445000Y-126540000D01*
X136445000Y-126540000D02*
X135175000Y-126540000D01*
X135175000Y-126540000D02*
X134540000Y-125905000D01*
X134540000Y-125905000D02*
X133905000Y-126540000D01*
X133905000Y-126540000D02*
X132635000Y-126540000D01*
X132635000Y-126540000D02*
X132000000Y-125905000D01*
X132000000Y-125905000D02*
X131365000Y-126540000D01*
X131365000Y-126540000D02*
X130095000Y-126540000D01*
X130095000Y-126540000D02*
X129460000Y-125905000D01*
X129460000Y-125905000D02*
X128825000Y-126540000D01*
X128825000Y-126540000D02*
X127555000Y-126540000D01*
X127555000Y-126540000D02*
X126920000Y-125905000D01*
X126920000Y-125905000D02*
X126285000Y-126540000D01*
X126285000Y-126540000D02*
X125015000Y-126540000D01*
X125015000Y-126540000D02*
X124380000Y-125905000D01*
X124380000Y-125905000D02*
X123745000Y-126540000D01*
X123745000Y-126540000D02*
X122475000Y-126540000D01*
X122475000Y-126540000D02*
X121840000Y-125905000D01*
X121840000Y-122095000D02*
X122475000Y-121460000D01*
X124380000Y-122095000D02*
X123745000Y-121460000D01*
X124380000Y-122095000D02*
X125015000Y-121460000D01*
X126920000Y-122095000D02*
X126285000Y-121460000D01*
X126920000Y-122095000D02*
X127555000Y-121460000D01*
X129460000Y-122095000D02*
X128825000Y-121460000D01*
X142160000Y-125905000D02*
X142160000Y-122095000D01*
X139620000Y-125905000D02*
X139620000Y-122095000D01*
X137080000Y-125905000D02*
X137080000Y-122095000D01*
X134540000Y-125905000D02*
X134540000Y-122095000D01*
X132000000Y-125905000D02*
X132000000Y-122095000D01*
X129460000Y-125905000D02*
X129460000Y-122095000D01*
X126920000Y-125905000D02*
X126920000Y-122095000D01*
X124380000Y-125905000D02*
X124380000Y-122095000D01*
X121840000Y-125905000D02*
X121840000Y-122095000D01*
X123745000Y-121460000D02*
X122475000Y-121460000D01*
X126285000Y-121460000D02*
X125015000Y-121460000D01*
X128825000Y-121460000D02*
X127555000Y-121460000D01*
X131365000Y-121460000D02*
X130095000Y-121460000D01*
X133905000Y-121460000D02*
X132635000Y-121460000D01*
X136445000Y-121460000D02*
X135175000Y-121460000D01*
X138985000Y-121460000D02*
X137715000Y-121460000D01*
X141525000Y-121460000D02*
X140255000Y-121460000D01*
X144065000Y-121460000D02*
X142795000Y-121460000D01*
X121840000Y-125905000D02*
X121205000Y-126540000D01*
X121205000Y-126540000D02*
X119935000Y-126540000D01*
X119935000Y-126540000D02*
X119300000Y-125905000D01*
X119300000Y-122095000D02*
X119935000Y-121460000D01*
X121840000Y-122095000D02*
X121205000Y-121460000D01*
X119300000Y-125905000D02*
X119300000Y-122095000D01*
X121205000Y-121460000D02*
X119935000Y-121460000D01*
D11*
%TO.C,D401*%
X90992960Y-96763840D02*
X90992960Y-98562160D01*
X90992960Y-98562160D02*
X92395040Y-98562160D01*
X92395040Y-98562160D02*
X92395040Y-96763840D01*
X92395040Y-96763840D02*
X90992960Y-96763840D01*
%TO.C,FB401*%
X93657000Y-100565000D02*
X95943000Y-100565000D01*
X95943000Y-100565000D02*
X95943000Y-101835000D01*
X95943000Y-101835000D02*
X93657000Y-101835000D01*
X93657000Y-101835000D02*
X93657000Y-100565000D01*
%TO.C,FB402*%
X115357000Y-114265000D02*
X117643000Y-114265000D01*
X117643000Y-114265000D02*
X117643000Y-115535000D01*
X117643000Y-115535000D02*
X115357000Y-115535000D01*
X115357000Y-115535000D02*
X115357000Y-114265000D01*
%TO.C,FB404*%
X113643000Y-115235000D02*
X111357000Y-115235000D01*
X111357000Y-115235000D02*
X111357000Y-113965000D01*
X111357000Y-113965000D02*
X113643000Y-113965000D01*
X113643000Y-113965000D02*
X113643000Y-115235000D01*
%TO.C,FB405*%
X106035000Y-115357000D02*
X106035000Y-117643000D01*
X106035000Y-117643000D02*
X104765000Y-117643000D01*
X104765000Y-117643000D02*
X104765000Y-115357000D01*
X104765000Y-115357000D02*
X106035000Y-115357000D01*
%TO.C,FB406*%
X110635000Y-112757000D02*
X110635000Y-115043000D01*
X110635000Y-115043000D02*
X109365000Y-115043000D01*
X109365000Y-115043000D02*
X109365000Y-112757000D01*
X109365000Y-112757000D02*
X110635000Y-112757000D01*
D13*
%TO.C,IC201*%
X147722000Y-109723000D02*
X151278000Y-109723000D01*
X151278000Y-109723000D02*
X151278000Y-116277000D01*
X151278000Y-116277000D02*
X147722000Y-116277000D01*
X147722000Y-116277000D02*
X147722000Y-109723000D01*
%TO.C,IC202*%
X114277000Y-118222000D02*
X114277000Y-121778000D01*
X114277000Y-121778000D02*
X107723000Y-121778000D01*
X107723000Y-121778000D02*
X107723000Y-118222000D01*
X107723000Y-118222000D02*
X114277000Y-118222000D01*
%TO.C,IC203*%
X106723000Y-85778000D02*
X106723000Y-82222000D01*
X106723000Y-82222000D02*
X113277000Y-82222000D01*
X113277000Y-82222000D02*
X113277000Y-85778000D01*
X113277000Y-85778000D02*
X106723000Y-85778000D01*
%TO.C,IC204*%
X148422000Y-78523000D02*
X151978000Y-78523000D01*
X151978000Y-78523000D02*
X151978000Y-85077000D01*
X151978000Y-85077000D02*
X148422000Y-85077000D01*
X148422000Y-85077000D02*
X148422000Y-78523000D01*
D11*
%TO.C,L401*%
X93238000Y-89292000D02*
X93238000Y-88276000D01*
X93238000Y-88276000D02*
X94762000Y-88276000D01*
X94762000Y-88276000D02*
X94762000Y-89292000D01*
X94762000Y-90308000D02*
X94762000Y-91324000D01*
X94762000Y-91324000D02*
X93238000Y-91324000D01*
X93238000Y-91324000D02*
X93238000Y-90308000D01*
%TO.C,L402*%
X93218000Y-92710000D02*
X93218000Y-91694000D01*
X93218000Y-91694000D02*
X94742000Y-91694000D01*
X94742000Y-91694000D02*
X94742000Y-92710000D01*
X94742000Y-93726000D02*
X94742000Y-94742000D01*
X94742000Y-94742000D02*
X93218000Y-94742000D01*
X93218000Y-94742000D02*
X93218000Y-93726000D01*
%TO.C,R201*%
X150608000Y-85638000D02*
X151624000Y-85638000D01*
X151624000Y-85638000D02*
X151624000Y-87162000D01*
X151624000Y-87162000D02*
X150608000Y-87162000D01*
X149592000Y-87162000D02*
X148576000Y-87162000D01*
X148576000Y-87162000D02*
X148576000Y-85638000D01*
X148576000Y-85638000D02*
X149592000Y-85638000D01*
%TO.C,R403*%
X103886000Y-100711000D02*
X101600000Y-100711000D01*
X101600000Y-100711000D02*
X101600000Y-99441000D01*
X101600000Y-99441000D02*
X103886000Y-99441000D01*
X103886000Y-99441000D02*
X103886000Y-100711000D01*
D14*
%TO.C,T401*%
X94615000Y-107950000D02*
X94615000Y-103632000D01*
X94615000Y-103632000D02*
X96393000Y-103632000D01*
X96393000Y-103632000D02*
X96393000Y-107950000D01*
X96393000Y-107950000D02*
X94615000Y-107950000D01*
X98171000Y-103886000D02*
X93091000Y-103886000D01*
X93091000Y-103886000D02*
X93091000Y-107696000D01*
X93091000Y-107696000D02*
X98171000Y-107696000D01*
%TO.C,T402*%
X94869000Y-100076000D02*
X94869000Y-95758000D01*
X94869000Y-95758000D02*
X96647000Y-95758000D01*
X96647000Y-95758000D02*
X96647000Y-100076000D01*
X96647000Y-100076000D02*
X94869000Y-100076000D01*
X98425000Y-96012000D02*
X93345000Y-96012000D01*
X93345000Y-96012000D02*
X93345000Y-99822000D01*
X93345000Y-99822000D02*
X98425000Y-99822000D01*
%TO.C,X400*%
X107608353Y-111993700D02*
G75*
G03*
X107608353Y-111993700I-178253J0D01*
G01*
X107430100Y-110558600D02*
X107430100Y-111244400D01*
X107430100Y-111244400D02*
X110414600Y-111257100D01*
X110414600Y-111257100D02*
X110414600Y-110584000D01*
X110414600Y-110584000D02*
X107430100Y-110571300D01*
X107557100Y-109822000D02*
X107557100Y-112044500D01*
X107557100Y-112044500D02*
X110300300Y-112044500D01*
X110300300Y-112044500D02*
X110300300Y-109783900D01*
D13*
%TO.C,X401*%
X96200000Y-83500000D02*
G75*
G03*
X96200000Y-83500000I-1700000J0D01*
G01*
X95600000Y-86700000D02*
X93400000Y-86700000D01*
X91300000Y-84600000D02*
X91300000Y-82400000D01*
X93400000Y-80300000D02*
X95600000Y-80300000D01*
X97700000Y-82400000D02*
X97700000Y-84600000D01*
X90200000Y-86400000D02*
X86200000Y-86400000D01*
X86200000Y-86400000D02*
X85900000Y-86900000D01*
X83800000Y-86900000D02*
X83500000Y-86400000D01*
X83500000Y-86400000D02*
X82900000Y-86400000D01*
X82900000Y-80600000D02*
X82900000Y-86400000D01*
X85900000Y-86900000D02*
X83800000Y-86900000D01*
X90200000Y-80600000D02*
X86200000Y-80600000D01*
X86200000Y-80600000D02*
X85900000Y-80100000D01*
X83800000Y-80100000D02*
X83500000Y-80600000D01*
X83500000Y-80600000D02*
X82900000Y-80600000D01*
X85900000Y-80100000D02*
X83800000Y-80100000D01*
X83500000Y-80600000D02*
X83500000Y-86400000D01*
X86200000Y-80600000D02*
X86200000Y-86400000D01*
%TO.C,X402*%
X96100000Y-115700000D02*
G75*
G03*
X96100000Y-115700000I-1700000J0D01*
G01*
X95500000Y-118900000D02*
X93300000Y-118900000D01*
X91200000Y-116800000D02*
X91200000Y-114600000D01*
X93300000Y-112500000D02*
X95500000Y-112500000D01*
X97600000Y-114600000D02*
X97600000Y-116800000D01*
X90100000Y-118600000D02*
X86100000Y-118600000D01*
X86100000Y-118600000D02*
X85800000Y-119100000D01*
X83700000Y-119100000D02*
X83400000Y-118600000D01*
X83400000Y-118600000D02*
X82800000Y-118600000D01*
X82800000Y-112800000D02*
X82800000Y-118600000D01*
X85800000Y-119100000D02*
X83700000Y-119100000D01*
X90100000Y-112800000D02*
X86100000Y-112800000D01*
X86100000Y-112800000D02*
X85800000Y-112300000D01*
X83700000Y-112300000D02*
X83400000Y-112800000D01*
X83400000Y-112800000D02*
X82800000Y-112800000D01*
X85800000Y-112300000D02*
X83700000Y-112300000D01*
X83400000Y-112800000D02*
X83400000Y-118600000D01*
X86100000Y-112800000D02*
X86100000Y-118600000D01*
D15*
%TO.C,G\u002A\u002A\u002A*%
G36*
X102197439Y-79782804D02*
G01*
X102276519Y-79811696D01*
X102396276Y-79859183D01*
X102551294Y-79923014D01*
X102736160Y-80000939D01*
X102945461Y-80090708D01*
X103173782Y-80190072D01*
X103342727Y-80264441D01*
X103625626Y-80389986D01*
X103860466Y-80495268D01*
X104051104Y-80582169D01*
X104201399Y-80652574D01*
X104315210Y-80708364D01*
X104396395Y-80751423D01*
X104448812Y-80783634D01*
X104476320Y-80806878D01*
X104483000Y-80820868D01*
X104473372Y-80838155D01*
X104441914Y-80862943D01*
X104384767Y-80897127D01*
X104298071Y-80942603D01*
X104177966Y-81001269D01*
X104020592Y-81075021D01*
X103822090Y-81165756D01*
X103578599Y-81275371D01*
X103354111Y-81375575D01*
X103117176Y-81480766D01*
X102895754Y-81578519D01*
X102695244Y-81666490D01*
X102521044Y-81742337D01*
X102378554Y-81803716D01*
X102273172Y-81848284D01*
X102210297Y-81873696D01*
X102194648Y-81878840D01*
X102149371Y-81864287D01*
X102145259Y-81860741D01*
X102136606Y-81825600D01*
X102130052Y-81748554D01*
X102126677Y-81644133D01*
X102126445Y-81607068D01*
X102126445Y-81372211D01*
X101018722Y-81364827D01*
X99911000Y-81357444D01*
X99903295Y-80839008D01*
X99901681Y-80625448D01*
X99904094Y-80465390D01*
X99910658Y-80356026D01*
X99921496Y-80294550D01*
X99927917Y-80281619D01*
X99945304Y-80271398D01*
X99982124Y-80263052D01*
X100043293Y-80256411D01*
X100133728Y-80251301D01*
X100258345Y-80247552D01*
X100422059Y-80244992D01*
X100629787Y-80243449D01*
X100886446Y-80242752D01*
X101043345Y-80242667D01*
X102126445Y-80242667D01*
X102126445Y-80016003D01*
X102129671Y-79890280D01*
X102140121Y-79813325D01*
X102158953Y-79777789D01*
X102164449Y-79774756D01*
X102197439Y-79782804D01*
G37*
X102197439Y-79782804D02*
X102276519Y-79811696D01*
X102396276Y-79859183D01*
X102551294Y-79923014D01*
X102736160Y-80000939D01*
X102945461Y-80090708D01*
X103173782Y-80190072D01*
X103342727Y-80264441D01*
X103625626Y-80389986D01*
X103860466Y-80495268D01*
X104051104Y-80582169D01*
X104201399Y-80652574D01*
X104315210Y-80708364D01*
X104396395Y-80751423D01*
X104448812Y-80783634D01*
X104476320Y-80806878D01*
X104483000Y-80820868D01*
X104473372Y-80838155D01*
X104441914Y-80862943D01*
X104384767Y-80897127D01*
X104298071Y-80942603D01*
X104177966Y-81001269D01*
X104020592Y-81075021D01*
X103822090Y-81165756D01*
X103578599Y-81275371D01*
X103354111Y-81375575D01*
X103117176Y-81480766D01*
X102895754Y-81578519D01*
X102695244Y-81666490D01*
X102521044Y-81742337D01*
X102378554Y-81803716D01*
X102273172Y-81848284D01*
X102210297Y-81873696D01*
X102194648Y-81878840D01*
X102149371Y-81864287D01*
X102145259Y-81860741D01*
X102136606Y-81825600D01*
X102130052Y-81748554D01*
X102126677Y-81644133D01*
X102126445Y-81607068D01*
X102126445Y-81372211D01*
X101018722Y-81364827D01*
X99911000Y-81357444D01*
X99903295Y-80839008D01*
X99901681Y-80625448D01*
X99904094Y-80465390D01*
X99910658Y-80356026D01*
X99921496Y-80294550D01*
X99927917Y-80281619D01*
X99945304Y-80271398D01*
X99982124Y-80263052D01*
X100043293Y-80256411D01*
X100133728Y-80251301D01*
X100258345Y-80247552D01*
X100422059Y-80244992D01*
X100629787Y-80243449D01*
X100886446Y-80242752D01*
X101043345Y-80242667D01*
X102126445Y-80242667D01*
X102126445Y-80016003D01*
X102129671Y-79890280D01*
X102140121Y-79813325D01*
X102158953Y-79777789D01*
X102164449Y-79774756D01*
X102197439Y-79782804D01*
G36*
X100762561Y-120127196D02*
G01*
X100683481Y-120098304D01*
X100563724Y-120050817D01*
X100408706Y-119986986D01*
X100223840Y-119909061D01*
X100014539Y-119819292D01*
X99786218Y-119719928D01*
X99617273Y-119645559D01*
X99334374Y-119520014D01*
X99099534Y-119414732D01*
X98908896Y-119327831D01*
X98758601Y-119257426D01*
X98644790Y-119201636D01*
X98563605Y-119158577D01*
X98511188Y-119126366D01*
X98483680Y-119103122D01*
X98477000Y-119089132D01*
X98486628Y-119071845D01*
X98518086Y-119047057D01*
X98575233Y-119012873D01*
X98661929Y-118967397D01*
X98782034Y-118908731D01*
X98939408Y-118834979D01*
X99137910Y-118744244D01*
X99381401Y-118634629D01*
X99605889Y-118534425D01*
X99842824Y-118429234D01*
X100064246Y-118331481D01*
X100264756Y-118243510D01*
X100438956Y-118167663D01*
X100581446Y-118106284D01*
X100686828Y-118061716D01*
X100749703Y-118036304D01*
X100765352Y-118031160D01*
X100810629Y-118045713D01*
X100814741Y-118049259D01*
X100823394Y-118084400D01*
X100829948Y-118161446D01*
X100833323Y-118265867D01*
X100833555Y-118302932D01*
X100833555Y-118537789D01*
X101941278Y-118545173D01*
X103049000Y-118552556D01*
X103056705Y-119070992D01*
X103058319Y-119284552D01*
X103055906Y-119444610D01*
X103049342Y-119553974D01*
X103038504Y-119615450D01*
X103032083Y-119628381D01*
X103014696Y-119638602D01*
X102977876Y-119646948D01*
X102916707Y-119653589D01*
X102826272Y-119658699D01*
X102701655Y-119662448D01*
X102537941Y-119665008D01*
X102330213Y-119666551D01*
X102073554Y-119667248D01*
X101916655Y-119667333D01*
X100833555Y-119667333D01*
X100833555Y-119893997D01*
X100830329Y-120019720D01*
X100819879Y-120096675D01*
X100801047Y-120132211D01*
X100795551Y-120135244D01*
X100762561Y-120127196D01*
G37*
X100762561Y-120127196D02*
X100683481Y-120098304D01*
X100563724Y-120050817D01*
X100408706Y-119986986D01*
X100223840Y-119909061D01*
X100014539Y-119819292D01*
X99786218Y-119719928D01*
X99617273Y-119645559D01*
X99334374Y-119520014D01*
X99099534Y-119414732D01*
X98908896Y-119327831D01*
X98758601Y-119257426D01*
X98644790Y-119201636D01*
X98563605Y-119158577D01*
X98511188Y-119126366D01*
X98483680Y-119103122D01*
X98477000Y-119089132D01*
X98486628Y-119071845D01*
X98518086Y-119047057D01*
X98575233Y-119012873D01*
X98661929Y-118967397D01*
X98782034Y-118908731D01*
X98939408Y-118834979D01*
X99137910Y-118744244D01*
X99381401Y-118634629D01*
X99605889Y-118534425D01*
X99842824Y-118429234D01*
X100064246Y-118331481D01*
X100264756Y-118243510D01*
X100438956Y-118167663D01*
X100581446Y-118106284D01*
X100686828Y-118061716D01*
X100749703Y-118036304D01*
X100765352Y-118031160D01*
X100810629Y-118045713D01*
X100814741Y-118049259D01*
X100823394Y-118084400D01*
X100829948Y-118161446D01*
X100833323Y-118265867D01*
X100833555Y-118302932D01*
X100833555Y-118537789D01*
X101941278Y-118545173D01*
X103049000Y-118552556D01*
X103056705Y-119070992D01*
X103058319Y-119284552D01*
X103055906Y-119444610D01*
X103049342Y-119553974D01*
X103038504Y-119615450D01*
X103032083Y-119628381D01*
X103014696Y-119638602D01*
X102977876Y-119646948D01*
X102916707Y-119653589D01*
X102826272Y-119658699D01*
X102701655Y-119662448D01*
X102537941Y-119665008D01*
X102330213Y-119666551D01*
X102073554Y-119667248D01*
X101916655Y-119667333D01*
X100833555Y-119667333D01*
X100833555Y-119893997D01*
X100830329Y-120019720D01*
X100819879Y-120096675D01*
X100801047Y-120132211D01*
X100795551Y-120135244D01*
X100762561Y-120127196D01*
G36*
X120940652Y-79246850D02*
G01*
X120982063Y-79310500D01*
X121018241Y-79366585D01*
X121047055Y-79411760D01*
X121066369Y-79442677D01*
X121074051Y-79455989D01*
X121074100Y-79456199D01*
X121064605Y-79465404D01*
X121038871Y-79486484D01*
X121001025Y-79516134D01*
X120962975Y-79545184D01*
X120762402Y-79711776D01*
X120580006Y-79894282D01*
X120416831Y-80091147D01*
X120273921Y-80300819D01*
X120152322Y-80521743D01*
X120053080Y-80752365D01*
X119977239Y-80991130D01*
X119969008Y-81023269D01*
X119935080Y-81176932D01*
X119911616Y-81326510D01*
X119897599Y-81480784D01*
X119892017Y-81648535D01*
X119891820Y-81691750D01*
X119903357Y-81957737D01*
X119937917Y-82213101D01*
X119995641Y-82458172D01*
X120076669Y-82693287D01*
X120181140Y-82918777D01*
X120309194Y-83134976D01*
X120460971Y-83342218D01*
X120636610Y-83540836D01*
X120688603Y-83593485D01*
X120750313Y-83652368D01*
X120819416Y-83714767D01*
X120887899Y-83773641D01*
X120947750Y-83821944D01*
X120953450Y-83826300D01*
X121002060Y-83863774D01*
X121042725Y-83896226D01*
X121071423Y-83920368D01*
X121084134Y-83932913D01*
X121084356Y-83933358D01*
X121079021Y-83946898D01*
X121062029Y-83977278D01*
X121036022Y-84020424D01*
X121003645Y-84072261D01*
X120967541Y-84128716D01*
X120930354Y-84185712D01*
X120894728Y-84239177D01*
X120863307Y-84285035D01*
X120838733Y-84319213D01*
X120823652Y-84337635D01*
X120820693Y-84339700D01*
X120806901Y-84332750D01*
X120777559Y-84314063D01*
X120737628Y-84286878D01*
X120710869Y-84267992D01*
X120494588Y-84097986D01*
X120293154Y-83908362D01*
X120108422Y-83701326D01*
X119942245Y-83479083D01*
X119796478Y-83243841D01*
X119709226Y-83076050D01*
X119596017Y-82812454D01*
X119507175Y-82543869D01*
X119442739Y-82271569D01*
X119402745Y-81996827D01*
X119387231Y-81720915D01*
X119396235Y-81445106D01*
X119429795Y-81170674D01*
X119487948Y-80898891D01*
X119570732Y-80631030D01*
X119632177Y-80472880D01*
X119754844Y-80211750D01*
X119897152Y-79966723D01*
X120059188Y-79737690D01*
X120241041Y-79524540D01*
X120442797Y-79327163D01*
X120664545Y-79145450D01*
X120734277Y-79094475D01*
X120807204Y-79042541D01*
X120940652Y-79246850D01*
G37*
X120940652Y-79246850D02*
X120982063Y-79310500D01*
X121018241Y-79366585D01*
X121047055Y-79411760D01*
X121066369Y-79442677D01*
X121074051Y-79455989D01*
X121074100Y-79456199D01*
X121064605Y-79465404D01*
X121038871Y-79486484D01*
X121001025Y-79516134D01*
X120962975Y-79545184D01*
X120762402Y-79711776D01*
X120580006Y-79894282D01*
X120416831Y-80091147D01*
X120273921Y-80300819D01*
X120152322Y-80521743D01*
X120053080Y-80752365D01*
X119977239Y-80991130D01*
X119969008Y-81023269D01*
X119935080Y-81176932D01*
X119911616Y-81326510D01*
X119897599Y-81480784D01*
X119892017Y-81648535D01*
X119891820Y-81691750D01*
X119903357Y-81957737D01*
X119937917Y-82213101D01*
X119995641Y-82458172D01*
X120076669Y-82693287D01*
X120181140Y-82918777D01*
X120309194Y-83134976D01*
X120460971Y-83342218D01*
X120636610Y-83540836D01*
X120688603Y-83593485D01*
X120750313Y-83652368D01*
X120819416Y-83714767D01*
X120887899Y-83773641D01*
X120947750Y-83821944D01*
X120953450Y-83826300D01*
X121002060Y-83863774D01*
X121042725Y-83896226D01*
X121071423Y-83920368D01*
X121084134Y-83932913D01*
X121084356Y-83933358D01*
X121079021Y-83946898D01*
X121062029Y-83977278D01*
X121036022Y-84020424D01*
X121003645Y-84072261D01*
X120967541Y-84128716D01*
X120930354Y-84185712D01*
X120894728Y-84239177D01*
X120863307Y-84285035D01*
X120838733Y-84319213D01*
X120823652Y-84337635D01*
X120820693Y-84339700D01*
X120806901Y-84332750D01*
X120777559Y-84314063D01*
X120737628Y-84286878D01*
X120710869Y-84267992D01*
X120494588Y-84097986D01*
X120293154Y-83908362D01*
X120108422Y-83701326D01*
X119942245Y-83479083D01*
X119796478Y-83243841D01*
X119709226Y-83076050D01*
X119596017Y-82812454D01*
X119507175Y-82543869D01*
X119442739Y-82271569D01*
X119402745Y-81996827D01*
X119387231Y-81720915D01*
X119396235Y-81445106D01*
X119429795Y-81170674D01*
X119487948Y-80898891D01*
X119570732Y-80631030D01*
X119632177Y-80472880D01*
X119754844Y-80211750D01*
X119897152Y-79966723D01*
X120059188Y-79737690D01*
X120241041Y-79524540D01*
X120442797Y-79327163D01*
X120664545Y-79145450D01*
X120734277Y-79094475D01*
X120807204Y-79042541D01*
X120940652Y-79246850D01*
G36*
X124328942Y-79063768D02*
G01*
X124359644Y-79083717D01*
X124402376Y-79113566D01*
X124453079Y-79150531D01*
X124470453Y-79163505D01*
X124683403Y-79339172D01*
X124879144Y-79532805D01*
X125056843Y-79742955D01*
X125215667Y-79968171D01*
X125354783Y-80207003D01*
X125473358Y-80458001D01*
X125570557Y-80719714D01*
X125645549Y-80990693D01*
X125697499Y-81269488D01*
X125702778Y-81308225D01*
X125711291Y-81394264D01*
X125717347Y-81498256D01*
X125720877Y-81612870D01*
X125721813Y-81730771D01*
X125720088Y-81844625D01*
X125715633Y-81947101D01*
X125709410Y-82021950D01*
X125668026Y-82287206D01*
X125603695Y-82549587D01*
X125517657Y-82806649D01*
X125411149Y-83055947D01*
X125285412Y-83295039D01*
X125141684Y-83521481D01*
X124981204Y-83732827D01*
X124805211Y-83926635D01*
X124687250Y-84038342D01*
X124640705Y-84078596D01*
X124586395Y-84123608D01*
X124527950Y-84170591D01*
X124469002Y-84216758D01*
X124413179Y-84259322D01*
X124364113Y-84295497D01*
X124325433Y-84322497D01*
X124300770Y-84337533D01*
X124294658Y-84339700D01*
X124285432Y-84329589D01*
X124264657Y-84301430D01*
X124234611Y-84258482D01*
X124197571Y-84204004D01*
X124155812Y-84141257D01*
X124152137Y-84135675D01*
X124110790Y-84072319D01*
X124075072Y-84016617D01*
X124047045Y-83971864D01*
X124028770Y-83941357D01*
X124022308Y-83928391D01*
X124022382Y-83928192D01*
X124033910Y-83919640D01*
X124061129Y-83899566D01*
X124099263Y-83871489D01*
X124122100Y-83854691D01*
X124327977Y-83688108D01*
X124514090Y-83506228D01*
X124679886Y-83310280D01*
X124824812Y-83101491D01*
X124948315Y-82881088D01*
X125049842Y-82650298D01*
X125128841Y-82410349D01*
X125184760Y-82162468D01*
X125217044Y-81907883D01*
X125225143Y-81647820D01*
X125213354Y-81431400D01*
X125177273Y-81178290D01*
X125117095Y-80931288D01*
X125033717Y-80691985D01*
X124928037Y-80461974D01*
X124800952Y-80242848D01*
X124653361Y-80036198D01*
X124486161Y-79843617D01*
X124300250Y-79666697D01*
X124150478Y-79546288D01*
X124035409Y-79460359D01*
X124106096Y-79350504D01*
X124168600Y-79254126D01*
X124218896Y-79178320D01*
X124257842Y-79121876D01*
X124286293Y-79083584D01*
X124305108Y-79062234D01*
X124314331Y-79056500D01*
X124328942Y-79063768D01*
G37*
X124328942Y-79063768D02*
X124359644Y-79083717D01*
X124402376Y-79113566D01*
X124453079Y-79150531D01*
X124470453Y-79163505D01*
X124683403Y-79339172D01*
X124879144Y-79532805D01*
X125056843Y-79742955D01*
X125215667Y-79968171D01*
X125354783Y-80207003D01*
X125473358Y-80458001D01*
X125570557Y-80719714D01*
X125645549Y-80990693D01*
X125697499Y-81269488D01*
X125702778Y-81308225D01*
X125711291Y-81394264D01*
X125717347Y-81498256D01*
X125720877Y-81612870D01*
X125721813Y-81730771D01*
X125720088Y-81844625D01*
X125715633Y-81947101D01*
X125709410Y-82021950D01*
X125668026Y-82287206D01*
X125603695Y-82549587D01*
X125517657Y-82806649D01*
X125411149Y-83055947D01*
X125285412Y-83295039D01*
X125141684Y-83521481D01*
X124981204Y-83732827D01*
X124805211Y-83926635D01*
X124687250Y-84038342D01*
X124640705Y-84078596D01*
X124586395Y-84123608D01*
X124527950Y-84170591D01*
X124469002Y-84216758D01*
X124413179Y-84259322D01*
X124364113Y-84295497D01*
X124325433Y-84322497D01*
X124300770Y-84337533D01*
X124294658Y-84339700D01*
X124285432Y-84329589D01*
X124264657Y-84301430D01*
X124234611Y-84258482D01*
X124197571Y-84204004D01*
X124155812Y-84141257D01*
X124152137Y-84135675D01*
X124110790Y-84072319D01*
X124075072Y-84016617D01*
X124047045Y-83971864D01*
X124028770Y-83941357D01*
X124022308Y-83928391D01*
X124022382Y-83928192D01*
X124033910Y-83919640D01*
X124061129Y-83899566D01*
X124099263Y-83871489D01*
X124122100Y-83854691D01*
X124327977Y-83688108D01*
X124514090Y-83506228D01*
X124679886Y-83310280D01*
X124824812Y-83101491D01*
X124948315Y-82881088D01*
X125049842Y-82650298D01*
X125128841Y-82410349D01*
X125184760Y-82162468D01*
X125217044Y-81907883D01*
X125225143Y-81647820D01*
X125213354Y-81431400D01*
X125177273Y-81178290D01*
X125117095Y-80931288D01*
X125033717Y-80691985D01*
X124928037Y-80461974D01*
X124800952Y-80242848D01*
X124653361Y-80036198D01*
X124486161Y-79843617D01*
X124300250Y-79666697D01*
X124150478Y-79546288D01*
X124035409Y-79460359D01*
X124106096Y-79350504D01*
X124168600Y-79254126D01*
X124218896Y-79178320D01*
X124257842Y-79121876D01*
X124286293Y-79083584D01*
X124305108Y-79062234D01*
X124314331Y-79056500D01*
X124328942Y-79063768D01*
G36*
X121366968Y-79904497D02*
G01*
X121386581Y-79930662D01*
X121413518Y-79968351D01*
X121444452Y-80012721D01*
X121476057Y-80058928D01*
X121505009Y-80102129D01*
X121527981Y-80137481D01*
X121541647Y-80160142D01*
X121544000Y-80165566D01*
X121534612Y-80174961D01*
X121509453Y-80195957D01*
X121473024Y-80224855D01*
X121451925Y-80241164D01*
X121302027Y-80370572D01*
X121165502Y-80517551D01*
X121044547Y-80678662D01*
X120941361Y-80850467D01*
X120858142Y-81029527D01*
X120797089Y-81212404D01*
X120777123Y-81296524D01*
X120744834Y-81512887D01*
X120737074Y-81727765D01*
X120753494Y-81939450D01*
X120793748Y-82146230D01*
X120857489Y-82346397D01*
X120944371Y-82538240D01*
X121054046Y-82720050D01*
X121070779Y-82744013D01*
X121121050Y-82808858D01*
X121184761Y-82882174D01*
X121256466Y-82958415D01*
X121330719Y-83032033D01*
X121402077Y-83097480D01*
X121465092Y-83149209D01*
X121477428Y-83158292D01*
X121515150Y-83186585D01*
X121543135Y-83209944D01*
X121556294Y-83224063D01*
X121556700Y-83225391D01*
X121550204Y-83238316D01*
X121532847Y-83266954D01*
X121507824Y-83306450D01*
X121478329Y-83351947D01*
X121447556Y-83398589D01*
X121418700Y-83441520D01*
X121394956Y-83475883D01*
X121379517Y-83496823D01*
X121375440Y-83500933D01*
X121364334Y-83494014D01*
X121338771Y-83476783D01*
X121315400Y-83460675D01*
X121154646Y-83335618D01*
X121001504Y-83189955D01*
X120860617Y-83028303D01*
X120799632Y-82947670D01*
X120749073Y-82871052D01*
X120694493Y-82777289D01*
X120639469Y-82673474D01*
X120587580Y-82566699D01*
X120542403Y-82464058D01*
X120507514Y-82372642D01*
X120503397Y-82360360D01*
X120443618Y-82138225D01*
X120408328Y-81913354D01*
X120397047Y-81687668D01*
X120409296Y-81463085D01*
X120444597Y-81241526D01*
X120502471Y-81024910D01*
X120582439Y-80815157D01*
X120684021Y-80614186D01*
X120806740Y-80423917D01*
X120950115Y-80246271D01*
X121058803Y-80134009D01*
X121110752Y-80085769D01*
X121166031Y-80037174D01*
X121220845Y-79991258D01*
X121271402Y-79951055D01*
X121313909Y-79919598D01*
X121344574Y-79899921D01*
X121358003Y-79894700D01*
X121366968Y-79904497D01*
G37*
X121366968Y-79904497D02*
X121386581Y-79930662D01*
X121413518Y-79968351D01*
X121444452Y-80012721D01*
X121476057Y-80058928D01*
X121505009Y-80102129D01*
X121527981Y-80137481D01*
X121541647Y-80160142D01*
X121544000Y-80165566D01*
X121534612Y-80174961D01*
X121509453Y-80195957D01*
X121473024Y-80224855D01*
X121451925Y-80241164D01*
X121302027Y-80370572D01*
X121165502Y-80517551D01*
X121044547Y-80678662D01*
X120941361Y-80850467D01*
X120858142Y-81029527D01*
X120797089Y-81212404D01*
X120777123Y-81296524D01*
X120744834Y-81512887D01*
X120737074Y-81727765D01*
X120753494Y-81939450D01*
X120793748Y-82146230D01*
X120857489Y-82346397D01*
X120944371Y-82538240D01*
X121054046Y-82720050D01*
X121070779Y-82744013D01*
X121121050Y-82808858D01*
X121184761Y-82882174D01*
X121256466Y-82958415D01*
X121330719Y-83032033D01*
X121402077Y-83097480D01*
X121465092Y-83149209D01*
X121477428Y-83158292D01*
X121515150Y-83186585D01*
X121543135Y-83209944D01*
X121556294Y-83224063D01*
X121556700Y-83225391D01*
X121550204Y-83238316D01*
X121532847Y-83266954D01*
X121507824Y-83306450D01*
X121478329Y-83351947D01*
X121447556Y-83398589D01*
X121418700Y-83441520D01*
X121394956Y-83475883D01*
X121379517Y-83496823D01*
X121375440Y-83500933D01*
X121364334Y-83494014D01*
X121338771Y-83476783D01*
X121315400Y-83460675D01*
X121154646Y-83335618D01*
X121001504Y-83189955D01*
X120860617Y-83028303D01*
X120799632Y-82947670D01*
X120749073Y-82871052D01*
X120694493Y-82777289D01*
X120639469Y-82673474D01*
X120587580Y-82566699D01*
X120542403Y-82464058D01*
X120507514Y-82372642D01*
X120503397Y-82360360D01*
X120443618Y-82138225D01*
X120408328Y-81913354D01*
X120397047Y-81687668D01*
X120409296Y-81463085D01*
X120444597Y-81241526D01*
X120502471Y-81024910D01*
X120582439Y-80815157D01*
X120684021Y-80614186D01*
X120806740Y-80423917D01*
X120950115Y-80246271D01*
X121058803Y-80134009D01*
X121110752Y-80085769D01*
X121166031Y-80037174D01*
X121220845Y-79991258D01*
X121271402Y-79951055D01*
X121313909Y-79919598D01*
X121344574Y-79899921D01*
X121358003Y-79894700D01*
X121366968Y-79904497D01*
G36*
X123769808Y-79901992D02*
G01*
X123798169Y-79921035D01*
X123836151Y-79948476D01*
X123851552Y-79960009D01*
X124027672Y-80106857D01*
X124182391Y-80265636D01*
X124317982Y-80439078D01*
X124436719Y-80629914D01*
X124484174Y-80720026D01*
X124579086Y-80936962D01*
X124649313Y-81158129D01*
X124694948Y-81382161D01*
X124716082Y-81607692D01*
X124712806Y-81833358D01*
X124685214Y-82057791D01*
X124633395Y-82279628D01*
X124557442Y-82497502D01*
X124457447Y-82710048D01*
X124337130Y-82910489D01*
X124274258Y-82996999D01*
X124199061Y-83088296D01*
X124115736Y-83180174D01*
X124028479Y-83268426D01*
X123941488Y-83348849D01*
X123858959Y-83417235D01*
X123785088Y-83469381D01*
X123770737Y-83478068D01*
X123734750Y-83499087D01*
X123641796Y-83359355D01*
X123607774Y-83307614D01*
X123579965Y-83264178D01*
X123560847Y-83233003D01*
X123552894Y-83218043D01*
X123552896Y-83217317D01*
X123589354Y-83192888D01*
X123638728Y-83154690D01*
X123696049Y-83106989D01*
X123756347Y-83054051D01*
X123814652Y-83000142D01*
X123865994Y-82949528D01*
X123871482Y-82943847D01*
X124012568Y-82779875D01*
X124130462Y-82605817D01*
X124225680Y-82420709D01*
X124298736Y-82223583D01*
X124339601Y-82065849D01*
X124355595Y-81967462D01*
X124365917Y-81852382D01*
X124370557Y-81728046D01*
X124369505Y-81601889D01*
X124362752Y-81481349D01*
X124350288Y-81373860D01*
X124340575Y-81321057D01*
X124282496Y-81109609D01*
X124203036Y-80911764D01*
X124101839Y-80726875D01*
X123978549Y-80554292D01*
X123832810Y-80393366D01*
X123829396Y-80390000D01*
X123778282Y-80341422D01*
X123725293Y-80293943D01*
X123677457Y-80253716D01*
X123648126Y-80231250D01*
X123612318Y-80204232D01*
X123586558Y-80181738D01*
X123576285Y-80168530D01*
X123576273Y-80168347D01*
X123582743Y-80153255D01*
X123600230Y-80122845D01*
X123625465Y-80082085D01*
X123655175Y-80035945D01*
X123686089Y-79989394D01*
X123714934Y-79947399D01*
X123738440Y-79914931D01*
X123753334Y-79896959D01*
X123756302Y-79894924D01*
X123769808Y-79901992D01*
G37*
X123769808Y-79901992D02*
X123798169Y-79921035D01*
X123836151Y-79948476D01*
X123851552Y-79960009D01*
X124027672Y-80106857D01*
X124182391Y-80265636D01*
X124317982Y-80439078D01*
X124436719Y-80629914D01*
X124484174Y-80720026D01*
X124579086Y-80936962D01*
X124649313Y-81158129D01*
X124694948Y-81382161D01*
X124716082Y-81607692D01*
X124712806Y-81833358D01*
X124685214Y-82057791D01*
X124633395Y-82279628D01*
X124557442Y-82497502D01*
X124457447Y-82710048D01*
X124337130Y-82910489D01*
X124274258Y-82996999D01*
X124199061Y-83088296D01*
X124115736Y-83180174D01*
X124028479Y-83268426D01*
X123941488Y-83348849D01*
X123858959Y-83417235D01*
X123785088Y-83469381D01*
X123770737Y-83478068D01*
X123734750Y-83499087D01*
X123641796Y-83359355D01*
X123607774Y-83307614D01*
X123579965Y-83264178D01*
X123560847Y-83233003D01*
X123552894Y-83218043D01*
X123552896Y-83217317D01*
X123589354Y-83192888D01*
X123638728Y-83154690D01*
X123696049Y-83106989D01*
X123756347Y-83054051D01*
X123814652Y-83000142D01*
X123865994Y-82949528D01*
X123871482Y-82943847D01*
X124012568Y-82779875D01*
X124130462Y-82605817D01*
X124225680Y-82420709D01*
X124298736Y-82223583D01*
X124339601Y-82065849D01*
X124355595Y-81967462D01*
X124365917Y-81852382D01*
X124370557Y-81728046D01*
X124369505Y-81601889D01*
X124362752Y-81481349D01*
X124350288Y-81373860D01*
X124340575Y-81321057D01*
X124282496Y-81109609D01*
X124203036Y-80911764D01*
X124101839Y-80726875D01*
X123978549Y-80554292D01*
X123832810Y-80393366D01*
X123829396Y-80390000D01*
X123778282Y-80341422D01*
X123725293Y-80293943D01*
X123677457Y-80253716D01*
X123648126Y-80231250D01*
X123612318Y-80204232D01*
X123586558Y-80181738D01*
X123576285Y-80168530D01*
X123576273Y-80168347D01*
X123582743Y-80153255D01*
X123600230Y-80122845D01*
X123625465Y-80082085D01*
X123655175Y-80035945D01*
X123686089Y-79989394D01*
X123714934Y-79947399D01*
X123738440Y-79914931D01*
X123753334Y-79896959D01*
X123756302Y-79894924D01*
X123769808Y-79901992D01*
G36*
X122985410Y-80566257D02*
G01*
X123036936Y-80569435D01*
X123088608Y-80574671D01*
X123133457Y-80581168D01*
X123164513Y-80588129D01*
X123174092Y-80592612D01*
X123196473Y-80603124D01*
X123217805Y-80605900D01*
X123250243Y-80611785D01*
X123286866Y-80626022D01*
X123288290Y-80626754D01*
X123321024Y-80643578D01*
X123346215Y-80656167D01*
X123347400Y-80656738D01*
X123358998Y-80670652D01*
X123364461Y-80701146D01*
X123365077Y-80740659D01*
X123363053Y-80786917D01*
X123359298Y-80826674D01*
X123356175Y-80844574D01*
X123339182Y-80901775D01*
X123320569Y-80950754D01*
X123303298Y-80983906D01*
X123300321Y-80987900D01*
X123286435Y-81014351D01*
X123283900Y-81028253D01*
X123274606Y-81049881D01*
X123252249Y-81073452D01*
X123252150Y-81073531D01*
X123229925Y-81095129D01*
X123220405Y-81112549D01*
X123220400Y-81112825D01*
X123210075Y-81128097D01*
X123188828Y-81141529D01*
X123157189Y-81163651D01*
X123137735Y-81185707D01*
X123117199Y-81207691D01*
X123099457Y-81215500D01*
X123082418Y-81220395D01*
X123087933Y-81235285D01*
X123116190Y-81260476D01*
X123136228Y-81275150D01*
X123188849Y-81326254D01*
X123230876Y-81395145D01*
X123258858Y-81475240D01*
X123267429Y-81525536D01*
X123273798Y-81569249D01*
X123285106Y-81597896D01*
X123306588Y-81621808D01*
X123323142Y-81635504D01*
X123357072Y-81669902D01*
X123389781Y-81714984D01*
X123403743Y-81739909D01*
X123436894Y-81830447D01*
X123445237Y-81917014D01*
X123428629Y-82001699D01*
X123386929Y-82086590D01*
X123379390Y-82098150D01*
X123356424Y-82139590D01*
X123330939Y-82197084D01*
X123306579Y-82262040D01*
X123295848Y-82295000D01*
X123275047Y-82356422D01*
X123251895Y-82414814D01*
X123229768Y-82462072D01*
X123217490Y-82483047D01*
X123190014Y-82516903D01*
X123154743Y-82552040D01*
X123117870Y-82583186D01*
X123085589Y-82605073D01*
X123065349Y-82612500D01*
X123049322Y-82619845D01*
X123021907Y-82638459D01*
X123006930Y-82649986D01*
X122967900Y-82677121D01*
X122919112Y-82705702D01*
X122890200Y-82720415D01*
X122838054Y-82747770D01*
X122783487Y-82780535D01*
X122758842Y-82797088D01*
X122696034Y-82833688D01*
X122626467Y-82861326D01*
X122559970Y-82876524D01*
X122529119Y-82878342D01*
X122492557Y-82874413D01*
X122447055Y-82865562D01*
X122430500Y-82861427D01*
X122381929Y-82843379D01*
X122332213Y-82817546D01*
X122317988Y-82808309D01*
X122280287Y-82783552D01*
X122230439Y-82753013D01*
X122178670Y-82722942D01*
X122174227Y-82720450D01*
X122073204Y-82662545D01*
X122050164Y-82648125D01*
X122287220Y-82648125D01*
X122289114Y-82677099D01*
X122312981Y-82710807D01*
X122356516Y-82746519D01*
X122385573Y-82764637D01*
X122465531Y-82796595D01*
X122549079Y-82804031D01*
X122632903Y-82786868D01*
X122669342Y-82771341D01*
X122723757Y-82739573D01*
X122765211Y-82706134D01*
X122790514Y-82674376D01*
X122796476Y-82647653D01*
X122793718Y-82640613D01*
X122765098Y-82613398D01*
X122717775Y-82589704D01*
X122658435Y-82572292D01*
X122610778Y-82565079D01*
X122547850Y-82563952D01*
X122481295Y-82570366D01*
X122416664Y-82582897D01*
X122359513Y-82600120D01*
X122315392Y-82620609D01*
X122289857Y-82642940D01*
X122287220Y-82648125D01*
X122050164Y-82648125D01*
X121992311Y-82611918D01*
X121928575Y-82565293D01*
X121879023Y-82519394D01*
X121840681Y-82470942D01*
X121810575Y-82416662D01*
X121785734Y-82353276D01*
X121763184Y-82277508D01*
X121759388Y-82263250D01*
X121759288Y-82262916D01*
X121849058Y-82262916D01*
X121856277Y-82320671D01*
X121875086Y-82380035D01*
X121905292Y-82436912D01*
X121946706Y-82487207D01*
X121956925Y-82496650D01*
X122016531Y-82539654D01*
X122076404Y-82566175D01*
X122132173Y-82575288D01*
X122179462Y-82566068D01*
X122204400Y-82549000D01*
X122222387Y-82515417D01*
X122229630Y-82466508D01*
X122226107Y-82409973D01*
X122211798Y-82353508D01*
X122204974Y-82336794D01*
X122168688Y-82276730D01*
X122128720Y-82232334D01*
X122280878Y-82232334D01*
X122293246Y-82299430D01*
X122326655Y-82362954D01*
X122376848Y-82417075D01*
X122439565Y-82455957D01*
X122446079Y-82458670D01*
X122494787Y-82469444D01*
X122555640Y-82471090D01*
X122617279Y-82464105D01*
X122653372Y-82453420D01*
X122833494Y-82453420D01*
X122839137Y-82505236D01*
X122859991Y-82543607D01*
X122881078Y-82559079D01*
X122932719Y-82572122D01*
X122992463Y-82569094D01*
X123035255Y-82556584D01*
X123089795Y-82524433D01*
X123143971Y-82476935D01*
X123188860Y-82422654D01*
X123206957Y-82391782D01*
X123225608Y-82335919D01*
X123233334Y-82273153D01*
X123230862Y-82209786D01*
X123218918Y-82152119D01*
X123198230Y-82106453D01*
X123170965Y-82079830D01*
X123135178Y-82074264D01*
X123089846Y-82087622D01*
X123038890Y-82117290D01*
X122986231Y-82160655D01*
X122935792Y-82215107D01*
X122904710Y-82257208D01*
X122866593Y-82325415D01*
X122842751Y-82392149D01*
X122833494Y-82453420D01*
X122653372Y-82453420D01*
X122668343Y-82448988D01*
X122668475Y-82448928D01*
X122728901Y-82408638D01*
X122775980Y-82351776D01*
X122805502Y-82284835D01*
X122813650Y-82225150D01*
X122801728Y-82169783D01*
X122770166Y-82113942D01*
X122723959Y-82063335D01*
X122668104Y-82023669D01*
X122619746Y-82003626D01*
X122545017Y-81993885D01*
X122472317Y-82004451D01*
X122405773Y-82032538D01*
X122349508Y-82075363D01*
X122307647Y-82130143D01*
X122284317Y-82194093D01*
X122280878Y-82232334D01*
X122128720Y-82232334D01*
X122119050Y-82221593D01*
X122061745Y-82175821D01*
X122002456Y-82143850D01*
X121946867Y-82130115D01*
X121939877Y-82129900D01*
X121898837Y-82140261D01*
X121870148Y-82168615D01*
X121853618Y-82210865D01*
X121849058Y-82262916D01*
X121759288Y-82262916D01*
X121741593Y-82204283D01*
X121720539Y-82147358D01*
X121699960Y-82102269D01*
X121694000Y-82091800D01*
X121657729Y-82011570D01*
X121641718Y-81924897D01*
X121642437Y-81912386D01*
X121704957Y-81912386D01*
X121718438Y-81993399D01*
X121754430Y-82069693D01*
X121754888Y-82070392D01*
X121779768Y-82102332D01*
X121800658Y-82111315D01*
X121822493Y-82097199D01*
X121844887Y-82067812D01*
X121865849Y-82025957D01*
X121882181Y-81972109D01*
X121893708Y-81911056D01*
X121900253Y-81847583D01*
X121901346Y-81799471D01*
X121990869Y-81799471D01*
X121996188Y-81871494D01*
X122016153Y-81925956D01*
X122060507Y-81987059D01*
X122116893Y-82026753D01*
X122182551Y-82044278D01*
X122254721Y-82038872D01*
X122327082Y-82011658D01*
X122377478Y-81973923D01*
X122423336Y-81918787D01*
X122458448Y-81854193D01*
X122466112Y-81833697D01*
X122482082Y-81755167D01*
X122480963Y-81733959D01*
X122597039Y-81733959D01*
X122607138Y-81804810D01*
X122634915Y-81874526D01*
X122681224Y-81939241D01*
X122684050Y-81942286D01*
X122746417Y-81992576D01*
X122818330Y-82019902D01*
X122899634Y-82025225D01*
X122946850Y-82020871D01*
X122978693Y-82011861D01*
X123005178Y-81994428D01*
X123021678Y-81979313D01*
X123067009Y-81918982D01*
X123089174Y-81848836D01*
X123088037Y-81770573D01*
X123147231Y-81770573D01*
X123148236Y-81833753D01*
X123155961Y-81901064D01*
X123170085Y-81967512D01*
X123190284Y-82028103D01*
X123214826Y-82075717D01*
X123237247Y-82099321D01*
X123260489Y-82100126D01*
X123286917Y-82077512D01*
X123305629Y-82051928D01*
X123334690Y-81987507D01*
X123347364Y-81912404D01*
X123343123Y-81835780D01*
X123322043Y-81768040D01*
X123297032Y-81728635D01*
X123264476Y-81693339D01*
X123230267Y-81667079D01*
X123200296Y-81654780D01*
X123187755Y-81655750D01*
X123166668Y-81676578D01*
X123153268Y-81716516D01*
X123147231Y-81770573D01*
X123088037Y-81770573D01*
X123088025Y-81769798D01*
X123067530Y-81693411D01*
X123029002Y-81620827D01*
X122975152Y-81562238D01*
X122910381Y-81520654D01*
X122839088Y-81499085D01*
X122781904Y-81498077D01*
X122716390Y-81516578D01*
X122664294Y-81553284D01*
X122626469Y-81604328D01*
X122603767Y-81665843D01*
X122597039Y-81733959D01*
X122480963Y-81733959D01*
X122478208Y-81681759D01*
X122456465Y-81616948D01*
X122418826Y-81564207D01*
X122367266Y-81527011D01*
X122303758Y-81508833D01*
X122280822Y-81507600D01*
X122207106Y-81519113D01*
X122140099Y-81550927D01*
X122082387Y-81598957D01*
X122036554Y-81659116D01*
X122005186Y-81727316D01*
X121990869Y-81799471D01*
X121901346Y-81799471D01*
X121901642Y-81786476D01*
X121897698Y-81732520D01*
X121888247Y-81690502D01*
X121873113Y-81665208D01*
X121859838Y-81660000D01*
X121834002Y-81669500D01*
X121801060Y-81693944D01*
X121768148Y-81727243D01*
X121746108Y-81757015D01*
X121714132Y-81831857D01*
X121704957Y-81912386D01*
X121642437Y-81912386D01*
X121646172Y-81847498D01*
X121665410Y-81777157D01*
X121697146Y-81716020D01*
X121746392Y-81654728D01*
X121753353Y-81647300D01*
X121785652Y-81609980D01*
X121803697Y-81577527D01*
X121809864Y-81551682D01*
X121877373Y-81551682D01*
X121885585Y-81578250D01*
X121898380Y-81583800D01*
X121913223Y-81577351D01*
X121943080Y-81560351D01*
X121981815Y-81536313D01*
X121986450Y-81533329D01*
X122028036Y-81503610D01*
X122074721Y-81465733D01*
X122122688Y-81423391D01*
X122168120Y-81380275D01*
X122171901Y-81376386D01*
X122302063Y-81376386D01*
X122323886Y-81411501D01*
X122346711Y-81433704D01*
X122402611Y-81467627D01*
X122474164Y-81488130D01*
X122554861Y-81494207D01*
X122638195Y-81484849D01*
X122653794Y-81481241D01*
X122716851Y-81457567D01*
X122758920Y-81425050D01*
X122778999Y-81386142D01*
X122776086Y-81343295D01*
X122749179Y-81298962D01*
X122734895Y-81284498D01*
X122801300Y-81284498D01*
X122810438Y-81303243D01*
X122835235Y-81334238D01*
X122871764Y-81373561D01*
X122916095Y-81417293D01*
X122964301Y-81461511D01*
X123012455Y-81502294D01*
X123043545Y-81526343D01*
X123097411Y-81562597D01*
X123135740Y-81579926D01*
X123159934Y-81578334D01*
X123171392Y-81557824D01*
X123172251Y-81526650D01*
X123155392Y-81442005D01*
X123118168Y-81372525D01*
X123060454Y-81318022D01*
X123010850Y-81290060D01*
X122972487Y-81277410D01*
X122926803Y-81269288D01*
X122880324Y-81265867D01*
X122839575Y-81267321D01*
X122811081Y-81273823D01*
X122801300Y-81284498D01*
X122734895Y-81284498D01*
X122734406Y-81284003D01*
X122668513Y-81239392D01*
X122594158Y-81215196D01*
X122516582Y-81211141D01*
X122441022Y-81226955D01*
X122372717Y-81262364D01*
X122326250Y-81305289D01*
X122303092Y-81342498D01*
X122302063Y-81376386D01*
X122171901Y-81376386D01*
X122207202Y-81340078D01*
X122236118Y-81306492D01*
X122251051Y-81283209D01*
X122252017Y-81276382D01*
X122237124Y-81266241D01*
X122200169Y-81261413D01*
X122165048Y-81260954D01*
X122076580Y-81272877D01*
X122002344Y-81305480D01*
X121943771Y-81357540D01*
X121902289Y-81427833D01*
X121881034Y-81503958D01*
X121877373Y-81551682D01*
X121809864Y-81551682D01*
X121812943Y-81538783D01*
X121815207Y-81520791D01*
X121832811Y-81442242D01*
X121865736Y-81368028D01*
X121909958Y-81305757D01*
X121946448Y-81272650D01*
X121983729Y-81243568D01*
X121998991Y-81225153D01*
X121992819Y-81216476D01*
X121982442Y-81215500D01*
X121962472Y-81205748D01*
X121943206Y-81184245D01*
X121919742Y-81158436D01*
X121897736Y-81145058D01*
X121872688Y-81127616D01*
X121860284Y-81109638D01*
X121846320Y-81084313D01*
X121823292Y-81047665D01*
X121803862Y-81018795D01*
X121780105Y-80980093D01*
X121764142Y-80945536D01*
X121759900Y-80927469D01*
X121755328Y-80902206D01*
X121748603Y-80892517D01*
X121737192Y-80873223D01*
X121728920Y-80836367D01*
X121724123Y-80789632D01*
X121724065Y-80786720D01*
X121777125Y-80786720D01*
X121781543Y-80796719D01*
X121801175Y-80815242D01*
X121827233Y-80841072D01*
X121835280Y-80855939D01*
X121824495Y-80857768D01*
X121817050Y-80855307D01*
X121801229Y-80852236D01*
X121801188Y-80862757D01*
X121817330Y-80889324D01*
X121824264Y-80899214D01*
X121839685Y-80925297D01*
X121837206Y-80935988D01*
X121833789Y-80936501D01*
X121831434Y-80943809D01*
X121845679Y-80961630D01*
X121854027Y-80969408D01*
X121876763Y-80992727D01*
X121879795Y-81007019D01*
X121874376Y-81012190D01*
X121870627Y-81022686D01*
X121888603Y-81038006D01*
X121907248Y-81048572D01*
X121933320Y-81064044D01*
X121943342Y-81073701D01*
X121940875Y-81075238D01*
X121925185Y-81080847D01*
X121929657Y-81093089D01*
X121951407Y-81107920D01*
X121969783Y-81115749D01*
X121999650Y-81131075D01*
X122008744Y-81146667D01*
X122008282Y-81148321D01*
X122012528Y-81160006D01*
X122038717Y-81164560D01*
X122047407Y-81164700D01*
X122077479Y-81167117D01*
X122087079Y-81175902D01*
X122085507Y-81183750D01*
X122090535Y-81196947D01*
X122115820Y-81202771D01*
X122157272Y-81201090D01*
X122210802Y-81191773D01*
X122225625Y-81188227D01*
X122266127Y-81171999D01*
X122307160Y-81146053D01*
X122342191Y-81115748D01*
X122364689Y-81086441D01*
X122369500Y-81070203D01*
X122359229Y-81049596D01*
X122330850Y-81018927D01*
X122288013Y-80981239D01*
X122234368Y-80939575D01*
X122173566Y-80896978D01*
X122123207Y-80864872D01*
X122079789Y-80837557D01*
X122049604Y-80816799D01*
X122035640Y-80804792D01*
X122039300Y-80803253D01*
X122074369Y-80816494D01*
X122124272Y-80839731D01*
X122182358Y-80869412D01*
X122241977Y-80901981D01*
X122296479Y-80933886D01*
X122339213Y-80961572D01*
X122349155Y-80968837D01*
X122390244Y-80995943D01*
X122420400Y-81003427D01*
X122444907Y-80991215D01*
X122463988Y-80967230D01*
X122481267Y-80918685D01*
X122480852Y-80909728D01*
X122594467Y-80909728D01*
X122602072Y-80949765D01*
X122625725Y-80982906D01*
X122629849Y-80986899D01*
X122660246Y-81015456D01*
X122721248Y-80970938D01*
X122754991Y-80948588D01*
X122799836Y-80921987D01*
X122850857Y-80893674D01*
X122903128Y-80866191D01*
X122951722Y-80842078D01*
X122991716Y-80823876D01*
X123018181Y-80814125D01*
X123026054Y-80813721D01*
X123020141Y-80822743D01*
X122997725Y-80837416D01*
X122989805Y-80841635D01*
X122946682Y-80866355D01*
X122893987Y-80900404D01*
X122838629Y-80938891D01*
X122787518Y-80976924D01*
X122747563Y-81009613D01*
X122732847Y-81023541D01*
X122711258Y-81051598D01*
X122707573Y-81076659D01*
X122722927Y-81104504D01*
X122755318Y-81137995D01*
X122784703Y-81158153D01*
X122824217Y-81175775D01*
X122868457Y-81189779D01*
X122912025Y-81199084D01*
X122949520Y-81202607D01*
X122975542Y-81199267D01*
X122984690Y-81187982D01*
X122983692Y-81183750D01*
X122984795Y-81169971D01*
X123005436Y-81164904D01*
X123014802Y-81164700D01*
X123052813Y-81161905D01*
X123078288Y-81154792D01*
X123086236Y-81145268D01*
X123080907Y-81139428D01*
X123080020Y-81129129D01*
X123101787Y-81115727D01*
X123105242Y-81114255D01*
X123131853Y-81099120D01*
X123144108Y-81084039D01*
X123144200Y-81082961D01*
X123154594Y-81068379D01*
X123180612Y-81050166D01*
X123191825Y-81044176D01*
X123219586Y-81028729D01*
X123225696Y-81019686D01*
X123215972Y-81015251D01*
X123202892Y-81009930D01*
X123204858Y-80999275D01*
X123223456Y-80977661D01*
X123227873Y-80973027D01*
X123247477Y-80948856D01*
X123249199Y-80936883D01*
X123245800Y-80936100D01*
X123241266Y-80928663D01*
X123255529Y-80908018D01*
X123262473Y-80900480D01*
X123288595Y-80870191D01*
X123295391Y-80854319D01*
X123282638Y-80853530D01*
X123277550Y-80855307D01*
X123260872Y-80857211D01*
X123263241Y-80842713D01*
X123284685Y-80811644D01*
X123285111Y-80811103D01*
X123301497Y-80787884D01*
X123301682Y-80777060D01*
X123291461Y-80773243D01*
X123273835Y-80764697D01*
X123275745Y-80747262D01*
X123289846Y-80725802D01*
X123306148Y-80699263D01*
X123302452Y-80685833D01*
X123276905Y-80682919D01*
X123260044Y-80684129D01*
X123228282Y-80685251D01*
X123216624Y-80679355D01*
X123217728Y-80670744D01*
X123217522Y-80660307D01*
X123202610Y-80657168D01*
X123168113Y-80660419D01*
X123164728Y-80660878D01*
X123127739Y-80664239D01*
X123112795Y-80660737D01*
X123113631Y-80654788D01*
X123111974Y-80646542D01*
X123089715Y-80646961D01*
X123073778Y-80649619D01*
X123043580Y-80654341D01*
X123033812Y-80651826D01*
X123040169Y-80640602D01*
X123041747Y-80638677D01*
X123051826Y-80623596D01*
X123045828Y-80619911D01*
X123021180Y-80627565D01*
X122996191Y-80637650D01*
X122962609Y-80651319D01*
X122947382Y-80654992D01*
X122945400Y-80648395D01*
X122950050Y-80635191D01*
X122951751Y-80623958D01*
X122940763Y-80625840D01*
X122913143Y-80641595D01*
X122911552Y-80642577D01*
X122880271Y-80659528D01*
X122865162Y-80660218D01*
X122862780Y-80644522D01*
X122863296Y-80640825D01*
X122858340Y-80631286D01*
X122841619Y-80637805D01*
X122820078Y-80657000D01*
X122800818Y-80673374D01*
X122788150Y-80669356D01*
X122786059Y-80666525D01*
X122774253Y-80660542D01*
X122756204Y-80674179D01*
X122746477Y-80685362D01*
X122723472Y-80707874D01*
X122707314Y-80709311D01*
X122703724Y-80706444D01*
X122689242Y-80707083D01*
X122668580Y-80725661D01*
X122645485Y-80756737D01*
X122623703Y-80794870D01*
X122606979Y-80834617D01*
X122601278Y-80855270D01*
X122594467Y-80909728D01*
X122480852Y-80909728D01*
X122478547Y-80860059D01*
X122458963Y-80802750D01*
X122438030Y-80763622D01*
X122416508Y-80730680D01*
X122397850Y-80708261D01*
X122385512Y-80700704D01*
X122382482Y-80706701D01*
X122375212Y-80712598D01*
X122353824Y-80697555D01*
X122346580Y-80690826D01*
X122320119Y-80668184D01*
X122301638Y-80657196D01*
X122295356Y-80659787D01*
X122299650Y-80669400D01*
X122302862Y-80681355D01*
X122291279Y-80678899D01*
X122269691Y-80663797D01*
X122259193Y-80654486D01*
X122239000Y-80637457D01*
X122230924Y-80638108D01*
X122229800Y-80648136D01*
X122225603Y-80665805D01*
X122210871Y-80665389D01*
X122182385Y-80646626D01*
X122179000Y-80644000D01*
X122148385Y-80623173D01*
X122134291Y-80621471D01*
X122136270Y-80637554D01*
X122138266Y-80648645D01*
X122128100Y-80648969D01*
X122100509Y-80638525D01*
X122098179Y-80637554D01*
X122061118Y-80623129D01*
X122044262Y-80620024D01*
X122045048Y-80628302D01*
X122052852Y-80638677D01*
X122060794Y-80651002D01*
X122053110Y-80654448D01*
X122025493Y-80650487D01*
X122020821Y-80649619D01*
X121988974Y-80645755D01*
X121979258Y-80650630D01*
X121980723Y-80654392D01*
X121977406Y-80662138D01*
X121952470Y-80663261D01*
X121925116Y-80660696D01*
X121887653Y-80657212D01*
X121870026Y-80659211D01*
X121867033Y-80667921D01*
X121868915Y-80673946D01*
X121869712Y-80687802D01*
X121854286Y-80693798D01*
X121829749Y-80694800D01*
X121799391Y-80696582D01*
X121788960Y-80704014D01*
X121791732Y-80717025D01*
X121805634Y-80755219D01*
X121807274Y-80775823D01*
X121796526Y-80783561D01*
X121789956Y-80784101D01*
X121777125Y-80786720D01*
X121724065Y-80786720D01*
X121723141Y-80740702D01*
X121726310Y-80697259D01*
X121733970Y-80666987D01*
X121738383Y-80660271D01*
X121762959Y-80645804D01*
X121782354Y-80640413D01*
X121812078Y-80630493D01*
X121826112Y-80620967D01*
X121848909Y-80610164D01*
X121880550Y-80605900D01*
X121912787Y-80601800D01*
X121933482Y-80592337D01*
X121952035Y-80584942D01*
X121988444Y-80577640D01*
X122035179Y-80571411D01*
X122084710Y-80567233D01*
X122129509Y-80566083D01*
X122134550Y-80566206D01*
X122165724Y-80567041D01*
X122200726Y-80567812D01*
X122231242Y-80571850D01*
X122248837Y-80580512D01*
X122249100Y-80580905D01*
X122266164Y-80589948D01*
X122292081Y-80593200D01*
X122327135Y-80602173D01*
X122350450Y-80618600D01*
X122375123Y-80637815D01*
X122394377Y-80644000D01*
X122418632Y-80654220D01*
X122449718Y-80681122D01*
X122482341Y-80719064D01*
X122511211Y-80762406D01*
X122518923Y-80776756D01*
X122544150Y-80826962D01*
X122570518Y-80775277D01*
X122600932Y-80723548D01*
X122633399Y-80681279D01*
X122663742Y-80653209D01*
X122686160Y-80644000D01*
X122711104Y-80635119D01*
X122731450Y-80618600D01*
X122761448Y-80599265D01*
X122789818Y-80593200D01*
X122818440Y-80589029D01*
X122833135Y-80580361D01*
X122850546Y-80570695D01*
X122875159Y-80567295D01*
X122914966Y-80566664D01*
X122941000Y-80565936D01*
X122985410Y-80566257D01*
G37*
X122985410Y-80566257D02*
X123036936Y-80569435D01*
X123088608Y-80574671D01*
X123133457Y-80581168D01*
X123164513Y-80588129D01*
X123174092Y-80592612D01*
X123196473Y-80603124D01*
X123217805Y-80605900D01*
X123250243Y-80611785D01*
X123286866Y-80626022D01*
X123288290Y-80626754D01*
X123321024Y-80643578D01*
X123346215Y-80656167D01*
X123347400Y-80656738D01*
X123358998Y-80670652D01*
X123364461Y-80701146D01*
X123365077Y-80740659D01*
X123363053Y-80786917D01*
X123359298Y-80826674D01*
X123356175Y-80844574D01*
X123339182Y-80901775D01*
X123320569Y-80950754D01*
X123303298Y-80983906D01*
X123300321Y-80987900D01*
X123286435Y-81014351D01*
X123283900Y-81028253D01*
X123274606Y-81049881D01*
X123252249Y-81073452D01*
X123252150Y-81073531D01*
X123229925Y-81095129D01*
X123220405Y-81112549D01*
X123220400Y-81112825D01*
X123210075Y-81128097D01*
X123188828Y-81141529D01*
X123157189Y-81163651D01*
X123137735Y-81185707D01*
X123117199Y-81207691D01*
X123099457Y-81215500D01*
X123082418Y-81220395D01*
X123087933Y-81235285D01*
X123116190Y-81260476D01*
X123136228Y-81275150D01*
X123188849Y-81326254D01*
X123230876Y-81395145D01*
X123258858Y-81475240D01*
X123267429Y-81525536D01*
X123273798Y-81569249D01*
X123285106Y-81597896D01*
X123306588Y-81621808D01*
X123323142Y-81635504D01*
X123357072Y-81669902D01*
X123389781Y-81714984D01*
X123403743Y-81739909D01*
X123436894Y-81830447D01*
X123445237Y-81917014D01*
X123428629Y-82001699D01*
X123386929Y-82086590D01*
X123379390Y-82098150D01*
X123356424Y-82139590D01*
X123330939Y-82197084D01*
X123306579Y-82262040D01*
X123295848Y-82295000D01*
X123275047Y-82356422D01*
X123251895Y-82414814D01*
X123229768Y-82462072D01*
X123217490Y-82483047D01*
X123190014Y-82516903D01*
X123154743Y-82552040D01*
X123117870Y-82583186D01*
X123085589Y-82605073D01*
X123065349Y-82612500D01*
X123049322Y-82619845D01*
X123021907Y-82638459D01*
X123006930Y-82649986D01*
X122967900Y-82677121D01*
X122919112Y-82705702D01*
X122890200Y-82720415D01*
X122838054Y-82747770D01*
X122783487Y-82780535D01*
X122758842Y-82797088D01*
X122696034Y-82833688D01*
X122626467Y-82861326D01*
X122559970Y-82876524D01*
X122529119Y-82878342D01*
X122492557Y-82874413D01*
X122447055Y-82865562D01*
X122430500Y-82861427D01*
X122381929Y-82843379D01*
X122332213Y-82817546D01*
X122317988Y-82808309D01*
X122280287Y-82783552D01*
X122230439Y-82753013D01*
X122178670Y-82722942D01*
X122174227Y-82720450D01*
X122073204Y-82662545D01*
X122050164Y-82648125D01*
X122287220Y-82648125D01*
X122289114Y-82677099D01*
X122312981Y-82710807D01*
X122356516Y-82746519D01*
X122385573Y-82764637D01*
X122465531Y-82796595D01*
X122549079Y-82804031D01*
X122632903Y-82786868D01*
X122669342Y-82771341D01*
X122723757Y-82739573D01*
X122765211Y-82706134D01*
X122790514Y-82674376D01*
X122796476Y-82647653D01*
X122793718Y-82640613D01*
X122765098Y-82613398D01*
X122717775Y-82589704D01*
X122658435Y-82572292D01*
X122610778Y-82565079D01*
X122547850Y-82563952D01*
X122481295Y-82570366D01*
X122416664Y-82582897D01*
X122359513Y-82600120D01*
X122315392Y-82620609D01*
X122289857Y-82642940D01*
X122287220Y-82648125D01*
X122050164Y-82648125D01*
X121992311Y-82611918D01*
X121928575Y-82565293D01*
X121879023Y-82519394D01*
X121840681Y-82470942D01*
X121810575Y-82416662D01*
X121785734Y-82353276D01*
X121763184Y-82277508D01*
X121759388Y-82263250D01*
X121759288Y-82262916D01*
X121849058Y-82262916D01*
X121856277Y-82320671D01*
X121875086Y-82380035D01*
X121905292Y-82436912D01*
X121946706Y-82487207D01*
X121956925Y-82496650D01*
X122016531Y-82539654D01*
X122076404Y-82566175D01*
X122132173Y-82575288D01*
X122179462Y-82566068D01*
X122204400Y-82549000D01*
X122222387Y-82515417D01*
X122229630Y-82466508D01*
X122226107Y-82409973D01*
X122211798Y-82353508D01*
X122204974Y-82336794D01*
X122168688Y-82276730D01*
X122128720Y-82232334D01*
X122280878Y-82232334D01*
X122293246Y-82299430D01*
X122326655Y-82362954D01*
X122376848Y-82417075D01*
X122439565Y-82455957D01*
X122446079Y-82458670D01*
X122494787Y-82469444D01*
X122555640Y-82471090D01*
X122617279Y-82464105D01*
X122653372Y-82453420D01*
X122833494Y-82453420D01*
X122839137Y-82505236D01*
X122859991Y-82543607D01*
X122881078Y-82559079D01*
X122932719Y-82572122D01*
X122992463Y-82569094D01*
X123035255Y-82556584D01*
X123089795Y-82524433D01*
X123143971Y-82476935D01*
X123188860Y-82422654D01*
X123206957Y-82391782D01*
X123225608Y-82335919D01*
X123233334Y-82273153D01*
X123230862Y-82209786D01*
X123218918Y-82152119D01*
X123198230Y-82106453D01*
X123170965Y-82079830D01*
X123135178Y-82074264D01*
X123089846Y-82087622D01*
X123038890Y-82117290D01*
X122986231Y-82160655D01*
X122935792Y-82215107D01*
X122904710Y-82257208D01*
X122866593Y-82325415D01*
X122842751Y-82392149D01*
X122833494Y-82453420D01*
X122653372Y-82453420D01*
X122668343Y-82448988D01*
X122668475Y-82448928D01*
X122728901Y-82408638D01*
X122775980Y-82351776D01*
X122805502Y-82284835D01*
X122813650Y-82225150D01*
X122801728Y-82169783D01*
X122770166Y-82113942D01*
X122723959Y-82063335D01*
X122668104Y-82023669D01*
X122619746Y-82003626D01*
X122545017Y-81993885D01*
X122472317Y-82004451D01*
X122405773Y-82032538D01*
X122349508Y-82075363D01*
X122307647Y-82130143D01*
X122284317Y-82194093D01*
X122280878Y-82232334D01*
X122128720Y-82232334D01*
X122119050Y-82221593D01*
X122061745Y-82175821D01*
X122002456Y-82143850D01*
X121946867Y-82130115D01*
X121939877Y-82129900D01*
X121898837Y-82140261D01*
X121870148Y-82168615D01*
X121853618Y-82210865D01*
X121849058Y-82262916D01*
X121759288Y-82262916D01*
X121741593Y-82204283D01*
X121720539Y-82147358D01*
X121699960Y-82102269D01*
X121694000Y-82091800D01*
X121657729Y-82011570D01*
X121641718Y-81924897D01*
X121642437Y-81912386D01*
X121704957Y-81912386D01*
X121718438Y-81993399D01*
X121754430Y-82069693D01*
X121754888Y-82070392D01*
X121779768Y-82102332D01*
X121800658Y-82111315D01*
X121822493Y-82097199D01*
X121844887Y-82067812D01*
X121865849Y-82025957D01*
X121882181Y-81972109D01*
X121893708Y-81911056D01*
X121900253Y-81847583D01*
X121901346Y-81799471D01*
X121990869Y-81799471D01*
X121996188Y-81871494D01*
X122016153Y-81925956D01*
X122060507Y-81987059D01*
X122116893Y-82026753D01*
X122182551Y-82044278D01*
X122254721Y-82038872D01*
X122327082Y-82011658D01*
X122377478Y-81973923D01*
X122423336Y-81918787D01*
X122458448Y-81854193D01*
X122466112Y-81833697D01*
X122482082Y-81755167D01*
X122480963Y-81733959D01*
X122597039Y-81733959D01*
X122607138Y-81804810D01*
X122634915Y-81874526D01*
X122681224Y-81939241D01*
X122684050Y-81942286D01*
X122746417Y-81992576D01*
X122818330Y-82019902D01*
X122899634Y-82025225D01*
X122946850Y-82020871D01*
X122978693Y-82011861D01*
X123005178Y-81994428D01*
X123021678Y-81979313D01*
X123067009Y-81918982D01*
X123089174Y-81848836D01*
X123088037Y-81770573D01*
X123147231Y-81770573D01*
X123148236Y-81833753D01*
X123155961Y-81901064D01*
X123170085Y-81967512D01*
X123190284Y-82028103D01*
X123214826Y-82075717D01*
X123237247Y-82099321D01*
X123260489Y-82100126D01*
X123286917Y-82077512D01*
X123305629Y-82051928D01*
X123334690Y-81987507D01*
X123347364Y-81912404D01*
X123343123Y-81835780D01*
X123322043Y-81768040D01*
X123297032Y-81728635D01*
X123264476Y-81693339D01*
X123230267Y-81667079D01*
X123200296Y-81654780D01*
X123187755Y-81655750D01*
X123166668Y-81676578D01*
X123153268Y-81716516D01*
X123147231Y-81770573D01*
X123088037Y-81770573D01*
X123088025Y-81769798D01*
X123067530Y-81693411D01*
X123029002Y-81620827D01*
X122975152Y-81562238D01*
X122910381Y-81520654D01*
X122839088Y-81499085D01*
X122781904Y-81498077D01*
X122716390Y-81516578D01*
X122664294Y-81553284D01*
X122626469Y-81604328D01*
X122603767Y-81665843D01*
X122597039Y-81733959D01*
X122480963Y-81733959D01*
X122478208Y-81681759D01*
X122456465Y-81616948D01*
X122418826Y-81564207D01*
X122367266Y-81527011D01*
X122303758Y-81508833D01*
X122280822Y-81507600D01*
X122207106Y-81519113D01*
X122140099Y-81550927D01*
X122082387Y-81598957D01*
X122036554Y-81659116D01*
X122005186Y-81727316D01*
X121990869Y-81799471D01*
X121901346Y-81799471D01*
X121901642Y-81786476D01*
X121897698Y-81732520D01*
X121888247Y-81690502D01*
X121873113Y-81665208D01*
X121859838Y-81660000D01*
X121834002Y-81669500D01*
X121801060Y-81693944D01*
X121768148Y-81727243D01*
X121746108Y-81757015D01*
X121714132Y-81831857D01*
X121704957Y-81912386D01*
X121642437Y-81912386D01*
X121646172Y-81847498D01*
X121665410Y-81777157D01*
X121697146Y-81716020D01*
X121746392Y-81654728D01*
X121753353Y-81647300D01*
X121785652Y-81609980D01*
X121803697Y-81577527D01*
X121809864Y-81551682D01*
X121877373Y-81551682D01*
X121885585Y-81578250D01*
X121898380Y-81583800D01*
X121913223Y-81577351D01*
X121943080Y-81560351D01*
X121981815Y-81536313D01*
X121986450Y-81533329D01*
X122028036Y-81503610D01*
X122074721Y-81465733D01*
X122122688Y-81423391D01*
X122168120Y-81380275D01*
X122171901Y-81376386D01*
X122302063Y-81376386D01*
X122323886Y-81411501D01*
X122346711Y-81433704D01*
X122402611Y-81467627D01*
X122474164Y-81488130D01*
X122554861Y-81494207D01*
X122638195Y-81484849D01*
X122653794Y-81481241D01*
X122716851Y-81457567D01*
X122758920Y-81425050D01*
X122778999Y-81386142D01*
X122776086Y-81343295D01*
X122749179Y-81298962D01*
X122734895Y-81284498D01*
X122801300Y-81284498D01*
X122810438Y-81303243D01*
X122835235Y-81334238D01*
X122871764Y-81373561D01*
X122916095Y-81417293D01*
X122964301Y-81461511D01*
X123012455Y-81502294D01*
X123043545Y-81526343D01*
X123097411Y-81562597D01*
X123135740Y-81579926D01*
X123159934Y-81578334D01*
X123171392Y-81557824D01*
X123172251Y-81526650D01*
X123155392Y-81442005D01*
X123118168Y-81372525D01*
X123060454Y-81318022D01*
X123010850Y-81290060D01*
X122972487Y-81277410D01*
X122926803Y-81269288D01*
X122880324Y-81265867D01*
X122839575Y-81267321D01*
X122811081Y-81273823D01*
X122801300Y-81284498D01*
X122734895Y-81284498D01*
X122734406Y-81284003D01*
X122668513Y-81239392D01*
X122594158Y-81215196D01*
X122516582Y-81211141D01*
X122441022Y-81226955D01*
X122372717Y-81262364D01*
X122326250Y-81305289D01*
X122303092Y-81342498D01*
X122302063Y-81376386D01*
X122171901Y-81376386D01*
X122207202Y-81340078D01*
X122236118Y-81306492D01*
X122251051Y-81283209D01*
X122252017Y-81276382D01*
X122237124Y-81266241D01*
X122200169Y-81261413D01*
X122165048Y-81260954D01*
X122076580Y-81272877D01*
X122002344Y-81305480D01*
X121943771Y-81357540D01*
X121902289Y-81427833D01*
X121881034Y-81503958D01*
X121877373Y-81551682D01*
X121809864Y-81551682D01*
X121812943Y-81538783D01*
X121815207Y-81520791D01*
X121832811Y-81442242D01*
X121865736Y-81368028D01*
X121909958Y-81305757D01*
X121946448Y-81272650D01*
X121983729Y-81243568D01*
X121998991Y-81225153D01*
X121992819Y-81216476D01*
X121982442Y-81215500D01*
X121962472Y-81205748D01*
X121943206Y-81184245D01*
X121919742Y-81158436D01*
X121897736Y-81145058D01*
X121872688Y-81127616D01*
X121860284Y-81109638D01*
X121846320Y-81084313D01*
X121823292Y-81047665D01*
X121803862Y-81018795D01*
X121780105Y-80980093D01*
X121764142Y-80945536D01*
X121759900Y-80927469D01*
X121755328Y-80902206D01*
X121748603Y-80892517D01*
X121737192Y-80873223D01*
X121728920Y-80836367D01*
X121724123Y-80789632D01*
X121724065Y-80786720D01*
X121777125Y-80786720D01*
X121781543Y-80796719D01*
X121801175Y-80815242D01*
X121827233Y-80841072D01*
X121835280Y-80855939D01*
X121824495Y-80857768D01*
X121817050Y-80855307D01*
X121801229Y-80852236D01*
X121801188Y-80862757D01*
X121817330Y-80889324D01*
X121824264Y-80899214D01*
X121839685Y-80925297D01*
X121837206Y-80935988D01*
X121833789Y-80936501D01*
X121831434Y-80943809D01*
X121845679Y-80961630D01*
X121854027Y-80969408D01*
X121876763Y-80992727D01*
X121879795Y-81007019D01*
X121874376Y-81012190D01*
X121870627Y-81022686D01*
X121888603Y-81038006D01*
X121907248Y-81048572D01*
X121933320Y-81064044D01*
X121943342Y-81073701D01*
X121940875Y-81075238D01*
X121925185Y-81080847D01*
X121929657Y-81093089D01*
X121951407Y-81107920D01*
X121969783Y-81115749D01*
X121999650Y-81131075D01*
X122008744Y-81146667D01*
X122008282Y-81148321D01*
X122012528Y-81160006D01*
X122038717Y-81164560D01*
X122047407Y-81164700D01*
X122077479Y-81167117D01*
X122087079Y-81175902D01*
X122085507Y-81183750D01*
X122090535Y-81196947D01*
X122115820Y-81202771D01*
X122157272Y-81201090D01*
X122210802Y-81191773D01*
X122225625Y-81188227D01*
X122266127Y-81171999D01*
X122307160Y-81146053D01*
X122342191Y-81115748D01*
X122364689Y-81086441D01*
X122369500Y-81070203D01*
X122359229Y-81049596D01*
X122330850Y-81018927D01*
X122288013Y-80981239D01*
X122234368Y-80939575D01*
X122173566Y-80896978D01*
X122123207Y-80864872D01*
X122079789Y-80837557D01*
X122049604Y-80816799D01*
X122035640Y-80804792D01*
X122039300Y-80803253D01*
X122074369Y-80816494D01*
X122124272Y-80839731D01*
X122182358Y-80869412D01*
X122241977Y-80901981D01*
X122296479Y-80933886D01*
X122339213Y-80961572D01*
X122349155Y-80968837D01*
X122390244Y-80995943D01*
X122420400Y-81003427D01*
X122444907Y-80991215D01*
X122463988Y-80967230D01*
X122481267Y-80918685D01*
X122480852Y-80909728D01*
X122594467Y-80909728D01*
X122602072Y-80949765D01*
X122625725Y-80982906D01*
X122629849Y-80986899D01*
X122660246Y-81015456D01*
X122721248Y-80970938D01*
X122754991Y-80948588D01*
X122799836Y-80921987D01*
X122850857Y-80893674D01*
X122903128Y-80866191D01*
X122951722Y-80842078D01*
X122991716Y-80823876D01*
X123018181Y-80814125D01*
X123026054Y-80813721D01*
X123020141Y-80822743D01*
X122997725Y-80837416D01*
X122989805Y-80841635D01*
X122946682Y-80866355D01*
X122893987Y-80900404D01*
X122838629Y-80938891D01*
X122787518Y-80976924D01*
X122747563Y-81009613D01*
X122732847Y-81023541D01*
X122711258Y-81051598D01*
X122707573Y-81076659D01*
X122722927Y-81104504D01*
X122755318Y-81137995D01*
X122784703Y-81158153D01*
X122824217Y-81175775D01*
X122868457Y-81189779D01*
X122912025Y-81199084D01*
X122949520Y-81202607D01*
X122975542Y-81199267D01*
X122984690Y-81187982D01*
X122983692Y-81183750D01*
X122984795Y-81169971D01*
X123005436Y-81164904D01*
X123014802Y-81164700D01*
X123052813Y-81161905D01*
X123078288Y-81154792D01*
X123086236Y-81145268D01*
X123080907Y-81139428D01*
X123080020Y-81129129D01*
X123101787Y-81115727D01*
X123105242Y-81114255D01*
X123131853Y-81099120D01*
X123144108Y-81084039D01*
X123144200Y-81082961D01*
X123154594Y-81068379D01*
X123180612Y-81050166D01*
X123191825Y-81044176D01*
X123219586Y-81028729D01*
X123225696Y-81019686D01*
X123215972Y-81015251D01*
X123202892Y-81009930D01*
X123204858Y-80999275D01*
X123223456Y-80977661D01*
X123227873Y-80973027D01*
X123247477Y-80948856D01*
X123249199Y-80936883D01*
X123245800Y-80936100D01*
X123241266Y-80928663D01*
X123255529Y-80908018D01*
X123262473Y-80900480D01*
X123288595Y-80870191D01*
X123295391Y-80854319D01*
X123282638Y-80853530D01*
X123277550Y-80855307D01*
X123260872Y-80857211D01*
X123263241Y-80842713D01*
X123284685Y-80811644D01*
X123285111Y-80811103D01*
X123301497Y-80787884D01*
X123301682Y-80777060D01*
X123291461Y-80773243D01*
X123273835Y-80764697D01*
X123275745Y-80747262D01*
X123289846Y-80725802D01*
X123306148Y-80699263D01*
X123302452Y-80685833D01*
X123276905Y-80682919D01*
X123260044Y-80684129D01*
X123228282Y-80685251D01*
X123216624Y-80679355D01*
X123217728Y-80670744D01*
X123217522Y-80660307D01*
X123202610Y-80657168D01*
X123168113Y-80660419D01*
X123164728Y-80660878D01*
X123127739Y-80664239D01*
X123112795Y-80660737D01*
X123113631Y-80654788D01*
X123111974Y-80646542D01*
X123089715Y-80646961D01*
X123073778Y-80649619D01*
X123043580Y-80654341D01*
X123033812Y-80651826D01*
X123040169Y-80640602D01*
X123041747Y-80638677D01*
X123051826Y-80623596D01*
X123045828Y-80619911D01*
X123021180Y-80627565D01*
X122996191Y-80637650D01*
X122962609Y-80651319D01*
X122947382Y-80654992D01*
X122945400Y-80648395D01*
X122950050Y-80635191D01*
X122951751Y-80623958D01*
X122940763Y-80625840D01*
X122913143Y-80641595D01*
X122911552Y-80642577D01*
X122880271Y-80659528D01*
X122865162Y-80660218D01*
X122862780Y-80644522D01*
X122863296Y-80640825D01*
X122858340Y-80631286D01*
X122841619Y-80637805D01*
X122820078Y-80657000D01*
X122800818Y-80673374D01*
X122788150Y-80669356D01*
X122786059Y-80666525D01*
X122774253Y-80660542D01*
X122756204Y-80674179D01*
X122746477Y-80685362D01*
X122723472Y-80707874D01*
X122707314Y-80709311D01*
X122703724Y-80706444D01*
X122689242Y-80707083D01*
X122668580Y-80725661D01*
X122645485Y-80756737D01*
X122623703Y-80794870D01*
X122606979Y-80834617D01*
X122601278Y-80855270D01*
X122594467Y-80909728D01*
X122480852Y-80909728D01*
X122478547Y-80860059D01*
X122458963Y-80802750D01*
X122438030Y-80763622D01*
X122416508Y-80730680D01*
X122397850Y-80708261D01*
X122385512Y-80700704D01*
X122382482Y-80706701D01*
X122375212Y-80712598D01*
X122353824Y-80697555D01*
X122346580Y-80690826D01*
X122320119Y-80668184D01*
X122301638Y-80657196D01*
X122295356Y-80659787D01*
X122299650Y-80669400D01*
X122302862Y-80681355D01*
X122291279Y-80678899D01*
X122269691Y-80663797D01*
X122259193Y-80654486D01*
X122239000Y-80637457D01*
X122230924Y-80638108D01*
X122229800Y-80648136D01*
X122225603Y-80665805D01*
X122210871Y-80665389D01*
X122182385Y-80646626D01*
X122179000Y-80644000D01*
X122148385Y-80623173D01*
X122134291Y-80621471D01*
X122136270Y-80637554D01*
X122138266Y-80648645D01*
X122128100Y-80648969D01*
X122100509Y-80638525D01*
X122098179Y-80637554D01*
X122061118Y-80623129D01*
X122044262Y-80620024D01*
X122045048Y-80628302D01*
X122052852Y-80638677D01*
X122060794Y-80651002D01*
X122053110Y-80654448D01*
X122025493Y-80650487D01*
X122020821Y-80649619D01*
X121988974Y-80645755D01*
X121979258Y-80650630D01*
X121980723Y-80654392D01*
X121977406Y-80662138D01*
X121952470Y-80663261D01*
X121925116Y-80660696D01*
X121887653Y-80657212D01*
X121870026Y-80659211D01*
X121867033Y-80667921D01*
X121868915Y-80673946D01*
X121869712Y-80687802D01*
X121854286Y-80693798D01*
X121829749Y-80694800D01*
X121799391Y-80696582D01*
X121788960Y-80704014D01*
X121791732Y-80717025D01*
X121805634Y-80755219D01*
X121807274Y-80775823D01*
X121796526Y-80783561D01*
X121789956Y-80784101D01*
X121777125Y-80786720D01*
X121724065Y-80786720D01*
X121723141Y-80740702D01*
X121726310Y-80697259D01*
X121733970Y-80666987D01*
X121738383Y-80660271D01*
X121762959Y-80645804D01*
X121782354Y-80640413D01*
X121812078Y-80630493D01*
X121826112Y-80620967D01*
X121848909Y-80610164D01*
X121880550Y-80605900D01*
X121912787Y-80601800D01*
X121933482Y-80592337D01*
X121952035Y-80584942D01*
X121988444Y-80577640D01*
X122035179Y-80571411D01*
X122084710Y-80567233D01*
X122129509Y-80566083D01*
X122134550Y-80566206D01*
X122165724Y-80567041D01*
X122200726Y-80567812D01*
X122231242Y-80571850D01*
X122248837Y-80580512D01*
X122249100Y-80580905D01*
X122266164Y-80589948D01*
X122292081Y-80593200D01*
X122327135Y-80602173D01*
X122350450Y-80618600D01*
X122375123Y-80637815D01*
X122394377Y-80644000D01*
X122418632Y-80654220D01*
X122449718Y-80681122D01*
X122482341Y-80719064D01*
X122511211Y-80762406D01*
X122518923Y-80776756D01*
X122544150Y-80826962D01*
X122570518Y-80775277D01*
X122600932Y-80723548D01*
X122633399Y-80681279D01*
X122663742Y-80653209D01*
X122686160Y-80644000D01*
X122711104Y-80635119D01*
X122731450Y-80618600D01*
X122761448Y-80599265D01*
X122789818Y-80593200D01*
X122818440Y-80589029D01*
X122833135Y-80580361D01*
X122850546Y-80570695D01*
X122875159Y-80567295D01*
X122914966Y-80566664D01*
X122941000Y-80565936D01*
X122985410Y-80566257D01*
G36*
X123576564Y-80830859D02*
G01*
X123680423Y-80975086D01*
X123761411Y-81119978D01*
X123821669Y-81270627D01*
X123863338Y-81432124D01*
X123883338Y-81560559D01*
X123890225Y-81720234D01*
X123874808Y-81884338D01*
X123838565Y-82048367D01*
X123782971Y-82207822D01*
X123709501Y-82358200D01*
X123619632Y-82495000D01*
X123549648Y-82578250D01*
X123488068Y-82644250D01*
X123487584Y-82483863D01*
X123487100Y-82323477D01*
X123531539Y-82249678D01*
X123585495Y-82149463D01*
X123624923Y-82049781D01*
X123651312Y-81944597D01*
X123666155Y-81827878D01*
X123670940Y-81693590D01*
X123670941Y-81685400D01*
X123668481Y-81574311D01*
X123660351Y-81481075D01*
X123644864Y-81398460D01*
X123620329Y-81319233D01*
X123585059Y-81236162D01*
X123549351Y-81164700D01*
X123486263Y-81044050D01*
X123489856Y-80885300D01*
X123493450Y-80726550D01*
X123576564Y-80830859D01*
G37*
X123576564Y-80830859D02*
X123680423Y-80975086D01*
X123761411Y-81119978D01*
X123821669Y-81270627D01*
X123863338Y-81432124D01*
X123883338Y-81560559D01*
X123890225Y-81720234D01*
X123874808Y-81884338D01*
X123838565Y-82048367D01*
X123782971Y-82207822D01*
X123709501Y-82358200D01*
X123619632Y-82495000D01*
X123549648Y-82578250D01*
X123488068Y-82644250D01*
X123487584Y-82483863D01*
X123487100Y-82323477D01*
X123531539Y-82249678D01*
X123585495Y-82149463D01*
X123624923Y-82049781D01*
X123651312Y-81944597D01*
X123666155Y-81827878D01*
X123670940Y-81693590D01*
X123670941Y-81685400D01*
X123668481Y-81574311D01*
X123660351Y-81481075D01*
X123644864Y-81398460D01*
X123620329Y-81319233D01*
X123585059Y-81236162D01*
X123549351Y-81164700D01*
X123486263Y-81044050D01*
X123489856Y-80885300D01*
X123493450Y-80726550D01*
X123576564Y-80830859D01*
G36*
X121579297Y-80946224D02*
G01*
X121580500Y-81015339D01*
X121580166Y-81065082D01*
X121577477Y-81101468D01*
X121571612Y-81130516D01*
X121561751Y-81158242D01*
X121547076Y-81190663D01*
X121545569Y-81193853D01*
X121484614Y-81351180D01*
X121447264Y-81513709D01*
X121433538Y-81678609D01*
X121443459Y-81843053D01*
X121477047Y-82004209D01*
X121534323Y-82159249D01*
X121538375Y-82168000D01*
X121582991Y-82263250D01*
X121579370Y-82430782D01*
X121575750Y-82598315D01*
X121535766Y-82550650D01*
X121446914Y-82429107D01*
X121368103Y-82290170D01*
X121303012Y-82141032D01*
X121262296Y-82015600D01*
X121251210Y-81971992D01*
X121243307Y-81931538D01*
X121238096Y-81888555D01*
X121235084Y-81837360D01*
X121233779Y-81772271D01*
X121233690Y-81687604D01*
X121233698Y-81685400D01*
X121234526Y-81597844D01*
X121236571Y-81530169D01*
X121240312Y-81476866D01*
X121246229Y-81432428D01*
X121254800Y-81391346D01*
X121261511Y-81365671D01*
X121323683Y-81183991D01*
X121405992Y-81016882D01*
X121509584Y-80862050D01*
X121518600Y-80850413D01*
X121575750Y-80777392D01*
X121579297Y-80946224D01*
G37*
X121579297Y-80946224D02*
X121580500Y-81015339D01*
X121580166Y-81065082D01*
X121577477Y-81101468D01*
X121571612Y-81130516D01*
X121561751Y-81158242D01*
X121547076Y-81190663D01*
X121545569Y-81193853D01*
X121484614Y-81351180D01*
X121447264Y-81513709D01*
X121433538Y-81678609D01*
X121443459Y-81843053D01*
X121477047Y-82004209D01*
X121534323Y-82159249D01*
X121538375Y-82168000D01*
X121582991Y-82263250D01*
X121579370Y-82430782D01*
X121575750Y-82598315D01*
X121535766Y-82550650D01*
X121446914Y-82429107D01*
X121368103Y-82290170D01*
X121303012Y-82141032D01*
X121262296Y-82015600D01*
X121251210Y-81971992D01*
X121243307Y-81931538D01*
X121238096Y-81888555D01*
X121235084Y-81837360D01*
X121233779Y-81772271D01*
X121233690Y-81687604D01*
X121233698Y-81685400D01*
X121234526Y-81597844D01*
X121236571Y-81530169D01*
X121240312Y-81476866D01*
X121246229Y-81432428D01*
X121254800Y-81391346D01*
X121261511Y-81365671D01*
X121323683Y-81183991D01*
X121405992Y-81016882D01*
X121509584Y-80862050D01*
X121518600Y-80850413D01*
X121575750Y-80777392D01*
X121579297Y-80946224D01*
G36*
X122001200Y-80790050D02*
G01*
X121994850Y-80796400D01*
X121988500Y-80790050D01*
X121994850Y-80783700D01*
X122001200Y-80790050D01*
G37*
X122001200Y-80790050D02*
X121994850Y-80796400D01*
X121988500Y-80790050D01*
X121994850Y-80783700D01*
X122001200Y-80790050D01*
G36*
X123055300Y-80802750D02*
G01*
X123048950Y-80809100D01*
X123042600Y-80802750D01*
X123048950Y-80796400D01*
X123055300Y-80802750D01*
G37*
X123055300Y-80802750D02*
X123048950Y-80809100D01*
X123042600Y-80802750D01*
X123048950Y-80796400D01*
X123055300Y-80802750D01*
D11*
%TO.C,C438*%
X110535000Y-106857000D02*
X110535000Y-109143000D01*
X110535000Y-109143000D02*
X109265000Y-109143000D01*
X109265000Y-109143000D02*
X109265000Y-106857000D01*
X109265000Y-106857000D02*
X110535000Y-106857000D01*
%TO.C,U1*%
X134010476Y-111321904D02*
X134010476Y-111969523D01*
X134048571Y-112045714D01*
X134086666Y-112083809D01*
X134162857Y-112121904D01*
X134315238Y-112121904D01*
X134391428Y-112083809D01*
X134429523Y-112045714D01*
X134467619Y-111969523D01*
X134467619Y-111321904D01*
X135267619Y-112121904D02*
X134810476Y-112121904D01*
X135039047Y-112121904D02*
X135039047Y-111321904D01*
X134962857Y-111436190D01*
X134886666Y-111512380D01*
X134810476Y-111550476D01*
%TO.C,IC401*%
X114627142Y-93541904D02*
X114627142Y-92741904D01*
X115465238Y-93465714D02*
X115427142Y-93503809D01*
X115312857Y-93541904D01*
X115236666Y-93541904D01*
X115122380Y-93503809D01*
X115046190Y-93427619D01*
X115008095Y-93351428D01*
X114970000Y-93199047D01*
X114970000Y-93084761D01*
X115008095Y-92932380D01*
X115046190Y-92856190D01*
X115122380Y-92780000D01*
X115236666Y-92741904D01*
X115312857Y-92741904D01*
X115427142Y-92780000D01*
X115465238Y-92818095D01*
X116150952Y-93008571D02*
X116150952Y-93541904D01*
X115960476Y-92703809D02*
X115770000Y-93275238D01*
X116265238Y-93275238D01*
X116722380Y-92741904D02*
X116798571Y-92741904D01*
X116874761Y-92780000D01*
X116912857Y-92818095D01*
X116950952Y-92894285D01*
X116989047Y-93046666D01*
X116989047Y-93237142D01*
X116950952Y-93389523D01*
X116912857Y-93465714D01*
X116874761Y-93503809D01*
X116798571Y-93541904D01*
X116722380Y-93541904D01*
X116646190Y-93503809D01*
X116608095Y-93465714D01*
X116570000Y-93389523D01*
X116531904Y-93237142D01*
X116531904Y-93046666D01*
X116570000Y-92894285D01*
X116608095Y-92818095D01*
X116646190Y-92780000D01*
X116722380Y-92741904D01*
X117750952Y-93541904D02*
X117293809Y-93541904D01*
X117522380Y-93541904D02*
X117522380Y-92741904D01*
X117446190Y-92856190D01*
X117370000Y-92932380D01*
X117293809Y-92970476D01*
%TO.C,C201*%
X154035714Y-107795238D02*
X154073809Y-107833333D01*
X154111904Y-107947619D01*
X154111904Y-108023809D01*
X154073809Y-108138095D01*
X153997619Y-108214285D01*
X153921428Y-108252380D01*
X153769047Y-108290476D01*
X153654761Y-108290476D01*
X153502380Y-108252380D01*
X153426190Y-108214285D01*
X153350000Y-108138095D01*
X153311904Y-108023809D01*
X153311904Y-107947619D01*
X153350000Y-107833333D01*
X153388095Y-107795238D01*
X153388095Y-107490476D02*
X153350000Y-107452380D01*
X153311904Y-107376190D01*
X153311904Y-107185714D01*
X153350000Y-107109523D01*
X153388095Y-107071428D01*
X153464285Y-107033333D01*
X153540476Y-107033333D01*
X153654761Y-107071428D01*
X154111904Y-107528571D01*
X154111904Y-107033333D01*
X153311904Y-106538095D02*
X153311904Y-106461904D01*
X153350000Y-106385714D01*
X153388095Y-106347619D01*
X153464285Y-106309523D01*
X153616666Y-106271428D01*
X153807142Y-106271428D01*
X153959523Y-106309523D01*
X154035714Y-106347619D01*
X154073809Y-106385714D01*
X154111904Y-106461904D01*
X154111904Y-106538095D01*
X154073809Y-106614285D01*
X154035714Y-106652380D01*
X153959523Y-106690476D01*
X153807142Y-106728571D01*
X153616666Y-106728571D01*
X153464285Y-106690476D01*
X153388095Y-106652380D01*
X153350000Y-106614285D01*
X153311904Y-106538095D01*
X154111904Y-105509523D02*
X154111904Y-105966666D01*
X154111904Y-105738095D02*
X153311904Y-105738095D01*
X153426190Y-105814285D01*
X153502380Y-105890476D01*
X153540476Y-105966666D01*
%TO.C,C202*%
X113554761Y-125935714D02*
X113516666Y-125973809D01*
X113402380Y-126011904D01*
X113326190Y-126011904D01*
X113211904Y-125973809D01*
X113135714Y-125897619D01*
X113097619Y-125821428D01*
X113059523Y-125669047D01*
X113059523Y-125554761D01*
X113097619Y-125402380D01*
X113135714Y-125326190D01*
X113211904Y-125250000D01*
X113326190Y-125211904D01*
X113402380Y-125211904D01*
X113516666Y-125250000D01*
X113554761Y-125288095D01*
X113859523Y-125288095D02*
X113897619Y-125250000D01*
X113973809Y-125211904D01*
X114164285Y-125211904D01*
X114240476Y-125250000D01*
X114278571Y-125288095D01*
X114316666Y-125364285D01*
X114316666Y-125440476D01*
X114278571Y-125554761D01*
X113821428Y-126011904D01*
X114316666Y-126011904D01*
X114811904Y-125211904D02*
X114888095Y-125211904D01*
X114964285Y-125250000D01*
X115002380Y-125288095D01*
X115040476Y-125364285D01*
X115078571Y-125516666D01*
X115078571Y-125707142D01*
X115040476Y-125859523D01*
X115002380Y-125935714D01*
X114964285Y-125973809D01*
X114888095Y-126011904D01*
X114811904Y-126011904D01*
X114735714Y-125973809D01*
X114697619Y-125935714D01*
X114659523Y-125859523D01*
X114621428Y-125707142D01*
X114621428Y-125516666D01*
X114659523Y-125364285D01*
X114697619Y-125288095D01*
X114735714Y-125250000D01*
X114811904Y-125211904D01*
X115383333Y-125288095D02*
X115421428Y-125250000D01*
X115497619Y-125211904D01*
X115688095Y-125211904D01*
X115764285Y-125250000D01*
X115802380Y-125288095D01*
X115840476Y-125364285D01*
X115840476Y-125440476D01*
X115802380Y-125554761D01*
X115345238Y-126011904D01*
X115840476Y-126011904D01*
%TO.C,C203*%
X104154761Y-78835714D02*
X104116666Y-78873809D01*
X104002380Y-78911904D01*
X103926190Y-78911904D01*
X103811904Y-78873809D01*
X103735714Y-78797619D01*
X103697619Y-78721428D01*
X103659523Y-78569047D01*
X103659523Y-78454761D01*
X103697619Y-78302380D01*
X103735714Y-78226190D01*
X103811904Y-78150000D01*
X103926190Y-78111904D01*
X104002380Y-78111904D01*
X104116666Y-78150000D01*
X104154761Y-78188095D01*
X104459523Y-78188095D02*
X104497619Y-78150000D01*
X104573809Y-78111904D01*
X104764285Y-78111904D01*
X104840476Y-78150000D01*
X104878571Y-78188095D01*
X104916666Y-78264285D01*
X104916666Y-78340476D01*
X104878571Y-78454761D01*
X104421428Y-78911904D01*
X104916666Y-78911904D01*
X105411904Y-78111904D02*
X105488095Y-78111904D01*
X105564285Y-78150000D01*
X105602380Y-78188095D01*
X105640476Y-78264285D01*
X105678571Y-78416666D01*
X105678571Y-78607142D01*
X105640476Y-78759523D01*
X105602380Y-78835714D01*
X105564285Y-78873809D01*
X105488095Y-78911904D01*
X105411904Y-78911904D01*
X105335714Y-78873809D01*
X105297619Y-78835714D01*
X105259523Y-78759523D01*
X105221428Y-78607142D01*
X105221428Y-78416666D01*
X105259523Y-78264285D01*
X105297619Y-78188095D01*
X105335714Y-78150000D01*
X105411904Y-78111904D01*
X105945238Y-78111904D02*
X106440476Y-78111904D01*
X106173809Y-78416666D01*
X106288095Y-78416666D01*
X106364285Y-78454761D01*
X106402380Y-78492857D01*
X106440476Y-78569047D01*
X106440476Y-78759523D01*
X106402380Y-78835714D01*
X106364285Y-78873809D01*
X106288095Y-78911904D01*
X106059523Y-78911904D01*
X105983333Y-78873809D01*
X105945238Y-78835714D01*
%TO.C,C204*%
X146004761Y-122685714D02*
X145966666Y-122723809D01*
X145852380Y-122761904D01*
X145776190Y-122761904D01*
X145661904Y-122723809D01*
X145585714Y-122647619D01*
X145547619Y-122571428D01*
X145509523Y-122419047D01*
X145509523Y-122304761D01*
X145547619Y-122152380D01*
X145585714Y-122076190D01*
X145661904Y-122000000D01*
X145776190Y-121961904D01*
X145852380Y-121961904D01*
X145966666Y-122000000D01*
X146004761Y-122038095D01*
X146309523Y-122038095D02*
X146347619Y-122000000D01*
X146423809Y-121961904D01*
X146614285Y-121961904D01*
X146690476Y-122000000D01*
X146728571Y-122038095D01*
X146766666Y-122114285D01*
X146766666Y-122190476D01*
X146728571Y-122304761D01*
X146271428Y-122761904D01*
X146766666Y-122761904D01*
X147261904Y-121961904D02*
X147338095Y-121961904D01*
X147414285Y-122000000D01*
X147452380Y-122038095D01*
X147490476Y-122114285D01*
X147528571Y-122266666D01*
X147528571Y-122457142D01*
X147490476Y-122609523D01*
X147452380Y-122685714D01*
X147414285Y-122723809D01*
X147338095Y-122761904D01*
X147261904Y-122761904D01*
X147185714Y-122723809D01*
X147147619Y-122685714D01*
X147109523Y-122609523D01*
X147071428Y-122457142D01*
X147071428Y-122266666D01*
X147109523Y-122114285D01*
X147147619Y-122038095D01*
X147185714Y-122000000D01*
X147261904Y-121961904D01*
X148214285Y-122228571D02*
X148214285Y-122761904D01*
X148023809Y-121923809D02*
X147833333Y-122495238D01*
X148328571Y-122495238D01*
%TO.C,C205*%
X104124285Y-120001428D02*
X104152857Y-120030000D01*
X104181428Y-120115714D01*
X104181428Y-120172857D01*
X104152857Y-120258571D01*
X104095714Y-120315714D01*
X104038571Y-120344285D01*
X103924285Y-120372857D01*
X103838571Y-120372857D01*
X103724285Y-120344285D01*
X103667142Y-120315714D01*
X103610000Y-120258571D01*
X103581428Y-120172857D01*
X103581428Y-120115714D01*
X103610000Y-120030000D01*
X103638571Y-120001428D01*
X103638571Y-119772857D02*
X103610000Y-119744285D01*
X103581428Y-119687142D01*
X103581428Y-119544285D01*
X103610000Y-119487142D01*
X103638571Y-119458571D01*
X103695714Y-119430000D01*
X103752857Y-119430000D01*
X103838571Y-119458571D01*
X104181428Y-119801428D01*
X104181428Y-119430000D01*
X103581428Y-119058571D02*
X103581428Y-119001428D01*
X103610000Y-118944285D01*
X103638571Y-118915714D01*
X103695714Y-118887142D01*
X103810000Y-118858571D01*
X103952857Y-118858571D01*
X104067142Y-118887142D01*
X104124285Y-118915714D01*
X104152857Y-118944285D01*
X104181428Y-119001428D01*
X104181428Y-119058571D01*
X104152857Y-119115714D01*
X104124285Y-119144285D01*
X104067142Y-119172857D01*
X103952857Y-119201428D01*
X103810000Y-119201428D01*
X103695714Y-119172857D01*
X103638571Y-119144285D01*
X103610000Y-119115714D01*
X103581428Y-119058571D01*
X103581428Y-118315714D02*
X103581428Y-118601428D01*
X103867142Y-118630000D01*
X103838571Y-118601428D01*
X103810000Y-118544285D01*
X103810000Y-118401428D01*
X103838571Y-118344285D01*
X103867142Y-118315714D01*
X103924285Y-118287142D01*
X104067142Y-118287142D01*
X104124285Y-118315714D01*
X104152857Y-118344285D01*
X104181428Y-118401428D01*
X104181428Y-118544285D01*
X104152857Y-118601428D01*
X104124285Y-118630000D01*
%TO.C,C206*%
X113454761Y-87735714D02*
X113416666Y-87773809D01*
X113302380Y-87811904D01*
X113226190Y-87811904D01*
X113111904Y-87773809D01*
X113035714Y-87697619D01*
X112997619Y-87621428D01*
X112959523Y-87469047D01*
X112959523Y-87354761D01*
X112997619Y-87202380D01*
X113035714Y-87126190D01*
X113111904Y-87050000D01*
X113226190Y-87011904D01*
X113302380Y-87011904D01*
X113416666Y-87050000D01*
X113454761Y-87088095D01*
X113759523Y-87088095D02*
X113797619Y-87050000D01*
X113873809Y-87011904D01*
X114064285Y-87011904D01*
X114140476Y-87050000D01*
X114178571Y-87088095D01*
X114216666Y-87164285D01*
X114216666Y-87240476D01*
X114178571Y-87354761D01*
X113721428Y-87811904D01*
X114216666Y-87811904D01*
X114711904Y-87011904D02*
X114788095Y-87011904D01*
X114864285Y-87050000D01*
X114902380Y-87088095D01*
X114940476Y-87164285D01*
X114978571Y-87316666D01*
X114978571Y-87507142D01*
X114940476Y-87659523D01*
X114902380Y-87735714D01*
X114864285Y-87773809D01*
X114788095Y-87811904D01*
X114711904Y-87811904D01*
X114635714Y-87773809D01*
X114597619Y-87735714D01*
X114559523Y-87659523D01*
X114521428Y-87507142D01*
X114521428Y-87316666D01*
X114559523Y-87164285D01*
X114597619Y-87088095D01*
X114635714Y-87050000D01*
X114711904Y-87011904D01*
X115664285Y-87011904D02*
X115511904Y-87011904D01*
X115435714Y-87050000D01*
X115397619Y-87088095D01*
X115321428Y-87202380D01*
X115283333Y-87354761D01*
X115283333Y-87659523D01*
X115321428Y-87735714D01*
X115359523Y-87773809D01*
X115435714Y-87811904D01*
X115588095Y-87811904D01*
X115664285Y-87773809D01*
X115702380Y-87735714D01*
X115740476Y-87659523D01*
X115740476Y-87469047D01*
X115702380Y-87392857D01*
X115664285Y-87354761D01*
X115588095Y-87316666D01*
X115435714Y-87316666D01*
X115359523Y-87354761D01*
X115321428Y-87392857D01*
X115283333Y-87469047D01*
%TO.C,C207*%
X149385714Y-108095238D02*
X149423809Y-108133333D01*
X149461904Y-108247619D01*
X149461904Y-108323809D01*
X149423809Y-108438095D01*
X149347619Y-108514285D01*
X149271428Y-108552380D01*
X149119047Y-108590476D01*
X149004761Y-108590476D01*
X148852380Y-108552380D01*
X148776190Y-108514285D01*
X148700000Y-108438095D01*
X148661904Y-108323809D01*
X148661904Y-108247619D01*
X148700000Y-108133333D01*
X148738095Y-108095238D01*
X148738095Y-107790476D02*
X148700000Y-107752380D01*
X148661904Y-107676190D01*
X148661904Y-107485714D01*
X148700000Y-107409523D01*
X148738095Y-107371428D01*
X148814285Y-107333333D01*
X148890476Y-107333333D01*
X149004761Y-107371428D01*
X149461904Y-107828571D01*
X149461904Y-107333333D01*
X148661904Y-106838095D02*
X148661904Y-106761904D01*
X148700000Y-106685714D01*
X148738095Y-106647619D01*
X148814285Y-106609523D01*
X148966666Y-106571428D01*
X149157142Y-106571428D01*
X149309523Y-106609523D01*
X149385714Y-106647619D01*
X149423809Y-106685714D01*
X149461904Y-106761904D01*
X149461904Y-106838095D01*
X149423809Y-106914285D01*
X149385714Y-106952380D01*
X149309523Y-106990476D01*
X149157142Y-107028571D01*
X148966666Y-107028571D01*
X148814285Y-106990476D01*
X148738095Y-106952380D01*
X148700000Y-106914285D01*
X148661904Y-106838095D01*
X148661904Y-106304761D02*
X148661904Y-105771428D01*
X149461904Y-106114285D01*
%TO.C,C208*%
X101784761Y-121745714D02*
X101746666Y-121783809D01*
X101632380Y-121821904D01*
X101556190Y-121821904D01*
X101441904Y-121783809D01*
X101365714Y-121707619D01*
X101327619Y-121631428D01*
X101289523Y-121479047D01*
X101289523Y-121364761D01*
X101327619Y-121212380D01*
X101365714Y-121136190D01*
X101441904Y-121060000D01*
X101556190Y-121021904D01*
X101632380Y-121021904D01*
X101746666Y-121060000D01*
X101784761Y-121098095D01*
X102089523Y-121098095D02*
X102127619Y-121060000D01*
X102203809Y-121021904D01*
X102394285Y-121021904D01*
X102470476Y-121060000D01*
X102508571Y-121098095D01*
X102546666Y-121174285D01*
X102546666Y-121250476D01*
X102508571Y-121364761D01*
X102051428Y-121821904D01*
X102546666Y-121821904D01*
X103041904Y-121021904D02*
X103118095Y-121021904D01*
X103194285Y-121060000D01*
X103232380Y-121098095D01*
X103270476Y-121174285D01*
X103308571Y-121326666D01*
X103308571Y-121517142D01*
X103270476Y-121669523D01*
X103232380Y-121745714D01*
X103194285Y-121783809D01*
X103118095Y-121821904D01*
X103041904Y-121821904D01*
X102965714Y-121783809D01*
X102927619Y-121745714D01*
X102889523Y-121669523D01*
X102851428Y-121517142D01*
X102851428Y-121326666D01*
X102889523Y-121174285D01*
X102927619Y-121098095D01*
X102965714Y-121060000D01*
X103041904Y-121021904D01*
X103765714Y-121364761D02*
X103689523Y-121326666D01*
X103651428Y-121288571D01*
X103613333Y-121212380D01*
X103613333Y-121174285D01*
X103651428Y-121098095D01*
X103689523Y-121060000D01*
X103765714Y-121021904D01*
X103918095Y-121021904D01*
X103994285Y-121060000D01*
X104032380Y-121098095D01*
X104070476Y-121174285D01*
X104070476Y-121212380D01*
X104032380Y-121288571D01*
X103994285Y-121326666D01*
X103918095Y-121364761D01*
X103765714Y-121364761D01*
X103689523Y-121402857D01*
X103651428Y-121440952D01*
X103613333Y-121517142D01*
X103613333Y-121669523D01*
X103651428Y-121745714D01*
X103689523Y-121783809D01*
X103765714Y-121821904D01*
X103918095Y-121821904D01*
X103994285Y-121783809D01*
X104032380Y-121745714D01*
X104070476Y-121669523D01*
X104070476Y-121517142D01*
X104032380Y-121440952D01*
X103994285Y-121402857D01*
X103918095Y-121364761D01*
%TO.C,C209*%
X114244761Y-79195714D02*
X114206666Y-79233809D01*
X114092380Y-79271904D01*
X114016190Y-79271904D01*
X113901904Y-79233809D01*
X113825714Y-79157619D01*
X113787619Y-79081428D01*
X113749523Y-78929047D01*
X113749523Y-78814761D01*
X113787619Y-78662380D01*
X113825714Y-78586190D01*
X113901904Y-78510000D01*
X114016190Y-78471904D01*
X114092380Y-78471904D01*
X114206666Y-78510000D01*
X114244761Y-78548095D01*
X114549523Y-78548095D02*
X114587619Y-78510000D01*
X114663809Y-78471904D01*
X114854285Y-78471904D01*
X114930476Y-78510000D01*
X114968571Y-78548095D01*
X115006666Y-78624285D01*
X115006666Y-78700476D01*
X114968571Y-78814761D01*
X114511428Y-79271904D01*
X115006666Y-79271904D01*
X115501904Y-78471904D02*
X115578095Y-78471904D01*
X115654285Y-78510000D01*
X115692380Y-78548095D01*
X115730476Y-78624285D01*
X115768571Y-78776666D01*
X115768571Y-78967142D01*
X115730476Y-79119523D01*
X115692380Y-79195714D01*
X115654285Y-79233809D01*
X115578095Y-79271904D01*
X115501904Y-79271904D01*
X115425714Y-79233809D01*
X115387619Y-79195714D01*
X115349523Y-79119523D01*
X115311428Y-78967142D01*
X115311428Y-78776666D01*
X115349523Y-78624285D01*
X115387619Y-78548095D01*
X115425714Y-78510000D01*
X115501904Y-78471904D01*
X116149523Y-79271904D02*
X116301904Y-79271904D01*
X116378095Y-79233809D01*
X116416190Y-79195714D01*
X116492380Y-79081428D01*
X116530476Y-78929047D01*
X116530476Y-78624285D01*
X116492380Y-78548095D01*
X116454285Y-78510000D01*
X116378095Y-78471904D01*
X116225714Y-78471904D01*
X116149523Y-78510000D01*
X116111428Y-78548095D01*
X116073333Y-78624285D01*
X116073333Y-78814761D01*
X116111428Y-78890952D01*
X116149523Y-78929047D01*
X116225714Y-78967142D01*
X116378095Y-78967142D01*
X116454285Y-78929047D01*
X116492380Y-78890952D01*
X116530476Y-78814761D01*
%TO.C,C210*%
X145085714Y-118645238D02*
X145123809Y-118683333D01*
X145161904Y-118797619D01*
X145161904Y-118873809D01*
X145123809Y-118988095D01*
X145047619Y-119064285D01*
X144971428Y-119102380D01*
X144819047Y-119140476D01*
X144704761Y-119140476D01*
X144552380Y-119102380D01*
X144476190Y-119064285D01*
X144400000Y-118988095D01*
X144361904Y-118873809D01*
X144361904Y-118797619D01*
X144400000Y-118683333D01*
X144438095Y-118645238D01*
X144438095Y-118340476D02*
X144400000Y-118302380D01*
X144361904Y-118226190D01*
X144361904Y-118035714D01*
X144400000Y-117959523D01*
X144438095Y-117921428D01*
X144514285Y-117883333D01*
X144590476Y-117883333D01*
X144704761Y-117921428D01*
X145161904Y-118378571D01*
X145161904Y-117883333D01*
X145161904Y-117121428D02*
X145161904Y-117578571D01*
X145161904Y-117350000D02*
X144361904Y-117350000D01*
X144476190Y-117426190D01*
X144552380Y-117502380D01*
X144590476Y-117578571D01*
X144361904Y-116626190D02*
X144361904Y-116550000D01*
X144400000Y-116473809D01*
X144438095Y-116435714D01*
X144514285Y-116397619D01*
X144666666Y-116359523D01*
X144857142Y-116359523D01*
X145009523Y-116397619D01*
X145085714Y-116435714D01*
X145123809Y-116473809D01*
X145161904Y-116550000D01*
X145161904Y-116626190D01*
X145123809Y-116702380D01*
X145085714Y-116740476D01*
X145009523Y-116778571D01*
X144857142Y-116816666D01*
X144666666Y-116816666D01*
X144514285Y-116778571D01*
X144438095Y-116740476D01*
X144400000Y-116702380D01*
X144361904Y-116626190D01*
%TO.C,C211*%
X105054761Y-124885714D02*
X105016666Y-124923809D01*
X104902380Y-124961904D01*
X104826190Y-124961904D01*
X104711904Y-124923809D01*
X104635714Y-124847619D01*
X104597619Y-124771428D01*
X104559523Y-124619047D01*
X104559523Y-124504761D01*
X104597619Y-124352380D01*
X104635714Y-124276190D01*
X104711904Y-124200000D01*
X104826190Y-124161904D01*
X104902380Y-124161904D01*
X105016666Y-124200000D01*
X105054761Y-124238095D01*
X105359523Y-124238095D02*
X105397619Y-124200000D01*
X105473809Y-124161904D01*
X105664285Y-124161904D01*
X105740476Y-124200000D01*
X105778571Y-124238095D01*
X105816666Y-124314285D01*
X105816666Y-124390476D01*
X105778571Y-124504761D01*
X105321428Y-124961904D01*
X105816666Y-124961904D01*
X106578571Y-124961904D02*
X106121428Y-124961904D01*
X106350000Y-124961904D02*
X106350000Y-124161904D01*
X106273809Y-124276190D01*
X106197619Y-124352380D01*
X106121428Y-124390476D01*
X107340476Y-124961904D02*
X106883333Y-124961904D01*
X107111904Y-124961904D02*
X107111904Y-124161904D01*
X107035714Y-124276190D01*
X106959523Y-124352380D01*
X106883333Y-124390476D01*
%TO.C,C212*%
X114258571Y-83894285D02*
X114230000Y-83922857D01*
X114144285Y-83951428D01*
X114087142Y-83951428D01*
X114001428Y-83922857D01*
X113944285Y-83865714D01*
X113915714Y-83808571D01*
X113887142Y-83694285D01*
X113887142Y-83608571D01*
X113915714Y-83494285D01*
X113944285Y-83437142D01*
X114001428Y-83380000D01*
X114087142Y-83351428D01*
X114144285Y-83351428D01*
X114230000Y-83380000D01*
X114258571Y-83408571D01*
X114487142Y-83408571D02*
X114515714Y-83380000D01*
X114572857Y-83351428D01*
X114715714Y-83351428D01*
X114772857Y-83380000D01*
X114801428Y-83408571D01*
X114830000Y-83465714D01*
X114830000Y-83522857D01*
X114801428Y-83608571D01*
X114458571Y-83951428D01*
X114830000Y-83951428D01*
X115401428Y-83951428D02*
X115058571Y-83951428D01*
X115230000Y-83951428D02*
X115230000Y-83351428D01*
X115172857Y-83437142D01*
X115115714Y-83494285D01*
X115058571Y-83522857D01*
X115630000Y-83408571D02*
X115658571Y-83380000D01*
X115715714Y-83351428D01*
X115858571Y-83351428D01*
X115915714Y-83380000D01*
X115944285Y-83408571D01*
X115972857Y-83465714D01*
X115972857Y-83522857D01*
X115944285Y-83608571D01*
X115601428Y-83951428D01*
X115972857Y-83951428D01*
%TO.C,C213*%
X149804761Y-120485714D02*
X149766666Y-120523809D01*
X149652380Y-120561904D01*
X149576190Y-120561904D01*
X149461904Y-120523809D01*
X149385714Y-120447619D01*
X149347619Y-120371428D01*
X149309523Y-120219047D01*
X149309523Y-120104761D01*
X149347619Y-119952380D01*
X149385714Y-119876190D01*
X149461904Y-119800000D01*
X149576190Y-119761904D01*
X149652380Y-119761904D01*
X149766666Y-119800000D01*
X149804761Y-119838095D01*
X150109523Y-119838095D02*
X150147619Y-119800000D01*
X150223809Y-119761904D01*
X150414285Y-119761904D01*
X150490476Y-119800000D01*
X150528571Y-119838095D01*
X150566666Y-119914285D01*
X150566666Y-119990476D01*
X150528571Y-120104761D01*
X150071428Y-120561904D01*
X150566666Y-120561904D01*
X151328571Y-120561904D02*
X150871428Y-120561904D01*
X151100000Y-120561904D02*
X151100000Y-119761904D01*
X151023809Y-119876190D01*
X150947619Y-119952380D01*
X150871428Y-119990476D01*
X151595238Y-119761904D02*
X152090476Y-119761904D01*
X151823809Y-120066666D01*
X151938095Y-120066666D01*
X152014285Y-120104761D01*
X152052380Y-120142857D01*
X152090476Y-120219047D01*
X152090476Y-120409523D01*
X152052380Y-120485714D01*
X152014285Y-120523809D01*
X151938095Y-120561904D01*
X151709523Y-120561904D01*
X151633333Y-120523809D01*
X151595238Y-120485714D01*
%TO.C,C214*%
X118654761Y-119135714D02*
X118616666Y-119173809D01*
X118502380Y-119211904D01*
X118426190Y-119211904D01*
X118311904Y-119173809D01*
X118235714Y-119097619D01*
X118197619Y-119021428D01*
X118159523Y-118869047D01*
X118159523Y-118754761D01*
X118197619Y-118602380D01*
X118235714Y-118526190D01*
X118311904Y-118450000D01*
X118426190Y-118411904D01*
X118502380Y-118411904D01*
X118616666Y-118450000D01*
X118654761Y-118488095D01*
X118959523Y-118488095D02*
X118997619Y-118450000D01*
X119073809Y-118411904D01*
X119264285Y-118411904D01*
X119340476Y-118450000D01*
X119378571Y-118488095D01*
X119416666Y-118564285D01*
X119416666Y-118640476D01*
X119378571Y-118754761D01*
X118921428Y-119211904D01*
X119416666Y-119211904D01*
X120178571Y-119211904D02*
X119721428Y-119211904D01*
X119950000Y-119211904D02*
X119950000Y-118411904D01*
X119873809Y-118526190D01*
X119797619Y-118602380D01*
X119721428Y-118640476D01*
X120864285Y-118678571D02*
X120864285Y-119211904D01*
X120673809Y-118373809D02*
X120483333Y-118945238D01*
X120978571Y-118945238D01*
%TO.C,C215*%
X102285714Y-85895238D02*
X102323809Y-85933333D01*
X102361904Y-86047619D01*
X102361904Y-86123809D01*
X102323809Y-86238095D01*
X102247619Y-86314285D01*
X102171428Y-86352380D01*
X102019047Y-86390476D01*
X101904761Y-86390476D01*
X101752380Y-86352380D01*
X101676190Y-86314285D01*
X101600000Y-86238095D01*
X101561904Y-86123809D01*
X101561904Y-86047619D01*
X101600000Y-85933333D01*
X101638095Y-85895238D01*
X101638095Y-85590476D02*
X101600000Y-85552380D01*
X101561904Y-85476190D01*
X101561904Y-85285714D01*
X101600000Y-85209523D01*
X101638095Y-85171428D01*
X101714285Y-85133333D01*
X101790476Y-85133333D01*
X101904761Y-85171428D01*
X102361904Y-85628571D01*
X102361904Y-85133333D01*
X102361904Y-84371428D02*
X102361904Y-84828571D01*
X102361904Y-84600000D02*
X101561904Y-84600000D01*
X101676190Y-84676190D01*
X101752380Y-84752380D01*
X101790476Y-84828571D01*
X101561904Y-83647619D02*
X101561904Y-84028571D01*
X101942857Y-84066666D01*
X101904761Y-84028571D01*
X101866666Y-83952380D01*
X101866666Y-83761904D01*
X101904761Y-83685714D01*
X101942857Y-83647619D01*
X102019047Y-83609523D01*
X102209523Y-83609523D01*
X102285714Y-83647619D01*
X102323809Y-83685714D01*
X102361904Y-83761904D01*
X102361904Y-83952380D01*
X102323809Y-84028571D01*
X102285714Y-84066666D01*
%TO.C,C216*%
X146954761Y-78035714D02*
X146916666Y-78073809D01*
X146802380Y-78111904D01*
X146726190Y-78111904D01*
X146611904Y-78073809D01*
X146535714Y-77997619D01*
X146497619Y-77921428D01*
X146459523Y-77769047D01*
X146459523Y-77654761D01*
X146497619Y-77502380D01*
X146535714Y-77426190D01*
X146611904Y-77350000D01*
X146726190Y-77311904D01*
X146802380Y-77311904D01*
X146916666Y-77350000D01*
X146954761Y-77388095D01*
X147259523Y-77388095D02*
X147297619Y-77350000D01*
X147373809Y-77311904D01*
X147564285Y-77311904D01*
X147640476Y-77350000D01*
X147678571Y-77388095D01*
X147716666Y-77464285D01*
X147716666Y-77540476D01*
X147678571Y-77654761D01*
X147221428Y-78111904D01*
X147716666Y-78111904D01*
X148478571Y-78111904D02*
X148021428Y-78111904D01*
X148250000Y-78111904D02*
X148250000Y-77311904D01*
X148173809Y-77426190D01*
X148097619Y-77502380D01*
X148021428Y-77540476D01*
X149164285Y-77311904D02*
X149011904Y-77311904D01*
X148935714Y-77350000D01*
X148897619Y-77388095D01*
X148821428Y-77502380D01*
X148783333Y-77654761D01*
X148783333Y-77959523D01*
X148821428Y-78035714D01*
X148859523Y-78073809D01*
X148935714Y-78111904D01*
X149088095Y-78111904D01*
X149164285Y-78073809D01*
X149202380Y-78035714D01*
X149240476Y-77959523D01*
X149240476Y-77769047D01*
X149202380Y-77692857D01*
X149164285Y-77654761D01*
X149088095Y-77616666D01*
X148935714Y-77616666D01*
X148859523Y-77654761D01*
X148821428Y-77692857D01*
X148783333Y-77769047D01*
%TO.C,C217*%
X142854761Y-79935714D02*
X142816666Y-79973809D01*
X142702380Y-80011904D01*
X142626190Y-80011904D01*
X142511904Y-79973809D01*
X142435714Y-79897619D01*
X142397619Y-79821428D01*
X142359523Y-79669047D01*
X142359523Y-79554761D01*
X142397619Y-79402380D01*
X142435714Y-79326190D01*
X142511904Y-79250000D01*
X142626190Y-79211904D01*
X142702380Y-79211904D01*
X142816666Y-79250000D01*
X142854761Y-79288095D01*
X143159523Y-79288095D02*
X143197619Y-79250000D01*
X143273809Y-79211904D01*
X143464285Y-79211904D01*
X143540476Y-79250000D01*
X143578571Y-79288095D01*
X143616666Y-79364285D01*
X143616666Y-79440476D01*
X143578571Y-79554761D01*
X143121428Y-80011904D01*
X143616666Y-80011904D01*
X144378571Y-80011904D02*
X143921428Y-80011904D01*
X144150000Y-80011904D02*
X144150000Y-79211904D01*
X144073809Y-79326190D01*
X143997619Y-79402380D01*
X143921428Y-79440476D01*
X144645238Y-79211904D02*
X145178571Y-79211904D01*
X144835714Y-80011904D01*
%TO.C,C218*%
X143154761Y-86235714D02*
X143116666Y-86273809D01*
X143002380Y-86311904D01*
X142926190Y-86311904D01*
X142811904Y-86273809D01*
X142735714Y-86197619D01*
X142697619Y-86121428D01*
X142659523Y-85969047D01*
X142659523Y-85854761D01*
X142697619Y-85702380D01*
X142735714Y-85626190D01*
X142811904Y-85550000D01*
X142926190Y-85511904D01*
X143002380Y-85511904D01*
X143116666Y-85550000D01*
X143154761Y-85588095D01*
X143459523Y-85588095D02*
X143497619Y-85550000D01*
X143573809Y-85511904D01*
X143764285Y-85511904D01*
X143840476Y-85550000D01*
X143878571Y-85588095D01*
X143916666Y-85664285D01*
X143916666Y-85740476D01*
X143878571Y-85854761D01*
X143421428Y-86311904D01*
X143916666Y-86311904D01*
X144678571Y-86311904D02*
X144221428Y-86311904D01*
X144450000Y-86311904D02*
X144450000Y-85511904D01*
X144373809Y-85626190D01*
X144297619Y-85702380D01*
X144221428Y-85740476D01*
X145135714Y-85854761D02*
X145059523Y-85816666D01*
X145021428Y-85778571D01*
X144983333Y-85702380D01*
X144983333Y-85664285D01*
X145021428Y-85588095D01*
X145059523Y-85550000D01*
X145135714Y-85511904D01*
X145288095Y-85511904D01*
X145364285Y-85550000D01*
X145402380Y-85588095D01*
X145440476Y-85664285D01*
X145440476Y-85702380D01*
X145402380Y-85778571D01*
X145364285Y-85816666D01*
X145288095Y-85854761D01*
X145135714Y-85854761D01*
X145059523Y-85892857D01*
X145021428Y-85930952D01*
X144983333Y-86007142D01*
X144983333Y-86159523D01*
X145021428Y-86235714D01*
X145059523Y-86273809D01*
X145135714Y-86311904D01*
X145288095Y-86311904D01*
X145364285Y-86273809D01*
X145402380Y-86235714D01*
X145440476Y-86159523D01*
X145440476Y-86007142D01*
X145402380Y-85930952D01*
X145364285Y-85892857D01*
X145288095Y-85854761D01*
%TO.C,C219*%
X142475714Y-83625238D02*
X142513809Y-83663333D01*
X142551904Y-83777619D01*
X142551904Y-83853809D01*
X142513809Y-83968095D01*
X142437619Y-84044285D01*
X142361428Y-84082380D01*
X142209047Y-84120476D01*
X142094761Y-84120476D01*
X141942380Y-84082380D01*
X141866190Y-84044285D01*
X141790000Y-83968095D01*
X141751904Y-83853809D01*
X141751904Y-83777619D01*
X141790000Y-83663333D01*
X141828095Y-83625238D01*
X141828095Y-83320476D02*
X141790000Y-83282380D01*
X141751904Y-83206190D01*
X141751904Y-83015714D01*
X141790000Y-82939523D01*
X141828095Y-82901428D01*
X141904285Y-82863333D01*
X141980476Y-82863333D01*
X142094761Y-82901428D01*
X142551904Y-83358571D01*
X142551904Y-82863333D01*
X142551904Y-82101428D02*
X142551904Y-82558571D01*
X142551904Y-82330000D02*
X141751904Y-82330000D01*
X141866190Y-82406190D01*
X141942380Y-82482380D01*
X141980476Y-82558571D01*
X142551904Y-81720476D02*
X142551904Y-81568095D01*
X142513809Y-81491904D01*
X142475714Y-81453809D01*
X142361428Y-81377619D01*
X142209047Y-81339523D01*
X141904285Y-81339523D01*
X141828095Y-81377619D01*
X141790000Y-81415714D01*
X141751904Y-81491904D01*
X141751904Y-81644285D01*
X141790000Y-81720476D01*
X141828095Y-81758571D01*
X141904285Y-81796666D01*
X142094761Y-81796666D01*
X142170952Y-81758571D01*
X142209047Y-81720476D01*
X142247142Y-81644285D01*
X142247142Y-81491904D01*
X142209047Y-81415714D01*
X142170952Y-81377619D01*
X142094761Y-81339523D01*
%TO.C,C220*%
X151654761Y-91985714D02*
X151616666Y-92023809D01*
X151502380Y-92061904D01*
X151426190Y-92061904D01*
X151311904Y-92023809D01*
X151235714Y-91947619D01*
X151197619Y-91871428D01*
X151159523Y-91719047D01*
X151159523Y-91604761D01*
X151197619Y-91452380D01*
X151235714Y-91376190D01*
X151311904Y-91300000D01*
X151426190Y-91261904D01*
X151502380Y-91261904D01*
X151616666Y-91300000D01*
X151654761Y-91338095D01*
X151959523Y-91338095D02*
X151997619Y-91300000D01*
X152073809Y-91261904D01*
X152264285Y-91261904D01*
X152340476Y-91300000D01*
X152378571Y-91338095D01*
X152416666Y-91414285D01*
X152416666Y-91490476D01*
X152378571Y-91604761D01*
X151921428Y-92061904D01*
X152416666Y-92061904D01*
X152721428Y-91338095D02*
X152759523Y-91300000D01*
X152835714Y-91261904D01*
X153026190Y-91261904D01*
X153102380Y-91300000D01*
X153140476Y-91338095D01*
X153178571Y-91414285D01*
X153178571Y-91490476D01*
X153140476Y-91604761D01*
X152683333Y-92061904D01*
X153178571Y-92061904D01*
X153673809Y-91261904D02*
X153750000Y-91261904D01*
X153826190Y-91300000D01*
X153864285Y-91338095D01*
X153902380Y-91414285D01*
X153940476Y-91566666D01*
X153940476Y-91757142D01*
X153902380Y-91909523D01*
X153864285Y-91985714D01*
X153826190Y-92023809D01*
X153750000Y-92061904D01*
X153673809Y-92061904D01*
X153597619Y-92023809D01*
X153559523Y-91985714D01*
X153521428Y-91909523D01*
X153483333Y-91757142D01*
X153483333Y-91566666D01*
X153521428Y-91414285D01*
X153559523Y-91338095D01*
X153597619Y-91300000D01*
X153673809Y-91261904D01*
%TO.C,C401*%
X98774761Y-82585714D02*
X98736666Y-82623809D01*
X98622380Y-82661904D01*
X98546190Y-82661904D01*
X98431904Y-82623809D01*
X98355714Y-82547619D01*
X98317619Y-82471428D01*
X98279523Y-82319047D01*
X98279523Y-82204761D01*
X98317619Y-82052380D01*
X98355714Y-81976190D01*
X98431904Y-81900000D01*
X98546190Y-81861904D01*
X98622380Y-81861904D01*
X98736666Y-81900000D01*
X98774761Y-81938095D01*
X99460476Y-82128571D02*
X99460476Y-82661904D01*
X99270000Y-81823809D02*
X99079523Y-82395238D01*
X99574761Y-82395238D01*
X100031904Y-81861904D02*
X100108095Y-81861904D01*
X100184285Y-81900000D01*
X100222380Y-81938095D01*
X100260476Y-82014285D01*
X100298571Y-82166666D01*
X100298571Y-82357142D01*
X100260476Y-82509523D01*
X100222380Y-82585714D01*
X100184285Y-82623809D01*
X100108095Y-82661904D01*
X100031904Y-82661904D01*
X99955714Y-82623809D01*
X99917619Y-82585714D01*
X99879523Y-82509523D01*
X99841428Y-82357142D01*
X99841428Y-82166666D01*
X99879523Y-82014285D01*
X99917619Y-81938095D01*
X99955714Y-81900000D01*
X100031904Y-81861904D01*
X101060476Y-82661904D02*
X100603333Y-82661904D01*
X100831904Y-82661904D02*
X100831904Y-81861904D01*
X100755714Y-81976190D01*
X100679523Y-82052380D01*
X100603333Y-82090476D01*
%TO.C,C402*%
X101285714Y-116445238D02*
X101323809Y-116483333D01*
X101361904Y-116597619D01*
X101361904Y-116673809D01*
X101323809Y-116788095D01*
X101247619Y-116864285D01*
X101171428Y-116902380D01*
X101019047Y-116940476D01*
X100904761Y-116940476D01*
X100752380Y-116902380D01*
X100676190Y-116864285D01*
X100600000Y-116788095D01*
X100561904Y-116673809D01*
X100561904Y-116597619D01*
X100600000Y-116483333D01*
X100638095Y-116445238D01*
X100828571Y-115759523D02*
X101361904Y-115759523D01*
X100523809Y-115950000D02*
X101095238Y-116140476D01*
X101095238Y-115645238D01*
X100561904Y-115188095D02*
X100561904Y-115111904D01*
X100600000Y-115035714D01*
X100638095Y-114997619D01*
X100714285Y-114959523D01*
X100866666Y-114921428D01*
X101057142Y-114921428D01*
X101209523Y-114959523D01*
X101285714Y-114997619D01*
X101323809Y-115035714D01*
X101361904Y-115111904D01*
X101361904Y-115188095D01*
X101323809Y-115264285D01*
X101285714Y-115302380D01*
X101209523Y-115340476D01*
X101057142Y-115378571D01*
X100866666Y-115378571D01*
X100714285Y-115340476D01*
X100638095Y-115302380D01*
X100600000Y-115264285D01*
X100561904Y-115188095D01*
X100638095Y-114616666D02*
X100600000Y-114578571D01*
X100561904Y-114502380D01*
X100561904Y-114311904D01*
X100600000Y-114235714D01*
X100638095Y-114197619D01*
X100714285Y-114159523D01*
X100790476Y-114159523D01*
X100904761Y-114197619D01*
X101361904Y-114654761D01*
X101361904Y-114159523D01*
%TO.C,C403*%
X99654761Y-89585714D02*
X99616666Y-89623809D01*
X99502380Y-89661904D01*
X99426190Y-89661904D01*
X99311904Y-89623809D01*
X99235714Y-89547619D01*
X99197619Y-89471428D01*
X99159523Y-89319047D01*
X99159523Y-89204761D01*
X99197619Y-89052380D01*
X99235714Y-88976190D01*
X99311904Y-88900000D01*
X99426190Y-88861904D01*
X99502380Y-88861904D01*
X99616666Y-88900000D01*
X99654761Y-88938095D01*
X100340476Y-89128571D02*
X100340476Y-89661904D01*
X100150000Y-88823809D02*
X99959523Y-89395238D01*
X100454761Y-89395238D01*
X100911904Y-88861904D02*
X100988095Y-88861904D01*
X101064285Y-88900000D01*
X101102380Y-88938095D01*
X101140476Y-89014285D01*
X101178571Y-89166666D01*
X101178571Y-89357142D01*
X101140476Y-89509523D01*
X101102380Y-89585714D01*
X101064285Y-89623809D01*
X100988095Y-89661904D01*
X100911904Y-89661904D01*
X100835714Y-89623809D01*
X100797619Y-89585714D01*
X100759523Y-89509523D01*
X100721428Y-89357142D01*
X100721428Y-89166666D01*
X100759523Y-89014285D01*
X100797619Y-88938095D01*
X100835714Y-88900000D01*
X100911904Y-88861904D01*
X101445238Y-88861904D02*
X101940476Y-88861904D01*
X101673809Y-89166666D01*
X101788095Y-89166666D01*
X101864285Y-89204761D01*
X101902380Y-89242857D01*
X101940476Y-89319047D01*
X101940476Y-89509523D01*
X101902380Y-89585714D01*
X101864285Y-89623809D01*
X101788095Y-89661904D01*
X101559523Y-89661904D01*
X101483333Y-89623809D01*
X101445238Y-89585714D01*
%TO.C,C404*%
X93754761Y-88085714D02*
X93716666Y-88123809D01*
X93602380Y-88161904D01*
X93526190Y-88161904D01*
X93411904Y-88123809D01*
X93335714Y-88047619D01*
X93297619Y-87971428D01*
X93259523Y-87819047D01*
X93259523Y-87704761D01*
X93297619Y-87552380D01*
X93335714Y-87476190D01*
X93411904Y-87400000D01*
X93526190Y-87361904D01*
X93602380Y-87361904D01*
X93716666Y-87400000D01*
X93754761Y-87438095D01*
X94440476Y-87628571D02*
X94440476Y-88161904D01*
X94250000Y-87323809D02*
X94059523Y-87895238D01*
X94554761Y-87895238D01*
X95011904Y-87361904D02*
X95088095Y-87361904D01*
X95164285Y-87400000D01*
X95202380Y-87438095D01*
X95240476Y-87514285D01*
X95278571Y-87666666D01*
X95278571Y-87857142D01*
X95240476Y-88009523D01*
X95202380Y-88085714D01*
X95164285Y-88123809D01*
X95088095Y-88161904D01*
X95011904Y-88161904D01*
X94935714Y-88123809D01*
X94897619Y-88085714D01*
X94859523Y-88009523D01*
X94821428Y-87857142D01*
X94821428Y-87666666D01*
X94859523Y-87514285D01*
X94897619Y-87438095D01*
X94935714Y-87400000D01*
X95011904Y-87361904D01*
X95964285Y-87628571D02*
X95964285Y-88161904D01*
X95773809Y-87323809D02*
X95583333Y-87895238D01*
X96078571Y-87895238D01*
%TO.C,C405*%
X99704761Y-91685714D02*
X99666666Y-91723809D01*
X99552380Y-91761904D01*
X99476190Y-91761904D01*
X99361904Y-91723809D01*
X99285714Y-91647619D01*
X99247619Y-91571428D01*
X99209523Y-91419047D01*
X99209523Y-91304761D01*
X99247619Y-91152380D01*
X99285714Y-91076190D01*
X99361904Y-91000000D01*
X99476190Y-90961904D01*
X99552380Y-90961904D01*
X99666666Y-91000000D01*
X99704761Y-91038095D01*
X100390476Y-91228571D02*
X100390476Y-91761904D01*
X100200000Y-90923809D02*
X100009523Y-91495238D01*
X100504761Y-91495238D01*
X100961904Y-90961904D02*
X101038095Y-90961904D01*
X101114285Y-91000000D01*
X101152380Y-91038095D01*
X101190476Y-91114285D01*
X101228571Y-91266666D01*
X101228571Y-91457142D01*
X101190476Y-91609523D01*
X101152380Y-91685714D01*
X101114285Y-91723809D01*
X101038095Y-91761904D01*
X100961904Y-91761904D01*
X100885714Y-91723809D01*
X100847619Y-91685714D01*
X100809523Y-91609523D01*
X100771428Y-91457142D01*
X100771428Y-91266666D01*
X100809523Y-91114285D01*
X100847619Y-91038095D01*
X100885714Y-91000000D01*
X100961904Y-90961904D01*
X101952380Y-90961904D02*
X101571428Y-90961904D01*
X101533333Y-91342857D01*
X101571428Y-91304761D01*
X101647619Y-91266666D01*
X101838095Y-91266666D01*
X101914285Y-91304761D01*
X101952380Y-91342857D01*
X101990476Y-91419047D01*
X101990476Y-91609523D01*
X101952380Y-91685714D01*
X101914285Y-91723809D01*
X101838095Y-91761904D01*
X101647619Y-91761904D01*
X101571428Y-91723809D01*
X101533333Y-91685714D01*
%TO.C,C406*%
X90885714Y-94045238D02*
X90923809Y-94083333D01*
X90961904Y-94197619D01*
X90961904Y-94273809D01*
X90923809Y-94388095D01*
X90847619Y-94464285D01*
X90771428Y-94502380D01*
X90619047Y-94540476D01*
X90504761Y-94540476D01*
X90352380Y-94502380D01*
X90276190Y-94464285D01*
X90200000Y-94388095D01*
X90161904Y-94273809D01*
X90161904Y-94197619D01*
X90200000Y-94083333D01*
X90238095Y-94045238D01*
X90428571Y-93359523D02*
X90961904Y-93359523D01*
X90123809Y-93550000D02*
X90695238Y-93740476D01*
X90695238Y-93245238D01*
X90161904Y-92788095D02*
X90161904Y-92711904D01*
X90200000Y-92635714D01*
X90238095Y-92597619D01*
X90314285Y-92559523D01*
X90466666Y-92521428D01*
X90657142Y-92521428D01*
X90809523Y-92559523D01*
X90885714Y-92597619D01*
X90923809Y-92635714D01*
X90961904Y-92711904D01*
X90961904Y-92788095D01*
X90923809Y-92864285D01*
X90885714Y-92902380D01*
X90809523Y-92940476D01*
X90657142Y-92978571D01*
X90466666Y-92978571D01*
X90314285Y-92940476D01*
X90238095Y-92902380D01*
X90200000Y-92864285D01*
X90161904Y-92788095D01*
X90161904Y-91835714D02*
X90161904Y-91988095D01*
X90200000Y-92064285D01*
X90238095Y-92102380D01*
X90352380Y-92178571D01*
X90504761Y-92216666D01*
X90809523Y-92216666D01*
X90885714Y-92178571D01*
X90923809Y-92140476D01*
X90961904Y-92064285D01*
X90961904Y-91911904D01*
X90923809Y-91835714D01*
X90885714Y-91797619D01*
X90809523Y-91759523D01*
X90619047Y-91759523D01*
X90542857Y-91797619D01*
X90504761Y-91835714D01*
X90466666Y-91911904D01*
X90466666Y-92064285D01*
X90504761Y-92140476D01*
X90542857Y-92178571D01*
X90619047Y-92216666D01*
%TO.C,C407*%
X99804761Y-94185714D02*
X99766666Y-94223809D01*
X99652380Y-94261904D01*
X99576190Y-94261904D01*
X99461904Y-94223809D01*
X99385714Y-94147619D01*
X99347619Y-94071428D01*
X99309523Y-93919047D01*
X99309523Y-93804761D01*
X99347619Y-93652380D01*
X99385714Y-93576190D01*
X99461904Y-93500000D01*
X99576190Y-93461904D01*
X99652380Y-93461904D01*
X99766666Y-93500000D01*
X99804761Y-93538095D01*
X100490476Y-93728571D02*
X100490476Y-94261904D01*
X100300000Y-93423809D02*
X100109523Y-93995238D01*
X100604761Y-93995238D01*
X101061904Y-93461904D02*
X101138095Y-93461904D01*
X101214285Y-93500000D01*
X101252380Y-93538095D01*
X101290476Y-93614285D01*
X101328571Y-93766666D01*
X101328571Y-93957142D01*
X101290476Y-94109523D01*
X101252380Y-94185714D01*
X101214285Y-94223809D01*
X101138095Y-94261904D01*
X101061904Y-94261904D01*
X100985714Y-94223809D01*
X100947619Y-94185714D01*
X100909523Y-94109523D01*
X100871428Y-93957142D01*
X100871428Y-93766666D01*
X100909523Y-93614285D01*
X100947619Y-93538095D01*
X100985714Y-93500000D01*
X101061904Y-93461904D01*
X101595238Y-93461904D02*
X102128571Y-93461904D01*
X101785714Y-94261904D01*
%TO.C,C408*%
X103169001Y-90485059D02*
X103169001Y-90538934D01*
X103115126Y-90646683D01*
X103061251Y-90700558D01*
X102953502Y-90754433D01*
X102845752Y-90754433D01*
X102764940Y-90727496D01*
X102630253Y-90646683D01*
X102549441Y-90565871D01*
X102468629Y-90431184D01*
X102441691Y-90350372D01*
X102441691Y-90242622D01*
X102495566Y-90134873D01*
X102549441Y-90080998D01*
X102657190Y-90027123D01*
X102711065Y-90027123D01*
X103330625Y-89676937D02*
X103707749Y-90054061D01*
X102980439Y-89596125D02*
X103249813Y-90134873D01*
X103599999Y-89784687D01*
X103546125Y-89084314D02*
X103600000Y-89030439D01*
X103680812Y-89003502D01*
X103734687Y-89003502D01*
X103815499Y-89030439D01*
X103950186Y-89111251D01*
X104084873Y-89245938D01*
X104165685Y-89380625D01*
X104192622Y-89461438D01*
X104192622Y-89515312D01*
X104165685Y-89596125D01*
X104111810Y-89650000D01*
X104030998Y-89676937D01*
X103977123Y-89676937D01*
X103896311Y-89650000D01*
X103761624Y-89569187D01*
X103626937Y-89434500D01*
X103546125Y-89299813D01*
X103519187Y-89219001D01*
X103519187Y-89165126D01*
X103546125Y-89084314D01*
X104300372Y-88814940D02*
X104219560Y-88841877D01*
X104165685Y-88841877D01*
X104084873Y-88814940D01*
X104057935Y-88788003D01*
X104030998Y-88707190D01*
X104030998Y-88653316D01*
X104057935Y-88572503D01*
X104165685Y-88464754D01*
X104246497Y-88437816D01*
X104300372Y-88437816D01*
X104381184Y-88464754D01*
X104408122Y-88491691D01*
X104435059Y-88572503D01*
X104435059Y-88626378D01*
X104408122Y-88707190D01*
X104300372Y-88814940D01*
X104273435Y-88895752D01*
X104273435Y-88949627D01*
X104300372Y-89030439D01*
X104408122Y-89138189D01*
X104488934Y-89165126D01*
X104542809Y-89165126D01*
X104623621Y-89138189D01*
X104731370Y-89030439D01*
X104758308Y-88949627D01*
X104758308Y-88895752D01*
X104731370Y-88814940D01*
X104623621Y-88707190D01*
X104542809Y-88680253D01*
X104488934Y-88680253D01*
X104408122Y-88707190D01*
%TO.C,C409*%
X101724761Y-103695714D02*
X101686666Y-103733809D01*
X101572380Y-103771904D01*
X101496190Y-103771904D01*
X101381904Y-103733809D01*
X101305714Y-103657619D01*
X101267619Y-103581428D01*
X101229523Y-103429047D01*
X101229523Y-103314761D01*
X101267619Y-103162380D01*
X101305714Y-103086190D01*
X101381904Y-103010000D01*
X101496190Y-102971904D01*
X101572380Y-102971904D01*
X101686666Y-103010000D01*
X101724761Y-103048095D01*
X102410476Y-103238571D02*
X102410476Y-103771904D01*
X102220000Y-102933809D02*
X102029523Y-103505238D01*
X102524761Y-103505238D01*
X102981904Y-102971904D02*
X103058095Y-102971904D01*
X103134285Y-103010000D01*
X103172380Y-103048095D01*
X103210476Y-103124285D01*
X103248571Y-103276666D01*
X103248571Y-103467142D01*
X103210476Y-103619523D01*
X103172380Y-103695714D01*
X103134285Y-103733809D01*
X103058095Y-103771904D01*
X102981904Y-103771904D01*
X102905714Y-103733809D01*
X102867619Y-103695714D01*
X102829523Y-103619523D01*
X102791428Y-103467142D01*
X102791428Y-103276666D01*
X102829523Y-103124285D01*
X102867619Y-103048095D01*
X102905714Y-103010000D01*
X102981904Y-102971904D01*
X103629523Y-103771904D02*
X103781904Y-103771904D01*
X103858095Y-103733809D01*
X103896190Y-103695714D01*
X103972380Y-103581428D01*
X104010476Y-103429047D01*
X104010476Y-103124285D01*
X103972380Y-103048095D01*
X103934285Y-103010000D01*
X103858095Y-102971904D01*
X103705714Y-102971904D01*
X103629523Y-103010000D01*
X103591428Y-103048095D01*
X103553333Y-103124285D01*
X103553333Y-103314761D01*
X103591428Y-103390952D01*
X103629523Y-103429047D01*
X103705714Y-103467142D01*
X103858095Y-103467142D01*
X103934285Y-103429047D01*
X103972380Y-103390952D01*
X104010476Y-103314761D01*
%TO.C,C410*%
X106226751Y-91826294D02*
X106226751Y-91866700D01*
X106186345Y-91947512D01*
X106145938Y-91987918D01*
X106065126Y-92028325D01*
X105984314Y-92028325D01*
X105923705Y-92008122D01*
X105822690Y-91947512D01*
X105762081Y-91886903D01*
X105701471Y-91785888D01*
X105681268Y-91725279D01*
X105681268Y-91644467D01*
X105721674Y-91563654D01*
X105762081Y-91523248D01*
X105842893Y-91482842D01*
X105883299Y-91482842D01*
X106347969Y-91220203D02*
X106630812Y-91503045D01*
X106085329Y-91159593D02*
X106287360Y-91563654D01*
X106550000Y-91301015D01*
X107075279Y-91058578D02*
X106832842Y-91301015D01*
X106954061Y-91179796D02*
X106529796Y-90755532D01*
X106550000Y-90856548D01*
X106550000Y-90937360D01*
X106529796Y-90997969D01*
X106913654Y-90371674D02*
X106954061Y-90331268D01*
X107014670Y-90311065D01*
X107055076Y-90311065D01*
X107115685Y-90331268D01*
X107216700Y-90391877D01*
X107317715Y-90492893D01*
X107378325Y-90593908D01*
X107398528Y-90654517D01*
X107398528Y-90694923D01*
X107378325Y-90755532D01*
X107337918Y-90795938D01*
X107277309Y-90816142D01*
X107236903Y-90816142D01*
X107176294Y-90795938D01*
X107075279Y-90735329D01*
X106974264Y-90634314D01*
X106913654Y-90533299D01*
X106893451Y-90472690D01*
X106893451Y-90432284D01*
X106913654Y-90371674D01*
%TO.C,C411*%
X109454761Y-91285714D02*
X109416666Y-91323809D01*
X109302380Y-91361904D01*
X109226190Y-91361904D01*
X109111904Y-91323809D01*
X109035714Y-91247619D01*
X108997619Y-91171428D01*
X108959523Y-91019047D01*
X108959523Y-90904761D01*
X108997619Y-90752380D01*
X109035714Y-90676190D01*
X109111904Y-90600000D01*
X109226190Y-90561904D01*
X109302380Y-90561904D01*
X109416666Y-90600000D01*
X109454761Y-90638095D01*
X110140476Y-90828571D02*
X110140476Y-91361904D01*
X109950000Y-90523809D02*
X109759523Y-91095238D01*
X110254761Y-91095238D01*
X110978571Y-91361904D02*
X110521428Y-91361904D01*
X110750000Y-91361904D02*
X110750000Y-90561904D01*
X110673809Y-90676190D01*
X110597619Y-90752380D01*
X110521428Y-90790476D01*
X111740476Y-91361904D02*
X111283333Y-91361904D01*
X111511904Y-91361904D02*
X111511904Y-90561904D01*
X111435714Y-90676190D01*
X111359523Y-90752380D01*
X111283333Y-90790476D01*
%TO.C,C412*%
X104828571Y-95214285D02*
X104800000Y-95242857D01*
X104714285Y-95271428D01*
X104657142Y-95271428D01*
X104571428Y-95242857D01*
X104514285Y-95185714D01*
X104485714Y-95128571D01*
X104457142Y-95014285D01*
X104457142Y-94928571D01*
X104485714Y-94814285D01*
X104514285Y-94757142D01*
X104571428Y-94700000D01*
X104657142Y-94671428D01*
X104714285Y-94671428D01*
X104800000Y-94700000D01*
X104828571Y-94728571D01*
X105342857Y-94871428D02*
X105342857Y-95271428D01*
X105200000Y-94642857D02*
X105057142Y-95071428D01*
X105428571Y-95071428D01*
X105971428Y-95271428D02*
X105628571Y-95271428D01*
X105800000Y-95271428D02*
X105800000Y-94671428D01*
X105742857Y-94757142D01*
X105685714Y-94814285D01*
X105628571Y-94842857D01*
X106200000Y-94728571D02*
X106228571Y-94700000D01*
X106285714Y-94671428D01*
X106428571Y-94671428D01*
X106485714Y-94700000D01*
X106514285Y-94728571D01*
X106542857Y-94785714D01*
X106542857Y-94842857D01*
X106514285Y-94928571D01*
X106171428Y-95271428D01*
X106542857Y-95271428D01*
%TO.C,C413*%
X98504761Y-95635714D02*
X98466666Y-95673809D01*
X98352380Y-95711904D01*
X98276190Y-95711904D01*
X98161904Y-95673809D01*
X98085714Y-95597619D01*
X98047619Y-95521428D01*
X98009523Y-95369047D01*
X98009523Y-95254761D01*
X98047619Y-95102380D01*
X98085714Y-95026190D01*
X98161904Y-94950000D01*
X98276190Y-94911904D01*
X98352380Y-94911904D01*
X98466666Y-94950000D01*
X98504761Y-94988095D01*
X99190476Y-95178571D02*
X99190476Y-95711904D01*
X99000000Y-94873809D02*
X98809523Y-95445238D01*
X99304761Y-95445238D01*
X100028571Y-95711904D02*
X99571428Y-95711904D01*
X99800000Y-95711904D02*
X99800000Y-94911904D01*
X99723809Y-95026190D01*
X99647619Y-95102380D01*
X99571428Y-95140476D01*
X100295238Y-94911904D02*
X100790476Y-94911904D01*
X100523809Y-95216666D01*
X100638095Y-95216666D01*
X100714285Y-95254761D01*
X100752380Y-95292857D01*
X100790476Y-95369047D01*
X100790476Y-95559523D01*
X100752380Y-95635714D01*
X100714285Y-95673809D01*
X100638095Y-95711904D01*
X100409523Y-95711904D01*
X100333333Y-95673809D01*
X100295238Y-95635714D01*
%TO.C,C414*%
X91054761Y-103335714D02*
X91016666Y-103373809D01*
X90902380Y-103411904D01*
X90826190Y-103411904D01*
X90711904Y-103373809D01*
X90635714Y-103297619D01*
X90597619Y-103221428D01*
X90559523Y-103069047D01*
X90559523Y-102954761D01*
X90597619Y-102802380D01*
X90635714Y-102726190D01*
X90711904Y-102650000D01*
X90826190Y-102611904D01*
X90902380Y-102611904D01*
X91016666Y-102650000D01*
X91054761Y-102688095D01*
X91740476Y-102878571D02*
X91740476Y-103411904D01*
X91550000Y-102573809D02*
X91359523Y-103145238D01*
X91854761Y-103145238D01*
X92578571Y-103411904D02*
X92121428Y-103411904D01*
X92350000Y-103411904D02*
X92350000Y-102611904D01*
X92273809Y-102726190D01*
X92197619Y-102802380D01*
X92121428Y-102840476D01*
X93264285Y-102878571D02*
X93264285Y-103411904D01*
X93073809Y-102573809D02*
X92883333Y-103145238D01*
X93378571Y-103145238D01*
%TO.C,C415*%
X105154285Y-100081428D02*
X105182857Y-100110000D01*
X105211428Y-100195714D01*
X105211428Y-100252857D01*
X105182857Y-100338571D01*
X105125714Y-100395714D01*
X105068571Y-100424285D01*
X104954285Y-100452857D01*
X104868571Y-100452857D01*
X104754285Y-100424285D01*
X104697142Y-100395714D01*
X104640000Y-100338571D01*
X104611428Y-100252857D01*
X104611428Y-100195714D01*
X104640000Y-100110000D01*
X104668571Y-100081428D01*
X104811428Y-99567142D02*
X105211428Y-99567142D01*
X104582857Y-99710000D02*
X105011428Y-99852857D01*
X105011428Y-99481428D01*
X105211428Y-98938571D02*
X105211428Y-99281428D01*
X105211428Y-99110000D02*
X104611428Y-99110000D01*
X104697142Y-99167142D01*
X104754285Y-99224285D01*
X104782857Y-99281428D01*
X104611428Y-98395714D02*
X104611428Y-98681428D01*
X104897142Y-98710000D01*
X104868571Y-98681428D01*
X104840000Y-98624285D01*
X104840000Y-98481428D01*
X104868571Y-98424285D01*
X104897142Y-98395714D01*
X104954285Y-98367142D01*
X105097142Y-98367142D01*
X105154285Y-98395714D01*
X105182857Y-98424285D01*
X105211428Y-98481428D01*
X105211428Y-98624285D01*
X105182857Y-98681428D01*
X105154285Y-98710000D01*
%TO.C,C416*%
X105164285Y-97621428D02*
X105192857Y-97650000D01*
X105221428Y-97735714D01*
X105221428Y-97792857D01*
X105192857Y-97878571D01*
X105135714Y-97935714D01*
X105078571Y-97964285D01*
X104964285Y-97992857D01*
X104878571Y-97992857D01*
X104764285Y-97964285D01*
X104707142Y-97935714D01*
X104650000Y-97878571D01*
X104621428Y-97792857D01*
X104621428Y-97735714D01*
X104650000Y-97650000D01*
X104678571Y-97621428D01*
X104821428Y-97107142D02*
X105221428Y-97107142D01*
X104592857Y-97250000D02*
X105021428Y-97392857D01*
X105021428Y-97021428D01*
X105221428Y-96478571D02*
X105221428Y-96821428D01*
X105221428Y-96650000D02*
X104621428Y-96650000D01*
X104707142Y-96707142D01*
X104764285Y-96764285D01*
X104792857Y-96821428D01*
X104621428Y-95964285D02*
X104621428Y-96078571D01*
X104650000Y-96135714D01*
X104678571Y-96164285D01*
X104764285Y-96221428D01*
X104878571Y-96250000D01*
X105107142Y-96250000D01*
X105164285Y-96221428D01*
X105192857Y-96192857D01*
X105221428Y-96135714D01*
X105221428Y-96021428D01*
X105192857Y-95964285D01*
X105164285Y-95935714D01*
X105107142Y-95907142D01*
X104964285Y-95907142D01*
X104907142Y-95935714D01*
X104878571Y-95964285D01*
X104850000Y-96021428D01*
X104850000Y-96135714D01*
X104878571Y-96192857D01*
X104907142Y-96221428D01*
X104964285Y-96250000D01*
%TO.C,C417*%
X118504761Y-106935714D02*
X118466666Y-106973809D01*
X118352380Y-107011904D01*
X118276190Y-107011904D01*
X118161904Y-106973809D01*
X118085714Y-106897619D01*
X118047619Y-106821428D01*
X118009523Y-106669047D01*
X118009523Y-106554761D01*
X118047619Y-106402380D01*
X118085714Y-106326190D01*
X118161904Y-106250000D01*
X118276190Y-106211904D01*
X118352380Y-106211904D01*
X118466666Y-106250000D01*
X118504761Y-106288095D01*
X119190476Y-106478571D02*
X119190476Y-107011904D01*
X119000000Y-106173809D02*
X118809523Y-106745238D01*
X119304761Y-106745238D01*
X120028571Y-107011904D02*
X119571428Y-107011904D01*
X119800000Y-107011904D02*
X119800000Y-106211904D01*
X119723809Y-106326190D01*
X119647619Y-106402380D01*
X119571428Y-106440476D01*
X120295238Y-106211904D02*
X120828571Y-106211904D01*
X120485714Y-107011904D01*
%TO.C,C419*%
X111085714Y-111995238D02*
X111123809Y-112033333D01*
X111161904Y-112147619D01*
X111161904Y-112223809D01*
X111123809Y-112338095D01*
X111047619Y-112414285D01*
X110971428Y-112452380D01*
X110819047Y-112490476D01*
X110704761Y-112490476D01*
X110552380Y-112452380D01*
X110476190Y-112414285D01*
X110400000Y-112338095D01*
X110361904Y-112223809D01*
X110361904Y-112147619D01*
X110400000Y-112033333D01*
X110438095Y-111995238D01*
X110628571Y-111309523D02*
X111161904Y-111309523D01*
X110323809Y-111500000D02*
X110895238Y-111690476D01*
X110895238Y-111195238D01*
X111161904Y-110471428D02*
X111161904Y-110928571D01*
X111161904Y-110700000D02*
X110361904Y-110700000D01*
X110476190Y-110776190D01*
X110552380Y-110852380D01*
X110590476Y-110928571D01*
X111161904Y-110090476D02*
X111161904Y-109938095D01*
X111123809Y-109861904D01*
X111085714Y-109823809D01*
X110971428Y-109747619D01*
X110819047Y-109709523D01*
X110514285Y-109709523D01*
X110438095Y-109747619D01*
X110400000Y-109785714D01*
X110361904Y-109861904D01*
X110361904Y-110014285D01*
X110400000Y-110090476D01*
X110438095Y-110128571D01*
X110514285Y-110166666D01*
X110704761Y-110166666D01*
X110780952Y-110128571D01*
X110819047Y-110090476D01*
X110857142Y-110014285D01*
X110857142Y-109861904D01*
X110819047Y-109785714D01*
X110780952Y-109747619D01*
X110704761Y-109709523D01*
%TO.C,C420*%
X101454761Y-107285714D02*
X101416666Y-107323809D01*
X101302380Y-107361904D01*
X101226190Y-107361904D01*
X101111904Y-107323809D01*
X101035714Y-107247619D01*
X100997619Y-107171428D01*
X100959523Y-107019047D01*
X100959523Y-106904761D01*
X100997619Y-106752380D01*
X101035714Y-106676190D01*
X101111904Y-106600000D01*
X101226190Y-106561904D01*
X101302380Y-106561904D01*
X101416666Y-106600000D01*
X101454761Y-106638095D01*
X102140476Y-106828571D02*
X102140476Y-107361904D01*
X101950000Y-106523809D02*
X101759523Y-107095238D01*
X102254761Y-107095238D01*
X102521428Y-106638095D02*
X102559523Y-106600000D01*
X102635714Y-106561904D01*
X102826190Y-106561904D01*
X102902380Y-106600000D01*
X102940476Y-106638095D01*
X102978571Y-106714285D01*
X102978571Y-106790476D01*
X102940476Y-106904761D01*
X102483333Y-107361904D01*
X102978571Y-107361904D01*
X103473809Y-106561904D02*
X103550000Y-106561904D01*
X103626190Y-106600000D01*
X103664285Y-106638095D01*
X103702380Y-106714285D01*
X103740476Y-106866666D01*
X103740476Y-107057142D01*
X103702380Y-107209523D01*
X103664285Y-107285714D01*
X103626190Y-107323809D01*
X103550000Y-107361904D01*
X103473809Y-107361904D01*
X103397619Y-107323809D01*
X103359523Y-107285714D01*
X103321428Y-107209523D01*
X103283333Y-107057142D01*
X103283333Y-106866666D01*
X103321428Y-106714285D01*
X103359523Y-106638095D01*
X103397619Y-106600000D01*
X103473809Y-106561904D01*
%TO.C,C421*%
X118554761Y-108585714D02*
X118516666Y-108623809D01*
X118402380Y-108661904D01*
X118326190Y-108661904D01*
X118211904Y-108623809D01*
X118135714Y-108547619D01*
X118097619Y-108471428D01*
X118059523Y-108319047D01*
X118059523Y-108204761D01*
X118097619Y-108052380D01*
X118135714Y-107976190D01*
X118211904Y-107900000D01*
X118326190Y-107861904D01*
X118402380Y-107861904D01*
X118516666Y-107900000D01*
X118554761Y-107938095D01*
X119240476Y-108128571D02*
X119240476Y-108661904D01*
X119050000Y-107823809D02*
X118859523Y-108395238D01*
X119354761Y-108395238D01*
X119621428Y-107938095D02*
X119659523Y-107900000D01*
X119735714Y-107861904D01*
X119926190Y-107861904D01*
X120002380Y-107900000D01*
X120040476Y-107938095D01*
X120078571Y-108014285D01*
X120078571Y-108090476D01*
X120040476Y-108204761D01*
X119583333Y-108661904D01*
X120078571Y-108661904D01*
X120840476Y-108661904D02*
X120383333Y-108661904D01*
X120611904Y-108661904D02*
X120611904Y-107861904D01*
X120535714Y-107976190D01*
X120459523Y-108052380D01*
X120383333Y-108090476D01*
%TO.C,C423*%
X114785714Y-110395238D02*
X114823809Y-110433333D01*
X114861904Y-110547619D01*
X114861904Y-110623809D01*
X114823809Y-110738095D01*
X114747619Y-110814285D01*
X114671428Y-110852380D01*
X114519047Y-110890476D01*
X114404761Y-110890476D01*
X114252380Y-110852380D01*
X114176190Y-110814285D01*
X114100000Y-110738095D01*
X114061904Y-110623809D01*
X114061904Y-110547619D01*
X114100000Y-110433333D01*
X114138095Y-110395238D01*
X114328571Y-109709523D02*
X114861904Y-109709523D01*
X114023809Y-109900000D02*
X114595238Y-110090476D01*
X114595238Y-109595238D01*
X114138095Y-109328571D02*
X114100000Y-109290476D01*
X114061904Y-109214285D01*
X114061904Y-109023809D01*
X114100000Y-108947619D01*
X114138095Y-108909523D01*
X114214285Y-108871428D01*
X114290476Y-108871428D01*
X114404761Y-108909523D01*
X114861904Y-109366666D01*
X114861904Y-108871428D01*
X114061904Y-108604761D02*
X114061904Y-108109523D01*
X114366666Y-108376190D01*
X114366666Y-108261904D01*
X114404761Y-108185714D01*
X114442857Y-108147619D01*
X114519047Y-108109523D01*
X114709523Y-108109523D01*
X114785714Y-108147619D01*
X114823809Y-108185714D01*
X114861904Y-108261904D01*
X114861904Y-108490476D01*
X114823809Y-108566666D01*
X114785714Y-108604761D01*
%TO.C,C424*%
X104785714Y-109995238D02*
X104823809Y-110033333D01*
X104861904Y-110147619D01*
X104861904Y-110223809D01*
X104823809Y-110338095D01*
X104747619Y-110414285D01*
X104671428Y-110452380D01*
X104519047Y-110490476D01*
X104404761Y-110490476D01*
X104252380Y-110452380D01*
X104176190Y-110414285D01*
X104100000Y-110338095D01*
X104061904Y-110223809D01*
X104061904Y-110147619D01*
X104100000Y-110033333D01*
X104138095Y-109995238D01*
X104328571Y-109309523D02*
X104861904Y-109309523D01*
X104023809Y-109500000D02*
X104595238Y-109690476D01*
X104595238Y-109195238D01*
X104138095Y-108928571D02*
X104100000Y-108890476D01*
X104061904Y-108814285D01*
X104061904Y-108623809D01*
X104100000Y-108547619D01*
X104138095Y-108509523D01*
X104214285Y-108471428D01*
X104290476Y-108471428D01*
X104404761Y-108509523D01*
X104861904Y-108966666D01*
X104861904Y-108471428D01*
X104328571Y-107785714D02*
X104861904Y-107785714D01*
X104023809Y-107976190D02*
X104595238Y-108166666D01*
X104595238Y-107671428D01*
%TO.C,C425*%
X118504761Y-110135714D02*
X118466666Y-110173809D01*
X118352380Y-110211904D01*
X118276190Y-110211904D01*
X118161904Y-110173809D01*
X118085714Y-110097619D01*
X118047619Y-110021428D01*
X118009523Y-109869047D01*
X118009523Y-109754761D01*
X118047619Y-109602380D01*
X118085714Y-109526190D01*
X118161904Y-109450000D01*
X118276190Y-109411904D01*
X118352380Y-109411904D01*
X118466666Y-109450000D01*
X118504761Y-109488095D01*
X119190476Y-109678571D02*
X119190476Y-110211904D01*
X119000000Y-109373809D02*
X118809523Y-109945238D01*
X119304761Y-109945238D01*
X119571428Y-109488095D02*
X119609523Y-109450000D01*
X119685714Y-109411904D01*
X119876190Y-109411904D01*
X119952380Y-109450000D01*
X119990476Y-109488095D01*
X120028571Y-109564285D01*
X120028571Y-109640476D01*
X119990476Y-109754761D01*
X119533333Y-110211904D01*
X120028571Y-110211904D01*
X120752380Y-109411904D02*
X120371428Y-109411904D01*
X120333333Y-109792857D01*
X120371428Y-109754761D01*
X120447619Y-109716666D01*
X120638095Y-109716666D01*
X120714285Y-109754761D01*
X120752380Y-109792857D01*
X120790476Y-109869047D01*
X120790476Y-110059523D01*
X120752380Y-110135714D01*
X120714285Y-110173809D01*
X120638095Y-110211904D01*
X120447619Y-110211904D01*
X120371428Y-110173809D01*
X120333333Y-110135714D01*
%TO.C,C427*%
X111085714Y-108995238D02*
X111123809Y-109033333D01*
X111161904Y-109147619D01*
X111161904Y-109223809D01*
X111123809Y-109338095D01*
X111047619Y-109414285D01*
X110971428Y-109452380D01*
X110819047Y-109490476D01*
X110704761Y-109490476D01*
X110552380Y-109452380D01*
X110476190Y-109414285D01*
X110400000Y-109338095D01*
X110361904Y-109223809D01*
X110361904Y-109147619D01*
X110400000Y-109033333D01*
X110438095Y-108995238D01*
X110628571Y-108309523D02*
X111161904Y-108309523D01*
X110323809Y-108500000D02*
X110895238Y-108690476D01*
X110895238Y-108195238D01*
X110438095Y-107928571D02*
X110400000Y-107890476D01*
X110361904Y-107814285D01*
X110361904Y-107623809D01*
X110400000Y-107547619D01*
X110438095Y-107509523D01*
X110514285Y-107471428D01*
X110590476Y-107471428D01*
X110704761Y-107509523D01*
X111161904Y-107966666D01*
X111161904Y-107471428D01*
X110361904Y-107204761D02*
X110361904Y-106671428D01*
X111161904Y-107014285D01*
%TO.C,C428*%
X98985714Y-102795238D02*
X99023809Y-102833333D01*
X99061904Y-102947619D01*
X99061904Y-103023809D01*
X99023809Y-103138095D01*
X98947619Y-103214285D01*
X98871428Y-103252380D01*
X98719047Y-103290476D01*
X98604761Y-103290476D01*
X98452380Y-103252380D01*
X98376190Y-103214285D01*
X98300000Y-103138095D01*
X98261904Y-103023809D01*
X98261904Y-102947619D01*
X98300000Y-102833333D01*
X98338095Y-102795238D01*
X98528571Y-102109523D02*
X99061904Y-102109523D01*
X98223809Y-102300000D02*
X98795238Y-102490476D01*
X98795238Y-101995238D01*
X98338095Y-101728571D02*
X98300000Y-101690476D01*
X98261904Y-101614285D01*
X98261904Y-101423809D01*
X98300000Y-101347619D01*
X98338095Y-101309523D01*
X98414285Y-101271428D01*
X98490476Y-101271428D01*
X98604761Y-101309523D01*
X99061904Y-101766666D01*
X99061904Y-101271428D01*
X98604761Y-100814285D02*
X98566666Y-100890476D01*
X98528571Y-100928571D01*
X98452380Y-100966666D01*
X98414285Y-100966666D01*
X98338095Y-100928571D01*
X98300000Y-100890476D01*
X98261904Y-100814285D01*
X98261904Y-100661904D01*
X98300000Y-100585714D01*
X98338095Y-100547619D01*
X98414285Y-100509523D01*
X98452380Y-100509523D01*
X98528571Y-100547619D01*
X98566666Y-100585714D01*
X98604761Y-100661904D01*
X98604761Y-100814285D01*
X98642857Y-100890476D01*
X98680952Y-100928571D01*
X98757142Y-100966666D01*
X98909523Y-100966666D01*
X98985714Y-100928571D01*
X99023809Y-100890476D01*
X99061904Y-100814285D01*
X99061904Y-100661904D01*
X99023809Y-100585714D01*
X98985714Y-100547619D01*
X98909523Y-100509523D01*
X98757142Y-100509523D01*
X98680952Y-100547619D01*
X98642857Y-100585714D01*
X98604761Y-100661904D01*
%TO.C,C429*%
X118504761Y-111735714D02*
X118466666Y-111773809D01*
X118352380Y-111811904D01*
X118276190Y-111811904D01*
X118161904Y-111773809D01*
X118085714Y-111697619D01*
X118047619Y-111621428D01*
X118009523Y-111469047D01*
X118009523Y-111354761D01*
X118047619Y-111202380D01*
X118085714Y-111126190D01*
X118161904Y-111050000D01*
X118276190Y-111011904D01*
X118352380Y-111011904D01*
X118466666Y-111050000D01*
X118504761Y-111088095D01*
X119190476Y-111278571D02*
X119190476Y-111811904D01*
X119000000Y-110973809D02*
X118809523Y-111545238D01*
X119304761Y-111545238D01*
X119571428Y-111088095D02*
X119609523Y-111050000D01*
X119685714Y-111011904D01*
X119876190Y-111011904D01*
X119952380Y-111050000D01*
X119990476Y-111088095D01*
X120028571Y-111164285D01*
X120028571Y-111240476D01*
X119990476Y-111354761D01*
X119533333Y-111811904D01*
X120028571Y-111811904D01*
X120409523Y-111811904D02*
X120561904Y-111811904D01*
X120638095Y-111773809D01*
X120676190Y-111735714D01*
X120752380Y-111621428D01*
X120790476Y-111469047D01*
X120790476Y-111164285D01*
X120752380Y-111088095D01*
X120714285Y-111050000D01*
X120638095Y-111011904D01*
X120485714Y-111011904D01*
X120409523Y-111050000D01*
X120371428Y-111088095D01*
X120333333Y-111164285D01*
X120333333Y-111354761D01*
X120371428Y-111430952D01*
X120409523Y-111469047D01*
X120485714Y-111507142D01*
X120638095Y-111507142D01*
X120714285Y-111469047D01*
X120752380Y-111430952D01*
X120790476Y-111354761D01*
%TO.C,C431*%
X114785714Y-107445238D02*
X114823809Y-107483333D01*
X114861904Y-107597619D01*
X114861904Y-107673809D01*
X114823809Y-107788095D01*
X114747619Y-107864285D01*
X114671428Y-107902380D01*
X114519047Y-107940476D01*
X114404761Y-107940476D01*
X114252380Y-107902380D01*
X114176190Y-107864285D01*
X114100000Y-107788095D01*
X114061904Y-107673809D01*
X114061904Y-107597619D01*
X114100000Y-107483333D01*
X114138095Y-107445238D01*
X114328571Y-106759523D02*
X114861904Y-106759523D01*
X114023809Y-106950000D02*
X114595238Y-107140476D01*
X114595238Y-106645238D01*
X114061904Y-106416666D02*
X114061904Y-105921428D01*
X114366666Y-106188095D01*
X114366666Y-106073809D01*
X114404761Y-105997619D01*
X114442857Y-105959523D01*
X114519047Y-105921428D01*
X114709523Y-105921428D01*
X114785714Y-105959523D01*
X114823809Y-105997619D01*
X114861904Y-106073809D01*
X114861904Y-106302380D01*
X114823809Y-106378571D01*
X114785714Y-106416666D01*
X114861904Y-105159523D02*
X114861904Y-105616666D01*
X114861904Y-105388095D02*
X114061904Y-105388095D01*
X114176190Y-105464285D01*
X114252380Y-105540476D01*
X114290476Y-105616666D01*
%TO.C,C432*%
X104685714Y-113195238D02*
X104723809Y-113233333D01*
X104761904Y-113347619D01*
X104761904Y-113423809D01*
X104723809Y-113538095D01*
X104647619Y-113614285D01*
X104571428Y-113652380D01*
X104419047Y-113690476D01*
X104304761Y-113690476D01*
X104152380Y-113652380D01*
X104076190Y-113614285D01*
X104000000Y-113538095D01*
X103961904Y-113423809D01*
X103961904Y-113347619D01*
X104000000Y-113233333D01*
X104038095Y-113195238D01*
X104228571Y-112509523D02*
X104761904Y-112509523D01*
X103923809Y-112700000D02*
X104495238Y-112890476D01*
X104495238Y-112395238D01*
X103961904Y-112166666D02*
X103961904Y-111671428D01*
X104266666Y-111938095D01*
X104266666Y-111823809D01*
X104304761Y-111747619D01*
X104342857Y-111709523D01*
X104419047Y-111671428D01*
X104609523Y-111671428D01*
X104685714Y-111709523D01*
X104723809Y-111747619D01*
X104761904Y-111823809D01*
X104761904Y-112052380D01*
X104723809Y-112128571D01*
X104685714Y-112166666D01*
X104038095Y-111366666D02*
X104000000Y-111328571D01*
X103961904Y-111252380D01*
X103961904Y-111061904D01*
X104000000Y-110985714D01*
X104038095Y-110947619D01*
X104114285Y-110909523D01*
X104190476Y-110909523D01*
X104304761Y-110947619D01*
X104761904Y-111404761D01*
X104761904Y-110909523D01*
%TO.C,C433*%
X118654761Y-113435714D02*
X118616666Y-113473809D01*
X118502380Y-113511904D01*
X118426190Y-113511904D01*
X118311904Y-113473809D01*
X118235714Y-113397619D01*
X118197619Y-113321428D01*
X118159523Y-113169047D01*
X118159523Y-113054761D01*
X118197619Y-112902380D01*
X118235714Y-112826190D01*
X118311904Y-112750000D01*
X118426190Y-112711904D01*
X118502380Y-112711904D01*
X118616666Y-112750000D01*
X118654761Y-112788095D01*
X119340476Y-112978571D02*
X119340476Y-113511904D01*
X119150000Y-112673809D02*
X118959523Y-113245238D01*
X119454761Y-113245238D01*
X119683333Y-112711904D02*
X120178571Y-112711904D01*
X119911904Y-113016666D01*
X120026190Y-113016666D01*
X120102380Y-113054761D01*
X120140476Y-113092857D01*
X120178571Y-113169047D01*
X120178571Y-113359523D01*
X120140476Y-113435714D01*
X120102380Y-113473809D01*
X120026190Y-113511904D01*
X119797619Y-113511904D01*
X119721428Y-113473809D01*
X119683333Y-113435714D01*
X120445238Y-112711904D02*
X120940476Y-112711904D01*
X120673809Y-113016666D01*
X120788095Y-113016666D01*
X120864285Y-113054761D01*
X120902380Y-113092857D01*
X120940476Y-113169047D01*
X120940476Y-113359523D01*
X120902380Y-113435714D01*
X120864285Y-113473809D01*
X120788095Y-113511904D01*
X120559523Y-113511904D01*
X120483333Y-113473809D01*
X120445238Y-113435714D01*
%TO.C,C435*%
X114635714Y-113295238D02*
X114673809Y-113333333D01*
X114711904Y-113447619D01*
X114711904Y-113523809D01*
X114673809Y-113638095D01*
X114597619Y-113714285D01*
X114521428Y-113752380D01*
X114369047Y-113790476D01*
X114254761Y-113790476D01*
X114102380Y-113752380D01*
X114026190Y-113714285D01*
X113950000Y-113638095D01*
X113911904Y-113523809D01*
X113911904Y-113447619D01*
X113950000Y-113333333D01*
X113988095Y-113295238D01*
X114178571Y-112609523D02*
X114711904Y-112609523D01*
X113873809Y-112800000D02*
X114445238Y-112990476D01*
X114445238Y-112495238D01*
X113911904Y-112266666D02*
X113911904Y-111771428D01*
X114216666Y-112038095D01*
X114216666Y-111923809D01*
X114254761Y-111847619D01*
X114292857Y-111809523D01*
X114369047Y-111771428D01*
X114559523Y-111771428D01*
X114635714Y-111809523D01*
X114673809Y-111847619D01*
X114711904Y-111923809D01*
X114711904Y-112152380D01*
X114673809Y-112228571D01*
X114635714Y-112266666D01*
X113911904Y-111047619D02*
X113911904Y-111428571D01*
X114292857Y-111466666D01*
X114254761Y-111428571D01*
X114216666Y-111352380D01*
X114216666Y-111161904D01*
X114254761Y-111085714D01*
X114292857Y-111047619D01*
X114369047Y-111009523D01*
X114559523Y-111009523D01*
X114635714Y-111047619D01*
X114673809Y-111085714D01*
X114711904Y-111161904D01*
X114711904Y-111352380D01*
X114673809Y-111428571D01*
X114635714Y-111466666D01*
%TO.C,C436*%
X102104761Y-114735714D02*
X102066666Y-114773809D01*
X101952380Y-114811904D01*
X101876190Y-114811904D01*
X101761904Y-114773809D01*
X101685714Y-114697619D01*
X101647619Y-114621428D01*
X101609523Y-114469047D01*
X101609523Y-114354761D01*
X101647619Y-114202380D01*
X101685714Y-114126190D01*
X101761904Y-114050000D01*
X101876190Y-114011904D01*
X101952380Y-114011904D01*
X102066666Y-114050000D01*
X102104761Y-114088095D01*
X102790476Y-114278571D02*
X102790476Y-114811904D01*
X102600000Y-113973809D02*
X102409523Y-114545238D01*
X102904761Y-114545238D01*
X103133333Y-114011904D02*
X103628571Y-114011904D01*
X103361904Y-114316666D01*
X103476190Y-114316666D01*
X103552380Y-114354761D01*
X103590476Y-114392857D01*
X103628571Y-114469047D01*
X103628571Y-114659523D01*
X103590476Y-114735714D01*
X103552380Y-114773809D01*
X103476190Y-114811904D01*
X103247619Y-114811904D01*
X103171428Y-114773809D01*
X103133333Y-114735714D01*
X104314285Y-114011904D02*
X104161904Y-114011904D01*
X104085714Y-114050000D01*
X104047619Y-114088095D01*
X103971428Y-114202380D01*
X103933333Y-114354761D01*
X103933333Y-114659523D01*
X103971428Y-114735714D01*
X104009523Y-114773809D01*
X104085714Y-114811904D01*
X104238095Y-114811904D01*
X104314285Y-114773809D01*
X104352380Y-114735714D01*
X104390476Y-114659523D01*
X104390476Y-114469047D01*
X104352380Y-114392857D01*
X104314285Y-114354761D01*
X104238095Y-114316666D01*
X104085714Y-114316666D01*
X104009523Y-114354761D01*
X103971428Y-114392857D01*
X103933333Y-114469047D01*
%TO.C,C437*%
X105604761Y-109085714D02*
X105566666Y-109123809D01*
X105452380Y-109161904D01*
X105376190Y-109161904D01*
X105261904Y-109123809D01*
X105185714Y-109047619D01*
X105147619Y-108971428D01*
X105109523Y-108819047D01*
X105109523Y-108704761D01*
X105147619Y-108552380D01*
X105185714Y-108476190D01*
X105261904Y-108400000D01*
X105376190Y-108361904D01*
X105452380Y-108361904D01*
X105566666Y-108400000D01*
X105604761Y-108438095D01*
X106290476Y-108628571D02*
X106290476Y-109161904D01*
X106100000Y-108323809D02*
X105909523Y-108895238D01*
X106404761Y-108895238D01*
X106633333Y-108361904D02*
X107128571Y-108361904D01*
X106861904Y-108666666D01*
X106976190Y-108666666D01*
X107052380Y-108704761D01*
X107090476Y-108742857D01*
X107128571Y-108819047D01*
X107128571Y-109009523D01*
X107090476Y-109085714D01*
X107052380Y-109123809D01*
X106976190Y-109161904D01*
X106747619Y-109161904D01*
X106671428Y-109123809D01*
X106633333Y-109085714D01*
X107395238Y-108361904D02*
X107928571Y-108361904D01*
X107585714Y-109161904D01*
%TO.C,CN301*%
D16*
X145960169Y-126285714D02*
X145922073Y-126323809D01*
X145807788Y-126361904D01*
X145731597Y-126361904D01*
X145617311Y-126323809D01*
X145541121Y-126247619D01*
X145503026Y-126171428D01*
X145464930Y-126019047D01*
X145464930Y-125904761D01*
X145503026Y-125752380D01*
X145541121Y-125676190D01*
X145617311Y-125600000D01*
X145731597Y-125561904D01*
X145807788Y-125561904D01*
X145922073Y-125600000D01*
X145960169Y-125638095D01*
X146303026Y-126361904D02*
X146303026Y-125561904D01*
X146760169Y-126361904D01*
X146760169Y-125561904D01*
X147064930Y-125561904D02*
X147560169Y-125561904D01*
X147293502Y-125866666D01*
X147407788Y-125866666D01*
X147483978Y-125904761D01*
X147522073Y-125942857D01*
X147560169Y-126019047D01*
X147560169Y-126209523D01*
X147522073Y-126285714D01*
X147483978Y-126323809D01*
X147407788Y-126361904D01*
X147179216Y-126361904D01*
X147103026Y-126323809D01*
X147064930Y-126285714D01*
X148055407Y-125561904D02*
X148131597Y-125561904D01*
X148207788Y-125600000D01*
X148245883Y-125638095D01*
X148283978Y-125714285D01*
X148322073Y-125866666D01*
X148322073Y-126057142D01*
X148283978Y-126209523D01*
X148245883Y-126285714D01*
X148207788Y-126323809D01*
X148131597Y-126361904D01*
X148055407Y-126361904D01*
X147979216Y-126323809D01*
X147941121Y-126285714D01*
X147903026Y-126209523D01*
X147864930Y-126057142D01*
X147864930Y-125866666D01*
X147903026Y-125714285D01*
X147941121Y-125638095D01*
X147979216Y-125600000D01*
X148055407Y-125561904D01*
X149083978Y-126361904D02*
X148626835Y-126361904D01*
X148855407Y-126361904D02*
X148855407Y-125561904D01*
X148779216Y-125676190D01*
X148703026Y-125752380D01*
X148626835Y-125790476D01*
%TO.C,D401*%
D11*
X90347619Y-95861904D02*
X90347619Y-95061904D01*
X90538095Y-95061904D01*
X90652380Y-95100000D01*
X90728571Y-95176190D01*
X90766666Y-95252380D01*
X90804761Y-95404761D01*
X90804761Y-95519047D01*
X90766666Y-95671428D01*
X90728571Y-95747619D01*
X90652380Y-95823809D01*
X90538095Y-95861904D01*
X90347619Y-95861904D01*
X91490476Y-95328571D02*
X91490476Y-95861904D01*
X91300000Y-95023809D02*
X91109523Y-95595238D01*
X91604761Y-95595238D01*
X92061904Y-95061904D02*
X92138095Y-95061904D01*
X92214285Y-95100000D01*
X92252380Y-95138095D01*
X92290476Y-95214285D01*
X92328571Y-95366666D01*
X92328571Y-95557142D01*
X92290476Y-95709523D01*
X92252380Y-95785714D01*
X92214285Y-95823809D01*
X92138095Y-95861904D01*
X92061904Y-95861904D01*
X91985714Y-95823809D01*
X91947619Y-95785714D01*
X91909523Y-95709523D01*
X91871428Y-95557142D01*
X91871428Y-95366666D01*
X91909523Y-95214285D01*
X91947619Y-95138095D01*
X91985714Y-95100000D01*
X92061904Y-95061904D01*
X93090476Y-95861904D02*
X92633333Y-95861904D01*
X92861904Y-95861904D02*
X92861904Y-95061904D01*
X92785714Y-95176190D01*
X92709523Y-95252380D01*
X92633333Y-95290476D01*
%TO.C,F401*%
D17*
X98323182Y-111852857D02*
X98056516Y-111852857D01*
X98056516Y-112271904D02*
X98056516Y-111471904D01*
X98437468Y-111471904D01*
X99085087Y-111738571D02*
X99085087Y-112271904D01*
X98894611Y-111433809D02*
X98704135Y-112005238D01*
X99199373Y-112005238D01*
X99656516Y-111471904D02*
X99732706Y-111471904D01*
X99808897Y-111510000D01*
X99846992Y-111548095D01*
X99885087Y-111624285D01*
X99923182Y-111776666D01*
X99923182Y-111967142D01*
X99885087Y-112119523D01*
X99846992Y-112195714D01*
X99808897Y-112233809D01*
X99732706Y-112271904D01*
X99656516Y-112271904D01*
X99580325Y-112233809D01*
X99542230Y-112195714D01*
X99504135Y-112119523D01*
X99466040Y-111967142D01*
X99466040Y-111776666D01*
X99504135Y-111624285D01*
X99542230Y-111548095D01*
X99580325Y-111510000D01*
X99656516Y-111471904D01*
X100685087Y-112271904D02*
X100227944Y-112271904D01*
X100456516Y-112271904D02*
X100456516Y-111471904D01*
X100380325Y-111586190D01*
X100304135Y-111662380D01*
X100227944Y-111700476D01*
%TO.C,F402*%
X90513182Y-108352857D02*
X90246516Y-108352857D01*
X90246516Y-108771904D02*
X90246516Y-107971904D01*
X90627468Y-107971904D01*
X91275087Y-108238571D02*
X91275087Y-108771904D01*
X91084611Y-107933809D02*
X90894135Y-108505238D01*
X91389373Y-108505238D01*
X91846516Y-107971904D02*
X91922706Y-107971904D01*
X91998897Y-108010000D01*
X92036992Y-108048095D01*
X92075087Y-108124285D01*
X92113182Y-108276666D01*
X92113182Y-108467142D01*
X92075087Y-108619523D01*
X92036992Y-108695714D01*
X91998897Y-108733809D01*
X91922706Y-108771904D01*
X91846516Y-108771904D01*
X91770325Y-108733809D01*
X91732230Y-108695714D01*
X91694135Y-108619523D01*
X91656040Y-108467142D01*
X91656040Y-108276666D01*
X91694135Y-108124285D01*
X91732230Y-108048095D01*
X91770325Y-108010000D01*
X91846516Y-107971904D01*
X92417944Y-108048095D02*
X92456040Y-108010000D01*
X92532230Y-107971904D01*
X92722706Y-107971904D01*
X92798897Y-108010000D01*
X92836992Y-108048095D01*
X92875087Y-108124285D01*
X92875087Y-108200476D01*
X92836992Y-108314761D01*
X92379849Y-108771904D01*
X92875087Y-108771904D01*
%TO.C,FB401*%
D11*
X90471428Y-101492857D02*
X90204761Y-101492857D01*
X90204761Y-101911904D02*
X90204761Y-101111904D01*
X90585714Y-101111904D01*
X91157142Y-101492857D02*
X91271428Y-101530952D01*
X91309523Y-101569047D01*
X91347619Y-101645238D01*
X91347619Y-101759523D01*
X91309523Y-101835714D01*
X91271428Y-101873809D01*
X91195238Y-101911904D01*
X90890476Y-101911904D01*
X90890476Y-101111904D01*
X91157142Y-101111904D01*
X91233333Y-101150000D01*
X91271428Y-101188095D01*
X91309523Y-101264285D01*
X91309523Y-101340476D01*
X91271428Y-101416666D01*
X91233333Y-101454761D01*
X91157142Y-101492857D01*
X90890476Y-101492857D01*
X92033333Y-101378571D02*
X92033333Y-101911904D01*
X91842857Y-101073809D02*
X91652380Y-101645238D01*
X92147619Y-101645238D01*
X92604761Y-101111904D02*
X92680952Y-101111904D01*
X92757142Y-101150000D01*
X92795238Y-101188095D01*
X92833333Y-101264285D01*
X92871428Y-101416666D01*
X92871428Y-101607142D01*
X92833333Y-101759523D01*
X92795238Y-101835714D01*
X92757142Y-101873809D01*
X92680952Y-101911904D01*
X92604761Y-101911904D01*
X92528571Y-101873809D01*
X92490476Y-101835714D01*
X92452380Y-101759523D01*
X92414285Y-101607142D01*
X92414285Y-101416666D01*
X92452380Y-101264285D01*
X92490476Y-101188095D01*
X92528571Y-101150000D01*
X92604761Y-101111904D01*
X93633333Y-101911904D02*
X93176190Y-101911904D01*
X93404761Y-101911904D02*
X93404761Y-101111904D01*
X93328571Y-101226190D01*
X93252380Y-101302380D01*
X93176190Y-101340476D01*
%TO.C,FB402*%
X118421428Y-114892857D02*
X118154761Y-114892857D01*
X118154761Y-115311904D02*
X118154761Y-114511904D01*
X118535714Y-114511904D01*
X119107142Y-114892857D02*
X119221428Y-114930952D01*
X119259523Y-114969047D01*
X119297619Y-115045238D01*
X119297619Y-115159523D01*
X119259523Y-115235714D01*
X119221428Y-115273809D01*
X119145238Y-115311904D01*
X118840476Y-115311904D01*
X118840476Y-114511904D01*
X119107142Y-114511904D01*
X119183333Y-114550000D01*
X119221428Y-114588095D01*
X119259523Y-114664285D01*
X119259523Y-114740476D01*
X119221428Y-114816666D01*
X119183333Y-114854761D01*
X119107142Y-114892857D01*
X118840476Y-114892857D01*
X119983333Y-114778571D02*
X119983333Y-115311904D01*
X119792857Y-114473809D02*
X119602380Y-115045238D01*
X120097619Y-115045238D01*
X120554761Y-114511904D02*
X120630952Y-114511904D01*
X120707142Y-114550000D01*
X120745238Y-114588095D01*
X120783333Y-114664285D01*
X120821428Y-114816666D01*
X120821428Y-115007142D01*
X120783333Y-115159523D01*
X120745238Y-115235714D01*
X120707142Y-115273809D01*
X120630952Y-115311904D01*
X120554761Y-115311904D01*
X120478571Y-115273809D01*
X120440476Y-115235714D01*
X120402380Y-115159523D01*
X120364285Y-115007142D01*
X120364285Y-114816666D01*
X120402380Y-114664285D01*
X120440476Y-114588095D01*
X120478571Y-114550000D01*
X120554761Y-114511904D01*
X121126190Y-114588095D02*
X121164285Y-114550000D01*
X121240476Y-114511904D01*
X121430952Y-114511904D01*
X121507142Y-114550000D01*
X121545238Y-114588095D01*
X121583333Y-114664285D01*
X121583333Y-114740476D01*
X121545238Y-114854761D01*
X121088095Y-115311904D01*
X121583333Y-115311904D01*
%TO.C,FB404*%
X114242857Y-117078571D02*
X114242857Y-117345238D01*
X114661904Y-117345238D02*
X113861904Y-117345238D01*
X113861904Y-116964285D01*
X114242857Y-116392857D02*
X114280952Y-116278571D01*
X114319047Y-116240476D01*
X114395238Y-116202380D01*
X114509523Y-116202380D01*
X114585714Y-116240476D01*
X114623809Y-116278571D01*
X114661904Y-116354761D01*
X114661904Y-116659523D01*
X113861904Y-116659523D01*
X113861904Y-116392857D01*
X113900000Y-116316666D01*
X113938095Y-116278571D01*
X114014285Y-116240476D01*
X114090476Y-116240476D01*
X114166666Y-116278571D01*
X114204761Y-116316666D01*
X114242857Y-116392857D01*
X114242857Y-116659523D01*
X114128571Y-115516666D02*
X114661904Y-115516666D01*
X113823809Y-115707142D02*
X114395238Y-115897619D01*
X114395238Y-115402380D01*
X113861904Y-114945238D02*
X113861904Y-114869047D01*
X113900000Y-114792857D01*
X113938095Y-114754761D01*
X114014285Y-114716666D01*
X114166666Y-114678571D01*
X114357142Y-114678571D01*
X114509523Y-114716666D01*
X114585714Y-114754761D01*
X114623809Y-114792857D01*
X114661904Y-114869047D01*
X114661904Y-114945238D01*
X114623809Y-115021428D01*
X114585714Y-115059523D01*
X114509523Y-115097619D01*
X114357142Y-115135714D01*
X114166666Y-115135714D01*
X114014285Y-115097619D01*
X113938095Y-115059523D01*
X113900000Y-115021428D01*
X113861904Y-114945238D01*
X114128571Y-113992857D02*
X114661904Y-113992857D01*
X113823809Y-114183333D02*
X114395238Y-114373809D01*
X114395238Y-113878571D01*
%TO.C,FB405*%
X103947142Y-117581428D02*
X103947142Y-117781428D01*
X104261428Y-117781428D02*
X103661428Y-117781428D01*
X103661428Y-117495714D01*
X103947142Y-117067142D02*
X103975714Y-116981428D01*
X104004285Y-116952857D01*
X104061428Y-116924285D01*
X104147142Y-116924285D01*
X104204285Y-116952857D01*
X104232857Y-116981428D01*
X104261428Y-117038571D01*
X104261428Y-117267142D01*
X103661428Y-117267142D01*
X103661428Y-117067142D01*
X103690000Y-117010000D01*
X103718571Y-116981428D01*
X103775714Y-116952857D01*
X103832857Y-116952857D01*
X103890000Y-116981428D01*
X103918571Y-117010000D01*
X103947142Y-117067142D01*
X103947142Y-117267142D01*
X103861428Y-116410000D02*
X104261428Y-116410000D01*
X103632857Y-116552857D02*
X104061428Y-116695714D01*
X104061428Y-116324285D01*
X103661428Y-115981428D02*
X103661428Y-115924285D01*
X103690000Y-115867142D01*
X103718571Y-115838571D01*
X103775714Y-115810000D01*
X103890000Y-115781428D01*
X104032857Y-115781428D01*
X104147142Y-115810000D01*
X104204285Y-115838571D01*
X104232857Y-115867142D01*
X104261428Y-115924285D01*
X104261428Y-115981428D01*
X104232857Y-116038571D01*
X104204285Y-116067142D01*
X104147142Y-116095714D01*
X104032857Y-116124285D01*
X103890000Y-116124285D01*
X103775714Y-116095714D01*
X103718571Y-116067142D01*
X103690000Y-116038571D01*
X103661428Y-115981428D01*
X103661428Y-115238571D02*
X103661428Y-115524285D01*
X103947142Y-115552857D01*
X103918571Y-115524285D01*
X103890000Y-115467142D01*
X103890000Y-115324285D01*
X103918571Y-115267142D01*
X103947142Y-115238571D01*
X104004285Y-115210000D01*
X104147142Y-115210000D01*
X104204285Y-115238571D01*
X104232857Y-115267142D01*
X104261428Y-115324285D01*
X104261428Y-115467142D01*
X104232857Y-115524285D01*
X104204285Y-115552857D01*
%TO.C,FB406*%
X105721428Y-113792857D02*
X105454761Y-113792857D01*
X105454761Y-114211904D02*
X105454761Y-113411904D01*
X105835714Y-113411904D01*
X106407142Y-113792857D02*
X106521428Y-113830952D01*
X106559523Y-113869047D01*
X106597619Y-113945238D01*
X106597619Y-114059523D01*
X106559523Y-114135714D01*
X106521428Y-114173809D01*
X106445238Y-114211904D01*
X106140476Y-114211904D01*
X106140476Y-113411904D01*
X106407142Y-113411904D01*
X106483333Y-113450000D01*
X106521428Y-113488095D01*
X106559523Y-113564285D01*
X106559523Y-113640476D01*
X106521428Y-113716666D01*
X106483333Y-113754761D01*
X106407142Y-113792857D01*
X106140476Y-113792857D01*
X107283333Y-113678571D02*
X107283333Y-114211904D01*
X107092857Y-113373809D02*
X106902380Y-113945238D01*
X107397619Y-113945238D01*
X107854761Y-113411904D02*
X107930952Y-113411904D01*
X108007142Y-113450000D01*
X108045238Y-113488095D01*
X108083333Y-113564285D01*
X108121428Y-113716666D01*
X108121428Y-113907142D01*
X108083333Y-114059523D01*
X108045238Y-114135714D01*
X108007142Y-114173809D01*
X107930952Y-114211904D01*
X107854761Y-114211904D01*
X107778571Y-114173809D01*
X107740476Y-114135714D01*
X107702380Y-114059523D01*
X107664285Y-113907142D01*
X107664285Y-113716666D01*
X107702380Y-113564285D01*
X107740476Y-113488095D01*
X107778571Y-113450000D01*
X107854761Y-113411904D01*
X108807142Y-113411904D02*
X108654761Y-113411904D01*
X108578571Y-113450000D01*
X108540476Y-113488095D01*
X108464285Y-113602380D01*
X108426190Y-113754761D01*
X108426190Y-114059523D01*
X108464285Y-114135714D01*
X108502380Y-114173809D01*
X108578571Y-114211904D01*
X108730952Y-114211904D01*
X108807142Y-114173809D01*
X108845238Y-114135714D01*
X108883333Y-114059523D01*
X108883333Y-113869047D01*
X108845238Y-113792857D01*
X108807142Y-113754761D01*
X108730952Y-113716666D01*
X108578571Y-113716666D01*
X108502380Y-113754761D01*
X108464285Y-113792857D01*
X108426190Y-113869047D01*
%TO.C,IC201*%
D17*
X149582547Y-115106698D02*
X148376047Y-115106698D01*
X149467642Y-113842745D02*
X149525095Y-113900198D01*
X149582547Y-114072555D01*
X149582547Y-114187460D01*
X149525095Y-114359817D01*
X149410190Y-114474721D01*
X149295285Y-114532174D01*
X149065476Y-114589626D01*
X148893119Y-114589626D01*
X148663309Y-114532174D01*
X148548404Y-114474721D01*
X148433500Y-114359817D01*
X148376047Y-114187460D01*
X148376047Y-114072555D01*
X148433500Y-113900198D01*
X148490952Y-113842745D01*
X148490952Y-113383126D02*
X148433500Y-113325674D01*
X148376047Y-113210769D01*
X148376047Y-112923507D01*
X148433500Y-112808602D01*
X148490952Y-112751150D01*
X148605857Y-112693698D01*
X148720761Y-112693698D01*
X148893119Y-112751150D01*
X149582547Y-113440579D01*
X149582547Y-112693698D01*
X148376047Y-111946817D02*
X148376047Y-111831912D01*
X148433500Y-111717007D01*
X148490952Y-111659555D01*
X148605857Y-111602102D01*
X148835666Y-111544650D01*
X149122928Y-111544650D01*
X149352738Y-111602102D01*
X149467642Y-111659555D01*
X149525095Y-111717007D01*
X149582547Y-111831912D01*
X149582547Y-111946817D01*
X149525095Y-112061721D01*
X149467642Y-112119174D01*
X149352738Y-112176626D01*
X149122928Y-112234079D01*
X148835666Y-112234079D01*
X148605857Y-112176626D01*
X148490952Y-112119174D01*
X148433500Y-112061721D01*
X148376047Y-111946817D01*
X149582547Y-110395602D02*
X149582547Y-111085031D01*
X149582547Y-110740317D02*
X148376047Y-110740317D01*
X148548404Y-110855221D01*
X148663309Y-110970126D01*
X148720761Y-111085031D01*
%TO.C,IC202*%
X108813301Y-119891747D02*
X108813301Y-118685247D01*
X110077254Y-119776842D02*
X110019801Y-119834295D01*
X109847444Y-119891747D01*
X109732540Y-119891747D01*
X109560182Y-119834295D01*
X109445278Y-119719390D01*
X109387825Y-119604485D01*
X109330373Y-119374676D01*
X109330373Y-119202319D01*
X109387825Y-118972509D01*
X109445278Y-118857604D01*
X109560182Y-118742700D01*
X109732540Y-118685247D01*
X109847444Y-118685247D01*
X110019801Y-118742700D01*
X110077254Y-118800152D01*
X110536873Y-118800152D02*
X110594325Y-118742700D01*
X110709230Y-118685247D01*
X110996492Y-118685247D01*
X111111397Y-118742700D01*
X111168849Y-118800152D01*
X111226301Y-118915057D01*
X111226301Y-119029961D01*
X111168849Y-119202319D01*
X110479420Y-119891747D01*
X111226301Y-119891747D01*
X111973182Y-118685247D02*
X112088087Y-118685247D01*
X112202992Y-118742700D01*
X112260444Y-118800152D01*
X112317897Y-118915057D01*
X112375349Y-119144866D01*
X112375349Y-119432128D01*
X112317897Y-119661938D01*
X112260444Y-119776842D01*
X112202992Y-119834295D01*
X112088087Y-119891747D01*
X111973182Y-119891747D01*
X111858278Y-119834295D01*
X111800825Y-119776842D01*
X111743373Y-119661938D01*
X111685920Y-119432128D01*
X111685920Y-119144866D01*
X111743373Y-118915057D01*
X111800825Y-118800152D01*
X111858278Y-118742700D01*
X111973182Y-118685247D01*
X112834968Y-118800152D02*
X112892420Y-118742700D01*
X113007325Y-118685247D01*
X113294587Y-118685247D01*
X113409492Y-118742700D01*
X113466944Y-118800152D01*
X113524397Y-118915057D01*
X113524397Y-119029961D01*
X113466944Y-119202319D01*
X112777516Y-119891747D01*
X113524397Y-119891747D01*
%TO.C,IC203*%
X108053301Y-84292547D02*
X108053301Y-83086047D01*
X109317254Y-84177642D02*
X109259801Y-84235095D01*
X109087444Y-84292547D01*
X108972540Y-84292547D01*
X108800182Y-84235095D01*
X108685278Y-84120190D01*
X108627825Y-84005285D01*
X108570373Y-83775476D01*
X108570373Y-83603119D01*
X108627825Y-83373309D01*
X108685278Y-83258404D01*
X108800182Y-83143500D01*
X108972540Y-83086047D01*
X109087444Y-83086047D01*
X109259801Y-83143500D01*
X109317254Y-83200952D01*
X109776873Y-83200952D02*
X109834325Y-83143500D01*
X109949230Y-83086047D01*
X110236492Y-83086047D01*
X110351397Y-83143500D01*
X110408849Y-83200952D01*
X110466301Y-83315857D01*
X110466301Y-83430761D01*
X110408849Y-83603119D01*
X109719420Y-84292547D01*
X110466301Y-84292547D01*
X111213182Y-83086047D02*
X111328087Y-83086047D01*
X111442992Y-83143500D01*
X111500444Y-83200952D01*
X111557897Y-83315857D01*
X111615349Y-83545666D01*
X111615349Y-83832928D01*
X111557897Y-84062738D01*
X111500444Y-84177642D01*
X111442992Y-84235095D01*
X111328087Y-84292547D01*
X111213182Y-84292547D01*
X111098278Y-84235095D01*
X111040825Y-84177642D01*
X110983373Y-84062738D01*
X110925920Y-83832928D01*
X110925920Y-83545666D01*
X110983373Y-83315857D01*
X111040825Y-83200952D01*
X111098278Y-83143500D01*
X111213182Y-83086047D01*
X112017516Y-83086047D02*
X112764397Y-83086047D01*
X112362230Y-83545666D01*
X112534587Y-83545666D01*
X112649492Y-83603119D01*
X112706944Y-83660571D01*
X112764397Y-83775476D01*
X112764397Y-84062738D01*
X112706944Y-84177642D01*
X112649492Y-84235095D01*
X112534587Y-84292547D01*
X112189873Y-84292547D01*
X112074968Y-84235095D01*
X112017516Y-84177642D01*
%TO.C,IC204*%
X150592547Y-83646698D02*
X149386047Y-83646698D01*
X150477642Y-82382745D02*
X150535095Y-82440198D01*
X150592547Y-82612555D01*
X150592547Y-82727460D01*
X150535095Y-82899817D01*
X150420190Y-83014721D01*
X150305285Y-83072174D01*
X150075476Y-83129626D01*
X149903119Y-83129626D01*
X149673309Y-83072174D01*
X149558404Y-83014721D01*
X149443500Y-82899817D01*
X149386047Y-82727460D01*
X149386047Y-82612555D01*
X149443500Y-82440198D01*
X149500952Y-82382745D01*
X149500952Y-81923126D02*
X149443500Y-81865674D01*
X149386047Y-81750769D01*
X149386047Y-81463507D01*
X149443500Y-81348602D01*
X149500952Y-81291150D01*
X149615857Y-81233698D01*
X149730761Y-81233698D01*
X149903119Y-81291150D01*
X150592547Y-81980579D01*
X150592547Y-81233698D01*
X149386047Y-80486817D02*
X149386047Y-80371912D01*
X149443500Y-80257007D01*
X149500952Y-80199555D01*
X149615857Y-80142102D01*
X149845666Y-80084650D01*
X150132928Y-80084650D01*
X150362738Y-80142102D01*
X150477642Y-80199555D01*
X150535095Y-80257007D01*
X150592547Y-80371912D01*
X150592547Y-80486817D01*
X150535095Y-80601721D01*
X150477642Y-80659174D01*
X150362738Y-80716626D01*
X150132928Y-80774079D01*
X149845666Y-80774079D01*
X149615857Y-80716626D01*
X149500952Y-80659174D01*
X149443500Y-80601721D01*
X149386047Y-80486817D01*
X149788214Y-79050507D02*
X150592547Y-79050507D01*
X149328595Y-79337769D02*
X150190380Y-79625031D01*
X150190380Y-78878150D01*
%TO.C,L401*%
D11*
X90554761Y-88161904D02*
X90173809Y-88161904D01*
X90173809Y-87361904D01*
X91164285Y-87628571D02*
X91164285Y-88161904D01*
X90973809Y-87323809D02*
X90783333Y-87895238D01*
X91278571Y-87895238D01*
X91735714Y-87361904D02*
X91811904Y-87361904D01*
X91888095Y-87400000D01*
X91926190Y-87438095D01*
X91964285Y-87514285D01*
X92002380Y-87666666D01*
X92002380Y-87857142D01*
X91964285Y-88009523D01*
X91926190Y-88085714D01*
X91888095Y-88123809D01*
X91811904Y-88161904D01*
X91735714Y-88161904D01*
X91659523Y-88123809D01*
X91621428Y-88085714D01*
X91583333Y-88009523D01*
X91545238Y-87857142D01*
X91545238Y-87666666D01*
X91583333Y-87514285D01*
X91621428Y-87438095D01*
X91659523Y-87400000D01*
X91735714Y-87361904D01*
X92764285Y-88161904D02*
X92307142Y-88161904D01*
X92535714Y-88161904D02*
X92535714Y-87361904D01*
X92459523Y-87476190D01*
X92383333Y-87552380D01*
X92307142Y-87590476D01*
%TO.C,L402*%
X95761904Y-94095238D02*
X95761904Y-94476190D01*
X94961904Y-94476190D01*
X95228571Y-93485714D02*
X95761904Y-93485714D01*
X94923809Y-93676190D02*
X95495238Y-93866666D01*
X95495238Y-93371428D01*
X94961904Y-92914285D02*
X94961904Y-92838095D01*
X95000000Y-92761904D01*
X95038095Y-92723809D01*
X95114285Y-92685714D01*
X95266666Y-92647619D01*
X95457142Y-92647619D01*
X95609523Y-92685714D01*
X95685714Y-92723809D01*
X95723809Y-92761904D01*
X95761904Y-92838095D01*
X95761904Y-92914285D01*
X95723809Y-92990476D01*
X95685714Y-93028571D01*
X95609523Y-93066666D01*
X95457142Y-93104761D01*
X95266666Y-93104761D01*
X95114285Y-93066666D01*
X95038095Y-93028571D01*
X95000000Y-92990476D01*
X94961904Y-92914285D01*
X95038095Y-92342857D02*
X95000000Y-92304761D01*
X94961904Y-92228571D01*
X94961904Y-92038095D01*
X95000000Y-91961904D01*
X95038095Y-91923809D01*
X95114285Y-91885714D01*
X95190476Y-91885714D01*
X95304761Y-91923809D01*
X95761904Y-92380952D01*
X95761904Y-91885714D01*
%TO.C,R201*%
X152404761Y-86761904D02*
X152138095Y-86380952D01*
X151947619Y-86761904D02*
X151947619Y-85961904D01*
X152252380Y-85961904D01*
X152328571Y-86000000D01*
X152366666Y-86038095D01*
X152404761Y-86114285D01*
X152404761Y-86228571D01*
X152366666Y-86304761D01*
X152328571Y-86342857D01*
X152252380Y-86380952D01*
X151947619Y-86380952D01*
X152709523Y-86038095D02*
X152747619Y-86000000D01*
X152823809Y-85961904D01*
X153014285Y-85961904D01*
X153090476Y-86000000D01*
X153128571Y-86038095D01*
X153166666Y-86114285D01*
X153166666Y-86190476D01*
X153128571Y-86304761D01*
X152671428Y-86761904D01*
X153166666Y-86761904D01*
X153661904Y-85961904D02*
X153738095Y-85961904D01*
X153814285Y-86000000D01*
X153852380Y-86038095D01*
X153890476Y-86114285D01*
X153928571Y-86266666D01*
X153928571Y-86457142D01*
X153890476Y-86609523D01*
X153852380Y-86685714D01*
X153814285Y-86723809D01*
X153738095Y-86761904D01*
X153661904Y-86761904D01*
X153585714Y-86723809D01*
X153547619Y-86685714D01*
X153509523Y-86609523D01*
X153471428Y-86457142D01*
X153471428Y-86266666D01*
X153509523Y-86114285D01*
X153547619Y-86038095D01*
X153585714Y-86000000D01*
X153661904Y-85961904D01*
X154690476Y-86761904D02*
X154233333Y-86761904D01*
X154461904Y-86761904D02*
X154461904Y-85961904D01*
X154385714Y-86076190D01*
X154309523Y-86152380D01*
X154233333Y-86190476D01*
%TO.C,R403*%
X105211428Y-102441428D02*
X104925714Y-102641428D01*
X105211428Y-102784285D02*
X104611428Y-102784285D01*
X104611428Y-102555714D01*
X104640000Y-102498571D01*
X104668571Y-102470000D01*
X104725714Y-102441428D01*
X104811428Y-102441428D01*
X104868571Y-102470000D01*
X104897142Y-102498571D01*
X104925714Y-102555714D01*
X104925714Y-102784285D01*
X104811428Y-101927142D02*
X105211428Y-101927142D01*
X104582857Y-102070000D02*
X105011428Y-102212857D01*
X105011428Y-101841428D01*
X104611428Y-101498571D02*
X104611428Y-101441428D01*
X104640000Y-101384285D01*
X104668571Y-101355714D01*
X104725714Y-101327142D01*
X104840000Y-101298571D01*
X104982857Y-101298571D01*
X105097142Y-101327142D01*
X105154285Y-101355714D01*
X105182857Y-101384285D01*
X105211428Y-101441428D01*
X105211428Y-101498571D01*
X105182857Y-101555714D01*
X105154285Y-101584285D01*
X105097142Y-101612857D01*
X104982857Y-101641428D01*
X104840000Y-101641428D01*
X104725714Y-101612857D01*
X104668571Y-101584285D01*
X104640000Y-101555714D01*
X104611428Y-101498571D01*
X104611428Y-101098571D02*
X104611428Y-100727142D01*
X104840000Y-100927142D01*
X104840000Y-100841428D01*
X104868571Y-100784285D01*
X104897142Y-100755714D01*
X104954285Y-100727142D01*
X105097142Y-100727142D01*
X105154285Y-100755714D01*
X105182857Y-100784285D01*
X105211428Y-100841428D01*
X105211428Y-101012857D01*
X105182857Y-101070000D01*
X105154285Y-101098571D01*
%TO.C,T401*%
D14*
X98458571Y-105061904D02*
X98915714Y-105061904D01*
X98687142Y-105861904D02*
X98687142Y-105061904D01*
X99525238Y-105328571D02*
X99525238Y-105861904D01*
X99334761Y-105023809D02*
X99144285Y-105595238D01*
X99639523Y-105595238D01*
X100096666Y-105061904D02*
X100172857Y-105061904D01*
X100249047Y-105100000D01*
X100287142Y-105138095D01*
X100325238Y-105214285D01*
X100363333Y-105366666D01*
X100363333Y-105557142D01*
X100325238Y-105709523D01*
X100287142Y-105785714D01*
X100249047Y-105823809D01*
X100172857Y-105861904D01*
X100096666Y-105861904D01*
X100020476Y-105823809D01*
X99982380Y-105785714D01*
X99944285Y-105709523D01*
X99906190Y-105557142D01*
X99906190Y-105366666D01*
X99944285Y-105214285D01*
X99982380Y-105138095D01*
X100020476Y-105100000D01*
X100096666Y-105061904D01*
X101125238Y-105861904D02*
X100668095Y-105861904D01*
X100896666Y-105861904D02*
X100896666Y-105061904D01*
X100820476Y-105176190D01*
X100744285Y-105252380D01*
X100668095Y-105290476D01*
%TO.C,T402*%
X90035714Y-99552380D02*
X90607142Y-99552380D01*
X90321428Y-100552380D02*
X90321428Y-99552380D01*
X91369047Y-99885714D02*
X91369047Y-100552380D01*
X91130952Y-99504761D02*
X90892857Y-100219047D01*
X91511904Y-100219047D01*
X92083333Y-99552380D02*
X92178571Y-99552380D01*
X92273809Y-99600000D01*
X92321428Y-99647619D01*
X92369047Y-99742857D01*
X92416666Y-99933333D01*
X92416666Y-100171428D01*
X92369047Y-100361904D01*
X92321428Y-100457142D01*
X92273809Y-100504761D01*
X92178571Y-100552380D01*
X92083333Y-100552380D01*
X91988095Y-100504761D01*
X91940476Y-100457142D01*
X91892857Y-100361904D01*
X91845238Y-100171428D01*
X91845238Y-99933333D01*
X91892857Y-99742857D01*
X91940476Y-99647619D01*
X91988095Y-99600000D01*
X92083333Y-99552380D01*
X92797619Y-99647619D02*
X92845238Y-99600000D01*
X92940476Y-99552380D01*
X93178571Y-99552380D01*
X93273809Y-99600000D01*
X93321428Y-99647619D01*
X93369047Y-99742857D01*
X93369047Y-99838095D01*
X93321428Y-99980952D01*
X92750000Y-100552380D01*
X93369047Y-100552380D01*
%TO.C,X400*%
D18*
X107319047Y-112426190D02*
X107652380Y-112926190D01*
X107652380Y-112426190D02*
X107319047Y-112926190D01*
X108057142Y-112592857D02*
X108057142Y-112926190D01*
X107938095Y-112402380D02*
X107819047Y-112759523D01*
X108128571Y-112759523D01*
X108414285Y-112426190D02*
X108461904Y-112426190D01*
X108509523Y-112450000D01*
X108533333Y-112473809D01*
X108557142Y-112521428D01*
X108580952Y-112616666D01*
X108580952Y-112735714D01*
X108557142Y-112830952D01*
X108533333Y-112878571D01*
X108509523Y-112902380D01*
X108461904Y-112926190D01*
X108414285Y-112926190D01*
X108366666Y-112902380D01*
X108342857Y-112878571D01*
X108319047Y-112830952D01*
X108295238Y-112735714D01*
X108295238Y-112616666D01*
X108319047Y-112521428D01*
X108342857Y-112473809D01*
X108366666Y-112450000D01*
X108414285Y-112426190D01*
X108890476Y-112426190D02*
X108938095Y-112426190D01*
X108985714Y-112450000D01*
X109009523Y-112473809D01*
X109033333Y-112521428D01*
X109057142Y-112616666D01*
X109057142Y-112735714D01*
X109033333Y-112830952D01*
X109009523Y-112878571D01*
X108985714Y-112902380D01*
X108938095Y-112926190D01*
X108890476Y-112926190D01*
X108842857Y-112902380D01*
X108819047Y-112878571D01*
X108795238Y-112830952D01*
X108771428Y-112735714D01*
X108771428Y-112616666D01*
X108795238Y-112521428D01*
X108819047Y-112473809D01*
X108842857Y-112450000D01*
X108890476Y-112426190D01*
%TO.C,X401*%
D17*
X92800325Y-77991904D02*
X93333659Y-78791904D01*
X93333659Y-77991904D02*
X92800325Y-78791904D01*
X93981278Y-78258571D02*
X93981278Y-78791904D01*
X93790801Y-77953809D02*
X93600325Y-78525238D01*
X94095563Y-78525238D01*
X94552706Y-77991904D02*
X94628897Y-77991904D01*
X94705087Y-78030000D01*
X94743182Y-78068095D01*
X94781278Y-78144285D01*
X94819373Y-78296666D01*
X94819373Y-78487142D01*
X94781278Y-78639523D01*
X94743182Y-78715714D01*
X94705087Y-78753809D01*
X94628897Y-78791904D01*
X94552706Y-78791904D01*
X94476516Y-78753809D01*
X94438420Y-78715714D01*
X94400325Y-78639523D01*
X94362230Y-78487142D01*
X94362230Y-78296666D01*
X94400325Y-78144285D01*
X94438420Y-78068095D01*
X94476516Y-78030000D01*
X94552706Y-77991904D01*
X95581278Y-78791904D02*
X95124135Y-78791904D01*
X95352706Y-78791904D02*
X95352706Y-77991904D01*
X95276516Y-78106190D01*
X95200325Y-78182380D01*
X95124135Y-78220476D01*
%TO.C,X402*%
X90820325Y-120201904D02*
X91353659Y-121001904D01*
X91353659Y-120201904D02*
X90820325Y-121001904D01*
X92001278Y-120468571D02*
X92001278Y-121001904D01*
X91810801Y-120163809D02*
X91620325Y-120735238D01*
X92115563Y-120735238D01*
X92572706Y-120201904D02*
X92648897Y-120201904D01*
X92725087Y-120240000D01*
X92763182Y-120278095D01*
X92801278Y-120354285D01*
X92839373Y-120506666D01*
X92839373Y-120697142D01*
X92801278Y-120849523D01*
X92763182Y-120925714D01*
X92725087Y-120963809D01*
X92648897Y-121001904D01*
X92572706Y-121001904D01*
X92496516Y-120963809D01*
X92458420Y-120925714D01*
X92420325Y-120849523D01*
X92382230Y-120697142D01*
X92382230Y-120506666D01*
X92420325Y-120354285D01*
X92458420Y-120278095D01*
X92496516Y-120240000D01*
X92572706Y-120201904D01*
X93144135Y-120278095D02*
X93182230Y-120240000D01*
X93258420Y-120201904D01*
X93448897Y-120201904D01*
X93525087Y-120240000D01*
X93563182Y-120278095D01*
X93601278Y-120354285D01*
X93601278Y-120430476D01*
X93563182Y-120544761D01*
X93106040Y-121001904D01*
X93601278Y-121001904D01*
%TO.C,C438*%
D11*
X108985714Y-108795238D02*
X109023809Y-108833333D01*
X109061904Y-108947619D01*
X109061904Y-109023809D01*
X109023809Y-109138095D01*
X108947619Y-109214285D01*
X108871428Y-109252380D01*
X108719047Y-109290476D01*
X108604761Y-109290476D01*
X108452380Y-109252380D01*
X108376190Y-109214285D01*
X108300000Y-109138095D01*
X108261904Y-109023809D01*
X108261904Y-108947619D01*
X108300000Y-108833333D01*
X108338095Y-108795238D01*
X108528571Y-108109523D02*
X109061904Y-108109523D01*
X108223809Y-108300000D02*
X108795238Y-108490476D01*
X108795238Y-107995238D01*
X108261904Y-107766666D02*
X108261904Y-107271428D01*
X108566666Y-107538095D01*
X108566666Y-107423809D01*
X108604761Y-107347619D01*
X108642857Y-107309523D01*
X108719047Y-107271428D01*
X108909523Y-107271428D01*
X108985714Y-107309523D01*
X109023809Y-107347619D01*
X109061904Y-107423809D01*
X109061904Y-107652380D01*
X109023809Y-107728571D01*
X108985714Y-107766666D01*
X108604761Y-106814285D02*
X108566666Y-106890476D01*
X108528571Y-106928571D01*
X108452380Y-106966666D01*
X108414285Y-106966666D01*
X108338095Y-106928571D01*
X108300000Y-106890476D01*
X108261904Y-106814285D01*
X108261904Y-106661904D01*
X108300000Y-106585714D01*
X108338095Y-106547619D01*
X108414285Y-106509523D01*
X108452380Y-106509523D01*
X108528571Y-106547619D01*
X108566666Y-106585714D01*
X108604761Y-106661904D01*
X108604761Y-106814285D01*
X108642857Y-106890476D01*
X108680952Y-106928571D01*
X108757142Y-106966666D01*
X108909523Y-106966666D01*
X108985714Y-106928571D01*
X109023809Y-106890476D01*
X109061904Y-106814285D01*
X109061904Y-106661904D01*
X109023809Y-106585714D01*
X108985714Y-106547619D01*
X108909523Y-106509523D01*
X108757142Y-106509523D01*
X108680952Y-106547619D01*
X108642857Y-106585714D01*
X108604761Y-106661904D01*
%TD*%
M02*
