M48
;DRILL file {KiCad 4.0.6} date 10/31/18 19:32:20
;FORMAT={-:-/ absolute / inch / decimal}
FMAT,2
INCH,TZ
T1C0.012
T2C0.016
T3C0.040
T4C0.050
T5C0.070
T6C0.098
T7C0.130
%
G90
G05
M72
T1
X3.6565Y-3.9872
X3.8839Y-4.0417
X3.9559Y-4.2043
X4.1268Y-3.9071
X4.165Y-4.2287
X4.2106Y-4.4925
X4.2769Y-3.8069
X4.2769Y-3.8659
X4.2769Y-3.925
X4.2769Y-3.9841
X4.2769Y-4.0431
X4.3039Y-3.585
X4.3359Y-3.8069
X4.3359Y-3.8659
X4.3359Y-3.925
X4.3359Y-3.9841
X4.3359Y-4.0431
X4.3504Y-3.6348
X4.395Y-3.8069
X4.395Y-3.8659
X4.395Y-3.925
X4.395Y-3.9841
X4.395Y-4.0431
X4.4541Y-3.8069
X4.4541Y-3.8659
X4.4541Y-3.925
X4.5131Y-3.8069
X4.5131Y-3.8659
X4.5131Y-3.925
X4.5465Y-4.8961
X4.6031Y-3.3709
X4.6453Y-3.1283
X4.7358Y-4.55
X4.7724Y-3.9146
X4.7791Y-3.9626
X4.7957Y-4.239
X4.8122Y-3.5583
X4.9173Y-4.5285
X4.9472Y-3.6126
X4.9583Y-3.5323
X5.0079Y-4.4557
X5.0484Y-3.5394
X5.127Y-4.6309
X5.1445Y-3.4043
X5.1539Y-3.5425
X5.2028Y-3.5394
X5.2335Y-4.4114
X5.2409Y-3.8409
X5.2409Y-3.9
X5.2409Y-3.9591
X5.2539Y-4.2626
X5.2579Y-3.3969
X5.3Y-3.8409
X5.3Y-3.9
X5.3Y-3.9591
X5.3496Y-3.2906
X5.3591Y-3.8409
X5.3591Y-3.9
X5.3669Y-3.2252
X5.3701Y-4.2835
X5.4957Y-4.2697
X5.53Y-3.63
X5.548Y-4.4445
X5.6122Y-4.1657
X5.6398Y-4.0382
X5.6409Y-3.9898
X5.6429Y-3.3646
X5.6492Y-3.6291
X5.6862Y-4.4071
X5.798Y-3.5894
X5.8169Y-3.7732
X5.8213Y-3.8894
X5.8236Y-3.648
X5.8244Y-3.4831
X5.8268Y-3.6138
X5.872Y-4.1929
X5.9878Y-4.0083
X5.9949Y-4.0866
X6.0561Y-3.0492
X6.063Y-4.2878
T2
X4.124Y-3.789
X4.6047Y-3.7094
X4.6051Y-4.1374
X4.6882Y-4.3563
X4.9197Y-3.9488
X4.928Y-4.2752
X4.9398Y-4.4276
X4.9516Y-3.7161
X4.998Y-3.7724
X5.0055Y-4.1264
X5.1122Y-4.4441
X5.128Y-4.2106
X5.1409Y-4.2736
X5.3626Y-4.4413
X5.4413Y-3.3992
X5.4866Y-3.565
X5.5531Y-4.2906
X5.585Y-3.713
X5.6035Y-3.3689
X5.62Y-3.52
X5.652Y-3.9307
X5.6543Y-3.7528
X5.6606Y-4.2445
X5.8547Y-4.2689
X5.9976Y-4.1461
T3
X3.8728Y-2.8831
X3.8728Y-2.9831
X3.9728Y-2.8831
X3.9728Y-2.9831
X4.0728Y-2.8831
X4.0728Y-2.9831
X4.1728Y-2.8831
X4.1728Y-2.9831
X4.2728Y-2.8831
X4.2728Y-2.9831
X4.3728Y-2.8831
X4.3728Y-2.9831
X4.4728Y-2.8831
X4.4728Y-2.9831
X4.5728Y-2.8831
X4.5728Y-2.9831
X4.6728Y-2.8831
X4.6728Y-2.9831
X4.7469Y-4.8319
X4.7469Y-4.9319
X4.7728Y-2.8831
X4.7728Y-2.9831
X4.8469Y-4.8319
X4.8469Y-4.9319
X4.8728Y-2.8831
X4.8728Y-2.9831
X4.9469Y-4.8319
X4.9469Y-4.9319
X4.9728Y-2.8831
X4.9728Y-2.9831
X5.0469Y-4.8319
X5.0469Y-4.9319
X5.0728Y-2.8831
X5.0728Y-2.9831
X5.1469Y-4.8319
X5.1469Y-4.9319
X5.1728Y-2.8831
X5.1728Y-2.9831
X5.2469Y-4.8319
X5.2469Y-4.9319
X5.2728Y-2.8831
X5.2728Y-2.9831
X5.3469Y-4.8319
X5.3469Y-4.9319
X5.3728Y-2.8831
X5.3728Y-2.9831
X5.4469Y-4.8319
X5.4469Y-4.9319
X5.4728Y-2.8831
X5.4728Y-2.9831
X5.5469Y-4.8319
X5.5469Y-4.9319
X5.5728Y-2.8831
X5.5728Y-2.9831
X5.6469Y-4.8319
X5.6469Y-4.9319
X5.6728Y-2.8831
X5.6728Y-2.9831
X5.7728Y-2.8831
X5.7728Y-2.9831
T4
X3.7165Y-4.5551
X3.7205Y-3.2874
T5
X3.6161Y-4.4547
X3.6161Y-4.6555
X3.6201Y-3.187
X3.6201Y-3.3878
X3.8169Y-4.4547
X3.8169Y-4.6555
X3.8209Y-3.187
X3.8209Y-3.3878
T6
X4.4737Y-4.0037
X5.3827Y-3.9827
T7
X3.6811Y-2.9331
X3.6811Y-4.8622
X5.9646Y-2.9331
X5.9646Y-4.8622
T0
M30
