G04 #@! TF.FileFunction,Soldermask,Bot*
%FSLAX46Y46*%
G04 Gerber Fmt 4.6, Leading zero omitted, Abs format (unit mm)*
G04 Created by KiCad (PCBNEW 4.0.6) date 10/31/18 19:38:29*
%MOMM*%
%LPD*%
G01*
G04 APERTURE LIST*
%ADD10C,0.100000*%
G04 APERTURE END LIST*
D10*
G36*
X93783592Y-120801797D02*
X94302277Y-120908268D01*
X94790398Y-121113455D01*
X95229373Y-121409546D01*
X95602477Y-121785265D01*
X95895496Y-122226293D01*
X96097271Y-122715836D01*
X96200050Y-123234908D01*
X96200050Y-123234917D01*
X96200116Y-123235251D01*
X96191671Y-123840037D01*
X96191595Y-123840371D01*
X96191595Y-123840383D01*
X96074365Y-124356375D01*
X95858998Y-124840097D01*
X95553779Y-125272772D01*
X95170327Y-125637928D01*
X94723262Y-125921644D01*
X94229597Y-126113125D01*
X93708146Y-126205070D01*
X93178765Y-126193982D01*
X92661612Y-126080278D01*
X92176404Y-125868296D01*
X91741608Y-125566104D01*
X91373786Y-125185213D01*
X91086955Y-124740139D01*
X90892034Y-124247824D01*
X90796448Y-123727020D01*
X90803842Y-123197576D01*
X90913930Y-122679652D01*
X91122522Y-122192970D01*
X91421671Y-121756075D01*
X91799984Y-121385603D01*
X92243047Y-121095670D01*
X92733989Y-120897317D01*
X93254104Y-120798100D01*
X93783592Y-120801797D01*
X93783592Y-120801797D01*
G37*
G36*
X151783592Y-120801797D02*
X152302277Y-120908268D01*
X152790398Y-121113455D01*
X153229373Y-121409546D01*
X153602477Y-121785265D01*
X153895496Y-122226293D01*
X154097271Y-122715836D01*
X154200050Y-123234908D01*
X154200050Y-123234917D01*
X154200116Y-123235251D01*
X154191671Y-123840037D01*
X154191595Y-123840371D01*
X154191595Y-123840383D01*
X154074365Y-124356375D01*
X153858998Y-124840097D01*
X153553779Y-125272772D01*
X153170327Y-125637928D01*
X152723262Y-125921644D01*
X152229597Y-126113125D01*
X151708146Y-126205070D01*
X151178765Y-126193982D01*
X150661612Y-126080278D01*
X150176404Y-125868296D01*
X149741608Y-125566104D01*
X149373786Y-125185213D01*
X149086955Y-124740139D01*
X148892034Y-124247824D01*
X148796448Y-123727020D01*
X148803842Y-123197576D01*
X148913930Y-122679652D01*
X149122522Y-122192970D01*
X149421671Y-121756075D01*
X149799984Y-121385603D01*
X150243047Y-121095670D01*
X150733989Y-120897317D01*
X151254104Y-120798100D01*
X151783592Y-120801797D01*
X151783592Y-120801797D01*
G37*
G36*
X125735288Y-124458539D02*
X125891279Y-124490560D01*
X126038075Y-124552267D01*
X126170093Y-124641314D01*
X126282302Y-124754310D01*
X126370427Y-124886946D01*
X126431105Y-125034166D01*
X126461969Y-125190036D01*
X126461969Y-125190045D01*
X126462035Y-125190379D01*
X126459495Y-125372263D01*
X126459419Y-125372597D01*
X126459419Y-125372609D01*
X126424219Y-125527546D01*
X126359448Y-125673022D01*
X126267657Y-125803145D01*
X126152334Y-125912965D01*
X126017886Y-125998288D01*
X125869420Y-126055875D01*
X125712600Y-126083526D01*
X125553393Y-126080192D01*
X125397861Y-126045996D01*
X125251939Y-125982244D01*
X125121179Y-125891363D01*
X125010558Y-125776812D01*
X124924298Y-125642963D01*
X124865677Y-125494903D01*
X124836930Y-125338272D01*
X124839154Y-125179048D01*
X124872261Y-125023289D01*
X124934995Y-124876922D01*
X125024961Y-124745530D01*
X125138736Y-124634112D01*
X125271982Y-124546918D01*
X125419629Y-124487265D01*
X125576047Y-124457427D01*
X125735288Y-124458539D01*
X125735288Y-124458539D01*
G37*
G36*
X128275288Y-124458539D02*
X128431279Y-124490560D01*
X128578075Y-124552267D01*
X128710093Y-124641314D01*
X128822302Y-124754310D01*
X128910427Y-124886946D01*
X128971105Y-125034166D01*
X129001969Y-125190036D01*
X129001969Y-125190045D01*
X129002035Y-125190379D01*
X128999495Y-125372263D01*
X128999419Y-125372597D01*
X128999419Y-125372609D01*
X128964219Y-125527546D01*
X128899448Y-125673022D01*
X128807657Y-125803145D01*
X128692334Y-125912965D01*
X128557886Y-125998288D01*
X128409420Y-126055875D01*
X128252600Y-126083526D01*
X128093393Y-126080192D01*
X127937861Y-126045996D01*
X127791939Y-125982244D01*
X127661179Y-125891363D01*
X127550558Y-125776812D01*
X127464298Y-125642963D01*
X127405677Y-125494903D01*
X127376930Y-125338272D01*
X127379154Y-125179048D01*
X127412261Y-125023289D01*
X127474995Y-124876922D01*
X127564961Y-124745530D01*
X127678736Y-124634112D01*
X127811982Y-124546918D01*
X127959629Y-124487265D01*
X128116047Y-124457427D01*
X128275288Y-124458539D01*
X128275288Y-124458539D01*
G37*
G36*
X130815288Y-124458539D02*
X130971279Y-124490560D01*
X131118075Y-124552267D01*
X131250093Y-124641314D01*
X131362302Y-124754310D01*
X131450427Y-124886946D01*
X131511105Y-125034166D01*
X131541969Y-125190036D01*
X131541969Y-125190045D01*
X131542035Y-125190379D01*
X131539495Y-125372263D01*
X131539419Y-125372597D01*
X131539419Y-125372609D01*
X131504219Y-125527546D01*
X131439448Y-125673022D01*
X131347657Y-125803145D01*
X131232334Y-125912965D01*
X131097886Y-125998288D01*
X130949420Y-126055875D01*
X130792600Y-126083526D01*
X130633393Y-126080192D01*
X130477861Y-126045996D01*
X130331939Y-125982244D01*
X130201179Y-125891363D01*
X130090558Y-125776812D01*
X130004298Y-125642963D01*
X129945677Y-125494903D01*
X129916930Y-125338272D01*
X129919154Y-125179048D01*
X129952261Y-125023289D01*
X130014995Y-124876922D01*
X130104961Y-124745530D01*
X130218736Y-124634112D01*
X130351982Y-124546918D01*
X130499629Y-124487265D01*
X130656047Y-124457427D01*
X130815288Y-124458539D01*
X130815288Y-124458539D01*
G37*
G36*
X133355288Y-124458539D02*
X133511279Y-124490560D01*
X133658075Y-124552267D01*
X133790093Y-124641314D01*
X133902302Y-124754310D01*
X133990427Y-124886946D01*
X134051105Y-125034166D01*
X134081969Y-125190036D01*
X134081969Y-125190045D01*
X134082035Y-125190379D01*
X134079495Y-125372263D01*
X134079419Y-125372597D01*
X134079419Y-125372609D01*
X134044219Y-125527546D01*
X133979448Y-125673022D01*
X133887657Y-125803145D01*
X133772334Y-125912965D01*
X133637886Y-125998288D01*
X133489420Y-126055875D01*
X133332600Y-126083526D01*
X133173393Y-126080192D01*
X133017861Y-126045996D01*
X132871939Y-125982244D01*
X132741179Y-125891363D01*
X132630558Y-125776812D01*
X132544298Y-125642963D01*
X132485677Y-125494903D01*
X132456930Y-125338272D01*
X132459154Y-125179048D01*
X132492261Y-125023289D01*
X132554995Y-124876922D01*
X132644961Y-124745530D01*
X132758736Y-124634112D01*
X132891982Y-124546918D01*
X133039629Y-124487265D01*
X133196047Y-124457427D01*
X133355288Y-124458539D01*
X133355288Y-124458539D01*
G37*
G36*
X135895288Y-124458539D02*
X136051279Y-124490560D01*
X136198075Y-124552267D01*
X136330093Y-124641314D01*
X136442302Y-124754310D01*
X136530427Y-124886946D01*
X136591105Y-125034166D01*
X136621969Y-125190036D01*
X136621969Y-125190045D01*
X136622035Y-125190379D01*
X136619495Y-125372263D01*
X136619419Y-125372597D01*
X136619419Y-125372609D01*
X136584219Y-125527546D01*
X136519448Y-125673022D01*
X136427657Y-125803145D01*
X136312334Y-125912965D01*
X136177886Y-125998288D01*
X136029420Y-126055875D01*
X135872600Y-126083526D01*
X135713393Y-126080192D01*
X135557861Y-126045996D01*
X135411939Y-125982244D01*
X135281179Y-125891363D01*
X135170558Y-125776812D01*
X135084298Y-125642963D01*
X135025677Y-125494903D01*
X134996930Y-125338272D01*
X134999154Y-125179048D01*
X135032261Y-125023289D01*
X135094995Y-124876922D01*
X135184961Y-124745530D01*
X135298736Y-124634112D01*
X135431982Y-124546918D01*
X135579629Y-124487265D01*
X135736047Y-124457427D01*
X135895288Y-124458539D01*
X135895288Y-124458539D01*
G37*
G36*
X138435288Y-124458539D02*
X138591279Y-124490560D01*
X138738075Y-124552267D01*
X138870093Y-124641314D01*
X138982302Y-124754310D01*
X139070427Y-124886946D01*
X139131105Y-125034166D01*
X139161969Y-125190036D01*
X139161969Y-125190045D01*
X139162035Y-125190379D01*
X139159495Y-125372263D01*
X139159419Y-125372597D01*
X139159419Y-125372609D01*
X139124219Y-125527546D01*
X139059448Y-125673022D01*
X138967657Y-125803145D01*
X138852334Y-125912965D01*
X138717886Y-125998288D01*
X138569420Y-126055875D01*
X138412600Y-126083526D01*
X138253393Y-126080192D01*
X138097861Y-126045996D01*
X137951939Y-125982244D01*
X137821179Y-125891363D01*
X137710558Y-125776812D01*
X137624298Y-125642963D01*
X137565677Y-125494903D01*
X137536930Y-125338272D01*
X137539154Y-125179048D01*
X137572261Y-125023289D01*
X137634995Y-124876922D01*
X137724961Y-124745530D01*
X137838736Y-124634112D01*
X137971982Y-124546918D01*
X138119629Y-124487265D01*
X138276047Y-124457427D01*
X138435288Y-124458539D01*
X138435288Y-124458539D01*
G37*
G36*
X143515288Y-124458539D02*
X143671279Y-124490560D01*
X143818075Y-124552267D01*
X143950093Y-124641314D01*
X144062302Y-124754310D01*
X144150427Y-124886946D01*
X144211105Y-125034166D01*
X144241969Y-125190036D01*
X144241969Y-125190045D01*
X144242035Y-125190379D01*
X144239495Y-125372263D01*
X144239419Y-125372597D01*
X144239419Y-125372609D01*
X144204219Y-125527546D01*
X144139448Y-125673022D01*
X144047657Y-125803145D01*
X143932334Y-125912965D01*
X143797886Y-125998288D01*
X143649420Y-126055875D01*
X143492600Y-126083526D01*
X143333393Y-126080192D01*
X143177861Y-126045996D01*
X143031939Y-125982244D01*
X142901179Y-125891363D01*
X142790558Y-125776812D01*
X142704298Y-125642963D01*
X142645677Y-125494903D01*
X142616930Y-125338272D01*
X142619154Y-125179048D01*
X142652261Y-125023289D01*
X142714995Y-124876922D01*
X142804961Y-124745530D01*
X142918736Y-124634112D01*
X143051982Y-124546918D01*
X143199629Y-124487265D01*
X143356047Y-124457427D01*
X143515288Y-124458539D01*
X143515288Y-124458539D01*
G37*
G36*
X140975288Y-124458539D02*
X141131279Y-124490560D01*
X141278075Y-124552267D01*
X141410093Y-124641314D01*
X141522302Y-124754310D01*
X141610427Y-124886946D01*
X141671105Y-125034166D01*
X141701969Y-125190036D01*
X141701969Y-125190045D01*
X141702035Y-125190379D01*
X141699495Y-125372263D01*
X141699419Y-125372597D01*
X141699419Y-125372609D01*
X141664219Y-125527546D01*
X141599448Y-125673022D01*
X141507657Y-125803145D01*
X141392334Y-125912965D01*
X141257886Y-125998288D01*
X141109420Y-126055875D01*
X140952600Y-126083526D01*
X140793393Y-126080192D01*
X140637861Y-126045996D01*
X140491939Y-125982244D01*
X140361179Y-125891363D01*
X140250558Y-125776812D01*
X140164298Y-125642963D01*
X140105677Y-125494903D01*
X140076930Y-125338272D01*
X140079154Y-125179048D01*
X140112261Y-125023289D01*
X140174995Y-124876922D01*
X140264961Y-124745530D01*
X140378736Y-124634112D01*
X140511982Y-124546918D01*
X140659629Y-124487265D01*
X140816047Y-124457427D01*
X140975288Y-124458539D01*
X140975288Y-124458539D01*
G37*
G36*
X123195288Y-124458539D02*
X123351279Y-124490560D01*
X123498075Y-124552267D01*
X123630093Y-124641314D01*
X123742302Y-124754310D01*
X123830427Y-124886946D01*
X123891105Y-125034166D01*
X123921969Y-125190036D01*
X123921969Y-125190045D01*
X123922035Y-125190379D01*
X123919495Y-125372263D01*
X123919419Y-125372597D01*
X123919419Y-125372609D01*
X123884219Y-125527546D01*
X123819448Y-125673022D01*
X123727657Y-125803145D01*
X123612334Y-125912965D01*
X123477886Y-125998288D01*
X123329420Y-126055875D01*
X123172600Y-126083526D01*
X123013393Y-126080192D01*
X122857861Y-126045996D01*
X122711939Y-125982244D01*
X122581179Y-125891363D01*
X122470558Y-125776812D01*
X122384298Y-125642963D01*
X122325677Y-125494903D01*
X122296930Y-125338272D01*
X122299154Y-125179048D01*
X122332261Y-125023289D01*
X122394995Y-124876922D01*
X122484961Y-124745530D01*
X122598736Y-124634112D01*
X122731982Y-124546918D01*
X122879629Y-124487265D01*
X123036047Y-124457427D01*
X123195288Y-124458539D01*
X123195288Y-124458539D01*
G37*
G36*
X120655288Y-124458539D02*
X120811279Y-124490560D01*
X120958075Y-124552267D01*
X121090093Y-124641314D01*
X121202302Y-124754310D01*
X121290427Y-124886946D01*
X121351105Y-125034166D01*
X121381969Y-125190036D01*
X121381969Y-125190045D01*
X121382035Y-125190379D01*
X121379495Y-125372263D01*
X121379419Y-125372597D01*
X121379419Y-125372609D01*
X121344219Y-125527546D01*
X121279448Y-125673022D01*
X121187657Y-125803145D01*
X121072334Y-125912965D01*
X120937886Y-125998288D01*
X120789420Y-126055875D01*
X120632600Y-126083526D01*
X120473393Y-126080192D01*
X120317861Y-126045996D01*
X120171939Y-125982244D01*
X120041179Y-125891363D01*
X119930558Y-125776812D01*
X119844298Y-125642963D01*
X119785677Y-125494903D01*
X119756930Y-125338272D01*
X119759154Y-125179048D01*
X119792261Y-125023289D01*
X119854995Y-124876922D01*
X119944961Y-124745530D01*
X120058736Y-124634112D01*
X120191982Y-124546918D01*
X120339629Y-124487265D01*
X120496047Y-124457427D01*
X120655288Y-124458539D01*
X120655288Y-124458539D01*
G37*
G36*
X133355288Y-121918539D02*
X133511279Y-121950560D01*
X133658075Y-122012267D01*
X133790093Y-122101314D01*
X133902302Y-122214310D01*
X133990427Y-122346946D01*
X134051105Y-122494166D01*
X134081969Y-122650036D01*
X134081969Y-122650045D01*
X134082035Y-122650379D01*
X134079495Y-122832263D01*
X134079419Y-122832597D01*
X134079419Y-122832609D01*
X134044219Y-122987546D01*
X133979448Y-123133022D01*
X133887657Y-123263145D01*
X133772334Y-123372965D01*
X133637886Y-123458288D01*
X133489420Y-123515875D01*
X133332600Y-123543526D01*
X133173393Y-123540192D01*
X133017861Y-123505996D01*
X132871939Y-123442244D01*
X132741179Y-123351363D01*
X132630558Y-123236812D01*
X132544298Y-123102963D01*
X132485677Y-122954903D01*
X132456930Y-122798272D01*
X132459154Y-122639048D01*
X132492261Y-122483289D01*
X132554995Y-122336922D01*
X132644961Y-122205530D01*
X132758736Y-122094112D01*
X132891982Y-122006918D01*
X133039629Y-121947265D01*
X133196047Y-121917427D01*
X133355288Y-121918539D01*
X133355288Y-121918539D01*
G37*
G36*
X120655288Y-121918539D02*
X120811279Y-121950560D01*
X120958075Y-122012267D01*
X121090093Y-122101314D01*
X121202302Y-122214310D01*
X121290427Y-122346946D01*
X121351105Y-122494166D01*
X121381969Y-122650036D01*
X121381969Y-122650045D01*
X121382035Y-122650379D01*
X121379495Y-122832263D01*
X121379419Y-122832597D01*
X121379419Y-122832609D01*
X121344219Y-122987546D01*
X121279448Y-123133022D01*
X121187657Y-123263145D01*
X121072334Y-123372965D01*
X120937886Y-123458288D01*
X120789420Y-123515875D01*
X120632600Y-123543526D01*
X120473393Y-123540192D01*
X120317861Y-123505996D01*
X120171939Y-123442244D01*
X120041179Y-123351363D01*
X119930558Y-123236812D01*
X119844298Y-123102963D01*
X119785677Y-122954903D01*
X119756930Y-122798272D01*
X119759154Y-122639048D01*
X119792261Y-122483289D01*
X119854995Y-122336922D01*
X119944961Y-122205530D01*
X120058736Y-122094112D01*
X120191982Y-122006918D01*
X120339629Y-121947265D01*
X120496047Y-121917427D01*
X120655288Y-121918539D01*
X120655288Y-121918539D01*
G37*
G36*
X123195288Y-121918539D02*
X123351279Y-121950560D01*
X123498075Y-122012267D01*
X123630093Y-122101314D01*
X123742302Y-122214310D01*
X123830427Y-122346946D01*
X123891105Y-122494166D01*
X123921969Y-122650036D01*
X123921969Y-122650045D01*
X123922035Y-122650379D01*
X123919495Y-122832263D01*
X123919419Y-122832597D01*
X123919419Y-122832609D01*
X123884219Y-122987546D01*
X123819448Y-123133022D01*
X123727657Y-123263145D01*
X123612334Y-123372965D01*
X123477886Y-123458288D01*
X123329420Y-123515875D01*
X123172600Y-123543526D01*
X123013393Y-123540192D01*
X122857861Y-123505996D01*
X122711939Y-123442244D01*
X122581179Y-123351363D01*
X122470558Y-123236812D01*
X122384298Y-123102963D01*
X122325677Y-122954903D01*
X122296930Y-122798272D01*
X122299154Y-122639048D01*
X122332261Y-122483289D01*
X122394995Y-122336922D01*
X122484961Y-122205530D01*
X122598736Y-122094112D01*
X122731982Y-122006918D01*
X122879629Y-121947265D01*
X123036047Y-121917427D01*
X123195288Y-121918539D01*
X123195288Y-121918539D01*
G37*
G36*
X125735288Y-121918539D02*
X125891279Y-121950560D01*
X126038075Y-122012267D01*
X126170093Y-122101314D01*
X126282302Y-122214310D01*
X126370427Y-122346946D01*
X126431105Y-122494166D01*
X126461969Y-122650036D01*
X126461969Y-122650045D01*
X126462035Y-122650379D01*
X126459495Y-122832263D01*
X126459419Y-122832597D01*
X126459419Y-122832609D01*
X126424219Y-122987546D01*
X126359448Y-123133022D01*
X126267657Y-123263145D01*
X126152334Y-123372965D01*
X126017886Y-123458288D01*
X125869420Y-123515875D01*
X125712600Y-123543526D01*
X125553393Y-123540192D01*
X125397861Y-123505996D01*
X125251939Y-123442244D01*
X125121179Y-123351363D01*
X125010558Y-123236812D01*
X124924298Y-123102963D01*
X124865677Y-122954903D01*
X124836930Y-122798272D01*
X124839154Y-122639048D01*
X124872261Y-122483289D01*
X124934995Y-122336922D01*
X125024961Y-122205530D01*
X125138736Y-122094112D01*
X125271982Y-122006918D01*
X125419629Y-121947265D01*
X125576047Y-121917427D01*
X125735288Y-121918539D01*
X125735288Y-121918539D01*
G37*
G36*
X128275288Y-121918539D02*
X128431279Y-121950560D01*
X128578075Y-122012267D01*
X128710093Y-122101314D01*
X128822302Y-122214310D01*
X128910427Y-122346946D01*
X128971105Y-122494166D01*
X129001969Y-122650036D01*
X129001969Y-122650045D01*
X129002035Y-122650379D01*
X128999495Y-122832263D01*
X128999419Y-122832597D01*
X128999419Y-122832609D01*
X128964219Y-122987546D01*
X128899448Y-123133022D01*
X128807657Y-123263145D01*
X128692334Y-123372965D01*
X128557886Y-123458288D01*
X128409420Y-123515875D01*
X128252600Y-123543526D01*
X128093393Y-123540192D01*
X127937861Y-123505996D01*
X127791939Y-123442244D01*
X127661179Y-123351363D01*
X127550558Y-123236812D01*
X127464298Y-123102963D01*
X127405677Y-122954903D01*
X127376930Y-122798272D01*
X127379154Y-122639048D01*
X127412261Y-122483289D01*
X127474995Y-122336922D01*
X127564961Y-122205530D01*
X127678736Y-122094112D01*
X127811982Y-122006918D01*
X127959629Y-121947265D01*
X128116047Y-121917427D01*
X128275288Y-121918539D01*
X128275288Y-121918539D01*
G37*
G36*
X130815288Y-121918539D02*
X130971279Y-121950560D01*
X131118075Y-122012267D01*
X131250093Y-122101314D01*
X131362302Y-122214310D01*
X131450427Y-122346946D01*
X131511105Y-122494166D01*
X131541969Y-122650036D01*
X131541969Y-122650045D01*
X131542035Y-122650379D01*
X131539495Y-122832263D01*
X131539419Y-122832597D01*
X131539419Y-122832609D01*
X131504219Y-122987546D01*
X131439448Y-123133022D01*
X131347657Y-123263145D01*
X131232334Y-123372965D01*
X131097886Y-123458288D01*
X130949420Y-123515875D01*
X130792600Y-123543526D01*
X130633393Y-123540192D01*
X130477861Y-123505996D01*
X130331939Y-123442244D01*
X130201179Y-123351363D01*
X130090558Y-123236812D01*
X130004298Y-123102963D01*
X129945677Y-122954903D01*
X129916930Y-122798272D01*
X129919154Y-122639048D01*
X129952261Y-122483289D01*
X130014995Y-122336922D01*
X130104961Y-122205530D01*
X130218736Y-122094112D01*
X130351982Y-122006918D01*
X130499629Y-121947265D01*
X130656047Y-121917427D01*
X130815288Y-121918539D01*
X130815288Y-121918539D01*
G37*
G36*
X135895288Y-121918539D02*
X136051279Y-121950560D01*
X136198075Y-122012267D01*
X136330093Y-122101314D01*
X136442302Y-122214310D01*
X136530427Y-122346946D01*
X136591105Y-122494166D01*
X136621969Y-122650036D01*
X136621969Y-122650045D01*
X136622035Y-122650379D01*
X136619495Y-122832263D01*
X136619419Y-122832597D01*
X136619419Y-122832609D01*
X136584219Y-122987546D01*
X136519448Y-123133022D01*
X136427657Y-123263145D01*
X136312334Y-123372965D01*
X136177886Y-123458288D01*
X136029420Y-123515875D01*
X135872600Y-123543526D01*
X135713393Y-123540192D01*
X135557861Y-123505996D01*
X135411939Y-123442244D01*
X135281179Y-123351363D01*
X135170558Y-123236812D01*
X135084298Y-123102963D01*
X135025677Y-122954903D01*
X134996930Y-122798272D01*
X134999154Y-122639048D01*
X135032261Y-122483289D01*
X135094995Y-122336922D01*
X135184961Y-122205530D01*
X135298736Y-122094112D01*
X135431982Y-122006918D01*
X135579629Y-121947265D01*
X135736047Y-121917427D01*
X135895288Y-121918539D01*
X135895288Y-121918539D01*
G37*
G36*
X138435288Y-121918539D02*
X138591279Y-121950560D01*
X138738075Y-122012267D01*
X138870093Y-122101314D01*
X138982302Y-122214310D01*
X139070427Y-122346946D01*
X139131105Y-122494166D01*
X139161969Y-122650036D01*
X139161969Y-122650045D01*
X139162035Y-122650379D01*
X139159495Y-122832263D01*
X139159419Y-122832597D01*
X139159419Y-122832609D01*
X139124219Y-122987546D01*
X139059448Y-123133022D01*
X138967657Y-123263145D01*
X138852334Y-123372965D01*
X138717886Y-123458288D01*
X138569420Y-123515875D01*
X138412600Y-123543526D01*
X138253393Y-123540192D01*
X138097861Y-123505996D01*
X137951939Y-123442244D01*
X137821179Y-123351363D01*
X137710558Y-123236812D01*
X137624298Y-123102963D01*
X137565677Y-122954903D01*
X137536930Y-122798272D01*
X137539154Y-122639048D01*
X137572261Y-122483289D01*
X137634995Y-122336922D01*
X137724961Y-122205530D01*
X137838736Y-122094112D01*
X137971982Y-122006918D01*
X138119629Y-121947265D01*
X138276047Y-121917427D01*
X138435288Y-121918539D01*
X138435288Y-121918539D01*
G37*
G36*
X140975288Y-121918539D02*
X141131279Y-121950560D01*
X141278075Y-122012267D01*
X141410093Y-122101314D01*
X141522302Y-122214310D01*
X141610427Y-122346946D01*
X141671105Y-122494166D01*
X141701969Y-122650036D01*
X141701969Y-122650045D01*
X141702035Y-122650379D01*
X141699495Y-122832263D01*
X141699419Y-122832597D01*
X141699419Y-122832609D01*
X141664219Y-122987546D01*
X141599448Y-123133022D01*
X141507657Y-123263145D01*
X141392334Y-123372965D01*
X141257886Y-123458288D01*
X141109420Y-123515875D01*
X140952600Y-123543526D01*
X140793393Y-123540192D01*
X140637861Y-123505996D01*
X140491939Y-123442244D01*
X140361179Y-123351363D01*
X140250558Y-123236812D01*
X140164298Y-123102963D01*
X140105677Y-122954903D01*
X140076930Y-122798272D01*
X140079154Y-122639048D01*
X140112261Y-122483289D01*
X140174995Y-122336922D01*
X140264961Y-122205530D01*
X140378736Y-122094112D01*
X140511982Y-122006918D01*
X140659629Y-121947265D01*
X140816047Y-121917427D01*
X140975288Y-121918539D01*
X140975288Y-121918539D01*
G37*
G36*
X143515288Y-121918539D02*
X143671279Y-121950560D01*
X143818075Y-122012267D01*
X143950093Y-122101314D01*
X144062302Y-122214310D01*
X144150427Y-122346946D01*
X144211105Y-122494166D01*
X144241969Y-122650036D01*
X144241969Y-122650045D01*
X144242035Y-122650379D01*
X144239495Y-122832263D01*
X144239419Y-122832597D01*
X144239419Y-122832609D01*
X144204219Y-122987546D01*
X144139448Y-123133022D01*
X144047657Y-123263145D01*
X143932334Y-123372965D01*
X143797886Y-123458288D01*
X143649420Y-123515875D01*
X143492600Y-123543526D01*
X143333393Y-123540192D01*
X143177861Y-123505996D01*
X143031939Y-123442244D01*
X142901179Y-123351363D01*
X142790558Y-123236812D01*
X142704298Y-123102963D01*
X142645677Y-122954903D01*
X142616930Y-122798272D01*
X142619154Y-122639048D01*
X142652261Y-122483289D01*
X142714995Y-122336922D01*
X142804961Y-122205530D01*
X142918736Y-122094112D01*
X143051982Y-122006918D01*
X143199629Y-121947265D01*
X143356047Y-121917427D01*
X143515288Y-121918539D01*
X143515288Y-121918539D01*
G37*
G36*
X134871500Y-120629500D02*
X133628500Y-120629500D01*
X133628500Y-119894500D01*
X134871500Y-119894500D01*
X134871500Y-120629500D01*
X134871500Y-120629500D01*
G37*
G36*
X132871500Y-120629500D02*
X131628500Y-120629500D01*
X131628500Y-119894500D01*
X132871500Y-119894500D01*
X132871500Y-120629500D01*
X132871500Y-120629500D01*
G37*
G36*
X128621500Y-120629500D02*
X127378500Y-120629500D01*
X127378500Y-119894500D01*
X128621500Y-119894500D01*
X128621500Y-120629500D01*
X128621500Y-120629500D01*
G37*
G36*
X130621500Y-120629500D02*
X129378500Y-120629500D01*
X129378500Y-119894500D01*
X130621500Y-119894500D01*
X130621500Y-120629500D01*
X130621500Y-120629500D01*
G37*
G36*
X124371500Y-120629500D02*
X123128500Y-120629500D01*
X123128500Y-119894500D01*
X124371500Y-119894500D01*
X124371500Y-120629500D01*
X124371500Y-120629500D01*
G37*
G36*
X126371500Y-120629500D02*
X125128500Y-120629500D01*
X125128500Y-119894500D01*
X126371500Y-119894500D01*
X126371500Y-120629500D01*
X126371500Y-120629500D01*
G37*
G36*
X97095215Y-116867320D02*
X97360994Y-116921877D01*
X97611109Y-117027016D01*
X97836046Y-117178737D01*
X98027224Y-117371254D01*
X98177371Y-117597243D01*
X98280761Y-117848087D01*
X98333393Y-118113897D01*
X98333393Y-118113907D01*
X98333459Y-118114241D01*
X98329132Y-118424138D01*
X98329056Y-118424472D01*
X98329056Y-118424483D01*
X98269024Y-118688713D01*
X98158669Y-118936576D01*
X98002273Y-119158282D01*
X97805787Y-119345392D01*
X97576709Y-119490769D01*
X97323751Y-119588886D01*
X97056557Y-119635999D01*
X96785298Y-119630317D01*
X96520302Y-119572054D01*
X96271679Y-119463433D01*
X96048887Y-119308588D01*
X95860411Y-119113416D01*
X95713438Y-118885358D01*
X95613558Y-118633092D01*
X95564579Y-118366226D01*
X95568368Y-118094935D01*
X95624777Y-117829549D01*
X95731662Y-117580168D01*
X95884948Y-117356300D01*
X96078799Y-117166466D01*
X96305828Y-117017902D01*
X96557390Y-116916265D01*
X96823900Y-116865425D01*
X97095215Y-116867320D01*
X97095215Y-116867320D01*
G37*
G36*
X91995415Y-116867320D02*
X92261194Y-116921877D01*
X92511309Y-117027016D01*
X92736246Y-117178737D01*
X92927424Y-117371254D01*
X93077571Y-117597243D01*
X93180961Y-117848087D01*
X93233593Y-118113897D01*
X93233593Y-118113907D01*
X93233659Y-118114241D01*
X93229332Y-118424138D01*
X93229256Y-118424472D01*
X93229256Y-118424483D01*
X93169224Y-118688713D01*
X93058869Y-118936576D01*
X92902473Y-119158282D01*
X92705987Y-119345392D01*
X92476909Y-119490769D01*
X92223951Y-119588886D01*
X91956757Y-119635999D01*
X91685498Y-119630317D01*
X91420502Y-119572054D01*
X91171879Y-119463433D01*
X90949087Y-119308588D01*
X90760611Y-119113416D01*
X90613638Y-118885358D01*
X90513758Y-118633092D01*
X90464779Y-118366226D01*
X90468568Y-118094935D01*
X90524977Y-117829549D01*
X90631862Y-117580168D01*
X90785148Y-117356300D01*
X90978999Y-117166466D01*
X91206028Y-117017902D01*
X91457590Y-116916265D01*
X91724100Y-116865425D01*
X91995415Y-116867320D01*
X91995415Y-116867320D01*
G37*
G36*
X124371500Y-119105500D02*
X123128500Y-119105500D01*
X123128500Y-118370500D01*
X124371500Y-118370500D01*
X124371500Y-119105500D01*
X124371500Y-119105500D01*
G37*
G36*
X126371500Y-119105500D02*
X125128500Y-119105500D01*
X125128500Y-118370500D01*
X126371500Y-118370500D01*
X126371500Y-119105500D01*
X126371500Y-119105500D01*
G37*
G36*
X132871500Y-119105500D02*
X131628500Y-119105500D01*
X131628500Y-118370500D01*
X132871500Y-118370500D01*
X132871500Y-119105500D01*
X132871500Y-119105500D01*
G37*
G36*
X128621500Y-119105500D02*
X127378500Y-119105500D01*
X127378500Y-118370500D01*
X128621500Y-118370500D01*
X128621500Y-119105500D01*
X128621500Y-119105500D01*
G37*
G36*
X130621500Y-119105500D02*
X129378500Y-119105500D01*
X129378500Y-118370500D01*
X130621500Y-118370500D01*
X130621500Y-119105500D01*
X130621500Y-119105500D01*
G37*
G36*
X134871500Y-119105500D02*
X133628500Y-119105500D01*
X133628500Y-118370500D01*
X134871500Y-118370500D01*
X134871500Y-119105500D01*
X134871500Y-119105500D01*
G37*
G36*
X94505297Y-114698166D02*
X94697884Y-114737698D01*
X94879120Y-114813883D01*
X95042113Y-114923823D01*
X95180642Y-115063322D01*
X95289442Y-115227079D01*
X95364357Y-115408839D01*
X95402478Y-115601356D01*
X95402478Y-115601371D01*
X95402543Y-115601700D01*
X95399408Y-115826255D01*
X95399332Y-115826589D01*
X95399332Y-115826601D01*
X95355855Y-116017968D01*
X95275889Y-116197573D01*
X95162563Y-116358224D01*
X95020185Y-116493808D01*
X94854194Y-116599149D01*
X94670897Y-116670246D01*
X94477286Y-116704384D01*
X94280728Y-116700267D01*
X94088709Y-116658049D01*
X93908556Y-116579342D01*
X93747112Y-116467136D01*
X93610542Y-116325714D01*
X93504044Y-116160462D01*
X93431670Y-115977666D01*
X93396179Y-115784290D01*
X93398925Y-115587710D01*
X93439799Y-115395409D01*
X93517250Y-115214704D01*
X93628323Y-115052486D01*
X93768790Y-114914930D01*
X93933297Y-114807279D01*
X94115583Y-114733631D01*
X94308698Y-114696793D01*
X94505297Y-114698166D01*
X94505297Y-114698166D01*
G37*
G36*
X91995415Y-111767520D02*
X92261194Y-111822077D01*
X92511309Y-111927216D01*
X92736246Y-112078937D01*
X92927424Y-112271454D01*
X93077571Y-112497443D01*
X93180961Y-112748287D01*
X93233593Y-113014097D01*
X93233593Y-113014107D01*
X93233659Y-113014441D01*
X93229332Y-113324338D01*
X93229256Y-113324672D01*
X93229256Y-113324683D01*
X93169224Y-113588913D01*
X93058869Y-113836776D01*
X92902473Y-114058482D01*
X92705987Y-114245592D01*
X92476909Y-114390969D01*
X92223951Y-114489086D01*
X91956757Y-114536199D01*
X91685498Y-114530517D01*
X91420502Y-114472254D01*
X91171879Y-114363633D01*
X90949087Y-114208788D01*
X90760611Y-114013616D01*
X90613638Y-113785558D01*
X90513758Y-113533292D01*
X90464779Y-113266426D01*
X90468568Y-112995135D01*
X90524977Y-112729749D01*
X90631862Y-112480368D01*
X90785148Y-112256500D01*
X90978999Y-112066666D01*
X91206028Y-111918102D01*
X91457590Y-111816465D01*
X91724100Y-111765625D01*
X91995415Y-111767520D01*
X91995415Y-111767520D01*
G37*
G36*
X97095215Y-111767520D02*
X97360994Y-111822077D01*
X97611109Y-111927216D01*
X97836046Y-112078937D01*
X98027224Y-112271454D01*
X98177371Y-112497443D01*
X98280761Y-112748287D01*
X98333393Y-113014097D01*
X98333393Y-113014107D01*
X98333459Y-113014441D01*
X98329132Y-113324338D01*
X98329056Y-113324672D01*
X98329056Y-113324683D01*
X98269024Y-113588913D01*
X98158669Y-113836776D01*
X98002273Y-114058482D01*
X97805787Y-114245592D01*
X97576709Y-114390969D01*
X97323751Y-114489086D01*
X97056557Y-114536199D01*
X96785298Y-114530517D01*
X96520302Y-114472254D01*
X96271679Y-114363633D01*
X96048887Y-114208788D01*
X95860411Y-114013616D01*
X95713438Y-113785558D01*
X95613558Y-113533292D01*
X95564579Y-113266426D01*
X95568368Y-112995135D01*
X95624777Y-112729749D01*
X95731662Y-112480368D01*
X95884948Y-112256500D01*
X96078799Y-112066666D01*
X96305828Y-111918102D01*
X96557390Y-111816465D01*
X96823900Y-111765625D01*
X97095215Y-111767520D01*
X97095215Y-111767520D01*
G37*
G36*
X130451500Y-112279500D02*
X129208500Y-112279500D01*
X129208500Y-111544500D01*
X130451500Y-111544500D01*
X130451500Y-112279500D01*
X130451500Y-112279500D01*
G37*
G36*
X136831500Y-112269500D02*
X135588500Y-112269500D01*
X135588500Y-111534500D01*
X136831500Y-111534500D01*
X136831500Y-112269500D01*
X136831500Y-112269500D01*
G37*
G36*
X139501500Y-112229500D02*
X138258500Y-112229500D01*
X138258500Y-111494500D01*
X139501500Y-111494500D01*
X139501500Y-112229500D01*
X139501500Y-112229500D01*
G37*
G36*
X141511500Y-112199500D02*
X140268500Y-112199500D01*
X140268500Y-111464500D01*
X141511500Y-111464500D01*
X141511500Y-112199500D01*
X141511500Y-112199500D01*
G37*
G36*
X130451500Y-110755500D02*
X129208500Y-110755500D01*
X129208500Y-110020500D01*
X130451500Y-110020500D01*
X130451500Y-110755500D01*
X130451500Y-110755500D01*
G37*
G36*
X136831500Y-110745500D02*
X135588500Y-110745500D01*
X135588500Y-110010500D01*
X136831500Y-110010500D01*
X136831500Y-110745500D01*
X136831500Y-110745500D01*
G37*
G36*
X139501500Y-110705500D02*
X138258500Y-110705500D01*
X138258500Y-109970500D01*
X139501500Y-109970500D01*
X139501500Y-110705500D01*
X139501500Y-110705500D01*
G37*
G36*
X141511500Y-110675500D02*
X140268500Y-110675500D01*
X140268500Y-109940500D01*
X141511500Y-109940500D01*
X141511500Y-110675500D01*
X141511500Y-110675500D01*
G37*
G36*
X147229500Y-110271500D02*
X146494500Y-110271500D01*
X146494500Y-109028500D01*
X147229500Y-109028500D01*
X147229500Y-110271500D01*
X147229500Y-110271500D01*
G37*
G36*
X122705500Y-110271500D02*
X121970500Y-110271500D01*
X121970500Y-109028500D01*
X122705500Y-109028500D01*
X122705500Y-110271500D01*
X122705500Y-110271500D01*
G37*
G36*
X124229500Y-110271500D02*
X123494500Y-110271500D01*
X123494500Y-109028500D01*
X124229500Y-109028500D01*
X124229500Y-110271500D01*
X124229500Y-110271500D01*
G37*
G36*
X145705500Y-110271500D02*
X144970500Y-110271500D01*
X144970500Y-109028500D01*
X145705500Y-109028500D01*
X145705500Y-110271500D01*
X145705500Y-110271500D01*
G37*
G36*
X120989500Y-109781500D02*
X120254500Y-109781500D01*
X120254500Y-108538500D01*
X120989500Y-108538500D01*
X120989500Y-109781500D01*
X120989500Y-109781500D01*
G37*
G36*
X119465500Y-109781500D02*
X118730500Y-109781500D01*
X118730500Y-108538500D01*
X119465500Y-108538500D01*
X119465500Y-109781500D01*
X119465500Y-109781500D01*
G37*
G36*
X127113500Y-108571500D02*
X126378500Y-108571500D01*
X126378500Y-107328500D01*
X127113500Y-107328500D01*
X127113500Y-108571500D01*
X127113500Y-108571500D01*
G37*
G36*
X128637500Y-108571500D02*
X127902500Y-108571500D01*
X127902500Y-107328500D01*
X128637500Y-107328500D01*
X128637500Y-108571500D01*
X128637500Y-108571500D01*
G37*
G36*
X141337500Y-108317500D02*
X140602500Y-108317500D01*
X140602500Y-107074500D01*
X141337500Y-107074500D01*
X141337500Y-108317500D01*
X141337500Y-108317500D01*
G37*
G36*
X142861500Y-108317500D02*
X142126500Y-108317500D01*
X142126500Y-107074500D01*
X142861500Y-107074500D01*
X142861500Y-108317500D01*
X142861500Y-108317500D01*
G37*
G36*
X120949500Y-108051500D02*
X120214500Y-108051500D01*
X120214500Y-106808500D01*
X120949500Y-106808500D01*
X120949500Y-108051500D01*
X120949500Y-108051500D01*
G37*
G36*
X119425500Y-108051500D02*
X118690500Y-108051500D01*
X118690500Y-106808500D01*
X119425500Y-106808500D01*
X119425500Y-108051500D01*
X119425500Y-108051500D01*
G37*
G36*
X139305500Y-107301500D02*
X138062500Y-107301500D01*
X138062500Y-106566500D01*
X139305500Y-106566500D01*
X139305500Y-107301500D01*
X139305500Y-107301500D01*
G37*
G36*
X137019500Y-107301500D02*
X135776500Y-107301500D01*
X135776500Y-106566500D01*
X137019500Y-106566500D01*
X137019500Y-107301500D01*
X137019500Y-107301500D01*
G37*
G36*
X134733500Y-107301500D02*
X133490500Y-107301500D01*
X133490500Y-106566500D01*
X134733500Y-106566500D01*
X134733500Y-107301500D01*
X134733500Y-107301500D01*
G37*
G36*
X132447500Y-107301500D02*
X131204500Y-107301500D01*
X131204500Y-106566500D01*
X132447500Y-106566500D01*
X132447500Y-107301500D01*
X132447500Y-107301500D01*
G37*
G36*
X145755500Y-107131500D02*
X145020500Y-107131500D01*
X145020500Y-105888500D01*
X145755500Y-105888500D01*
X145755500Y-107131500D01*
X145755500Y-107131500D01*
G37*
G36*
X147279500Y-107131500D02*
X146544500Y-107131500D01*
X146544500Y-105888500D01*
X147279500Y-105888500D01*
X147279500Y-107131500D01*
X147279500Y-107131500D01*
G37*
G36*
X120899500Y-106321500D02*
X120164500Y-106321500D01*
X120164500Y-105078500D01*
X120899500Y-105078500D01*
X120899500Y-106321500D01*
X120899500Y-106321500D01*
G37*
G36*
X119375500Y-106321500D02*
X118640500Y-106321500D01*
X118640500Y-105078500D01*
X119375500Y-105078500D01*
X119375500Y-106321500D01*
X119375500Y-106321500D01*
G37*
G36*
X149475500Y-105871500D02*
X148740500Y-105871500D01*
X148740500Y-104628500D01*
X149475500Y-104628500D01*
X149475500Y-105871500D01*
X149475500Y-105871500D01*
G37*
G36*
X150999500Y-105871500D02*
X150264500Y-105871500D01*
X150264500Y-104628500D01*
X150999500Y-104628500D01*
X150999500Y-105871500D01*
X150999500Y-105871500D01*
G37*
G36*
X134733500Y-105777500D02*
X133490500Y-105777500D01*
X133490500Y-105042500D01*
X134733500Y-105042500D01*
X134733500Y-105777500D01*
X134733500Y-105777500D01*
G37*
G36*
X132447500Y-105777500D02*
X131204500Y-105777500D01*
X131204500Y-105042500D01*
X132447500Y-105042500D01*
X132447500Y-105777500D01*
X132447500Y-105777500D01*
G37*
G36*
X139305500Y-105777500D02*
X138062500Y-105777500D01*
X138062500Y-105042500D01*
X139305500Y-105042500D01*
X139305500Y-105777500D01*
X139305500Y-105777500D01*
G37*
G36*
X137019500Y-105777500D02*
X135776500Y-105777500D01*
X135776500Y-105042500D01*
X137019500Y-105042500D01*
X137019500Y-105777500D01*
X137019500Y-105777500D01*
G37*
G36*
X150999500Y-103981500D02*
X150264500Y-103981500D01*
X150264500Y-102738500D01*
X150999500Y-102738500D01*
X150999500Y-103981500D01*
X150999500Y-103981500D01*
G37*
G36*
X149475500Y-103981500D02*
X148740500Y-103981500D01*
X148740500Y-102738500D01*
X149475500Y-102738500D01*
X149475500Y-103981500D01*
X149475500Y-103981500D01*
G37*
G36*
X127621500Y-103745500D02*
X126886500Y-103745500D01*
X126886500Y-102502500D01*
X127621500Y-102502500D01*
X127621500Y-103745500D01*
X127621500Y-103745500D01*
G37*
G36*
X129145500Y-103745500D02*
X128410500Y-103745500D01*
X128410500Y-102502500D01*
X129145500Y-102502500D01*
X129145500Y-103745500D01*
X129145500Y-103745500D01*
G37*
G36*
X140575500Y-103491500D02*
X139840500Y-103491500D01*
X139840500Y-102248500D01*
X140575500Y-102248500D01*
X140575500Y-103491500D01*
X140575500Y-103491500D01*
G37*
G36*
X142099500Y-103491500D02*
X141364500Y-103491500D01*
X141364500Y-102248500D01*
X142099500Y-102248500D01*
X142099500Y-103491500D01*
X142099500Y-103491500D01*
G37*
G36*
X113795803Y-100146030D02*
X114093567Y-100207153D01*
X114373784Y-100324945D01*
X114625788Y-100494923D01*
X114839979Y-100710615D01*
X115008194Y-100963798D01*
X115124027Y-101244830D01*
X115183001Y-101542671D01*
X115183001Y-101542681D01*
X115183067Y-101543015D01*
X115178219Y-101890207D01*
X115178142Y-101890545D01*
X115178142Y-101890553D01*
X115110878Y-102186622D01*
X114987241Y-102464315D01*
X114812023Y-102712703D01*
X114591891Y-102922331D01*
X114335244Y-103085204D01*
X114051843Y-103195129D01*
X113752492Y-103247912D01*
X113448588Y-103241546D01*
X113151703Y-103176272D01*
X112873161Y-103054579D01*
X112623549Y-102881095D01*
X112412394Y-102662437D01*
X112247733Y-102406934D01*
X112135833Y-102124308D01*
X112080960Y-101825325D01*
X112085205Y-101521385D01*
X112148402Y-101224061D01*
X112268151Y-100944667D01*
X112439884Y-100693857D01*
X112657065Y-100481178D01*
X112911416Y-100314735D01*
X113193253Y-100200866D01*
X113491836Y-100143908D01*
X113795803Y-100146030D01*
X113795803Y-100146030D01*
G37*
G36*
X136151511Y-98760198D02*
X136209143Y-98772027D01*
X136263377Y-98794825D01*
X136312153Y-98827725D01*
X136353613Y-98869476D01*
X136386168Y-98918475D01*
X136408588Y-98972868D01*
X136419948Y-99030239D01*
X136419948Y-99030254D01*
X136420013Y-99030583D01*
X136419468Y-99069646D01*
X136421189Y-99083104D01*
X136426791Y-99096010D01*
X136435767Y-99106844D01*
X136447406Y-99114749D01*
X136460786Y-99119099D01*
X136478768Y-99118960D01*
X136533301Y-99108557D01*
X136935320Y-99111364D01*
X137329137Y-99192203D01*
X137699747Y-99347993D01*
X138033045Y-99572805D01*
X138316324Y-99858068D01*
X138538805Y-100192928D01*
X138692001Y-100564613D01*
X138770022Y-100958643D01*
X138770022Y-100958653D01*
X138770088Y-100958987D01*
X138763676Y-101418176D01*
X138763600Y-101418510D01*
X138763600Y-101418522D01*
X138674611Y-101810210D01*
X138511091Y-102177481D01*
X138279351Y-102505994D01*
X137988211Y-102783243D01*
X137648773Y-102998656D01*
X137273953Y-103144040D01*
X136878038Y-103213850D01*
X136476100Y-103205431D01*
X136083445Y-103119100D01*
X135715048Y-102958151D01*
X135384925Y-102728709D01*
X135105652Y-102439514D01*
X134887873Y-102101588D01*
X134739877Y-101727793D01*
X134667303Y-101332367D01*
X134672917Y-100930384D01*
X134674993Y-100920616D01*
X134675953Y-100906579D01*
X134672965Y-100892830D01*
X134666265Y-100880459D01*
X134656383Y-100870443D01*
X134644102Y-100863578D01*
X134627132Y-100860230D01*
X134584309Y-100859334D01*
X134526845Y-100846699D01*
X134472936Y-100823147D01*
X134424619Y-100789566D01*
X134383751Y-100747246D01*
X134351883Y-100697797D01*
X134330224Y-100643093D01*
X134319603Y-100585222D01*
X134320425Y-100526397D01*
X134332656Y-100468851D01*
X134355834Y-100414773D01*
X134389073Y-100366229D01*
X134431109Y-100325065D01*
X134480336Y-100292851D01*
X134534889Y-100270810D01*
X134592675Y-100259786D01*
X134651511Y-100260198D01*
X134709143Y-100272027D01*
X134763380Y-100294827D01*
X134788504Y-100311773D01*
X134801159Y-100317921D01*
X134815026Y-100320300D01*
X134829007Y-100318722D01*
X134841994Y-100313311D01*
X134852960Y-100304496D01*
X134862420Y-100290018D01*
X134914878Y-100167625D01*
X135142009Y-99835909D01*
X135429247Y-99554623D01*
X135765647Y-99334490D01*
X135847924Y-99301248D01*
X135860098Y-99294195D01*
X135869825Y-99284029D01*
X135876334Y-99271556D01*
X135879111Y-99257763D01*
X135877936Y-99243742D01*
X135871222Y-99227803D01*
X135851882Y-99197794D01*
X135830224Y-99143093D01*
X135819603Y-99085222D01*
X135820425Y-99026397D01*
X135832656Y-98968851D01*
X135855834Y-98914773D01*
X135889073Y-98866229D01*
X135931109Y-98825065D01*
X135980336Y-98792851D01*
X136034889Y-98770810D01*
X136092675Y-98759786D01*
X136151511Y-98760198D01*
X136151511Y-98760198D01*
G37*
G36*
X108664511Y-102395198D02*
X108722143Y-102407027D01*
X108776377Y-102429825D01*
X108825153Y-102462725D01*
X108866613Y-102504476D01*
X108899168Y-102553475D01*
X108921588Y-102607868D01*
X108932948Y-102665239D01*
X108932948Y-102665254D01*
X108933013Y-102665583D01*
X108932075Y-102732782D01*
X108931999Y-102733116D01*
X108931999Y-102733127D01*
X108919043Y-102790153D01*
X108895112Y-102843902D01*
X108861203Y-102891973D01*
X108818590Y-102932552D01*
X108768921Y-102964073D01*
X108714067Y-102985349D01*
X108656129Y-102995565D01*
X108597309Y-102994334D01*
X108539845Y-102981699D01*
X108485936Y-102958147D01*
X108437619Y-102924566D01*
X108396751Y-102882246D01*
X108364883Y-102832797D01*
X108343224Y-102778093D01*
X108332603Y-102720222D01*
X108333425Y-102661397D01*
X108345656Y-102603851D01*
X108368834Y-102549773D01*
X108402073Y-102501229D01*
X108444109Y-102460065D01*
X108493336Y-102427851D01*
X108547889Y-102405810D01*
X108605675Y-102394786D01*
X108664511Y-102395198D01*
X108664511Y-102395198D01*
G37*
G36*
X110164511Y-102395198D02*
X110222143Y-102407027D01*
X110276377Y-102429825D01*
X110325153Y-102462725D01*
X110366613Y-102504476D01*
X110399168Y-102553475D01*
X110421588Y-102607868D01*
X110432948Y-102665239D01*
X110432948Y-102665254D01*
X110433013Y-102665583D01*
X110432075Y-102732782D01*
X110431999Y-102733116D01*
X110431999Y-102733127D01*
X110419043Y-102790153D01*
X110395112Y-102843902D01*
X110361203Y-102891973D01*
X110318590Y-102932552D01*
X110268921Y-102964073D01*
X110214067Y-102985349D01*
X110156129Y-102995565D01*
X110097309Y-102994334D01*
X110039845Y-102981699D01*
X109985936Y-102958147D01*
X109937619Y-102924566D01*
X109896751Y-102882246D01*
X109864883Y-102832797D01*
X109843224Y-102778093D01*
X109832603Y-102720222D01*
X109833425Y-102661397D01*
X109845656Y-102603851D01*
X109868834Y-102549773D01*
X109902073Y-102501229D01*
X109944109Y-102460065D01*
X109993336Y-102427851D01*
X110047889Y-102405810D01*
X110105675Y-102394786D01*
X110164511Y-102395198D01*
X110164511Y-102395198D01*
G37*
G36*
X111664511Y-102395198D02*
X111722143Y-102407027D01*
X111776377Y-102429825D01*
X111825153Y-102462725D01*
X111866613Y-102504476D01*
X111899168Y-102553475D01*
X111921588Y-102607868D01*
X111932948Y-102665239D01*
X111932948Y-102665254D01*
X111933013Y-102665583D01*
X111932075Y-102732782D01*
X111931999Y-102733116D01*
X111931999Y-102733127D01*
X111919043Y-102790153D01*
X111895112Y-102843902D01*
X111861203Y-102891973D01*
X111818590Y-102932552D01*
X111768921Y-102964073D01*
X111714067Y-102985349D01*
X111656129Y-102995565D01*
X111597309Y-102994334D01*
X111539845Y-102981699D01*
X111485936Y-102958147D01*
X111437619Y-102924566D01*
X111396751Y-102882246D01*
X111364883Y-102832797D01*
X111343224Y-102778093D01*
X111332603Y-102720222D01*
X111333425Y-102661397D01*
X111345656Y-102603851D01*
X111368834Y-102549773D01*
X111402073Y-102501229D01*
X111444109Y-102460065D01*
X111493336Y-102427851D01*
X111547889Y-102405810D01*
X111605675Y-102394786D01*
X111664511Y-102395198D01*
X111664511Y-102395198D01*
G37*
G36*
X149445500Y-102001500D02*
X148710500Y-102001500D01*
X148710500Y-100758500D01*
X149445500Y-100758500D01*
X149445500Y-102001500D01*
X149445500Y-102001500D01*
G37*
G36*
X150969500Y-102001500D02*
X150234500Y-102001500D01*
X150234500Y-100758500D01*
X150969500Y-100758500D01*
X150969500Y-102001500D01*
X150969500Y-102001500D01*
G37*
G36*
X127621500Y-101713500D02*
X126886500Y-101713500D01*
X126886500Y-100470500D01*
X127621500Y-100470500D01*
X127621500Y-101713500D01*
X127621500Y-101713500D01*
G37*
G36*
X129145500Y-101713500D02*
X128410500Y-101713500D01*
X128410500Y-100470500D01*
X129145500Y-100470500D01*
X129145500Y-101713500D01*
X129145500Y-101713500D01*
G37*
G36*
X110164511Y-100895198D02*
X110222143Y-100907027D01*
X110276377Y-100929825D01*
X110325153Y-100962725D01*
X110366613Y-101004476D01*
X110399168Y-101053475D01*
X110421588Y-101107868D01*
X110432948Y-101165239D01*
X110432948Y-101165254D01*
X110433013Y-101165583D01*
X110432075Y-101232782D01*
X110431999Y-101233116D01*
X110431999Y-101233127D01*
X110419043Y-101290153D01*
X110395112Y-101343902D01*
X110361203Y-101391973D01*
X110318590Y-101432552D01*
X110268921Y-101464073D01*
X110214067Y-101485349D01*
X110156129Y-101495565D01*
X110097309Y-101494334D01*
X110039845Y-101481699D01*
X109985936Y-101458147D01*
X109937619Y-101424566D01*
X109896751Y-101382246D01*
X109864883Y-101332797D01*
X109843224Y-101278093D01*
X109832603Y-101220222D01*
X109833425Y-101161397D01*
X109845656Y-101103851D01*
X109868834Y-101049773D01*
X109902073Y-101001229D01*
X109944109Y-100960065D01*
X109993336Y-100927851D01*
X110047889Y-100905810D01*
X110105675Y-100894786D01*
X110164511Y-100895198D01*
X110164511Y-100895198D01*
G37*
G36*
X111664511Y-100895198D02*
X111722143Y-100907027D01*
X111776377Y-100929825D01*
X111825153Y-100962725D01*
X111866613Y-101004476D01*
X111899168Y-101053475D01*
X111921588Y-101107868D01*
X111932948Y-101165239D01*
X111932948Y-101165254D01*
X111933013Y-101165583D01*
X111932075Y-101232782D01*
X111931999Y-101233116D01*
X111931999Y-101233127D01*
X111919043Y-101290153D01*
X111895112Y-101343902D01*
X111861203Y-101391973D01*
X111818590Y-101432552D01*
X111768921Y-101464073D01*
X111714067Y-101485349D01*
X111656129Y-101495565D01*
X111597309Y-101494334D01*
X111539845Y-101481699D01*
X111485936Y-101458147D01*
X111437619Y-101424566D01*
X111396751Y-101382246D01*
X111364883Y-101332797D01*
X111343224Y-101278093D01*
X111332603Y-101220222D01*
X111333425Y-101161397D01*
X111345656Y-101103851D01*
X111368834Y-101049773D01*
X111402073Y-101001229D01*
X111444109Y-100960065D01*
X111493336Y-100927851D01*
X111547889Y-100905810D01*
X111605675Y-100894786D01*
X111664511Y-100895198D01*
X111664511Y-100895198D01*
G37*
G36*
X108664511Y-100895198D02*
X108722143Y-100907027D01*
X108776377Y-100929825D01*
X108825153Y-100962725D01*
X108866613Y-101004476D01*
X108899168Y-101053475D01*
X108921588Y-101107868D01*
X108932948Y-101165239D01*
X108932948Y-101165254D01*
X108933013Y-101165583D01*
X108932075Y-101232782D01*
X108931999Y-101233116D01*
X108931999Y-101233127D01*
X108919043Y-101290153D01*
X108895112Y-101343902D01*
X108861203Y-101391973D01*
X108818590Y-101432552D01*
X108768921Y-101464073D01*
X108714067Y-101485349D01*
X108656129Y-101495565D01*
X108597309Y-101494334D01*
X108539845Y-101481699D01*
X108485936Y-101458147D01*
X108437619Y-101424566D01*
X108396751Y-101382246D01*
X108364883Y-101332797D01*
X108343224Y-101278093D01*
X108332603Y-101220222D01*
X108333425Y-101161397D01*
X108345656Y-101103851D01*
X108368834Y-101049773D01*
X108402073Y-101001229D01*
X108444109Y-100960065D01*
X108493336Y-100927851D01*
X108547889Y-100905810D01*
X108605675Y-100894786D01*
X108664511Y-100895198D01*
X108664511Y-100895198D01*
G37*
G36*
X140575500Y-101459500D02*
X139840500Y-101459500D01*
X139840500Y-100216500D01*
X140575500Y-100216500D01*
X140575500Y-101459500D01*
X140575500Y-101459500D01*
G37*
G36*
X142099500Y-101459500D02*
X141364500Y-101459500D01*
X141364500Y-100216500D01*
X142099500Y-100216500D01*
X142099500Y-101459500D01*
X142099500Y-101459500D01*
G37*
G36*
X122835500Y-101091500D02*
X122100500Y-101091500D01*
X122100500Y-99848500D01*
X122835500Y-99848500D01*
X122835500Y-101091500D01*
X122835500Y-101091500D01*
G37*
G36*
X124359500Y-101091500D02*
X123624500Y-101091500D01*
X123624500Y-99848500D01*
X124359500Y-99848500D01*
X124359500Y-101091500D01*
X124359500Y-101091500D01*
G37*
G36*
X145655500Y-100951500D02*
X144920500Y-100951500D01*
X144920500Y-99708500D01*
X145655500Y-99708500D01*
X145655500Y-100951500D01*
X145655500Y-100951500D01*
G37*
G36*
X147179500Y-100951500D02*
X146444500Y-100951500D01*
X146444500Y-99708500D01*
X147179500Y-99708500D01*
X147179500Y-100951500D01*
X147179500Y-100951500D01*
G37*
G36*
X133151511Y-100260198D02*
X133209143Y-100272027D01*
X133263377Y-100294825D01*
X133312153Y-100327725D01*
X133353613Y-100369476D01*
X133386168Y-100418475D01*
X133408588Y-100472868D01*
X133419948Y-100530239D01*
X133419948Y-100530254D01*
X133420013Y-100530583D01*
X133419075Y-100597782D01*
X133418999Y-100598116D01*
X133418999Y-100598127D01*
X133406043Y-100655153D01*
X133382112Y-100708902D01*
X133348203Y-100756973D01*
X133305590Y-100797552D01*
X133255921Y-100829073D01*
X133201067Y-100850349D01*
X133143129Y-100860565D01*
X133084309Y-100859334D01*
X133026845Y-100846699D01*
X132972936Y-100823147D01*
X132924619Y-100789566D01*
X132883751Y-100747246D01*
X132851883Y-100697797D01*
X132830224Y-100643093D01*
X132819603Y-100585222D01*
X132820425Y-100526397D01*
X132832656Y-100468851D01*
X132855834Y-100414773D01*
X132889073Y-100366229D01*
X132931109Y-100325065D01*
X132980336Y-100292851D01*
X133034889Y-100270810D01*
X133092675Y-100259786D01*
X133151511Y-100260198D01*
X133151511Y-100260198D01*
G37*
G36*
X108664511Y-99395198D02*
X108722143Y-99407027D01*
X108776377Y-99429825D01*
X108825153Y-99462725D01*
X108866613Y-99504476D01*
X108899168Y-99553475D01*
X108921588Y-99607868D01*
X108932948Y-99665239D01*
X108932948Y-99665254D01*
X108933013Y-99665583D01*
X108932075Y-99732782D01*
X108931999Y-99733116D01*
X108931999Y-99733127D01*
X108919043Y-99790153D01*
X108895112Y-99843902D01*
X108861203Y-99891973D01*
X108818590Y-99932552D01*
X108768921Y-99964073D01*
X108714067Y-99985349D01*
X108656129Y-99995565D01*
X108597309Y-99994334D01*
X108539845Y-99981699D01*
X108485936Y-99958147D01*
X108437619Y-99924566D01*
X108396751Y-99882246D01*
X108364883Y-99832797D01*
X108343224Y-99778093D01*
X108332603Y-99720222D01*
X108333425Y-99661397D01*
X108345656Y-99603851D01*
X108368834Y-99549773D01*
X108402073Y-99501229D01*
X108444109Y-99460065D01*
X108493336Y-99427851D01*
X108547889Y-99405810D01*
X108605675Y-99394786D01*
X108664511Y-99395198D01*
X108664511Y-99395198D01*
G37*
G36*
X110164511Y-99395198D02*
X110222143Y-99407027D01*
X110276377Y-99429825D01*
X110325153Y-99462725D01*
X110366613Y-99504476D01*
X110399168Y-99553475D01*
X110421588Y-99607868D01*
X110432948Y-99665239D01*
X110432948Y-99665254D01*
X110433013Y-99665583D01*
X110432075Y-99732782D01*
X110431999Y-99733116D01*
X110431999Y-99733127D01*
X110419043Y-99790153D01*
X110395112Y-99843902D01*
X110361203Y-99891973D01*
X110318590Y-99932552D01*
X110268921Y-99964073D01*
X110214067Y-99985349D01*
X110156129Y-99995565D01*
X110097309Y-99994334D01*
X110039845Y-99981699D01*
X109985936Y-99958147D01*
X109937619Y-99924566D01*
X109896751Y-99882246D01*
X109864883Y-99832797D01*
X109843224Y-99778093D01*
X109832603Y-99720222D01*
X109833425Y-99661397D01*
X109845656Y-99603851D01*
X109868834Y-99549773D01*
X109902073Y-99501229D01*
X109944109Y-99460065D01*
X109993336Y-99427851D01*
X110047889Y-99405810D01*
X110105675Y-99394786D01*
X110164511Y-99395198D01*
X110164511Y-99395198D01*
G37*
G36*
X111664511Y-99395198D02*
X111722143Y-99407027D01*
X111776377Y-99429825D01*
X111825153Y-99462725D01*
X111866613Y-99504476D01*
X111899168Y-99553475D01*
X111921588Y-99607868D01*
X111932948Y-99665239D01*
X111932948Y-99665254D01*
X111933013Y-99665583D01*
X111932075Y-99732782D01*
X111931999Y-99733116D01*
X111931999Y-99733127D01*
X111919043Y-99790153D01*
X111895112Y-99843902D01*
X111861203Y-99891973D01*
X111818590Y-99932552D01*
X111768921Y-99964073D01*
X111714067Y-99985349D01*
X111656129Y-99995565D01*
X111597309Y-99994334D01*
X111539845Y-99981699D01*
X111485936Y-99958147D01*
X111437619Y-99924566D01*
X111396751Y-99882246D01*
X111364883Y-99832797D01*
X111343224Y-99778093D01*
X111332603Y-99720222D01*
X111333425Y-99661397D01*
X111345656Y-99603851D01*
X111368834Y-99549773D01*
X111402073Y-99501229D01*
X111444109Y-99460065D01*
X111493336Y-99427851D01*
X111547889Y-99405810D01*
X111605675Y-99394786D01*
X111664511Y-99395198D01*
X111664511Y-99395198D01*
G37*
G36*
X113164511Y-99395198D02*
X113222143Y-99407027D01*
X113276377Y-99429825D01*
X113325153Y-99462725D01*
X113366613Y-99504476D01*
X113399168Y-99553475D01*
X113421588Y-99607868D01*
X113432948Y-99665239D01*
X113432948Y-99665254D01*
X113433013Y-99665583D01*
X113432075Y-99732782D01*
X113431999Y-99733116D01*
X113431999Y-99733127D01*
X113419043Y-99790153D01*
X113395112Y-99843902D01*
X113361203Y-99891973D01*
X113318590Y-99932552D01*
X113268921Y-99964073D01*
X113214067Y-99985349D01*
X113156129Y-99995565D01*
X113097309Y-99994334D01*
X113039845Y-99981699D01*
X112985936Y-99958147D01*
X112937619Y-99924566D01*
X112896751Y-99882246D01*
X112864883Y-99832797D01*
X112843224Y-99778093D01*
X112832603Y-99720222D01*
X112833425Y-99661397D01*
X112845656Y-99603851D01*
X112868834Y-99549773D01*
X112902073Y-99501229D01*
X112944109Y-99460065D01*
X112993336Y-99427851D01*
X113047889Y-99405810D01*
X113105675Y-99394786D01*
X113164511Y-99395198D01*
X113164511Y-99395198D01*
G37*
G36*
X114664511Y-99395198D02*
X114722143Y-99407027D01*
X114776377Y-99429825D01*
X114825153Y-99462725D01*
X114866613Y-99504476D01*
X114899168Y-99553475D01*
X114921588Y-99607868D01*
X114932948Y-99665239D01*
X114932948Y-99665254D01*
X114933013Y-99665583D01*
X114932075Y-99732782D01*
X114931999Y-99733116D01*
X114931999Y-99733127D01*
X114919043Y-99790153D01*
X114895112Y-99843902D01*
X114861203Y-99891973D01*
X114818590Y-99932552D01*
X114768921Y-99964073D01*
X114714067Y-99985349D01*
X114656129Y-99995565D01*
X114597309Y-99994334D01*
X114539845Y-99981699D01*
X114485936Y-99958147D01*
X114437619Y-99924566D01*
X114396751Y-99882246D01*
X114364883Y-99832797D01*
X114343224Y-99778093D01*
X114332603Y-99720222D01*
X114333425Y-99661397D01*
X114345656Y-99603851D01*
X114368834Y-99549773D01*
X114402073Y-99501229D01*
X114444109Y-99460065D01*
X114493336Y-99427851D01*
X114547889Y-99405810D01*
X114605675Y-99394786D01*
X114664511Y-99395198D01*
X114664511Y-99395198D01*
G37*
G36*
X129145500Y-99681500D02*
X128410500Y-99681500D01*
X128410500Y-98438500D01*
X129145500Y-98438500D01*
X129145500Y-99681500D01*
X129145500Y-99681500D01*
G37*
G36*
X127621500Y-99681500D02*
X126886500Y-99681500D01*
X126886500Y-98438500D01*
X127621500Y-98438500D01*
X127621500Y-99681500D01*
X127621500Y-99681500D01*
G37*
G36*
X142099500Y-99427500D02*
X141364500Y-99427500D01*
X141364500Y-98184500D01*
X142099500Y-98184500D01*
X142099500Y-99427500D01*
X142099500Y-99427500D01*
G37*
G36*
X140575500Y-99427500D02*
X139840500Y-99427500D01*
X139840500Y-98184500D01*
X140575500Y-98184500D01*
X140575500Y-99427500D01*
X140575500Y-99427500D01*
G37*
G36*
X133151511Y-98760198D02*
X133209143Y-98772027D01*
X133263377Y-98794825D01*
X133312153Y-98827725D01*
X133353613Y-98869476D01*
X133386168Y-98918475D01*
X133408588Y-98972868D01*
X133419948Y-99030239D01*
X133419948Y-99030254D01*
X133420013Y-99030583D01*
X133419075Y-99097782D01*
X133418999Y-99098116D01*
X133418999Y-99098127D01*
X133406043Y-99155153D01*
X133382112Y-99208902D01*
X133348203Y-99256973D01*
X133305590Y-99297552D01*
X133255921Y-99329073D01*
X133201067Y-99350349D01*
X133143129Y-99360565D01*
X133084309Y-99359334D01*
X133026845Y-99346699D01*
X132972936Y-99323147D01*
X132924619Y-99289566D01*
X132883751Y-99247246D01*
X132851883Y-99197797D01*
X132830224Y-99143093D01*
X132819603Y-99085222D01*
X132820425Y-99026397D01*
X132832656Y-98968851D01*
X132855834Y-98914773D01*
X132889073Y-98866229D01*
X132931109Y-98825065D01*
X132980336Y-98792851D01*
X133034889Y-98770810D01*
X133092675Y-98759786D01*
X133151511Y-98760198D01*
X133151511Y-98760198D01*
G37*
G36*
X134651511Y-98760198D02*
X134709143Y-98772027D01*
X134763377Y-98794825D01*
X134812153Y-98827725D01*
X134853613Y-98869476D01*
X134886168Y-98918475D01*
X134908588Y-98972868D01*
X134919948Y-99030239D01*
X134919948Y-99030254D01*
X134920013Y-99030583D01*
X134919075Y-99097782D01*
X134918999Y-99098116D01*
X134918999Y-99098127D01*
X134906043Y-99155153D01*
X134882112Y-99208902D01*
X134848203Y-99256973D01*
X134805590Y-99297552D01*
X134755921Y-99329073D01*
X134701067Y-99350349D01*
X134643129Y-99360565D01*
X134584309Y-99359334D01*
X134526845Y-99346699D01*
X134472936Y-99323147D01*
X134424619Y-99289566D01*
X134383751Y-99247246D01*
X134351883Y-99197797D01*
X134330224Y-99143093D01*
X134319603Y-99085222D01*
X134320425Y-99026397D01*
X134332656Y-98968851D01*
X134355834Y-98914773D01*
X134389073Y-98866229D01*
X134431109Y-98825065D01*
X134480336Y-98792851D01*
X134534889Y-98770810D01*
X134592675Y-98759786D01*
X134651511Y-98760198D01*
X134651511Y-98760198D01*
G37*
G36*
X114664511Y-97895198D02*
X114722143Y-97907027D01*
X114776377Y-97929825D01*
X114825153Y-97962725D01*
X114866613Y-98004476D01*
X114899168Y-98053475D01*
X114921588Y-98107868D01*
X114932948Y-98165239D01*
X114932948Y-98165254D01*
X114933013Y-98165583D01*
X114932075Y-98232782D01*
X114931999Y-98233116D01*
X114931999Y-98233127D01*
X114919043Y-98290153D01*
X114895112Y-98343902D01*
X114861203Y-98391973D01*
X114818590Y-98432552D01*
X114768921Y-98464073D01*
X114714067Y-98485349D01*
X114656129Y-98495565D01*
X114597309Y-98494334D01*
X114539845Y-98481699D01*
X114485936Y-98458147D01*
X114437619Y-98424566D01*
X114396751Y-98382246D01*
X114364883Y-98332797D01*
X114343224Y-98278093D01*
X114332603Y-98220222D01*
X114333425Y-98161397D01*
X114345656Y-98103851D01*
X114368834Y-98049773D01*
X114402073Y-98001229D01*
X114444109Y-97960065D01*
X114493336Y-97927851D01*
X114547889Y-97905810D01*
X114605675Y-97894786D01*
X114664511Y-97895198D01*
X114664511Y-97895198D01*
G37*
G36*
X113164511Y-97895198D02*
X113222143Y-97907027D01*
X113276377Y-97929825D01*
X113325153Y-97962725D01*
X113366613Y-98004476D01*
X113399168Y-98053475D01*
X113421588Y-98107868D01*
X113432948Y-98165239D01*
X113432948Y-98165254D01*
X113433013Y-98165583D01*
X113432075Y-98232782D01*
X113431999Y-98233116D01*
X113431999Y-98233127D01*
X113419043Y-98290153D01*
X113395112Y-98343902D01*
X113361203Y-98391973D01*
X113318590Y-98432552D01*
X113268921Y-98464073D01*
X113214067Y-98485349D01*
X113156129Y-98495565D01*
X113097309Y-98494334D01*
X113039845Y-98481699D01*
X112985936Y-98458147D01*
X112937619Y-98424566D01*
X112896751Y-98382246D01*
X112864883Y-98332797D01*
X112843224Y-98278093D01*
X112832603Y-98220222D01*
X112833425Y-98161397D01*
X112845656Y-98103851D01*
X112868834Y-98049773D01*
X112902073Y-98001229D01*
X112944109Y-97960065D01*
X112993336Y-97927851D01*
X113047889Y-97905810D01*
X113105675Y-97894786D01*
X113164511Y-97895198D01*
X113164511Y-97895198D01*
G37*
G36*
X111664511Y-97895198D02*
X111722143Y-97907027D01*
X111776377Y-97929825D01*
X111825153Y-97962725D01*
X111866613Y-98004476D01*
X111899168Y-98053475D01*
X111921588Y-98107868D01*
X111932948Y-98165239D01*
X111932948Y-98165254D01*
X111933013Y-98165583D01*
X111932075Y-98232782D01*
X111931999Y-98233116D01*
X111931999Y-98233127D01*
X111919043Y-98290153D01*
X111895112Y-98343902D01*
X111861203Y-98391973D01*
X111818590Y-98432552D01*
X111768921Y-98464073D01*
X111714067Y-98485349D01*
X111656129Y-98495565D01*
X111597309Y-98494334D01*
X111539845Y-98481699D01*
X111485936Y-98458147D01*
X111437619Y-98424566D01*
X111396751Y-98382246D01*
X111364883Y-98332797D01*
X111343224Y-98278093D01*
X111332603Y-98220222D01*
X111333425Y-98161397D01*
X111345656Y-98103851D01*
X111368834Y-98049773D01*
X111402073Y-98001229D01*
X111444109Y-97960065D01*
X111493336Y-97927851D01*
X111547889Y-97905810D01*
X111605675Y-97894786D01*
X111664511Y-97895198D01*
X111664511Y-97895198D01*
G37*
G36*
X110164511Y-97895198D02*
X110222143Y-97907027D01*
X110276377Y-97929825D01*
X110325153Y-97962725D01*
X110366613Y-98004476D01*
X110399168Y-98053475D01*
X110421588Y-98107868D01*
X110432948Y-98165239D01*
X110432948Y-98165254D01*
X110433013Y-98165583D01*
X110432075Y-98232782D01*
X110431999Y-98233116D01*
X110431999Y-98233127D01*
X110419043Y-98290153D01*
X110395112Y-98343902D01*
X110361203Y-98391973D01*
X110318590Y-98432552D01*
X110268921Y-98464073D01*
X110214067Y-98485349D01*
X110156129Y-98495565D01*
X110097309Y-98494334D01*
X110039845Y-98481699D01*
X109985936Y-98458147D01*
X109937619Y-98424566D01*
X109896751Y-98382246D01*
X109864883Y-98332797D01*
X109843224Y-98278093D01*
X109832603Y-98220222D01*
X109833425Y-98161397D01*
X109845656Y-98103851D01*
X109868834Y-98049773D01*
X109902073Y-98001229D01*
X109944109Y-97960065D01*
X109993336Y-97927851D01*
X110047889Y-97905810D01*
X110105675Y-97894786D01*
X110164511Y-97895198D01*
X110164511Y-97895198D01*
G37*
G36*
X108664511Y-97895198D02*
X108722143Y-97907027D01*
X108776377Y-97929825D01*
X108825153Y-97962725D01*
X108866613Y-98004476D01*
X108899168Y-98053475D01*
X108921588Y-98107868D01*
X108932948Y-98165239D01*
X108932948Y-98165254D01*
X108933013Y-98165583D01*
X108932075Y-98232782D01*
X108931999Y-98233116D01*
X108931999Y-98233127D01*
X108919043Y-98290153D01*
X108895112Y-98343902D01*
X108861203Y-98391973D01*
X108818590Y-98432552D01*
X108768921Y-98464073D01*
X108714067Y-98485349D01*
X108656129Y-98495565D01*
X108597309Y-98494334D01*
X108539845Y-98481699D01*
X108485936Y-98458147D01*
X108437619Y-98424566D01*
X108396751Y-98382246D01*
X108364883Y-98332797D01*
X108343224Y-98278093D01*
X108332603Y-98220222D01*
X108333425Y-98161397D01*
X108345656Y-98103851D01*
X108368834Y-98049773D01*
X108402073Y-98001229D01*
X108444109Y-97960065D01*
X108493336Y-97927851D01*
X108547889Y-97905810D01*
X108605675Y-97894786D01*
X108664511Y-97895198D01*
X108664511Y-97895198D01*
G37*
G36*
X134651511Y-97260198D02*
X134709143Y-97272027D01*
X134763377Y-97294825D01*
X134812153Y-97327725D01*
X134853613Y-97369476D01*
X134886168Y-97418475D01*
X134908588Y-97472868D01*
X134919948Y-97530239D01*
X134919948Y-97530254D01*
X134920013Y-97530583D01*
X134919075Y-97597782D01*
X134918999Y-97598116D01*
X134918999Y-97598127D01*
X134906043Y-97655153D01*
X134882112Y-97708902D01*
X134848203Y-97756973D01*
X134805590Y-97797552D01*
X134755921Y-97829073D01*
X134701067Y-97850349D01*
X134643129Y-97860565D01*
X134584309Y-97859334D01*
X134526845Y-97846699D01*
X134472936Y-97823147D01*
X134424619Y-97789566D01*
X134383751Y-97747246D01*
X134351883Y-97697797D01*
X134330224Y-97643093D01*
X134319603Y-97585222D01*
X134320425Y-97526397D01*
X134332656Y-97468851D01*
X134355834Y-97414773D01*
X134389073Y-97366229D01*
X134431109Y-97325065D01*
X134480336Y-97292851D01*
X134534889Y-97270810D01*
X134592675Y-97259786D01*
X134651511Y-97260198D01*
X134651511Y-97260198D01*
G37*
G36*
X133151511Y-97260198D02*
X133209143Y-97272027D01*
X133263377Y-97294825D01*
X133312153Y-97327725D01*
X133353613Y-97369476D01*
X133386168Y-97418475D01*
X133408588Y-97472868D01*
X133419948Y-97530239D01*
X133419948Y-97530254D01*
X133420013Y-97530583D01*
X133419075Y-97597782D01*
X133418999Y-97598116D01*
X133418999Y-97598127D01*
X133406043Y-97655153D01*
X133382112Y-97708902D01*
X133348203Y-97756973D01*
X133305590Y-97797552D01*
X133255921Y-97829073D01*
X133201067Y-97850349D01*
X133143129Y-97860565D01*
X133084309Y-97859334D01*
X133026845Y-97846699D01*
X132972936Y-97823147D01*
X132924619Y-97789566D01*
X132883751Y-97747246D01*
X132851883Y-97697797D01*
X132830224Y-97643093D01*
X132819603Y-97585222D01*
X132820425Y-97526397D01*
X132832656Y-97468851D01*
X132855834Y-97414773D01*
X132889073Y-97366229D01*
X132931109Y-97325065D01*
X132980336Y-97292851D01*
X133034889Y-97270810D01*
X133092675Y-97259786D01*
X133151511Y-97260198D01*
X133151511Y-97260198D01*
G37*
G36*
X136151511Y-97260198D02*
X136209143Y-97272027D01*
X136263377Y-97294825D01*
X136312153Y-97327725D01*
X136353613Y-97369476D01*
X136386168Y-97418475D01*
X136408588Y-97472868D01*
X136419948Y-97530239D01*
X136419948Y-97530254D01*
X136420013Y-97530583D01*
X136419075Y-97597782D01*
X136418999Y-97598116D01*
X136418999Y-97598127D01*
X136406043Y-97655153D01*
X136382112Y-97708902D01*
X136348203Y-97756973D01*
X136305590Y-97797552D01*
X136255921Y-97829073D01*
X136201067Y-97850349D01*
X136143129Y-97860565D01*
X136084309Y-97859334D01*
X136026845Y-97846699D01*
X135972936Y-97823147D01*
X135924619Y-97789566D01*
X135883751Y-97747246D01*
X135851883Y-97697797D01*
X135830224Y-97643093D01*
X135819603Y-97585222D01*
X135820425Y-97526397D01*
X135832656Y-97468851D01*
X135855834Y-97414773D01*
X135889073Y-97366229D01*
X135931109Y-97325065D01*
X135980336Y-97292851D01*
X136034889Y-97270810D01*
X136092675Y-97259786D01*
X136151511Y-97260198D01*
X136151511Y-97260198D01*
G37*
G36*
X129145500Y-97649500D02*
X128410500Y-97649500D01*
X128410500Y-96406500D01*
X129145500Y-96406500D01*
X129145500Y-97649500D01*
X129145500Y-97649500D01*
G37*
G36*
X127621500Y-97649500D02*
X126886500Y-97649500D01*
X126886500Y-96406500D01*
X127621500Y-96406500D01*
X127621500Y-97649500D01*
X127621500Y-97649500D01*
G37*
G36*
X142099500Y-97395500D02*
X141364500Y-97395500D01*
X141364500Y-96152500D01*
X142099500Y-96152500D01*
X142099500Y-97395500D01*
X142099500Y-97395500D01*
G37*
G36*
X140575500Y-97395500D02*
X139840500Y-97395500D01*
X139840500Y-96152500D01*
X140575500Y-96152500D01*
X140575500Y-97395500D01*
X140575500Y-97395500D01*
G37*
G36*
X104131500Y-97299500D02*
X102888500Y-97299500D01*
X102888500Y-96564500D01*
X104131500Y-96564500D01*
X104131500Y-97299500D01*
X104131500Y-97299500D01*
G37*
G36*
X108664511Y-96395198D02*
X108722143Y-96407027D01*
X108776377Y-96429825D01*
X108825153Y-96462725D01*
X108866613Y-96504476D01*
X108899168Y-96553475D01*
X108921588Y-96607868D01*
X108932948Y-96665239D01*
X108932948Y-96665254D01*
X108933013Y-96665583D01*
X108932075Y-96732782D01*
X108931999Y-96733116D01*
X108931999Y-96733127D01*
X108919043Y-96790153D01*
X108895112Y-96843902D01*
X108861203Y-96891973D01*
X108818590Y-96932552D01*
X108768921Y-96964073D01*
X108714067Y-96985349D01*
X108656129Y-96995565D01*
X108597309Y-96994334D01*
X108539845Y-96981699D01*
X108485936Y-96958147D01*
X108437619Y-96924566D01*
X108396751Y-96882246D01*
X108364883Y-96832797D01*
X108343224Y-96778093D01*
X108332603Y-96720222D01*
X108333425Y-96661397D01*
X108345656Y-96603851D01*
X108368834Y-96549773D01*
X108402073Y-96501229D01*
X108444109Y-96460065D01*
X108493336Y-96427851D01*
X108547889Y-96405810D01*
X108605675Y-96394786D01*
X108664511Y-96395198D01*
X108664511Y-96395198D01*
G37*
G36*
X110164511Y-96395198D02*
X110222143Y-96407027D01*
X110276377Y-96429825D01*
X110325153Y-96462725D01*
X110366613Y-96504476D01*
X110399168Y-96553475D01*
X110421588Y-96607868D01*
X110432948Y-96665239D01*
X110432948Y-96665254D01*
X110433013Y-96665583D01*
X110432075Y-96732782D01*
X110431999Y-96733116D01*
X110431999Y-96733127D01*
X110419043Y-96790153D01*
X110395112Y-96843902D01*
X110361203Y-96891973D01*
X110318590Y-96932552D01*
X110268921Y-96964073D01*
X110214067Y-96985349D01*
X110156129Y-96995565D01*
X110097309Y-96994334D01*
X110039845Y-96981699D01*
X109985936Y-96958147D01*
X109937619Y-96924566D01*
X109896751Y-96882246D01*
X109864883Y-96832797D01*
X109843224Y-96778093D01*
X109832603Y-96720222D01*
X109833425Y-96661397D01*
X109845656Y-96603851D01*
X109868834Y-96549773D01*
X109902073Y-96501229D01*
X109944109Y-96460065D01*
X109993336Y-96427851D01*
X110047889Y-96405810D01*
X110105675Y-96394786D01*
X110164511Y-96395198D01*
X110164511Y-96395198D01*
G37*
G36*
X111664511Y-96395198D02*
X111722143Y-96407027D01*
X111776377Y-96429825D01*
X111825153Y-96462725D01*
X111866613Y-96504476D01*
X111899168Y-96553475D01*
X111921588Y-96607868D01*
X111932948Y-96665239D01*
X111932948Y-96665254D01*
X111933013Y-96665583D01*
X111932075Y-96732782D01*
X111931999Y-96733116D01*
X111931999Y-96733127D01*
X111919043Y-96790153D01*
X111895112Y-96843902D01*
X111861203Y-96891973D01*
X111818590Y-96932552D01*
X111768921Y-96964073D01*
X111714067Y-96985349D01*
X111656129Y-96995565D01*
X111597309Y-96994334D01*
X111539845Y-96981699D01*
X111485936Y-96958147D01*
X111437619Y-96924566D01*
X111396751Y-96882246D01*
X111364883Y-96832797D01*
X111343224Y-96778093D01*
X111332603Y-96720222D01*
X111333425Y-96661397D01*
X111345656Y-96603851D01*
X111368834Y-96549773D01*
X111402073Y-96501229D01*
X111444109Y-96460065D01*
X111493336Y-96427851D01*
X111547889Y-96405810D01*
X111605675Y-96394786D01*
X111664511Y-96395198D01*
X111664511Y-96395198D01*
G37*
G36*
X113164511Y-96395198D02*
X113222143Y-96407027D01*
X113276377Y-96429825D01*
X113325153Y-96462725D01*
X113366613Y-96504476D01*
X113399168Y-96553475D01*
X113421588Y-96607868D01*
X113432948Y-96665239D01*
X113432948Y-96665254D01*
X113433013Y-96665583D01*
X113432075Y-96732782D01*
X113431999Y-96733116D01*
X113431999Y-96733127D01*
X113419043Y-96790153D01*
X113395112Y-96843902D01*
X113361203Y-96891973D01*
X113318590Y-96932552D01*
X113268921Y-96964073D01*
X113214067Y-96985349D01*
X113156129Y-96995565D01*
X113097309Y-96994334D01*
X113039845Y-96981699D01*
X112985936Y-96958147D01*
X112937619Y-96924566D01*
X112896751Y-96882246D01*
X112864883Y-96832797D01*
X112843224Y-96778093D01*
X112832603Y-96720222D01*
X112833425Y-96661397D01*
X112845656Y-96603851D01*
X112868834Y-96549773D01*
X112902073Y-96501229D01*
X112944109Y-96460065D01*
X112993336Y-96427851D01*
X113047889Y-96405810D01*
X113105675Y-96394786D01*
X113164511Y-96395198D01*
X113164511Y-96395198D01*
G37*
G36*
X114664511Y-96395198D02*
X114722143Y-96407027D01*
X114776377Y-96429825D01*
X114825153Y-96462725D01*
X114866613Y-96504476D01*
X114899168Y-96553475D01*
X114921588Y-96607868D01*
X114932948Y-96665239D01*
X114932948Y-96665254D01*
X114933013Y-96665583D01*
X114932075Y-96732782D01*
X114931999Y-96733116D01*
X114931999Y-96733127D01*
X114919043Y-96790153D01*
X114895112Y-96843902D01*
X114861203Y-96891973D01*
X114818590Y-96932552D01*
X114768921Y-96964073D01*
X114714067Y-96985349D01*
X114656129Y-96995565D01*
X114597309Y-96994334D01*
X114539845Y-96981699D01*
X114485936Y-96958147D01*
X114437619Y-96924566D01*
X114396751Y-96882246D01*
X114364883Y-96832797D01*
X114343224Y-96778093D01*
X114332603Y-96720222D01*
X114333425Y-96661397D01*
X114345656Y-96603851D01*
X114368834Y-96549773D01*
X114402073Y-96501229D01*
X114444109Y-96460065D01*
X114493336Y-96427851D01*
X114547889Y-96405810D01*
X114605675Y-96394786D01*
X114664511Y-96395198D01*
X114664511Y-96395198D01*
G37*
G36*
X147179500Y-95871500D02*
X146444500Y-95871500D01*
X146444500Y-94628500D01*
X147179500Y-94628500D01*
X147179500Y-95871500D01*
X147179500Y-95871500D01*
G37*
G36*
X145655500Y-95871500D02*
X144920500Y-95871500D01*
X144920500Y-94628500D01*
X145655500Y-94628500D01*
X145655500Y-95871500D01*
X145655500Y-95871500D01*
G37*
G36*
X104131500Y-95775500D02*
X102888500Y-95775500D01*
X102888500Y-95040500D01*
X104131500Y-95040500D01*
X104131500Y-95775500D01*
X104131500Y-95775500D01*
G37*
G36*
X149215500Y-95281500D02*
X148480500Y-95281500D01*
X148480500Y-94038500D01*
X149215500Y-94038500D01*
X149215500Y-95281500D01*
X149215500Y-95281500D01*
G37*
G36*
X150739500Y-95281500D02*
X150004500Y-95281500D01*
X150004500Y-94038500D01*
X150739500Y-94038500D01*
X150739500Y-95281500D01*
X150739500Y-95281500D01*
G37*
G36*
X124039500Y-95021500D02*
X123304500Y-95021500D01*
X123304500Y-93778500D01*
X124039500Y-93778500D01*
X124039500Y-95021500D01*
X124039500Y-95021500D01*
G37*
G36*
X122515500Y-95021500D02*
X121780500Y-95021500D01*
X121780500Y-93778500D01*
X122515500Y-93778500D01*
X122515500Y-95021500D01*
X122515500Y-95021500D01*
G37*
G36*
X105045500Y-94641500D02*
X104310500Y-94641500D01*
X104310500Y-93398500D01*
X105045500Y-93398500D01*
X105045500Y-94641500D01*
X105045500Y-94641500D01*
G37*
G36*
X106569500Y-94641500D02*
X105834500Y-94641500D01*
X105834500Y-93398500D01*
X106569500Y-93398500D01*
X106569500Y-94641500D01*
X106569500Y-94641500D01*
G37*
G36*
X150739500Y-93411500D02*
X150004500Y-93411500D01*
X150004500Y-92168500D01*
X150739500Y-92168500D01*
X150739500Y-93411500D01*
X150739500Y-93411500D01*
G37*
G36*
X149215500Y-93411500D02*
X148480500Y-93411500D01*
X148480500Y-92168500D01*
X149215500Y-92168500D01*
X149215500Y-93411500D01*
X149215500Y-93411500D01*
G37*
G36*
X106559500Y-92881500D02*
X105824500Y-92881500D01*
X105824500Y-91638500D01*
X106559500Y-91638500D01*
X106559500Y-92881500D01*
X106559500Y-92881500D01*
G37*
G36*
X105035500Y-92881500D02*
X104300500Y-92881500D01*
X104300500Y-91638500D01*
X105035500Y-91638500D01*
X105035500Y-92881500D01*
X105035500Y-92881500D01*
G37*
G36*
X119435500Y-92711500D02*
X118700500Y-92711500D01*
X118700500Y-91468500D01*
X119435500Y-91468500D01*
X119435500Y-92711500D01*
X119435500Y-92711500D01*
G37*
G36*
X120959500Y-92711500D02*
X120224500Y-92711500D01*
X120224500Y-91468500D01*
X120959500Y-91468500D01*
X120959500Y-92711500D01*
X120959500Y-92711500D01*
G37*
G36*
X128861500Y-92709500D02*
X127618500Y-92709500D01*
X127618500Y-91974500D01*
X128861500Y-91974500D01*
X128861500Y-92709500D01*
X128861500Y-92709500D01*
G37*
G36*
X137527500Y-92569500D02*
X136284500Y-92569500D01*
X136284500Y-91834500D01*
X137527500Y-91834500D01*
X137527500Y-92569500D01*
X137527500Y-92569500D01*
G37*
G36*
X135495500Y-92569500D02*
X134252500Y-92569500D01*
X134252500Y-91834500D01*
X135495500Y-91834500D01*
X135495500Y-92569500D01*
X135495500Y-92569500D01*
G37*
G36*
X105045500Y-91231500D02*
X104310500Y-91231500D01*
X104310500Y-89988500D01*
X105045500Y-89988500D01*
X105045500Y-91231500D01*
X105045500Y-91231500D01*
G37*
G36*
X106569500Y-91231500D02*
X105834500Y-91231500D01*
X105834500Y-89988500D01*
X106569500Y-89988500D01*
X106569500Y-91231500D01*
X106569500Y-91231500D01*
G37*
G36*
X128861500Y-91185500D02*
X127618500Y-91185500D01*
X127618500Y-90450500D01*
X128861500Y-90450500D01*
X128861500Y-91185500D01*
X128861500Y-91185500D01*
G37*
G36*
X137527500Y-91045500D02*
X136284500Y-91045500D01*
X136284500Y-90310500D01*
X137527500Y-90310500D01*
X137527500Y-91045500D01*
X137527500Y-91045500D01*
G37*
G36*
X143115500Y-91045500D02*
X142380500Y-91045500D01*
X142380500Y-89802500D01*
X143115500Y-89802500D01*
X143115500Y-91045500D01*
X143115500Y-91045500D01*
G37*
G36*
X135495500Y-91045500D02*
X134252500Y-91045500D01*
X134252500Y-90310500D01*
X135495500Y-90310500D01*
X135495500Y-91045500D01*
X135495500Y-91045500D01*
G37*
G36*
X141591500Y-91045500D02*
X140856500Y-91045500D01*
X140856500Y-89802500D01*
X141591500Y-89802500D01*
X141591500Y-91045500D01*
X141591500Y-91045500D01*
G37*
G36*
X149185500Y-90911500D02*
X148450500Y-90911500D01*
X148450500Y-89668500D01*
X149185500Y-89668500D01*
X149185500Y-90911500D01*
X149185500Y-90911500D01*
G37*
G36*
X150709500Y-90911500D02*
X149974500Y-90911500D01*
X149974500Y-89668500D01*
X150709500Y-89668500D01*
X150709500Y-90911500D01*
X150709500Y-90911500D01*
G37*
G36*
X119445500Y-90841500D02*
X118710500Y-90841500D01*
X118710500Y-89598500D01*
X119445500Y-89598500D01*
X119445500Y-90841500D01*
X119445500Y-90841500D01*
G37*
G36*
X120969500Y-90841500D02*
X120234500Y-90841500D01*
X120234500Y-89598500D01*
X120969500Y-89598500D01*
X120969500Y-90841500D01*
X120969500Y-90841500D01*
G37*
G36*
X106559500Y-89571500D02*
X105824500Y-89571500D01*
X105824500Y-88328500D01*
X106559500Y-88328500D01*
X106559500Y-89571500D01*
X106559500Y-89571500D01*
G37*
G36*
X105035500Y-89571500D02*
X104300500Y-89571500D01*
X104300500Y-88328500D01*
X105035500Y-88328500D01*
X105035500Y-89571500D01*
X105035500Y-89571500D01*
G37*
G36*
X145605500Y-89071500D02*
X144870500Y-89071500D01*
X144870500Y-87828500D01*
X145605500Y-87828500D01*
X145605500Y-89071500D01*
X145605500Y-89071500D01*
G37*
G36*
X147129500Y-89071500D02*
X146394500Y-89071500D01*
X146394500Y-87828500D01*
X147129500Y-87828500D01*
X147129500Y-89071500D01*
X147129500Y-89071500D01*
G37*
G36*
X124661500Y-89029500D02*
X123418500Y-89029500D01*
X123418500Y-88294500D01*
X124661500Y-88294500D01*
X124661500Y-89029500D01*
X124661500Y-89029500D01*
G37*
G36*
X119465500Y-88871500D02*
X118730500Y-88871500D01*
X118730500Y-87628500D01*
X119465500Y-87628500D01*
X119465500Y-88871500D01*
X119465500Y-88871500D01*
G37*
G36*
X120989500Y-88871500D02*
X120254500Y-88871500D01*
X120254500Y-87628500D01*
X120989500Y-87628500D01*
X120989500Y-88871500D01*
X120989500Y-88871500D01*
G37*
G36*
X106549500Y-87951500D02*
X105814500Y-87951500D01*
X105814500Y-86708500D01*
X106549500Y-86708500D01*
X106549500Y-87951500D01*
X106549500Y-87951500D01*
G37*
G36*
X105025500Y-87951500D02*
X104290500Y-87951500D01*
X104290500Y-86708500D01*
X105025500Y-86708500D01*
X105025500Y-87951500D01*
X105025500Y-87951500D01*
G37*
G36*
X124661500Y-87505500D02*
X123418500Y-87505500D01*
X123418500Y-86770500D01*
X124661500Y-86770500D01*
X124661500Y-87505500D01*
X124661500Y-87505500D01*
G37*
G36*
X140321500Y-87489500D02*
X139078500Y-87489500D01*
X139078500Y-86754500D01*
X140321500Y-86754500D01*
X140321500Y-87489500D01*
X140321500Y-87489500D01*
G37*
G36*
X136511500Y-87489500D02*
X135268500Y-87489500D01*
X135268500Y-86754500D01*
X136511500Y-86754500D01*
X136511500Y-87489500D01*
X136511500Y-87489500D01*
G37*
G36*
X130161500Y-87489500D02*
X128918500Y-87489500D01*
X128918500Y-86754500D01*
X130161500Y-86754500D01*
X130161500Y-87489500D01*
X130161500Y-87489500D01*
G37*
G36*
X132701500Y-87489500D02*
X131458500Y-87489500D01*
X131458500Y-86754500D01*
X132701500Y-86754500D01*
X132701500Y-87489500D01*
X132701500Y-87489500D01*
G37*
G36*
X97195215Y-84667320D02*
X97460994Y-84721877D01*
X97711109Y-84827016D01*
X97936046Y-84978737D01*
X98127224Y-85171254D01*
X98277371Y-85397243D01*
X98380761Y-85648087D01*
X98433393Y-85913897D01*
X98433393Y-85913907D01*
X98433459Y-85914241D01*
X98429132Y-86224138D01*
X98429056Y-86224472D01*
X98429056Y-86224483D01*
X98369024Y-86488713D01*
X98258669Y-86736576D01*
X98102273Y-86958282D01*
X97905787Y-87145392D01*
X97676709Y-87290769D01*
X97423751Y-87388886D01*
X97156557Y-87435999D01*
X96885298Y-87430317D01*
X96620302Y-87372054D01*
X96371679Y-87263433D01*
X96148887Y-87108588D01*
X95960411Y-86913416D01*
X95813438Y-86685358D01*
X95713558Y-86433092D01*
X95664579Y-86166226D01*
X95668368Y-85894935D01*
X95724777Y-85629549D01*
X95831662Y-85380168D01*
X95984948Y-85156300D01*
X96178799Y-84966466D01*
X96405828Y-84817902D01*
X96657390Y-84716265D01*
X96923900Y-84665425D01*
X97195215Y-84667320D01*
X97195215Y-84667320D01*
G37*
G36*
X92095415Y-84667320D02*
X92361194Y-84721877D01*
X92611309Y-84827016D01*
X92836246Y-84978737D01*
X93027424Y-85171254D01*
X93177571Y-85397243D01*
X93280961Y-85648087D01*
X93333593Y-85913897D01*
X93333593Y-85913907D01*
X93333659Y-85914241D01*
X93329332Y-86224138D01*
X93329256Y-86224472D01*
X93329256Y-86224483D01*
X93269224Y-86488713D01*
X93158869Y-86736576D01*
X93002473Y-86958282D01*
X92805987Y-87145392D01*
X92576909Y-87290769D01*
X92323951Y-87388886D01*
X92056757Y-87435999D01*
X91785498Y-87430317D01*
X91520502Y-87372054D01*
X91271879Y-87263433D01*
X91049087Y-87108588D01*
X90860611Y-86913416D01*
X90713638Y-86685358D01*
X90613758Y-86433092D01*
X90564779Y-86166226D01*
X90568568Y-85894935D01*
X90624977Y-85629549D01*
X90731862Y-85380168D01*
X90885148Y-85156300D01*
X91078999Y-84966466D01*
X91306028Y-84817902D01*
X91557590Y-84716265D01*
X91824100Y-84665425D01*
X92095415Y-84667320D01*
X92095415Y-84667320D01*
G37*
G36*
X132701500Y-85965500D02*
X131458500Y-85965500D01*
X131458500Y-85230500D01*
X132701500Y-85230500D01*
X132701500Y-85965500D01*
X132701500Y-85965500D01*
G37*
G36*
X140321500Y-85965500D02*
X139078500Y-85965500D01*
X139078500Y-85230500D01*
X140321500Y-85230500D01*
X140321500Y-85965500D01*
X140321500Y-85965500D01*
G37*
G36*
X136511500Y-85965500D02*
X135268500Y-85965500D01*
X135268500Y-85230500D01*
X136511500Y-85230500D01*
X136511500Y-85965500D01*
X136511500Y-85965500D01*
G37*
G36*
X130161500Y-85965500D02*
X128918500Y-85965500D01*
X128918500Y-85230500D01*
X130161500Y-85230500D01*
X130161500Y-85965500D01*
X130161500Y-85965500D01*
G37*
G36*
X94605297Y-82498166D02*
X94797884Y-82537698D01*
X94979120Y-82613883D01*
X95142113Y-82723823D01*
X95280642Y-82863322D01*
X95389442Y-83027079D01*
X95464357Y-83208839D01*
X95502478Y-83401356D01*
X95502478Y-83401371D01*
X95502543Y-83401700D01*
X95499408Y-83626255D01*
X95499332Y-83626589D01*
X95499332Y-83626601D01*
X95455855Y-83817968D01*
X95375889Y-83997573D01*
X95262563Y-84158224D01*
X95120185Y-84293808D01*
X94954194Y-84399149D01*
X94770897Y-84470246D01*
X94577286Y-84504384D01*
X94380728Y-84500267D01*
X94188709Y-84458049D01*
X94008556Y-84379342D01*
X93847112Y-84267136D01*
X93710542Y-84125714D01*
X93604044Y-83960462D01*
X93531670Y-83777666D01*
X93496179Y-83584290D01*
X93498925Y-83387710D01*
X93539799Y-83195409D01*
X93617250Y-83014704D01*
X93728323Y-82852486D01*
X93868790Y-82714930D01*
X94033297Y-82607279D01*
X94215583Y-82533631D01*
X94408698Y-82496793D01*
X94605297Y-82498166D01*
X94605297Y-82498166D01*
G37*
G36*
X92095415Y-79567520D02*
X92361194Y-79622077D01*
X92611309Y-79727216D01*
X92836246Y-79878937D01*
X93027424Y-80071454D01*
X93177571Y-80297443D01*
X93280961Y-80548287D01*
X93333593Y-80814097D01*
X93333593Y-80814107D01*
X93333659Y-80814441D01*
X93329332Y-81124338D01*
X93329256Y-81124672D01*
X93329256Y-81124683D01*
X93269224Y-81388913D01*
X93158869Y-81636776D01*
X93002473Y-81858482D01*
X92805987Y-82045592D01*
X92576909Y-82190969D01*
X92323951Y-82289086D01*
X92056757Y-82336199D01*
X91785498Y-82330517D01*
X91520502Y-82272254D01*
X91271879Y-82163633D01*
X91049087Y-82008788D01*
X90860611Y-81813616D01*
X90713638Y-81585558D01*
X90613758Y-81333292D01*
X90564779Y-81066426D01*
X90568568Y-80795135D01*
X90624977Y-80529749D01*
X90731862Y-80280368D01*
X90885148Y-80056500D01*
X91078999Y-79866666D01*
X91306028Y-79718102D01*
X91557590Y-79616465D01*
X91824100Y-79565625D01*
X92095415Y-79567520D01*
X92095415Y-79567520D01*
G37*
G36*
X97195215Y-79567520D02*
X97460994Y-79622077D01*
X97711109Y-79727216D01*
X97936046Y-79878937D01*
X98127224Y-80071454D01*
X98277371Y-80297443D01*
X98380761Y-80548287D01*
X98433393Y-80814097D01*
X98433393Y-80814107D01*
X98433459Y-80814441D01*
X98429132Y-81124338D01*
X98429056Y-81124672D01*
X98429056Y-81124683D01*
X98369024Y-81388913D01*
X98258669Y-81636776D01*
X98102273Y-81858482D01*
X97905787Y-82045592D01*
X97676709Y-82190969D01*
X97423751Y-82289086D01*
X97156557Y-82336199D01*
X96885298Y-82330517D01*
X96620302Y-82272254D01*
X96371679Y-82163633D01*
X96148887Y-82008788D01*
X95960411Y-81813616D01*
X95813438Y-81585558D01*
X95713558Y-81333292D01*
X95664579Y-81066426D01*
X95668368Y-80795135D01*
X95724777Y-80529749D01*
X95831662Y-80280368D01*
X95984948Y-80056500D01*
X96178799Y-79866666D01*
X96405828Y-79718102D01*
X96657390Y-79616465D01*
X96923900Y-79565625D01*
X97195215Y-79567520D01*
X97195215Y-79567520D01*
G37*
G36*
X114795500Y-79621500D02*
X114060500Y-79621500D01*
X114060500Y-78378500D01*
X114795500Y-78378500D01*
X114795500Y-79621500D01*
X114795500Y-79621500D01*
G37*
G36*
X116319500Y-79621500D02*
X115584500Y-79621500D01*
X115584500Y-78378500D01*
X116319500Y-78378500D01*
X116319500Y-79621500D01*
X116319500Y-79621500D01*
G37*
G36*
X143589500Y-79061500D02*
X142854500Y-79061500D01*
X142854500Y-77818500D01*
X143589500Y-77818500D01*
X143589500Y-79061500D01*
X143589500Y-79061500D01*
G37*
G36*
X142065500Y-79061500D02*
X141330500Y-79061500D01*
X141330500Y-77818500D01*
X142065500Y-77818500D01*
X142065500Y-79061500D01*
X142065500Y-79061500D01*
G37*
G36*
X93783592Y-71801797D02*
X94302277Y-71908268D01*
X94790398Y-72113455D01*
X95229373Y-72409546D01*
X95602477Y-72785265D01*
X95895496Y-73226293D01*
X96097271Y-73715836D01*
X96200050Y-74234908D01*
X96200050Y-74234917D01*
X96200116Y-74235251D01*
X96191671Y-74840037D01*
X96191595Y-74840371D01*
X96191595Y-74840383D01*
X96074365Y-75356375D01*
X95858998Y-75840097D01*
X95553779Y-76272772D01*
X95170327Y-76637928D01*
X94723262Y-76921644D01*
X94229597Y-77113125D01*
X93708146Y-77205070D01*
X93178765Y-77193982D01*
X92661612Y-77080278D01*
X92176404Y-76868296D01*
X91741608Y-76566104D01*
X91373786Y-76185213D01*
X91086955Y-75740139D01*
X90892034Y-75247824D01*
X90796448Y-74727020D01*
X90803842Y-74197576D01*
X90913930Y-73679652D01*
X91122522Y-73192970D01*
X91421671Y-72756075D01*
X91799984Y-72385603D01*
X92243047Y-72095670D01*
X92733989Y-71897317D01*
X93254104Y-71798100D01*
X93783592Y-71801797D01*
X93783592Y-71801797D01*
G37*
G36*
X151783592Y-71801797D02*
X152302277Y-71908268D01*
X152790398Y-72113455D01*
X153229373Y-72409546D01*
X153602477Y-72785265D01*
X153895496Y-73226293D01*
X154097271Y-73715836D01*
X154200050Y-74234908D01*
X154200050Y-74234917D01*
X154200116Y-74235251D01*
X154191671Y-74840037D01*
X154191595Y-74840371D01*
X154191595Y-74840383D01*
X154074365Y-75356375D01*
X153858998Y-75840097D01*
X153553779Y-76272772D01*
X153170327Y-76637928D01*
X152723262Y-76921644D01*
X152229597Y-77113125D01*
X151708146Y-77205070D01*
X151178765Y-77193982D01*
X150661612Y-77080278D01*
X150176404Y-76868296D01*
X149741608Y-76566104D01*
X149373786Y-76185213D01*
X149086955Y-75740139D01*
X148892034Y-75247824D01*
X148796448Y-74727020D01*
X148803842Y-74197576D01*
X148913930Y-73679652D01*
X149122522Y-73192970D01*
X149421671Y-72756075D01*
X149799984Y-72385603D01*
X150243047Y-72095670D01*
X150733989Y-71897317D01*
X151254104Y-71798100D01*
X151783592Y-71801797D01*
X151783592Y-71801797D01*
G37*
G36*
X123855288Y-74958539D02*
X124011279Y-74990560D01*
X124158075Y-75052267D01*
X124290093Y-75141314D01*
X124402302Y-75254310D01*
X124490427Y-75386946D01*
X124551105Y-75534166D01*
X124581969Y-75690036D01*
X124581969Y-75690045D01*
X124582035Y-75690379D01*
X124579495Y-75872263D01*
X124579419Y-75872597D01*
X124579419Y-75872609D01*
X124544219Y-76027546D01*
X124479448Y-76173022D01*
X124387657Y-76303145D01*
X124272334Y-76412965D01*
X124137886Y-76498288D01*
X123989420Y-76555875D01*
X123832600Y-76583526D01*
X123673393Y-76580192D01*
X123517861Y-76545996D01*
X123371939Y-76482244D01*
X123241179Y-76391363D01*
X123130558Y-76276812D01*
X123044298Y-76142963D01*
X122985677Y-75994903D01*
X122956930Y-75838272D01*
X122959154Y-75679048D01*
X122992261Y-75523289D01*
X123054995Y-75376922D01*
X123144961Y-75245530D01*
X123258736Y-75134112D01*
X123391982Y-75046918D01*
X123539629Y-74987265D01*
X123696047Y-74957427D01*
X123855288Y-74958539D01*
X123855288Y-74958539D01*
G37*
G36*
X111155288Y-74958539D02*
X111311279Y-74990560D01*
X111458075Y-75052267D01*
X111590093Y-75141314D01*
X111702302Y-75254310D01*
X111790427Y-75386946D01*
X111851105Y-75534166D01*
X111881969Y-75690036D01*
X111881969Y-75690045D01*
X111882035Y-75690379D01*
X111879495Y-75872263D01*
X111879419Y-75872597D01*
X111879419Y-75872609D01*
X111844219Y-76027546D01*
X111779448Y-76173022D01*
X111687657Y-76303145D01*
X111572334Y-76412965D01*
X111437886Y-76498288D01*
X111289420Y-76555875D01*
X111132600Y-76583526D01*
X110973393Y-76580192D01*
X110817861Y-76545996D01*
X110671939Y-76482244D01*
X110541179Y-76391363D01*
X110430558Y-76276812D01*
X110344298Y-76142963D01*
X110285677Y-75994903D01*
X110256930Y-75838272D01*
X110259154Y-75679048D01*
X110292261Y-75523289D01*
X110354995Y-75376922D01*
X110444961Y-75245530D01*
X110558736Y-75134112D01*
X110691982Y-75046918D01*
X110839629Y-74987265D01*
X110996047Y-74957427D01*
X111155288Y-74958539D01*
X111155288Y-74958539D01*
G37*
G36*
X144175288Y-74958539D02*
X144331279Y-74990560D01*
X144478075Y-75052267D01*
X144610093Y-75141314D01*
X144722302Y-75254310D01*
X144810427Y-75386946D01*
X144871105Y-75534166D01*
X144901969Y-75690036D01*
X144901969Y-75690045D01*
X144902035Y-75690379D01*
X144899495Y-75872263D01*
X144899419Y-75872597D01*
X144899419Y-75872609D01*
X144864219Y-76027546D01*
X144799448Y-76173022D01*
X144707657Y-76303145D01*
X144592334Y-76412965D01*
X144457886Y-76498288D01*
X144309420Y-76555875D01*
X144152600Y-76583526D01*
X143993393Y-76580192D01*
X143837861Y-76545996D01*
X143691939Y-76482244D01*
X143561179Y-76391363D01*
X143450558Y-76276812D01*
X143364298Y-76142963D01*
X143305677Y-75994903D01*
X143276930Y-75838272D01*
X143279154Y-75679048D01*
X143312261Y-75523289D01*
X143374995Y-75376922D01*
X143464961Y-75245530D01*
X143578736Y-75134112D01*
X143711982Y-75046918D01*
X143859629Y-74987265D01*
X144016047Y-74957427D01*
X144175288Y-74958539D01*
X144175288Y-74958539D01*
G37*
G36*
X146715288Y-74958539D02*
X146871279Y-74990560D01*
X147018075Y-75052267D01*
X147150093Y-75141314D01*
X147262302Y-75254310D01*
X147350427Y-75386946D01*
X147411105Y-75534166D01*
X147441969Y-75690036D01*
X147441969Y-75690045D01*
X147442035Y-75690379D01*
X147439495Y-75872263D01*
X147439419Y-75872597D01*
X147439419Y-75872609D01*
X147404219Y-76027546D01*
X147339448Y-76173022D01*
X147247657Y-76303145D01*
X147132334Y-76412965D01*
X146997886Y-76498288D01*
X146849420Y-76555875D01*
X146692600Y-76583526D01*
X146533393Y-76580192D01*
X146377861Y-76545996D01*
X146231939Y-76482244D01*
X146101179Y-76391363D01*
X145990558Y-76276812D01*
X145904298Y-76142963D01*
X145845677Y-75994903D01*
X145816930Y-75838272D01*
X145819154Y-75679048D01*
X145852261Y-75523289D01*
X145914995Y-75376922D01*
X146004961Y-75245530D01*
X146118736Y-75134112D01*
X146251982Y-75046918D01*
X146399629Y-74987265D01*
X146556047Y-74957427D01*
X146715288Y-74958539D01*
X146715288Y-74958539D01*
G37*
G36*
X128935288Y-74958539D02*
X129091279Y-74990560D01*
X129238075Y-75052267D01*
X129370093Y-75141314D01*
X129482302Y-75254310D01*
X129570427Y-75386946D01*
X129631105Y-75534166D01*
X129661969Y-75690036D01*
X129661969Y-75690045D01*
X129662035Y-75690379D01*
X129659495Y-75872263D01*
X129659419Y-75872597D01*
X129659419Y-75872609D01*
X129624219Y-76027546D01*
X129559448Y-76173022D01*
X129467657Y-76303145D01*
X129352334Y-76412965D01*
X129217886Y-76498288D01*
X129069420Y-76555875D01*
X128912600Y-76583526D01*
X128753393Y-76580192D01*
X128597861Y-76545996D01*
X128451939Y-76482244D01*
X128321179Y-76391363D01*
X128210558Y-76276812D01*
X128124298Y-76142963D01*
X128065677Y-75994903D01*
X128036930Y-75838272D01*
X128039154Y-75679048D01*
X128072261Y-75523289D01*
X128134995Y-75376922D01*
X128224961Y-75245530D01*
X128338736Y-75134112D01*
X128471982Y-75046918D01*
X128619629Y-74987265D01*
X128776047Y-74957427D01*
X128935288Y-74958539D01*
X128935288Y-74958539D01*
G37*
G36*
X116235288Y-74958539D02*
X116391279Y-74990560D01*
X116538075Y-75052267D01*
X116670093Y-75141314D01*
X116782302Y-75254310D01*
X116870427Y-75386946D01*
X116931105Y-75534166D01*
X116961969Y-75690036D01*
X116961969Y-75690045D01*
X116962035Y-75690379D01*
X116959495Y-75872263D01*
X116959419Y-75872597D01*
X116959419Y-75872609D01*
X116924219Y-76027546D01*
X116859448Y-76173022D01*
X116767657Y-76303145D01*
X116652334Y-76412965D01*
X116517886Y-76498288D01*
X116369420Y-76555875D01*
X116212600Y-76583526D01*
X116053393Y-76580192D01*
X115897861Y-76545996D01*
X115751939Y-76482244D01*
X115621179Y-76391363D01*
X115510558Y-76276812D01*
X115424298Y-76142963D01*
X115365677Y-75994903D01*
X115336930Y-75838272D01*
X115339154Y-75679048D01*
X115372261Y-75523289D01*
X115434995Y-75376922D01*
X115524961Y-75245530D01*
X115638736Y-75134112D01*
X115771982Y-75046918D01*
X115919629Y-74987265D01*
X116076047Y-74957427D01*
X116235288Y-74958539D01*
X116235288Y-74958539D01*
G37*
G36*
X118775288Y-74958539D02*
X118931279Y-74990560D01*
X119078075Y-75052267D01*
X119210093Y-75141314D01*
X119322302Y-75254310D01*
X119410427Y-75386946D01*
X119471105Y-75534166D01*
X119501969Y-75690036D01*
X119501969Y-75690045D01*
X119502035Y-75690379D01*
X119499495Y-75872263D01*
X119499419Y-75872597D01*
X119499419Y-75872609D01*
X119464219Y-76027546D01*
X119399448Y-76173022D01*
X119307657Y-76303145D01*
X119192334Y-76412965D01*
X119057886Y-76498288D01*
X118909420Y-76555875D01*
X118752600Y-76583526D01*
X118593393Y-76580192D01*
X118437861Y-76545996D01*
X118291939Y-76482244D01*
X118161179Y-76391363D01*
X118050558Y-76276812D01*
X117964298Y-76142963D01*
X117905677Y-75994903D01*
X117876930Y-75838272D01*
X117879154Y-75679048D01*
X117912261Y-75523289D01*
X117974995Y-75376922D01*
X118064961Y-75245530D01*
X118178736Y-75134112D01*
X118311982Y-75046918D01*
X118459629Y-74987265D01*
X118616047Y-74957427D01*
X118775288Y-74958539D01*
X118775288Y-74958539D01*
G37*
G36*
X121315288Y-74958539D02*
X121471279Y-74990560D01*
X121618075Y-75052267D01*
X121750093Y-75141314D01*
X121862302Y-75254310D01*
X121950427Y-75386946D01*
X122011105Y-75534166D01*
X122041969Y-75690036D01*
X122041969Y-75690045D01*
X122042035Y-75690379D01*
X122039495Y-75872263D01*
X122039419Y-75872597D01*
X122039419Y-75872609D01*
X122004219Y-76027546D01*
X121939448Y-76173022D01*
X121847657Y-76303145D01*
X121732334Y-76412965D01*
X121597886Y-76498288D01*
X121449420Y-76555875D01*
X121292600Y-76583526D01*
X121133393Y-76580192D01*
X120977861Y-76545996D01*
X120831939Y-76482244D01*
X120701179Y-76391363D01*
X120590558Y-76276812D01*
X120504298Y-76142963D01*
X120445677Y-75994903D01*
X120416930Y-75838272D01*
X120419154Y-75679048D01*
X120452261Y-75523289D01*
X120514995Y-75376922D01*
X120604961Y-75245530D01*
X120718736Y-75134112D01*
X120851982Y-75046918D01*
X120999629Y-74987265D01*
X121156047Y-74957427D01*
X121315288Y-74958539D01*
X121315288Y-74958539D01*
G37*
G36*
X126395288Y-74958539D02*
X126551279Y-74990560D01*
X126698075Y-75052267D01*
X126830093Y-75141314D01*
X126942302Y-75254310D01*
X127030427Y-75386946D01*
X127091105Y-75534166D01*
X127121969Y-75690036D01*
X127121969Y-75690045D01*
X127122035Y-75690379D01*
X127119495Y-75872263D01*
X127119419Y-75872597D01*
X127119419Y-75872609D01*
X127084219Y-76027546D01*
X127019448Y-76173022D01*
X126927657Y-76303145D01*
X126812334Y-76412965D01*
X126677886Y-76498288D01*
X126529420Y-76555875D01*
X126372600Y-76583526D01*
X126213393Y-76580192D01*
X126057861Y-76545996D01*
X125911939Y-76482244D01*
X125781179Y-76391363D01*
X125670558Y-76276812D01*
X125584298Y-76142963D01*
X125525677Y-75994903D01*
X125496930Y-75838272D01*
X125499154Y-75679048D01*
X125532261Y-75523289D01*
X125594995Y-75376922D01*
X125684961Y-75245530D01*
X125798736Y-75134112D01*
X125931982Y-75046918D01*
X126079629Y-74987265D01*
X126236047Y-74957427D01*
X126395288Y-74958539D01*
X126395288Y-74958539D01*
G37*
G36*
X98455288Y-74958539D02*
X98611279Y-74990560D01*
X98758075Y-75052267D01*
X98890093Y-75141314D01*
X99002302Y-75254310D01*
X99090427Y-75386946D01*
X99151105Y-75534166D01*
X99181969Y-75690036D01*
X99181969Y-75690045D01*
X99182035Y-75690379D01*
X99179495Y-75872263D01*
X99179419Y-75872597D01*
X99179419Y-75872609D01*
X99144219Y-76027546D01*
X99079448Y-76173022D01*
X98987657Y-76303145D01*
X98872334Y-76412965D01*
X98737886Y-76498288D01*
X98589420Y-76555875D01*
X98432600Y-76583526D01*
X98273393Y-76580192D01*
X98117861Y-76545996D01*
X97971939Y-76482244D01*
X97841179Y-76391363D01*
X97730558Y-76276812D01*
X97644298Y-76142963D01*
X97585677Y-75994903D01*
X97556930Y-75838272D01*
X97559154Y-75679048D01*
X97592261Y-75523289D01*
X97654995Y-75376922D01*
X97744961Y-75245530D01*
X97858736Y-75134112D01*
X97991982Y-75046918D01*
X98139629Y-74987265D01*
X98296047Y-74957427D01*
X98455288Y-74958539D01*
X98455288Y-74958539D01*
G37*
G36*
X100995288Y-74958539D02*
X101151279Y-74990560D01*
X101298075Y-75052267D01*
X101430093Y-75141314D01*
X101542302Y-75254310D01*
X101630427Y-75386946D01*
X101691105Y-75534166D01*
X101721969Y-75690036D01*
X101721969Y-75690045D01*
X101722035Y-75690379D01*
X101719495Y-75872263D01*
X101719419Y-75872597D01*
X101719419Y-75872609D01*
X101684219Y-76027546D01*
X101619448Y-76173022D01*
X101527657Y-76303145D01*
X101412334Y-76412965D01*
X101277886Y-76498288D01*
X101129420Y-76555875D01*
X100972600Y-76583526D01*
X100813393Y-76580192D01*
X100657861Y-76545996D01*
X100511939Y-76482244D01*
X100381179Y-76391363D01*
X100270558Y-76276812D01*
X100184298Y-76142963D01*
X100125677Y-75994903D01*
X100096930Y-75838272D01*
X100099154Y-75679048D01*
X100132261Y-75523289D01*
X100194995Y-75376922D01*
X100284961Y-75245530D01*
X100398736Y-75134112D01*
X100531982Y-75046918D01*
X100679629Y-74987265D01*
X100836047Y-74957427D01*
X100995288Y-74958539D01*
X100995288Y-74958539D01*
G37*
G36*
X113695288Y-74958539D02*
X113851279Y-74990560D01*
X113998075Y-75052267D01*
X114130093Y-75141314D01*
X114242302Y-75254310D01*
X114330427Y-75386946D01*
X114391105Y-75534166D01*
X114421969Y-75690036D01*
X114421969Y-75690045D01*
X114422035Y-75690379D01*
X114419495Y-75872263D01*
X114419419Y-75872597D01*
X114419419Y-75872609D01*
X114384219Y-76027546D01*
X114319448Y-76173022D01*
X114227657Y-76303145D01*
X114112334Y-76412965D01*
X113977886Y-76498288D01*
X113829420Y-76555875D01*
X113672600Y-76583526D01*
X113513393Y-76580192D01*
X113357861Y-76545996D01*
X113211939Y-76482244D01*
X113081179Y-76391363D01*
X112970558Y-76276812D01*
X112884298Y-76142963D01*
X112825677Y-75994903D01*
X112796930Y-75838272D01*
X112799154Y-75679048D01*
X112832261Y-75523289D01*
X112894995Y-75376922D01*
X112984961Y-75245530D01*
X113098736Y-75134112D01*
X113231982Y-75046918D01*
X113379629Y-74987265D01*
X113536047Y-74957427D01*
X113695288Y-74958539D01*
X113695288Y-74958539D01*
G37*
G36*
X131475288Y-74958539D02*
X131631279Y-74990560D01*
X131778075Y-75052267D01*
X131910093Y-75141314D01*
X132022302Y-75254310D01*
X132110427Y-75386946D01*
X132171105Y-75534166D01*
X132201969Y-75690036D01*
X132201969Y-75690045D01*
X132202035Y-75690379D01*
X132199495Y-75872263D01*
X132199419Y-75872597D01*
X132199419Y-75872609D01*
X132164219Y-76027546D01*
X132099448Y-76173022D01*
X132007657Y-76303145D01*
X131892334Y-76412965D01*
X131757886Y-76498288D01*
X131609420Y-76555875D01*
X131452600Y-76583526D01*
X131293393Y-76580192D01*
X131137861Y-76545996D01*
X130991939Y-76482244D01*
X130861179Y-76391363D01*
X130750558Y-76276812D01*
X130664298Y-76142963D01*
X130605677Y-75994903D01*
X130576930Y-75838272D01*
X130579154Y-75679048D01*
X130612261Y-75523289D01*
X130674995Y-75376922D01*
X130764961Y-75245530D01*
X130878736Y-75134112D01*
X131011982Y-75046918D01*
X131159629Y-74987265D01*
X131316047Y-74957427D01*
X131475288Y-74958539D01*
X131475288Y-74958539D01*
G37*
G36*
X134015288Y-74958539D02*
X134171279Y-74990560D01*
X134318075Y-75052267D01*
X134450093Y-75141314D01*
X134562302Y-75254310D01*
X134650427Y-75386946D01*
X134711105Y-75534166D01*
X134741969Y-75690036D01*
X134741969Y-75690045D01*
X134742035Y-75690379D01*
X134739495Y-75872263D01*
X134739419Y-75872597D01*
X134739419Y-75872609D01*
X134704219Y-76027546D01*
X134639448Y-76173022D01*
X134547657Y-76303145D01*
X134432334Y-76412965D01*
X134297886Y-76498288D01*
X134149420Y-76555875D01*
X133992600Y-76583526D01*
X133833393Y-76580192D01*
X133677861Y-76545996D01*
X133531939Y-76482244D01*
X133401179Y-76391363D01*
X133290558Y-76276812D01*
X133204298Y-76142963D01*
X133145677Y-75994903D01*
X133116930Y-75838272D01*
X133119154Y-75679048D01*
X133152261Y-75523289D01*
X133214995Y-75376922D01*
X133304961Y-75245530D01*
X133418736Y-75134112D01*
X133551982Y-75046918D01*
X133699629Y-74987265D01*
X133856047Y-74957427D01*
X134015288Y-74958539D01*
X134015288Y-74958539D01*
G37*
G36*
X141635288Y-74958539D02*
X141791279Y-74990560D01*
X141938075Y-75052267D01*
X142070093Y-75141314D01*
X142182302Y-75254310D01*
X142270427Y-75386946D01*
X142331105Y-75534166D01*
X142361969Y-75690036D01*
X142361969Y-75690045D01*
X142362035Y-75690379D01*
X142359495Y-75872263D01*
X142359419Y-75872597D01*
X142359419Y-75872609D01*
X142324219Y-76027546D01*
X142259448Y-76173022D01*
X142167657Y-76303145D01*
X142052334Y-76412965D01*
X141917886Y-76498288D01*
X141769420Y-76555875D01*
X141612600Y-76583526D01*
X141453393Y-76580192D01*
X141297861Y-76545996D01*
X141151939Y-76482244D01*
X141021179Y-76391363D01*
X140910558Y-76276812D01*
X140824298Y-76142963D01*
X140765677Y-75994903D01*
X140736930Y-75838272D01*
X140739154Y-75679048D01*
X140772261Y-75523289D01*
X140834995Y-75376922D01*
X140924961Y-75245530D01*
X141038736Y-75134112D01*
X141171982Y-75046918D01*
X141319629Y-74987265D01*
X141476047Y-74957427D01*
X141635288Y-74958539D01*
X141635288Y-74958539D01*
G37*
G36*
X139095288Y-74958539D02*
X139251279Y-74990560D01*
X139398075Y-75052267D01*
X139530093Y-75141314D01*
X139642302Y-75254310D01*
X139730427Y-75386946D01*
X139791105Y-75534166D01*
X139821969Y-75690036D01*
X139821969Y-75690045D01*
X139822035Y-75690379D01*
X139819495Y-75872263D01*
X139819419Y-75872597D01*
X139819419Y-75872609D01*
X139784219Y-76027546D01*
X139719448Y-76173022D01*
X139627657Y-76303145D01*
X139512334Y-76412965D01*
X139377886Y-76498288D01*
X139229420Y-76555875D01*
X139072600Y-76583526D01*
X138913393Y-76580192D01*
X138757861Y-76545996D01*
X138611939Y-76482244D01*
X138481179Y-76391363D01*
X138370558Y-76276812D01*
X138284298Y-76142963D01*
X138225677Y-75994903D01*
X138196930Y-75838272D01*
X138199154Y-75679048D01*
X138232261Y-75523289D01*
X138294995Y-75376922D01*
X138384961Y-75245530D01*
X138498736Y-75134112D01*
X138631982Y-75046918D01*
X138779629Y-74987265D01*
X138936047Y-74957427D01*
X139095288Y-74958539D01*
X139095288Y-74958539D01*
G37*
G36*
X136555288Y-74958539D02*
X136711279Y-74990560D01*
X136858075Y-75052267D01*
X136990093Y-75141314D01*
X137102302Y-75254310D01*
X137190427Y-75386946D01*
X137251105Y-75534166D01*
X137281969Y-75690036D01*
X137281969Y-75690045D01*
X137282035Y-75690379D01*
X137279495Y-75872263D01*
X137279419Y-75872597D01*
X137279419Y-75872609D01*
X137244219Y-76027546D01*
X137179448Y-76173022D01*
X137087657Y-76303145D01*
X136972334Y-76412965D01*
X136837886Y-76498288D01*
X136689420Y-76555875D01*
X136532600Y-76583526D01*
X136373393Y-76580192D01*
X136217861Y-76545996D01*
X136071939Y-76482244D01*
X135941179Y-76391363D01*
X135830558Y-76276812D01*
X135744298Y-76142963D01*
X135685677Y-75994903D01*
X135656930Y-75838272D01*
X135659154Y-75679048D01*
X135692261Y-75523289D01*
X135754995Y-75376922D01*
X135844961Y-75245530D01*
X135958736Y-75134112D01*
X136091982Y-75046918D01*
X136239629Y-74987265D01*
X136396047Y-74957427D01*
X136555288Y-74958539D01*
X136555288Y-74958539D01*
G37*
G36*
X108615288Y-74958539D02*
X108771279Y-74990560D01*
X108918075Y-75052267D01*
X109050093Y-75141314D01*
X109162302Y-75254310D01*
X109250427Y-75386946D01*
X109311105Y-75534166D01*
X109341969Y-75690036D01*
X109341969Y-75690045D01*
X109342035Y-75690379D01*
X109339495Y-75872263D01*
X109339419Y-75872597D01*
X109339419Y-75872609D01*
X109304219Y-76027546D01*
X109239448Y-76173022D01*
X109147657Y-76303145D01*
X109032334Y-76412965D01*
X108897886Y-76498288D01*
X108749420Y-76555875D01*
X108592600Y-76583526D01*
X108433393Y-76580192D01*
X108277861Y-76545996D01*
X108131939Y-76482244D01*
X108001179Y-76391363D01*
X107890558Y-76276812D01*
X107804298Y-76142963D01*
X107745677Y-75994903D01*
X107716930Y-75838272D01*
X107719154Y-75679048D01*
X107752261Y-75523289D01*
X107814995Y-75376922D01*
X107904961Y-75245530D01*
X108018736Y-75134112D01*
X108151982Y-75046918D01*
X108299629Y-74987265D01*
X108456047Y-74957427D01*
X108615288Y-74958539D01*
X108615288Y-74958539D01*
G37*
G36*
X106075288Y-74958539D02*
X106231279Y-74990560D01*
X106378075Y-75052267D01*
X106510093Y-75141314D01*
X106622302Y-75254310D01*
X106710427Y-75386946D01*
X106771105Y-75534166D01*
X106801969Y-75690036D01*
X106801969Y-75690045D01*
X106802035Y-75690379D01*
X106799495Y-75872263D01*
X106799419Y-75872597D01*
X106799419Y-75872609D01*
X106764219Y-76027546D01*
X106699448Y-76173022D01*
X106607657Y-76303145D01*
X106492334Y-76412965D01*
X106357886Y-76498288D01*
X106209420Y-76555875D01*
X106052600Y-76583526D01*
X105893393Y-76580192D01*
X105737861Y-76545996D01*
X105591939Y-76482244D01*
X105461179Y-76391363D01*
X105350558Y-76276812D01*
X105264298Y-76142963D01*
X105205677Y-75994903D01*
X105176930Y-75838272D01*
X105179154Y-75679048D01*
X105212261Y-75523289D01*
X105274995Y-75376922D01*
X105364961Y-75245530D01*
X105478736Y-75134112D01*
X105611982Y-75046918D01*
X105759629Y-74987265D01*
X105916047Y-74957427D01*
X106075288Y-74958539D01*
X106075288Y-74958539D01*
G37*
G36*
X103535288Y-74958539D02*
X103691279Y-74990560D01*
X103838075Y-75052267D01*
X103970093Y-75141314D01*
X104082302Y-75254310D01*
X104170427Y-75386946D01*
X104231105Y-75534166D01*
X104261969Y-75690036D01*
X104261969Y-75690045D01*
X104262035Y-75690379D01*
X104259495Y-75872263D01*
X104259419Y-75872597D01*
X104259419Y-75872609D01*
X104224219Y-76027546D01*
X104159448Y-76173022D01*
X104067657Y-76303145D01*
X103952334Y-76412965D01*
X103817886Y-76498288D01*
X103669420Y-76555875D01*
X103512600Y-76583526D01*
X103353393Y-76580192D01*
X103197861Y-76545996D01*
X103051939Y-76482244D01*
X102921179Y-76391363D01*
X102810558Y-76276812D01*
X102724298Y-76142963D01*
X102665677Y-75994903D01*
X102636930Y-75838272D01*
X102639154Y-75679048D01*
X102672261Y-75523289D01*
X102734995Y-75376922D01*
X102824961Y-75245530D01*
X102938736Y-75134112D01*
X103071982Y-75046918D01*
X103219629Y-74987265D01*
X103376047Y-74957427D01*
X103535288Y-74958539D01*
X103535288Y-74958539D01*
G37*
G36*
X128935288Y-72418539D02*
X129091279Y-72450560D01*
X129238075Y-72512267D01*
X129370093Y-72601314D01*
X129482302Y-72714310D01*
X129570427Y-72846946D01*
X129631105Y-72994166D01*
X129661969Y-73150036D01*
X129661969Y-73150045D01*
X129662035Y-73150379D01*
X129659495Y-73332263D01*
X129659419Y-73332597D01*
X129659419Y-73332609D01*
X129624219Y-73487546D01*
X129559448Y-73633022D01*
X129467657Y-73763145D01*
X129352334Y-73872965D01*
X129217886Y-73958288D01*
X129069420Y-74015875D01*
X128912600Y-74043526D01*
X128753393Y-74040192D01*
X128597861Y-74005996D01*
X128451939Y-73942244D01*
X128321179Y-73851363D01*
X128210558Y-73736812D01*
X128124298Y-73602963D01*
X128065677Y-73454903D01*
X128036930Y-73298272D01*
X128039154Y-73139048D01*
X128072261Y-72983289D01*
X128134995Y-72836922D01*
X128224961Y-72705530D01*
X128338736Y-72594112D01*
X128471982Y-72506918D01*
X128619629Y-72447265D01*
X128776047Y-72417427D01*
X128935288Y-72418539D01*
X128935288Y-72418539D01*
G37*
G36*
X131475288Y-72418539D02*
X131631279Y-72450560D01*
X131778075Y-72512267D01*
X131910093Y-72601314D01*
X132022302Y-72714310D01*
X132110427Y-72846946D01*
X132171105Y-72994166D01*
X132201969Y-73150036D01*
X132201969Y-73150045D01*
X132202035Y-73150379D01*
X132199495Y-73332263D01*
X132199419Y-73332597D01*
X132199419Y-73332609D01*
X132164219Y-73487546D01*
X132099448Y-73633022D01*
X132007657Y-73763145D01*
X131892334Y-73872965D01*
X131757886Y-73958288D01*
X131609420Y-74015875D01*
X131452600Y-74043526D01*
X131293393Y-74040192D01*
X131137861Y-74005996D01*
X130991939Y-73942244D01*
X130861179Y-73851363D01*
X130750558Y-73736812D01*
X130664298Y-73602963D01*
X130605677Y-73454903D01*
X130576930Y-73298272D01*
X130579154Y-73139048D01*
X130612261Y-72983289D01*
X130674995Y-72836922D01*
X130764961Y-72705530D01*
X130878736Y-72594112D01*
X131011982Y-72506918D01*
X131159629Y-72447265D01*
X131316047Y-72417427D01*
X131475288Y-72418539D01*
X131475288Y-72418539D01*
G37*
G36*
X126395288Y-72418539D02*
X126551279Y-72450560D01*
X126698075Y-72512267D01*
X126830093Y-72601314D01*
X126942302Y-72714310D01*
X127030427Y-72846946D01*
X127091105Y-72994166D01*
X127121969Y-73150036D01*
X127121969Y-73150045D01*
X127122035Y-73150379D01*
X127119495Y-73332263D01*
X127119419Y-73332597D01*
X127119419Y-73332609D01*
X127084219Y-73487546D01*
X127019448Y-73633022D01*
X126927657Y-73763145D01*
X126812334Y-73872965D01*
X126677886Y-73958288D01*
X126529420Y-74015875D01*
X126372600Y-74043526D01*
X126213393Y-74040192D01*
X126057861Y-74005996D01*
X125911939Y-73942244D01*
X125781179Y-73851363D01*
X125670558Y-73736812D01*
X125584298Y-73602963D01*
X125525677Y-73454903D01*
X125496930Y-73298272D01*
X125499154Y-73139048D01*
X125532261Y-72983289D01*
X125594995Y-72836922D01*
X125684961Y-72705530D01*
X125798736Y-72594112D01*
X125931982Y-72506918D01*
X126079629Y-72447265D01*
X126236047Y-72417427D01*
X126395288Y-72418539D01*
X126395288Y-72418539D01*
G37*
G36*
X136555288Y-72418539D02*
X136711279Y-72450560D01*
X136858075Y-72512267D01*
X136990093Y-72601314D01*
X137102302Y-72714310D01*
X137190427Y-72846946D01*
X137251105Y-72994166D01*
X137281969Y-73150036D01*
X137281969Y-73150045D01*
X137282035Y-73150379D01*
X137279495Y-73332263D01*
X137279419Y-73332597D01*
X137279419Y-73332609D01*
X137244219Y-73487546D01*
X137179448Y-73633022D01*
X137087657Y-73763145D01*
X136972334Y-73872965D01*
X136837886Y-73958288D01*
X136689420Y-74015875D01*
X136532600Y-74043526D01*
X136373393Y-74040192D01*
X136217861Y-74005996D01*
X136071939Y-73942244D01*
X135941179Y-73851363D01*
X135830558Y-73736812D01*
X135744298Y-73602963D01*
X135685677Y-73454903D01*
X135656930Y-73298272D01*
X135659154Y-73139048D01*
X135692261Y-72983289D01*
X135754995Y-72836922D01*
X135844961Y-72705530D01*
X135958736Y-72594112D01*
X136091982Y-72506918D01*
X136239629Y-72447265D01*
X136396047Y-72417427D01*
X136555288Y-72418539D01*
X136555288Y-72418539D01*
G37*
G36*
X139095288Y-72418539D02*
X139251279Y-72450560D01*
X139398075Y-72512267D01*
X139530093Y-72601314D01*
X139642302Y-72714310D01*
X139730427Y-72846946D01*
X139791105Y-72994166D01*
X139821969Y-73150036D01*
X139821969Y-73150045D01*
X139822035Y-73150379D01*
X139819495Y-73332263D01*
X139819419Y-73332597D01*
X139819419Y-73332609D01*
X139784219Y-73487546D01*
X139719448Y-73633022D01*
X139627657Y-73763145D01*
X139512334Y-73872965D01*
X139377886Y-73958288D01*
X139229420Y-74015875D01*
X139072600Y-74043526D01*
X138913393Y-74040192D01*
X138757861Y-74005996D01*
X138611939Y-73942244D01*
X138481179Y-73851363D01*
X138370558Y-73736812D01*
X138284298Y-73602963D01*
X138225677Y-73454903D01*
X138196930Y-73298272D01*
X138199154Y-73139048D01*
X138232261Y-72983289D01*
X138294995Y-72836922D01*
X138384961Y-72705530D01*
X138498736Y-72594112D01*
X138631982Y-72506918D01*
X138779629Y-72447265D01*
X138936047Y-72417427D01*
X139095288Y-72418539D01*
X139095288Y-72418539D01*
G37*
G36*
X141635288Y-72418539D02*
X141791279Y-72450560D01*
X141938075Y-72512267D01*
X142070093Y-72601314D01*
X142182302Y-72714310D01*
X142270427Y-72846946D01*
X142331105Y-72994166D01*
X142361969Y-73150036D01*
X142361969Y-73150045D01*
X142362035Y-73150379D01*
X142359495Y-73332263D01*
X142359419Y-73332597D01*
X142359419Y-73332609D01*
X142324219Y-73487546D01*
X142259448Y-73633022D01*
X142167657Y-73763145D01*
X142052334Y-73872965D01*
X141917886Y-73958288D01*
X141769420Y-74015875D01*
X141612600Y-74043526D01*
X141453393Y-74040192D01*
X141297861Y-74005996D01*
X141151939Y-73942244D01*
X141021179Y-73851363D01*
X140910558Y-73736812D01*
X140824298Y-73602963D01*
X140765677Y-73454903D01*
X140736930Y-73298272D01*
X140739154Y-73139048D01*
X140772261Y-72983289D01*
X140834995Y-72836922D01*
X140924961Y-72705530D01*
X141038736Y-72594112D01*
X141171982Y-72506918D01*
X141319629Y-72447265D01*
X141476047Y-72417427D01*
X141635288Y-72418539D01*
X141635288Y-72418539D01*
G37*
G36*
X144175288Y-72418539D02*
X144331279Y-72450560D01*
X144478075Y-72512267D01*
X144610093Y-72601314D01*
X144722302Y-72714310D01*
X144810427Y-72846946D01*
X144871105Y-72994166D01*
X144901969Y-73150036D01*
X144901969Y-73150045D01*
X144902035Y-73150379D01*
X144899495Y-73332263D01*
X144899419Y-73332597D01*
X144899419Y-73332609D01*
X144864219Y-73487546D01*
X144799448Y-73633022D01*
X144707657Y-73763145D01*
X144592334Y-73872965D01*
X144457886Y-73958288D01*
X144309420Y-74015875D01*
X144152600Y-74043526D01*
X143993393Y-74040192D01*
X143837861Y-74005996D01*
X143691939Y-73942244D01*
X143561179Y-73851363D01*
X143450558Y-73736812D01*
X143364298Y-73602963D01*
X143305677Y-73454903D01*
X143276930Y-73298272D01*
X143279154Y-73139048D01*
X143312261Y-72983289D01*
X143374995Y-72836922D01*
X143464961Y-72705530D01*
X143578736Y-72594112D01*
X143711982Y-72506918D01*
X143859629Y-72447265D01*
X144016047Y-72417427D01*
X144175288Y-72418539D01*
X144175288Y-72418539D01*
G37*
G36*
X146715288Y-72418539D02*
X146871279Y-72450560D01*
X147018075Y-72512267D01*
X147150093Y-72601314D01*
X147262302Y-72714310D01*
X147350427Y-72846946D01*
X147411105Y-72994166D01*
X147441969Y-73150036D01*
X147441969Y-73150045D01*
X147442035Y-73150379D01*
X147439495Y-73332263D01*
X147439419Y-73332597D01*
X147439419Y-73332609D01*
X147404219Y-73487546D01*
X147339448Y-73633022D01*
X147247657Y-73763145D01*
X147132334Y-73872965D01*
X146997886Y-73958288D01*
X146849420Y-74015875D01*
X146692600Y-74043526D01*
X146533393Y-74040192D01*
X146377861Y-74005996D01*
X146231939Y-73942244D01*
X146101179Y-73851363D01*
X145990558Y-73736812D01*
X145904298Y-73602963D01*
X145845677Y-73454903D01*
X145816930Y-73298272D01*
X145819154Y-73139048D01*
X145852261Y-72983289D01*
X145914995Y-72836922D01*
X146004961Y-72705530D01*
X146118736Y-72594112D01*
X146251982Y-72506918D01*
X146399629Y-72447265D01*
X146556047Y-72417427D01*
X146715288Y-72418539D01*
X146715288Y-72418539D01*
G37*
G36*
X123855288Y-72418539D02*
X124011279Y-72450560D01*
X124158075Y-72512267D01*
X124290093Y-72601314D01*
X124402302Y-72714310D01*
X124490427Y-72846946D01*
X124551105Y-72994166D01*
X124581969Y-73150036D01*
X124581969Y-73150045D01*
X124582035Y-73150379D01*
X124579495Y-73332263D01*
X124579419Y-73332597D01*
X124579419Y-73332609D01*
X124544219Y-73487546D01*
X124479448Y-73633022D01*
X124387657Y-73763145D01*
X124272334Y-73872965D01*
X124137886Y-73958288D01*
X123989420Y-74015875D01*
X123832600Y-74043526D01*
X123673393Y-74040192D01*
X123517861Y-74005996D01*
X123371939Y-73942244D01*
X123241179Y-73851363D01*
X123130558Y-73736812D01*
X123044298Y-73602963D01*
X122985677Y-73454903D01*
X122956930Y-73298272D01*
X122959154Y-73139048D01*
X122992261Y-72983289D01*
X123054995Y-72836922D01*
X123144961Y-72705530D01*
X123258736Y-72594112D01*
X123391982Y-72506918D01*
X123539629Y-72447265D01*
X123696047Y-72417427D01*
X123855288Y-72418539D01*
X123855288Y-72418539D01*
G37*
G36*
X121315288Y-72418539D02*
X121471279Y-72450560D01*
X121618075Y-72512267D01*
X121750093Y-72601314D01*
X121862302Y-72714310D01*
X121950427Y-72846946D01*
X122011105Y-72994166D01*
X122041969Y-73150036D01*
X122041969Y-73150045D01*
X122042035Y-73150379D01*
X122039495Y-73332263D01*
X122039419Y-73332597D01*
X122039419Y-73332609D01*
X122004219Y-73487546D01*
X121939448Y-73633022D01*
X121847657Y-73763145D01*
X121732334Y-73872965D01*
X121597886Y-73958288D01*
X121449420Y-74015875D01*
X121292600Y-74043526D01*
X121133393Y-74040192D01*
X120977861Y-74005996D01*
X120831939Y-73942244D01*
X120701179Y-73851363D01*
X120590558Y-73736812D01*
X120504298Y-73602963D01*
X120445677Y-73454903D01*
X120416930Y-73298272D01*
X120419154Y-73139048D01*
X120452261Y-72983289D01*
X120514995Y-72836922D01*
X120604961Y-72705530D01*
X120718736Y-72594112D01*
X120851982Y-72506918D01*
X120999629Y-72447265D01*
X121156047Y-72417427D01*
X121315288Y-72418539D01*
X121315288Y-72418539D01*
G37*
G36*
X113695288Y-72418539D02*
X113851279Y-72450560D01*
X113998075Y-72512267D01*
X114130093Y-72601314D01*
X114242302Y-72714310D01*
X114330427Y-72846946D01*
X114391105Y-72994166D01*
X114421969Y-73150036D01*
X114421969Y-73150045D01*
X114422035Y-73150379D01*
X114419495Y-73332263D01*
X114419419Y-73332597D01*
X114419419Y-73332609D01*
X114384219Y-73487546D01*
X114319448Y-73633022D01*
X114227657Y-73763145D01*
X114112334Y-73872965D01*
X113977886Y-73958288D01*
X113829420Y-74015875D01*
X113672600Y-74043526D01*
X113513393Y-74040192D01*
X113357861Y-74005996D01*
X113211939Y-73942244D01*
X113081179Y-73851363D01*
X112970558Y-73736812D01*
X112884298Y-73602963D01*
X112825677Y-73454903D01*
X112796930Y-73298272D01*
X112799154Y-73139048D01*
X112832261Y-72983289D01*
X112894995Y-72836922D01*
X112984961Y-72705530D01*
X113098736Y-72594112D01*
X113231982Y-72506918D01*
X113379629Y-72447265D01*
X113536047Y-72417427D01*
X113695288Y-72418539D01*
X113695288Y-72418539D01*
G37*
G36*
X111155288Y-72418539D02*
X111311279Y-72450560D01*
X111458075Y-72512267D01*
X111590093Y-72601314D01*
X111702302Y-72714310D01*
X111790427Y-72846946D01*
X111851105Y-72994166D01*
X111881969Y-73150036D01*
X111881969Y-73150045D01*
X111882035Y-73150379D01*
X111879495Y-73332263D01*
X111879419Y-73332597D01*
X111879419Y-73332609D01*
X111844219Y-73487546D01*
X111779448Y-73633022D01*
X111687657Y-73763145D01*
X111572334Y-73872965D01*
X111437886Y-73958288D01*
X111289420Y-74015875D01*
X111132600Y-74043526D01*
X110973393Y-74040192D01*
X110817861Y-74005996D01*
X110671939Y-73942244D01*
X110541179Y-73851363D01*
X110430558Y-73736812D01*
X110344298Y-73602963D01*
X110285677Y-73454903D01*
X110256930Y-73298272D01*
X110259154Y-73139048D01*
X110292261Y-72983289D01*
X110354995Y-72836922D01*
X110444961Y-72705530D01*
X110558736Y-72594112D01*
X110691982Y-72506918D01*
X110839629Y-72447265D01*
X110996047Y-72417427D01*
X111155288Y-72418539D01*
X111155288Y-72418539D01*
G37*
G36*
X108615288Y-72418539D02*
X108771279Y-72450560D01*
X108918075Y-72512267D01*
X109050093Y-72601314D01*
X109162302Y-72714310D01*
X109250427Y-72846946D01*
X109311105Y-72994166D01*
X109341969Y-73150036D01*
X109341969Y-73150045D01*
X109342035Y-73150379D01*
X109339495Y-73332263D01*
X109339419Y-73332597D01*
X109339419Y-73332609D01*
X109304219Y-73487546D01*
X109239448Y-73633022D01*
X109147657Y-73763145D01*
X109032334Y-73872965D01*
X108897886Y-73958288D01*
X108749420Y-74015875D01*
X108592600Y-74043526D01*
X108433393Y-74040192D01*
X108277861Y-74005996D01*
X108131939Y-73942244D01*
X108001179Y-73851363D01*
X107890558Y-73736812D01*
X107804298Y-73602963D01*
X107745677Y-73454903D01*
X107716930Y-73298272D01*
X107719154Y-73139048D01*
X107752261Y-72983289D01*
X107814995Y-72836922D01*
X107904961Y-72705530D01*
X108018736Y-72594112D01*
X108151982Y-72506918D01*
X108299629Y-72447265D01*
X108456047Y-72417427D01*
X108615288Y-72418539D01*
X108615288Y-72418539D01*
G37*
G36*
X106075288Y-72418539D02*
X106231279Y-72450560D01*
X106378075Y-72512267D01*
X106510093Y-72601314D01*
X106622302Y-72714310D01*
X106710427Y-72846946D01*
X106771105Y-72994166D01*
X106801969Y-73150036D01*
X106801969Y-73150045D01*
X106802035Y-73150379D01*
X106799495Y-73332263D01*
X106799419Y-73332597D01*
X106799419Y-73332609D01*
X106764219Y-73487546D01*
X106699448Y-73633022D01*
X106607657Y-73763145D01*
X106492334Y-73872965D01*
X106357886Y-73958288D01*
X106209420Y-74015875D01*
X106052600Y-74043526D01*
X105893393Y-74040192D01*
X105737861Y-74005996D01*
X105591939Y-73942244D01*
X105461179Y-73851363D01*
X105350558Y-73736812D01*
X105264298Y-73602963D01*
X105205677Y-73454903D01*
X105176930Y-73298272D01*
X105179154Y-73139048D01*
X105212261Y-72983289D01*
X105274995Y-72836922D01*
X105364961Y-72705530D01*
X105478736Y-72594112D01*
X105611982Y-72506918D01*
X105759629Y-72447265D01*
X105916047Y-72417427D01*
X106075288Y-72418539D01*
X106075288Y-72418539D01*
G37*
G36*
X118775288Y-72418539D02*
X118931279Y-72450560D01*
X119078075Y-72512267D01*
X119210093Y-72601314D01*
X119322302Y-72714310D01*
X119410427Y-72846946D01*
X119471105Y-72994166D01*
X119501969Y-73150036D01*
X119501969Y-73150045D01*
X119502035Y-73150379D01*
X119499495Y-73332263D01*
X119499419Y-73332597D01*
X119499419Y-73332609D01*
X119464219Y-73487546D01*
X119399448Y-73633022D01*
X119307657Y-73763145D01*
X119192334Y-73872965D01*
X119057886Y-73958288D01*
X118909420Y-74015875D01*
X118752600Y-74043526D01*
X118593393Y-74040192D01*
X118437861Y-74005996D01*
X118291939Y-73942244D01*
X118161179Y-73851363D01*
X118050558Y-73736812D01*
X117964298Y-73602963D01*
X117905677Y-73454903D01*
X117876930Y-73298272D01*
X117879154Y-73139048D01*
X117912261Y-72983289D01*
X117974995Y-72836922D01*
X118064961Y-72705530D01*
X118178736Y-72594112D01*
X118311982Y-72506918D01*
X118459629Y-72447265D01*
X118616047Y-72417427D01*
X118775288Y-72418539D01*
X118775288Y-72418539D01*
G37*
G36*
X98455288Y-72418539D02*
X98611279Y-72450560D01*
X98758075Y-72512267D01*
X98890093Y-72601314D01*
X99002302Y-72714310D01*
X99090427Y-72846946D01*
X99151105Y-72994166D01*
X99181969Y-73150036D01*
X99181969Y-73150045D01*
X99182035Y-73150379D01*
X99179495Y-73332263D01*
X99179419Y-73332597D01*
X99179419Y-73332609D01*
X99144219Y-73487546D01*
X99079448Y-73633022D01*
X98987657Y-73763145D01*
X98872334Y-73872965D01*
X98737886Y-73958288D01*
X98589420Y-74015875D01*
X98432600Y-74043526D01*
X98273393Y-74040192D01*
X98117861Y-74005996D01*
X97971939Y-73942244D01*
X97841179Y-73851363D01*
X97730558Y-73736812D01*
X97644298Y-73602963D01*
X97585677Y-73454903D01*
X97556930Y-73298272D01*
X97559154Y-73139048D01*
X97592261Y-72983289D01*
X97654995Y-72836922D01*
X97744961Y-72705530D01*
X97858736Y-72594112D01*
X97991982Y-72506918D01*
X98139629Y-72447265D01*
X98296047Y-72417427D01*
X98455288Y-72418539D01*
X98455288Y-72418539D01*
G37*
G36*
X100995288Y-72418539D02*
X101151279Y-72450560D01*
X101298075Y-72512267D01*
X101430093Y-72601314D01*
X101542302Y-72714310D01*
X101630427Y-72846946D01*
X101691105Y-72994166D01*
X101721969Y-73150036D01*
X101721969Y-73150045D01*
X101722035Y-73150379D01*
X101719495Y-73332263D01*
X101719419Y-73332597D01*
X101719419Y-73332609D01*
X101684219Y-73487546D01*
X101619448Y-73633022D01*
X101527657Y-73763145D01*
X101412334Y-73872965D01*
X101277886Y-73958288D01*
X101129420Y-74015875D01*
X100972600Y-74043526D01*
X100813393Y-74040192D01*
X100657861Y-74005996D01*
X100511939Y-73942244D01*
X100381179Y-73851363D01*
X100270558Y-73736812D01*
X100184298Y-73602963D01*
X100125677Y-73454903D01*
X100096930Y-73298272D01*
X100099154Y-73139048D01*
X100132261Y-72983289D01*
X100194995Y-72836922D01*
X100284961Y-72705530D01*
X100398736Y-72594112D01*
X100531982Y-72506918D01*
X100679629Y-72447265D01*
X100836047Y-72417427D01*
X100995288Y-72418539D01*
X100995288Y-72418539D01*
G37*
G36*
X116235288Y-72418539D02*
X116391279Y-72450560D01*
X116538075Y-72512267D01*
X116670093Y-72601314D01*
X116782302Y-72714310D01*
X116870427Y-72846946D01*
X116931105Y-72994166D01*
X116961969Y-73150036D01*
X116961969Y-73150045D01*
X116962035Y-73150379D01*
X116959495Y-73332263D01*
X116959419Y-73332597D01*
X116959419Y-73332609D01*
X116924219Y-73487546D01*
X116859448Y-73633022D01*
X116767657Y-73763145D01*
X116652334Y-73872965D01*
X116517886Y-73958288D01*
X116369420Y-74015875D01*
X116212600Y-74043526D01*
X116053393Y-74040192D01*
X115897861Y-74005996D01*
X115751939Y-73942244D01*
X115621179Y-73851363D01*
X115510558Y-73736812D01*
X115424298Y-73602963D01*
X115365677Y-73454903D01*
X115336930Y-73298272D01*
X115339154Y-73139048D01*
X115372261Y-72983289D01*
X115434995Y-72836922D01*
X115524961Y-72705530D01*
X115638736Y-72594112D01*
X115771982Y-72506918D01*
X115919629Y-72447265D01*
X116076047Y-72417427D01*
X116235288Y-72418539D01*
X116235288Y-72418539D01*
G37*
G36*
X134015288Y-72418539D02*
X134171279Y-72450560D01*
X134318075Y-72512267D01*
X134450093Y-72601314D01*
X134562302Y-72714310D01*
X134650427Y-72846946D01*
X134711105Y-72994166D01*
X134741969Y-73150036D01*
X134741969Y-73150045D01*
X134742035Y-73150379D01*
X134739495Y-73332263D01*
X134739419Y-73332597D01*
X134739419Y-73332609D01*
X134704219Y-73487546D01*
X134639448Y-73633022D01*
X134547657Y-73763145D01*
X134432334Y-73872965D01*
X134297886Y-73958288D01*
X134149420Y-74015875D01*
X133992600Y-74043526D01*
X133833393Y-74040192D01*
X133677861Y-74005996D01*
X133531939Y-73942244D01*
X133401179Y-73851363D01*
X133290558Y-73736812D01*
X133204298Y-73602963D01*
X133145677Y-73454903D01*
X133116930Y-73298272D01*
X133119154Y-73139048D01*
X133152261Y-72983289D01*
X133214995Y-72836922D01*
X133304961Y-72705530D01*
X133418736Y-72594112D01*
X133551982Y-72506918D01*
X133699629Y-72447265D01*
X133856047Y-72417427D01*
X134015288Y-72418539D01*
X134015288Y-72418539D01*
G37*
G36*
X103535288Y-72418539D02*
X103691279Y-72450560D01*
X103838075Y-72512267D01*
X103970093Y-72601314D01*
X104082302Y-72714310D01*
X104170427Y-72846946D01*
X104231105Y-72994166D01*
X104261969Y-73150036D01*
X104261969Y-73150045D01*
X104262035Y-73150379D01*
X104259495Y-73332263D01*
X104259419Y-73332597D01*
X104259419Y-73332609D01*
X104224219Y-73487546D01*
X104159448Y-73633022D01*
X104067657Y-73763145D01*
X103952334Y-73872965D01*
X103817886Y-73958288D01*
X103669420Y-74015875D01*
X103512600Y-74043526D01*
X103353393Y-74040192D01*
X103197861Y-74005996D01*
X103051939Y-73942244D01*
X102921179Y-73851363D01*
X102810558Y-73736812D01*
X102724298Y-73602963D01*
X102665677Y-73454903D01*
X102636930Y-73298272D01*
X102639154Y-73139048D01*
X102672261Y-72983289D01*
X102734995Y-72836922D01*
X102824961Y-72705530D01*
X102938736Y-72594112D01*
X103071982Y-72506918D01*
X103219629Y-72447265D01*
X103376047Y-72417427D01*
X103535288Y-72418539D01*
X103535288Y-72418539D01*
G37*
M02*
