%TF.GenerationSoftware,KiCad,Pcbnew,(5.1.8)-1*%
%TF.CreationDate,2020-12-20T16:15:32+01:00*%
%TF.ProjectId,radioberry-preamp,72616469-6f62-4657-9272-792d70726561,rev?*%
%TF.SameCoordinates,Original*%
%TF.FileFunction,Legend,Bot*%
%TF.FilePolarity,Positive*%
%FSLAX46Y46*%
G04 Gerber Fmt 4.6, Leading zero omitted, Abs format (unit mm)*
G04 Created by KiCad (PCBNEW (5.1.8)-1) date 2020-12-20 16:15:32*
%MOMM*%
%LPD*%
G01*
G04 APERTURE LIST*
%ADD10C,0.100000*%
%ADD11C,0.150000*%
%ADD12C,0.300000*%
%ADD13C,0.400000*%
%ADD14C,0.152400*%
%ADD15C,0.127000*%
G04 APERTURE END LIST*
D10*
D11*
X177002200Y-166007200D02*
X177002200Y-198007200D01*
X285002200Y-198007200D01*
X285002200Y-166007200D01*
X177002200Y-166007200D01*
D10*
D11*
X10000000Y-10000000D02*
X10000000Y-200007200D01*
X287002200Y-200007200D01*
X287002200Y-10000000D01*
X10000000Y-10000000D01*
D10*
D11*
X12000000Y-12000000D02*
X12000000Y-198007200D01*
X285002200Y-198007200D01*
X285002200Y-12000000D01*
X12000000Y-12000000D01*
D10*
D11*
X60000000Y-12000000D02*
X60000000Y-10000000D01*
D10*
D11*
X110000000Y-12000000D02*
X110000000Y-10000000D01*
D10*
D11*
X160000000Y-12000000D02*
X160000000Y-10000000D01*
D10*
D11*
X210000000Y-12000000D02*
X210000000Y-10000000D01*
D10*
D11*
X260000000Y-12000000D02*
X260000000Y-10000000D01*
D10*
D11*
X36065476Y-11588095D02*
X35322619Y-11588095D01*
X35694047Y-11588095D02*
X35694047Y-10288095D01*
X35570238Y-10473809D01*
X35446428Y-10597619D01*
X35322619Y-10659523D01*
D10*
D11*
X85322619Y-10411904D02*
X85384523Y-10350000D01*
X85508333Y-10288095D01*
X85817857Y-10288095D01*
X85941666Y-10350000D01*
X86003571Y-10411904D01*
X86065476Y-10535714D01*
X86065476Y-10659523D01*
X86003571Y-10845238D01*
X85260714Y-11588095D01*
X86065476Y-11588095D01*
D10*
D11*
X135260714Y-10288095D02*
X136065476Y-10288095D01*
X135632142Y-10783333D01*
X135817857Y-10783333D01*
X135941666Y-10845238D01*
X136003571Y-10907142D01*
X136065476Y-11030952D01*
X136065476Y-11340476D01*
X136003571Y-11464285D01*
X135941666Y-11526190D01*
X135817857Y-11588095D01*
X135446428Y-11588095D01*
X135322619Y-11526190D01*
X135260714Y-11464285D01*
D10*
D11*
X185941666Y-10721428D02*
X185941666Y-11588095D01*
X185632142Y-10226190D02*
X185322619Y-11154761D01*
X186127380Y-11154761D01*
D10*
D11*
X236003571Y-10288095D02*
X235384523Y-10288095D01*
X235322619Y-10907142D01*
X235384523Y-10845238D01*
X235508333Y-10783333D01*
X235817857Y-10783333D01*
X235941666Y-10845238D01*
X236003571Y-10907142D01*
X236065476Y-11030952D01*
X236065476Y-11340476D01*
X236003571Y-11464285D01*
X235941666Y-11526190D01*
X235817857Y-11588095D01*
X235508333Y-11588095D01*
X235384523Y-11526190D01*
X235322619Y-11464285D01*
D10*
D11*
X285941666Y-10288095D02*
X285694047Y-10288095D01*
X285570238Y-10350000D01*
X285508333Y-10411904D01*
X285384523Y-10597619D01*
X285322619Y-10845238D01*
X285322619Y-11340476D01*
X285384523Y-11464285D01*
X285446428Y-11526190D01*
X285570238Y-11588095D01*
X285817857Y-11588095D01*
X285941666Y-11526190D01*
X286003571Y-11464285D01*
X286065476Y-11340476D01*
X286065476Y-11030952D01*
X286003571Y-10907142D01*
X285941666Y-10845238D01*
X285817857Y-10783333D01*
X285570238Y-10783333D01*
X285446428Y-10845238D01*
X285384523Y-10907142D01*
X285322619Y-11030952D01*
D10*
D11*
X60000000Y-198007200D02*
X60000000Y-200007200D01*
D10*
D11*
X110000000Y-198007200D02*
X110000000Y-200007200D01*
D10*
D11*
X160000000Y-198007200D02*
X160000000Y-200007200D01*
D10*
D11*
X210000000Y-198007200D02*
X210000000Y-200007200D01*
D10*
D11*
X260000000Y-198007200D02*
X260000000Y-200007200D01*
D10*
D11*
X36065476Y-199595295D02*
X35322619Y-199595295D01*
X35694047Y-199595295D02*
X35694047Y-198295295D01*
X35570238Y-198481009D01*
X35446428Y-198604819D01*
X35322619Y-198666723D01*
D10*
D11*
X85322619Y-198419104D02*
X85384523Y-198357200D01*
X85508333Y-198295295D01*
X85817857Y-198295295D01*
X85941666Y-198357200D01*
X86003571Y-198419104D01*
X86065476Y-198542914D01*
X86065476Y-198666723D01*
X86003571Y-198852438D01*
X85260714Y-199595295D01*
X86065476Y-199595295D01*
D10*
D11*
X135260714Y-198295295D02*
X136065476Y-198295295D01*
X135632142Y-198790533D01*
X135817857Y-198790533D01*
X135941666Y-198852438D01*
X136003571Y-198914342D01*
X136065476Y-199038152D01*
X136065476Y-199347676D01*
X136003571Y-199471485D01*
X135941666Y-199533390D01*
X135817857Y-199595295D01*
X135446428Y-199595295D01*
X135322619Y-199533390D01*
X135260714Y-199471485D01*
D10*
D11*
X185941666Y-198728628D02*
X185941666Y-199595295D01*
X185632142Y-198233390D02*
X185322619Y-199161961D01*
X186127380Y-199161961D01*
D10*
D11*
X236003571Y-198295295D02*
X235384523Y-198295295D01*
X235322619Y-198914342D01*
X235384523Y-198852438D01*
X235508333Y-198790533D01*
X235817857Y-198790533D01*
X235941666Y-198852438D01*
X236003571Y-198914342D01*
X236065476Y-199038152D01*
X236065476Y-199347676D01*
X236003571Y-199471485D01*
X235941666Y-199533390D01*
X235817857Y-199595295D01*
X235508333Y-199595295D01*
X235384523Y-199533390D01*
X235322619Y-199471485D01*
D10*
D11*
X285941666Y-198295295D02*
X285694047Y-198295295D01*
X285570238Y-198357200D01*
X285508333Y-198419104D01*
X285384523Y-198604819D01*
X285322619Y-198852438D01*
X285322619Y-199347676D01*
X285384523Y-199471485D01*
X285446428Y-199533390D01*
X285570238Y-199595295D01*
X285817857Y-199595295D01*
X285941666Y-199533390D01*
X286003571Y-199471485D01*
X286065476Y-199347676D01*
X286065476Y-199038152D01*
X286003571Y-198914342D01*
X285941666Y-198852438D01*
X285817857Y-198790533D01*
X285570238Y-198790533D01*
X285446428Y-198852438D01*
X285384523Y-198914342D01*
X285322619Y-199038152D01*
D10*
D11*
X10000000Y-60000000D02*
X12000000Y-60000000D01*
D10*
D11*
X10000000Y-110000000D02*
X12000000Y-110000000D01*
D10*
D11*
X10000000Y-160000000D02*
X12000000Y-160000000D01*
D10*
D11*
X10690476Y-35216666D02*
X11309523Y-35216666D01*
X10566666Y-35588095D02*
X11000000Y-34288095D01*
X11433333Y-35588095D01*
D10*
D11*
X11092857Y-84907142D02*
X11278571Y-84969047D01*
X11340476Y-85030952D01*
X11402380Y-85154761D01*
X11402380Y-85340476D01*
X11340476Y-85464285D01*
X11278571Y-85526190D01*
X11154761Y-85588095D01*
X10659523Y-85588095D01*
X10659523Y-84288095D01*
X11092857Y-84288095D01*
X11216666Y-84350000D01*
X11278571Y-84411904D01*
X11340476Y-84535714D01*
X11340476Y-84659523D01*
X11278571Y-84783333D01*
X11216666Y-84845238D01*
X11092857Y-84907142D01*
X10659523Y-84907142D01*
D10*
D11*
X11402380Y-135464285D02*
X11340476Y-135526190D01*
X11154761Y-135588095D01*
X11030952Y-135588095D01*
X10845238Y-135526190D01*
X10721428Y-135402380D01*
X10659523Y-135278571D01*
X10597619Y-135030952D01*
X10597619Y-134845238D01*
X10659523Y-134597619D01*
X10721428Y-134473809D01*
X10845238Y-134350000D01*
X11030952Y-134288095D01*
X11154761Y-134288095D01*
X11340476Y-134350000D01*
X11402380Y-134411904D01*
D10*
D11*
X10659523Y-185588095D02*
X10659523Y-184288095D01*
X10969047Y-184288095D01*
X11154761Y-184350000D01*
X11278571Y-184473809D01*
X11340476Y-184597619D01*
X11402380Y-184845238D01*
X11402380Y-185030952D01*
X11340476Y-185278571D01*
X11278571Y-185402380D01*
X11154761Y-185526190D01*
X10969047Y-185588095D01*
X10659523Y-185588095D01*
D10*
D11*
X287002200Y-60000000D02*
X285002200Y-60000000D01*
D10*
D11*
X287002200Y-110000000D02*
X285002200Y-110000000D01*
D10*
D11*
X287002200Y-160000000D02*
X285002200Y-160000000D01*
D10*
D11*
X285692676Y-35216666D02*
X286311723Y-35216666D01*
X285568866Y-35588095D02*
X286002200Y-34288095D01*
X286435533Y-35588095D01*
D10*
D11*
X286095057Y-84907142D02*
X286280771Y-84969047D01*
X286342676Y-85030952D01*
X286404580Y-85154761D01*
X286404580Y-85340476D01*
X286342676Y-85464285D01*
X286280771Y-85526190D01*
X286156961Y-85588095D01*
X285661723Y-85588095D01*
X285661723Y-84288095D01*
X286095057Y-84288095D01*
X286218866Y-84350000D01*
X286280771Y-84411904D01*
X286342676Y-84535714D01*
X286342676Y-84659523D01*
X286280771Y-84783333D01*
X286218866Y-84845238D01*
X286095057Y-84907142D01*
X285661723Y-84907142D01*
D10*
D11*
X286404580Y-135464285D02*
X286342676Y-135526190D01*
X286156961Y-135588095D01*
X286033152Y-135588095D01*
X285847438Y-135526190D01*
X285723628Y-135402380D01*
X285661723Y-135278571D01*
X285599819Y-135030952D01*
X285599819Y-134845238D01*
X285661723Y-134597619D01*
X285723628Y-134473809D01*
X285847438Y-134350000D01*
X286033152Y-134288095D01*
X286156961Y-134288095D01*
X286342676Y-134350000D01*
X286404580Y-134411904D01*
D10*
D11*
X285661723Y-185588095D02*
X285661723Y-184288095D01*
X285971247Y-184288095D01*
X286156961Y-184350000D01*
X286280771Y-184473809D01*
X286342676Y-184597619D01*
X286404580Y-184845238D01*
X286404580Y-185030952D01*
X286342676Y-185278571D01*
X286280771Y-185402380D01*
X286156961Y-185526190D01*
X285971247Y-185588095D01*
X285661723Y-185588095D01*
D10*
D11*
X200434342Y-193785771D02*
X200434342Y-192285771D01*
X200791485Y-192285771D01*
X201005771Y-192357200D01*
X201148628Y-192500057D01*
X201220057Y-192642914D01*
X201291485Y-192928628D01*
X201291485Y-193142914D01*
X201220057Y-193428628D01*
X201148628Y-193571485D01*
X201005771Y-193714342D01*
X200791485Y-193785771D01*
X200434342Y-193785771D01*
X202577200Y-193785771D02*
X202577200Y-193000057D01*
X202505771Y-192857200D01*
X202362914Y-192785771D01*
X202077200Y-192785771D01*
X201934342Y-192857200D01*
X202577200Y-193714342D02*
X202434342Y-193785771D01*
X202077200Y-193785771D01*
X201934342Y-193714342D01*
X201862914Y-193571485D01*
X201862914Y-193428628D01*
X201934342Y-193285771D01*
X202077200Y-193214342D01*
X202434342Y-193214342D01*
X202577200Y-193142914D01*
X203077200Y-192785771D02*
X203648628Y-192785771D01*
X203291485Y-192285771D02*
X203291485Y-193571485D01*
X203362914Y-193714342D01*
X203505771Y-193785771D01*
X203648628Y-193785771D01*
X204720057Y-193714342D02*
X204577200Y-193785771D01*
X204291485Y-193785771D01*
X204148628Y-193714342D01*
X204077200Y-193571485D01*
X204077200Y-193000057D01*
X204148628Y-192857200D01*
X204291485Y-192785771D01*
X204577200Y-192785771D01*
X204720057Y-192857200D01*
X204791485Y-193000057D01*
X204791485Y-193142914D01*
X204077200Y-193285771D01*
X205434342Y-193642914D02*
X205505771Y-193714342D01*
X205434342Y-193785771D01*
X205362914Y-193714342D01*
X205434342Y-193642914D01*
X205434342Y-193785771D01*
X205434342Y-192857200D02*
X205505771Y-192928628D01*
X205434342Y-193000057D01*
X205362914Y-192928628D01*
X205434342Y-192857200D01*
X205434342Y-193000057D01*
D10*
D11*
X177002200Y-194507200D02*
X285002200Y-194507200D01*
D10*
D11*
X178434342Y-196585771D02*
X178434342Y-195085771D01*
X179291485Y-196585771D02*
X178648628Y-195728628D01*
X179291485Y-195085771D02*
X178434342Y-195942914D01*
X179934342Y-196585771D02*
X179934342Y-195585771D01*
X179934342Y-195085771D02*
X179862914Y-195157200D01*
X179934342Y-195228628D01*
X180005771Y-195157200D01*
X179934342Y-195085771D01*
X179934342Y-195228628D01*
X181505771Y-196442914D02*
X181434342Y-196514342D01*
X181220057Y-196585771D01*
X181077200Y-196585771D01*
X180862914Y-196514342D01*
X180720057Y-196371485D01*
X180648628Y-196228628D01*
X180577200Y-195942914D01*
X180577200Y-195728628D01*
X180648628Y-195442914D01*
X180720057Y-195300057D01*
X180862914Y-195157200D01*
X181077200Y-195085771D01*
X181220057Y-195085771D01*
X181434342Y-195157200D01*
X181505771Y-195228628D01*
X182791485Y-196585771D02*
X182791485Y-195800057D01*
X182720057Y-195657200D01*
X182577200Y-195585771D01*
X182291485Y-195585771D01*
X182148628Y-195657200D01*
X182791485Y-196514342D02*
X182648628Y-196585771D01*
X182291485Y-196585771D01*
X182148628Y-196514342D01*
X182077200Y-196371485D01*
X182077200Y-196228628D01*
X182148628Y-196085771D01*
X182291485Y-196014342D01*
X182648628Y-196014342D01*
X182791485Y-195942914D01*
X184148628Y-196585771D02*
X184148628Y-195085771D01*
X184148628Y-196514342D02*
X184005771Y-196585771D01*
X183720057Y-196585771D01*
X183577200Y-196514342D01*
X183505771Y-196442914D01*
X183434342Y-196300057D01*
X183434342Y-195871485D01*
X183505771Y-195728628D01*
X183577200Y-195657200D01*
X183720057Y-195585771D01*
X184005771Y-195585771D01*
X184148628Y-195657200D01*
X186005771Y-195800057D02*
X186505771Y-195800057D01*
X186720057Y-196585771D02*
X186005771Y-196585771D01*
X186005771Y-195085771D01*
X186720057Y-195085771D01*
X187362914Y-196442914D02*
X187434342Y-196514342D01*
X187362914Y-196585771D01*
X187291485Y-196514342D01*
X187362914Y-196442914D01*
X187362914Y-196585771D01*
X188077200Y-196585771D02*
X188077200Y-195085771D01*
X188434342Y-195085771D01*
X188648628Y-195157200D01*
X188791485Y-195300057D01*
X188862914Y-195442914D01*
X188934342Y-195728628D01*
X188934342Y-195942914D01*
X188862914Y-196228628D01*
X188791485Y-196371485D01*
X188648628Y-196514342D01*
X188434342Y-196585771D01*
X188077200Y-196585771D01*
X189577200Y-196442914D02*
X189648628Y-196514342D01*
X189577200Y-196585771D01*
X189505771Y-196514342D01*
X189577200Y-196442914D01*
X189577200Y-196585771D01*
X190220057Y-196157200D02*
X190934342Y-196157200D01*
X190077200Y-196585771D02*
X190577200Y-195085771D01*
X191077200Y-196585771D01*
X191577200Y-196442914D02*
X191648628Y-196514342D01*
X191577200Y-196585771D01*
X191505771Y-196514342D01*
X191577200Y-196442914D01*
X191577200Y-196585771D01*
X194577200Y-196585771D02*
X194577200Y-195085771D01*
X194720057Y-196014342D02*
X195148628Y-196585771D01*
X195148628Y-195585771D02*
X194577200Y-196157200D01*
X195791485Y-196585771D02*
X195791485Y-195585771D01*
X195791485Y-195085771D02*
X195720057Y-195157200D01*
X195791485Y-195228628D01*
X195862914Y-195157200D01*
X195791485Y-195085771D01*
X195791485Y-195228628D01*
X197148628Y-196514342D02*
X197005771Y-196585771D01*
X196720057Y-196585771D01*
X196577200Y-196514342D01*
X196505771Y-196442914D01*
X196434342Y-196300057D01*
X196434342Y-195871485D01*
X196505771Y-195728628D01*
X196577200Y-195657200D01*
X196720057Y-195585771D01*
X197005771Y-195585771D01*
X197148628Y-195657200D01*
X198434342Y-196585771D02*
X198434342Y-195800057D01*
X198362914Y-195657200D01*
X198220057Y-195585771D01*
X197934342Y-195585771D01*
X197791485Y-195657200D01*
X198434342Y-196514342D02*
X198291485Y-196585771D01*
X197934342Y-196585771D01*
X197791485Y-196514342D01*
X197720057Y-196371485D01*
X197720057Y-196228628D01*
X197791485Y-196085771D01*
X197934342Y-196014342D01*
X198291485Y-196014342D01*
X198434342Y-195942914D01*
X199791485Y-196585771D02*
X199791485Y-195085771D01*
X199791485Y-196514342D02*
X199648628Y-196585771D01*
X199362914Y-196585771D01*
X199220057Y-196514342D01*
X199148628Y-196442914D01*
X199077200Y-196300057D01*
X199077200Y-195871485D01*
X199148628Y-195728628D01*
X199220057Y-195657200D01*
X199362914Y-195585771D01*
X199648628Y-195585771D01*
X199791485Y-195657200D01*
X202077200Y-197157200D02*
X202005771Y-197085771D01*
X201862914Y-196871485D01*
X201791485Y-196728628D01*
X201720057Y-196514342D01*
X201648628Y-196157200D01*
X201648628Y-195871485D01*
X201720057Y-195514342D01*
X201791485Y-195300057D01*
X201862914Y-195157200D01*
X202005771Y-194942914D01*
X202077200Y-194871485D01*
X203362914Y-195085771D02*
X202648628Y-195085771D01*
X202577200Y-195800057D01*
X202648628Y-195728628D01*
X202791485Y-195657200D01*
X203148628Y-195657200D01*
X203291485Y-195728628D01*
X203362914Y-195800057D01*
X203434342Y-195942914D01*
X203434342Y-196300057D01*
X203362914Y-196442914D01*
X203291485Y-196514342D01*
X203148628Y-196585771D01*
X202791485Y-196585771D01*
X202648628Y-196514342D01*
X202577200Y-196442914D01*
X204077200Y-196442914D02*
X204148628Y-196514342D01*
X204077200Y-196585771D01*
X204005771Y-196514342D01*
X204077200Y-196442914D01*
X204077200Y-196585771D01*
X205577200Y-196585771D02*
X204720057Y-196585771D01*
X205148628Y-196585771D02*
X205148628Y-195085771D01*
X205005771Y-195300057D01*
X204862914Y-195442914D01*
X204720057Y-195514342D01*
X206220057Y-196442914D02*
X206291485Y-196514342D01*
X206220057Y-196585771D01*
X206148628Y-196514342D01*
X206220057Y-196442914D01*
X206220057Y-196585771D01*
X207148628Y-195728628D02*
X207005771Y-195657200D01*
X206934342Y-195585771D01*
X206862914Y-195442914D01*
X206862914Y-195371485D01*
X206934342Y-195228628D01*
X207005771Y-195157200D01*
X207148628Y-195085771D01*
X207434342Y-195085771D01*
X207577200Y-195157200D01*
X207648628Y-195228628D01*
X207720057Y-195371485D01*
X207720057Y-195442914D01*
X207648628Y-195585771D01*
X207577200Y-195657200D01*
X207434342Y-195728628D01*
X207148628Y-195728628D01*
X207005771Y-195800057D01*
X206934342Y-195871485D01*
X206862914Y-196014342D01*
X206862914Y-196300057D01*
X206934342Y-196442914D01*
X207005771Y-196514342D01*
X207148628Y-196585771D01*
X207434342Y-196585771D01*
X207577200Y-196514342D01*
X207648628Y-196442914D01*
X207720057Y-196300057D01*
X207720057Y-196014342D01*
X207648628Y-195871485D01*
X207577200Y-195800057D01*
X207434342Y-195728628D01*
X208220057Y-197157200D02*
X208291485Y-197085771D01*
X208434342Y-196871485D01*
X208505771Y-196728628D01*
X208577200Y-196514342D01*
X208648628Y-196157200D01*
X208648628Y-195871485D01*
X208577200Y-195514342D01*
X208505771Y-195300057D01*
X208434342Y-195157200D01*
X208291485Y-194942914D01*
X208220057Y-194871485D01*
X209362914Y-196014342D02*
X210505771Y-196014342D01*
X212005771Y-196585771D02*
X211148628Y-196585771D01*
X211577200Y-196585771D02*
X211577200Y-195085771D01*
X211434342Y-195300057D01*
X211291485Y-195442914D01*
X211148628Y-195514342D01*
D10*
D11*
X177002200Y-191507200D02*
X285002200Y-191507200D01*
D10*
D12*
X264411485Y-193785771D02*
X263911485Y-193071485D01*
X263554342Y-193785771D02*
X263554342Y-192285771D01*
X264125771Y-192285771D01*
X264268628Y-192357200D01*
X264340057Y-192428628D01*
X264411485Y-192571485D01*
X264411485Y-192785771D01*
X264340057Y-192928628D01*
X264268628Y-193000057D01*
X264125771Y-193071485D01*
X263554342Y-193071485D01*
X265625771Y-193714342D02*
X265482914Y-193785771D01*
X265197200Y-193785771D01*
X265054342Y-193714342D01*
X264982914Y-193571485D01*
X264982914Y-193000057D01*
X265054342Y-192857200D01*
X265197200Y-192785771D01*
X265482914Y-192785771D01*
X265625771Y-192857200D01*
X265697200Y-193000057D01*
X265697200Y-193142914D01*
X264982914Y-193285771D01*
X266197200Y-192785771D02*
X266554342Y-193785771D01*
X266911485Y-192785771D01*
X267482914Y-193642914D02*
X267554342Y-193714342D01*
X267482914Y-193785771D01*
X267411485Y-193714342D01*
X267482914Y-193642914D01*
X267482914Y-193785771D01*
X267482914Y-192857200D02*
X267554342Y-192928628D01*
X267482914Y-193000057D01*
X267411485Y-192928628D01*
X267482914Y-192857200D01*
X267482914Y-193000057D01*
D10*
D11*
X178362914Y-193714342D02*
X178577200Y-193785771D01*
X178934342Y-193785771D01*
X179077200Y-193714342D01*
X179148628Y-193642914D01*
X179220057Y-193500057D01*
X179220057Y-193357200D01*
X179148628Y-193214342D01*
X179077200Y-193142914D01*
X178934342Y-193071485D01*
X178648628Y-193000057D01*
X178505771Y-192928628D01*
X178434342Y-192857200D01*
X178362914Y-192714342D01*
X178362914Y-192571485D01*
X178434342Y-192428628D01*
X178505771Y-192357200D01*
X178648628Y-192285771D01*
X179005771Y-192285771D01*
X179220057Y-192357200D01*
X179862914Y-193785771D02*
X179862914Y-192785771D01*
X179862914Y-192285771D02*
X179791485Y-192357200D01*
X179862914Y-192428628D01*
X179934342Y-192357200D01*
X179862914Y-192285771D01*
X179862914Y-192428628D01*
X180434342Y-192785771D02*
X181220057Y-192785771D01*
X180434342Y-193785771D01*
X181220057Y-193785771D01*
X182362914Y-193714342D02*
X182220057Y-193785771D01*
X181934342Y-193785771D01*
X181791485Y-193714342D01*
X181720057Y-193571485D01*
X181720057Y-193000057D01*
X181791485Y-192857200D01*
X181934342Y-192785771D01*
X182220057Y-192785771D01*
X182362914Y-192857200D01*
X182434342Y-193000057D01*
X182434342Y-193142914D01*
X181720057Y-193285771D01*
X183077200Y-193642914D02*
X183148628Y-193714342D01*
X183077200Y-193785771D01*
X183005771Y-193714342D01*
X183077200Y-193642914D01*
X183077200Y-193785771D01*
X183077200Y-192857200D02*
X183148628Y-192928628D01*
X183077200Y-193000057D01*
X183005771Y-192928628D01*
X183077200Y-192857200D01*
X183077200Y-193000057D01*
X184862914Y-193357200D02*
X185577200Y-193357200D01*
X184720057Y-193785771D02*
X185220057Y-192285771D01*
X185720057Y-193785771D01*
X186862914Y-192785771D02*
X186862914Y-193785771D01*
X186505771Y-192214342D02*
X186148628Y-193285771D01*
X187077200Y-193285771D01*
D10*
D11*
X263434342Y-196585771D02*
X263434342Y-195085771D01*
X264791485Y-196585771D02*
X264791485Y-195085771D01*
X264791485Y-196514342D02*
X264648628Y-196585771D01*
X264362914Y-196585771D01*
X264220057Y-196514342D01*
X264148628Y-196442914D01*
X264077200Y-196300057D01*
X264077200Y-195871485D01*
X264148628Y-195728628D01*
X264220057Y-195657200D01*
X264362914Y-195585771D01*
X264648628Y-195585771D01*
X264791485Y-195657200D01*
X265505771Y-196442914D02*
X265577200Y-196514342D01*
X265505771Y-196585771D01*
X265434342Y-196514342D01*
X265505771Y-196442914D01*
X265505771Y-196585771D01*
X265505771Y-195657200D02*
X265577200Y-195728628D01*
X265505771Y-195800057D01*
X265434342Y-195728628D01*
X265505771Y-195657200D01*
X265505771Y-195800057D01*
X268148628Y-196585771D02*
X267291485Y-196585771D01*
X267720057Y-196585771D02*
X267720057Y-195085771D01*
X267577200Y-195300057D01*
X267434342Y-195442914D01*
X267291485Y-195514342D01*
X269862914Y-195014342D02*
X268577200Y-196942914D01*
X271148628Y-196585771D02*
X270291485Y-196585771D01*
X270720057Y-196585771D02*
X270720057Y-195085771D01*
X270577200Y-195300057D01*
X270434342Y-195442914D01*
X270291485Y-195514342D01*
D10*
D11*
X177002200Y-187507200D02*
X285002200Y-187507200D01*
D10*
D13*
X178714580Y-188211961D02*
X179857438Y-188211961D01*
X179036009Y-190211961D02*
X179286009Y-188211961D01*
X180274104Y-190211961D02*
X180440771Y-188878628D01*
X180524104Y-188211961D02*
X180416961Y-188307200D01*
X180500295Y-188402438D01*
X180607438Y-188307200D01*
X180524104Y-188211961D01*
X180500295Y-188402438D01*
X181107438Y-188878628D02*
X181869342Y-188878628D01*
X181476485Y-188211961D02*
X181262200Y-189926247D01*
X181333628Y-190116723D01*
X181512200Y-190211961D01*
X181702676Y-190211961D01*
X182655057Y-190211961D02*
X182476485Y-190116723D01*
X182405057Y-189926247D01*
X182619342Y-188211961D01*
X184190771Y-190116723D02*
X183988390Y-190211961D01*
X183607438Y-190211961D01*
X183428866Y-190116723D01*
X183357438Y-189926247D01*
X183452676Y-189164342D01*
X183571723Y-188973866D01*
X183774104Y-188878628D01*
X184155057Y-188878628D01*
X184333628Y-188973866D01*
X184405057Y-189164342D01*
X184381247Y-189354819D01*
X183405057Y-189545295D01*
X185155057Y-190021485D02*
X185238390Y-190116723D01*
X185131247Y-190211961D01*
X185047914Y-190116723D01*
X185155057Y-190021485D01*
X185131247Y-190211961D01*
X185286009Y-188973866D02*
X185369342Y-189069104D01*
X185262200Y-189164342D01*
X185178866Y-189069104D01*
X185286009Y-188973866D01*
X185262200Y-189164342D01*
D10*
D11*
X178934342Y-185600057D02*
X178434342Y-185600057D01*
X178434342Y-186385771D02*
X178434342Y-184885771D01*
X179148628Y-184885771D01*
X179720057Y-186385771D02*
X179720057Y-185385771D01*
X179720057Y-184885771D02*
X179648628Y-184957200D01*
X179720057Y-185028628D01*
X179791485Y-184957200D01*
X179720057Y-184885771D01*
X179720057Y-185028628D01*
X180648628Y-186385771D02*
X180505771Y-186314342D01*
X180434342Y-186171485D01*
X180434342Y-184885771D01*
X181791485Y-186314342D02*
X181648628Y-186385771D01*
X181362914Y-186385771D01*
X181220057Y-186314342D01*
X181148628Y-186171485D01*
X181148628Y-185600057D01*
X181220057Y-185457200D01*
X181362914Y-185385771D01*
X181648628Y-185385771D01*
X181791485Y-185457200D01*
X181862914Y-185600057D01*
X181862914Y-185742914D01*
X181148628Y-185885771D01*
X182505771Y-186242914D02*
X182577200Y-186314342D01*
X182505771Y-186385771D01*
X182434342Y-186314342D01*
X182505771Y-186242914D01*
X182505771Y-186385771D01*
X182505771Y-185457200D02*
X182577200Y-185528628D01*
X182505771Y-185600057D01*
X182434342Y-185528628D01*
X182505771Y-185457200D01*
X182505771Y-185600057D01*
X184362914Y-186385771D02*
X184362914Y-185385771D01*
X184362914Y-185671485D02*
X184434342Y-185528628D01*
X184505771Y-185457200D01*
X184648628Y-185385771D01*
X184791485Y-185385771D01*
X185934342Y-186385771D02*
X185934342Y-185600057D01*
X185862914Y-185457200D01*
X185720057Y-185385771D01*
X185434342Y-185385771D01*
X185291485Y-185457200D01*
X185934342Y-186314342D02*
X185791485Y-186385771D01*
X185434342Y-186385771D01*
X185291485Y-186314342D01*
X185220057Y-186171485D01*
X185220057Y-186028628D01*
X185291485Y-185885771D01*
X185434342Y-185814342D01*
X185791485Y-185814342D01*
X185934342Y-185742914D01*
X187291485Y-186385771D02*
X187291485Y-184885771D01*
X187291485Y-186314342D02*
X187148628Y-186385771D01*
X186862914Y-186385771D01*
X186720057Y-186314342D01*
X186648628Y-186242914D01*
X186577200Y-186100057D01*
X186577200Y-185671485D01*
X186648628Y-185528628D01*
X186720057Y-185457200D01*
X186862914Y-185385771D01*
X187148628Y-185385771D01*
X187291485Y-185457200D01*
X188005771Y-186385771D02*
X188005771Y-185385771D01*
X188005771Y-184885771D02*
X187934342Y-184957200D01*
X188005771Y-185028628D01*
X188077200Y-184957200D01*
X188005771Y-184885771D01*
X188005771Y-185028628D01*
X188934342Y-186385771D02*
X188791485Y-186314342D01*
X188720057Y-186242914D01*
X188648628Y-186100057D01*
X188648628Y-185671485D01*
X188720057Y-185528628D01*
X188791485Y-185457200D01*
X188934342Y-185385771D01*
X189148628Y-185385771D01*
X189291485Y-185457200D01*
X189362914Y-185528628D01*
X189434342Y-185671485D01*
X189434342Y-186100057D01*
X189362914Y-186242914D01*
X189291485Y-186314342D01*
X189148628Y-186385771D01*
X188934342Y-186385771D01*
X190077200Y-186385771D02*
X190077200Y-184885771D01*
X190077200Y-185457200D02*
X190220057Y-185385771D01*
X190505771Y-185385771D01*
X190648628Y-185457200D01*
X190720057Y-185528628D01*
X190791485Y-185671485D01*
X190791485Y-186100057D01*
X190720057Y-186242914D01*
X190648628Y-186314342D01*
X190505771Y-186385771D01*
X190220057Y-186385771D01*
X190077200Y-186314342D01*
X192005771Y-186314342D02*
X191862914Y-186385771D01*
X191577200Y-186385771D01*
X191434342Y-186314342D01*
X191362914Y-186171485D01*
X191362914Y-185600057D01*
X191434342Y-185457200D01*
X191577200Y-185385771D01*
X191862914Y-185385771D01*
X192005771Y-185457200D01*
X192077200Y-185600057D01*
X192077200Y-185742914D01*
X191362914Y-185885771D01*
X192720057Y-186385771D02*
X192720057Y-185385771D01*
X192720057Y-185671485D02*
X192791485Y-185528628D01*
X192862914Y-185457200D01*
X193005771Y-185385771D01*
X193148628Y-185385771D01*
X193648628Y-186385771D02*
X193648628Y-185385771D01*
X193648628Y-185671485D02*
X193720057Y-185528628D01*
X193791485Y-185457200D01*
X193934342Y-185385771D01*
X194077200Y-185385771D01*
X194434342Y-185385771D02*
X194791485Y-186385771D01*
X195148628Y-185385771D02*
X194791485Y-186385771D01*
X194648628Y-186742914D01*
X194577200Y-186814342D01*
X194434342Y-186885771D01*
X195720057Y-185814342D02*
X196862914Y-185814342D01*
X197577200Y-185385771D02*
X197577200Y-186885771D01*
X197577200Y-185457200D02*
X197720057Y-185385771D01*
X198005771Y-185385771D01*
X198148628Y-185457200D01*
X198220057Y-185528628D01*
X198291485Y-185671485D01*
X198291485Y-186100057D01*
X198220057Y-186242914D01*
X198148628Y-186314342D01*
X198005771Y-186385771D01*
X197720057Y-186385771D01*
X197577200Y-186314342D01*
X198934342Y-186385771D02*
X198934342Y-185385771D01*
X198934342Y-185671485D02*
X199005771Y-185528628D01*
X199077200Y-185457200D01*
X199220057Y-185385771D01*
X199362914Y-185385771D01*
X200434342Y-186314342D02*
X200291485Y-186385771D01*
X200005771Y-186385771D01*
X199862914Y-186314342D01*
X199791485Y-186171485D01*
X199791485Y-185600057D01*
X199862914Y-185457200D01*
X200005771Y-185385771D01*
X200291485Y-185385771D01*
X200434342Y-185457200D01*
X200505771Y-185600057D01*
X200505771Y-185742914D01*
X199791485Y-185885771D01*
X201791485Y-186385771D02*
X201791485Y-185600057D01*
X201720057Y-185457200D01*
X201577200Y-185385771D01*
X201291485Y-185385771D01*
X201148628Y-185457200D01*
X201791485Y-186314342D02*
X201648628Y-186385771D01*
X201291485Y-186385771D01*
X201148628Y-186314342D01*
X201077200Y-186171485D01*
X201077200Y-186028628D01*
X201148628Y-185885771D01*
X201291485Y-185814342D01*
X201648628Y-185814342D01*
X201791485Y-185742914D01*
X202505771Y-186385771D02*
X202505771Y-185385771D01*
X202505771Y-185528628D02*
X202577200Y-185457200D01*
X202720057Y-185385771D01*
X202934342Y-185385771D01*
X203077200Y-185457200D01*
X203148628Y-185600057D01*
X203148628Y-186385771D01*
X203148628Y-185600057D02*
X203220057Y-185457200D01*
X203362914Y-185385771D01*
X203577200Y-185385771D01*
X203720057Y-185457200D01*
X203791485Y-185600057D01*
X203791485Y-186385771D01*
X204505771Y-185385771D02*
X204505771Y-186885771D01*
X204505771Y-185457200D02*
X204648628Y-185385771D01*
X204934342Y-185385771D01*
X205077200Y-185457200D01*
X205148628Y-185528628D01*
X205220057Y-185671485D01*
X205220057Y-186100057D01*
X205148628Y-186242914D01*
X205077200Y-186314342D01*
X204934342Y-186385771D01*
X204648628Y-186385771D01*
X204505771Y-186314342D01*
X205862914Y-186242914D02*
X205934342Y-186314342D01*
X205862914Y-186385771D01*
X205791485Y-186314342D01*
X205862914Y-186242914D01*
X205862914Y-186385771D01*
X206577200Y-186385771D02*
X206577200Y-184885771D01*
X206720057Y-185814342D02*
X207148628Y-186385771D01*
X207148628Y-185385771D02*
X206577200Y-185957200D01*
X207791485Y-186385771D02*
X207791485Y-185385771D01*
X207791485Y-184885771D02*
X207720057Y-184957200D01*
X207791485Y-185028628D01*
X207862914Y-184957200D01*
X207791485Y-184885771D01*
X207791485Y-185028628D01*
X209148628Y-186314342D02*
X209005771Y-186385771D01*
X208720057Y-186385771D01*
X208577200Y-186314342D01*
X208505771Y-186242914D01*
X208434342Y-186100057D01*
X208434342Y-185671485D01*
X208505771Y-185528628D01*
X208577200Y-185457200D01*
X208720057Y-185385771D01*
X209005771Y-185385771D01*
X209148628Y-185457200D01*
X210434342Y-186385771D02*
X210434342Y-185600057D01*
X210362914Y-185457200D01*
X210220057Y-185385771D01*
X209934342Y-185385771D01*
X209791485Y-185457200D01*
X210434342Y-186314342D02*
X210291485Y-186385771D01*
X209934342Y-186385771D01*
X209791485Y-186314342D01*
X209720057Y-186171485D01*
X209720057Y-186028628D01*
X209791485Y-185885771D01*
X209934342Y-185814342D01*
X210291485Y-185814342D01*
X210434342Y-185742914D01*
X211791485Y-186385771D02*
X211791485Y-184885771D01*
X211791485Y-186314342D02*
X211648628Y-186385771D01*
X211362914Y-186385771D01*
X211220057Y-186314342D01*
X211148628Y-186242914D01*
X211077200Y-186100057D01*
X211077200Y-185671485D01*
X211148628Y-185528628D01*
X211220057Y-185457200D01*
X211362914Y-185385771D01*
X211648628Y-185385771D01*
X211791485Y-185457200D01*
X212148628Y-186528628D02*
X213291485Y-186528628D01*
X213648628Y-185385771D02*
X213648628Y-186885771D01*
X213648628Y-185457200D02*
X213791485Y-185385771D01*
X214077200Y-185385771D01*
X214220057Y-185457200D01*
X214291485Y-185528628D01*
X214362914Y-185671485D01*
X214362914Y-186100057D01*
X214291485Y-186242914D01*
X214220057Y-186314342D01*
X214077200Y-186385771D01*
X213791485Y-186385771D01*
X213648628Y-186314342D01*
X215648628Y-186314342D02*
X215505771Y-186385771D01*
X215220057Y-186385771D01*
X215077200Y-186314342D01*
X215005771Y-186242914D01*
X214934342Y-186100057D01*
X214934342Y-185671485D01*
X215005771Y-185528628D01*
X215077200Y-185457200D01*
X215220057Y-185385771D01*
X215505771Y-185385771D01*
X215648628Y-185457200D01*
X216291485Y-186385771D02*
X216291485Y-184885771D01*
X216291485Y-185457200D02*
X216434342Y-185385771D01*
X216720057Y-185385771D01*
X216862914Y-185457200D01*
X216934342Y-185528628D01*
X217005771Y-185671485D01*
X217005771Y-186100057D01*
X216934342Y-186242914D01*
X216862914Y-186314342D01*
X216720057Y-186385771D01*
X216434342Y-186385771D01*
X216291485Y-186314342D01*
D10*
D11*
X177002200Y-181507200D02*
X285002200Y-181507200D01*
D10*
D11*
X178362914Y-183614342D02*
X178577200Y-183685771D01*
X178934342Y-183685771D01*
X179077200Y-183614342D01*
X179148628Y-183542914D01*
X179220057Y-183400057D01*
X179220057Y-183257200D01*
X179148628Y-183114342D01*
X179077200Y-183042914D01*
X178934342Y-182971485D01*
X178648628Y-182900057D01*
X178505771Y-182828628D01*
X178434342Y-182757200D01*
X178362914Y-182614342D01*
X178362914Y-182471485D01*
X178434342Y-182328628D01*
X178505771Y-182257200D01*
X178648628Y-182185771D01*
X179005771Y-182185771D01*
X179220057Y-182257200D01*
X179862914Y-183685771D02*
X179862914Y-182185771D01*
X180505771Y-183685771D02*
X180505771Y-182900057D01*
X180434342Y-182757200D01*
X180291485Y-182685771D01*
X180077200Y-182685771D01*
X179934342Y-182757200D01*
X179862914Y-182828628D01*
X181791485Y-183614342D02*
X181648628Y-183685771D01*
X181362914Y-183685771D01*
X181220057Y-183614342D01*
X181148628Y-183471485D01*
X181148628Y-182900057D01*
X181220057Y-182757200D01*
X181362914Y-182685771D01*
X181648628Y-182685771D01*
X181791485Y-182757200D01*
X181862914Y-182900057D01*
X181862914Y-183042914D01*
X181148628Y-183185771D01*
X183077200Y-183614342D02*
X182934342Y-183685771D01*
X182648628Y-183685771D01*
X182505771Y-183614342D01*
X182434342Y-183471485D01*
X182434342Y-182900057D01*
X182505771Y-182757200D01*
X182648628Y-182685771D01*
X182934342Y-182685771D01*
X183077200Y-182757200D01*
X183148628Y-182900057D01*
X183148628Y-183042914D01*
X182434342Y-183185771D01*
X183577200Y-182685771D02*
X184148628Y-182685771D01*
X183791485Y-182185771D02*
X183791485Y-183471485D01*
X183862914Y-183614342D01*
X184005771Y-183685771D01*
X184148628Y-183685771D01*
X184648628Y-183542914D02*
X184720057Y-183614342D01*
X184648628Y-183685771D01*
X184577200Y-183614342D01*
X184648628Y-183542914D01*
X184648628Y-183685771D01*
X184648628Y-182757200D02*
X184720057Y-182828628D01*
X184648628Y-182900057D01*
X184577200Y-182828628D01*
X184648628Y-182757200D01*
X184648628Y-182900057D01*
D10*
D11*
X197002200Y-191507200D02*
X197002200Y-194507200D01*
D10*
D11*
X261002200Y-191507200D02*
X261002200Y-198007200D01*
D14*
%TO.C,JP201*%
X121205000Y-126540000D02*
X119935000Y-126540000D01*
X119300000Y-122095000D02*
X119300000Y-125905000D01*
X121840000Y-125905000D02*
X121205000Y-126540000D01*
X119300000Y-125905000D02*
X119935000Y-126540000D01*
X119935000Y-121460000D02*
X119300000Y-122095000D01*
X121205000Y-121460000D02*
X119935000Y-121460000D01*
X121840000Y-122095000D02*
X121205000Y-121460000D01*
X144065000Y-126540000D02*
X142795000Y-126540000D01*
X141525000Y-126540000D02*
X140255000Y-126540000D01*
X138985000Y-126540000D02*
X137715000Y-126540000D01*
X136445000Y-126540000D02*
X135175000Y-126540000D01*
X133905000Y-126540000D02*
X132635000Y-126540000D01*
X131365000Y-126540000D02*
X130095000Y-126540000D01*
X128825000Y-126540000D02*
X127555000Y-126540000D01*
X126285000Y-126540000D02*
X125015000Y-126540000D01*
X123745000Y-126540000D02*
X122475000Y-126540000D01*
X121840000Y-122095000D02*
X121840000Y-125905000D01*
X124380000Y-122095000D02*
X124380000Y-125905000D01*
X126920000Y-122095000D02*
X126920000Y-125905000D01*
X129460000Y-122095000D02*
X129460000Y-125905000D01*
X132000000Y-122095000D02*
X132000000Y-125905000D01*
X134540000Y-122095000D02*
X134540000Y-125905000D01*
X137080000Y-122095000D02*
X137080000Y-125905000D01*
X139620000Y-122095000D02*
X139620000Y-125905000D01*
X142160000Y-122095000D02*
X142160000Y-125905000D01*
X129460000Y-125905000D02*
X128825000Y-126540000D01*
X126920000Y-125905000D02*
X127555000Y-126540000D01*
X126920000Y-125905000D02*
X126285000Y-126540000D01*
X124380000Y-125905000D02*
X125015000Y-126540000D01*
X124380000Y-125905000D02*
X123745000Y-126540000D01*
X121840000Y-125905000D02*
X122475000Y-126540000D01*
X122475000Y-121460000D02*
X121840000Y-122095000D01*
X123745000Y-121460000D02*
X122475000Y-121460000D01*
X124380000Y-122095000D02*
X123745000Y-121460000D01*
X125015000Y-121460000D02*
X124380000Y-122095000D01*
X126285000Y-121460000D02*
X125015000Y-121460000D01*
X126920000Y-122095000D02*
X126285000Y-121460000D01*
X127555000Y-121460000D02*
X126920000Y-122095000D01*
X128825000Y-121460000D02*
X127555000Y-121460000D01*
X129460000Y-122095000D02*
X128825000Y-121460000D01*
X130095000Y-121460000D02*
X129460000Y-122095000D01*
X131365000Y-121460000D02*
X130095000Y-121460000D01*
X132000000Y-122095000D02*
X131365000Y-121460000D01*
X132635000Y-121460000D02*
X132000000Y-122095000D01*
X133905000Y-121460000D02*
X132635000Y-121460000D01*
X134540000Y-122095000D02*
X133905000Y-121460000D01*
X135175000Y-121460000D02*
X134540000Y-122095000D01*
X136445000Y-121460000D02*
X135175000Y-121460000D01*
X137080000Y-122095000D02*
X136445000Y-121460000D01*
X137715000Y-121460000D02*
X137080000Y-122095000D01*
X138985000Y-121460000D02*
X137715000Y-121460000D01*
X139620000Y-122095000D02*
X138985000Y-121460000D01*
X140255000Y-121460000D02*
X139620000Y-122095000D01*
X141525000Y-121460000D02*
X140255000Y-121460000D01*
X142160000Y-122095000D02*
X141525000Y-121460000D01*
X142795000Y-121460000D02*
X142160000Y-122095000D01*
X144065000Y-121460000D02*
X142795000Y-121460000D01*
X144700000Y-122095000D02*
X144065000Y-121460000D01*
X144700000Y-125905000D02*
X144700000Y-122095000D01*
X130095000Y-126540000D02*
X129460000Y-125905000D01*
X132000000Y-125905000D02*
X131365000Y-126540000D01*
X132635000Y-126540000D02*
X132000000Y-125905000D01*
X134540000Y-125905000D02*
X133905000Y-126540000D01*
X135175000Y-126540000D02*
X134540000Y-125905000D01*
X137080000Y-125905000D02*
X136445000Y-126540000D01*
X137715000Y-126540000D02*
X137080000Y-125905000D01*
X139620000Y-125905000D02*
X138985000Y-126540000D01*
X140255000Y-126540000D02*
X139620000Y-125905000D01*
X142160000Y-125905000D02*
X141525000Y-126540000D01*
X142795000Y-126540000D02*
X142160000Y-125905000D01*
X144700000Y-125905000D02*
X144065000Y-126540000D01*
D10*
%TO.C,R308*%
X130762000Y-87976500D02*
X130762000Y-86960500D01*
X129238000Y-87976500D02*
X130762000Y-87976500D01*
X129238000Y-86960500D02*
X129238000Y-87976500D01*
X129238000Y-84928500D02*
X129238000Y-85944500D01*
X130762000Y-84928500D02*
X129238000Y-84928500D01*
X130762000Y-85944500D02*
X130762000Y-84928500D01*
%TO.C,R305*%
X116238000Y-85023500D02*
X116238000Y-86039500D01*
X117762000Y-85023500D02*
X116238000Y-85023500D01*
X117762000Y-86039500D02*
X117762000Y-85023500D01*
X117762000Y-88071500D02*
X117762000Y-87055500D01*
X116238000Y-88071500D02*
X117762000Y-88071500D01*
X116238000Y-87055500D02*
X116238000Y-88071500D01*
%TO.C,C306*%
X132444500Y-81738000D02*
X131428500Y-81738000D01*
X131428500Y-81738000D02*
X131428500Y-83262000D01*
X131428500Y-83262000D02*
X132444500Y-83262000D01*
X133460500Y-83262000D02*
X134476500Y-83262000D01*
X134476500Y-83262000D02*
X134476500Y-81738000D01*
X134476500Y-81738000D02*
X133460500Y-81738000D01*
%TO.C,C305*%
X113238000Y-84008000D02*
X113238000Y-85024000D01*
X113238000Y-85024000D02*
X114762000Y-85024000D01*
X114762000Y-85024000D02*
X114762000Y-84008000D01*
X114762000Y-82992000D02*
X114762000Y-81976000D01*
X114762000Y-81976000D02*
X113238000Y-81976000D01*
X113238000Y-81976000D02*
X113238000Y-82992000D01*
%TO.C,C317*%
X122119000Y-81865000D02*
X122119000Y-83135000D01*
X124405000Y-81865000D02*
X122119000Y-81865000D01*
X124405000Y-83135000D02*
X124405000Y-81865000D01*
X122119000Y-83135000D02*
X124405000Y-83135000D01*
%TO.C,C316*%
X122095000Y-91365000D02*
X122095000Y-92635000D01*
X124381000Y-91365000D02*
X122095000Y-91365000D01*
X124381000Y-92635000D02*
X124381000Y-91365000D01*
X122095000Y-92635000D02*
X124381000Y-92635000D01*
%TO.C,C315*%
X122119000Y-89865000D02*
X122119000Y-91135000D01*
X124405000Y-89865000D02*
X122119000Y-89865000D01*
X124405000Y-91135000D02*
X124405000Y-89865000D01*
X122119000Y-91135000D02*
X124405000Y-91135000D01*
%TO.C,C314*%
X122095000Y-92865000D02*
X122095000Y-94135000D01*
X124381000Y-92865000D02*
X122095000Y-92865000D01*
X124381000Y-94135000D02*
X124381000Y-92865000D01*
X122095000Y-94135000D02*
X124381000Y-94135000D01*
%TO.C,JP201*%
D15*
X132998402Y-119661904D02*
X132998402Y-120233333D01*
X133036497Y-120347619D01*
X133112688Y-120423809D01*
X133226973Y-120461904D01*
X133303164Y-120461904D01*
X132617450Y-120461904D02*
X132617450Y-119661904D01*
X132312688Y-119661904D01*
X132236497Y-119700000D01*
X132198402Y-119738095D01*
X132160307Y-119814285D01*
X132160307Y-119928571D01*
X132198402Y-120004761D01*
X132236497Y-120042857D01*
X132312688Y-120080952D01*
X132617450Y-120080952D01*
X131855545Y-119738095D02*
X131817450Y-119700000D01*
X131741259Y-119661904D01*
X131550783Y-119661904D01*
X131474592Y-119700000D01*
X131436497Y-119738095D01*
X131398402Y-119814285D01*
X131398402Y-119890476D01*
X131436497Y-120004761D01*
X131893640Y-120461904D01*
X131398402Y-120461904D01*
X130903164Y-119661904D02*
X130826973Y-119661904D01*
X130750783Y-119700000D01*
X130712688Y-119738095D01*
X130674592Y-119814285D01*
X130636497Y-119966666D01*
X130636497Y-120157142D01*
X130674592Y-120309523D01*
X130712688Y-120385714D01*
X130750783Y-120423809D01*
X130826973Y-120461904D01*
X130903164Y-120461904D01*
X130979354Y-120423809D01*
X131017450Y-120385714D01*
X131055545Y-120309523D01*
X131093640Y-120157142D01*
X131093640Y-119966666D01*
X131055545Y-119814285D01*
X131017450Y-119738095D01*
X130979354Y-119700000D01*
X130903164Y-119661904D01*
X129874592Y-120461904D02*
X130331735Y-120461904D01*
X130103164Y-120461904D02*
X130103164Y-119661904D01*
X130179354Y-119776190D01*
X130255545Y-119852380D01*
X130331735Y-119890476D01*
%TO.C,R308*%
D10*
X133395238Y-86814404D02*
X133661904Y-86433452D01*
X133852380Y-86814404D02*
X133852380Y-86014404D01*
X133547619Y-86014404D01*
X133471428Y-86052500D01*
X133433333Y-86090595D01*
X133395238Y-86166785D01*
X133395238Y-86281071D01*
X133433333Y-86357261D01*
X133471428Y-86395357D01*
X133547619Y-86433452D01*
X133852380Y-86433452D01*
X133128571Y-86014404D02*
X132633333Y-86014404D01*
X132900000Y-86319166D01*
X132785714Y-86319166D01*
X132709523Y-86357261D01*
X132671428Y-86395357D01*
X132633333Y-86471547D01*
X132633333Y-86662023D01*
X132671428Y-86738214D01*
X132709523Y-86776309D01*
X132785714Y-86814404D01*
X133014285Y-86814404D01*
X133090476Y-86776309D01*
X133128571Y-86738214D01*
X132138095Y-86014404D02*
X132061904Y-86014404D01*
X131985714Y-86052500D01*
X131947619Y-86090595D01*
X131909523Y-86166785D01*
X131871428Y-86319166D01*
X131871428Y-86509642D01*
X131909523Y-86662023D01*
X131947619Y-86738214D01*
X131985714Y-86776309D01*
X132061904Y-86814404D01*
X132138095Y-86814404D01*
X132214285Y-86776309D01*
X132252380Y-86738214D01*
X132290476Y-86662023D01*
X132328571Y-86509642D01*
X132328571Y-86319166D01*
X132290476Y-86166785D01*
X132252380Y-86090595D01*
X132214285Y-86052500D01*
X132138095Y-86014404D01*
X131414285Y-86357261D02*
X131490476Y-86319166D01*
X131528571Y-86281071D01*
X131566666Y-86204880D01*
X131566666Y-86166785D01*
X131528571Y-86090595D01*
X131490476Y-86052500D01*
X131414285Y-86014404D01*
X131261904Y-86014404D01*
X131185714Y-86052500D01*
X131147619Y-86090595D01*
X131109523Y-86166785D01*
X131109523Y-86204880D01*
X131147619Y-86281071D01*
X131185714Y-86319166D01*
X131261904Y-86357261D01*
X131414285Y-86357261D01*
X131490476Y-86395357D01*
X131528571Y-86433452D01*
X131566666Y-86509642D01*
X131566666Y-86662023D01*
X131528571Y-86738214D01*
X131490476Y-86776309D01*
X131414285Y-86814404D01*
X131261904Y-86814404D01*
X131185714Y-86776309D01*
X131147619Y-86738214D01*
X131109523Y-86662023D01*
X131109523Y-86509642D01*
X131147619Y-86433452D01*
X131185714Y-86395357D01*
X131261904Y-86357261D01*
%TO.C,R305*%
X115395238Y-87861904D02*
X115661904Y-87480952D01*
X115852380Y-87861904D02*
X115852380Y-87061904D01*
X115547619Y-87061904D01*
X115471428Y-87100000D01*
X115433333Y-87138095D01*
X115395238Y-87214285D01*
X115395238Y-87328571D01*
X115433333Y-87404761D01*
X115471428Y-87442857D01*
X115547619Y-87480952D01*
X115852380Y-87480952D01*
X115128571Y-87061904D02*
X114633333Y-87061904D01*
X114900000Y-87366666D01*
X114785714Y-87366666D01*
X114709523Y-87404761D01*
X114671428Y-87442857D01*
X114633333Y-87519047D01*
X114633333Y-87709523D01*
X114671428Y-87785714D01*
X114709523Y-87823809D01*
X114785714Y-87861904D01*
X115014285Y-87861904D01*
X115090476Y-87823809D01*
X115128571Y-87785714D01*
X114138095Y-87061904D02*
X114061904Y-87061904D01*
X113985714Y-87100000D01*
X113947619Y-87138095D01*
X113909523Y-87214285D01*
X113871428Y-87366666D01*
X113871428Y-87557142D01*
X113909523Y-87709523D01*
X113947619Y-87785714D01*
X113985714Y-87823809D01*
X114061904Y-87861904D01*
X114138095Y-87861904D01*
X114214285Y-87823809D01*
X114252380Y-87785714D01*
X114290476Y-87709523D01*
X114328571Y-87557142D01*
X114328571Y-87366666D01*
X114290476Y-87214285D01*
X114252380Y-87138095D01*
X114214285Y-87100000D01*
X114138095Y-87061904D01*
X113147619Y-87061904D02*
X113528571Y-87061904D01*
X113566666Y-87442857D01*
X113528571Y-87404761D01*
X113452380Y-87366666D01*
X113261904Y-87366666D01*
X113185714Y-87404761D01*
X113147619Y-87442857D01*
X113109523Y-87519047D01*
X113109523Y-87709523D01*
X113147619Y-87785714D01*
X113185714Y-87823809D01*
X113261904Y-87861904D01*
X113452380Y-87861904D01*
X113528571Y-87823809D01*
X113566666Y-87785714D01*
%TO.C,C306*%
X137395238Y-83285714D02*
X137433333Y-83323809D01*
X137547619Y-83361904D01*
X137623809Y-83361904D01*
X137738095Y-83323809D01*
X137814285Y-83247619D01*
X137852380Y-83171428D01*
X137890476Y-83019047D01*
X137890476Y-82904761D01*
X137852380Y-82752380D01*
X137814285Y-82676190D01*
X137738095Y-82600000D01*
X137623809Y-82561904D01*
X137547619Y-82561904D01*
X137433333Y-82600000D01*
X137395238Y-82638095D01*
X137128571Y-82561904D02*
X136633333Y-82561904D01*
X136900000Y-82866666D01*
X136785714Y-82866666D01*
X136709523Y-82904761D01*
X136671428Y-82942857D01*
X136633333Y-83019047D01*
X136633333Y-83209523D01*
X136671428Y-83285714D01*
X136709523Y-83323809D01*
X136785714Y-83361904D01*
X137014285Y-83361904D01*
X137090476Y-83323809D01*
X137128571Y-83285714D01*
X136138095Y-82561904D02*
X136061904Y-82561904D01*
X135985714Y-82600000D01*
X135947619Y-82638095D01*
X135909523Y-82714285D01*
X135871428Y-82866666D01*
X135871428Y-83057142D01*
X135909523Y-83209523D01*
X135947619Y-83285714D01*
X135985714Y-83323809D01*
X136061904Y-83361904D01*
X136138095Y-83361904D01*
X136214285Y-83323809D01*
X136252380Y-83285714D01*
X136290476Y-83209523D01*
X136328571Y-83057142D01*
X136328571Y-82866666D01*
X136290476Y-82714285D01*
X136252380Y-82638095D01*
X136214285Y-82600000D01*
X136138095Y-82561904D01*
X135185714Y-82561904D02*
X135338095Y-82561904D01*
X135414285Y-82600000D01*
X135452380Y-82638095D01*
X135528571Y-82752380D01*
X135566666Y-82904761D01*
X135566666Y-83209523D01*
X135528571Y-83285714D01*
X135490476Y-83323809D01*
X135414285Y-83361904D01*
X135261904Y-83361904D01*
X135185714Y-83323809D01*
X135147619Y-83285714D01*
X135109523Y-83209523D01*
X135109523Y-83019047D01*
X135147619Y-82942857D01*
X135185714Y-82904761D01*
X135261904Y-82866666D01*
X135414285Y-82866666D01*
X135490476Y-82904761D01*
X135528571Y-82942857D01*
X135566666Y-83019047D01*
%TO.C,C305*%
X112395238Y-83785714D02*
X112433333Y-83823809D01*
X112547619Y-83861904D01*
X112623809Y-83861904D01*
X112738095Y-83823809D01*
X112814285Y-83747619D01*
X112852380Y-83671428D01*
X112890476Y-83519047D01*
X112890476Y-83404761D01*
X112852380Y-83252380D01*
X112814285Y-83176190D01*
X112738095Y-83100000D01*
X112623809Y-83061904D01*
X112547619Y-83061904D01*
X112433333Y-83100000D01*
X112395238Y-83138095D01*
X112128571Y-83061904D02*
X111633333Y-83061904D01*
X111900000Y-83366666D01*
X111785714Y-83366666D01*
X111709523Y-83404761D01*
X111671428Y-83442857D01*
X111633333Y-83519047D01*
X111633333Y-83709523D01*
X111671428Y-83785714D01*
X111709523Y-83823809D01*
X111785714Y-83861904D01*
X112014285Y-83861904D01*
X112090476Y-83823809D01*
X112128571Y-83785714D01*
X111138095Y-83061904D02*
X111061904Y-83061904D01*
X110985714Y-83100000D01*
X110947619Y-83138095D01*
X110909523Y-83214285D01*
X110871428Y-83366666D01*
X110871428Y-83557142D01*
X110909523Y-83709523D01*
X110947619Y-83785714D01*
X110985714Y-83823809D01*
X111061904Y-83861904D01*
X111138095Y-83861904D01*
X111214285Y-83823809D01*
X111252380Y-83785714D01*
X111290476Y-83709523D01*
X111328571Y-83557142D01*
X111328571Y-83366666D01*
X111290476Y-83214285D01*
X111252380Y-83138095D01*
X111214285Y-83100000D01*
X111138095Y-83061904D01*
X110147619Y-83061904D02*
X110528571Y-83061904D01*
X110566666Y-83442857D01*
X110528571Y-83404761D01*
X110452380Y-83366666D01*
X110261904Y-83366666D01*
X110185714Y-83404761D01*
X110147619Y-83442857D01*
X110109523Y-83519047D01*
X110109523Y-83709523D01*
X110147619Y-83785714D01*
X110185714Y-83823809D01*
X110261904Y-83861904D01*
X110452380Y-83861904D01*
X110528571Y-83823809D01*
X110566666Y-83785714D01*
%TO.C,C317*%
X125395238Y-81285714D02*
X125433333Y-81323809D01*
X125547619Y-81361904D01*
X125623809Y-81361904D01*
X125738095Y-81323809D01*
X125814285Y-81247619D01*
X125852380Y-81171428D01*
X125890476Y-81019047D01*
X125890476Y-80904761D01*
X125852380Y-80752380D01*
X125814285Y-80676190D01*
X125738095Y-80600000D01*
X125623809Y-80561904D01*
X125547619Y-80561904D01*
X125433333Y-80600000D01*
X125395238Y-80638095D01*
X125128571Y-80561904D02*
X124633333Y-80561904D01*
X124900000Y-80866666D01*
X124785714Y-80866666D01*
X124709523Y-80904761D01*
X124671428Y-80942857D01*
X124633333Y-81019047D01*
X124633333Y-81209523D01*
X124671428Y-81285714D01*
X124709523Y-81323809D01*
X124785714Y-81361904D01*
X125014285Y-81361904D01*
X125090476Y-81323809D01*
X125128571Y-81285714D01*
X123871428Y-81361904D02*
X124328571Y-81361904D01*
X124100000Y-81361904D02*
X124100000Y-80561904D01*
X124176190Y-80676190D01*
X124252380Y-80752380D01*
X124328571Y-80790476D01*
X123604761Y-80561904D02*
X123071428Y-80561904D01*
X123414285Y-81361904D01*
%TO.C,C316*%
X127395238Y-92285714D02*
X127433333Y-92323809D01*
X127547619Y-92361904D01*
X127623809Y-92361904D01*
X127738095Y-92323809D01*
X127814285Y-92247619D01*
X127852380Y-92171428D01*
X127890476Y-92019047D01*
X127890476Y-91904761D01*
X127852380Y-91752380D01*
X127814285Y-91676190D01*
X127738095Y-91600000D01*
X127623809Y-91561904D01*
X127547619Y-91561904D01*
X127433333Y-91600000D01*
X127395238Y-91638095D01*
X127128571Y-91561904D02*
X126633333Y-91561904D01*
X126900000Y-91866666D01*
X126785714Y-91866666D01*
X126709523Y-91904761D01*
X126671428Y-91942857D01*
X126633333Y-92019047D01*
X126633333Y-92209523D01*
X126671428Y-92285714D01*
X126709523Y-92323809D01*
X126785714Y-92361904D01*
X127014285Y-92361904D01*
X127090476Y-92323809D01*
X127128571Y-92285714D01*
X125871428Y-92361904D02*
X126328571Y-92361904D01*
X126100000Y-92361904D02*
X126100000Y-91561904D01*
X126176190Y-91676190D01*
X126252380Y-91752380D01*
X126328571Y-91790476D01*
X125185714Y-91561904D02*
X125338095Y-91561904D01*
X125414285Y-91600000D01*
X125452380Y-91638095D01*
X125528571Y-91752380D01*
X125566666Y-91904761D01*
X125566666Y-92209523D01*
X125528571Y-92285714D01*
X125490476Y-92323809D01*
X125414285Y-92361904D01*
X125261904Y-92361904D01*
X125185714Y-92323809D01*
X125147619Y-92285714D01*
X125109523Y-92209523D01*
X125109523Y-92019047D01*
X125147619Y-91942857D01*
X125185714Y-91904761D01*
X125261904Y-91866666D01*
X125414285Y-91866666D01*
X125490476Y-91904761D01*
X125528571Y-91942857D01*
X125566666Y-92019047D01*
%TO.C,C315*%
X120895238Y-91285714D02*
X120933333Y-91323809D01*
X121047619Y-91361904D01*
X121123809Y-91361904D01*
X121238095Y-91323809D01*
X121314285Y-91247619D01*
X121352380Y-91171428D01*
X121390476Y-91019047D01*
X121390476Y-90904761D01*
X121352380Y-90752380D01*
X121314285Y-90676190D01*
X121238095Y-90600000D01*
X121123809Y-90561904D01*
X121047619Y-90561904D01*
X120933333Y-90600000D01*
X120895238Y-90638095D01*
X120628571Y-90561904D02*
X120133333Y-90561904D01*
X120400000Y-90866666D01*
X120285714Y-90866666D01*
X120209523Y-90904761D01*
X120171428Y-90942857D01*
X120133333Y-91019047D01*
X120133333Y-91209523D01*
X120171428Y-91285714D01*
X120209523Y-91323809D01*
X120285714Y-91361904D01*
X120514285Y-91361904D01*
X120590476Y-91323809D01*
X120628571Y-91285714D01*
X119371428Y-91361904D02*
X119828571Y-91361904D01*
X119600000Y-91361904D02*
X119600000Y-90561904D01*
X119676190Y-90676190D01*
X119752380Y-90752380D01*
X119828571Y-90790476D01*
X118647619Y-90561904D02*
X119028571Y-90561904D01*
X119066666Y-90942857D01*
X119028571Y-90904761D01*
X118952380Y-90866666D01*
X118761904Y-90866666D01*
X118685714Y-90904761D01*
X118647619Y-90942857D01*
X118609523Y-91019047D01*
X118609523Y-91209523D01*
X118647619Y-91285714D01*
X118685714Y-91323809D01*
X118761904Y-91361904D01*
X118952380Y-91361904D01*
X119028571Y-91323809D01*
X119066666Y-91285714D01*
%TO.C,C314*%
X120895238Y-93785714D02*
X120933333Y-93823809D01*
X121047619Y-93861904D01*
X121123809Y-93861904D01*
X121238095Y-93823809D01*
X121314285Y-93747619D01*
X121352380Y-93671428D01*
X121390476Y-93519047D01*
X121390476Y-93404761D01*
X121352380Y-93252380D01*
X121314285Y-93176190D01*
X121238095Y-93100000D01*
X121123809Y-93061904D01*
X121047619Y-93061904D01*
X120933333Y-93100000D01*
X120895238Y-93138095D01*
X120628571Y-93061904D02*
X120133333Y-93061904D01*
X120400000Y-93366666D01*
X120285714Y-93366666D01*
X120209523Y-93404761D01*
X120171428Y-93442857D01*
X120133333Y-93519047D01*
X120133333Y-93709523D01*
X120171428Y-93785714D01*
X120209523Y-93823809D01*
X120285714Y-93861904D01*
X120514285Y-93861904D01*
X120590476Y-93823809D01*
X120628571Y-93785714D01*
X119371428Y-93861904D02*
X119828571Y-93861904D01*
X119600000Y-93861904D02*
X119600000Y-93061904D01*
X119676190Y-93176190D01*
X119752380Y-93252380D01*
X119828571Y-93290476D01*
X118685714Y-93328571D02*
X118685714Y-93861904D01*
X118876190Y-93023809D02*
X119066666Y-93595238D01*
X118571428Y-93595238D01*
%TD*%
M02*
