M48
; DRILL file {KiCad (5.1.8)-1} date 12/20/20 16:16:32
; FORMAT={-:-/ absolute / inch / decimal}
; #@! TF.CreationDate,2020-12-20T16:16:32+01:00
; #@! TF.GenerationSoftware,Kicad,Pcbnew,(5.1.8)-1
FMAT,2
INCH
T1C0.0118
T2C0.0157
T3C0.0350
T4C0.0394
T5C0.0400
T6C0.0500
T7C0.0591
T8C0.0618
T9C0.0630
T10C0.1299
%
G90
G05
T1
X4.3622Y-2.8346
X4.3622Y-2.874
X4.4016Y-2.8346
X4.4016Y-2.874
X4.4409Y-2.8346
X4.4409Y-2.874
X4.4803Y-2.8346
X4.4803Y-2.874
X4.5197Y-2.8346
X4.5197Y-2.874
X4.5197Y-2.9134
X4.5197Y-2.9528
X4.5197Y-2.9921
X4.5472Y-2.8543
X4.5472Y-2.8937
X4.5472Y-2.9331
X4.5472Y-2.9724
X4.5472Y-3.0118
X4.5748Y-2.8346
X4.5748Y-2.874
X4.5748Y-2.9134
X4.5748Y-2.9528
X4.5748Y-2.9921
X4.6142Y-2.8346
X4.6142Y-2.874
X4.6535Y-2.8346
X4.6535Y-2.874
X4.6929Y-2.8346
X4.6929Y-2.874
X4.7323Y-2.8346
X4.7323Y-2.874
X5.0315Y-2.8346
X5.0315Y-2.874
X5.0709Y-2.8346
X5.0709Y-2.874
X5.1102Y-2.8346
X5.1102Y-2.874
X5.1496Y-2.8346
X5.1496Y-2.874
X5.189Y-2.8346
X5.189Y-2.874
X5.189Y-2.9134
X5.189Y-2.9528
X5.189Y-2.9921
X5.2165Y-2.8543
X5.2165Y-2.8937
X5.2165Y-2.9331
X5.2165Y-2.9724
X5.2165Y-3.0118
X5.2441Y-2.8346
X5.2441Y-2.874
X5.2441Y-2.9134
X5.2441Y-2.9528
X5.2441Y-2.9921
X5.2835Y-2.8346
X5.2835Y-2.874
X5.3228Y-2.8346
X5.3228Y-2.874
X5.3622Y-2.8346
X5.3622Y-2.874
X5.4016Y-2.8346
X5.4016Y-2.874
X5.126Y-4.4882
X5.1654Y-4.4882
T2
X3.9724Y-4.0748
X3.9961Y-4.4094
X4.0354Y-3.6024
X4.0354Y-3.6614
X4.0945Y-4.3701
X4.1142Y-2.8937
X4.1142Y-4.6063
X4.1339Y-4.6457
X4.1929Y-3.9764
X4.2126Y-3.1693
X4.2126Y-3.3858
X4.2525Y-2.9916
X4.2835Y-3.8976
X4.2913Y-4.0157
X4.311Y-3.2677
X4.311Y-4.7244
X4.4094Y-3.5433
X4.4094Y-3.7008
X4.4291Y-4.6063
X4.4685Y-3.563
X4.5079Y-3.4843
X4.5276Y-4.9213
X4.5669Y-4.6063
X4.5669Y-4.8819
X4.6063Y-3.7008
X4.626Y-4.1732
X4.626Y-4.3898
X4.6457Y-3.6614
X4.6457Y-4.1142
X4.6654Y-4.4488
X4.6654Y-4.8533
X4.7047Y-4.5669
X4.8622Y-4.0354
X4.9606Y-4.3898
X4.9606Y-4.5669
X4.9803Y-4.0157
X4.9803Y-4.7638
X5.0787Y-4.0157
X5.0984Y-3.7992
X5.1181Y-3.2677
X5.1181Y-3.7205
X5.1348Y-3.6811
X5.1772Y-3.5433
X5.1969Y-3.3465
X5.2362Y-4.3898
X5.2362Y-4.5669
X5.2413Y-3.7992
X5.2559Y-3.5236
X5.2953Y-4.311
X5.315Y-3.3071
X5.374Y-3.563
X5.3932Y-3.7603
X5.4134Y-4.0157
X5.4326Y-3.8775
X5.5512Y-3.7402
X5.5512Y-4.3307
X6.0039Y-3.1299
T3
X3.8585Y-3.0593
X3.8585Y-3.2793
X4.0785Y-3.0593
X4.0785Y-3.2793
T4
X5.9252Y-3.5008
X5.9252Y-3.6008
X5.9252Y-3.8008
X6.0252Y-3.5008
X6.0252Y-3.7008
X4.3961Y-3.9606
X4.4961Y-3.9606
X4.5472Y-3.0866
X4.0126Y-4.8228
X4.0126Y-4.9228
X4.1126Y-4.8228
X4.1126Y-4.9228
X4.2126Y-4.8228
X4.2126Y-4.9228
X4.3126Y-4.8228
X4.3126Y-4.9228
X4.4126Y-4.8228
X4.4126Y-4.9228
X3.6165Y-4.437
X3.6165Y-4.637
X3.7165Y-4.337
X3.7165Y-4.537
X3.7165Y-4.637
X5.2165Y-3.0866
X3.9646Y-3.378
X4.0646Y-3.378
X5.5299Y-2.8693
X5.5299Y-2.9693
X5.5299Y-3.0693
X5.5299Y-3.1693
X5.5299Y-3.2693
X5.5299Y-3.3693
X5.7299Y-2.9693
X5.7299Y-3.0693
X5.7299Y-3.1693
X5.7299Y-3.3693
X3.6205Y-3.6102
X3.6205Y-3.8102
X3.7205Y-3.5102
X3.7205Y-3.7102
X3.7205Y-3.8102
T5
X4.7469Y-4.8319
X4.7469Y-4.9319
X4.8469Y-4.8319
X4.8469Y-4.9319
X4.9469Y-4.8319
X4.9469Y-4.9319
X5.0469Y-4.8319
X5.0469Y-4.9319
X5.1469Y-4.8319
X5.1469Y-4.9319
X5.2469Y-4.8319
X5.2469Y-4.9319
X5.3469Y-4.8319
X5.3469Y-4.9319
X5.4469Y-4.8319
X5.4469Y-4.9319
X5.5469Y-4.8319
X5.5469Y-4.9319
X5.6469Y-4.8319
X5.6469Y-4.9319
T6
X4.7362Y-3.315
X4.7362Y-3.4961
X4.9882Y-3.315
X4.9882Y-3.4961
X3.8585Y-3.1693
X5.6732Y-4.5669
X5.8701Y-4.5669
T7
X5.0472Y-4.4882
T8
X3.6165Y-4.337
X3.6165Y-4.537
X3.7165Y-4.437
X3.8165Y-4.337
X3.8165Y-4.537
X4.8622Y-3.4055
X3.6205Y-3.5102
X3.6205Y-3.7102
X3.7205Y-3.6102
X3.8205Y-3.5102
X3.8205Y-3.7102
X5.8252Y-3.6008
X5.8252Y-3.8008
X5.9252Y-3.7008
X6.0252Y-3.6008
X6.0252Y-3.8008
T9
X5.5512Y-4.5669
X5.6693Y-4.3819
X5.7933Y-4.5669
T10
X4.8819Y-3.0315
X3.6811Y-4.8622
X5.9646Y-2.9331
X5.9646Y-4.8622
X3.6811Y-2.9331
T0
M30
