%TF.GenerationSoftware,KiCad,Pcbnew,(5.1.8)-1*%
%TF.CreationDate,2020-12-20T16:15:32+01:00*%
%TF.ProjectId,radioberry-preamp,72616469-6f62-4657-9272-792d70726561,rev?*%
%TF.SameCoordinates,Original*%
%TF.FileFunction,Soldermask,Top*%
%TF.FilePolarity,Negative*%
%FSLAX46Y46*%
G04 Gerber Fmt 4.6, Leading zero omitted, Abs format (unit mm)*
G04 Created by KiCad (PCBNEW (5.1.8)-1) date 2020-12-20 16:15:32*
%MOMM*%
%LPD*%
G01*
G04 APERTURE LIST*
%ADD10C,0.100000*%
%ADD11C,0.150000*%
%ADD12C,0.300000*%
%ADD13C,0.400000*%
%ADD14R,1.143000X0.635000*%
%ADD15R,0.635000X1.143000*%
%ADD16C,1.800000*%
%ADD17C,2.100000*%
%ADD18R,2.000000X1.650000*%
%ADD19R,1.650000X1.015000*%
%ADD20R,1.650000X0.760000*%
%ADD21R,2.540000X1.650000*%
%ADD22C,1.850000*%
%ADD23R,1.850000X1.850000*%
%ADD24C,5.300000*%
%ADD25R,1.397000X0.889000*%
%ADD26R,0.889000X1.397000*%
%ADD27R,1.500000X2.000000*%
%ADD28R,3.800000X2.000000*%
%ADD29R,1.800000X1.600000*%
%ADD30C,2.800000*%
%ADD31C,2.600000*%
%ADD32C,2.200000*%
%ADD33C,3.000000*%
%ADD34R,1.600000X1.800000*%
%ADD35R,8.000000X3.300000*%
%ADD36R,8.000000X1.600000*%
%ADD37C,1.524000*%
%ADD38R,1.000000X0.400000*%
%ADD39R,1.400000X0.300000*%
%ADD40R,1.350000X0.400000*%
%ADD41R,0.600000X1.050000*%
%ADD42C,0.500000*%
%ADD43C,2.500000*%
%ADD44R,3.500000X2.600000*%
%ADD45R,0.510000X1.100000*%
%ADD46R,1.900000X4.280000*%
%ADD47R,0.700000X1.400000*%
%ADD48R,0.900000X1.250000*%
%ADD49R,1.000000X4.000000*%
%ADD50R,2.000000X4.800000*%
%ADD51O,1.600000X2.400000*%
%ADD52R,12.000000X2.200000*%
%ADD53R,0.800000X0.900000*%
%ADD54R,5.700000X2.400000*%
%ADD55R,2.300000X5.600000*%
%ADD56R,2.100000X2.000000*%
G04 APERTURE END LIST*
D10*
D11*
X177002200Y-166007200D02*
X177002200Y-198007200D01*
X285002200Y-198007200D01*
X285002200Y-166007200D01*
X177002200Y-166007200D01*
D10*
D11*
X10000000Y-10000000D02*
X10000000Y-200007200D01*
X287002200Y-200007200D01*
X287002200Y-10000000D01*
X10000000Y-10000000D01*
D10*
D11*
X12000000Y-12000000D02*
X12000000Y-198007200D01*
X285002200Y-198007200D01*
X285002200Y-12000000D01*
X12000000Y-12000000D01*
D10*
D11*
X60000000Y-12000000D02*
X60000000Y-10000000D01*
D10*
D11*
X110000000Y-12000000D02*
X110000000Y-10000000D01*
D10*
D11*
X160000000Y-12000000D02*
X160000000Y-10000000D01*
D10*
D11*
X210000000Y-12000000D02*
X210000000Y-10000000D01*
D10*
D11*
X260000000Y-12000000D02*
X260000000Y-10000000D01*
D10*
D11*
X36065476Y-11588095D02*
X35322619Y-11588095D01*
X35694047Y-11588095D02*
X35694047Y-10288095D01*
X35570238Y-10473809D01*
X35446428Y-10597619D01*
X35322619Y-10659523D01*
D10*
D11*
X85322619Y-10411904D02*
X85384523Y-10350000D01*
X85508333Y-10288095D01*
X85817857Y-10288095D01*
X85941666Y-10350000D01*
X86003571Y-10411904D01*
X86065476Y-10535714D01*
X86065476Y-10659523D01*
X86003571Y-10845238D01*
X85260714Y-11588095D01*
X86065476Y-11588095D01*
D10*
D11*
X135260714Y-10288095D02*
X136065476Y-10288095D01*
X135632142Y-10783333D01*
X135817857Y-10783333D01*
X135941666Y-10845238D01*
X136003571Y-10907142D01*
X136065476Y-11030952D01*
X136065476Y-11340476D01*
X136003571Y-11464285D01*
X135941666Y-11526190D01*
X135817857Y-11588095D01*
X135446428Y-11588095D01*
X135322619Y-11526190D01*
X135260714Y-11464285D01*
D10*
D11*
X185941666Y-10721428D02*
X185941666Y-11588095D01*
X185632142Y-10226190D02*
X185322619Y-11154761D01*
X186127380Y-11154761D01*
D10*
D11*
X236003571Y-10288095D02*
X235384523Y-10288095D01*
X235322619Y-10907142D01*
X235384523Y-10845238D01*
X235508333Y-10783333D01*
X235817857Y-10783333D01*
X235941666Y-10845238D01*
X236003571Y-10907142D01*
X236065476Y-11030952D01*
X236065476Y-11340476D01*
X236003571Y-11464285D01*
X235941666Y-11526190D01*
X235817857Y-11588095D01*
X235508333Y-11588095D01*
X235384523Y-11526190D01*
X235322619Y-11464285D01*
D10*
D11*
X285941666Y-10288095D02*
X285694047Y-10288095D01*
X285570238Y-10350000D01*
X285508333Y-10411904D01*
X285384523Y-10597619D01*
X285322619Y-10845238D01*
X285322619Y-11340476D01*
X285384523Y-11464285D01*
X285446428Y-11526190D01*
X285570238Y-11588095D01*
X285817857Y-11588095D01*
X285941666Y-11526190D01*
X286003571Y-11464285D01*
X286065476Y-11340476D01*
X286065476Y-11030952D01*
X286003571Y-10907142D01*
X285941666Y-10845238D01*
X285817857Y-10783333D01*
X285570238Y-10783333D01*
X285446428Y-10845238D01*
X285384523Y-10907142D01*
X285322619Y-11030952D01*
D10*
D11*
X60000000Y-198007200D02*
X60000000Y-200007200D01*
D10*
D11*
X110000000Y-198007200D02*
X110000000Y-200007200D01*
D10*
D11*
X160000000Y-198007200D02*
X160000000Y-200007200D01*
D10*
D11*
X210000000Y-198007200D02*
X210000000Y-200007200D01*
D10*
D11*
X260000000Y-198007200D02*
X260000000Y-200007200D01*
D10*
D11*
X36065476Y-199595295D02*
X35322619Y-199595295D01*
X35694047Y-199595295D02*
X35694047Y-198295295D01*
X35570238Y-198481009D01*
X35446428Y-198604819D01*
X35322619Y-198666723D01*
D10*
D11*
X85322619Y-198419104D02*
X85384523Y-198357200D01*
X85508333Y-198295295D01*
X85817857Y-198295295D01*
X85941666Y-198357200D01*
X86003571Y-198419104D01*
X86065476Y-198542914D01*
X86065476Y-198666723D01*
X86003571Y-198852438D01*
X85260714Y-199595295D01*
X86065476Y-199595295D01*
D10*
D11*
X135260714Y-198295295D02*
X136065476Y-198295295D01*
X135632142Y-198790533D01*
X135817857Y-198790533D01*
X135941666Y-198852438D01*
X136003571Y-198914342D01*
X136065476Y-199038152D01*
X136065476Y-199347676D01*
X136003571Y-199471485D01*
X135941666Y-199533390D01*
X135817857Y-199595295D01*
X135446428Y-199595295D01*
X135322619Y-199533390D01*
X135260714Y-199471485D01*
D10*
D11*
X185941666Y-198728628D02*
X185941666Y-199595295D01*
X185632142Y-198233390D02*
X185322619Y-199161961D01*
X186127380Y-199161961D01*
D10*
D11*
X236003571Y-198295295D02*
X235384523Y-198295295D01*
X235322619Y-198914342D01*
X235384523Y-198852438D01*
X235508333Y-198790533D01*
X235817857Y-198790533D01*
X235941666Y-198852438D01*
X236003571Y-198914342D01*
X236065476Y-199038152D01*
X236065476Y-199347676D01*
X236003571Y-199471485D01*
X235941666Y-199533390D01*
X235817857Y-199595295D01*
X235508333Y-199595295D01*
X235384523Y-199533390D01*
X235322619Y-199471485D01*
D10*
D11*
X285941666Y-198295295D02*
X285694047Y-198295295D01*
X285570238Y-198357200D01*
X285508333Y-198419104D01*
X285384523Y-198604819D01*
X285322619Y-198852438D01*
X285322619Y-199347676D01*
X285384523Y-199471485D01*
X285446428Y-199533390D01*
X285570238Y-199595295D01*
X285817857Y-199595295D01*
X285941666Y-199533390D01*
X286003571Y-199471485D01*
X286065476Y-199347676D01*
X286065476Y-199038152D01*
X286003571Y-198914342D01*
X285941666Y-198852438D01*
X285817857Y-198790533D01*
X285570238Y-198790533D01*
X285446428Y-198852438D01*
X285384523Y-198914342D01*
X285322619Y-199038152D01*
D10*
D11*
X10000000Y-60000000D02*
X12000000Y-60000000D01*
D10*
D11*
X10000000Y-110000000D02*
X12000000Y-110000000D01*
D10*
D11*
X10000000Y-160000000D02*
X12000000Y-160000000D01*
D10*
D11*
X10690476Y-35216666D02*
X11309523Y-35216666D01*
X10566666Y-35588095D02*
X11000000Y-34288095D01*
X11433333Y-35588095D01*
D10*
D11*
X11092857Y-84907142D02*
X11278571Y-84969047D01*
X11340476Y-85030952D01*
X11402380Y-85154761D01*
X11402380Y-85340476D01*
X11340476Y-85464285D01*
X11278571Y-85526190D01*
X11154761Y-85588095D01*
X10659523Y-85588095D01*
X10659523Y-84288095D01*
X11092857Y-84288095D01*
X11216666Y-84350000D01*
X11278571Y-84411904D01*
X11340476Y-84535714D01*
X11340476Y-84659523D01*
X11278571Y-84783333D01*
X11216666Y-84845238D01*
X11092857Y-84907142D01*
X10659523Y-84907142D01*
D10*
D11*
X11402380Y-135464285D02*
X11340476Y-135526190D01*
X11154761Y-135588095D01*
X11030952Y-135588095D01*
X10845238Y-135526190D01*
X10721428Y-135402380D01*
X10659523Y-135278571D01*
X10597619Y-135030952D01*
X10597619Y-134845238D01*
X10659523Y-134597619D01*
X10721428Y-134473809D01*
X10845238Y-134350000D01*
X11030952Y-134288095D01*
X11154761Y-134288095D01*
X11340476Y-134350000D01*
X11402380Y-134411904D01*
D10*
D11*
X10659523Y-185588095D02*
X10659523Y-184288095D01*
X10969047Y-184288095D01*
X11154761Y-184350000D01*
X11278571Y-184473809D01*
X11340476Y-184597619D01*
X11402380Y-184845238D01*
X11402380Y-185030952D01*
X11340476Y-185278571D01*
X11278571Y-185402380D01*
X11154761Y-185526190D01*
X10969047Y-185588095D01*
X10659523Y-185588095D01*
D10*
D11*
X287002200Y-60000000D02*
X285002200Y-60000000D01*
D10*
D11*
X287002200Y-110000000D02*
X285002200Y-110000000D01*
D10*
D11*
X287002200Y-160000000D02*
X285002200Y-160000000D01*
D10*
D11*
X285692676Y-35216666D02*
X286311723Y-35216666D01*
X285568866Y-35588095D02*
X286002200Y-34288095D01*
X286435533Y-35588095D01*
D10*
D11*
X286095057Y-84907142D02*
X286280771Y-84969047D01*
X286342676Y-85030952D01*
X286404580Y-85154761D01*
X286404580Y-85340476D01*
X286342676Y-85464285D01*
X286280771Y-85526190D01*
X286156961Y-85588095D01*
X285661723Y-85588095D01*
X285661723Y-84288095D01*
X286095057Y-84288095D01*
X286218866Y-84350000D01*
X286280771Y-84411904D01*
X286342676Y-84535714D01*
X286342676Y-84659523D01*
X286280771Y-84783333D01*
X286218866Y-84845238D01*
X286095057Y-84907142D01*
X285661723Y-84907142D01*
D10*
D11*
X286404580Y-135464285D02*
X286342676Y-135526190D01*
X286156961Y-135588095D01*
X286033152Y-135588095D01*
X285847438Y-135526190D01*
X285723628Y-135402380D01*
X285661723Y-135278571D01*
X285599819Y-135030952D01*
X285599819Y-134845238D01*
X285661723Y-134597619D01*
X285723628Y-134473809D01*
X285847438Y-134350000D01*
X286033152Y-134288095D01*
X286156961Y-134288095D01*
X286342676Y-134350000D01*
X286404580Y-134411904D01*
D10*
D11*
X285661723Y-185588095D02*
X285661723Y-184288095D01*
X285971247Y-184288095D01*
X286156961Y-184350000D01*
X286280771Y-184473809D01*
X286342676Y-184597619D01*
X286404580Y-184845238D01*
X286404580Y-185030952D01*
X286342676Y-185278571D01*
X286280771Y-185402380D01*
X286156961Y-185526190D01*
X285971247Y-185588095D01*
X285661723Y-185588095D01*
D10*
D11*
X200434342Y-193785771D02*
X200434342Y-192285771D01*
X200791485Y-192285771D01*
X201005771Y-192357200D01*
X201148628Y-192500057D01*
X201220057Y-192642914D01*
X201291485Y-192928628D01*
X201291485Y-193142914D01*
X201220057Y-193428628D01*
X201148628Y-193571485D01*
X201005771Y-193714342D01*
X200791485Y-193785771D01*
X200434342Y-193785771D01*
X202577200Y-193785771D02*
X202577200Y-193000057D01*
X202505771Y-192857200D01*
X202362914Y-192785771D01*
X202077200Y-192785771D01*
X201934342Y-192857200D01*
X202577200Y-193714342D02*
X202434342Y-193785771D01*
X202077200Y-193785771D01*
X201934342Y-193714342D01*
X201862914Y-193571485D01*
X201862914Y-193428628D01*
X201934342Y-193285771D01*
X202077200Y-193214342D01*
X202434342Y-193214342D01*
X202577200Y-193142914D01*
X203077200Y-192785771D02*
X203648628Y-192785771D01*
X203291485Y-192285771D02*
X203291485Y-193571485D01*
X203362914Y-193714342D01*
X203505771Y-193785771D01*
X203648628Y-193785771D01*
X204720057Y-193714342D02*
X204577200Y-193785771D01*
X204291485Y-193785771D01*
X204148628Y-193714342D01*
X204077200Y-193571485D01*
X204077200Y-193000057D01*
X204148628Y-192857200D01*
X204291485Y-192785771D01*
X204577200Y-192785771D01*
X204720057Y-192857200D01*
X204791485Y-193000057D01*
X204791485Y-193142914D01*
X204077200Y-193285771D01*
X205434342Y-193642914D02*
X205505771Y-193714342D01*
X205434342Y-193785771D01*
X205362914Y-193714342D01*
X205434342Y-193642914D01*
X205434342Y-193785771D01*
X205434342Y-192857200D02*
X205505771Y-192928628D01*
X205434342Y-193000057D01*
X205362914Y-192928628D01*
X205434342Y-192857200D01*
X205434342Y-193000057D01*
D10*
D11*
X177002200Y-194507200D02*
X285002200Y-194507200D01*
D10*
D11*
X178434342Y-196585771D02*
X178434342Y-195085771D01*
X179291485Y-196585771D02*
X178648628Y-195728628D01*
X179291485Y-195085771D02*
X178434342Y-195942914D01*
X179934342Y-196585771D02*
X179934342Y-195585771D01*
X179934342Y-195085771D02*
X179862914Y-195157200D01*
X179934342Y-195228628D01*
X180005771Y-195157200D01*
X179934342Y-195085771D01*
X179934342Y-195228628D01*
X181505771Y-196442914D02*
X181434342Y-196514342D01*
X181220057Y-196585771D01*
X181077200Y-196585771D01*
X180862914Y-196514342D01*
X180720057Y-196371485D01*
X180648628Y-196228628D01*
X180577200Y-195942914D01*
X180577200Y-195728628D01*
X180648628Y-195442914D01*
X180720057Y-195300057D01*
X180862914Y-195157200D01*
X181077200Y-195085771D01*
X181220057Y-195085771D01*
X181434342Y-195157200D01*
X181505771Y-195228628D01*
X182791485Y-196585771D02*
X182791485Y-195800057D01*
X182720057Y-195657200D01*
X182577200Y-195585771D01*
X182291485Y-195585771D01*
X182148628Y-195657200D01*
X182791485Y-196514342D02*
X182648628Y-196585771D01*
X182291485Y-196585771D01*
X182148628Y-196514342D01*
X182077200Y-196371485D01*
X182077200Y-196228628D01*
X182148628Y-196085771D01*
X182291485Y-196014342D01*
X182648628Y-196014342D01*
X182791485Y-195942914D01*
X184148628Y-196585771D02*
X184148628Y-195085771D01*
X184148628Y-196514342D02*
X184005771Y-196585771D01*
X183720057Y-196585771D01*
X183577200Y-196514342D01*
X183505771Y-196442914D01*
X183434342Y-196300057D01*
X183434342Y-195871485D01*
X183505771Y-195728628D01*
X183577200Y-195657200D01*
X183720057Y-195585771D01*
X184005771Y-195585771D01*
X184148628Y-195657200D01*
X186005771Y-195800057D02*
X186505771Y-195800057D01*
X186720057Y-196585771D02*
X186005771Y-196585771D01*
X186005771Y-195085771D01*
X186720057Y-195085771D01*
X187362914Y-196442914D02*
X187434342Y-196514342D01*
X187362914Y-196585771D01*
X187291485Y-196514342D01*
X187362914Y-196442914D01*
X187362914Y-196585771D01*
X188077200Y-196585771D02*
X188077200Y-195085771D01*
X188434342Y-195085771D01*
X188648628Y-195157200D01*
X188791485Y-195300057D01*
X188862914Y-195442914D01*
X188934342Y-195728628D01*
X188934342Y-195942914D01*
X188862914Y-196228628D01*
X188791485Y-196371485D01*
X188648628Y-196514342D01*
X188434342Y-196585771D01*
X188077200Y-196585771D01*
X189577200Y-196442914D02*
X189648628Y-196514342D01*
X189577200Y-196585771D01*
X189505771Y-196514342D01*
X189577200Y-196442914D01*
X189577200Y-196585771D01*
X190220057Y-196157200D02*
X190934342Y-196157200D01*
X190077200Y-196585771D02*
X190577200Y-195085771D01*
X191077200Y-196585771D01*
X191577200Y-196442914D02*
X191648628Y-196514342D01*
X191577200Y-196585771D01*
X191505771Y-196514342D01*
X191577200Y-196442914D01*
X191577200Y-196585771D01*
X194577200Y-196585771D02*
X194577200Y-195085771D01*
X194720057Y-196014342D02*
X195148628Y-196585771D01*
X195148628Y-195585771D02*
X194577200Y-196157200D01*
X195791485Y-196585771D02*
X195791485Y-195585771D01*
X195791485Y-195085771D02*
X195720057Y-195157200D01*
X195791485Y-195228628D01*
X195862914Y-195157200D01*
X195791485Y-195085771D01*
X195791485Y-195228628D01*
X197148628Y-196514342D02*
X197005771Y-196585771D01*
X196720057Y-196585771D01*
X196577200Y-196514342D01*
X196505771Y-196442914D01*
X196434342Y-196300057D01*
X196434342Y-195871485D01*
X196505771Y-195728628D01*
X196577200Y-195657200D01*
X196720057Y-195585771D01*
X197005771Y-195585771D01*
X197148628Y-195657200D01*
X198434342Y-196585771D02*
X198434342Y-195800057D01*
X198362914Y-195657200D01*
X198220057Y-195585771D01*
X197934342Y-195585771D01*
X197791485Y-195657200D01*
X198434342Y-196514342D02*
X198291485Y-196585771D01*
X197934342Y-196585771D01*
X197791485Y-196514342D01*
X197720057Y-196371485D01*
X197720057Y-196228628D01*
X197791485Y-196085771D01*
X197934342Y-196014342D01*
X198291485Y-196014342D01*
X198434342Y-195942914D01*
X199791485Y-196585771D02*
X199791485Y-195085771D01*
X199791485Y-196514342D02*
X199648628Y-196585771D01*
X199362914Y-196585771D01*
X199220057Y-196514342D01*
X199148628Y-196442914D01*
X199077200Y-196300057D01*
X199077200Y-195871485D01*
X199148628Y-195728628D01*
X199220057Y-195657200D01*
X199362914Y-195585771D01*
X199648628Y-195585771D01*
X199791485Y-195657200D01*
X202077200Y-197157200D02*
X202005771Y-197085771D01*
X201862914Y-196871485D01*
X201791485Y-196728628D01*
X201720057Y-196514342D01*
X201648628Y-196157200D01*
X201648628Y-195871485D01*
X201720057Y-195514342D01*
X201791485Y-195300057D01*
X201862914Y-195157200D01*
X202005771Y-194942914D01*
X202077200Y-194871485D01*
X203362914Y-195085771D02*
X202648628Y-195085771D01*
X202577200Y-195800057D01*
X202648628Y-195728628D01*
X202791485Y-195657200D01*
X203148628Y-195657200D01*
X203291485Y-195728628D01*
X203362914Y-195800057D01*
X203434342Y-195942914D01*
X203434342Y-196300057D01*
X203362914Y-196442914D01*
X203291485Y-196514342D01*
X203148628Y-196585771D01*
X202791485Y-196585771D01*
X202648628Y-196514342D01*
X202577200Y-196442914D01*
X204077200Y-196442914D02*
X204148628Y-196514342D01*
X204077200Y-196585771D01*
X204005771Y-196514342D01*
X204077200Y-196442914D01*
X204077200Y-196585771D01*
X205577200Y-196585771D02*
X204720057Y-196585771D01*
X205148628Y-196585771D02*
X205148628Y-195085771D01*
X205005771Y-195300057D01*
X204862914Y-195442914D01*
X204720057Y-195514342D01*
X206220057Y-196442914D02*
X206291485Y-196514342D01*
X206220057Y-196585771D01*
X206148628Y-196514342D01*
X206220057Y-196442914D01*
X206220057Y-196585771D01*
X207148628Y-195728628D02*
X207005771Y-195657200D01*
X206934342Y-195585771D01*
X206862914Y-195442914D01*
X206862914Y-195371485D01*
X206934342Y-195228628D01*
X207005771Y-195157200D01*
X207148628Y-195085771D01*
X207434342Y-195085771D01*
X207577200Y-195157200D01*
X207648628Y-195228628D01*
X207720057Y-195371485D01*
X207720057Y-195442914D01*
X207648628Y-195585771D01*
X207577200Y-195657200D01*
X207434342Y-195728628D01*
X207148628Y-195728628D01*
X207005771Y-195800057D01*
X206934342Y-195871485D01*
X206862914Y-196014342D01*
X206862914Y-196300057D01*
X206934342Y-196442914D01*
X207005771Y-196514342D01*
X207148628Y-196585771D01*
X207434342Y-196585771D01*
X207577200Y-196514342D01*
X207648628Y-196442914D01*
X207720057Y-196300057D01*
X207720057Y-196014342D01*
X207648628Y-195871485D01*
X207577200Y-195800057D01*
X207434342Y-195728628D01*
X208220057Y-197157200D02*
X208291485Y-197085771D01*
X208434342Y-196871485D01*
X208505771Y-196728628D01*
X208577200Y-196514342D01*
X208648628Y-196157200D01*
X208648628Y-195871485D01*
X208577200Y-195514342D01*
X208505771Y-195300057D01*
X208434342Y-195157200D01*
X208291485Y-194942914D01*
X208220057Y-194871485D01*
X209362914Y-196014342D02*
X210505771Y-196014342D01*
X212005771Y-196585771D02*
X211148628Y-196585771D01*
X211577200Y-196585771D02*
X211577200Y-195085771D01*
X211434342Y-195300057D01*
X211291485Y-195442914D01*
X211148628Y-195514342D01*
D10*
D11*
X177002200Y-191507200D02*
X285002200Y-191507200D01*
D10*
D12*
X264411485Y-193785771D02*
X263911485Y-193071485D01*
X263554342Y-193785771D02*
X263554342Y-192285771D01*
X264125771Y-192285771D01*
X264268628Y-192357200D01*
X264340057Y-192428628D01*
X264411485Y-192571485D01*
X264411485Y-192785771D01*
X264340057Y-192928628D01*
X264268628Y-193000057D01*
X264125771Y-193071485D01*
X263554342Y-193071485D01*
X265625771Y-193714342D02*
X265482914Y-193785771D01*
X265197200Y-193785771D01*
X265054342Y-193714342D01*
X264982914Y-193571485D01*
X264982914Y-193000057D01*
X265054342Y-192857200D01*
X265197200Y-192785771D01*
X265482914Y-192785771D01*
X265625771Y-192857200D01*
X265697200Y-193000057D01*
X265697200Y-193142914D01*
X264982914Y-193285771D01*
X266197200Y-192785771D02*
X266554342Y-193785771D01*
X266911485Y-192785771D01*
X267482914Y-193642914D02*
X267554342Y-193714342D01*
X267482914Y-193785771D01*
X267411485Y-193714342D01*
X267482914Y-193642914D01*
X267482914Y-193785771D01*
X267482914Y-192857200D02*
X267554342Y-192928628D01*
X267482914Y-193000057D01*
X267411485Y-192928628D01*
X267482914Y-192857200D01*
X267482914Y-193000057D01*
D10*
D11*
X178362914Y-193714342D02*
X178577200Y-193785771D01*
X178934342Y-193785771D01*
X179077200Y-193714342D01*
X179148628Y-193642914D01*
X179220057Y-193500057D01*
X179220057Y-193357200D01*
X179148628Y-193214342D01*
X179077200Y-193142914D01*
X178934342Y-193071485D01*
X178648628Y-193000057D01*
X178505771Y-192928628D01*
X178434342Y-192857200D01*
X178362914Y-192714342D01*
X178362914Y-192571485D01*
X178434342Y-192428628D01*
X178505771Y-192357200D01*
X178648628Y-192285771D01*
X179005771Y-192285771D01*
X179220057Y-192357200D01*
X179862914Y-193785771D02*
X179862914Y-192785771D01*
X179862914Y-192285771D02*
X179791485Y-192357200D01*
X179862914Y-192428628D01*
X179934342Y-192357200D01*
X179862914Y-192285771D01*
X179862914Y-192428628D01*
X180434342Y-192785771D02*
X181220057Y-192785771D01*
X180434342Y-193785771D01*
X181220057Y-193785771D01*
X182362914Y-193714342D02*
X182220057Y-193785771D01*
X181934342Y-193785771D01*
X181791485Y-193714342D01*
X181720057Y-193571485D01*
X181720057Y-193000057D01*
X181791485Y-192857200D01*
X181934342Y-192785771D01*
X182220057Y-192785771D01*
X182362914Y-192857200D01*
X182434342Y-193000057D01*
X182434342Y-193142914D01*
X181720057Y-193285771D01*
X183077200Y-193642914D02*
X183148628Y-193714342D01*
X183077200Y-193785771D01*
X183005771Y-193714342D01*
X183077200Y-193642914D01*
X183077200Y-193785771D01*
X183077200Y-192857200D02*
X183148628Y-192928628D01*
X183077200Y-193000057D01*
X183005771Y-192928628D01*
X183077200Y-192857200D01*
X183077200Y-193000057D01*
X184862914Y-193357200D02*
X185577200Y-193357200D01*
X184720057Y-193785771D02*
X185220057Y-192285771D01*
X185720057Y-193785771D01*
X186862914Y-192785771D02*
X186862914Y-193785771D01*
X186505771Y-192214342D02*
X186148628Y-193285771D01*
X187077200Y-193285771D01*
D10*
D11*
X263434342Y-196585771D02*
X263434342Y-195085771D01*
X264791485Y-196585771D02*
X264791485Y-195085771D01*
X264791485Y-196514342D02*
X264648628Y-196585771D01*
X264362914Y-196585771D01*
X264220057Y-196514342D01*
X264148628Y-196442914D01*
X264077200Y-196300057D01*
X264077200Y-195871485D01*
X264148628Y-195728628D01*
X264220057Y-195657200D01*
X264362914Y-195585771D01*
X264648628Y-195585771D01*
X264791485Y-195657200D01*
X265505771Y-196442914D02*
X265577200Y-196514342D01*
X265505771Y-196585771D01*
X265434342Y-196514342D01*
X265505771Y-196442914D01*
X265505771Y-196585771D01*
X265505771Y-195657200D02*
X265577200Y-195728628D01*
X265505771Y-195800057D01*
X265434342Y-195728628D01*
X265505771Y-195657200D01*
X265505771Y-195800057D01*
X268148628Y-196585771D02*
X267291485Y-196585771D01*
X267720057Y-196585771D02*
X267720057Y-195085771D01*
X267577200Y-195300057D01*
X267434342Y-195442914D01*
X267291485Y-195514342D01*
X269862914Y-195014342D02*
X268577200Y-196942914D01*
X271148628Y-196585771D02*
X270291485Y-196585771D01*
X270720057Y-196585771D02*
X270720057Y-195085771D01*
X270577200Y-195300057D01*
X270434342Y-195442914D01*
X270291485Y-195514342D01*
D10*
D11*
X177002200Y-187507200D02*
X285002200Y-187507200D01*
D10*
D13*
X178714580Y-188211961D02*
X179857438Y-188211961D01*
X179036009Y-190211961D02*
X179286009Y-188211961D01*
X180274104Y-190211961D02*
X180440771Y-188878628D01*
X180524104Y-188211961D02*
X180416961Y-188307200D01*
X180500295Y-188402438D01*
X180607438Y-188307200D01*
X180524104Y-188211961D01*
X180500295Y-188402438D01*
X181107438Y-188878628D02*
X181869342Y-188878628D01*
X181476485Y-188211961D02*
X181262200Y-189926247D01*
X181333628Y-190116723D01*
X181512200Y-190211961D01*
X181702676Y-190211961D01*
X182655057Y-190211961D02*
X182476485Y-190116723D01*
X182405057Y-189926247D01*
X182619342Y-188211961D01*
X184190771Y-190116723D02*
X183988390Y-190211961D01*
X183607438Y-190211961D01*
X183428866Y-190116723D01*
X183357438Y-189926247D01*
X183452676Y-189164342D01*
X183571723Y-188973866D01*
X183774104Y-188878628D01*
X184155057Y-188878628D01*
X184333628Y-188973866D01*
X184405057Y-189164342D01*
X184381247Y-189354819D01*
X183405057Y-189545295D01*
X185155057Y-190021485D02*
X185238390Y-190116723D01*
X185131247Y-190211961D01*
X185047914Y-190116723D01*
X185155057Y-190021485D01*
X185131247Y-190211961D01*
X185286009Y-188973866D02*
X185369342Y-189069104D01*
X185262200Y-189164342D01*
X185178866Y-189069104D01*
X185286009Y-188973866D01*
X185262200Y-189164342D01*
D10*
D11*
X178934342Y-185600057D02*
X178434342Y-185600057D01*
X178434342Y-186385771D02*
X178434342Y-184885771D01*
X179148628Y-184885771D01*
X179720057Y-186385771D02*
X179720057Y-185385771D01*
X179720057Y-184885771D02*
X179648628Y-184957200D01*
X179720057Y-185028628D01*
X179791485Y-184957200D01*
X179720057Y-184885771D01*
X179720057Y-185028628D01*
X180648628Y-186385771D02*
X180505771Y-186314342D01*
X180434342Y-186171485D01*
X180434342Y-184885771D01*
X181791485Y-186314342D02*
X181648628Y-186385771D01*
X181362914Y-186385771D01*
X181220057Y-186314342D01*
X181148628Y-186171485D01*
X181148628Y-185600057D01*
X181220057Y-185457200D01*
X181362914Y-185385771D01*
X181648628Y-185385771D01*
X181791485Y-185457200D01*
X181862914Y-185600057D01*
X181862914Y-185742914D01*
X181148628Y-185885771D01*
X182505771Y-186242914D02*
X182577200Y-186314342D01*
X182505771Y-186385771D01*
X182434342Y-186314342D01*
X182505771Y-186242914D01*
X182505771Y-186385771D01*
X182505771Y-185457200D02*
X182577200Y-185528628D01*
X182505771Y-185600057D01*
X182434342Y-185528628D01*
X182505771Y-185457200D01*
X182505771Y-185600057D01*
X184362914Y-186385771D02*
X184362914Y-185385771D01*
X184362914Y-185671485D02*
X184434342Y-185528628D01*
X184505771Y-185457200D01*
X184648628Y-185385771D01*
X184791485Y-185385771D01*
X185934342Y-186385771D02*
X185934342Y-185600057D01*
X185862914Y-185457200D01*
X185720057Y-185385771D01*
X185434342Y-185385771D01*
X185291485Y-185457200D01*
X185934342Y-186314342D02*
X185791485Y-186385771D01*
X185434342Y-186385771D01*
X185291485Y-186314342D01*
X185220057Y-186171485D01*
X185220057Y-186028628D01*
X185291485Y-185885771D01*
X185434342Y-185814342D01*
X185791485Y-185814342D01*
X185934342Y-185742914D01*
X187291485Y-186385771D02*
X187291485Y-184885771D01*
X187291485Y-186314342D02*
X187148628Y-186385771D01*
X186862914Y-186385771D01*
X186720057Y-186314342D01*
X186648628Y-186242914D01*
X186577200Y-186100057D01*
X186577200Y-185671485D01*
X186648628Y-185528628D01*
X186720057Y-185457200D01*
X186862914Y-185385771D01*
X187148628Y-185385771D01*
X187291485Y-185457200D01*
X188005771Y-186385771D02*
X188005771Y-185385771D01*
X188005771Y-184885771D02*
X187934342Y-184957200D01*
X188005771Y-185028628D01*
X188077200Y-184957200D01*
X188005771Y-184885771D01*
X188005771Y-185028628D01*
X188934342Y-186385771D02*
X188791485Y-186314342D01*
X188720057Y-186242914D01*
X188648628Y-186100057D01*
X188648628Y-185671485D01*
X188720057Y-185528628D01*
X188791485Y-185457200D01*
X188934342Y-185385771D01*
X189148628Y-185385771D01*
X189291485Y-185457200D01*
X189362914Y-185528628D01*
X189434342Y-185671485D01*
X189434342Y-186100057D01*
X189362914Y-186242914D01*
X189291485Y-186314342D01*
X189148628Y-186385771D01*
X188934342Y-186385771D01*
X190077200Y-186385771D02*
X190077200Y-184885771D01*
X190077200Y-185457200D02*
X190220057Y-185385771D01*
X190505771Y-185385771D01*
X190648628Y-185457200D01*
X190720057Y-185528628D01*
X190791485Y-185671485D01*
X190791485Y-186100057D01*
X190720057Y-186242914D01*
X190648628Y-186314342D01*
X190505771Y-186385771D01*
X190220057Y-186385771D01*
X190077200Y-186314342D01*
X192005771Y-186314342D02*
X191862914Y-186385771D01*
X191577200Y-186385771D01*
X191434342Y-186314342D01*
X191362914Y-186171485D01*
X191362914Y-185600057D01*
X191434342Y-185457200D01*
X191577200Y-185385771D01*
X191862914Y-185385771D01*
X192005771Y-185457200D01*
X192077200Y-185600057D01*
X192077200Y-185742914D01*
X191362914Y-185885771D01*
X192720057Y-186385771D02*
X192720057Y-185385771D01*
X192720057Y-185671485D02*
X192791485Y-185528628D01*
X192862914Y-185457200D01*
X193005771Y-185385771D01*
X193148628Y-185385771D01*
X193648628Y-186385771D02*
X193648628Y-185385771D01*
X193648628Y-185671485D02*
X193720057Y-185528628D01*
X193791485Y-185457200D01*
X193934342Y-185385771D01*
X194077200Y-185385771D01*
X194434342Y-185385771D02*
X194791485Y-186385771D01*
X195148628Y-185385771D02*
X194791485Y-186385771D01*
X194648628Y-186742914D01*
X194577200Y-186814342D01*
X194434342Y-186885771D01*
X195720057Y-185814342D02*
X196862914Y-185814342D01*
X197577200Y-185385771D02*
X197577200Y-186885771D01*
X197577200Y-185457200D02*
X197720057Y-185385771D01*
X198005771Y-185385771D01*
X198148628Y-185457200D01*
X198220057Y-185528628D01*
X198291485Y-185671485D01*
X198291485Y-186100057D01*
X198220057Y-186242914D01*
X198148628Y-186314342D01*
X198005771Y-186385771D01*
X197720057Y-186385771D01*
X197577200Y-186314342D01*
X198934342Y-186385771D02*
X198934342Y-185385771D01*
X198934342Y-185671485D02*
X199005771Y-185528628D01*
X199077200Y-185457200D01*
X199220057Y-185385771D01*
X199362914Y-185385771D01*
X200434342Y-186314342D02*
X200291485Y-186385771D01*
X200005771Y-186385771D01*
X199862914Y-186314342D01*
X199791485Y-186171485D01*
X199791485Y-185600057D01*
X199862914Y-185457200D01*
X200005771Y-185385771D01*
X200291485Y-185385771D01*
X200434342Y-185457200D01*
X200505771Y-185600057D01*
X200505771Y-185742914D01*
X199791485Y-185885771D01*
X201791485Y-186385771D02*
X201791485Y-185600057D01*
X201720057Y-185457200D01*
X201577200Y-185385771D01*
X201291485Y-185385771D01*
X201148628Y-185457200D01*
X201791485Y-186314342D02*
X201648628Y-186385771D01*
X201291485Y-186385771D01*
X201148628Y-186314342D01*
X201077200Y-186171485D01*
X201077200Y-186028628D01*
X201148628Y-185885771D01*
X201291485Y-185814342D01*
X201648628Y-185814342D01*
X201791485Y-185742914D01*
X202505771Y-186385771D02*
X202505771Y-185385771D01*
X202505771Y-185528628D02*
X202577200Y-185457200D01*
X202720057Y-185385771D01*
X202934342Y-185385771D01*
X203077200Y-185457200D01*
X203148628Y-185600057D01*
X203148628Y-186385771D01*
X203148628Y-185600057D02*
X203220057Y-185457200D01*
X203362914Y-185385771D01*
X203577200Y-185385771D01*
X203720057Y-185457200D01*
X203791485Y-185600057D01*
X203791485Y-186385771D01*
X204505771Y-185385771D02*
X204505771Y-186885771D01*
X204505771Y-185457200D02*
X204648628Y-185385771D01*
X204934342Y-185385771D01*
X205077200Y-185457200D01*
X205148628Y-185528628D01*
X205220057Y-185671485D01*
X205220057Y-186100057D01*
X205148628Y-186242914D01*
X205077200Y-186314342D01*
X204934342Y-186385771D01*
X204648628Y-186385771D01*
X204505771Y-186314342D01*
X205862914Y-186242914D02*
X205934342Y-186314342D01*
X205862914Y-186385771D01*
X205791485Y-186314342D01*
X205862914Y-186242914D01*
X205862914Y-186385771D01*
X206577200Y-186385771D02*
X206577200Y-184885771D01*
X206720057Y-185814342D02*
X207148628Y-186385771D01*
X207148628Y-185385771D02*
X206577200Y-185957200D01*
X207791485Y-186385771D02*
X207791485Y-185385771D01*
X207791485Y-184885771D02*
X207720057Y-184957200D01*
X207791485Y-185028628D01*
X207862914Y-184957200D01*
X207791485Y-184885771D01*
X207791485Y-185028628D01*
X209148628Y-186314342D02*
X209005771Y-186385771D01*
X208720057Y-186385771D01*
X208577200Y-186314342D01*
X208505771Y-186242914D01*
X208434342Y-186100057D01*
X208434342Y-185671485D01*
X208505771Y-185528628D01*
X208577200Y-185457200D01*
X208720057Y-185385771D01*
X209005771Y-185385771D01*
X209148628Y-185457200D01*
X210434342Y-186385771D02*
X210434342Y-185600057D01*
X210362914Y-185457200D01*
X210220057Y-185385771D01*
X209934342Y-185385771D01*
X209791485Y-185457200D01*
X210434342Y-186314342D02*
X210291485Y-186385771D01*
X209934342Y-186385771D01*
X209791485Y-186314342D01*
X209720057Y-186171485D01*
X209720057Y-186028628D01*
X209791485Y-185885771D01*
X209934342Y-185814342D01*
X210291485Y-185814342D01*
X210434342Y-185742914D01*
X211791485Y-186385771D02*
X211791485Y-184885771D01*
X211791485Y-186314342D02*
X211648628Y-186385771D01*
X211362914Y-186385771D01*
X211220057Y-186314342D01*
X211148628Y-186242914D01*
X211077200Y-186100057D01*
X211077200Y-185671485D01*
X211148628Y-185528628D01*
X211220057Y-185457200D01*
X211362914Y-185385771D01*
X211648628Y-185385771D01*
X211791485Y-185457200D01*
X212148628Y-186528628D02*
X213291485Y-186528628D01*
X213648628Y-185385771D02*
X213648628Y-186885771D01*
X213648628Y-185457200D02*
X213791485Y-185385771D01*
X214077200Y-185385771D01*
X214220057Y-185457200D01*
X214291485Y-185528628D01*
X214362914Y-185671485D01*
X214362914Y-186100057D01*
X214291485Y-186242914D01*
X214220057Y-186314342D01*
X214077200Y-186385771D01*
X213791485Y-186385771D01*
X213648628Y-186314342D01*
X215648628Y-186314342D02*
X215505771Y-186385771D01*
X215220057Y-186385771D01*
X215077200Y-186314342D01*
X215005771Y-186242914D01*
X214934342Y-186100057D01*
X214934342Y-185671485D01*
X215005771Y-185528628D01*
X215077200Y-185457200D01*
X215220057Y-185385771D01*
X215505771Y-185385771D01*
X215648628Y-185457200D01*
X216291485Y-186385771D02*
X216291485Y-184885771D01*
X216291485Y-185457200D02*
X216434342Y-185385771D01*
X216720057Y-185385771D01*
X216862914Y-185457200D01*
X216934342Y-185528628D01*
X217005771Y-185671485D01*
X217005771Y-186100057D01*
X216934342Y-186242914D01*
X216862914Y-186314342D01*
X216720057Y-186385771D01*
X216434342Y-186385771D01*
X216291485Y-186314342D01*
D10*
D11*
X177002200Y-181507200D02*
X285002200Y-181507200D01*
D10*
D11*
X178362914Y-183614342D02*
X178577200Y-183685771D01*
X178934342Y-183685771D01*
X179077200Y-183614342D01*
X179148628Y-183542914D01*
X179220057Y-183400057D01*
X179220057Y-183257200D01*
X179148628Y-183114342D01*
X179077200Y-183042914D01*
X178934342Y-182971485D01*
X178648628Y-182900057D01*
X178505771Y-182828628D01*
X178434342Y-182757200D01*
X178362914Y-182614342D01*
X178362914Y-182471485D01*
X178434342Y-182328628D01*
X178505771Y-182257200D01*
X178648628Y-182185771D01*
X179005771Y-182185771D01*
X179220057Y-182257200D01*
X179862914Y-183685771D02*
X179862914Y-182185771D01*
X180505771Y-183685771D02*
X180505771Y-182900057D01*
X180434342Y-182757200D01*
X180291485Y-182685771D01*
X180077200Y-182685771D01*
X179934342Y-182757200D01*
X179862914Y-182828628D01*
X181791485Y-183614342D02*
X181648628Y-183685771D01*
X181362914Y-183685771D01*
X181220057Y-183614342D01*
X181148628Y-183471485D01*
X181148628Y-182900057D01*
X181220057Y-182757200D01*
X181362914Y-182685771D01*
X181648628Y-182685771D01*
X181791485Y-182757200D01*
X181862914Y-182900057D01*
X181862914Y-183042914D01*
X181148628Y-183185771D01*
X183077200Y-183614342D02*
X182934342Y-183685771D01*
X182648628Y-183685771D01*
X182505771Y-183614342D01*
X182434342Y-183471485D01*
X182434342Y-182900057D01*
X182505771Y-182757200D01*
X182648628Y-182685771D01*
X182934342Y-182685771D01*
X183077200Y-182757200D01*
X183148628Y-182900057D01*
X183148628Y-183042914D01*
X182434342Y-183185771D01*
X183577200Y-182685771D02*
X184148628Y-182685771D01*
X183791485Y-182185771D02*
X183791485Y-183471485D01*
X183862914Y-183614342D01*
X184005771Y-183685771D01*
X184148628Y-183685771D01*
X184648628Y-183542914D02*
X184720057Y-183614342D01*
X184648628Y-183685771D01*
X184577200Y-183614342D01*
X184648628Y-183542914D01*
X184648628Y-183685771D01*
X184648628Y-182757200D02*
X184720057Y-182828628D01*
X184648628Y-182900057D01*
X184577200Y-182828628D01*
X184648628Y-182757200D01*
X184648628Y-182900057D01*
D10*
D11*
X197002200Y-191507200D02*
X197002200Y-194507200D01*
D10*
D11*
X261002200Y-191507200D02*
X261002200Y-198007200D01*
D14*
%TO.C,C123*%
X144700000Y-96576000D03*
X144700000Y-98100000D03*
%TD*%
D15*
%TO.C,C122*%
X146500000Y-100200000D03*
X144976000Y-100200000D03*
%TD*%
%TO.C,C121*%
X146562000Y-101900000D03*
X145038000Y-101900000D03*
%TD*%
D14*
%TO.C,C120*%
X138700000Y-107100000D03*
X138700000Y-105576000D03*
%TD*%
D15*
%TO.C,C119*%
X142362000Y-97900000D03*
X140838000Y-97900000D03*
%TD*%
D16*
%TO.C,T302*%
X103594000Y-77706000D03*
X103594000Y-83294000D03*
X98006000Y-83294000D03*
D17*
X98006000Y-80500000D03*
D16*
X98006000Y-77706000D03*
D18*
X97990000Y-80500000D03*
D10*
G36*
X100237107Y-78595000D02*
G01*
X99530000Y-79302107D01*
X98822893Y-78595000D01*
X99530000Y-77887893D01*
X100237107Y-78595000D01*
G37*
G36*
X100237107Y-82405000D02*
G01*
X99530000Y-83112107D01*
X98822893Y-82405000D01*
X99530000Y-81697893D01*
X100237107Y-82405000D01*
G37*
D19*
X100350000Y-79102500D03*
D20*
X100350000Y-80500000D03*
D19*
X100350000Y-81897500D03*
X103530000Y-79102500D03*
X103530000Y-81897500D03*
D21*
X98260000Y-77960000D03*
D10*
G36*
X99530000Y-80880000D02*
G01*
X96990000Y-81330000D01*
X96990000Y-79670000D01*
X99530000Y-80120000D01*
X99530000Y-80880000D01*
G37*
D21*
X98260000Y-83040000D03*
X103340000Y-77960000D03*
X103340000Y-83040000D03*
%TD*%
D22*
%TO.C,DB202*%
X111660000Y-100600000D03*
D23*
X114200000Y-100600000D03*
%TD*%
D22*
%TO.C,DB201*%
X103240000Y-85800000D03*
D23*
X100700000Y-85800000D03*
%TD*%
D14*
%TO.C,J207*%
X117500000Y-122524000D03*
X117500000Y-121000000D03*
%TD*%
D15*
%TO.C,J206*%
X122500000Y-119500000D03*
X120976000Y-119500000D03*
%TD*%
D14*
%TO.C,J205*%
X116000000Y-122524000D03*
X116000000Y-121000000D03*
%TD*%
D15*
%TO.C,J204*%
X122500000Y-121000000D03*
X120976000Y-121000000D03*
%TD*%
D24*
%TO.C,MH5*%
X124000000Y-77000000D03*
%TD*%
D25*
%TO.C,R302*%
X153500000Y-84500000D03*
X153500000Y-86405000D03*
%TD*%
D26*
%TO.C,R301*%
X152000000Y-82500000D03*
X153905000Y-82500000D03*
%TD*%
D25*
%TO.C,C302*%
X151500000Y-86452500D03*
X151500000Y-84547500D03*
%TD*%
%TO.C,C301*%
X149000000Y-82095000D03*
X149000000Y-84000000D03*
%TD*%
D27*
%TO.C,IC101*%
X106700000Y-110150063D03*
X109000000Y-110150063D03*
X111300001Y-110150063D03*
D28*
X109000000Y-103850062D03*
%TD*%
D29*
%TO.C,C118*%
X104000000Y-108800000D03*
X104000000Y-106000000D03*
%TD*%
D15*
%TO.C,C117*%
X103476000Y-101000000D03*
X105000000Y-101000000D03*
%TD*%
%TO.C,C116*%
X114000000Y-103000000D03*
X112476000Y-103000000D03*
%TD*%
%TO.C,C115*%
X103500000Y-103000000D03*
X105024000Y-103000000D03*
%TD*%
D14*
%TO.C,C114*%
X114000000Y-111524000D03*
X114000000Y-110000000D03*
%TD*%
D29*
%TO.C,C113*%
X114000000Y-105000000D03*
X114000000Y-107800000D03*
%TD*%
D30*
%TO.C,T301*%
X123500000Y-86500000D03*
D31*
X120300000Y-84200000D03*
X126700000Y-84200000D03*
X126700000Y-88800000D03*
X120300000Y-88800000D03*
%TD*%
D26*
%TO.C,R310*%
X95300000Y-81000000D03*
X93395000Y-81000000D03*
%TD*%
D25*
%TO.C,R309*%
X91300000Y-83000000D03*
X91300000Y-81095000D03*
%TD*%
D26*
%TO.C,R307*%
X93347500Y-83000000D03*
X95252500Y-83000000D03*
%TD*%
D15*
%TO.C,C202*%
X106238000Y-77500000D03*
X107762000Y-77500000D03*
%TD*%
D32*
%TO.C,CN101*%
X149100000Y-116000000D03*
X144100000Y-116000000D03*
D31*
X144000000Y-111300000D03*
X147150000Y-116000000D03*
D33*
X141000000Y-116000000D03*
%TD*%
D25*
%TO.C,C111*%
X119000000Y-119405000D03*
X119000000Y-117500000D03*
%TD*%
D34*
%TO.C,C110*%
X124000000Y-112500000D03*
X121200000Y-112500000D03*
%TD*%
D26*
%TO.C,C109*%
X135905000Y-102000000D03*
X134000000Y-102000000D03*
%TD*%
%TO.C,C108*%
X135905000Y-100000000D03*
X134000000Y-100000000D03*
%TD*%
%TO.C,C107*%
X130500000Y-98000000D03*
X132405000Y-98000000D03*
%TD*%
%TO.C,C106*%
X130500000Y-100000000D03*
X132405000Y-100000000D03*
%TD*%
%TO.C,C105*%
X130547500Y-102000000D03*
X132452500Y-102000000D03*
%TD*%
D25*
%TO.C,C103*%
X139000000Y-110095000D03*
X139000000Y-112000000D03*
%TD*%
D29*
%TO.C,C102*%
X136500000Y-109000000D03*
X136500000Y-111800000D03*
%TD*%
%TO.C,C101*%
X136500000Y-106900000D03*
X136500000Y-104100000D03*
%TD*%
D22*
%TO.C,DB203*%
X101920000Y-125040000D03*
X101920000Y-122500000D03*
X104460000Y-125040000D03*
X104460000Y-122500000D03*
X107000000Y-125040000D03*
X107000000Y-122500000D03*
X109540000Y-125040000D03*
X109540000Y-122500000D03*
X112080000Y-125040000D03*
D23*
X112080000Y-122500000D03*
%TD*%
D22*
%TO.C,RF303*%
X97040000Y-89160000D03*
X97040000Y-94240000D03*
X94500000Y-96780000D03*
D16*
X91960000Y-91700000D03*
D22*
X91960000Y-89160000D03*
X91960000Y-94240000D03*
X94500000Y-94240000D03*
X94500000Y-89160000D03*
X94500000Y-91700000D03*
D35*
X94500000Y-88400000D03*
X94500000Y-95000000D03*
D36*
X94500000Y-91700000D03*
D22*
X91960000Y-96780000D03*
%TD*%
%TO.C,RF302*%
X147960000Y-96540000D03*
X147960000Y-91460000D03*
X150500000Y-88920000D03*
D16*
X153040000Y-94000000D03*
D22*
X153040000Y-96540000D03*
X153040000Y-91460000D03*
X150500000Y-91460000D03*
X150500000Y-96540000D03*
X150500000Y-94000000D03*
D35*
X150500000Y-97300000D03*
X150500000Y-90700000D03*
D36*
X150500000Y-94000000D03*
D22*
X153040000Y-88920000D03*
%TD*%
%TO.C,RF301*%
X96940000Y-110160000D03*
X96940000Y-115240000D03*
X94400000Y-117780000D03*
D16*
X91860000Y-112700000D03*
D22*
X91860000Y-110160000D03*
X91860000Y-115240000D03*
X94400000Y-115240000D03*
X94400000Y-110160000D03*
X94400000Y-112700000D03*
D35*
X94400000Y-109400000D03*
X94400000Y-116000000D03*
D36*
X94400000Y-112700000D03*
D22*
X91860000Y-117780000D03*
%TD*%
D37*
%TO.C,JP201*%
X143430000Y-125270000D03*
X143430000Y-122730000D03*
X140890000Y-125270000D03*
X140890000Y-122730000D03*
X138350000Y-125270000D03*
X138350000Y-122730000D03*
X135810000Y-125270000D03*
X135810000Y-122730000D03*
X133270000Y-125270000D03*
X133270000Y-122730000D03*
X130730000Y-125270000D03*
X130730000Y-122730000D03*
X128190000Y-125270000D03*
X128190000Y-122730000D03*
X125650000Y-125270000D03*
X125650000Y-122730000D03*
X123110000Y-125270000D03*
X123110000Y-122730000D03*
X120570000Y-125270000D03*
X120570000Y-122730000D03*
%TD*%
D24*
%TO.C,MH4*%
X151500000Y-123500000D03*
%TD*%
%TO.C,MH3*%
X151500000Y-74500000D03*
%TD*%
%TO.C,MH2*%
X93500000Y-123500000D03*
%TD*%
%TO.C,MH1*%
X93500000Y-74500000D03*
%TD*%
D38*
%TO.C,U301*%
X136450000Y-96500000D03*
X136450000Y-97150000D03*
X136450000Y-97800000D03*
X134500000Y-97800000D03*
X134500000Y-97150000D03*
X134500000Y-96500000D03*
%TD*%
D39*
%TO.C,U202*%
X119800000Y-106500000D03*
X124200000Y-106500000D03*
X119800000Y-106000000D03*
X124200000Y-106000000D03*
X119800000Y-105500000D03*
X124200000Y-105500000D03*
X119800000Y-105000000D03*
X124200000Y-105000000D03*
X119800000Y-104500000D03*
X124200000Y-104500000D03*
%TD*%
D40*
%TO.C,U201*%
X108650000Y-92025000D03*
X104350000Y-92025000D03*
X108650000Y-92675000D03*
X104350000Y-92675000D03*
X108650000Y-93325000D03*
X104350000Y-93325000D03*
X108650000Y-93975000D03*
X104350000Y-93975000D03*
%TD*%
D41*
%TO.C,U102*%
X120500000Y-114800000D03*
X122400000Y-114800000D03*
X122400000Y-117500000D03*
X121450000Y-117500000D03*
X120500000Y-117500000D03*
%TD*%
D42*
%TO.C,U101*%
X130200000Y-114000000D03*
D43*
X128200000Y-114000000D03*
D44*
X130000000Y-114000000D03*
D45*
X131905000Y-116650000D03*
X131905000Y-111350000D03*
X130635000Y-116650000D03*
X130635000Y-111350000D03*
X129365000Y-116650000D03*
X129365000Y-111350000D03*
X128095000Y-116650000D03*
X128095000Y-111350000D03*
D42*
X131200000Y-114000000D03*
%TD*%
D26*
%TO.C,R312*%
X106095000Y-82000000D03*
X108000000Y-82000000D03*
%TD*%
D15*
%TO.C,R311*%
X129000000Y-81500000D03*
X130524000Y-81500000D03*
%TD*%
D26*
%TO.C,R306*%
X106095000Y-84500000D03*
X108000000Y-84500000D03*
%TD*%
D15*
%TO.C,R304*%
X111476000Y-81500000D03*
X113000000Y-81500000D03*
%TD*%
D34*
%TO.C,R303*%
X135400000Y-94500000D03*
X132600000Y-94500000D03*
%TD*%
D14*
%TO.C,R221*%
X108000000Y-119024000D03*
X108000000Y-117500000D03*
%TD*%
%TO.C,R220*%
X106500000Y-119024000D03*
X106500000Y-117500000D03*
%TD*%
D15*
%TO.C,R219*%
X103262000Y-114000000D03*
X101738000Y-114000000D03*
%TD*%
D14*
%TO.C,R218*%
X106500000Y-114000000D03*
X106500000Y-115524000D03*
%TD*%
%TO.C,R217*%
X108000000Y-113976000D03*
X108000000Y-115500000D03*
%TD*%
D15*
%TO.C,R216*%
X139476000Y-93500000D03*
X141000000Y-93500000D03*
%TD*%
D14*
%TO.C,R215*%
X126500000Y-105024000D03*
X126500000Y-103500000D03*
%TD*%
D15*
%TO.C,R214*%
X119476000Y-108500000D03*
X121000000Y-108500000D03*
%TD*%
D14*
%TO.C,R213*%
X126500000Y-107762000D03*
X126500000Y-106238000D03*
%TD*%
%TO.C,R212*%
X118000000Y-109762000D03*
X118000000Y-108238000D03*
%TD*%
D15*
%TO.C,R211*%
X122976000Y-108500000D03*
X124500000Y-108500000D03*
%TD*%
%TO.C,R210*%
X121024000Y-110500000D03*
X119500000Y-110500000D03*
%TD*%
D14*
%TO.C,R209*%
X108000000Y-96000000D03*
X108000000Y-97524000D03*
%TD*%
%TO.C,R208*%
X112500000Y-96000000D03*
X112500000Y-97524000D03*
%TD*%
%TO.C,R207*%
X111000000Y-119024000D03*
X111000000Y-117500000D03*
%TD*%
%TO.C,R206*%
X109000000Y-90024000D03*
X109000000Y-88500000D03*
%TD*%
%TO.C,R205*%
X110500000Y-88500000D03*
X110500000Y-90024000D03*
%TD*%
%TO.C,R204*%
X114000000Y-119024000D03*
X114000000Y-117500000D03*
%TD*%
%TO.C,R203*%
X103000000Y-90000000D03*
X103000000Y-88476000D03*
%TD*%
%TO.C,R202*%
X114000000Y-114000000D03*
X114000000Y-115524000D03*
%TD*%
%TO.C,R201*%
X111000000Y-113976000D03*
X111000000Y-115500000D03*
%TD*%
%TO.C,R104*%
X124500000Y-116262000D03*
X124500000Y-114738000D03*
%TD*%
%TO.C,R103*%
X134000000Y-116762000D03*
X134000000Y-115238000D03*
%TD*%
%TO.C,R102*%
X134000000Y-113524000D03*
X134000000Y-112000000D03*
%TD*%
D15*
%TO.C,R101*%
X130000000Y-118500000D03*
X131524000Y-118500000D03*
%TD*%
D46*
%TO.C,Q302*%
X132500000Y-74000000D03*
D10*
G36*
X133450000Y-76137500D02*
G01*
X132925000Y-76662500D01*
X132075000Y-76662500D01*
X131550000Y-76137500D01*
X133450000Y-76137500D01*
G37*
D47*
X132500000Y-77300000D03*
D48*
X130900000Y-77300000D03*
D49*
X138000000Y-75200000D03*
X127000000Y-75200000D03*
D50*
X135500000Y-77200000D03*
X129500000Y-77200000D03*
D51*
X132500000Y-78400000D03*
D48*
X134100000Y-77300000D03*
D52*
X132500000Y-72300000D03*
D42*
X127800000Y-73000000D03*
X132500000Y-76500000D03*
X131800000Y-76000000D03*
X133200000Y-76000000D03*
X132500000Y-75500000D03*
X132500000Y-74500000D03*
X133200000Y-75000000D03*
X131800000Y-75000000D03*
X132500000Y-73500000D03*
X133200000Y-74000000D03*
X131800000Y-74000000D03*
X132500000Y-72500000D03*
X128800000Y-73000000D03*
X129800000Y-73000000D03*
X130800000Y-73000000D03*
X131800000Y-73000000D03*
X131800000Y-72000000D03*
X130800000Y-72000000D03*
X129800000Y-72000000D03*
X128800000Y-72000000D03*
X127800000Y-72000000D03*
X133200000Y-72000000D03*
X134200000Y-72000000D03*
X135200000Y-72000000D03*
X136200000Y-72000000D03*
X137200000Y-72000000D03*
X137200000Y-73000000D03*
X136200000Y-73000000D03*
X135200000Y-73000000D03*
X134200000Y-73000000D03*
X133200000Y-73000000D03*
%TD*%
%TO.C,Q301*%
X116200000Y-73000000D03*
X117200000Y-73000000D03*
X118200000Y-73000000D03*
X119200000Y-73000000D03*
X120200000Y-73000000D03*
X120200000Y-72000000D03*
X119200000Y-72000000D03*
X118200000Y-72000000D03*
X117200000Y-72000000D03*
X116200000Y-72000000D03*
X110800000Y-72000000D03*
X111800000Y-72000000D03*
X112800000Y-72000000D03*
X113800000Y-72000000D03*
X114800000Y-72000000D03*
X114800000Y-73000000D03*
X113800000Y-73000000D03*
X112800000Y-73000000D03*
X111800000Y-73000000D03*
X115500000Y-72500000D03*
X114800000Y-74000000D03*
X116200000Y-74000000D03*
X115500000Y-73500000D03*
X114800000Y-75000000D03*
X116200000Y-75000000D03*
X115500000Y-74500000D03*
X115500000Y-75500000D03*
X116200000Y-76000000D03*
X114800000Y-76000000D03*
X115500000Y-76500000D03*
X110800000Y-73000000D03*
D52*
X115500000Y-72300000D03*
D48*
X117100000Y-77300000D03*
D51*
X115500000Y-78400000D03*
D50*
X112500000Y-77200000D03*
X118500000Y-77200000D03*
D49*
X110000000Y-75200000D03*
X121000000Y-75200000D03*
D48*
X113900000Y-77300000D03*
D47*
X115500000Y-77300000D03*
D10*
G36*
X116450000Y-76137500D02*
G01*
X115925000Y-76662500D01*
X115075000Y-76662500D01*
X114550000Y-76137500D01*
X116450000Y-76137500D01*
G37*
D46*
X115500000Y-74000000D03*
%TD*%
D53*
%TO.C,Q203*%
X101050000Y-116000000D03*
X102000000Y-118000000D03*
X102950000Y-116000000D03*
%TD*%
%TO.C,Q202*%
X139950000Y-92000000D03*
X139000000Y-90000000D03*
X138050000Y-92000000D03*
%TD*%
%TO.C,Q201*%
X107950000Y-74500000D03*
X107000000Y-72500000D03*
X106050000Y-74500000D03*
%TD*%
%TO.C,Q101*%
X142950000Y-101500000D03*
X142000000Y-99500000D03*
X141050000Y-101500000D03*
%TD*%
D54*
%TO.C,L101*%
X131000000Y-108400000D03*
X131000000Y-104500000D03*
%TD*%
D22*
%TO.C,K301*%
X140460000Y-72880000D03*
X140460000Y-83040000D03*
X145540000Y-85580000D03*
X145540000Y-80500000D03*
X145540000Y-77960000D03*
X145540000Y-75420000D03*
X140460000Y-75420000D03*
X140460000Y-77960000D03*
X140460000Y-80500000D03*
X140460000Y-85580000D03*
%TD*%
D14*
%TO.C,J302*%
X135000000Y-88024000D03*
X135000000Y-86500000D03*
%TD*%
%TO.C,J301*%
X112500000Y-84524000D03*
X112500000Y-83000000D03*
%TD*%
%TO.C,J203*%
X105000000Y-97524000D03*
X105000000Y-96000000D03*
%TD*%
%TO.C,J202*%
X109500000Y-97524000D03*
X109500000Y-96000000D03*
%TD*%
%TO.C,J201*%
X106000000Y-88500000D03*
X106000000Y-90024000D03*
%TD*%
%TO.C,FB201*%
X103500000Y-96000000D03*
X103500000Y-97524000D03*
%TD*%
%TO.C,FB102*%
X124500000Y-117500000D03*
X124500000Y-119024000D03*
%TD*%
D15*
%TO.C,FB101*%
X130000000Y-120000000D03*
X131524000Y-120000000D03*
%TD*%
D55*
%TO.C,F101*%
X148700000Y-106000000D03*
X141300000Y-106000000D03*
%TD*%
D56*
%TO.C,D101*%
X152500000Y-107980000D03*
X152500000Y-104020000D03*
%TD*%
D26*
%TO.C,C312*%
X124500000Y-80952500D03*
X122595000Y-80952500D03*
%TD*%
%TO.C,C310*%
X138047500Y-88000000D03*
X139952500Y-88000000D03*
%TD*%
%TO.C,C309*%
X121595000Y-96000000D03*
X123500000Y-96000000D03*
%TD*%
%TO.C,C308*%
X121595000Y-94000000D03*
X123500000Y-94000000D03*
%TD*%
%TO.C,C307*%
X121500000Y-92000000D03*
X123405000Y-92000000D03*
%TD*%
D14*
%TO.C,C211*%
X105000000Y-114000000D03*
X105000000Y-115524000D03*
%TD*%
%TO.C,C210*%
X109500000Y-114000000D03*
X109500000Y-115524000D03*
%TD*%
%TO.C,C208*%
X106500000Y-97524000D03*
X106500000Y-96000000D03*
%TD*%
%TO.C,C207*%
X111000000Y-97500000D03*
X111000000Y-95976000D03*
%TD*%
%TO.C,C205*%
X115500000Y-113976000D03*
X115500000Y-115500000D03*
%TD*%
%TO.C,C204*%
X112500000Y-114000000D03*
X112500000Y-115524000D03*
%TD*%
%TO.C,C203*%
X107500000Y-88500000D03*
X107500000Y-90024000D03*
%TD*%
%TO.C,C201*%
X104500000Y-88500000D03*
X104500000Y-90024000D03*
%TD*%
D15*
%TO.C,C112*%
X124500000Y-110500000D03*
X122976000Y-110500000D03*
%TD*%
D14*
%TO.C,C104*%
X136500000Y-117524000D03*
X136500000Y-116000000D03*
%TD*%
%TO.C,C323*%
X133000000Y-86500000D03*
X133000000Y-88024000D03*
%TD*%
D15*
%TO.C,C322*%
X133476000Y-85000000D03*
X135000000Y-85000000D03*
%TD*%
%TO.C,C321*%
X132738000Y-81500000D03*
X134262000Y-81500000D03*
%TD*%
D14*
%TO.C,C320*%
X114000000Y-84500000D03*
X114000000Y-82976000D03*
%TD*%
D15*
%TO.C,C318*%
X95062000Y-85000000D03*
X93538000Y-85000000D03*
%TD*%
D14*
%TO.C,C313*%
X111000000Y-84524000D03*
X111000000Y-83000000D03*
%TD*%
D15*
%TO.C,C319*%
X127238000Y-91500000D03*
X128762000Y-91500000D03*
%TD*%
%TO.C,C311*%
X116976000Y-81500000D03*
X118500000Y-81500000D03*
%TD*%
D14*
%TO.C,C304*%
X100000000Y-109662000D03*
X100000000Y-108138000D03*
%TD*%
D15*
%TO.C,C303*%
X107762000Y-79500000D03*
X106238000Y-79500000D03*
%TD*%
D14*
%TO.C,C209*%
X121500000Y-102000000D03*
X121500000Y-103524000D03*
%TD*%
%TO.C,C206*%
X102000000Y-97524000D03*
X102000000Y-96000000D03*
%TD*%
M02*
